<?xml version="1.0" encoding="UTF-8"?>
<!DOCTYPE svg PUBLIC "-//W3C//DTD SVG 1.1//EN" "http://www.w3.org/Graphics/SVG/1.1/DTD/svg11.dtd">
<svg xmlns="http://www.w3.org/2000/svg" version="1.1" width="781px" height="781px" style="shape-rendering:geometricPrecision; text-rendering:geometricPrecision; image-rendering:optimizeQuality; fill-rule:evenodd; clip-rule:evenodd" xmlns:xlink="http://www.w3.org/1999/xlink">
<g><path style="opacity:0.997" fill="#fefefe" d="M 362.5,-0.5 C 380.833,-0.5 399.167,-0.5 417.5,-0.5C 554.752,13.3505 658.918,79.0171 730,196.5C 758.933,248.249 775.766,303.583 780.5,362.5C 780.5,380.833 780.5,399.167 780.5,417.5C 766.65,554.752 700.983,658.918 583.5,730C 531.751,758.933 476.417,775.766 417.5,780.5C 399.167,780.5 380.833,780.5 362.5,780.5C 225.248,766.65 121.082,700.983 50,583.5C 21.0673,531.751 4.23399,476.417 -0.5,417.5C -0.5,399.167 -0.5,380.833 -0.5,362.5C 13.3505,225.248 79.0171,121.082 196.5,50C 248.249,21.0673 303.583,4.23399 362.5,-0.5 Z"/></g>
<g><path style="opacity:1" fill="#f8cedc" d="M 701.5,169.5 C 700.351,169.791 699.684,170.624 699.5,172C 697.714,179.095 696.381,186.262 695.5,193.5C 694.883,193.611 694.383,193.944 694,194.5C 687.198,188.699 680.698,182.532 674.5,176C 672.866,175.506 671.199,175.34 669.5,175.5C 679.081,172.369 688.914,169.703 699,167.5C 700.376,167.684 701.209,168.351 701.5,169.5 Z"/></g>
<g><path style="opacity:1" fill="#f2bdd0" d="M 669.5,175.5 C 671.199,175.34 672.866,175.506 674.5,176C 680.698,182.532 687.198,188.699 694,194.5C 694.383,193.944 694.883,193.611 695.5,193.5C 694.07,198.743 693.07,204.076 692.5,209.5C 691.883,209.611 691.383,209.944 691,210.5C 680.167,200.333 669.333,190.167 658.5,180C 657.207,179.51 655.873,179.343 654.5,179.5C 659.191,177.409 664.191,176.076 669.5,175.5 Z"/></g>
<g><path style="opacity:1" fill="#ecaac4" d="M 654.5,179.5 C 655.873,179.343 657.207,179.51 658.5,180C 669.333,190.167 680.167,200.333 691,210.5C 691.383,209.944 691.883,209.611 692.5,209.5C 692.106,215.796 690.773,221.796 688.5,227.5C 673.036,213.204 657.703,198.704 642.5,184C 641.207,183.51 639.873,183.343 638.5,183.5C 643.573,181.565 648.906,180.232 654.5,179.5 Z"/></g>
<g><path style="opacity:1" fill="#e79ab9" d="M 638.5,183.5 C 639.873,183.343 641.207,183.51 642.5,184C 657.703,198.704 673.036,213.204 688.5,227.5C 687.963,232.186 687.296,236.853 686.5,241.5C 681.462,234.953 675.795,228.786 669.5,223C 656.833,211 644.167,199 631.5,187C 630.207,186.51 628.873,186.343 627.5,186.5C 630.961,185.134 634.627,184.134 638.5,183.5 Z"/></g>
<g><path style="opacity:1" fill="#e38eb1" d="M 627.5,186.5 C 628.873,186.343 630.207,186.51 631.5,187C 644.167,199 656.833,211 669.5,223C 675.795,228.786 681.462,234.953 686.5,241.5C 686.795,243.735 686.461,245.735 685.5,247.5C 684.883,247.611 684.383,247.944 684,248.5C 662.864,229.032 642.031,209.198 621.5,189C 620.906,188.536 620.239,188.369 619.5,188.5C 621.905,187.232 624.572,186.565 627.5,186.5 Z"/></g>
<g><path style="opacity:1" fill="#df83a9" d="M 619.5,188.5 C 620.239,188.369 620.906,188.536 621.5,189C 642.031,209.198 662.864,229.032 684,248.5C 684.383,247.944 684.883,247.611 685.5,247.5C 685.583,251.335 684.917,255.002 683.5,258.5C 682.71,259.609 682.21,260.942 682,262.5C 678.535,258.033 674.702,253.867 670.5,250C 649.662,230.661 628.995,211.161 608.5,191.5C 611.854,189.742 615.521,188.742 619.5,188.5 Z"/></g>
<g><path style="opacity:1" fill="#b92a6a" d="M 701.5,169.5 C 705.473,183.919 709.139,198.419 712.5,213C 709.159,230.864 704.825,248.364 699.5,265.5C 699.389,264.883 699.056,264.383 698.5,264C 693.387,263.145 688.387,261.979 683.5,260.5C 683.5,259.833 683.5,259.167 683.5,258.5C 684.917,255.002 685.583,251.335 685.5,247.5C 686.461,245.735 686.795,243.735 686.5,241.5C 687.296,236.853 687.963,232.186 688.5,227.5C 690.773,221.796 692.106,215.796 692.5,209.5C 693.07,204.076 694.07,198.743 695.5,193.5C 696.381,186.262 697.714,179.095 699.5,172C 699.684,170.624 700.351,169.791 701.5,169.5 Z"/></g>
<g><path style="opacity:1" fill="#db75a0" d="M 608.5,191.5 C 628.995,211.161 649.662,230.661 670.5,250C 674.702,253.867 678.535,258.033 682,262.5C 682.21,260.942 682.71,259.609 683.5,258.5C 683.5,259.167 683.5,259.833 683.5,260.5C 683.084,263.583 682.417,266.583 681.5,269.5C 680.71,270.609 680.21,271.942 680,273.5C 652.297,246.962 624.464,220.629 596.5,194.5C 600.239,192.898 604.239,191.898 608.5,191.5 Z"/></g>
<g><path style="opacity:1" fill="#d66998" d="M 596.5,194.5 C 624.464,220.629 652.297,246.962 680,273.5C 680.21,271.942 680.71,270.609 681.5,269.5C 681.341,273.291 680.675,276.958 679.5,280.5C 678.71,281.609 678.21,282.942 678,284.5C 675.616,280.107 672.449,276.274 668.5,273C 642.167,248 615.833,223 589.5,198C 588.207,197.51 586.873,197.343 585.5,197.5C 588.854,195.742 592.521,194.742 596.5,194.5 Z"/></g>
<g><path style="opacity:1" fill="#d36092" d="M 585.5,197.5 C 586.873,197.343 588.207,197.51 589.5,198C 615.833,223 642.167,248 668.5,273C 672.449,276.274 675.616,280.107 678,284.5C 678.21,282.942 678.71,281.609 679.5,280.5C 679.784,282.415 679.451,284.081 678.5,285.5C 677.839,286.718 677.172,288.051 676.5,289.5C 644.38,260.216 612.714,230.382 581.5,200C 580.207,199.51 578.873,199.343 577.5,199.5C 579.905,198.232 582.572,197.565 585.5,197.5 Z"/></g>
<g><path style="opacity:1" fill="#d0558c" d="M 577.5,199.5 C 578.873,199.343 580.207,199.51 581.5,200C 612.714,230.382 644.38,260.216 676.5,289.5C 677.172,288.051 677.839,286.718 678.5,285.5C 678.341,289.291 677.675,292.958 676.5,296.5C 675.71,297.609 675.21,298.942 675,300.5C 671.608,295.1 667.441,290.267 662.5,286C 632.531,258.366 602.865,230.366 573.5,202C 572.207,201.51 570.873,201.343 569.5,201.5C 571.905,200.232 574.572,199.565 577.5,199.5 Z"/></g>
<g><path style="opacity:1" fill="#cc4a84" d="M 569.5,201.5 C 570.873,201.343 572.207,201.51 573.5,202C 602.865,230.366 632.531,258.366 662.5,286C 667.441,290.267 671.608,295.1 675,300.5C 675.21,298.942 675.71,297.609 676.5,296.5C 676.159,300.709 675.492,304.875 674.5,309C 674.316,310.376 673.649,311.209 672.5,311.5C 666.762,304.256 660.428,297.423 653.5,291C 622.864,262.699 592.531,234.032 562.5,205C 561.207,204.51 559.873,204.343 558.5,204.5C 561.854,202.742 565.521,201.742 569.5,201.5 Z"/></g>
<g><path style="opacity:1" fill="#c83e7c" d="M 558.5,204.5 C 559.873,204.343 561.207,204.51 562.5,205C 592.531,234.032 622.864,262.699 653.5,291C 660.428,297.423 666.762,304.256 672.5,311.5C 672.829,314.228 672.163,316.562 670.5,318.5C 631.698,281.2 592.698,244.033 553.5,207C 552.552,206.517 551.552,206.351 550.5,206.5C 552.905,205.232 555.572,204.565 558.5,204.5 Z"/></g>
<g><path style="opacity:1" fill="#c53576" d="M 550.5,206.5 C 551.552,206.351 552.552,206.517 553.5,207C 592.698,244.033 631.698,281.2 670.5,318.5C 670.552,320.903 670.219,323.236 669.5,325.5C 628.703,287.204 588.036,248.704 547.5,210C 545.975,208.991 544.308,208.491 542.5,208.5C 544.905,207.232 547.572,206.565 550.5,206.5 Z"/></g>
<g><path style="opacity:1" fill="#c22c70" d="M 542.5,208.5 C 544.308,208.491 545.975,208.991 547.5,210C 588.036,248.704 628.703,287.204 669.5,325.5C 669.198,328.373 668.531,331.039 667.5,333.5C 624.369,292.871 581.369,252.038 538.5,211C 537.552,210.517 536.552,210.351 535.5,210.5C 537.515,209.076 539.848,208.41 542.5,208.5 Z"/></g>
<g><path style="opacity:1" fill="#be2269" d="M 535.5,210.5 C 536.552,210.351 537.552,210.517 538.5,211C 581.369,252.038 624.369,292.871 667.5,333.5C 667.145,339.939 666.145,346.273 664.5,352.5C 615.933,306.722 567.6,260.722 519.5,214.5C 524.573,212.565 529.906,211.232 535.5,210.5 Z"/></g>
<g><path style="opacity:1" fill="#b82166" d="M 519.5,214.5 C 567.6,260.722 615.933,306.722 664.5,352.5C 663.381,359.217 662.047,365.884 660.5,372.5C 609.369,324.538 558.369,276.371 507.5,228C 504.553,225.564 502.22,222.731 500.5,219.5C 506.577,217.259 512.91,215.592 519.5,214.5 Z"/></g>
<g><path style="opacity:1" fill="#b22164" d="M 500.5,219.5 C 502.22,222.731 504.553,225.564 507.5,228C 558.369,276.371 609.369,324.538 660.5,372.5C 659.167,380.167 657.833,387.833 656.5,395.5C 639.69,379.601 622.69,363.934 605.5,348.5C 605.5,343.5 605.5,338.5 605.5,333.5C 601.633,333.242 597.966,333.908 594.5,335.5C 592.745,334.928 591.078,334.094 589.5,333C 552.271,296.935 514.938,261.102 477.5,225.5C 484.86,222.742 492.527,220.742 500.5,219.5 Z"/></g>
<g><path style="opacity:1" fill="#ab2161" d="M 477.5,225.5 C 514.938,261.102 552.271,296.935 589.5,333C 591.078,334.094 592.745,334.928 594.5,335.5C 593.752,337.332 592.752,338.999 591.5,340.5C 589.969,345.25 589.302,350.25 589.5,355.5C 544.889,314.558 500.889,272.892 457.5,230.5C 463.989,228.211 470.655,226.545 477.5,225.5 Z"/></g>
<g><path style="opacity:1" fill="#a4225e" d="M 457.5,230.5 C 500.889,272.892 544.889,314.558 589.5,355.5C 589.5,356.5 589.5,357.5 589.5,358.5C 588.492,371.953 586.825,385.286 584.5,398.5C 570.994,387.213 557.994,375.213 545.5,362.5C 544.534,360.604 544.201,358.604 544.5,356.5C 544.354,348.804 544.687,341.138 545.5,333.5C 543.369,332.686 541.036,332.186 538.5,332C 507.469,301.968 476.136,272.301 444.5,243C 441.882,240.894 439.882,238.394 438.5,235.5C 444.606,233.389 450.939,231.722 457.5,230.5 Z"/></g>
<g><path style="opacity:1" fill="#a0235d" d="M 438.5,235.5 C 439.882,238.394 441.882,240.894 444.5,243C 476.136,272.301 507.469,301.968 538.5,332C 541.036,332.186 543.369,332.686 545.5,333.5C 535.833,333.5 526.167,333.5 516.5,333.5C 512.06,330.237 507.727,326.737 503.5,323C 475.167,296 446.833,269 418.5,242C 419.056,241.617 419.389,241.117 419.5,240.5C 425.606,238.389 431.939,236.722 438.5,235.5 Z"/></g>
<g><path style="opacity:1" fill="#98235a" d="M 419.5,240.5 C 419.389,241.117 419.056,241.617 418.5,242C 446.833,269 475.167,296 503.5,323C 507.727,326.737 512.06,330.237 516.5,333.5C 516.5,337.167 516.5,340.833 516.5,344.5C 519.833,344.5 523.167,344.5 526.5,344.5C 526.213,357.609 525.213,370.609 523.5,383.5C 522.683,385.969 522.183,388.635 522,391.5C 515.285,384.283 508.118,377.616 500.5,371.5C 499.817,371.863 499.15,372.196 498.5,372.5C 502.917,363.997 507.583,355.664 512.5,347.5C 513.404,346.791 513.737,345.791 513.5,344.5C 510.287,344.19 507.287,344.523 504.5,345.5C 502.784,345.629 501.117,345.962 499.5,346.5C 465.005,313.505 430.338,280.672 395.5,248C 396.056,247.617 396.389,247.117 396.5,246.5C 403.946,244.054 411.613,242.054 419.5,240.5 Z"/></g>
<g><path style="opacity:1" fill="#922056" d="M 396.5,246.5 C 396.389,247.117 396.056,247.617 395.5,248C 430.338,280.672 465.005,313.505 499.5,346.5C 495.096,349.574 491.763,353.574 489.5,358.5C 486.732,356.913 484.065,355.08 481.5,353C 446.803,319.302 411.803,285.968 376.5,253C 377.056,252.617 377.389,252.117 377.5,251.5C 383.648,249.465 389.982,247.798 396.5,246.5 Z"/></g>
<g><path style="opacity:1" fill="#8b2154" d="M 377.5,251.5 C 377.389,252.117 377.056,252.617 376.5,253C 411.803,285.968 446.803,319.302 481.5,353C 484.065,355.08 486.732,356.913 489.5,358.5C 482.113,372.269 474.446,385.936 466.5,399.5C 460.043,382.012 454.043,364.345 448.5,346.5C 443.944,344.558 438.944,343.892 433.5,344.5C 404.062,316.899 374.729,289.065 345.5,261C 346.056,260.617 346.389,260.117 346.5,259.5C 356.614,256.387 366.947,253.721 377.5,251.5 Z"/></g>
<g><path style="opacity:1" fill="#812150" d="M 346.5,259.5 C 346.389,260.117 346.056,260.617 345.5,261C 374.729,289.065 404.062,316.899 433.5,344.5C 430.615,344.194 427.948,344.527 425.5,345.5C 424.517,349.298 424.183,353.298 424.5,357.5C 427.5,357.5 430.5,357.5 433.5,357.5C 435.735,362.204 437.401,367.204 438.5,372.5C 438.528,375.916 439.528,378.916 441.5,381.5C 442.5,384.833 443.5,388.167 444.5,391.5C 443.234,390.91 441.901,390.41 440.5,390C 427.623,377.49 415.957,366.323 405.5,356.5C 410.167,356.5 414.833,356.5 419.5,356.5C 419.5,354.167 419.5,351.833 419.5,349.5C 420.451,348.081 420.784,346.415 420.5,344.5C 416.167,344.5 411.833,344.5 407.5,344.5C 407.5,341.5 407.5,338.5 407.5,335.5C 407.5,332.833 407.5,330.167 407.5,327.5C 401.281,327.979 395.281,329.313 389.5,331.5C 388.683,333.969 388.183,336.635 388,339.5C 383.097,335.683 378.931,331.35 375.5,326.5C 374.096,323.623 371.763,321.956 368.5,321.5C 350.241,304.016 331.908,286.516 313.5,269C 314.056,268.617 314.389,268.117 314.5,267.5C 325.073,264.523 335.74,261.857 346.5,259.5 Z"/></g>
<g><path style="opacity:1" fill="#79244e" d="M 314.5,267.5 C 314.389,268.117 314.056,268.617 313.5,269C 331.908,286.516 350.241,304.016 368.5,321.5C 358.138,322.768 355.471,327.934 360.5,337C 370.347,340.311 375.347,336.811 375.5,326.5C 378.931,331.35 383.097,335.683 388,339.5C 388.183,336.635 388.683,333.969 389.5,331.5C 388.361,350.025 386.695,368.358 384.5,386.5C 384.649,385.448 384.483,384.448 384,383.5C 380.633,379.797 376.966,376.464 373,373.5C 372.51,372.207 372.343,370.873 372.5,369.5C 372.5,366.5 372.5,363.5 372.5,360.5C 373.665,355.367 374.332,350.034 374.5,344.5C 364.985,344.173 355.652,344.506 346.5,345.5C 345.833,345.5 345.5,345.833 345.5,346.5C 343.833,345.5 342.5,344.167 341.5,342.5C 343.344,340.721 344.01,338.388 343.5,335.5C 344.244,331.881 344.577,328.215 344.5,324.5C 341.557,324.02 338.89,323.02 336.5,321.5C 337.239,321.631 337.906,321.464 338.5,321C 322.297,305.296 305.964,289.796 289.5,274.5C 297.601,271.722 305.934,269.388 314.5,267.5 Z"/></g>
<g><path style="opacity:1" fill="#72224a" d="M 289.5,274.5 C 305.964,289.796 322.297,305.296 338.5,321C 337.906,321.464 337.239,321.631 336.5,321.5C 324.978,318.84 313.311,318.007 301.5,319C 298.421,319.685 295.421,320.519 292.5,321.5C 284.56,311.726 275.727,302.726 266,294.5C 265.329,295.252 264.496,295.586 263.5,295.5C 267.908,288.918 272.908,282.751 278.5,277C 282.07,275.69 285.737,274.857 289.5,274.5 Z"/></g>
<g><path style="opacity:1" fill="#6a2347" d="M 292.5,321.5 C 273.76,328.9 261.76,342.233 256.5,361.5C 254.96,363.838 254.294,366.505 254.5,369.5C 251.054,386.1 254.554,401.1 265,414.5C 268.734,417.952 272.9,420.785 277.5,423C 246.411,417.427 215.411,411.094 184.5,404C 183.978,403.439 183.645,402.772 183.5,402C 209.631,366.044 236.298,330.544 263.5,295.5C 264.496,295.586 265.329,295.252 266,294.5C 275.727,302.726 284.56,311.726 292.5,321.5 Z"/></g>
<g><path style="opacity:1" fill="#f8f3f5" d="M 368.5,321.5 C 371.763,321.956 374.096,323.623 375.5,326.5C 375.347,336.811 370.347,340.311 360.5,337C 355.471,327.934 358.138,322.768 368.5,321.5 Z"/></g>
<g><path style="opacity:1" fill="#fbf8f9" d="M 407.5,335.5 C 406.521,338.625 406.187,341.958 406.5,345.5C 410.833,345.5 415.167,345.5 419.5,345.5C 419.5,346.833 419.5,348.167 419.5,349.5C 419.5,351.833 419.5,354.167 419.5,356.5C 414.833,356.5 410.167,356.5 405.5,356.5C 404.558,365.33 403.892,374.33 403.5,383.5C 402.8,387.798 402.467,392.131 402.5,396.5C 401.08,402.099 401.247,407.765 403,413.5C 403.833,415 405,416.167 406.5,417C 411.749,416.544 415.916,418.378 419,422.5C 419.494,424.134 419.66,425.801 419.5,427.5C 412.189,428.469 404.856,428.636 397.5,428C 391,425.5 386.5,421 384,414.5C 383.22,405.119 383.387,395.786 384.5,386.5C 386.695,368.358 388.361,350.025 389.5,331.5C 395.281,329.313 401.281,327.979 407.5,327.5C 407.5,330.167 407.5,332.833 407.5,335.5 Z"/></g>
<g><path style="opacity:1" fill="#6a2247" d="M 330.5,335.5 C 330.5,337.833 330.5,340.167 330.5,342.5C 334.167,342.5 337.833,342.5 341.5,342.5C 342.5,344.167 343.833,345.5 345.5,346.5C 345.5,350.167 345.5,353.833 345.5,357.5C 348.5,357.5 351.5,357.5 354.5,357.5C 354.5,359.167 354.5,360.833 354.5,362.5C 354.322,373.974 353.156,385.307 351,396.5C 350.168,404.521 350.335,412.521 351.5,420.5C 354.962,426.773 360.295,429.439 367.5,428.5C 368.56,408.636 370.226,388.97 372.5,369.5C 372.343,370.873 372.51,372.207 373,373.5C 376.966,376.464 380.633,379.797 384,383.5C 384.483,384.448 384.649,385.448 384.5,386.5C 383.387,395.786 383.22,405.119 384,414.5C 386.5,421 391,425.5 397.5,428C 404.856,428.636 412.189,428.469 419.5,427.5C 419.66,425.801 419.494,424.134 419,422.5C 415.916,418.378 411.749,416.544 406.5,417C 405,416.167 403.833,415 403,413.5C 401.247,407.765 401.08,402.099 402.5,396.5C 402.34,398.199 402.506,399.866 403,401.5C 417.081,414.415 430.581,427.748 443.5,441.5C 441.101,446.519 438.601,451.519 436,456.5C 435.275,457.059 434.442,457.392 433.5,457.5C 389.192,447.898 344.859,438.398 300.5,429C 312.863,428.659 324.529,425.659 335.5,420C 338.215,416.28 337.215,413.613 332.5,412C 331,411.833 329.5,411.667 328,411.5C 321.34,413.575 314.506,414.575 307.5,414.5C 288.339,415.33 277.339,406.33 274.5,387.5C 274.06,378.051 274.727,368.718 276.5,359.5C 286.864,335.132 304.864,327.132 330.5,335.5 Z"/></g>
<g><path style="opacity:1" fill="#fcf8fa" d="M 516.5,333.5 C 526.167,333.5 535.833,333.5 545.5,333.5C 544.687,341.138 544.354,348.804 544.5,356.5C 541.601,371.518 540.767,386.851 542,402.5C 546.555,415.029 555.389,419.529 568.5,416C 577.845,413.823 583.178,407.989 584.5,398.5C 586.825,385.286 588.492,371.953 589.5,358.5C 590.81,352.712 591.477,346.712 591.5,340.5C 592.752,338.999 593.752,337.332 594.5,335.5C 597.966,333.908 601.633,333.242 605.5,333.5C 605.5,338.5 605.5,343.5 605.5,348.5C 604.116,355.385 603.45,362.385 603.5,369.5C 602.734,374.363 602.068,379.363 601.5,384.5C 600.475,387.974 599.808,391.64 599.5,395.5C 599.165,400.498 597.832,405.165 595.5,409.5C 588.54,421.155 578.206,427.488 564.5,428.5C 532.467,430.461 518.801,415.461 523.5,383.5C 525.213,370.609 526.213,357.609 526.5,344.5C 523.167,344.5 519.833,344.5 516.5,344.5C 516.5,340.833 516.5,337.167 516.5,333.5 Z"/></g>
<g><path style="opacity:1" fill="#d2b9c5" d="M 330.5,335.5 C 331.461,337.265 331.795,339.265 331.5,341.5C 335.167,341.5 338.833,341.5 342.5,341.5C 342.205,339.265 342.539,337.265 343.5,335.5C 344.01,338.388 343.344,340.721 341.5,342.5C 337.833,342.5 334.167,342.5 330.5,342.5C 330.5,340.167 330.5,337.833 330.5,335.5 Z"/></g>
<g><path style="opacity:1" fill="#be96aa" d="M 346.5,345.5 C 355.652,344.506 364.985,344.173 374.5,344.5C 374.332,350.034 373.665,355.367 372.5,360.5C 372.337,355.453 372.671,350.453 373.5,345.5C 364.5,345.5 355.5,345.5 346.5,345.5 Z"/></g>
<g><path style="opacity:1" fill="#c08fa7" d="M 407.5,335.5 C 407.5,338.5 407.5,341.5 407.5,344.5C 411.833,344.5 416.167,344.5 420.5,344.5C 420.784,346.415 420.451,348.081 419.5,349.5C 419.5,348.167 419.5,346.833 419.5,345.5C 415.167,345.5 410.833,345.5 406.5,345.5C 406.187,341.958 406.521,338.625 407.5,335.5 Z"/></g>
<g><path style="opacity:1" fill="#cfa7bb" d="M 425.5,345.5 C 427.948,344.527 430.615,344.194 433.5,344.5C 438.944,343.892 443.944,344.558 448.5,346.5C 440.92,345.534 433.253,345.201 425.5,345.5 Z"/></g>
<g><path style="opacity:1" fill="#d3a1b9" d="M 504.5,345.5 C 507.287,344.523 510.287,344.19 513.5,344.5C 513.737,345.791 513.404,346.791 512.5,347.5C 510.365,345.631 507.698,344.964 504.5,345.5 Z"/></g>
<g><path style="opacity:1" fill="#faf7f9" d="M 346.5,345.5 C 355.5,345.5 364.5,345.5 373.5,345.5C 372.671,350.453 372.337,355.453 372.5,360.5C 372.5,363.5 372.5,366.5 372.5,369.5C 370.226,388.97 368.56,408.636 367.5,428.5C 360.295,429.439 354.962,426.773 351.5,420.5C 350.335,412.521 350.168,404.521 351,396.5C 353.156,385.307 354.322,373.974 354.5,362.5C 355.461,360.735 355.795,358.735 355.5,356.5C 352.5,356.5 349.5,356.5 346.5,356.5C 346.5,352.833 346.5,349.167 346.5,345.5 Z"/></g>
<g><path style="opacity:1" fill="#ab2161" d="M 605.5,348.5 C 622.69,363.934 639.69,379.601 656.5,395.5C 655.193,402.2 653.693,408.867 652,415.5C 635.333,400.665 619.166,385.332 603.5,369.5C 603.45,362.385 604.116,355.385 605.5,348.5 Z"/></g>
<g><path style="opacity:1" fill="#ac7e95" d="M 346.5,345.5 C 346.5,349.167 346.5,352.833 346.5,356.5C 349.5,356.5 352.5,356.5 355.5,356.5C 355.795,358.735 355.461,360.735 354.5,362.5C 354.5,360.833 354.5,359.167 354.5,357.5C 351.5,357.5 348.5,357.5 345.5,357.5C 345.5,353.833 345.5,350.167 345.5,346.5C 345.5,345.833 345.833,345.5 346.5,345.5 Z"/></g>
<g><path style="opacity:1" fill="#b9829c" d="M 425.5,345.5 C 425.5,349.167 425.5,352.833 425.5,356.5C 428.385,356.194 431.052,356.527 433.5,357.5C 430.5,357.5 427.5,357.5 424.5,357.5C 424.183,353.298 424.517,349.298 425.5,345.5 Z"/></g>
<g><path style="opacity:1" fill="#dfacc3" d="M 591.5,340.5 C 591.477,346.712 590.81,352.712 589.5,358.5C 589.5,357.5 589.5,356.5 589.5,355.5C 589.302,350.25 589.969,345.25 591.5,340.5 Z"/></g>
<g><path style="opacity:1" fill="#7a234e" d="M 405.5,356.5 C 415.957,366.323 427.623,377.49 440.5,390C 441.901,390.41 443.234,390.91 444.5,391.5C 445.458,393.302 446.125,395.302 446.5,397.5C 446.528,400.916 447.528,403.916 449.5,406.5C 451.56,411.683 453.227,417.016 454.5,422.5C 453.409,425.022 452.075,427.355 450.5,429.5C 449.564,426.041 447.564,423.207 444.5,421C 431.148,408.019 417.482,395.519 403.5,383.5C 403.892,374.33 404.558,365.33 405.5,356.5 Z"/></g>
<g><path style="opacity:1" fill="#99245a" d="M 544.5,356.5 C 544.201,358.604 544.534,360.604 545.5,362.5C 557.994,375.213 570.994,387.213 584.5,398.5C 583.178,407.989 577.845,413.823 568.5,416C 555.389,419.529 546.555,415.029 542,402.5C 540.767,386.851 541.601,371.518 544.5,356.5 Z"/></g>
<g><path style="opacity:1" fill="#c3a7b6" d="M 256.5,361.5 C 256.435,364.428 255.768,367.095 254.5,369.5C 254.294,366.505 254.96,363.838 256.5,361.5 Z"/></g>
<g><path style="opacity:1" fill="#a4235f" d="M 683.5,260.5 C 688.387,261.979 693.387,263.145 698.5,264C 699.056,264.383 699.389,264.883 699.5,265.5C 692.299,295.97 684.633,326.303 676.5,356.5C 675.739,357.391 674.739,358.058 673.5,358.5C 670.917,358.019 668.417,357.352 666,356.5C 661.007,380.131 656.34,403.798 652,427.5C 648.647,436.956 646.147,446.623 644.5,456.5C 627.837,441.17 611.504,425.503 595.5,409.5C 597.832,405.165 599.165,400.498 599.5,395.5C 600.222,395.082 600.722,394.416 601,393.5C 601.498,390.518 601.665,387.518 601.5,384.5C 602.068,379.363 602.734,374.363 603.5,369.5C 619.166,385.332 635.333,400.665 652,415.5C 653.693,408.867 655.193,402.2 656.5,395.5C 657.833,387.833 659.167,380.167 660.5,372.5C 662.047,365.884 663.381,359.217 664.5,352.5C 666.145,346.273 667.145,339.939 667.5,333.5C 668.531,331.039 669.198,328.373 669.5,325.5C 670.219,323.236 670.552,320.903 670.5,318.5C 672.163,316.562 672.829,314.228 672.5,311.5C 673.649,311.209 674.316,310.376 674.5,309C 675.492,304.875 676.159,300.709 676.5,296.5C 677.675,292.958 678.341,289.291 678.5,285.5C 679.451,284.081 679.784,282.415 679.5,280.5C 680.675,276.958 681.341,273.291 681.5,269.5C 682.417,266.583 683.084,263.583 683.5,260.5 Z"/></g>
<g><path style="opacity:1" fill="#8d2355" d="M 523.5,383.5 C 518.801,415.461 532.467,430.461 564.5,428.5C 564.082,429.222 563.416,429.722 562.5,430C 587,453.167 611.5,476.333 636,499.5C 636.782,496.69 637.616,494.023 638.5,491.5C 638.54,494.881 638.207,498.214 637.5,501.5C 626.404,499.485 615.404,497.152 604.5,494.5C 604.586,493.504 604.252,492.671 603.5,492C 565.942,456.606 528.609,421.106 491.5,385.5C 493.583,381 495.916,376.666 498.5,372.5C 499.15,372.196 499.817,371.863 500.5,371.5C 508.118,377.616 515.285,384.283 522,391.5C 522.183,388.635 522.683,385.969 523.5,383.5 Z"/></g>
<g><path style="opacity:1" fill="#8c5570" d="M 276.5,359.5 C 274.727,368.718 274.06,378.051 274.5,387.5C 273.345,380.345 273.178,373.012 274,365.5C 274.566,363.277 275.4,361.277 276.5,359.5 Z"/></g>
<g><path style="opacity:1" fill="#c192a9" d="M 438.5,372.5 C 440.072,375.215 441.072,378.215 441.5,381.5C 439.528,378.916 438.528,375.916 438.5,372.5 Z"/></g>
<g><path style="opacity:1" fill="#73204a" d="M 403.5,383.5 C 417.482,395.519 431.148,408.019 444.5,421C 447.564,423.207 449.564,426.041 450.5,429.5C 448.656,433.864 446.323,437.864 443.5,441.5C 430.581,427.748 417.081,414.415 403,401.5C 402.506,399.866 402.34,398.199 402.5,396.5C 402.467,392.131 402.8,387.798 403.5,383.5 Z"/></g>
<g><path style="opacity:1" fill="#ce88a7" d="M 601.5,384.5 C 601.665,387.518 601.498,390.518 601,393.5C 600.722,394.416 600.222,395.082 599.5,395.5C 599.808,391.64 600.475,387.974 601.5,384.5 Z"/></g>
<g><path style="opacity:1" fill="#862152" d="M 491.5,385.5 C 528.609,421.106 565.942,456.606 603.5,492C 604.252,492.671 604.586,493.504 604.5,494.5C 593.821,492.165 583.154,489.832 572.5,487.5C 543.365,459.2 514.032,431.034 484.5,403C 483.423,402.53 482.423,402.697 481.5,403.5C 484.33,397.17 487.663,391.17 491.5,385.5 Z"/></g>
<g><path style="opacity:1" fill="#bf92a8" d="M 446.5,397.5 C 448.072,400.215 449.072,403.215 449.5,406.5C 447.528,403.916 446.528,400.916 446.5,397.5 Z"/></g>
<g><path style="opacity:1" fill="#812150" d="M 572.5,487.5 C 559.5,484.833 546.5,482.167 533.5,479.5C 530.772,475.263 527.439,471.429 523.5,468C 506.365,452.533 489.531,436.7 473,420.5C 472.617,421.056 472.117,421.389 471.5,421.5C 473.823,414.847 477.156,408.847 481.5,403.5C 482.423,402.697 483.423,402.53 484.5,403C 514.032,431.034 543.365,459.2 572.5,487.5 Z"/></g>
<g><path style="opacity:1" fill="#8c2958" d="M 676.5,356.5 C 669.611,385.06 662.278,413.393 654.5,441.5C 654.278,438.315 652.778,437.315 650,438.5C 648.225,450.902 645.391,462.902 641.5,474.5C 642.5,468.5 643.5,462.5 644.5,456.5C 646.147,446.623 648.647,436.956 652,427.5C 656.34,403.798 661.007,380.131 666,356.5C 668.417,357.352 670.917,358.019 673.5,358.5C 674.739,358.058 675.739,357.391 676.5,356.5 Z"/></g>
<g><path style="opacity:1" fill="#79234d" d="M 533.5,479.5 C 505.57,473.288 477.57,467.288 449.5,461.5C 455.802,447.56 463.135,434.226 471.5,421.5C 472.117,421.389 472.617,421.056 473,420.5C 489.531,436.7 506.365,452.533 523.5,468C 527.439,471.429 530.772,475.263 533.5,479.5 Z"/></g>
<g><path style="opacity:1" fill="#942157" d="M 595.5,409.5 C 611.504,425.503 627.837,441.17 644.5,456.5C 643.5,462.5 642.5,468.5 641.5,474.5C 641.651,480.406 640.651,486.072 638.5,491.5C 637.616,494.023 636.782,496.69 636,499.5C 611.5,476.333 587,453.167 562.5,430C 563.416,429.722 564.082,429.222 564.5,428.5C 578.206,427.488 588.54,421.155 595.5,409.5 Z"/></g>
<g><path style="opacity:1" fill="#7d2d54" d="M 654.5,441.5 C 649.885,461.236 644.885,480.903 639.5,500.5C 639.043,501.298 638.376,501.631 637.5,501.5C 638.207,498.214 638.54,494.881 638.5,491.5C 640.651,486.072 641.651,480.406 641.5,474.5C 645.391,462.902 648.225,450.902 650,438.5C 652.778,437.315 654.278,438.315 654.5,441.5 Z"/></g>
<g><path style="opacity:1" fill="#302c2d" d="M 79.5,486.5 C 78.5489,487.919 78.2155,489.585 78.5,491.5C 85.1667,491.5 91.8333,491.5 98.5,491.5C 98.5,492.167 98.5,492.833 98.5,493.5C 92.8236,493.334 87.1569,493.501 81.5,494C 82.2438,495.039 83.2438,495.539 84.5,495.5C 88.603,499.061 93.2697,501.894 98.5,504C 99.9023,505.342 99.5689,506.176 97.5,506.5C 91.3191,503.974 85.6525,500.641 80.5,496.5C 80.44,495.957 80.1067,495.624 79.5,495.5C 78.513,498.768 78.1796,502.102 78.5,505.5C 82.5,505.5 86.5,505.5 90.5,505.5C 90.5,512.167 90.5,518.833 90.5,525.5C 81.5,525.5 72.5,525.5 63.5,525.5C 63.5,518.833 63.5,512.167 63.5,505.5C 67.7016,505.817 71.7016,505.483 75.5,504.5C 75.8174,501.428 75.4841,498.428 74.5,495.5C 71.3351,498.91 67.6684,501.577 63.5,503.5C 62.2905,503.932 61.2905,504.599 60.5,505.5C 58.6854,506.63 56.6854,507.296 54.5,507.5C 54.33,506.178 54.6634,505.011 55.5,504C 61.6269,502.106 66.9602,498.939 71.5,494.5C 66.544,493.506 61.544,493.173 56.5,493.5C 62.6014,491.851 68.9347,490.851 75.5,490.5C 75.5,489.167 75.5,487.833 75.5,486.5C 70.1254,486.828 64.7921,486.495 59.5,485.5C 69.541,484.429 79.541,483.096 89.5,481.5C 90.8333,481.833 92.1667,482.167 93.5,482.5C 93.1667,482.833 92.8333,483.167 92.5,483.5C 88.0932,484.746 83.7599,485.746 79.5,486.5 Z"/></g>
<g><path style="opacity:1" fill="#383435" d="M 217.5,490.5 C 214.316,492.414 210.649,493.08 206.5,492.5C 206.123,497.453 206.789,502.119 208.5,506.5C 208.846,508.705 209.513,508.872 210.5,507C 211.872,503.974 212.538,500.807 212.5,497.5C 213.5,497.5 214.5,497.5 215.5,497.5C 215.664,500.187 215.497,502.854 215,505.5C 212.793,508.532 211.293,511.866 210.5,515.5C 211.809,518.153 213.142,520.819 214.5,523.5C 215.474,521.257 215.808,518.924 215.5,516.5C 216.822,516.33 217.989,516.663 219,517.5C 219.66,520.534 219.16,523.367 217.5,526C 212.556,526.23 209.889,523.73 209.5,518.5C 205.869,519.608 202.869,521.774 200.5,525C 199.365,525.749 198.365,525.583 197.5,524.5C 200.15,521.349 202.984,518.349 206,515.5C 205.399,508.207 204.899,500.874 204.5,493.5C 200.5,493.5 196.5,493.5 192.5,493.5C 192.5,495.5 192.5,497.5 192.5,499.5C 195.287,500.477 198.287,500.81 201.5,500.5C 201.5,503.5 201.5,506.5 201.5,509.5C 202.443,514.409 200.609,517.409 196,518.5C 194.338,518.612 193.171,517.946 192.5,516.5C 194.396,515.534 196.396,515.201 198.5,515.5C 198.927,511.176 199.261,506.842 199.5,502.5C 197.167,502.5 194.833,502.5 192.5,502.5C 192.877,511.179 190.21,518.679 184.5,525C 183.517,525.591 182.85,525.257 182.5,524C 184.842,521.147 186.509,517.981 187.5,514.5C 188.268,513.737 188.768,512.737 189,511.5C 189.5,504.508 189.666,497.508 189.5,490.5C 194.167,490.5 198.833,490.5 203.5,490.5C 203.5,487.5 203.5,484.5 203.5,481.5C 204.5,481.5 205.5,481.5 206.5,481.5C 206.5,484.5 206.5,487.5 206.5,490.5C 210.167,490.5 213.833,490.5 217.5,490.5 Z"/></g>
<g><path style="opacity:1" fill="#312d2e" d="M 313.5,481.5 C 313.5,486.167 313.5,490.833 313.5,495.5C 320.5,495.5 327.5,495.5 334.5,495.5C 328.926,497.453 322.926,498.12 316.5,497.5C 316.263,498.791 316.596,499.791 317.5,500.5C 320.898,509.936 326.731,517.603 335,523.5C 335.483,524.448 335.649,525.448 335.5,526.5C 334.448,526.649 333.448,526.483 332.5,526C 323.385,518.747 317.385,509.58 314.5,498.5C 313.5,498.5 312.5,498.5 311.5,498.5C 310.641,511.551 304.308,520.884 292.5,526.5C 291.5,526.167 290.833,525.5 290.5,524.5C 299.833,519.801 305.833,512.468 308.5,502.5C 309.451,501.081 309.784,499.415 309.5,497.5C 303.833,497.5 298.167,497.5 292.5,497.5C 292.5,496.833 292.5,496.167 292.5,495.5C 298.537,495.829 304.537,495.496 310.5,494.5C 311.348,492.591 311.682,490.591 311.5,488.5C 310.99,485.612 311.656,483.279 313.5,481.5 Z"/></g>
<g><path style="opacity:1" fill="#918f8f" d="M 183.5,495.5 C 182.834,491.647 182.167,487.647 181.5,483.5C 180.833,487.647 180.166,491.647 179.5,495.5C 179.5,491.167 179.5,486.833 179.5,482.5C 180.833,482.5 182.167,482.5 183.5,482.5C 183.5,486.833 183.5,491.167 183.5,495.5 Z"/></g>
<g><path style="opacity:1" fill="#312d2e" d="M 183.5,495.5 C 184.833,495.5 186.167,495.5 187.5,495.5C 187.5,496.167 187.5,496.833 187.5,497.5C 185.833,497.5 184.167,497.5 182.5,497.5C 182.182,502.032 182.515,506.366 183.5,510.5C 184.961,509.314 186.295,509.314 187.5,510.5C 187.5,511.167 187.5,511.833 187.5,512.5C 183.645,513.673 179.812,515.006 176,516.5C 174.941,516.37 174.108,515.87 173.5,515C 175.287,513.681 177.287,512.848 179.5,512.5C 180.487,507.695 180.821,502.695 180.5,497.5C 177.918,497.975 175.918,497.308 174.5,495.5C 176.167,495.5 177.833,495.5 179.5,495.5C 180.166,491.647 180.833,487.647 181.5,483.5C 182.167,487.647 182.834,491.647 183.5,495.5 Z"/></g>
<g><path style="opacity:1" fill="#2d292a" d="M 365.5,483.5 C 365.5,483.833 365.5,484.167 365.5,484.5C 362.428,485.684 359.428,487.017 356.5,488.5C 359.086,489.48 361.753,489.813 364.5,489.5C 362.143,491.098 359.477,492.098 356.5,492.5C 356.5,493.5 356.5,494.5 356.5,495.5C 368.5,496.167 368.5,496.833 356.5,497.5C 356.5,498.833 356.5,500.167 356.5,501.5C 366.5,502.833 376.5,502.833 386.5,501.5C 386.5,500.5 386.5,499.5 386.5,498.5C 383.833,498.5 381.167,498.5 378.5,498.5C 378.5,497.5 378.5,496.5 378.5,495.5C 381.167,495.5 383.833,495.5 386.5,495.5C 386.5,494.5 386.5,493.5 386.5,492.5C 384.167,492.5 381.833,492.5 379.5,492.5C 381.508,490.917 383.841,489.917 386.5,489.5C 387.404,488.791 387.737,487.791 387.5,486.5C 384.833,486.5 382.167,486.5 379.5,486.5C 382.337,484.598 385.671,483.931 389.5,484.5C 389.5,490.167 389.5,495.833 389.5,501.5C 390.5,501.5 391.5,501.5 392.5,501.5C 393.036,504.698 392.369,507.365 390.5,509.5C 390.5,507.5 390.5,505.5 390.5,503.5C 378.167,503.5 365.833,503.5 353.5,503.5C 353.5,505.5 353.5,507.5 353.5,509.5C 351.631,507.365 350.964,504.698 351.5,501.5C 352.5,501.5 353.5,501.5 354.5,501.5C 354.5,495.833 354.5,490.167 354.5,484.5C 357.435,484.283 360.269,483.617 363,482.5C 364.07,482.528 364.903,482.861 365.5,483.5 Z"/></g>
<g><path style="opacity:1" fill="#3f3b3c" d="M 115.5,484.5 C 119.345,484.826 122.345,486.659 124.5,490C 124.167,490.5 123.833,491 123.5,491.5C 120.15,489.808 117.483,487.475 115.5,484.5 Z"/></g>
<g><path style="opacity:1" fill="#3c3839" d="M 209.5,482.5 C 213.573,482.946 215.573,485.28 215.5,489.5C 214.5,489.5 213.5,489.5 212.5,489.5C 211.957,486.962 210.957,484.628 209.5,482.5 Z"/></g>
<g><path style="opacity:1" fill="#ebebeb" d="M 365.5,484.5 C 372.099,486.648 371.766,488.314 364.5,489.5C 361.753,489.813 359.086,489.48 356.5,488.5C 359.428,487.017 362.428,485.684 365.5,484.5 Z"/></g>
<g><path style="opacity:1" fill="#edecec" d="M 379.5,486.5 C 382.167,486.5 384.833,486.5 387.5,486.5C 387.737,487.791 387.404,488.791 386.5,489.5C 383.482,489.665 380.482,489.498 377.5,489C 374.936,487.519 374.936,486.019 377.5,484.5C 378.182,485.243 378.849,485.909 379.5,486.5 Z"/></g>
<g><path style="opacity:1" fill="#7a7879" d="M 147.5,481.5 C 148.468,483.607 148.802,485.941 148.5,488.5C 151.167,488.5 153.833,488.5 156.5,488.5C 156.737,489.791 156.404,490.791 155.5,491.5C 153.365,489.631 150.698,488.964 147.5,489.5C 147.5,486.833 147.5,484.167 147.5,481.5 Z"/></g>
<g><path style="opacity:1" fill="#363233" d="M 278.5,490.5 C 271.167,490.5 263.833,490.5 256.5,490.5C 256.19,493.713 256.523,496.713 257.5,499.5C 262.5,499.5 267.5,499.5 272.5,499.5C 272.666,506.175 272.5,512.842 272,519.5C 271.827,513.652 271.327,507.985 270.5,502.5C 266.167,502.5 261.833,502.5 257.5,502.5C 257.5,510.5 257.5,518.5 257.5,526.5C 256.167,526.5 254.833,526.5 253.5,526.5C 253.5,518.5 253.5,510.5 253.5,502.5C 249.167,502.5 244.833,502.5 240.5,502.5C 240.5,509.167 240.5,515.833 240.5,522.5C 239.5,522.5 238.5,522.5 237.5,522.5C 237.5,514.833 237.5,507.167 237.5,499.5C 242.833,499.5 248.167,499.5 253.5,499.5C 253.5,496.833 253.5,494.167 253.5,491.5C 246.5,491.5 239.5,491.5 232.5,491.5C 232.5,490.5 232.5,489.5 232.5,488.5C 240.507,488.666 248.507,488.5 256.5,488C 254.833,486.333 253.167,484.667 251.5,483C 252.025,482.308 252.692,481.808 253.5,481.5C 256.565,482.976 257.898,485.143 257.5,488C 264.905,487.865 271.905,488.698 278.5,490.5 Z"/></g>
<g><path style="opacity:1" fill="#807d7e" d="M 75.5,490.5 C 68.9347,490.851 62.6014,491.851 56.5,493.5C 55.596,492.791 55.2627,491.791 55.5,490.5C 62.1667,490.5 68.8333,490.5 75.5,490.5 Z"/></g>
<g><path style="opacity:1" fill="#a1a0a0" d="M 79.5,486.5 C 79.5,487.833 79.5,489.167 79.5,490.5C 86.0221,490.177 92.3554,490.51 98.5,491.5C 91.8333,491.5 85.1667,491.5 78.5,491.5C 78.2155,489.585 78.5489,487.919 79.5,486.5 Z"/></g>
<g><path style="opacity:1" fill="#b5b4b4" d="M 189.5,490.5 C 189.666,497.508 189.5,504.508 189,511.5C 188.768,512.737 188.268,513.737 187.5,514.5C 187.5,513.833 187.5,513.167 187.5,512.5C 187.5,511.833 187.5,511.167 187.5,510.5C 188.833,506.167 188.833,501.833 187.5,497.5C 187.5,496.833 187.5,496.167 187.5,495.5C 188.167,493.833 188.833,492.167 189.5,490.5 Z"/></g>
<g><path style="opacity:1" fill="#908e8f" d="M 278.5,490.5 C 271.687,491.491 264.687,491.825 257.5,491.5C 257.5,494.167 257.5,496.833 257.5,499.5C 256.523,496.713 256.19,493.713 256.5,490.5C 263.833,490.5 271.167,490.5 278.5,490.5 Z"/></g>
<g><path style="opacity:1" fill="#696768" d="M 217.5,490.5 C 218.404,491.209 218.737,492.209 218.5,493.5C 214.833,493.5 211.167,493.5 207.5,493.5C 208.2,497.798 208.533,502.131 208.5,506.5C 206.789,502.119 206.123,497.453 206.5,492.5C 210.649,493.08 214.316,492.414 217.5,490.5 Z"/></g>
<g><path style="opacity:1" fill="#c0bfbf" d="M 98.5,493.5 C 93.8333,494.167 89.1667,494.833 84.5,495.5C 83.2438,495.539 82.2438,495.039 81.5,494C 87.1569,493.501 92.8236,493.334 98.5,493.5 Z"/></g>
<g><path style="opacity:1" fill="#454142" d="M 389.5,484.5 C 385.671,483.931 382.337,484.598 379.5,486.5C 378.849,485.909 378.182,485.243 377.5,484.5C 374.936,486.019 374.936,487.519 377.5,489C 380.482,489.498 383.482,489.665 386.5,489.5C 383.841,489.917 381.508,490.917 379.5,492.5C 378.883,492.389 378.383,492.056 378,491.5C 377.415,493.129 376.581,494.629 375.5,496C 376.856,497.567 377.523,499.4 377.5,501.5C 380.5,501.5 383.5,501.5 386.5,501.5C 376.5,502.833 366.5,502.833 356.5,501.5C 356.833,501.5 357.167,501.5 357.5,501.5C 360.167,501.5 362.833,501.5 365.5,501.5C 368.85,501.665 372.183,501.498 375.5,501C 373.322,498.121 370.822,497.955 368,500.5C 367.5,500.167 367,499.833 366.5,499.5C 367.737,498.719 368.737,497.719 369.5,496.5C 368.316,494.954 367.316,493.287 366.5,491.5C 363.242,492.417 359.909,492.751 356.5,492.5C 359.477,492.098 362.143,491.098 364.5,489.5C 371.766,488.314 372.099,486.648 365.5,484.5C 365.5,484.167 365.5,483.833 365.5,483.5C 366.583,483.461 367.583,483.127 368.5,482.5C 371.314,485.092 374.147,485.092 377,482.5C 381.316,483.08 385.483,483.747 389.5,484.5 Z"/></g>
<g><path style="opacity:1" fill="#e4e4e4" d="M 370.5,489.5 C 376.024,489.535 376.691,491.201 372.5,494.5C 368.565,493.663 367.899,491.997 370.5,489.5 Z"/></g>
<g><path style="opacity:1" fill="#efefef" d="M 379.5,492.5 C 381.833,492.5 384.167,492.5 386.5,492.5C 386.5,493.5 386.5,494.5 386.5,495.5C 383.833,495.5 381.167,495.5 378.5,495.5C 378.5,496.5 378.5,497.5 378.5,498.5C 381.167,498.5 383.833,498.5 386.5,498.5C 386.5,499.5 386.5,500.5 386.5,501.5C 383.5,501.5 380.5,501.5 377.5,501.5C 377.523,499.4 376.856,497.567 375.5,496C 376.581,494.629 377.415,493.129 378,491.5C 378.383,492.056 378.883,492.389 379.5,492.5 Z"/></g>
<g><path style="opacity:1" fill="#8e8c8c" d="M 311.5,488.5 C 311.682,490.591 311.348,492.591 310.5,494.5C 304.537,495.496 298.537,495.829 292.5,495.5C 297.975,494.511 303.642,494.178 309.5,494.5C 309.595,492.214 310.262,490.214 311.5,488.5 Z"/></g>
<g><path style="opacity:1" fill="#8f8d8e" d="M 313.5,481.5 C 314.485,485.634 314.818,489.968 314.5,494.5C 321.354,494.176 328.021,494.509 334.5,495.5C 327.5,495.5 320.5,495.5 313.5,495.5C 313.5,490.833 313.5,486.167 313.5,481.5 Z"/></g>
<g><path style="opacity:1" fill="#f2f2f2" d="M 75.5,504.5 C 71.2984,504.817 67.2984,504.483 63.5,503.5C 67.6684,501.577 71.3351,498.91 74.5,495.5C 75.4841,498.428 75.8174,501.428 75.5,504.5 Z"/></g>
<g><path style="opacity:1" fill="#6c696a" d="M 148.5,491.5 C 148.5,493.5 148.5,495.5 148.5,497.5C 152.042,497.187 155.375,497.521 158.5,498.5C 154.833,498.5 151.167,498.5 147.5,498.5C 147.198,495.941 147.532,493.607 148.5,491.5 Z"/></g>
<g><path style="opacity:1" fill="#918f90" d="M 292.5,497.5 C 298.167,497.5 303.833,497.5 309.5,497.5C 309.784,499.415 309.451,501.081 308.5,502.5C 308.5,501.167 308.5,499.833 308.5,498.5C 302.974,498.821 297.64,498.488 292.5,497.5 Z"/></g>
<g><path style="opacity:1" fill="#8e8c8d" d="M 334.5,495.5 C 335.404,496.209 335.737,497.209 335.5,498.5C 329.074,497.88 323.074,498.547 317.5,500.5C 316.596,499.791 316.263,498.791 316.5,497.5C 322.926,498.12 328.926,497.453 334.5,495.5 Z"/></g>
<g><path style="opacity:1" fill="#7a7878" d="M 174.5,495.5 C 175.918,497.308 177.918,497.975 180.5,497.5C 180.821,502.695 180.487,507.695 179.5,512.5C 179.5,507.833 179.5,503.167 179.5,498.5C 177.5,498.5 175.5,498.5 173.5,498.5C 173.263,497.209 173.596,496.209 174.5,495.5 Z"/></g>
<g><path style="opacity:1" fill="#afaeae" d="M 187.5,497.5 C 186.432,498.434 185.099,498.768 183.5,498.5C 183.5,502.5 183.5,506.5 183.5,510.5C 182.515,506.366 182.182,502.032 182.5,497.5C 184.167,497.5 185.833,497.5 187.5,497.5 Z"/></g>
<g><path style="opacity:1" fill="#fbfbfb" d="M 187.5,497.5 C 188.833,501.833 188.833,506.167 187.5,510.5C 186.295,509.314 184.961,509.314 183.5,510.5C 183.5,506.5 183.5,502.5 183.5,498.5C 185.099,498.768 186.432,498.434 187.5,497.5 Z"/></g>
<g><path style="opacity:1" fill="#cccccc" d="M 365.5,501.5 C 365.5,500.5 365.5,499.5 365.5,498.5C 362.833,498.5 360.167,498.5 357.5,498.5C 357.5,499.5 357.5,500.5 357.5,501.5C 357.167,501.5 356.833,501.5 356.5,501.5C 356.5,500.167 356.5,498.833 356.5,497.5C 368.5,496.833 368.5,496.167 356.5,495.5C 356.5,494.5 356.5,493.5 356.5,492.5C 359.909,492.751 363.242,492.417 366.5,491.5C 367.316,493.287 368.316,494.954 369.5,496.5C 368.737,497.719 367.737,498.719 366.5,499.5C 367,499.833 367.5,500.167 368,500.5C 370.822,497.955 373.322,498.121 375.5,501C 372.183,501.498 368.85,501.665 365.5,501.5 Z"/></g>
<g><path style="opacity:1" fill="#fefefe" d="M 365.5,501.5 C 362.833,501.5 360.167,501.5 357.5,501.5C 357.5,500.5 357.5,499.5 357.5,498.5C 360.167,498.5 362.833,498.5 365.5,498.5C 365.5,499.5 365.5,500.5 365.5,501.5 Z"/></g>
<g><path style="opacity:1" fill="#423f40" d="M 114.5,494.5 C 117.394,495.882 119.894,497.882 122,500.5C 122.749,501.635 122.583,502.635 121.5,503.5C 118.833,501.167 116.167,498.833 113.5,496.5C 113.863,495.817 114.196,495.15 114.5,494.5 Z"/></g>
<g><path style="opacity:1" fill="#343132" d="M 136.5,488.5 C 139.287,489.477 142.287,489.81 145.5,489.5C 145.5,486.833 145.5,484.167 145.5,481.5C 146.167,481.5 146.833,481.5 147.5,481.5C 147.5,484.167 147.5,486.833 147.5,489.5C 150.698,488.964 153.365,489.631 155.5,491.5C 153.167,491.5 150.833,491.5 148.5,491.5C 147.532,493.607 147.198,495.941 147.5,498.5C 151.167,498.5 154.833,498.5 158.5,498.5C 155.939,500.094 152.939,501.094 149.5,501.5C 152.236,505.035 155.569,507.868 159.5,510C 158.407,511.365 157.074,511.699 155.5,511C 153.415,509.959 151.748,508.459 150.5,506.5C 149.516,509.428 149.183,512.428 149.5,515.5C 144.833,515.5 140.167,515.5 135.5,515.5C 135.5,517.833 135.5,520.167 135.5,522.5C 141.176,522.666 146.843,522.499 152.5,522C 153.103,520.175 153.77,518.341 154.5,516.5C 155.857,519.527 155.524,522.36 153.5,525C 147.167,525.667 140.833,525.667 134.5,525C 133.619,524.292 132.953,523.458 132.5,522.5C 132.827,517.786 132.493,513.12 131.5,508.5C 130.893,508.624 130.56,508.957 130.5,509.5C 128.88,511.413 126.88,512.747 124.5,513.5C 124.351,512.448 124.517,511.448 125,510.5C 128.432,508.319 130.932,505.319 132.5,501.5C 129.572,500.516 126.572,500.183 123.5,500.5C 123.5,499.5 123.5,498.5 123.5,497.5C 126.833,497.5 130.167,497.5 133.5,497.5C 133.5,495.5 133.5,493.5 133.5,491.5C 131.167,491.5 128.833,491.5 126.5,491.5C 126.5,490.5 126.5,489.5 126.5,488.5C 128.833,488.5 131.167,488.5 133.5,488.5C 133.5,486.167 133.5,483.833 133.5,481.5C 134.5,481.5 135.5,481.5 136.5,481.5C 136.5,483.833 136.5,486.167 136.5,488.5 Z"/></g>
<g><path style="opacity:1" fill="#f3f3f3" d="M 147.5,503.5 C 145.696,504.162 143.696,504.495 141.5,504.5C 139.048,504.461 137.048,503.794 135.5,502.5C 136.694,501.223 138.36,500.556 140.5,500.5C 143.611,500.012 145.944,501.012 147.5,503.5 Z"/></g>
<g><path style="opacity:1" fill="#f5f5f5" d="M 136.5,491.5 C 139.167,491.5 141.833,491.5 144.5,491.5C 144.5,493.5 144.5,495.5 144.5,497.5C 141.833,497.5 139.167,497.5 136.5,497.5C 136.5,495.5 136.5,493.5 136.5,491.5 Z"/></g>
<g><path style="opacity:1" fill="#706d6e" d="M 145.5,481.5 C 145.5,484.167 145.5,486.833 145.5,489.5C 142.287,489.81 139.287,489.477 136.5,488.5C 139.167,488.5 141.833,488.5 144.5,488.5C 144.198,485.941 144.532,483.607 145.5,481.5 Z"/></g>
<g><path style="opacity:1" fill="#656263" d="M 390.5,509.5 C 389.549,508.081 389.216,506.415 389.5,504.5C 377.833,504.5 366.167,504.5 354.5,504.5C 354.784,506.415 354.451,508.081 353.5,509.5C 353.5,507.5 353.5,505.5 353.5,503.5C 365.833,503.5 378.167,503.5 390.5,503.5C 390.5,505.5 390.5,507.5 390.5,509.5 Z"/></g>
<g><path style="opacity:1" fill="#a7a6a6" d="M 80.5,496.5 C 79.5269,498.948 79.1936,501.615 79.5,504.5C 83.3714,504.185 87.0381,504.518 90.5,505.5C 86.5,505.5 82.5,505.5 78.5,505.5C 78.1796,502.102 78.513,498.768 79.5,495.5C 80.1067,495.624 80.44,495.957 80.5,496.5 Z"/></g>
<g><path style="opacity:1" fill="#9a9898" d="M 135.5,502.5 C 137.048,503.794 139.048,504.461 141.5,504.5C 143.696,504.495 145.696,504.162 147.5,503.5C 148.043,503.56 148.376,503.893 148.5,504.5C 143.88,505.493 139.214,505.827 134.5,505.5C 134.263,504.209 134.596,503.209 135.5,502.5 Z"/></g>
<g><path style="opacity:1" fill="#bfbfbf" d="M 63.5,503.5 C 67.2984,504.483 71.2984,504.817 75.5,504.5C 71.7016,505.483 67.7016,505.817 63.5,505.5C 63.5,512.167 63.5,518.833 63.5,525.5C 63.1502,518.605 62.1502,511.938 60.5,505.5C 61.2905,504.599 62.2905,503.932 63.5,503.5 Z"/></g>
<g><path style="opacity:1" fill="#a09f9f" d="M 385.5,507.5 C 376.475,507.168 367.475,507.502 358.5,508.5C 365.476,509.331 372.476,509.831 379.5,510C 378.473,510.513 377.473,511.013 376.5,511.5C 370.355,510.51 364.022,510.177 357.5,510.5C 357.5,509.167 357.5,507.833 357.5,506.5C 367.015,506.173 376.348,506.506 385.5,507.5 Z"/></g>
<g><path style="opacity:1" fill="#bebdbd" d="M 87.5,513.5 C 87.5,511.833 87.5,510.167 87.5,508.5C 80.8333,508.5 74.1667,508.5 67.5,508.5C 67.5,510.167 67.5,511.833 67.5,513.5C 66.5386,511.735 66.2053,509.735 66.5,507.5C 73.8333,507.5 81.1667,507.5 88.5,507.5C 88.7947,509.735 88.4614,511.735 87.5,513.5 Z"/></g>
<g><path style="opacity:1" fill="#fefffe" d="M 87.5,513.5 C 80.8333,513.5 74.1667,513.5 67.5,513.5C 67.5,511.833 67.5,510.167 67.5,508.5C 74.1667,508.5 80.8333,508.5 87.5,508.5C 87.5,510.167 87.5,511.833 87.5,513.5 Z"/></g>
<g><path style="opacity:1" fill="#f0f0f0" d="M 146.5,507.5 C 146.5,509.167 146.5,510.833 146.5,512.5C 142.833,512.5 139.167,512.5 135.5,512.5C 135.5,510.833 135.5,509.167 135.5,507.5C 139.167,507.5 142.833,507.5 146.5,507.5 Z"/></g>
<g><path style="opacity:1" fill="#969595" d="M 192.5,499.5 C 195.833,499.5 199.167,499.5 202.5,499.5C 202.813,503.042 202.479,506.375 201.5,509.5C 201.5,506.5 201.5,503.5 201.5,500.5C 198.287,500.81 195.287,500.477 192.5,499.5 Z"/></g>
<g><path style="opacity:1" fill="#bebdbd" d="M 130.5,509.5 C 130.56,508.957 130.893,508.624 131.5,508.5C 132.493,513.12 132.827,517.786 132.5,522.5C 131.833,518.167 131.167,513.833 130.5,509.5 Z"/></g>
<g><path style="opacity:1" fill="#7f7d7e" d="M 146.5,507.5 C 147.461,509.265 147.795,511.265 147.5,513.5C 143.298,513.817 139.298,513.483 135.5,512.5C 139.167,512.5 142.833,512.5 146.5,512.5C 146.5,510.833 146.5,509.167 146.5,507.5 Z"/></g>
<g><path style="opacity:1" fill="#454242" d="M 121.5,506.5 C 122.649,506.791 123.316,507.624 123.5,509C 122.598,515.641 119.765,521.141 115,525.5C 114.5,525.167 114,524.833 113.5,524.5C 116.759,518.709 119.425,512.709 121.5,506.5 Z"/></g>
<g><path style="opacity:1" fill="#282526" d="M 385.5,507.5 C 385.586,508.496 385.252,509.329 384.5,510C 380.833,511.667 377.167,513.333 373.5,515C 380.158,515.5 386.825,515.666 393.5,515.5C 387.25,517.459 380.584,518.126 373.5,517.5C 373.5,520.167 373.5,522.833 373.5,525.5C 370.713,526.477 367.713,526.81 364.5,526.5C 364.5,525.5 364.5,524.5 364.5,523.5C 370.434,525.888 372.434,524.221 370.5,518.5C 363.605,518.15 356.938,517.15 350.5,515.5C 356.833,515.5 363.167,515.5 369.5,515.5C 369.5,514.5 369.5,513.5 369.5,512.5C 371.861,512.326 374.194,511.993 376.5,511.5C 377.473,511.013 378.473,510.513 379.5,510C 372.476,509.831 365.476,509.331 358.5,508.5C 367.475,507.502 376.475,507.168 385.5,507.5 Z"/></g>
<g><path style="opacity:1" fill="#666364" d="M 350.5,515.5 C 356.938,517.15 363.605,518.15 370.5,518.5C 363.5,518.5 356.5,518.5 349.5,518.5C 349.263,517.209 349.596,516.209 350.5,515.5 Z"/></g>
<g><path style="opacity:1" fill="#777575" d="M 393.5,515.5 C 394.404,516.209 394.737,517.209 394.5,518.5C 387.833,518.5 381.167,518.5 374.5,518.5C 374.802,521.059 374.468,523.393 373.5,525.5C 373.5,522.833 373.5,520.167 373.5,517.5C 380.584,518.126 387.25,517.459 393.5,515.5 Z"/></g>
<g><path style="opacity:1" fill="#403c3d" d="M 272.5,499.5 C 273.655,506.321 273.821,513.321 273,520.5C 270.263,521.61 267.429,521.777 264.5,521C 262.595,520.174 262.261,519.007 263.5,517.5C 265.747,518.374 268.08,518.708 270.5,518.5C 270.5,513.167 270.5,507.833 270.5,502.5C 271.327,507.985 271.827,513.652 272,519.5C 272.5,512.842 272.666,506.175 272.5,499.5 Z"/></g>
<g><path style="opacity:1" fill="#959393" d="M 67.5,516.5 C 67.5,518.5 67.5,520.5 67.5,522.5C 74.1667,522.5 80.8333,522.5 87.5,522.5C 87.5,520.5 87.5,518.5 87.5,516.5C 88.4682,518.607 88.8016,520.941 88.5,523.5C 81.1667,523.5 73.8333,523.5 66.5,523.5C 66.1984,520.941 66.5318,518.607 67.5,516.5 Z"/></g>
<g><path style="opacity:1" fill="#fefffe" d="M 67.5,516.5 C 74.1667,516.5 80.8333,516.5 87.5,516.5C 87.5,518.5 87.5,520.5 87.5,522.5C 80.8333,522.5 74.1667,522.5 67.5,522.5C 67.5,520.5 67.5,518.5 67.5,516.5 Z"/></g>
<g><path style="opacity:1" fill="#332f30" d="M 61.5,550.5 C 59.39,551.453 58.2233,553.119 58,555.5C 57.3333,558.167 57.3333,560.833 58,563.5C 58.2784,564.416 58.7784,565.082 59.5,565.5C 64.6777,571.396 70.6777,572.063 77.5,567.5C 78.754,569.259 78.4206,570.759 76.5,572C 66.3829,576.181 59.2162,573.348 55,563.5C 53.1136,549.386 59.2802,543.22 73.5,545C 75.5547,545.687 77.2214,546.854 78.5,548.5C 77.7579,549.287 76.9246,549.953 76,550.5C 71.0978,546.527 66.2644,546.527 61.5,550.5 Z"/></g>
<g><path style="opacity:1" fill="#383435" d="M 83.5,545.5 C 84.8333,545.5 86.1667,545.5 87.5,545.5C 87.8333,548.5 86.5,549.833 83.5,549.5C 83.5,548.167 83.5,546.833 83.5,545.5 Z"/></g>
<g><path style="opacity:1" fill="#2e2b2b" d="M 137.5,566.5 C 142.488,572.03 147.154,571.696 151.5,565.5C 152.167,558.988 152.833,552.321 153.5,545.5C 154.497,552.803 154.831,560.137 154.5,567.5C 152.371,571.654 148.871,573.654 144,573.5C 139.255,573.883 136.089,571.883 134.5,567.5C 134.169,560.137 134.503,552.803 135.5,545.5C 136.167,552.655 136.833,559.655 137.5,566.5 Z"/></g>
<g><path style="opacity:1" fill="#8a8888" d="M 137.5,566.5 C 136.833,559.655 136.167,552.655 135.5,545.5C 134.503,552.803 134.169,560.137 134.5,567.5C 133.508,560.018 133.175,552.352 133.5,544.5C 134.833,544.5 136.167,544.5 137.5,544.5C 137.5,551.833 137.5,559.167 137.5,566.5 Z"/></g>
<g><path style="opacity:1" fill="#3a3738" d="M 179.5,545.5 C 180.833,545.5 182.167,545.5 183.5,545.5C 183.778,547.346 183.111,548.68 181.5,549.5C 179.889,548.68 179.222,547.346 179.5,545.5 Z"/></g>
<g><path style="opacity:1" fill="#3a3738" d="M 258.5,545.5 C 259.833,545.5 261.167,545.5 262.5,545.5C 262.778,547.346 262.111,548.68 260.5,549.5C 258.889,548.68 258.222,547.346 258.5,545.5 Z"/></g>
<g><path style="opacity:1" fill="#282425" d="M 338.5,545.5 C 337.883,545.611 337.383,545.944 337,546.5C 336.199,549.367 336.366,552.034 337.5,554.5C 338.5,554.5 339.5,554.5 340.5,554.5C 339.817,556.176 338.483,556.843 336.5,556.5C 336.828,561.875 336.495,567.208 335.5,572.5C 334.833,567.349 334.166,562.349 333.5,557.5C 329.392,555.67 329.725,554.67 334.5,554.5C 334.335,551.15 334.502,547.817 335,544.5C 337.228,542.887 339.728,542.22 342.5,542.5C 342.5,543.5 342.5,544.5 342.5,545.5C 341.167,545.5 339.833,545.5 338.5,545.5 Z"/></g>
<g><path style="opacity:1" fill="#454243" d="M 357.5,556.5 C 356.677,553.023 356.177,549.356 356,545.5C 355.333,554.5 355.333,563.5 356,572.5C 356.175,567.981 356.675,563.647 357.5,559.5C 357.5,564.167 357.5,568.833 357.5,573.5C 356.5,573.5 355.5,573.5 354.5,573.5C 354.5,563.833 354.5,554.167 354.5,544.5C 355.5,544.5 356.5,544.5 357.5,544.5C 357.5,548.5 357.5,552.5 357.5,556.5 Z"/></g>
<g><path style="opacity:1" fill="#2a2627" d="M 357.5,556.5 C 362.5,556.5 367.5,556.5 372.5,556.5C 373.166,552.979 373.833,549.313 374.5,545.5C 375.833,554.5 375.833,563.5 374.5,572.5C 373.508,568.217 373.174,563.884 373.5,559.5C 368.167,559.5 362.833,559.5 357.5,559.5C 356.675,563.647 356.175,567.981 356,572.5C 355.333,563.5 355.333,554.5 356,545.5C 356.177,549.356 356.677,553.023 357.5,556.5 Z"/></g>
<g><path style="opacity:1" fill="#393637" d="M 463.5,560.5 C 463.44,559.957 463.107,559.624 462.5,559.5C 461.507,564.12 461.173,568.786 461.5,573.5C 460.5,573.5 459.5,573.5 458.5,573.5C 458.5,563.833 458.5,554.167 458.5,544.5C 459.5,544.5 460.5,544.5 461.5,544.5C 461.176,548.555 461.509,552.555 462.5,556.5C 466.652,552.849 470.652,549.016 474.5,545C 476.167,544.333 477.833,544.333 479.5,545C 475.134,549.701 470.467,554.034 465.5,558C 470.446,562.946 475.446,567.946 480.5,573C 478.833,573.667 477.167,573.667 475.5,573C 471.599,568.663 467.599,564.496 463.5,560.5 Z"/></g>
<g><path style="opacity:1" fill="#858383" d="M 154.5,567.5 C 154.831,560.137 154.497,552.803 153.5,545.5C 152.833,552.321 152.167,558.988 151.5,565.5C 151.5,558.5 151.5,551.5 151.5,544.5C 152.833,544.5 154.167,544.5 155.5,544.5C 155.825,552.352 155.492,560.018 154.5,567.5 Z"/></g>
<g><path style="opacity:1" fill="#747272" d="M 96.5,549.5 C 94.9724,550.802 93.9724,552.469 93.5,554.5C 93.5,552.5 93.5,550.5 93.5,548.5C 94.791,548.263 95.791,548.596 96.5,549.5 Z"/></g>
<g><path style="opacity:1" fill="#2d292a" d="M 96.5,549.5 C 96.5,551.167 96.5,552.833 96.5,554.5C 98.1667,554.5 99.8333,554.5 101.5,554.5C 100.448,556.256 98.7812,556.923 96.5,556.5C 96.1818,561.032 96.5151,565.366 97.5,569.5C 98.5676,570.434 99.901,570.768 101.5,570.5C 101.5,571.5 101.5,572.5 101.5,573.5C 99.4727,573.662 97.4727,573.495 95.5,573C 94.944,572.617 94.6107,572.117 94.5,571.5C 94.5,566.5 94.5,561.5 94.5,556.5C 92.5168,556.843 91.1834,556.176 90.5,554.5C 91.5,554.5 92.5,554.5 93.5,554.5C 93.9724,552.469 94.9724,550.802 96.5,549.5 Z"/></g>
<g><path style="opacity:1" fill="#282425" d="M 273.5,554.5 C 275.167,554.5 276.833,554.5 278.5,554.5C 277.082,556.308 275.082,556.975 272.5,556.5C 272.182,561.032 272.515,565.366 273.5,569.5C 274.919,570.451 276.585,570.784 278.5,570.5C 278.5,571.5 278.5,572.5 278.5,573.5C 276.05,573.702 273.717,573.369 271.5,572.5C 270.932,567.363 270.266,562.363 269.5,557.5C 268.602,556.842 267.602,556.176 266.5,555.5C 267.325,554.614 268.325,554.281 269.5,554.5C 270.163,552.958 270.83,551.291 271.5,549.5C 272.17,551.291 272.837,552.958 273.5,554.5 Z"/></g>
<g><path style="opacity:1" fill="#8e8c8c" d="M 273.5,554.5 C 272.837,552.958 272.17,551.291 271.5,549.5C 270.83,551.291 270.163,552.958 269.5,554.5C 269.5,552.5 269.5,550.5 269.5,548.5C 270.833,548.5 272.167,548.5 273.5,548.5C 273.5,550.5 273.5,552.5 273.5,554.5 Z"/></g>
<g><path style="opacity:1" fill="#908e8e" d="M 338.5,545.5 C 337.701,548.43 337.368,551.43 337.5,554.5C 336.366,552.034 336.199,549.367 337,546.5C 337.383,545.944 337.883,545.611 338.5,545.5 Z"/></g>
<g><path style="opacity:1" fill="#929090" d="M 235.5,554.5 C 236.568,553.566 237.901,553.232 239.5,553.5C 239.5,554.833 239.5,556.167 239.5,557.5C 238.167,557.5 236.833,557.5 235.5,557.5C 236.398,556.842 237.398,556.176 238.5,555.5C 237.675,554.614 236.675,554.281 235.5,554.5 Z"/></g>
<g><path style="opacity:1" fill="#474445" d="M 83.5,554.5 C 84.5,554.5 85.5,554.5 86.5,554.5C 86.5,560.833 86.5,567.167 86.5,573.5C 85.5,573.5 84.5,573.5 83.5,573.5C 83.5,567.167 83.5,560.833 83.5,554.5 Z"/></g>
<g><path style="opacity:1" fill="#322e2f" d="M 159.5,554.5 C 163.408,554.838 167.408,555.005 171.5,555C 172.942,555.377 173.942,556.21 174.5,557.5C 174.666,562.511 174.499,567.511 174,572.5C 173.824,568.312 173.324,564.312 172.5,560.5C 172.573,558.973 171.906,557.973 170.5,557.5C 167.058,556.828 164.391,557.828 162.5,560.5C 161.834,564.353 161.167,568.353 160.5,572.5C 159.504,566.537 159.171,560.537 159.5,554.5 Z"/></g>
<g><path style="opacity:1" fill="#878585" d="M 180.5,554.5 C 181.167,578.5 181.833,578.5 182.5,554.5C 183.49,560.645 183.823,566.978 183.5,573.5C 182.167,573.5 180.833,573.5 179.5,573.5C 179.177,566.978 179.51,560.645 180.5,554.5 Z"/></g>
<g><path style="opacity:1" fill="#221f1f" d="M 180.5,554.5 C 181.167,554.5 181.833,554.5 182.5,554.5C 181.833,578.5 181.167,578.5 180.5,554.5 Z"/></g>
<g><path style="opacity:1" fill="#2e2a2b" d="M 229.5,554.5 C 231.612,555.275 233.612,555.275 235.5,554.5C 236.675,554.281 237.675,554.614 238.5,555.5C 237.398,556.176 236.398,556.842 235.5,557.5C 234.833,557.833 234.167,558.167 233.5,558.5C 232.883,558.611 232.383,558.944 232,559.5C 231.501,563.821 231.334,568.154 231.5,572.5C 229.547,566.926 228.88,560.926 229.5,554.5 Z"/></g>
<g><path style="opacity:1" fill="#383535" d="M 244.5,554.5 C 248.302,553.88 251.635,554.714 254.5,557C 253.975,557.692 253.308,558.192 252.5,558.5C 249.916,557.607 247.249,557.274 244.5,557.5C 244.33,558.822 244.663,559.989 245.5,561C 248.558,562.015 251.558,563.181 254.5,564.5C 256.382,568.415 255.382,571.248 251.5,573C 248.007,574.004 244.841,573.504 242,571.5C 241.399,570.035 241.899,569.035 243.5,568.5C 246.552,571.311 249.219,571.144 251.5,568C 251.355,567.228 251.022,566.561 250.5,566C 245.988,565.698 242.988,563.531 241.5,559.5C 241.771,557.307 242.771,555.641 244.5,554.5 Z"/></g>
<g><path style="opacity:1" fill="#828080" d="M 259.5,554.5 C 260.167,578.5 260.833,578.5 261.5,554.5C 262.49,560.645 262.823,566.978 262.5,573.5C 261.167,573.5 259.833,573.5 258.5,573.5C 258.177,566.978 258.51,560.645 259.5,554.5 Z"/></g>
<g><path style="opacity:1" fill="#272324" d="M 259.5,554.5 C 260.167,554.5 260.833,554.5 261.5,554.5C 260.833,578.5 260.167,578.5 259.5,554.5 Z"/></g>
<g><path style="opacity:1" fill="#393637" d="M 313.5,554.5 C 324.137,553.382 328.637,558.049 327,568.5C 321.081,575.139 315.248,575.139 309.5,568.5C 307.312,562.649 308.646,557.982 313.5,554.5 Z"/></g>
<g><path style="opacity:1" fill="#373435" d="M 398.5,559.5 C 398.657,560.873 398.49,562.207 398,563.5C 397.768,562.263 397.268,561.263 396.5,560.5C 392.376,556.558 388.209,556.558 384,560.5C 383.529,570.898 387.695,573.232 396.5,567.5C 397.268,566.737 397.768,565.737 398,564.5C 398.49,565.793 398.657,567.127 398.5,568.5C 392.838,575.054 387.172,575.054 381.5,568.5C 378.593,557.906 382.593,553.406 393.5,555C 395.66,555.996 397.327,557.496 398.5,559.5 Z"/></g>
<g><path style="opacity:1" fill="#312d2e" d="M 404.5,554.5 C 408.408,554.838 412.408,555.005 416.5,555C 417.942,555.377 418.942,556.21 419.5,557.5C 419.827,562.544 419.494,567.544 418.5,572.5C 417.672,567.868 417.172,563.202 417,558.5C 416.617,557.944 416.117,557.611 415.5,557.5C 413.473,557.338 411.473,557.505 409.5,558C 408.244,558.417 407.577,559.25 407.5,560.5C 406.834,564.353 406.167,568.353 405.5,572.5C 404.504,566.537 404.171,560.537 404.5,554.5 Z"/></g>
<g><path style="opacity:1" fill="#373334" d="M 429.5,554.5 C 434.242,555.019 438.909,555.019 443.5,554.5C 443.666,562.174 443.5,569.841 443,577.5C 438.402,582.645 432.902,583.812 426.5,581C 425.663,579.989 425.33,578.822 425.5,577.5C 429.263,579.304 433.263,579.804 437.5,579C 440.385,577.067 441.052,574.567 439.5,571.5C 428.604,575.115 423.77,571.115 425,559.5C 426.025,557.313 427.525,555.646 429.5,554.5 Z"/></g>
<g><path style="opacity:1" fill="#3a3637" d="M 485.5,554.5 C 498.436,554.228 502.103,559.728 496.5,571C 484.651,575.5 479.484,571.334 481,558.5C 482.397,556.93 483.897,555.596 485.5,554.5 Z"/></g>
<g><path style="opacity:1" fill="#2e2a2b" d="M 504.5,554.5 C 505.735,554.721 506.735,555.388 507.5,556.5C 511.242,553.852 514.908,553.852 518.5,556.5C 519.735,561.813 519.735,567.147 518.5,572.5C 517.672,567.868 517.172,563.202 517,558.5C 516.617,557.944 516.117,557.611 515.5,557.5C 513.473,557.338 511.473,557.505 509.5,558C 508.244,558.417 507.577,559.25 507.5,560.5C 506.834,564.353 506.167,568.353 505.5,572.5C 504.504,566.537 504.171,560.537 504.5,554.5 Z"/></g>
<g><path style="opacity:1" fill="#383536" d="M 529.5,554.5 C 533.257,554.071 536.757,554.737 540,556.5C 540.71,555.027 541.876,554.36 543.5,554.5C 543.666,562.174 543.5,569.841 543,577.5C 538.402,582.645 532.902,583.812 526.5,581C 525.663,579.989 525.33,578.822 525.5,577.5C 529.263,579.304 533.263,579.804 537.5,579C 540.132,576.934 540.799,574.434 539.5,571.5C 528.604,575.115 523.77,571.115 525,559.5C 526.025,557.313 527.525,555.646 529.5,554.5 Z"/></g>
<g><path style="opacity:1" fill="#8d8c8c" d="M 61.5,550.5 C 58.5581,555.158 57.8914,560.158 59.5,565.5C 58.7784,565.082 58.2784,564.416 58,563.5C 57.3333,560.833 57.3333,558.167 58,555.5C 58.2233,553.119 59.39,551.453 61.5,550.5 Z"/></g>
<g><path style="opacity:1" fill="#656263" d="M 90.5,554.5 C 91.1834,556.176 92.5168,556.843 94.5,556.5C 94.5,561.5 94.5,566.5 94.5,571.5C 93.5139,567.03 93.1805,562.363 93.5,557.5C 92.1667,557.5 90.8333,557.5 89.5,557.5C 89.2627,556.209 89.596,555.209 90.5,554.5 Z"/></g>
<g><path style="opacity:1" fill="#a5a3a4" d="M 101.5,554.5 C 102.404,555.209 102.737,556.209 102.5,557.5C 100.833,557.5 99.1667,557.5 97.5,557.5C 97.5,561.5 97.5,565.5 97.5,569.5C 96.5151,565.366 96.1818,561.032 96.5,556.5C 98.7812,556.923 100.448,556.256 101.5,554.5 Z"/></g>
<g><path style="opacity:1" fill="#8d8b8b" d="M 269.5,557.5 C 270.266,562.363 270.932,567.363 271.5,572.5C 270.883,572.389 270.383,572.056 270,571.5C 269.501,566.845 269.334,562.179 269.5,557.5 Z"/></g>
<g><path style="opacity:1" fill="#807e7e" d="M 278.5,554.5 C 279.404,555.209 279.737,556.209 279.5,557.5C 277.5,557.5 275.5,557.5 273.5,557.5C 273.5,561.5 273.5,565.5 273.5,569.5C 272.515,565.366 272.182,561.032 272.5,556.5C 275.082,556.975 277.082,556.308 278.5,554.5 Z"/></g>
<g><path style="opacity:1" fill="#f0f0f0" d="M 314.5,557.5 C 325.032,556.664 327.699,560.664 322.5,569.5C 314.206,572.037 310.706,569.037 312,560.5C 313.045,559.627 313.878,558.627 314.5,557.5 Z"/></g>
<g><path style="opacity:1" fill="#898687" d="M 340.5,554.5 C 341.404,555.209 341.737,556.209 341.5,557.5C 340.167,557.5 338.833,557.5 337.5,557.5C 337.5,562.833 337.5,568.167 337.5,573.5C 336.167,573.5 334.833,573.5 333.5,573.5C 333.5,568.167 333.5,562.833 333.5,557.5C 334.166,562.349 334.833,567.349 335.5,572.5C 336.495,567.208 336.828,561.875 336.5,556.5C 338.483,556.843 339.817,556.176 340.5,554.5 Z"/></g>
<g><path style="opacity:1" fill="#f5f5f5" d="M 396.5,560.5 C 396.5,562.833 396.5,565.167 396.5,567.5C 387.695,573.232 383.529,570.898 384,560.5C 388.209,556.558 392.376,556.558 396.5,560.5 Z"/></g>
<g><path style="opacity:1" fill="#f3f3f3" d="M 430.5,557.5 C 440.486,556.424 443.153,560.258 438.5,569C 432.35,571.925 428.683,570.092 427.5,563.5C 427.467,560.898 428.467,558.898 430.5,557.5 Z"/></g>
<g><path style="opacity:1" fill="#f5f5f5" d="M 486.5,557.5 C 494.99,555.971 498.157,559.304 496,567.5C 492,571.5 488,571.5 484,567.5C 482.861,563.579 483.695,560.246 486.5,557.5 Z"/></g>
<g><path style="opacity:1" fill="#8a8888" d="M 504.5,554.5 C 504.171,560.537 504.504,566.537 505.5,572.5C 506.167,568.353 506.834,564.353 507.5,560.5C 507.5,564.833 507.5,569.167 507.5,573.5C 506.167,573.5 504.833,573.5 503.5,573.5C 503.177,566.978 503.51,560.645 504.5,554.5 Z"/></g>
<g><path style="opacity:1" fill="#f2f2f2" d="M 530.5,557.5 C 536.632,555.977 539.965,558.31 540.5,564.5C 540.141,568.356 537.974,570.356 534,570.5C 527.851,569.306 525.851,565.639 528,559.5C 528.995,558.934 529.828,558.267 530.5,557.5 Z"/></g>
<g><path style="opacity:1" fill="#302c2d" d="M 224.5,564.5 C 219.5,564.5 214.5,564.5 209.5,564.5C 209.263,565.791 209.596,566.791 210.5,567.5C 210.953,568.458 211.619,569.292 212.5,570C 215.934,570.891 219.101,570.391 222,568.5C 223.726,569.648 223.559,570.815 221.5,572C 210.555,575.059 205.721,570.893 207,559.5C 207.833,557.333 209.333,555.833 211.5,555C 219.971,552.878 224.304,556.045 224.5,564.5 Z"/></g>
<g><path style="opacity:1" fill="#ececec" d="M 220.5,559.5 C 219.306,560.777 217.64,561.444 215.5,561.5C 213.36,561.444 211.694,560.777 210.5,559.5C 213.833,555.5 217.167,555.5 220.5,559.5 Z"/></g>
<g><path style="opacity:1" fill="#817f7f" d="M 357.5,573.5 C 357.5,568.833 357.5,564.167 357.5,559.5C 362.833,559.5 368.167,559.5 373.5,559.5C 373.174,563.884 373.508,568.217 374.5,572.5C 375.833,563.5 375.833,554.5 374.5,545.5C 373.833,549.313 373.166,552.979 372.5,556.5C 372.5,552.5 372.5,548.5 372.5,544.5C 373.833,544.5 375.167,544.5 376.5,544.5C 376.5,554.167 376.5,563.833 376.5,573.5C 375.167,573.5 373.833,573.5 372.5,573.5C 372.5,569.167 372.5,564.833 372.5,560.5C 367.833,560.5 363.167,560.5 358.5,560.5C 358.818,565.032 358.485,569.366 357.5,573.5 Z"/></g>
<g><path style="opacity:1" fill="#b4b3b3" d="M 463.5,560.5 C 462.833,564.833 462.167,569.167 461.5,573.5C 461.173,568.786 461.507,564.12 462.5,559.5C 463.107,559.624 463.44,559.957 463.5,560.5 Z"/></g>
<g><path style="opacity:1" fill="#b5b4b4" d="M 170.5,557.5 C 171.906,557.973 172.573,558.973 172.5,560.5C 172.5,564.833 172.5,569.167 172.5,573.5C 171.741,568.302 171.075,562.969 170.5,557.5 Z"/></g>
<g><path style="opacity:1" fill="#636061" d="M 174.5,557.5 C 175.488,562.64 175.821,567.974 175.5,573.5C 174.5,573.5 173.5,573.5 172.5,573.5C 172.5,569.167 172.5,564.833 172.5,560.5C 173.324,564.312 173.824,568.312 174,572.5C 174.499,567.511 174.666,562.511 174.5,557.5 Z"/></g>
<g><path style="opacity:1" fill="#a2a1a1" d="M 210.5,559.5 C 211.694,560.777 213.36,561.444 215.5,561.5C 217.64,561.444 219.306,560.777 220.5,559.5C 221.404,560.209 221.737,561.209 221.5,562.5C 217.5,562.5 213.5,562.5 209.5,562.5C 209.263,561.209 209.596,560.209 210.5,559.5 Z"/></g>
<g><path style="opacity:1" fill="#a9a8a8" d="M 233.5,558.5 C 232.932,563.637 232.266,568.637 231.5,573.5C 231.5,573.167 231.5,572.833 231.5,572.5C 231.334,568.154 231.501,563.821 232,559.5C 232.383,558.944 232.883,558.611 233.5,558.5 Z"/></g>
<g><path style="opacity:1" fill="#6c6a6a" d="M 398.5,559.5 C 399.833,562.5 399.833,565.5 398.5,568.5C 398.657,567.127 398.49,565.793 398,564.5C 397.768,565.737 397.268,566.737 396.5,567.5C 396.5,565.167 396.5,562.833 396.5,560.5C 397.268,561.263 397.768,562.263 398,563.5C 398.49,562.207 398.657,560.873 398.5,559.5 Z"/></g>
<g><path style="opacity:1" fill="#7e7b7c" d="M 159.5,554.5 C 159.171,560.537 159.504,566.537 160.5,572.5C 161.167,568.353 161.834,564.353 162.5,560.5C 162.5,564.833 162.5,569.167 162.5,573.5C 161.167,573.5 159.833,573.5 158.5,573.5C 158.177,566.978 158.51,560.645 159.5,554.5 Z"/></g>
<g><path style="opacity:1" fill="#b7b6b6" d="M 224.5,564.5 C 219.579,564.862 214.913,565.862 210.5,567.5C 209.596,566.791 209.263,565.791 209.5,564.5C 214.5,564.5 219.5,564.5 224.5,564.5 Z"/></g>
<g><path style="opacity:1" fill="#8d8b8b" d="M 404.5,554.5 C 404.171,560.537 404.504,566.537 405.5,572.5C 406.167,568.353 406.834,564.353 407.5,560.5C 407.5,564.833 407.5,569.167 407.5,573.5C 406.167,573.5 404.833,573.5 403.5,573.5C 403.177,566.978 403.51,560.645 404.5,554.5 Z"/></g>
<g><path style="opacity:1" fill="#828081" d="M 415.5,557.5 C 416.117,557.611 416.617,557.944 417,558.5C 417.172,563.202 417.672,567.868 418.5,572.5C 419.494,567.544 419.827,562.544 419.5,557.5C 420.488,562.64 420.821,567.974 420.5,573.5C 419.167,573.5 417.833,573.5 416.5,573.5C 416.733,568.105 416.4,562.772 415.5,557.5 Z"/></g>
<g><path style="opacity:1" fill="#878585" d="M 518.5,556.5 C 519.117,556.611 519.617,556.944 520,557.5C 520.499,562.823 520.666,568.156 520.5,573.5C 519.167,573.5 517.833,573.5 516.5,573.5C 516.733,568.105 516.4,562.772 515.5,557.5C 516.117,557.611 516.617,557.944 517,558.5C 517.172,563.202 517.672,567.868 518.5,572.5C 519.735,567.147 519.735,561.813 518.5,556.5 Z"/></g>
<g><path style="opacity:1" fill="#3e3a3b" d="M 105.5,554.5 C 106.833,554.5 108.167,554.5 109.5,554.5C 110.852,559.216 112.518,563.882 114.5,568.5C 116.569,563.959 118.235,559.293 119.5,554.5C 120.5,554.5 121.5,554.5 122.5,554.5C 120.214,562.599 117.714,570.599 115,578.5C 112.761,581.962 109.594,583.295 105.5,582.5C 105.5,581.5 105.5,580.5 105.5,579.5C 110.242,579.733 112.576,577.4 112.5,572.5C 110.171,566.534 107.838,560.534 105.5,554.5 Z"/></g>
<g><path style="opacity:1" fill="#3c393a" d="M 187.5,554.5 C 188.978,554.238 190.311,554.571 191.5,555.5C 192.578,560.067 194.244,564.4 196.5,568.5C 198.569,563.959 200.235,559.293 201.5,554.5C 202.675,554.281 203.675,554.614 204.5,555.5C 202.485,561.522 200.485,567.522 198.5,573.5C 197.022,573.762 195.689,573.429 194.5,572.5C 191.854,566.543 189.52,560.543 187.5,554.5 Z"/></g>
<g><path style="opacity:1" fill="#393536" d="M 281.5,554.5 C 283.592,554.561 285.092,555.561 286,557.5C 287.405,561.217 288.905,564.883 290.5,568.5C 292.569,563.959 294.235,559.293 295.5,554.5C 296.5,554.5 297.5,554.5 298.5,554.5C 295.998,562.349 293.331,570.182 290.5,578C 288.802,581.964 285.802,583.464 281.5,582.5C 281.5,581.5 281.5,580.5 281.5,579.5C 285.924,580.013 288.257,578.013 288.5,573.5C 286.623,566.984 284.289,560.651 281.5,554.5 Z"/></g>
<g><path style="opacity:1" fill="#6e6b6c" d="M 229.5,554.5 C 228.88,560.926 229.547,566.926 231.5,572.5C 231.5,572.833 231.5,573.167 231.5,573.5C 230.5,573.5 229.5,573.5 228.5,573.5C 228.177,566.978 228.51,560.645 229.5,554.5 Z"/></g>
</svg>
