<?xml version="1.0" encoding="UTF-8"?>
<!DOCTYPE svg PUBLIC "-//W3C//DTD SVG 1.1//EN" "http://www.w3.org/Graphics/SVG/1.1/DTD/svg11.dtd">
<svg xmlns="http://www.w3.org/2000/svg" version="1.1" width="852px" height="542px" style="shape-rendering:geometricPrecision; text-rendering:geometricPrecision; image-rendering:optimizeQuality; fill-rule:evenodd; clip-rule:evenodd" xmlns:xlink="http://www.w3.org/1999/xlink">
<g><path style="opacity:1" fill="#fefefe" d="M -0.5,-0.5 C 283.5,-0.5 567.5,-0.5 851.5,-0.5C 851.5,180.167 851.5,360.833 851.5,541.5C 567.5,541.5 283.5,541.5 -0.5,541.5C -0.5,360.833 -0.5,180.167 -0.5,-0.5 Z"/></g>
<g><path style="opacity:1" fill="#f8cedc" d="M 826.5,7.5 C 823.677,18.6138 821.343,29.9471 819.5,41.5C 810.186,33.8154 801.186,25.6487 792.5,17C 791.552,16.5172 790.552,16.3505 789.5,16.5C 801.12,12.8662 812.954,9.53287 825,6.5C 825.765,6.56993 826.265,6.90326 826.5,7.5 Z"/></g>
<g><path style="opacity:1" fill="#f2bccf" d="M 789.5,16.5 C 790.552,16.3505 791.552,16.5172 792.5,17C 801.186,25.6487 810.186,33.8154 819.5,41.5C 818.04,48.802 816.706,56.1354 815.5,63.5C 814.732,62.7375 814.232,61.7375 814,60.5C 799.968,47.2997 786.134,33.9663 772.5,20.5C 777.878,18.4207 783.544,17.0873 789.5,16.5 Z"/></g>
<g><path style="opacity:1" fill="#edadc6" d="M 772.5,20.5 C 786.134,33.9663 799.968,47.2997 814,60.5C 814.232,61.7375 814.732,62.7375 815.5,63.5C 814.738,67.6709 813.738,71.6709 812.5,75.5C 793.866,58.8675 775.533,41.8675 757.5,24.5C 762.327,22.9278 767.327,21.5945 772.5,20.5 Z"/></g>
<g><path style="opacity:1" fill="#e9a1be" d="M 757.5,24.5 C 775.533,41.8675 793.866,58.8675 812.5,75.5C 812.276,79.1788 811.942,82.8455 811.5,86.5C 810.566,87.5676 810.232,88.901 810.5,90.5C 805.796,84.2869 800.463,78.4536 794.5,73C 777.996,57.9952 761.663,42.8285 745.5,27.5C 749.298,26.1316 753.298,25.1316 757.5,24.5 Z"/></g>
<g><path style="opacity:1" fill="#e594b5" d="M 745.5,27.5 C 761.663,42.8285 777.996,57.9952 794.5,73C 800.463,78.4536 805.796,84.2869 810.5,90.5C 809.245,95.7778 808.245,101.111 807.5,106.5C 804.561,101.036 800.561,96.2022 795.5,92C 773.964,71.628 752.297,51.4613 730.5,31.5C 735.292,29.7983 740.292,28.465 745.5,27.5 Z"/></g>
<g><path style="opacity:1" fill="#e189ae" d="M 730.5,31.5 C 752.297,51.4613 773.964,71.628 795.5,92C 800.561,96.2022 804.561,101.036 807.5,106.5C 806.515,110.076 805.848,113.742 805.5,117.5C 802.898,112.372 799.232,107.872 794.5,104C 769.964,80.6285 745.297,57.4618 720.5,34.5C 723.505,32.7234 726.838,31.7234 730.5,31.5 Z"/></g>
<g><path style="opacity:1" fill="#df81a8" d="M 720.5,34.5 C 745.297,57.4618 769.964,80.6285 794.5,104C 799.232,107.872 802.898,112.372 805.5,117.5C 804.659,119.379 804.325,121.379 804.5,123.5C 803.766,124.708 803.433,126.041 803.5,127.5C 799.551,121.029 794.551,115.196 788.5,110C 762.635,85.6332 736.968,61.1332 711.5,36.5C 714.37,35.3664 717.37,34.6997 720.5,34.5 Z"/></g>
<g><path style="opacity:1" fill="#ba2668" d="M 826.5,7.5 C 831.438,26.0272 836.438,44.5272 841.5,63C 839.891,72.7048 837.558,82.2048 834.5,91.5C 826.862,89.7056 819.195,88.039 811.5,86.5C 811.942,82.8455 812.276,79.1788 812.5,75.5C 813.738,71.6709 814.738,67.6709 815.5,63.5C 816.706,56.1354 818.04,48.802 819.5,41.5C 821.343,29.9471 823.677,18.6138 826.5,7.5 Z"/></g>
<g><path style="opacity:1" fill="#db77a2" d="M 711.5,36.5 C 736.968,61.1332 762.635,85.6332 788.5,110C 794.551,115.196 799.551,121.029 803.5,127.5C 802.85,129.435 802.517,131.435 802.5,133.5C 801.448,133.649 800.448,133.483 799.5,133C 766.912,101.241 733.912,70.0747 700.5,39.5C 703.888,37.8816 707.554,36.8816 711.5,36.5 Z"/></g>
<g><path style="opacity:1" fill="#d86e9c" d="M 700.5,39.5 C 733.912,70.0747 766.912,101.241 799.5,133C 800.448,133.483 801.448,133.649 802.5,133.5C 801.578,137.112 800.911,140.779 800.5,144.5C 763.868,110.869 727.868,76.5354 692.5,41.5C 694.961,40.469 697.627,39.8023 700.5,39.5 Z"/></g>
<g><path style="opacity:1" fill="#d66797" d="M 692.5,41.5 C 727.868,76.5354 763.868,110.869 800.5,144.5C 799.952,146.626 799.285,148.626 798.5,150.5C 760.5,114.833 722.5,79.1667 684.5,43.5C 686.961,42.469 689.627,41.8023 692.5,41.5 Z"/></g>
<g><path style="opacity:1" fill="#d46192" d="M 684.5,43.5 C 722.5,79.1667 760.5,114.833 798.5,150.5C 798.384,153.86 798.051,157.193 797.5,160.5C 793.8,155.289 789.466,150.455 784.5,146C 750.531,114.365 716.864,82.3652 683.5,50C 681.266,48.2502 678.932,46.7502 676.5,45.5C 678.905,44.2318 681.572,43.5651 684.5,43.5 Z"/></g>
<g><path style="opacity:1" fill="#d1588d" d="M 676.5,45.5 C 678.932,46.7502 681.266,48.2502 683.5,50C 716.864,82.3652 750.531,114.365 784.5,146C 789.466,150.455 793.8,155.289 797.5,160.5C 796.325,164.042 795.659,167.709 795.5,171.5C 752.197,130.865 709.197,89.8649 666.5,48.5C 669.619,47.1301 672.952,46.1301 676.5,45.5 Z"/></g>
<g><path style="opacity:1" fill="#cc4984" d="M 666.5,48.5 C 709.197,89.8649 752.197,130.865 795.5,171.5C 794.376,175.783 793.376,180.116 792.5,184.5C 792.5,185.5 792.5,186.5 792.5,187.5C 785.824,179.315 778.491,171.482 770.5,164C 731.5,127 692.5,90 653.5,53C 652.552,52.5172 651.552,52.3505 650.5,52.5C 655.503,50.2941 660.836,48.9608 666.5,48.5 Z"/></g>
<g><path style="opacity:1" fill="#c83e7c" d="M 650.5,52.5 C 651.552,52.3505 652.552,52.5172 653.5,53C 692.5,90 731.5,127 770.5,164C 778.491,171.482 785.824,179.315 792.5,187.5C 791.615,191.288 790.615,194.954 789.5,198.5C 789.649,197.448 789.483,196.448 789,195.5C 740.469,148.635 691.636,102.135 642.5,56C 641.207,55.51 639.873,55.3433 638.5,55.5C 642.264,54.0085 646.264,53.0085 650.5,52.5 Z"/></g>
<g><path style="opacity:1" fill="#c53576" d="M 638.5,55.5 C 639.873,55.3433 641.207,55.51 642.5,56C 691.636,102.135 740.469,148.635 789,195.5C 789.483,196.448 789.649,197.448 789.5,198.5C 789.451,202.078 788.785,205.411 787.5,208.5C 787.378,204.853 785.712,202.019 782.5,200C 735.197,155.699 688.197,111.032 641.5,66C 637.939,62.9274 634.272,60.0941 630.5,57.5C 632.961,56.469 635.627,55.8023 638.5,55.5 Z"/></g>
<g><path style="opacity:1" fill="#c22c70" d="M 630.5,57.5 C 634.272,60.0941 637.939,62.9274 641.5,66C 688.197,111.032 735.197,155.699 782.5,200C 785.712,202.019 787.378,204.853 787.5,208.5C 787.975,211.082 787.308,213.082 785.5,214.5C 731.369,163.538 677.369,112.371 623.5,61C 622.552,60.5172 621.552,60.3505 620.5,60.5C 623.452,58.5902 626.786,57.5902 630.5,57.5 Z"/></g>
<g><path style="opacity:1" fill="#be2269" d="M 620.5,60.5 C 621.552,60.3505 622.552,60.5172 623.5,61C 677.369,112.371 731.369,163.538 785.5,214.5C 784.917,222.332 783.584,229.999 781.5,237.5C 720.734,180.903 660.4,123.736 600.5,66C 601.056,65.6174 601.389,65.1174 601.5,64.5C 607.731,62.6922 614.065,61.3589 620.5,60.5 Z"/></g>
<g><path style="opacity:1" fill="#b82166" d="M 601.5,64.5 C 601.389,65.1174 601.056,65.6174 600.5,66C 660.4,123.736 720.734,180.903 781.5,237.5C 781.167,240.167 780.833,242.833 780.5,245.5C 779.265,251.281 777.931,256.948 776.5,262.5C 709.171,199.171 642.171,135.504 575.5,71.5C 584.167,69.1667 592.833,66.8333 601.5,64.5 Z"/></g>
<g><path style="opacity:1" fill="#b22163" d="M 575.5,71.5 C 642.171,135.504 709.171,199.171 776.5,262.5C 775.298,272.251 773.631,281.918 771.5,291.5C 749.9,272.07 728.734,252.07 708,231.5C 707.51,230.207 707.343,228.873 707.5,227.5C 707.413,222.463 707.746,217.463 708.5,212.5C 702.499,212.168 697.166,213.834 692.5,217.5C 650.334,176.501 607.667,136.001 564.5,96C 558.569,90.5758 553.236,84.7425 548.5,78.5C 557.462,76.0095 566.462,73.6762 575.5,71.5 Z"/></g>
<g><path style="opacity:1" fill="#ab2161" d="M 548.5,78.5 C 553.236,84.7425 558.569,90.5758 564.5,96C 607.667,136.001 650.334,176.501 692.5,217.5C 691.928,219.255 691.094,220.922 690,222.5C 689.001,228.832 688.168,235.166 687.5,241.5C 632.504,189.837 577.838,137.837 523.5,85.5C 531.672,82.706 540.006,80.3727 548.5,78.5 Z"/></g>
<g><path style="opacity:1" fill="#a5215e" d="M 523.5,85.5 C 577.838,137.837 632.504,189.837 687.5,241.5C 686.944,250.842 686.277,260.176 685.5,269.5C 668.671,253.505 651.671,237.672 634.5,222C 633.748,221.329 633.414,220.496 633.5,219.5C 633.5,217.167 633.5,214.833 633.5,212.5C 630.5,212.5 627.5,212.5 624.5,212.5C 582.5,172.167 540.5,131.833 498.5,91.5C 506.715,89.0296 515.049,87.0296 523.5,85.5 Z"/></g>
<g><path style="opacity:1" fill="#9f215c" d="M 498.5,91.5 C 540.5,131.833 582.5,172.167 624.5,212.5C 615.318,212.173 606.318,212.507 597.5,213.5C 596.883,213.611 596.383,213.944 596,214.5C 555.5,176 515,137.5 474.5,99C 475.056,98.6174 475.389,98.1174 475.5,97.5C 483.124,95.3441 490.79,93.3441 498.5,91.5 Z"/></g>
<g><path style="opacity:1" fill="#992159" d="M 475.5,97.5 C 475.389,98.1174 475.056,98.6174 474.5,99C 515,137.5 555.5,176 596,214.5C 596.383,213.944 596.883,213.611 597.5,213.5C 596.617,218.103 596.283,222.77 596.5,227.5C 600.833,227.5 605.167,227.5 609.5,227.5C 608.999,237.845 608.332,248.178 607.5,258.5C 606.883,258.611 606.383,258.944 606,259.5C 599.147,253.159 592.98,246.493 587.5,239.5C 589.221,235.727 591.221,232.061 593.5,228.5C 587.753,227.308 582.086,227.641 576.5,229.5C 573.732,227.913 571.065,226.08 568.5,224C 528.358,185.436 488.025,147.102 447.5,109C 446.177,108.184 445.511,107.017 445.5,105.5C 455.392,102.527 465.392,99.8599 475.5,97.5 Z"/></g>
<g><path style="opacity:1" fill="#b22464" d="M 811.5,86.5 C 819.195,88.039 826.862,89.7056 834.5,91.5C 831.393,103.809 828.393,116.142 825.5,128.5C 818.799,125.957 811.799,124.29 804.5,123.5C 804.325,121.379 804.659,119.379 805.5,117.5C 805.848,113.742 806.515,110.076 807.5,106.5C 808.245,101.111 809.245,95.7778 810.5,90.5C 810.232,88.901 810.566,87.5676 811.5,86.5 Z"/></g>
<g><path style="opacity:1" fill="#922056" d="M 445.5,105.5 C 445.511,107.017 446.177,108.184 447.5,109C 488.025,147.102 528.358,185.436 568.5,224C 571.065,226.08 573.732,227.913 576.5,229.5C 573.978,231.361 571.478,233.361 569,235.5C 567.058,239.069 564.892,242.402 562.5,245.5C 514.868,201.536 467.868,156.869 421.5,111.5C 429.441,109.298 437.441,107.298 445.5,105.5 Z"/></g>
<g><path style="opacity:1" fill="#8c2054" d="M 421.5,111.5 C 467.868,156.869 514.868,201.536 562.5,245.5C 559.337,252.496 555.671,259.162 551.5,265.5C 538.48,253.478 525.48,241.478 512.5,229.5C 512.5,228.167 511.833,227.5 510.5,227.5C 473.292,190.888 435.625,154.722 397.5,119C 398.056,118.617 398.389,118.117 398.5,117.5C 406.124,115.344 413.79,113.344 421.5,111.5 Z"/></g>
<g><path style="opacity:1" fill="#872052" d="M 398.5,117.5 C 398.389,118.117 398.056,118.617 397.5,119C 435.625,154.722 473.292,190.888 510.5,227.5C 501.5,227.5 492.5,227.5 483.5,227.5C 483.5,228.5 483.5,229.5 483.5,230.5C 476.466,223.464 469.133,216.797 461.5,210.5C 461.5,208.833 461.5,207.167 461.5,205.5C 460.167,205.5 458.833,205.5 457.5,205.5C 428.807,178.472 400.14,151.472 371.5,124.5C 380.452,122.012 389.452,119.679 398.5,117.5 Z"/></g>
<g><path style="opacity:1" fill="#80204f" d="M 371.5,124.5 C 400.14,151.472 428.807,178.472 457.5,205.5C 451.732,207.584 445.732,209.251 439.5,210.5C 438.833,214.647 438.166,218.647 437.5,222.5C 433.17,217.337 428.336,212.67 423,208.5C 422.617,209.056 422.117,209.389 421.5,209.5C 421.852,203.533 419.186,199.866 413.5,198.5C 389.859,176.528 366.193,154.528 342.5,132.5C 352.072,129.87 361.739,127.204 371.5,124.5 Z"/></g>
<g><path style="opacity:1" fill="#79204c" d="M 342.5,132.5 C 366.193,154.528 389.859,176.528 413.5,198.5C 405.159,197.84 400.492,201.673 399.5,210C 399.482,212.41 400.149,214.577 401.5,216.5C 401.565,216.938 401.399,217.272 401,217.5C 373.301,191.3 345.801,164.966 318.5,138.5C 326.406,136.19 334.406,134.19 342.5,132.5 Z"/></g>
<g><path style="opacity:1" fill="#76224b" d="M 318.5,138.5 C 345.801,164.966 373.301,191.3 401,217.5C 401.399,217.272 401.565,216.938 401.5,216.5C 411.142,222.297 417.809,219.963 421.5,209.5C 422.117,209.389 422.617,209.056 423,208.5C 428.336,212.67 433.17,217.337 437.5,222.5C 436.481,241.7 434.815,260.7 432.5,279.5C 432.649,278.448 432.483,277.448 432,276.5C 427.241,271.234 422.075,266.567 416.5,262.5C 417.555,250.838 418.555,239.171 419.5,227.5C 408.167,227.5 396.833,227.5 385.5,227.5C 385.5,228.833 385.5,230.167 385.5,231.5C 382.833,229.5 380.5,227.167 378.5,224.5C 379.5,224.5 380.5,224.5 381.5,224.5C 381.5,223.5 381.5,222.5 381.5,221.5C 382.353,215.144 382.353,208.81 381.5,202.5C 368.541,196.337 354.874,193.67 340.5,194.5C 341.609,193.71 342.942,193.21 344.5,193C 328.631,177.629 312.631,162.462 296.5,147.5C 297.673,145.496 299.34,143.996 301.5,143C 307.1,141.188 312.767,139.688 318.5,138.5 Z"/></g>
<g><path style="opacity:1" fill="#a82360" d="M 804.5,123.5 C 811.799,124.29 818.799,125.957 825.5,128.5C 820.618,149.033 815.284,169.366 809.5,189.5C 809.389,188.883 809.056,188.383 808.5,188C 803.149,186.828 797.815,185.662 792.5,184.5C 793.376,180.116 794.376,175.783 795.5,171.5C 795.659,167.709 796.325,164.042 797.5,160.5C 798.051,157.193 798.384,153.86 798.5,150.5C 799.285,148.626 799.952,146.626 800.5,144.5C 800.911,140.779 801.578,137.112 802.5,133.5C 802.517,131.435 802.85,129.435 803.5,127.5C 803.433,126.041 803.766,124.708 804.5,123.5 Z"/></g>
<g><path style="opacity:1" fill="#692146" d="M 296.5,147.5 C 312.631,162.462 328.631,177.629 344.5,193C 342.942,193.21 341.609,193.71 340.5,194.5C 302.906,198.253 279.74,218.587 271,255.5C 266.3,275.407 269.633,293.74 281,310.5C 287.05,317.216 294.216,322.383 302.5,326C 262.537,317.706 222.537,309.206 182.5,300.5C 182.491,298.692 182.991,297.025 184,295.5C 221.363,245.982 258.863,196.649 296.5,147.5 Z"/></g>
<g><path style="opacity:1" fill="#fcfafb" d="M 413.5,198.5 C 419.186,199.866 421.852,203.533 421.5,209.5C 417.809,219.963 411.142,222.297 401.5,216.5C 400.149,214.577 399.482,212.41 399.5,210C 400.492,201.673 405.159,197.84 413.5,198.5 Z"/></g>
<g><path style="opacity:1" fill="#fcfbfc" d="M 457.5,205.5 C 458.833,205.5 460.167,205.5 461.5,205.5C 461.5,207.167 461.5,208.833 461.5,210.5C 460.646,216.121 460.313,221.788 460.5,227.5C 465.833,227.5 471.167,227.5 476.5,227.5C 476.803,232.43 476.469,237.263 475.5,242C 469.412,241.874 463.745,242.708 458.5,244.5C 457.413,253.128 456.746,261.795 456.5,270.5C 455.238,277.969 454.571,285.635 454.5,293.5C 453.349,298.65 453.183,303.984 454,309.5C 454.991,312.66 456.824,315.16 459.5,317C 469.537,316.219 475.204,320.719 476.5,330.5C 467.519,331.475 458.519,331.642 449.5,331C 439.888,328.389 434.055,322.222 432,312.5C 431.5,301.491 431.667,290.491 432.5,279.5C 434.815,260.7 436.481,241.7 437.5,222.5C 438.166,218.647 438.833,214.647 439.5,210.5C 445.732,209.251 451.732,207.584 457.5,205.5 Z"/></g>
<g><path style="opacity:1" fill="#812350" d="M 461.5,210.5 C 469.133,216.797 476.466,223.464 483.5,230.5C 482.838,234.466 482.505,238.466 482.5,242.5C 486.226,242.177 489.893,242.511 493.5,243.5C 498.508,258.844 503.508,274.178 508.5,289.5C 492.203,274.371 476.036,259.038 460,243.5C 459.617,244.056 459.117,244.389 458.5,244.5C 463.745,242.708 469.412,241.874 475.5,242C 476.469,237.263 476.803,232.43 476.5,227.5C 471.167,227.5 465.833,227.5 460.5,227.5C 460.313,221.788 460.646,216.121 461.5,210.5 Z"/></g>
<g><path style="opacity:1" fill="#e1b9cc" d="M 597.5,213.5 C 606.318,212.507 615.318,212.173 624.5,212.5C 627.5,212.5 630.5,212.5 633.5,212.5C 633.5,214.833 633.5,217.167 633.5,219.5C 633.167,219.5 632.833,219.5 632.5,219.5C 632.5,217.5 632.5,215.5 632.5,213.5C 620.833,213.5 609.167,213.5 597.5,213.5 Z"/></g>
<g><path style="opacity:1" fill="#6a2146" d="M 365.5,215.5 C 365.5,218.5 365.5,221.5 365.5,224.5C 369.833,224.5 374.167,224.5 378.5,224.5C 380.5,227.167 382.833,229.5 385.5,231.5C 384.756,235.119 384.423,238.785 384.5,242.5C 388.167,242.5 391.833,242.5 395.5,242.5C 394.387,261.525 392.887,280.525 391,299.5C 390.333,305.833 390.333,312.167 391,318.5C 394.088,327.729 400.588,332.062 410.5,331.5C 412.5,308.5 414.5,285.5 416.5,262.5C 422.075,266.567 427.241,271.234 432,276.5C 432.483,277.448 432.649,278.448 432.5,279.5C 431.667,290.491 431.5,301.491 432,312.5C 434.055,322.222 439.888,328.389 449.5,331C 458.519,331.642 467.519,331.475 476.5,330.5C 475.204,320.719 469.537,316.219 459.5,317C 456.824,315.16 454.991,312.66 454,309.5C 453.183,303.984 453.349,298.65 454.5,293.5C 454.34,295.199 454.506,296.866 455,298.5C 472.671,314.672 490.171,331.005 507.5,347.5C 504.012,353.806 500.512,360.14 497,366.5C 496.107,367.081 495.107,367.415 494,367.5C 438.85,355.67 383.683,343.836 328.5,332C 345.492,332.003 361.159,327.503 375.5,318.5C 371.543,311.361 365.543,308.861 357.5,311C 311.785,321.282 290.952,303.116 295,256.5C 304.778,219.195 328.278,205.529 365.5,215.5 Z"/></g>
<g><path style="opacity:1" fill="#fdfcfd" d="M 707.5,227.5 C 706.014,237.642 705.014,247.975 704.5,258.5C 703.534,265.796 702.867,273.13 702.5,280.5C 701.558,289.774 699.225,298.774 695.5,307.5C 691.213,314.787 685.546,320.787 678.5,325.5C 671.564,328.923 664.231,330.923 656.5,331.5C 639.722,334.353 625.222,330.019 613,318.5C 608.885,312.489 606.551,305.822 606,298.5C 605.236,285.106 605.736,271.773 607.5,258.5C 608.332,248.178 608.999,237.845 609.5,227.5C 605.167,227.5 600.833,227.5 596.5,227.5C 596.283,222.77 596.617,218.103 597.5,213.5C 609.167,213.5 620.833,213.5 632.5,213.5C 632.5,215.5 632.5,217.5 632.5,219.5C 631.954,229.176 631.287,238.842 630.5,248.5C 628.118,265.081 627.285,281.748 628,298.5C 633.266,313.227 643.766,319.393 659.5,317C 671.323,314.343 678.656,307.176 681.5,295.5C 683.729,286.993 685.063,278.326 685.5,269.5C 686.277,260.176 686.944,250.842 687.5,241.5C 688.168,235.166 689.001,228.832 690,222.5C 691.094,220.922 691.928,219.255 692.5,217.5C 697.166,213.834 702.499,212.168 708.5,212.5C 707.746,217.463 707.413,222.463 707.5,227.5 Z"/></g>
<g><path style="opacity:1" fill="#9d255c" d="M 792.5,184.5 C 797.815,185.662 803.149,186.828 808.5,188C 809.056,188.383 809.389,188.883 809.5,189.5C 804.964,208.171 800.298,226.838 795.5,245.5C 790.97,243.994 786.303,242.994 781.5,242.5C 781.737,243.791 781.404,244.791 780.5,245.5C 780.833,242.833 781.167,240.167 781.5,237.5C 783.584,229.999 784.917,222.332 785.5,214.5C 787.308,213.082 787.975,211.082 787.5,208.5C 788.785,205.411 789.451,202.078 789.5,198.5C 790.615,194.954 791.615,191.288 792.5,187.5C 792.5,186.5 792.5,185.5 792.5,184.5 Z"/></g>
<g><path style="opacity:1" fill="#a0225c" d="M 632.5,219.5 C 632.833,219.5 633.167,219.5 633.5,219.5C 633.414,220.496 633.748,221.329 634.5,222C 651.671,237.672 668.671,253.505 685.5,269.5C 685.063,278.326 683.729,286.993 681.5,295.5C 664.78,279.443 647.78,263.777 630.5,248.5C 631.287,238.842 631.954,229.176 632.5,219.5 Z"/></g>
<g><path style="opacity:1" fill="#d4bcc8" d="M 365.5,215.5 C 366.473,217.948 366.806,220.615 366.5,223.5C 371.807,224.026 376.807,223.36 381.5,221.5C 381.5,222.5 381.5,223.5 381.5,224.5C 380.5,224.5 379.5,224.5 378.5,224.5C 374.167,224.5 369.833,224.5 365.5,224.5C 365.5,221.5 365.5,218.5 365.5,215.5 Z"/></g>
<g><path style="opacity:1" fill="#fdfcfc" d="M 416.5,262.5 C 414.5,285.5 412.5,308.5 410.5,331.5C 400.588,332.062 394.088,327.729 391,318.5C 390.333,312.167 390.333,305.833 391,299.5C 392.887,280.525 394.387,261.525 395.5,242.5C 391.833,242.5 388.167,242.5 384.5,242.5C 384.423,238.785 384.756,235.119 385.5,231.5C 385.5,230.167 385.5,228.833 385.5,227.5C 396.833,227.5 408.167,227.5 419.5,227.5C 418.555,239.171 417.555,250.838 416.5,262.5 Z"/></g>
<g><path style="opacity:1" fill="#ab2261" d="M 707.5,227.5 C 707.343,228.873 707.51,230.207 708,231.5C 728.734,252.07 749.9,272.07 771.5,291.5C 771.5,292.167 771.5,292.833 771.5,293.5C 769.94,301.191 768.274,308.857 766.5,316.5C 745.532,297.533 724.865,278.2 704.5,258.5C 705.014,247.975 706.014,237.642 707.5,227.5 Z"/></g>
<g><path style="opacity:1" fill="#7a214d" d="M 508.5,289.5 C 512.941,301.646 516.441,313.979 519,326.5C 518.722,327.416 518.222,328.082 517.5,328.5C 497.798,308.464 477.465,289.131 456.5,270.5C 456.746,261.795 457.413,253.128 458.5,244.5C 459.117,244.389 459.617,244.056 460,243.5C 476.036,259.038 492.203,274.371 508.5,289.5 Z"/></g>
<g><path style="opacity:1" fill="#98235a" d="M 630.5,248.5 C 647.78,263.777 664.78,279.443 681.5,295.5C 678.656,307.176 671.323,314.343 659.5,317C 643.766,319.393 633.266,313.227 628,298.5C 627.285,281.748 628.118,265.081 630.5,248.5 Z"/></g>
<g><path style="opacity:1" fill="#862252" d="M 512.5,229.5 C 525.48,241.478 538.48,253.478 551.5,265.5C 546.604,276.295 540.937,286.629 534.5,296.5C 527.011,274.206 519.677,251.873 512.5,229.5 Z"/></g>
<g><path style="opacity:1" fill="#a5215e" d="M 704.5,258.5 C 724.865,278.2 745.532,297.533 766.5,316.5C 764.909,324.791 763.575,333.124 762.5,341.5C 760.068,340.25 757.734,338.75 755.5,337C 738,320.167 720.5,303.333 703,286.5C 702.505,284.527 702.338,282.527 702.5,280.5C 702.867,273.13 703.534,265.796 704.5,258.5 Z"/></g>
<g><path style="opacity:1" fill="#8d2155" d="M 587.5,239.5 C 592.98,246.493 599.147,253.159 606,259.5C 606.383,258.944 606.883,258.611 607.5,258.5C 605.736,271.773 605.236,285.106 606,298.5C 606.551,305.822 608.885,312.489 613,318.5C 625.222,330.019 639.722,334.353 656.5,331.5C 655.737,332.268 654.737,332.768 653.5,333C 681.833,360 710.167,387 738.5,414C 741.397,416.41 744.397,418.577 747.5,420.5C 746.432,421.434 745.099,421.768 743.5,421.5C 731.018,418.959 718.685,416.292 706.5,413.5C 660.116,368.149 613.116,323.483 565.5,279.5C 572.329,265.838 579.662,252.504 587.5,239.5 Z"/></g>
<g><path style="opacity:1" fill="#922759" d="M 795.5,245.5 C 791.453,262.358 787.12,279.024 782.5,295.5C 782.5,294.5 782.5,293.5 782.5,292.5C 779.962,292.493 777.462,292.159 775,291.5C 773.566,291.862 772.399,292.528 771.5,293.5C 771.5,292.833 771.5,292.167 771.5,291.5C 773.631,281.918 775.298,272.251 776.5,262.5C 777.931,256.948 779.265,251.281 780.5,245.5C 781.404,244.791 781.737,243.791 781.5,242.5C 786.303,242.994 790.97,243.994 795.5,245.5 Z"/></g>
<g><path style="opacity:1" fill="#73204a" d="M 456.5,270.5 C 477.465,289.131 497.798,308.464 517.5,328.5C 514.422,334.991 511.088,341.325 507.5,347.5C 490.171,331.005 472.671,314.672 455,298.5C 454.506,296.866 454.34,295.199 454.5,293.5C 454.571,285.635 455.238,277.969 456.5,270.5 Z"/></g>
<g><path style="opacity:1" fill="#9f225c" d="M 702.5,280.5 C 702.338,282.527 702.505,284.527 703,286.5C 720.5,303.333 738,320.167 755.5,337C 757.734,338.75 760.068,340.25 762.5,341.5C 762.5,341.833 762.5,342.167 762.5,342.5C 760.393,350.811 758.393,359.144 756.5,367.5C 742,352.834 727,338.667 711.5,325C 705.569,319.576 700.236,313.742 695.5,307.5C 699.225,298.774 701.558,289.774 702.5,280.5 Z"/></g>
<g><path style="opacity:1" fill="#862051" d="M 565.5,279.5 C 613.116,323.483 660.116,368.149 706.5,413.5C 692.781,410.653 679.114,407.653 665.5,404.5C 629.117,368.484 592.117,333.15 554.5,298.5C 557.412,291.668 561.079,285.334 565.5,279.5 Z"/></g>
<g><path style="opacity:1" fill="#80204f" d="M 554.5,298.5 C 592.117,333.15 629.117,368.484 665.5,404.5C 650.753,401.931 636.086,398.931 621.5,395.5C 617.088,392.271 612.754,388.771 608.5,385C 586.6,363.264 564.266,342.097 541.5,321.5C 545.596,313.636 549.929,305.969 554.5,298.5 Z"/></g>
<g><path style="opacity:1" fill="#992159" d="M 695.5,307.5 C 700.236,313.742 705.569,319.576 711.5,325C 727,338.667 742,352.834 756.5,367.5C 755.092,377.542 753.425,387.542 751.5,397.5C 727.005,373.839 702.339,350.339 677.5,327C 678.056,326.617 678.389,326.117 678.5,325.5C 685.546,320.787 691.213,314.787 695.5,307.5 Z"/></g>
<g><path style="opacity:1" fill="#862755" d="M 782.5,295.5 C 778.401,311.99 774.068,328.323 769.5,344.5C 767.167,343.833 764.833,343.167 762.5,342.5C 762.5,342.167 762.5,341.833 762.5,341.5C 763.575,333.124 764.909,324.791 766.5,316.5C 768.274,308.857 769.94,301.191 771.5,293.5C 772.399,292.528 773.566,291.862 775,291.5C 777.462,292.159 779.962,292.493 782.5,292.5C 782.5,293.5 782.5,294.5 782.5,295.5 Z"/></g>
<g><path style="opacity:1" fill="#7a214c" d="M 541.5,321.5 C 564.266,342.097 586.6,363.264 608.5,385C 612.754,388.771 617.088,392.271 621.5,395.5C 606.743,392.442 592.077,389.108 577.5,385.5C 566.032,374.2 554.365,363.034 542.5,352C 538.23,348.239 534.563,344.072 531.5,339.5C 534.33,333.17 537.663,327.17 541.5,321.5 Z"/></g>
<g><path style="opacity:1" fill="#922056" d="M 678.5,325.5 C 678.389,326.117 678.056,326.617 677.5,327C 702.339,350.339 727.005,373.839 751.5,397.5C 749.653,405.068 748.32,412.735 747.5,420.5C 744.397,418.577 741.397,416.41 738.5,414C 710.167,387 681.833,360 653.5,333C 654.737,332.768 655.737,332.268 656.5,331.5C 664.231,330.923 671.564,328.923 678.5,325.5 Z"/></g>
<g><path style="opacity:1" fill="#7e2d55" d="M 762.5,342.5 C 764.833,343.167 767.167,343.833 769.5,344.5C 763.495,369.522 757.328,394.522 751,419.5C 750.626,420.416 750.126,421.25 749.5,422C 747.288,422.789 745.288,422.622 743.5,421.5C 745.099,421.768 746.432,421.434 747.5,420.5C 748.32,412.735 749.653,405.068 751.5,397.5C 753.425,387.542 755.092,377.542 756.5,367.5C 758.393,359.144 760.393,350.811 762.5,342.5 Z"/></g>
<g><path style="opacity:1" fill="#74214a" d="M 531.5,339.5 C 534.563,344.072 538.23,348.239 542.5,352C 554.365,363.034 566.032,374.2 577.5,385.5C 556.167,381.167 534.833,376.833 513.5,372.5C 518.722,361.055 524.722,350.055 531.5,339.5 Z"/></g>
<g><path style="opacity:1" fill="#2b2728" d="M 77.5,412.5 C 70.4921,412.334 63.4921,412.5 56.5,413C 57.0442,413.717 57.7109,414.217 58.5,414.5C 64.4817,419.497 71.1483,423.497 78.5,426.5C 77.8551,427.646 77.0217,428.646 76,429.5C 67.3492,426.101 59.8492,421.101 53.5,414.5C 53.44,413.957 53.1067,413.624 52.5,413.5C 51.1889,417.984 51.1889,422.317 52.5,426.5C 57.5,426.5 62.5,426.5 67.5,426.5C 67.5,435.167 67.5,443.833 67.5,452.5C 56.1667,452.5 44.8333,452.5 33.5,452.5C 33.5,443.833 33.5,435.167 33.5,426.5C 38.5,426.5 43.5,426.5 48.5,426.5C 48.6657,422.154 48.499,417.821 48,413.5C 41.1876,420.576 33.1876,425.909 24,429.5C 22.8315,428.991 21.9981,428.158 21.5,427C 29.8493,423.831 37.1826,419.165 43.5,413C 36.8417,412.5 30.175,412.334 23.5,412.5C 23.5,411.5 23.5,410.5 23.5,409.5C 31.8333,409.5 40.1667,409.5 48.5,409.5C 48.5,407.5 48.5,405.5 48.5,403.5C 44.0019,403.785 39.5019,404.118 35,404.5C 32.3897,404.467 30.223,403.8 28.5,402.5C 32.5,401.833 36.5,401.167 40.5,400.5C 50.4893,399.334 60.4893,398.501 70.5,398C 71.5523,399.716 70.8856,400.716 68.5,401C 63.1924,401.83 57.8591,402.33 52.5,402.5C 52.5,404.833 52.5,407.167 52.5,409.5C 60.8333,409.5 69.1667,409.5 77.5,409.5C 77.5,410.5 77.5,411.5 77.5,412.5 Z"/></g>
<g><path style="opacity:1" fill="#312d2e" d="M 121.5,397.5 C 122.5,397.5 123.5,397.5 124.5,397.5C 124.5,400.5 124.5,403.5 124.5,406.5C 127.833,406.5 131.167,406.5 134.5,406.5C 134.5,403.5 134.5,400.5 134.5,397.5C 135.833,397.5 137.167,397.5 138.5,397.5C 138.5,400.5 138.5,403.5 138.5,406.5C 141.833,406.5 145.167,406.5 148.5,406.5C 148.5,407.5 148.5,408.5 148.5,409.5C 145.167,409.5 141.833,409.5 138.5,409.5C 138.5,412.167 138.5,414.833 138.5,417.5C 142.684,418.166 147.018,418.833 151.5,419.5C 147.5,420.167 143.5,420.833 139.5,421.5C 139.624,422.107 139.957,422.44 140.5,422.5C 144.089,426.626 148.089,430.292 152.5,433.5C 151.758,434.287 150.925,434.953 150,435.5C 146.638,433.65 143.638,431.317 141,428.5C 140.501,432.486 140.334,436.486 140.5,440.5C 134.5,440.5 128.5,440.5 122.5,440.5C 122.232,443.119 122.565,445.619 123.5,448C 130.167,448.667 136.833,448.667 143.5,448C 144.282,445.26 144.782,442.426 145,439.5C 147.306,440.137 148.473,441.637 148.5,444C 148.254,447.008 147.254,449.674 145.5,452C 137.833,452.667 130.167,452.667 122.5,452C 120.574,451.578 119.574,450.411 119.5,448.5C 119.829,442.463 119.496,436.463 118.5,430.5C 117.893,430.624 117.56,430.957 117.5,431.5C 115.502,433.6 113.335,435.6 111,437.5C 110.167,436.667 109.333,435.833 108.5,435C 113.411,431.922 117.078,427.756 119.5,422.5C 115.893,421.511 112.226,421.177 108.5,421.5C 108.5,420.5 108.5,419.5 108.5,418.5C 112.833,418.5 117.167,418.5 121.5,418.5C 121.806,415.615 121.473,412.948 120.5,410.5C 117.972,409.834 115.306,409.168 112.5,408.5C 115.428,407.516 118.428,407.183 121.5,407.5C 121.5,404.167 121.5,400.833 121.5,397.5 Z"/></g>
<g><path style="opacity:1" fill="#302c2d" d="M 225.5,408.5 C 225.5,409.5 225.5,410.5 225.5,411.5C 220.833,411.5 216.167,411.5 211.5,411.5C 211.194,414.385 211.527,417.052 212.5,419.5C 212.645,424.035 213.478,428.368 215,432.5C 217.566,427.851 219.066,422.851 219.5,417.5C 220.5,417.5 221.5,417.5 222.5,417.5C 222.608,421.247 222.108,424.914 221,428.5C 214.876,436.046 215.043,443.379 221.5,450.5C 222.815,447.627 223.815,444.627 224.5,441.5C 225.086,441.709 225.586,442.043 226,442.5C 226.701,445.928 226.368,449.262 225,452.5C 223.274,453.576 221.441,453.743 219.5,453C 216.707,449.919 214.54,446.419 213,442.5C 210.089,446.875 206.256,450.209 201.5,452.5C 200.5,452.167 199.833,451.5 199.5,450.5C 203.485,447.016 207.318,443.349 211,439.5C 209.844,430.587 209.011,421.587 208.5,412.5C 203.5,412.5 198.5,412.5 193.5,412.5C 193.5,415.167 193.5,417.833 193.5,420.5C 197.5,420.5 201.5,420.5 205.5,420.5C 205.826,427.614 205.159,434.614 203.5,441.5C 202.312,442.84 200.812,443.507 199,443.5C 197.175,443.057 195.342,442.723 193.5,442.5C 193.238,441.022 193.571,439.689 194.5,438.5C 200.924,440.682 203.257,438.349 201.5,431.5C 202.473,429.052 202.806,426.385 202.5,423.5C 199.287,423.19 196.287,423.523 193.5,424.5C 194.226,435.493 190.892,444.993 183.5,453C 182.068,453.27 181.068,452.604 180.5,451C 184.778,446.609 187.611,441.443 189,435.5C 189.5,426.506 189.666,417.506 189.5,408.5C 195.5,408.5 201.5,408.5 207.5,408.5C 207.5,404.833 207.5,401.167 207.5,397.5C 208.833,397.5 210.167,397.5 211.5,397.5C 211.5,401.167 211.5,404.833 211.5,408.5C 214.247,408.813 216.914,408.48 219.5,407.5C 218.029,404.864 216.363,402.364 214.5,400C 215.108,399.13 215.941,398.63 217,398.5C 219.33,400.342 221.163,402.676 222.5,405.5C 222.023,406.478 221.357,407.311 220.5,408C 222.134,408.494 223.801,408.66 225.5,408.5 Z"/></g>
<g><path style="opacity:1" fill="#2a2627" d="M 370.5,414.5 C 370.5,415.5 370.5,416.5 370.5,417.5C 363.137,417.169 355.803,417.503 348.5,418.5C 348.624,419.107 348.957,419.44 349.5,419.5C 353.118,432.952 360.785,443.452 372.5,451C 371.534,452.678 370.201,453.345 368.5,453C 356.375,444.374 348.375,432.874 344.5,418.5C 342.06,426.653 338.56,434.32 334,441.5C 329.285,446.105 324.118,450.105 318.5,453.5C 317.354,452.855 316.354,452.022 315.5,451C 329.119,444.227 337.119,433.394 339.5,418.5C 332.687,417.509 325.687,417.175 318.5,417.5C 318.5,416.5 318.5,415.5 318.5,414.5C 325.833,414.5 333.167,414.5 340.5,414.5C 341.032,408.848 341.365,403.181 341.5,397.5C 342.833,397.5 344.167,397.5 345.5,397.5C 344.968,403.152 344.635,408.819 344.5,414.5C 353.167,414.5 361.833,414.5 370.5,414.5 Z"/></g>
<g><path style="opacity:1" fill="#2c2829" d="M 409.5,400.5 C 409.5,400.833 409.5,401.167 409.5,401.5C 406.079,403.376 402.412,404.376 398.5,404.5C 398.5,405.5 398.5,406.5 398.5,407.5C 401.833,407.5 405.167,407.5 408.5,407.5C 408.5,408.5 408.5,409.5 408.5,410.5C 404.958,410.187 401.625,410.521 398.5,411.5C 398.5,412.5 398.5,413.5 398.5,414.5C 402.167,414.5 405.833,414.5 409.5,414.5C 409.5,415.833 409.5,417.167 409.5,418.5C 405.833,418.5 402.167,418.5 398.5,418.5C 398.5,419.833 398.5,421.167 398.5,422.5C 402.833,423.833 407.167,423.833 411.5,422.5C 415.167,422.5 418.833,422.5 422.5,422.5C 426.833,423.833 431.167,423.833 435.5,422.5C 435.5,421.167 435.5,419.833 435.5,418.5C 431.833,418.5 428.167,418.5 424.5,418.5C 424.5,417.5 424.5,416.5 424.5,415.5C 428.167,415.5 431.833,415.5 435.5,415.5C 435.5,414.167 435.5,412.833 435.5,411.5C 432.167,411.5 428.833,411.5 425.5,411.5C 425.5,410.167 425.5,408.833 425.5,407.5C 428.833,407.5 432.167,407.5 435.5,407.5C 435.5,406.167 435.5,404.833 435.5,403.5C 432.167,403.5 428.833,403.5 425.5,403.5C 425.5,402.5 425.5,401.5 425.5,400.5C 430.167,400.5 434.833,400.5 439.5,400.5C 439.5,407.833 439.5,415.167 439.5,422.5C 440.833,422.5 442.167,422.5 443.5,422.5C 443.5,425.833 443.5,429.167 443.5,432.5C 442.167,432.5 440.833,432.5 439.5,432.5C 439.5,430.167 439.5,427.833 439.5,425.5C 424.5,425.5 409.5,425.5 394.5,425.5C 394.5,427.833 394.5,430.167 394.5,432.5C 393.5,432.5 392.5,432.5 391.5,432.5C 391.5,429.167 391.5,425.833 391.5,422.5C 392.833,422.5 394.167,422.5 395.5,422.5C 395.5,415.5 395.5,408.5 395.5,401.5C 399.264,400.88 402.931,399.88 406.5,398.5C 408.038,398.453 409.038,399.12 409.5,400.5 Z"/></g>
<g><path style="opacity:1" fill="#2a2627" d="M 177.5,418.5 C 175.631,417.835 173.631,417.169 171.5,416.5C 173.631,415.831 175.631,415.165 177.5,414.5C 178.487,409.695 178.821,404.695 178.5,399.5C 179.5,399.5 180.5,399.5 181.5,399.5C 181.5,404.5 181.5,409.5 181.5,414.5C 183.5,414.5 185.5,414.5 187.5,414.5C 187.5,415.833 187.5,417.167 187.5,418.5C 185.5,418.5 183.5,418.5 181.5,418.5C 181.334,423.844 181.501,429.177 182,434.5C 183.584,433.139 185.418,432.472 187.5,432.5C 187.67,433.822 187.337,434.989 186.5,436C 181.376,438.541 176.042,440.374 170.5,441.5C 170.281,440.325 170.614,439.325 171.5,438.5C 173.642,437.399 175.808,436.399 178,435.5C 178.818,429.651 178.652,423.985 177.5,418.5 Z"/></g>
<g><path style="opacity:1" fill="#787576" d="M 40.5,400.5 C 36.5,401.167 32.5,401.833 28.5,402.5C 27.9569,402.44 27.6236,402.107 27.5,401.5C 31.7828,400.508 36.1161,400.174 40.5,400.5 Z"/></g>
<g><path style="opacity:1" fill="#353132" d="M 99.5,400.5 C 104.269,402.109 107.436,405.109 109,409.5C 108.282,410.451 107.449,410.617 106.5,410C 104.461,407.626 102.128,405.626 99.5,404C 98.3157,402.855 98.3157,401.688 99.5,400.5 Z"/></g>
<g><path style="opacity:1" fill="#f4f4f4" d="M 409.5,401.5 C 416.66,402.922 416.993,404.922 410.5,407.5C 409.833,407.5 409.167,407.5 408.5,407.5C 405.167,407.5 401.833,407.5 398.5,407.5C 398.5,406.5 398.5,405.5 398.5,404.5C 402.412,404.376 406.079,403.376 409.5,401.5 Z"/></g>
<g><path style="opacity:1" fill="#908e8f" d="M 272.5,404.5 C 273.043,404.56 273.376,404.893 273.5,405.5C 263.522,406.499 253.522,406.832 243.5,406.5C 253.167,405.833 262.833,405.167 272.5,404.5 Z"/></g>
<g><path style="opacity:1" fill="#7d7a7b" d="M 275.5,405.5 C 284.167,405.5 292.833,405.5 301.5,405.5C 301.768,407.099 301.434,408.432 300.5,409.5C 300.5,408.5 300.5,407.5 300.5,406.5C 291.983,406.826 283.65,406.493 275.5,405.5 Z"/></g>
<g><path style="opacity:1" fill="#6b6869" d="M 121.5,397.5 C 121.5,400.833 121.5,404.167 121.5,407.5C 118.428,407.183 115.428,407.516 112.5,408.5C 115.306,409.168 117.972,409.834 120.5,410.5C 117.5,410.5 114.5,410.5 111.5,410.5C 111.5,409.167 111.5,407.833 111.5,406.5C 114.5,406.5 117.5,406.5 120.5,406.5C 120.19,403.287 120.523,400.287 121.5,397.5 Z"/></g>
<g><path style="opacity:1" fill="#292526" d="M 275.5,405.5 C 283.65,406.493 291.983,406.826 300.5,406.5C 300.5,407.5 300.5,408.5 300.5,409.5C 291.833,409.5 283.167,409.5 274.5,409.5C 273.518,412.962 273.185,416.629 273.5,420.5C 280.5,420.5 287.5,420.5 294.5,420.5C 294.5,428.5 294.5,436.5 294.5,444.5C 293.308,446.922 291.308,447.922 288.5,447.5C 286.077,447.406 283.744,446.906 281.5,446C 280.269,444.817 280.269,443.651 281.5,442.5C 284.59,444.359 287.756,444.692 291,443.5C 291.5,436.842 291.666,430.175 291.5,423.5C 285.833,423.5 280.167,423.5 274.5,423.5C 274.5,433.5 274.5,443.5 274.5,453.5C 273.167,453.5 271.833,453.5 270.5,453.5C 270.5,443.5 270.5,433.5 270.5,423.5C 265.167,423.5 259.833,423.5 254.5,423.5C 254.5,431.833 254.5,440.167 254.5,448.5C 253.167,448.5 251.833,448.5 250.5,448.5C 250.5,439.167 250.5,429.833 250.5,420.5C 257.167,420.5 263.833,420.5 270.5,420.5C 270.815,416.629 270.482,412.962 269.5,409.5C 260.833,409.5 252.167,409.5 243.5,409.5C 243.5,408.5 243.5,407.5 243.5,406.5C 253.522,406.832 263.522,406.499 273.5,405.5C 273.376,404.893 273.043,404.56 272.5,404.5C 270.521,403.188 268.855,401.521 267.5,399.5C 267.833,398.5 268.5,397.833 269.5,397.5C 271.937,398.803 274.104,400.47 276,402.5C 276.47,403.577 276.303,404.577 275.5,405.5 Z"/></g>
<g><path style="opacity:1" fill="#f7f7f7" d="M 124.5,409.5 C 127.833,409.5 131.167,409.5 134.5,409.5C 134.5,412.167 134.5,414.833 134.5,417.5C 131.167,417.5 127.833,417.5 124.5,417.5C 124.5,414.833 124.5,412.167 124.5,409.5 Z"/></g>
<g><path style="opacity:1" fill="#8a8788" d="M 408.5,407.5 C 409.167,407.5 409.833,407.5 410.5,407.5C 410.5,408.167 410.5,408.833 410.5,409.5C 406.827,411.318 402.827,411.984 398.5,411.5C 401.625,410.521 404.958,410.187 408.5,410.5C 408.5,409.5 408.5,408.5 408.5,407.5 Z"/></g>
<g><path style="opacity:1" fill="#fbfbfb" d="M 410.5,409.5 C 411.051,412.267 412.384,414.6 414.5,416.5C 413.086,417.624 411.586,418.624 410,419.5C 409.383,420.449 409.549,421.282 410.5,422C 406.514,422.499 402.514,422.666 398.5,422.5C 398.5,421.167 398.5,419.833 398.5,418.5C 402.167,418.5 405.833,418.5 409.5,418.5C 409.5,417.167 409.5,415.833 409.5,414.5C 405.833,414.5 402.167,414.5 398.5,414.5C 398.5,413.5 398.5,412.5 398.5,411.5C 402.827,411.984 406.827,411.318 410.5,409.5 Z"/></g>
<g><path style="opacity:1" fill="#393536" d="M 435.5,422.5 C 431.167,423.833 426.833,423.833 422.5,422.5C 420.877,421.221 419.21,419.887 417.5,418.5C 415.435,419.857 413.435,421.19 411.5,422.5C 407.167,423.833 402.833,423.833 398.5,422.5C 402.514,422.666 406.514,422.499 410.5,422C 409.549,421.282 409.383,420.449 410,419.5C 411.586,418.624 413.086,417.624 414.5,416.5C 412.384,414.6 411.051,412.267 410.5,409.5C 410.5,408.833 410.5,408.167 410.5,407.5C 416.993,404.922 416.66,402.922 409.5,401.5C 409.5,401.167 409.5,400.833 409.5,400.5C 410.482,399.859 411.482,399.193 412.5,398.5C 414.5,399.833 416.5,401.167 418.5,402.5C 419.815,400.684 421.315,399.017 423,397.5C 423.87,398.108 424.37,398.941 424.5,400C 423.711,401.626 422.711,403.126 421.5,404.5C 424.684,408.107 424.684,411.94 421.5,416C 422.289,417.626 423.289,419.126 424.5,420.5C 424.291,421.086 423.957,421.586 423.5,422C 427.486,422.499 431.486,422.666 435.5,422.5 Z"/></g>
<g><path style="opacity:1" fill="#e9e8e8" d="M 416.5,407.5 C 422.611,408.446 423.111,410.779 418,414.5C 416.365,413.274 414.865,411.941 413.5,410.5C 414.34,409.265 415.34,408.265 416.5,407.5 Z"/></g>
<g><path style="opacity:1" fill="#737071" d="M 225.5,408.5 C 226.434,409.568 226.768,410.901 226.5,412.5C 221.833,412.5 217.167,412.5 212.5,412.5C 212.5,414.833 212.5,417.167 212.5,419.5C 211.527,417.052 211.194,414.385 211.5,411.5C 216.167,411.5 220.833,411.5 225.5,411.5C 225.5,410.5 225.5,409.5 225.5,408.5 Z"/></g>
<g><path style="opacity:1" fill="#bcbbbb" d="M 77.5,412.5 C 71.1667,413.167 64.8333,413.833 58.5,414.5C 57.7109,414.217 57.0442,413.717 56.5,413C 63.4921,412.5 70.4921,412.334 77.5,412.5 Z"/></g>
<g><path style="opacity:1" fill="#838081" d="M 53.5,414.5 C 52.5166,418.298 52.1832,422.298 52.5,426.5C 51.1889,422.317 51.1889,417.984 52.5,413.5C 53.1067,413.624 53.44,413.957 53.5,414.5 Z"/></g>
<g><path style="opacity:1" fill="#363334" d="M 96.5,413.5 C 100.21,415.785 103.71,418.452 107,421.5C 107.5,423.667 106.667,424.5 104.5,424C 101.797,420.962 98.7974,418.295 95.5,416C 96.2524,415.329 96.5858,414.496 96.5,413.5 Z"/></g>
<g><path style="opacity:1" fill="#666364" d="M 177.5,414.5 C 175.631,415.165 173.631,415.831 171.5,416.5C 173.631,417.169 175.631,417.835 177.5,418.5C 175.167,418.5 172.833,418.5 170.5,418.5C 170.5,417.167 170.5,415.833 170.5,414.5C 172.833,414.5 175.167,414.5 177.5,414.5 Z"/></g>
<g><path style="opacity:1" fill="#7a7778" d="M 120.5,410.5 C 121.473,412.948 121.806,415.615 121.5,418.5C 117.167,418.5 112.833,418.5 108.5,418.5C 112.298,417.517 116.298,417.183 120.5,417.5C 120.5,415.167 120.5,412.833 120.5,410.5 Z"/></g>
<g><path style="opacity:1" fill="#747172" d="M 318.5,414.5 C 318.5,415.5 318.5,416.5 318.5,417.5C 325.687,417.175 332.687,417.509 339.5,418.5C 332.167,418.5 324.833,418.5 317.5,418.5C 317.232,416.901 317.566,415.568 318.5,414.5 Z"/></g>
<g><path style="opacity:1" fill="#7d7b7c" d="M 370.5,414.5 C 371.434,415.568 371.768,416.901 371.5,418.5C 363.981,418.175 356.648,418.508 349.5,419.5C 348.957,419.44 348.624,419.107 348.5,418.5C 355.803,417.503 363.137,417.169 370.5,417.5C 370.5,416.5 370.5,415.5 370.5,414.5 Z"/></g>
<g><path style="opacity:1" fill="#b0afaf" d="M 395.5,401.5 C 395.5,408.5 395.5,415.5 395.5,422.5C 394.167,422.5 392.833,422.5 391.5,422.5C 392.209,421.596 393.209,421.263 394.5,421.5C 394.176,414.646 394.509,407.979 395.5,401.5 Z"/></g>
<g><path style="opacity:1" fill="#848283" d="M 274.5,409.5 C 274.5,412.833 274.5,416.167 274.5,419.5C 281.5,419.5 288.5,419.5 295.5,419.5C 295.826,428.017 295.493,436.35 294.5,444.5C 294.5,436.5 294.5,428.5 294.5,420.5C 287.5,420.5 280.5,420.5 273.5,420.5C 273.185,416.629 273.518,412.962 274.5,409.5 Z"/></g>
<g><path style="opacity:1" fill="#eeeeee" d="M 422.5,422.5 C 418.833,422.5 415.167,422.5 411.5,422.5C 413.435,421.19 415.435,419.857 417.5,418.5C 419.21,419.887 420.877,421.221 422.5,422.5 Z"/></g>
<g><path style="opacity:1" fill="#7a7878" d="M 138.5,417.5 C 143.167,417.5 147.833,417.5 152.5,417.5C 152.5,418.833 152.5,420.167 152.5,421.5C 148.298,421.183 144.298,421.517 140.5,422.5C 139.957,422.44 139.624,422.107 139.5,421.5C 143.5,420.833 147.5,420.167 151.5,419.5C 147.018,418.833 142.684,418.166 138.5,417.5 Z"/></g>
<g><path style="opacity:1" fill="#f9f9f9" d="M 138.5,425.5 C 133.025,426.489 127.358,426.822 121.5,426.5C 122.595,422.607 125.261,420.94 129.5,421.5C 133.613,420.717 136.613,422.051 138.5,425.5 Z"/></g>
<g><path style="opacity:1" fill="#bab9b9" d="M 193.5,424.5 C 196.287,423.523 199.287,423.19 202.5,423.5C 202.806,426.385 202.473,429.052 201.5,431.5C 201.5,429.167 201.5,426.833 201.5,424.5C 198.833,424.5 196.167,424.5 193.5,424.5 Z"/></g>
<g><path style="opacity:1" fill="#9b999a" d="M 269.5,409.5 C 270.482,412.962 270.815,416.629 270.5,420.5C 263.833,420.5 257.167,420.5 250.5,420.5C 250.5,429.833 250.5,439.167 250.5,448.5C 249.506,439.014 249.173,429.348 249.5,419.5C 256.167,419.5 262.833,419.5 269.5,419.5C 269.5,416.167 269.5,412.833 269.5,409.5 Z"/></g>
<g><path style="opacity:1" fill="#726f70" d="M 138.5,425.5 C 139.043,425.56 139.376,425.893 139.5,426.5C 133.346,427.817 127.346,427.817 121.5,426.5C 127.358,426.822 133.025,426.489 138.5,425.5 Z"/></g>
<g><path style="opacity:1" fill="#696667" d="M 63.5,430.5 C 54.8333,430.5 46.1667,430.5 37.5,430.5C 37.5,432.833 37.5,435.167 37.5,437.5C 36.5269,435.052 36.1936,432.385 36.5,429.5C 45.6822,429.173 54.6822,429.507 63.5,430.5 Z"/></g>
<g><path style="opacity:1" fill="#373334" d="M 105.5,428.5 C 108.244,429.072 109.077,430.738 108,433.5C 105.316,440.381 102.149,447.048 98.5,453.5C 96.6163,452.307 96.1163,450.641 97,448.5C 101.098,442.375 103.931,435.708 105.5,428.5 Z"/></g>
<g><path style="opacity:1" fill="#262223" d="M 444.5,439.5 C 444.5,440.5 444.5,441.5 444.5,442.5C 435.983,442.174 427.65,442.507 419.5,443.5C 419.784,446.777 419.451,449.943 418.5,453C 415.167,453.667 411.833,453.667 408.5,453C 407.269,451.817 407.269,450.651 408.5,449.5C 411.084,450.393 413.751,450.726 416.5,450.5C 416.326,448.139 415.993,445.806 415.5,443.5C 406.991,442.833 398.324,442.167 389.5,441.5C 397.807,440.502 406.14,440.169 414.5,440.5C 414.433,439.041 414.766,437.708 415.5,436.5C 418.167,435.833 420.833,435.167 423.5,434.5C 424.473,434.013 425.473,433.513 426.5,433C 417.506,432.5 408.506,432.334 399.5,432.5C 399.5,431.5 399.5,430.5 399.5,429.5C 411.167,429.5 422.833,429.5 434.5,429.5C 434.719,430.675 434.386,431.675 433.5,432.5C 428.733,435.217 423.733,437.384 418.5,439C 427.16,439.5 435.827,439.666 444.5,439.5 Z"/></g>
<g><path style="opacity:1" fill="#fefffe" d="M 63.5,430.5 C 63.5,432.833 63.5,435.167 63.5,437.5C 54.8333,437.5 46.1667,437.5 37.5,437.5C 37.5,435.167 37.5,432.833 37.5,430.5C 46.1667,430.5 54.8333,430.5 63.5,430.5 Z"/></g>
<g><path style="opacity:1" fill="#aaa9a9" d="M 117.5,431.5 C 117.56,430.957 117.893,430.624 118.5,430.5C 119.496,436.463 119.829,442.463 119.5,448.5C 118.833,442.833 118.167,437.167 117.5,431.5 Z"/></g>
<g><path style="opacity:1" fill="#fcfcfc" d="M 122.5,430.5 C 127.167,430.5 131.833,430.5 136.5,430.5C 136.5,432.5 136.5,434.5 136.5,436.5C 131.833,436.5 127.167,436.5 122.5,436.5C 122.5,434.5 122.5,432.5 122.5,430.5 Z"/></g>
<g><path style="opacity:1" fill="#a9a8a8" d="M 399.5,432.5 C 408.506,432.334 417.506,432.5 426.5,433C 425.473,433.513 424.473,434.013 423.5,434.5C 415.5,433.833 407.5,433.167 399.5,432.5 Z"/></g>
<g><path style="opacity:1" fill="#565354" d="M 63.5,430.5 C 64.4731,432.948 64.8064,435.615 64.5,438.5C 55.3178,438.827 46.3178,438.493 37.5,437.5C 46.1667,437.5 54.8333,437.5 63.5,437.5C 63.5,435.167 63.5,432.833 63.5,430.5 Z"/></g>
<g><path style="opacity:1" fill="#737071" d="M 415.5,436.5 C 414.766,437.708 414.433,439.041 414.5,440.5C 406.14,440.169 397.807,440.502 389.5,441.5C 398.324,442.167 406.991,442.833 415.5,443.5C 406.5,443.5 397.5,443.5 388.5,443.5C 388.5,442.167 388.5,440.833 388.5,439.5C 396.833,439.5 405.167,439.5 413.5,439.5C 413.285,437.821 413.952,436.821 415.5,436.5 Z"/></g>
<g><path style="opacity:1" fill="#979596" d="M 63.5,441.5 C 54.8333,441.5 46.1667,441.5 37.5,441.5C 37.5,443.833 37.5,446.167 37.5,448.5C 46.1667,448.5 54.8333,448.5 63.5,448.5C 54.6822,449.493 45.6822,449.827 36.5,449.5C 36.5,446.5 36.5,443.5 36.5,440.5C 45.6822,440.173 54.6822,440.507 63.5,441.5 Z"/></g>
<g><path style="opacity:1" fill="#fefffe" d="M 63.5,441.5 C 63.5,443.833 63.5,446.167 63.5,448.5C 54.8333,448.5 46.1667,448.5 37.5,448.5C 37.5,446.167 37.5,443.833 37.5,441.5C 46.1667,441.5 54.8333,441.5 63.5,441.5 Z"/></g>
<g><path style="opacity:1" fill="#797677" d="M 444.5,439.5 C 445.434,440.568 445.768,441.901 445.5,443.5C 436.833,443.5 428.167,443.5 419.5,443.5C 427.65,442.507 435.983,442.174 444.5,442.5C 444.5,441.5 444.5,440.5 444.5,439.5 Z"/></g>
<g><path style="opacity:1" fill="#2b2728" d="M 374.5,473.5 C 376.5,473.5 378.5,473.5 380.5,473.5C 380.5,474.833 380.5,476.167 380.5,477.5C 378.208,477.244 376.041,477.577 374,478.5C 373.502,481.817 373.335,485.15 373.5,488.5C 375.5,488.5 377.5,488.5 379.5,488.5C 379.5,489.5 379.5,490.5 379.5,491.5C 377.5,491.5 375.5,491.5 373.5,491.5C 373.5,498.167 373.5,504.833 373.5,511.5C 372.167,511.5 370.833,511.5 369.5,511.5C 369.5,504.833 369.5,498.167 369.5,491.5C 367.833,491.5 366.167,491.5 364.5,491.5C 364.5,490.5 364.5,489.5 364.5,488.5C 366.167,488.5 367.833,488.5 369.5,488.5C 369.335,485.15 369.502,481.817 370,478.5C 371.025,476.313 372.525,474.646 374.5,473.5 Z"/></g>
<g><path style="opacity:1" fill="#2d292a" d="M 35.5,475.5 C 42.0092,474.837 47.6759,476.67 52.5,481C 51.4214,481.956 50.2547,482.789 49,483.5C 39.4575,476.921 32.1241,478.921 27,489.5C 25.0664,503.175 30.8997,509.342 44.5,508C 46.6641,507.086 48.6641,505.919 50.5,504.5C 52.9572,506.001 52.9572,507.668 50.5,509.5C 37.0943,515.708 27.5943,512.041 22,498.5C 20.8558,487.448 25.3558,479.781 35.5,475.5 Z"/></g>
<g><path style="opacity:1" fill="#2d2a2b" d="M 58.5,476.5 C 62.35,476.701 63.35,478.534 61.5,482C 57.5369,482.118 56.5369,480.284 58.5,476.5 Z"/></g>
<g><path style="opacity:1" fill="#312e2f" d="M 120.5,476.5 C 121.833,476.5 123.167,476.5 124.5,476.5C 124.334,485.173 124.5,493.84 125,502.5C 128.293,508.612 133.127,510.112 139.5,507C 140.893,505.829 141.727,504.329 142,502.5C 142.5,493.84 142.666,485.173 142.5,476.5C 144.167,476.5 145.833,476.5 147.5,476.5C 147.917,485.915 147.417,495.248 146,504.5C 143.625,510.194 139.291,512.861 133,512.5C 127.789,512.627 124.122,510.293 122,505.5C 120.609,495.9 120.109,486.233 120.5,476.5 Z"/></g>
<g><path style="opacity:1" fill="#282425" d="M 178.5,476.5 C 181.91,476.384 183.244,478.05 182.5,481.5C 178.065,482.078 176.732,480.411 178.5,476.5 Z"/></g>
<g><path style="opacity:1" fill="#343031" d="M 276.5,476.5 C 280.138,475.737 281.638,477.07 281,480.5C 276.415,482.413 274.915,481.079 276.5,476.5 Z"/></g>
<g><path style="opacity:1" fill="#2c2829" d="M 399.5,490.5 C 405.645,491.49 411.978,491.823 418.5,491.5C 418.5,486.5 418.5,481.5 418.5,476.5C 419.833,476.5 421.167,476.5 422.5,476.5C 422.5,488.167 422.5,499.833 422.5,511.5C 421.167,511.5 419.833,511.5 418.5,511.5C 418.5,506.167 418.5,500.833 418.5,495.5C 412.167,495.5 405.833,495.5 399.5,495.5C 399.5,500.833 399.5,506.167 399.5,511.5C 398.167,511.5 396.833,511.5 395.5,511.5C 395.5,499.833 395.5,488.167 395.5,476.5C 396.833,476.5 398.167,476.5 399.5,476.5C 399.5,481.167 399.5,485.833 399.5,490.5 Z"/></g>
<g><path style="opacity:1" fill="#2c2829" d="M 524.5,476.5 C 525.833,476.5 527.167,476.5 528.5,476.5C 528.173,481.544 528.506,486.544 529.5,491.5C 534.652,486.848 539.652,482.015 544.5,477C 546.5,476.333 548.5,476.333 550.5,477C 544.932,481.946 539.599,487.112 534.5,492.5C 540.283,498.572 545.95,504.738 551.5,511C 549.5,511.667 547.5,511.667 545.5,511C 540.366,504.865 534.866,499.031 529,493.5C 528.501,499.491 528.334,505.491 528.5,511.5C 527.167,511.5 525.833,511.5 524.5,511.5C 524.5,499.833 524.5,488.167 524.5,476.5 Z"/></g>
<g><path style="opacity:1" fill="#2c2829" d="M 70.5,481.5 C 71.8333,481.5 73.1667,481.5 74.5,481.5C 74.5,483.833 74.5,486.167 74.5,488.5C 76.8333,488.5 79.1667,488.5 81.5,488.5C 81.5,489.5 81.5,490.5 81.5,491.5C 79.1667,491.5 76.8333,491.5 74.5,491.5C 74.334,496.844 74.5006,502.177 75,507.5C 77.0408,508.423 79.2075,508.756 81.5,508.5C 81.6399,510.124 80.9733,511.29 79.5,512C 76.7431,512.782 74.2431,512.282 72,510.5C 70.5845,504.285 70.0845,497.952 70.5,491.5C 68.8333,491.5 67.1667,491.5 65.5,491.5C 65.5,490.5 65.5,489.5 65.5,488.5C 67.1667,488.5 68.8333,488.5 70.5,488.5C 70.5,486.167 70.5,483.833 70.5,481.5 Z"/></g>
<g><path style="opacity:1" fill="#2e2a2b" d="M 290.5,481.5 C 291.5,481.5 292.5,481.5 293.5,481.5C 293.5,483.833 293.5,486.167 293.5,488.5C 296.167,488.5 298.833,488.5 301.5,488.5C 301.5,489.5 301.5,490.5 301.5,491.5C 299.167,491.5 296.833,491.5 294.5,491.5C 294.334,496.844 294.501,502.177 295,507.5C 297.041,508.423 299.208,508.756 301.5,508.5C 301.64,510.124 300.973,511.29 299.5,512C 296.653,512.944 294.153,512.444 292,510.5C 290.584,504.285 290.084,497.952 290.5,491.5C 288.833,491.5 287.167,491.5 285.5,491.5C 285.5,490.5 285.5,489.5 285.5,488.5C 287.167,488.5 288.833,488.5 290.5,488.5C 290.5,486.167 290.5,483.833 290.5,481.5 Z"/></g>
<g><path style="opacity:1" fill="#221f1f" d="M 58.5,488.5 C 59.5,488.5 60.5,488.5 61.5,488.5C 61.5,496.167 61.5,503.833 61.5,511.5C 60.5,511.5 59.5,511.5 58.5,511.5C 58.5,503.833 58.5,496.167 58.5,488.5 Z"/></g>
<g><path style="opacity:1" fill="#302c2d" d="M 86.5,523.5 C 86.5,522.5 86.5,521.5 86.5,520.5C 88.099,520.768 89.4324,520.434 90.5,519.5C 92.8685,517.263 94.2019,514.429 94.5,511C 91.3513,503.752 88.3513,496.419 85.5,489C 87.1341,488.506 88.8008,488.34 90.5,488.5C 92.0818,494.34 94.2484,500.007 97,505.5C 99.0507,500.141 101.051,494.807 103,489.5C 104.494,488.253 105.994,488.253 107.5,489.5C 103.581,499.416 99.7479,509.416 96,519.5C 93.8055,522.963 90.6388,524.296 86.5,523.5 Z"/></g>
<g><path style="opacity:1" fill="#2e2a2b" d="M 160.5,487.5 C 165.347,486.84 169.181,488.507 172,492.5C 172.5,498.825 172.666,505.158 172.5,511.5C 171.167,511.5 169.833,511.5 168.5,511.5C 168.666,505.491 168.499,499.491 168,493.5C 165.032,491.009 161.865,490.843 158.5,493C 157.874,493.75 157.374,494.584 157,495.5C 156.501,500.823 156.334,506.156 156.5,511.5C 155.167,511.5 153.833,511.5 152.5,511.5C 152.5,503.833 152.5,496.167 152.5,488.5C 153.5,488.5 154.5,488.5 155.5,488.5C 155.351,489.552 155.517,490.552 156,491.5C 157.397,489.93 158.897,488.596 160.5,487.5 Z"/></g>
<g><path style="opacity:1" fill="#343031" d="M 178.5,488.5 C 179.833,488.5 181.167,488.5 182.5,488.5C 182.5,496.167 182.5,503.833 182.5,511.5C 181.167,511.5 179.833,511.5 178.5,511.5C 178.5,503.833 178.5,496.167 178.5,488.5 Z"/></g>
<g><path style="opacity:1" fill="#312d2e" d="M 187.5,488.5 C 189.144,488.286 190.644,488.62 192,489.5C 194.147,494.95 196.48,500.284 199,505.5C 201.051,500.141 203.051,494.807 205,489.5C 206.388,488.446 207.888,488.28 209.5,489C 206.684,496.105 203.85,503.272 201,510.5C 199.301,511.406 197.467,511.739 195.5,511.5C 193.237,503.712 190.57,496.045 187.5,488.5 Z"/></g>
<g><path style="opacity:1" fill="#332f30" d="M 220.5,487.5 C 229.699,487.698 234.033,492.365 233.5,501.5C 227.5,501.5 221.5,501.5 215.5,501.5C 216.73,507.536 220.397,509.702 226.5,508C 227.966,507.365 229.3,506.531 230.5,505.5C 233.079,506.888 233.079,508.388 230.5,510C 221.602,514.913 215.102,512.746 211,503.5C 209.835,495.485 213.002,490.152 220.5,487.5 Z"/></g>
<g><path style="opacity:1" fill="#302c2d" d="M 247.5,487.5 C 248.833,487.5 250.167,487.5 251.5,487.5C 251.5,488.833 251.5,490.167 251.5,491.5C 247.727,490.822 244.894,492.156 243,495.5C 242.501,500.823 242.334,506.156 242.5,511.5C 241.167,511.5 239.833,511.5 238.5,511.5C 238.5,503.833 238.5,496.167 238.5,488.5C 239.833,488.5 241.167,488.5 242.5,488.5C 242.351,489.552 242.517,490.552 243,491.5C 244.397,489.93 245.897,488.596 247.5,487.5 Z"/></g>
<g><path style="opacity:1" fill="#312d2e" d="M 259.5,487.5 C 264.437,486.603 268.437,488.103 271.5,492C 269.726,493.756 268.059,493.756 266.5,492C 263.107,490.832 260.441,491.666 258.5,494.5C 258.977,495.478 259.643,496.311 260.5,497C 265.012,497.499 268.845,499.333 272,502.5C 272.768,507.086 270.934,510.253 266.5,512C 261.633,513.407 257.633,512.24 254.5,508.5C 255.936,504.864 257.603,504.697 259.5,508C 261.833,508.667 264.167,508.667 266.5,508C 267.935,505.733 267.602,503.733 265.5,502C 254.637,500.722 252.637,495.889 259.5,487.5 Z"/></g>
<g><path style="opacity:1" fill="#2a2627" d="M 276.5,488.5 C 277.833,488.5 279.167,488.5 280.5,488.5C 280.5,496.167 280.5,503.833 280.5,511.5C 279.167,511.5 277.833,511.5 276.5,511.5C 276.5,503.833 276.5,496.167 276.5,488.5 Z"/></g>
<g><path style="opacity:1" fill="#332f30" d="M 304.5,488.5 C 306.167,488.5 307.833,488.5 309.5,488.5C 311.11,494.386 313.277,500.053 316,505.5C 318,500.167 320,494.833 322,489.5C 323.356,488.62 324.856,488.286 326.5,488.5C 322.438,499.182 318.272,509.848 314,520.5C 311.454,523.186 308.287,524.186 304.5,523.5C 304.5,522.167 304.5,520.833 304.5,519.5C 306.527,519.662 308.527,519.495 310.5,519C 311.954,516.527 312.954,513.861 313.5,511C 310.579,503.391 307.579,495.891 304.5,488.5 Z"/></g>
<g><path style="opacity:1" fill="#343031" d="M 346.5,487.5 C 360.261,488.037 364.761,494.704 360,507.5C 351.048,515.078 343.714,513.745 338,503.5C 336.907,496.016 339.741,490.683 346.5,487.5 Z"/></g>
<g><path style="opacity:1" fill="#2f2b2c" d="M 435.5,487.5 C 448.55,487.705 453.383,494.038 450,506.5C 441.194,515.289 433.86,514.289 428,503.5C 426.27,496.093 428.77,490.76 435.5,487.5 Z"/></g>
<g><path style="opacity:1" fill="#2b2728" d="M 465.5,487.5 C 469.803,486.796 473.303,488.13 476,491.5C 477.42,498.05 477.92,504.716 477.5,511.5C 476.167,511.5 474.833,511.5 473.5,511.5C 473.666,505.824 473.499,500.157 473,494.5C 468.181,490.081 464.181,490.748 461,496.5C 460.501,501.489 460.334,506.489 460.5,511.5C 459.5,511.5 458.5,511.5 457.5,511.5C 457.5,503.833 457.5,496.167 457.5,488.5C 458.5,488.5 459.5,488.5 460.5,488.5C 460.351,489.552 460.517,490.552 461,491.5C 462.397,489.93 463.897,488.596 465.5,487.5 Z"/></g>
<g><path style="opacity:1" fill="#2c2829" d="M 491.5,487.5 C 495.803,486.796 499.303,488.13 502,491.5C 502.483,490.552 502.649,489.552 502.5,488.5C 503.833,488.5 505.167,488.5 506.5,488.5C 506.666,497.506 506.5,506.506 506,515.5C 504.202,521.137 500.368,523.803 494.5,523.5C 489.838,523.669 485.838,522.169 482.5,519C 483.354,517.978 484.354,517.145 485.5,516.5C 490.06,521.148 495.06,521.648 500.5,518C 502.244,515.037 502.744,511.871 502,508.5C 498.319,511.36 494.152,512.193 489.5,511C 483.251,507.277 481.085,501.777 483,494.5C 484.851,490.843 487.684,488.51 491.5,487.5 Z"/></g>
<g><path style="opacity:1" fill="#312d2e" d="M 560.5,487.5 C 571.105,487.03 576.272,492.03 576,502.5C 572.226,512.138 565.726,514.638 556.5,510C 548.966,500.899 550.3,493.399 560.5,487.5 Z"/></g>
<g><path style="opacity:1" fill="#2e2a2b" d="M 589.5,487.5 C 594.247,487.136 598.081,488.802 601,492.5C 601.5,498.825 601.666,505.158 601.5,511.5C 600.167,511.5 598.833,511.5 597.5,511.5C 597.666,505.824 597.499,500.157 597,494.5C 596.242,492.09 594.575,491.09 592,491.5C 588.94,491.225 586.94,492.558 586,495.5C 585.501,500.823 585.334,506.156 585.5,511.5C 584.167,511.5 582.833,511.5 581.5,511.5C 581.5,503.833 581.5,496.167 581.5,488.5C 582.5,488.5 583.5,488.5 584.5,488.5C 584.281,489.675 584.614,490.675 585.5,491.5C 586.549,489.784 587.882,488.451 589.5,487.5 Z"/></g>
<g><path style="opacity:1" fill="#302c2d" d="M 614.5,487.5 C 619.901,486.342 624.067,488.009 627,492.5C 627.49,491.207 627.657,489.873 627.5,488.5C 628.833,488.5 630.167,488.5 631.5,488.5C 631.666,497.173 631.5,505.84 631,514.5C 628.785,520.876 624.285,523.876 617.5,523.5C 614.205,523.705 611.205,522.872 608.5,521C 607.07,519.12 607.404,517.62 609.5,516.5C 615.079,521.793 620.579,521.793 626,516.5C 627.601,513.906 627.767,511.239 626.5,508.5C 613.075,514.861 606.575,510.528 607,495.5C 609.028,492.308 611.528,489.641 614.5,487.5 Z"/></g>
<g><path style="opacity:1" fill="#bebdbd" d="M 418.5,476.5 C 418.5,481.5 418.5,486.5 418.5,491.5C 411.978,491.823 405.645,491.49 399.5,490.5C 405.5,490.5 411.5,490.5 417.5,490.5C 417.181,485.637 417.514,480.97 418.5,476.5 Z"/></g>
<g><path style="opacity:1" fill="#f4f4f4" d="M 219.5,491.5 C 225.119,490.063 228.452,492.063 229.5,497.5C 224.833,497.5 220.167,497.5 215.5,497.5C 215.657,494.682 216.991,492.682 219.5,491.5 Z"/></g>
<g><path style="opacity:1" fill="#f8f8f8" d="M 347.5,491.5 C 355.495,490.997 359.328,494.664 359,502.5C 354.392,509.54 349.059,510.207 343,504.5C 341.243,498.825 342.743,494.492 347.5,491.5 Z"/></g>
<g><path style="opacity:1" fill="#f7f7f7" d="M 436.5,491.5 C 445.568,490.6 449.401,494.6 448,503.5C 445.103,508.155 440.937,509.655 435.5,508C 429.945,502.078 430.278,496.578 436.5,491.5 Z"/></g>
<g><path style="opacity:1" fill="#f6f5f5" d="M 490.5,491.5 C 499.711,490.542 503.545,494.542 502,503.5C 498.987,508.535 494.82,509.702 489.5,507C 484.261,501.525 484.594,496.358 490.5,491.5 Z"/></g>
<g><path style="opacity:1" fill="#f5f5f5" d="M 561.5,491.5 C 570.801,491.292 574.301,495.625 572,504.5C 566.236,510.102 560.903,509.769 556,503.5C 554.873,498.089 556.707,494.089 561.5,491.5 Z"/></g>
<g><path style="opacity:1" fill="#f5f4f4" d="M 615.5,491.5 C 623.985,491.15 627.818,495.15 627,503.5C 621.538,510.089 616.205,510.089 611,503.5C 609.474,498.239 610.974,494.239 615.5,491.5 Z"/></g>
<g><path style="opacity:1" fill="#848182" d="M 90.5,519.5 C 89.4324,520.434 88.099,520.768 86.5,520.5C 86.5,521.5 86.5,522.5 86.5,523.5C 85.5655,522.432 85.2322,521.099 85.5,519.5C 87.1667,519.5 88.8333,519.5 90.5,519.5 Z"/></g>
</svg>
