<?xml version="1.0" encoding="UTF-8"?>
<!DOCTYPE svg PUBLIC "-//W3C//DTD SVG 1.1//EN" "http://www.w3.org/Graphics/SVG/1.1/DTD/svg11.dtd">
<svg xmlns="http://www.w3.org/2000/svg" version="1.1" width="781px" height="781px" style="shape-rendering:geometricPrecision; text-rendering:geometricPrecision; image-rendering:optimizeQuality; fill-rule:evenodd; clip-rule:evenodd" xmlns:xlink="http://www.w3.org/1999/xlink">
<g><path style="opacity:0.997" fill="#fefefe" d="M 362.5,-0.5 C 380.833,-0.5 399.167,-0.5 417.5,-0.5C 554.752,13.3505 658.918,79.0171 730,196.5C 758.933,248.249 775.766,303.583 780.5,362.5C 780.5,380.833 780.5,399.167 780.5,417.5C 766.65,554.752 700.983,658.918 583.5,730C 531.751,758.933 476.417,775.766 417.5,780.5C 399.167,780.5 380.833,780.5 362.5,780.5C 225.248,766.65 121.082,700.983 50,583.5C 21.0673,531.751 4.23399,476.417 -0.5,417.5C -0.5,399.167 -0.5,380.833 -0.5,362.5C 13.3505,225.248 79.0171,121.082 196.5,50C 248.249,21.0673 303.583,4.23399 362.5,-0.5 Z"/></g>
<g><path style="opacity:1" fill="#f8cedc" d="M 690.5,169.5 C 689.351,169.791 688.684,170.624 688.5,172C 686.714,179.095 685.381,186.262 684.5,193.5C 683.883,193.611 683.383,193.944 683,194.5C 676.198,188.699 669.698,182.532 663.5,176C 661.866,175.506 660.199,175.34 658.5,175.5C 668.081,172.369 677.914,169.703 688,167.5C 689.376,167.684 690.209,168.351 690.5,169.5 Z"/></g>
<g><path style="opacity:1" fill="#f2bdd0" d="M 658.5,175.5 C 660.199,175.34 661.866,175.506 663.5,176C 669.698,182.532 676.198,188.699 683,194.5C 683.383,193.944 683.883,193.611 684.5,193.5C 683.07,198.743 682.07,204.076 681.5,209.5C 680.883,209.611 680.383,209.944 680,210.5C 669.167,200.333 658.333,190.167 647.5,180C 646.207,179.51 644.873,179.343 643.5,179.5C 648.191,177.409 653.191,176.076 658.5,175.5 Z"/></g>
<g><path style="opacity:1" fill="#ecaac4" d="M 643.5,179.5 C 644.873,179.343 646.207,179.51 647.5,180C 658.333,190.167 669.167,200.333 680,210.5C 680.383,209.944 680.883,209.611 681.5,209.5C 681.106,215.796 679.773,221.796 677.5,227.5C 662.036,213.204 646.703,198.704 631.5,184C 630.207,183.51 628.873,183.343 627.5,183.5C 632.573,181.565 637.906,180.232 643.5,179.5 Z"/></g>
<g><path style="opacity:1" fill="#e79ab9" d="M 627.5,183.5 C 628.873,183.343 630.207,183.51 631.5,184C 646.703,198.704 662.036,213.204 677.5,227.5C 676.963,232.186 676.296,236.853 675.5,241.5C 670.462,234.953 664.795,228.786 658.5,223C 645.833,211 633.167,199 620.5,187C 619.207,186.51 617.873,186.343 616.5,186.5C 619.961,185.134 623.627,184.134 627.5,183.5 Z"/></g>
<g><path style="opacity:1" fill="#e38eb1" d="M 616.5,186.5 C 617.873,186.343 619.207,186.51 620.5,187C 633.167,199 645.833,211 658.5,223C 664.795,228.786 670.462,234.953 675.5,241.5C 675.795,243.735 675.461,245.735 674.5,247.5C 673.883,247.611 673.383,247.944 673,248.5C 651.864,229.032 631.031,209.198 610.5,189C 609.906,188.536 609.239,188.369 608.5,188.5C 610.905,187.232 613.572,186.565 616.5,186.5 Z"/></g>
<g><path style="opacity:1" fill="#df83a9" d="M 608.5,188.5 C 609.239,188.369 609.906,188.536 610.5,189C 631.031,209.198 651.864,229.032 673,248.5C 673.383,247.944 673.883,247.611 674.5,247.5C 674.583,251.335 673.917,255.002 672.5,258.5C 671.71,259.609 671.21,260.942 671,262.5C 667.535,258.033 663.702,253.867 659.5,250C 638.662,230.661 617.995,211.161 597.5,191.5C 600.854,189.742 604.521,188.742 608.5,188.5 Z"/></g>
<g><path style="opacity:1" fill="#b92a6a" d="M 690.5,169.5 C 694.473,183.919 698.139,198.419 701.5,213C 698.159,230.864 693.825,248.364 688.5,265.5C 688.389,264.883 688.056,264.383 687.5,264C 682.387,263.145 677.387,261.979 672.5,260.5C 672.5,259.833 672.5,259.167 672.5,258.5C 673.917,255.002 674.583,251.335 674.5,247.5C 675.461,245.735 675.795,243.735 675.5,241.5C 676.296,236.853 676.963,232.186 677.5,227.5C 679.773,221.796 681.106,215.796 681.5,209.5C 682.07,204.076 683.07,198.743 684.5,193.5C 685.381,186.262 686.714,179.095 688.5,172C 688.684,170.624 689.351,169.791 690.5,169.5 Z"/></g>
<g><path style="opacity:1" fill="#db75a0" d="M 597.5,191.5 C 617.995,211.161 638.662,230.661 659.5,250C 663.702,253.867 667.535,258.033 671,262.5C 671.21,260.942 671.71,259.609 672.5,258.5C 672.5,259.167 672.5,259.833 672.5,260.5C 672.084,263.583 671.417,266.583 670.5,269.5C 669.71,270.609 669.21,271.942 669,273.5C 641.297,246.962 613.464,220.629 585.5,194.5C 589.239,192.898 593.239,191.898 597.5,191.5 Z"/></g>
<g><path style="opacity:1" fill="#d66998" d="M 585.5,194.5 C 613.464,220.629 641.297,246.962 669,273.5C 669.21,271.942 669.71,270.609 670.5,269.5C 670.341,273.291 669.675,276.958 668.5,280.5C 667.71,281.609 667.21,282.942 667,284.5C 664.616,280.107 661.449,276.274 657.5,273C 631.167,248 604.833,223 578.5,198C 577.207,197.51 575.873,197.343 574.5,197.5C 577.854,195.742 581.521,194.742 585.5,194.5 Z"/></g>
<g><path style="opacity:1" fill="#d36092" d="M 574.5,197.5 C 575.873,197.343 577.207,197.51 578.5,198C 604.833,223 631.167,248 657.5,273C 661.449,276.274 664.616,280.107 667,284.5C 667.21,282.942 667.71,281.609 668.5,280.5C 668.784,282.415 668.451,284.081 667.5,285.5C 666.839,286.718 666.172,288.051 665.5,289.5C 633.38,260.216 601.714,230.382 570.5,200C 569.207,199.51 567.873,199.343 566.5,199.5C 568.905,198.232 571.572,197.565 574.5,197.5 Z"/></g>
<g><path style="opacity:1" fill="#d0558c" d="M 566.5,199.5 C 567.873,199.343 569.207,199.51 570.5,200C 601.714,230.382 633.38,260.216 665.5,289.5C 666.172,288.051 666.839,286.718 667.5,285.5C 667.341,289.291 666.675,292.958 665.5,296.5C 664.71,297.609 664.21,298.942 664,300.5C 660.608,295.1 656.441,290.267 651.5,286C 621.531,258.366 591.865,230.366 562.5,202C 561.207,201.51 559.873,201.343 558.5,201.5C 560.905,200.232 563.572,199.565 566.5,199.5 Z"/></g>
<g><path style="opacity:1" fill="#cc4a84" d="M 558.5,201.5 C 559.873,201.343 561.207,201.51 562.5,202C 591.865,230.366 621.531,258.366 651.5,286C 656.441,290.267 660.608,295.1 664,300.5C 664.21,298.942 664.71,297.609 665.5,296.5C 665.159,300.709 664.492,304.875 663.5,309C 663.316,310.376 662.649,311.209 661.5,311.5C 655.762,304.256 649.428,297.423 642.5,291C 611.864,262.699 581.531,234.032 551.5,205C 550.207,204.51 548.873,204.343 547.5,204.5C 550.854,202.742 554.521,201.742 558.5,201.5 Z"/></g>
<g><path style="opacity:1" fill="#c83e7c" d="M 547.5,204.5 C 548.873,204.343 550.207,204.51 551.5,205C 581.531,234.032 611.864,262.699 642.5,291C 649.428,297.423 655.762,304.256 661.5,311.5C 661.829,314.228 661.163,316.562 659.5,318.5C 620.698,281.2 581.698,244.033 542.5,207C 541.552,206.517 540.552,206.351 539.5,206.5C 541.905,205.232 544.572,204.565 547.5,204.5 Z"/></g>
<g><path style="opacity:1" fill="#c53576" d="M 539.5,206.5 C 540.552,206.351 541.552,206.517 542.5,207C 581.698,244.033 620.698,281.2 659.5,318.5C 659.552,320.903 659.219,323.236 658.5,325.5C 617.703,287.204 577.036,248.704 536.5,210C 534.975,208.991 533.308,208.491 531.5,208.5C 533.905,207.232 536.572,206.565 539.5,206.5 Z"/></g>
<g><path style="opacity:1" fill="#c22c70" d="M 531.5,208.5 C 533.308,208.491 534.975,208.991 536.5,210C 577.036,248.704 617.703,287.204 658.5,325.5C 658.198,328.373 657.531,331.039 656.5,333.5C 613.369,292.871 570.369,252.038 527.5,211C 526.552,210.517 525.552,210.351 524.5,210.5C 526.515,209.076 528.848,208.41 531.5,208.5 Z"/></g>
<g><path style="opacity:1" fill="#be2269" d="M 524.5,210.5 C 525.552,210.351 526.552,210.517 527.5,211C 570.369,252.038 613.369,292.871 656.5,333.5C 656.145,339.939 655.145,346.273 653.5,352.5C 604.933,306.722 556.6,260.722 508.5,214.5C 513.573,212.565 518.906,211.232 524.5,210.5 Z"/></g>
<g><path style="opacity:1" fill="#b82166" d="M 508.5,214.5 C 556.6,260.722 604.933,306.722 653.5,352.5C 652.381,359.217 651.047,365.884 649.5,372.5C 598.369,324.538 547.369,276.371 496.5,228C 493.553,225.564 491.22,222.731 489.5,219.5C 495.577,217.259 501.91,215.592 508.5,214.5 Z"/></g>
<g><path style="opacity:1" fill="#b22164" d="M 489.5,219.5 C 491.22,222.731 493.553,225.564 496.5,228C 547.369,276.371 598.369,324.538 649.5,372.5C 648.167,380.167 646.833,387.833 645.5,395.5C 628.69,379.601 611.69,363.934 594.5,348.5C 594.5,343.5 594.5,338.5 594.5,333.5C 590.633,333.242 586.966,333.908 583.5,335.5C 581.745,334.928 580.078,334.094 578.5,333C 541.271,296.935 503.938,261.102 466.5,225.5C 473.86,222.742 481.527,220.742 489.5,219.5 Z"/></g>
<g><path style="opacity:1" fill="#ab2161" d="M 466.5,225.5 C 503.938,261.102 541.271,296.935 578.5,333C 580.078,334.094 581.745,334.928 583.5,335.5C 582.752,337.332 581.752,338.999 580.5,340.5C 578.969,345.25 578.302,350.25 578.5,355.5C 533.889,314.558 489.889,272.892 446.5,230.5C 452.989,228.211 459.655,226.545 466.5,225.5 Z"/></g>
<g><path style="opacity:1" fill="#a4225e" d="M 446.5,230.5 C 489.889,272.892 533.889,314.558 578.5,355.5C 578.5,356.5 578.5,357.5 578.5,358.5C 577.492,371.953 575.825,385.286 573.5,398.5C 559.994,387.213 546.994,375.213 534.5,362.5C 533.534,360.604 533.201,358.604 533.5,356.5C 533.354,348.804 533.687,341.138 534.5,333.5C 532.369,332.686 530.036,332.186 527.5,332C 496.469,301.968 465.136,272.301 433.5,243C 430.882,240.894 428.882,238.394 427.5,235.5C 433.606,233.389 439.939,231.722 446.5,230.5 Z"/></g>
<g><path style="opacity:1" fill="#a0235d" d="M 427.5,235.5 C 428.882,238.394 430.882,240.894 433.5,243C 465.136,272.301 496.469,301.968 527.5,332C 530.036,332.186 532.369,332.686 534.5,333.5C 524.833,333.5 515.167,333.5 505.5,333.5C 501.06,330.237 496.727,326.737 492.5,323C 464.167,296 435.833,269 407.5,242C 408.056,241.617 408.389,241.117 408.5,240.5C 414.606,238.389 420.939,236.722 427.5,235.5 Z"/></g>
<g><path style="opacity:1" fill="#98235a" d="M 408.5,240.5 C 408.389,241.117 408.056,241.617 407.5,242C 435.833,269 464.167,296 492.5,323C 496.727,326.737 501.06,330.237 505.5,333.5C 505.5,337.167 505.5,340.833 505.5,344.5C 508.833,344.5 512.167,344.5 515.5,344.5C 515.213,357.609 514.213,370.609 512.5,383.5C 511.683,385.969 511.183,388.635 511,391.5C 504.285,384.283 497.118,377.616 489.5,371.5C 488.817,371.863 488.15,372.196 487.5,372.5C 491.917,363.997 496.583,355.664 501.5,347.5C 502.404,346.791 502.737,345.791 502.5,344.5C 499.287,344.19 496.287,344.523 493.5,345.5C 491.784,345.629 490.117,345.962 488.5,346.5C 454.005,313.505 419.338,280.672 384.5,248C 385.056,247.617 385.389,247.117 385.5,246.5C 392.946,244.054 400.613,242.054 408.5,240.5 Z"/></g>
<g><path style="opacity:1" fill="#922056" d="M 385.5,246.5 C 385.389,247.117 385.056,247.617 384.5,248C 419.338,280.672 454.005,313.505 488.5,346.5C 484.096,349.574 480.763,353.574 478.5,358.5C 475.732,356.913 473.065,355.08 470.5,353C 435.803,319.302 400.803,285.968 365.5,253C 366.056,252.617 366.389,252.117 366.5,251.5C 372.648,249.465 378.982,247.798 385.5,246.5 Z"/></g>
<g><path style="opacity:1" fill="#8b2154" d="M 366.5,251.5 C 366.389,252.117 366.056,252.617 365.5,253C 400.803,285.968 435.803,319.302 470.5,353C 473.065,355.08 475.732,356.913 478.5,358.5C 471.113,372.269 463.446,385.936 455.5,399.5C 449.043,382.012 443.043,364.345 437.5,346.5C 432.944,344.558 427.944,343.892 422.5,344.5C 393.062,316.899 363.729,289.065 334.5,261C 335.056,260.617 335.389,260.117 335.5,259.5C 345.614,256.387 355.947,253.721 366.5,251.5 Z"/></g>
<g><path style="opacity:1" fill="#812150" d="M 335.5,259.5 C 335.389,260.117 335.056,260.617 334.5,261C 363.729,289.065 393.062,316.899 422.5,344.5C 419.615,344.194 416.948,344.527 414.5,345.5C 413.517,349.298 413.183,353.298 413.5,357.5C 416.5,357.5 419.5,357.5 422.5,357.5C 424.735,362.204 426.401,367.204 427.5,372.5C 427.528,375.916 428.528,378.916 430.5,381.5C 431.5,384.833 432.5,388.167 433.5,391.5C 432.234,390.91 430.901,390.41 429.5,390C 416.623,377.49 404.957,366.323 394.5,356.5C 399.167,356.5 403.833,356.5 408.5,356.5C 408.5,354.167 408.5,351.833 408.5,349.5C 409.451,348.081 409.784,346.415 409.5,344.5C 405.167,344.5 400.833,344.5 396.5,344.5C 396.5,341.5 396.5,338.5 396.5,335.5C 396.5,332.833 396.5,330.167 396.5,327.5C 390.281,327.979 384.281,329.313 378.5,331.5C 377.683,333.969 377.183,336.635 377,339.5C 372.097,335.683 367.931,331.35 364.5,326.5C 363.096,323.623 360.763,321.956 357.5,321.5C 339.241,304.016 320.908,286.516 302.5,269C 303.056,268.617 303.389,268.117 303.5,267.5C 314.073,264.523 324.74,261.857 335.5,259.5 Z"/></g>
<g><path style="opacity:1" fill="#79244e" d="M 303.5,267.5 C 303.389,268.117 303.056,268.617 302.5,269C 320.908,286.516 339.241,304.016 357.5,321.5C 347.138,322.768 344.471,327.934 349.5,337C 359.347,340.311 364.347,336.811 364.5,326.5C 367.931,331.35 372.097,335.683 377,339.5C 377.183,336.635 377.683,333.969 378.5,331.5C 377.361,350.025 375.695,368.358 373.5,386.5C 373.649,385.448 373.483,384.448 373,383.5C 369.633,379.797 365.966,376.464 362,373.5C 361.51,372.207 361.343,370.873 361.5,369.5C 361.5,366.5 361.5,363.5 361.5,360.5C 362.665,355.367 363.332,350.034 363.5,344.5C 353.985,344.173 344.652,344.506 335.5,345.5C 334.833,345.5 334.5,345.833 334.5,346.5C 332.833,345.5 331.5,344.167 330.5,342.5C 332.344,340.721 333.01,338.388 332.5,335.5C 333.244,331.881 333.577,328.215 333.5,324.5C 330.557,324.02 327.89,323.02 325.5,321.5C 326.239,321.631 326.906,321.464 327.5,321C 311.297,305.296 294.964,289.796 278.5,274.5C 286.601,271.722 294.934,269.388 303.5,267.5 Z"/></g>
<g><path style="opacity:1" fill="#72224a" d="M 278.5,274.5 C 294.964,289.796 311.297,305.296 327.5,321C 326.906,321.464 326.239,321.631 325.5,321.5C 313.978,318.84 302.311,318.007 290.5,319C 287.421,319.685 284.421,320.519 281.5,321.5C 273.56,311.726 264.727,302.726 255,294.5C 254.329,295.252 253.496,295.586 252.5,295.5C 256.908,288.918 261.908,282.751 267.5,277C 271.07,275.69 274.737,274.857 278.5,274.5 Z"/></g>
<g><path style="opacity:1" fill="#6a2347" d="M 281.5,321.5 C 262.76,328.9 250.76,342.233 245.5,361.5C 243.96,363.838 243.294,366.505 243.5,369.5C 240.054,386.1 243.554,401.1 254,414.5C 257.734,417.952 261.9,420.785 266.5,423C 235.411,417.427 204.411,411.094 173.5,404C 172.978,403.439 172.645,402.772 172.5,402C 198.631,366.044 225.298,330.544 252.5,295.5C 253.496,295.586 254.329,295.252 255,294.5C 264.727,302.726 273.56,311.726 281.5,321.5 Z"/></g>
<g><path style="opacity:1" fill="#f8f3f5" d="M 357.5,321.5 C 360.763,321.956 363.096,323.623 364.5,326.5C 364.347,336.811 359.347,340.311 349.5,337C 344.471,327.934 347.138,322.768 357.5,321.5 Z"/></g>
<g><path style="opacity:1" fill="#fbf8f9" d="M 396.5,335.5 C 395.521,338.625 395.187,341.958 395.5,345.5C 399.833,345.5 404.167,345.5 408.5,345.5C 408.5,346.833 408.5,348.167 408.5,349.5C 408.5,351.833 408.5,354.167 408.5,356.5C 403.833,356.5 399.167,356.5 394.5,356.5C 393.558,365.33 392.892,374.33 392.5,383.5C 391.8,387.798 391.467,392.131 391.5,396.5C 390.08,402.099 390.247,407.765 392,413.5C 392.833,415 394,416.167 395.5,417C 400.749,416.544 404.916,418.378 408,422.5C 408.494,424.134 408.66,425.801 408.5,427.5C 401.189,428.469 393.856,428.636 386.5,428C 380,425.5 375.5,421 373,414.5C 372.22,405.119 372.387,395.786 373.5,386.5C 375.695,368.358 377.361,350.025 378.5,331.5C 384.281,329.313 390.281,327.979 396.5,327.5C 396.5,330.167 396.5,332.833 396.5,335.5 Z"/></g>
<g><path style="opacity:1" fill="#6a2247" d="M 319.5,335.5 C 319.5,337.833 319.5,340.167 319.5,342.5C 323.167,342.5 326.833,342.5 330.5,342.5C 331.5,344.167 332.833,345.5 334.5,346.5C 334.5,350.167 334.5,353.833 334.5,357.5C 337.5,357.5 340.5,357.5 343.5,357.5C 343.5,359.167 343.5,360.833 343.5,362.5C 343.322,373.974 342.156,385.307 340,396.5C 339.168,404.521 339.335,412.521 340.5,420.5C 343.962,426.773 349.295,429.439 356.5,428.5C 357.56,408.636 359.226,388.97 361.5,369.5C 361.343,370.873 361.51,372.207 362,373.5C 365.966,376.464 369.633,379.797 373,383.5C 373.483,384.448 373.649,385.448 373.5,386.5C 372.387,395.786 372.22,405.119 373,414.5C 375.5,421 380,425.5 386.5,428C 393.856,428.636 401.189,428.469 408.5,427.5C 408.66,425.801 408.494,424.134 408,422.5C 404.916,418.378 400.749,416.544 395.5,417C 394,416.167 392.833,415 392,413.5C 390.247,407.765 390.08,402.099 391.5,396.5C 391.34,398.199 391.506,399.866 392,401.5C 406.081,414.415 419.581,427.748 432.5,441.5C 430.101,446.519 427.601,451.519 425,456.5C 424.275,457.059 423.442,457.392 422.5,457.5C 378.192,447.898 333.859,438.398 289.5,429C 301.863,428.659 313.529,425.659 324.5,420C 327.215,416.28 326.215,413.613 321.5,412C 320,411.833 318.5,411.667 317,411.5C 310.34,413.575 303.506,414.575 296.5,414.5C 277.339,415.33 266.339,406.33 263.5,387.5C 263.06,378.051 263.727,368.718 265.5,359.5C 275.864,335.132 293.864,327.132 319.5,335.5 Z"/></g>
<g><path style="opacity:1" fill="#fcf8fa" d="M 505.5,333.5 C 515.167,333.5 524.833,333.5 534.5,333.5C 533.687,341.138 533.354,348.804 533.5,356.5C 530.601,371.518 529.767,386.851 531,402.5C 535.555,415.029 544.389,419.529 557.5,416C 566.845,413.823 572.178,407.989 573.5,398.5C 575.825,385.286 577.492,371.953 578.5,358.5C 579.81,352.712 580.477,346.712 580.5,340.5C 581.752,338.999 582.752,337.332 583.5,335.5C 586.966,333.908 590.633,333.242 594.5,333.5C 594.5,338.5 594.5,343.5 594.5,348.5C 593.116,355.385 592.45,362.385 592.5,369.5C 591.734,374.363 591.068,379.363 590.5,384.5C 589.475,387.974 588.808,391.64 588.5,395.5C 588.165,400.498 586.832,405.165 584.5,409.5C 577.54,421.155 567.206,427.488 553.5,428.5C 521.467,430.461 507.801,415.461 512.5,383.5C 514.213,370.609 515.213,357.609 515.5,344.5C 512.167,344.5 508.833,344.5 505.5,344.5C 505.5,340.833 505.5,337.167 505.5,333.5 Z"/></g>
<g><path style="opacity:1" fill="#d2b9c5" d="M 319.5,335.5 C 320.461,337.265 320.795,339.265 320.5,341.5C 324.167,341.5 327.833,341.5 331.5,341.5C 331.205,339.265 331.539,337.265 332.5,335.5C 333.01,338.388 332.344,340.721 330.5,342.5C 326.833,342.5 323.167,342.5 319.5,342.5C 319.5,340.167 319.5,337.833 319.5,335.5 Z"/></g>
<g><path style="opacity:1" fill="#be96aa" d="M 335.5,345.5 C 344.652,344.506 353.985,344.173 363.5,344.5C 363.332,350.034 362.665,355.367 361.5,360.5C 361.337,355.453 361.671,350.453 362.5,345.5C 353.5,345.5 344.5,345.5 335.5,345.5 Z"/></g>
<g><path style="opacity:1" fill="#c08fa7" d="M 396.5,335.5 C 396.5,338.5 396.5,341.5 396.5,344.5C 400.833,344.5 405.167,344.5 409.5,344.5C 409.784,346.415 409.451,348.081 408.5,349.5C 408.5,348.167 408.5,346.833 408.5,345.5C 404.167,345.5 399.833,345.5 395.5,345.5C 395.187,341.958 395.521,338.625 396.5,335.5 Z"/></g>
<g><path style="opacity:1" fill="#cfa7bb" d="M 414.5,345.5 C 416.948,344.527 419.615,344.194 422.5,344.5C 427.944,343.892 432.944,344.558 437.5,346.5C 429.92,345.534 422.253,345.201 414.5,345.5 Z"/></g>
<g><path style="opacity:1" fill="#d3a1b9" d="M 493.5,345.5 C 496.287,344.523 499.287,344.19 502.5,344.5C 502.737,345.791 502.404,346.791 501.5,347.5C 499.365,345.631 496.698,344.964 493.5,345.5 Z"/></g>
<g><path style="opacity:1" fill="#faf7f9" d="M 335.5,345.5 C 344.5,345.5 353.5,345.5 362.5,345.5C 361.671,350.453 361.337,355.453 361.5,360.5C 361.5,363.5 361.5,366.5 361.5,369.5C 359.226,388.97 357.56,408.636 356.5,428.5C 349.295,429.439 343.962,426.773 340.5,420.5C 339.335,412.521 339.168,404.521 340,396.5C 342.156,385.307 343.322,373.974 343.5,362.5C 344.461,360.735 344.795,358.735 344.5,356.5C 341.5,356.5 338.5,356.5 335.5,356.5C 335.5,352.833 335.5,349.167 335.5,345.5 Z"/></g>
<g><path style="opacity:1" fill="#ab2161" d="M 594.5,348.5 C 611.69,363.934 628.69,379.601 645.5,395.5C 644.193,402.2 642.693,408.867 641,415.5C 624.333,400.665 608.166,385.332 592.5,369.5C 592.45,362.385 593.116,355.385 594.5,348.5 Z"/></g>
<g><path style="opacity:1" fill="#ac7e95" d="M 335.5,345.5 C 335.5,349.167 335.5,352.833 335.5,356.5C 338.5,356.5 341.5,356.5 344.5,356.5C 344.795,358.735 344.461,360.735 343.5,362.5C 343.5,360.833 343.5,359.167 343.5,357.5C 340.5,357.5 337.5,357.5 334.5,357.5C 334.5,353.833 334.5,350.167 334.5,346.5C 334.5,345.833 334.833,345.5 335.5,345.5 Z"/></g>
<g><path style="opacity:1" fill="#b9829c" d="M 414.5,345.5 C 414.5,349.167 414.5,352.833 414.5,356.5C 417.385,356.194 420.052,356.527 422.5,357.5C 419.5,357.5 416.5,357.5 413.5,357.5C 413.183,353.298 413.517,349.298 414.5,345.5 Z"/></g>
<g><path style="opacity:1" fill="#dfacc3" d="M 580.5,340.5 C 580.477,346.712 579.81,352.712 578.5,358.5C 578.5,357.5 578.5,356.5 578.5,355.5C 578.302,350.25 578.969,345.25 580.5,340.5 Z"/></g>
<g><path style="opacity:1" fill="#7a234e" d="M 394.5,356.5 C 404.957,366.323 416.623,377.49 429.5,390C 430.901,390.41 432.234,390.91 433.5,391.5C 434.458,393.302 435.125,395.302 435.5,397.5C 435.528,400.916 436.528,403.916 438.5,406.5C 440.56,411.683 442.227,417.016 443.5,422.5C 442.409,425.022 441.075,427.355 439.5,429.5C 438.564,426.041 436.564,423.207 433.5,421C 420.148,408.019 406.482,395.519 392.5,383.5C 392.892,374.33 393.558,365.33 394.5,356.5 Z"/></g>
<g><path style="opacity:1" fill="#99245a" d="M 533.5,356.5 C 533.201,358.604 533.534,360.604 534.5,362.5C 546.994,375.213 559.994,387.213 573.5,398.5C 572.178,407.989 566.845,413.823 557.5,416C 544.389,419.529 535.555,415.029 531,402.5C 529.767,386.851 530.601,371.518 533.5,356.5 Z"/></g>
<g><path style="opacity:1" fill="#c3a7b6" d="M 245.5,361.5 C 245.435,364.428 244.768,367.095 243.5,369.5C 243.294,366.505 243.96,363.838 245.5,361.5 Z"/></g>
<g><path style="opacity:1" fill="#a4235f" d="M 672.5,260.5 C 677.387,261.979 682.387,263.145 687.5,264C 688.056,264.383 688.389,264.883 688.5,265.5C 681.299,295.97 673.633,326.303 665.5,356.5C 664.739,357.391 663.739,358.058 662.5,358.5C 659.917,358.019 657.417,357.352 655,356.5C 650.007,380.131 645.34,403.798 641,427.5C 637.647,436.956 635.147,446.623 633.5,456.5C 616.837,441.17 600.504,425.503 584.5,409.5C 586.832,405.165 588.165,400.498 588.5,395.5C 589.222,395.082 589.722,394.416 590,393.5C 590.498,390.518 590.665,387.518 590.5,384.5C 591.068,379.363 591.734,374.363 592.5,369.5C 608.166,385.332 624.333,400.665 641,415.5C 642.693,408.867 644.193,402.2 645.5,395.5C 646.833,387.833 648.167,380.167 649.5,372.5C 651.047,365.884 652.381,359.217 653.5,352.5C 655.145,346.273 656.145,339.939 656.5,333.5C 657.531,331.039 658.198,328.373 658.5,325.5C 659.219,323.236 659.552,320.903 659.5,318.5C 661.163,316.562 661.829,314.228 661.5,311.5C 662.649,311.209 663.316,310.376 663.5,309C 664.492,304.875 665.159,300.709 665.5,296.5C 666.675,292.958 667.341,289.291 667.5,285.5C 668.451,284.081 668.784,282.415 668.5,280.5C 669.675,276.958 670.341,273.291 670.5,269.5C 671.417,266.583 672.084,263.583 672.5,260.5 Z"/></g>
<g><path style="opacity:1" fill="#8d2355" d="M 512.5,383.5 C 507.801,415.461 521.467,430.461 553.5,428.5C 553.082,429.222 552.416,429.722 551.5,430C 576,453.167 600.5,476.333 625,499.5C 625.782,496.69 626.616,494.023 627.5,491.5C 627.54,494.881 627.207,498.214 626.5,501.5C 615.404,499.485 604.404,497.152 593.5,494.5C 593.586,493.504 593.252,492.671 592.5,492C 554.942,456.606 517.609,421.106 480.5,385.5C 482.583,381 484.916,376.666 487.5,372.5C 488.15,372.196 488.817,371.863 489.5,371.5C 497.118,377.616 504.285,384.283 511,391.5C 511.183,388.635 511.683,385.969 512.5,383.5 Z"/></g>
<g><path style="opacity:1" fill="#8c5570" d="M 265.5,359.5 C 263.727,368.718 263.06,378.051 263.5,387.5C 262.345,380.345 262.178,373.012 263,365.5C 263.566,363.277 264.4,361.277 265.5,359.5 Z"/></g>
<g><path style="opacity:1" fill="#c192a9" d="M 427.5,372.5 C 429.072,375.215 430.072,378.215 430.5,381.5C 428.528,378.916 427.528,375.916 427.5,372.5 Z"/></g>
<g><path style="opacity:1" fill="#73204a" d="M 392.5,383.5 C 406.482,395.519 420.148,408.019 433.5,421C 436.564,423.207 438.564,426.041 439.5,429.5C 437.656,433.864 435.323,437.864 432.5,441.5C 419.581,427.748 406.081,414.415 392,401.5C 391.506,399.866 391.34,398.199 391.5,396.5C 391.467,392.131 391.8,387.798 392.5,383.5 Z"/></g>
<g><path style="opacity:1" fill="#ce88a7" d="M 590.5,384.5 C 590.665,387.518 590.498,390.518 590,393.5C 589.722,394.416 589.222,395.082 588.5,395.5C 588.808,391.64 589.475,387.974 590.5,384.5 Z"/></g>
<g><path style="opacity:1" fill="#862152" d="M 480.5,385.5 C 517.609,421.106 554.942,456.606 592.5,492C 593.252,492.671 593.586,493.504 593.5,494.5C 582.821,492.165 572.154,489.832 561.5,487.5C 532.365,459.2 503.032,431.034 473.5,403C 472.423,402.53 471.423,402.697 470.5,403.5C 473.33,397.17 476.663,391.17 480.5,385.5 Z"/></g>
<g><path style="opacity:1" fill="#bf92a8" d="M 435.5,397.5 C 437.072,400.215 438.072,403.215 438.5,406.5C 436.528,403.916 435.528,400.916 435.5,397.5 Z"/></g>
<g><path style="opacity:1" fill="#812150" d="M 561.5,487.5 C 548.5,484.833 535.5,482.167 522.5,479.5C 519.772,475.263 516.439,471.429 512.5,468C 495.365,452.533 478.531,436.7 462,420.5C 461.617,421.056 461.117,421.389 460.5,421.5C 462.823,414.847 466.156,408.847 470.5,403.5C 471.423,402.697 472.423,402.53 473.5,403C 503.032,431.034 532.365,459.2 561.5,487.5 Z"/></g>
<g><path style="opacity:1" fill="#8c2958" d="M 665.5,356.5 C 658.611,385.06 651.278,413.393 643.5,441.5C 643.278,438.315 641.778,437.315 639,438.5C 637.225,450.902 634.391,462.902 630.5,474.5C 631.5,468.5 632.5,462.5 633.5,456.5C 635.147,446.623 637.647,436.956 641,427.5C 645.34,403.798 650.007,380.131 655,356.5C 657.417,357.352 659.917,358.019 662.5,358.5C 663.739,358.058 664.739,357.391 665.5,356.5 Z"/></g>
<g><path style="opacity:1" fill="#79234d" d="M 522.5,479.5 C 494.57,473.288 466.57,467.288 438.5,461.5C 444.802,447.56 452.135,434.226 460.5,421.5C 461.117,421.389 461.617,421.056 462,420.5C 478.531,436.7 495.365,452.533 512.5,468C 516.439,471.429 519.772,475.263 522.5,479.5 Z"/></g>
<g><path style="opacity:1" fill="#942157" d="M 584.5,409.5 C 600.504,425.503 616.837,441.17 633.5,456.5C 632.5,462.5 631.5,468.5 630.5,474.5C 630.651,480.406 629.651,486.072 627.5,491.5C 626.616,494.023 625.782,496.69 625,499.5C 600.5,476.333 576,453.167 551.5,430C 552.416,429.722 553.082,429.222 553.5,428.5C 567.206,427.488 577.54,421.155 584.5,409.5 Z"/></g>
<g><path style="opacity:1" fill="#7d2d54" d="M 643.5,441.5 C 638.885,461.236 633.885,480.903 628.5,500.5C 628.043,501.298 627.376,501.631 626.5,501.5C 627.207,498.214 627.54,494.881 627.5,491.5C 629.651,486.072 630.651,480.406 630.5,474.5C 634.391,462.902 637.225,450.902 639,438.5C 641.778,437.315 643.278,438.315 643.5,441.5 Z"/></g>
<g><path style="opacity:1" fill="#302c2d" d="M 68.5,486.5 C 67.5489,487.919 67.2155,489.585 67.5,491.5C 74.1667,491.5 80.8333,491.5 87.5,491.5C 87.5,492.167 87.5,492.833 87.5,493.5C 81.8236,493.334 76.1569,493.501 70.5,494C 71.2438,495.039 72.2438,495.539 73.5,495.5C 77.603,499.061 82.2697,501.894 87.5,504C 88.9023,505.342 88.5689,506.176 86.5,506.5C 80.3191,503.974 74.6525,500.641 69.5,496.5C 69.44,495.957 69.1067,495.624 68.5,495.5C 67.513,498.768 67.1796,502.102 67.5,505.5C 71.5,505.5 75.5,505.5 79.5,505.5C 79.5,512.167 79.5,518.833 79.5,525.5C 70.5,525.5 61.5,525.5 52.5,525.5C 52.5,518.833 52.5,512.167 52.5,505.5C 56.7016,505.817 60.7016,505.483 64.5,504.5C 64.8174,501.428 64.4841,498.428 63.5,495.5C 60.3351,498.91 56.6684,501.577 52.5,503.5C 51.2905,503.932 50.2905,504.599 49.5,505.5C 47.6854,506.63 45.6854,507.296 43.5,507.5C 43.33,506.178 43.6634,505.011 44.5,504C 50.6269,502.106 55.9602,498.939 60.5,494.5C 55.544,493.506 50.544,493.173 45.5,493.5C 51.6014,491.851 57.9347,490.851 64.5,490.5C 64.5,489.167 64.5,487.833 64.5,486.5C 59.1254,486.828 53.7921,486.495 48.5,485.5C 58.541,484.429 68.541,483.096 78.5,481.5C 79.8333,481.833 81.1667,482.167 82.5,482.5C 82.1667,482.833 81.8333,483.167 81.5,483.5C 77.0932,484.746 72.7599,485.746 68.5,486.5 Z"/></g>
<g><path style="opacity:1" fill="#383435" d="M 206.5,490.5 C 203.316,492.414 199.649,493.08 195.5,492.5C 195.123,497.453 195.789,502.119 197.5,506.5C 197.846,508.705 198.513,508.872 199.5,507C 200.872,503.974 201.538,500.807 201.5,497.5C 202.5,497.5 203.5,497.5 204.5,497.5C 204.664,500.187 204.497,502.854 204,505.5C 201.793,508.532 200.293,511.866 199.5,515.5C 200.809,518.153 202.142,520.819 203.5,523.5C 204.474,521.257 204.808,518.924 204.5,516.5C 205.822,516.33 206.989,516.663 208,517.5C 208.66,520.534 208.16,523.367 206.5,526C 201.556,526.23 198.889,523.73 198.5,518.5C 194.869,519.608 191.869,521.774 189.5,525C 188.365,525.749 187.365,525.583 186.5,524.5C 189.15,521.349 191.984,518.349 195,515.5C 194.399,508.207 193.899,500.874 193.5,493.5C 189.5,493.5 185.5,493.5 181.5,493.5C 181.5,495.5 181.5,497.5 181.5,499.5C 184.287,500.477 187.287,500.81 190.5,500.5C 190.5,503.5 190.5,506.5 190.5,509.5C 191.443,514.409 189.609,517.409 185,518.5C 183.338,518.612 182.171,517.946 181.5,516.5C 183.396,515.534 185.396,515.201 187.5,515.5C 187.927,511.176 188.261,506.842 188.5,502.5C 186.167,502.5 183.833,502.5 181.5,502.5C 181.877,511.179 179.21,518.679 173.5,525C 172.517,525.591 171.85,525.257 171.5,524C 173.842,521.147 175.509,517.981 176.5,514.5C 177.268,513.737 177.768,512.737 178,511.5C 178.5,504.508 178.666,497.508 178.5,490.5C 183.167,490.5 187.833,490.5 192.5,490.5C 192.5,487.5 192.5,484.5 192.5,481.5C 193.5,481.5 194.5,481.5 195.5,481.5C 195.5,484.5 195.5,487.5 195.5,490.5C 199.167,490.5 202.833,490.5 206.5,490.5 Z"/></g>
<g><path style="opacity:1" fill="#312d2e" d="M 302.5,481.5 C 302.5,486.167 302.5,490.833 302.5,495.5C 309.5,495.5 316.5,495.5 323.5,495.5C 317.926,497.453 311.926,498.12 305.5,497.5C 305.263,498.791 305.596,499.791 306.5,500.5C 309.898,509.936 315.731,517.603 324,523.5C 324.483,524.448 324.649,525.448 324.5,526.5C 323.448,526.649 322.448,526.483 321.5,526C 312.385,518.747 306.385,509.58 303.5,498.5C 302.5,498.5 301.5,498.5 300.5,498.5C 299.641,511.551 293.308,520.884 281.5,526.5C 280.5,526.167 279.833,525.5 279.5,524.5C 288.833,519.801 294.833,512.468 297.5,502.5C 298.451,501.081 298.784,499.415 298.5,497.5C 292.833,497.5 287.167,497.5 281.5,497.5C 281.5,496.833 281.5,496.167 281.5,495.5C 287.537,495.829 293.537,495.496 299.5,494.5C 300.348,492.591 300.682,490.591 300.5,488.5C 299.99,485.612 300.656,483.279 302.5,481.5 Z"/></g>
<g><path style="opacity:1" fill="#918f8f" d="M 172.5,495.5 C 171.834,491.647 171.167,487.647 170.5,483.5C 169.833,487.647 169.166,491.647 168.5,495.5C 168.5,491.167 168.5,486.833 168.5,482.5C 169.833,482.5 171.167,482.5 172.5,482.5C 172.5,486.833 172.5,491.167 172.5,495.5 Z"/></g>
<g><path style="opacity:1" fill="#312d2e" d="M 172.5,495.5 C 173.833,495.5 175.167,495.5 176.5,495.5C 176.5,496.167 176.5,496.833 176.5,497.5C 174.833,497.5 173.167,497.5 171.5,497.5C 171.182,502.032 171.515,506.366 172.5,510.5C 173.961,509.314 175.295,509.314 176.5,510.5C 176.5,511.167 176.5,511.833 176.5,512.5C 172.645,513.673 168.812,515.006 165,516.5C 163.941,516.37 163.108,515.87 162.5,515C 164.287,513.681 166.287,512.848 168.5,512.5C 169.487,507.695 169.821,502.695 169.5,497.5C 166.918,497.975 164.918,497.308 163.5,495.5C 165.167,495.5 166.833,495.5 168.5,495.5C 169.166,491.647 169.833,487.647 170.5,483.5C 171.167,487.647 171.834,491.647 172.5,495.5 Z"/></g>
<g><path style="opacity:1" fill="#2d292a" d="M 354.5,483.5 C 354.5,483.833 354.5,484.167 354.5,484.5C 351.428,485.684 348.428,487.017 345.5,488.5C 348.086,489.48 350.753,489.813 353.5,489.5C 351.143,491.098 348.477,492.098 345.5,492.5C 345.5,493.5 345.5,494.5 345.5,495.5C 357.5,496.167 357.5,496.833 345.5,497.5C 345.5,498.833 345.5,500.167 345.5,501.5C 355.5,502.833 365.5,502.833 375.5,501.5C 375.5,500.5 375.5,499.5 375.5,498.5C 372.833,498.5 370.167,498.5 367.5,498.5C 367.5,497.5 367.5,496.5 367.5,495.5C 370.167,495.5 372.833,495.5 375.5,495.5C 375.5,494.5 375.5,493.5 375.5,492.5C 373.167,492.5 370.833,492.5 368.5,492.5C 370.508,490.917 372.841,489.917 375.5,489.5C 376.404,488.791 376.737,487.791 376.5,486.5C 373.833,486.5 371.167,486.5 368.5,486.5C 371.337,484.598 374.671,483.931 378.5,484.5C 378.5,490.167 378.5,495.833 378.5,501.5C 379.5,501.5 380.5,501.5 381.5,501.5C 382.036,504.698 381.369,507.365 379.5,509.5C 379.5,507.5 379.5,505.5 379.5,503.5C 367.167,503.5 354.833,503.5 342.5,503.5C 342.5,505.5 342.5,507.5 342.5,509.5C 340.631,507.365 339.964,504.698 340.5,501.5C 341.5,501.5 342.5,501.5 343.5,501.5C 343.5,495.833 343.5,490.167 343.5,484.5C 346.435,484.283 349.269,483.617 352,482.5C 353.07,482.528 353.903,482.861 354.5,483.5 Z"/></g>
<g><path style="opacity:1" fill="#3f3b3c" d="M 104.5,484.5 C 108.345,484.826 111.345,486.659 113.5,490C 113.167,490.5 112.833,491 112.5,491.5C 109.15,489.808 106.483,487.475 104.5,484.5 Z"/></g>
<g><path style="opacity:1" fill="#3c3839" d="M 198.5,482.5 C 202.573,482.946 204.573,485.28 204.5,489.5C 203.5,489.5 202.5,489.5 201.5,489.5C 200.957,486.962 199.957,484.628 198.5,482.5 Z"/></g>
<g><path style="opacity:1" fill="#ebebeb" d="M 354.5,484.5 C 361.099,486.648 360.766,488.314 353.5,489.5C 350.753,489.813 348.086,489.48 345.5,488.5C 348.428,487.017 351.428,485.684 354.5,484.5 Z"/></g>
<g><path style="opacity:1" fill="#edecec" d="M 368.5,486.5 C 371.167,486.5 373.833,486.5 376.5,486.5C 376.737,487.791 376.404,488.791 375.5,489.5C 372.482,489.665 369.482,489.498 366.5,489C 363.936,487.519 363.936,486.019 366.5,484.5C 367.182,485.243 367.849,485.909 368.5,486.5 Z"/></g>
<g><path style="opacity:1" fill="#7a7879" d="M 136.5,481.5 C 137.468,483.607 137.802,485.941 137.5,488.5C 140.167,488.5 142.833,488.5 145.5,488.5C 145.737,489.791 145.404,490.791 144.5,491.5C 142.365,489.631 139.698,488.964 136.5,489.5C 136.5,486.833 136.5,484.167 136.5,481.5 Z"/></g>
<g><path style="opacity:1" fill="#363233" d="M 267.5,490.5 C 260.167,490.5 252.833,490.5 245.5,490.5C 245.19,493.713 245.523,496.713 246.5,499.5C 251.5,499.5 256.5,499.5 261.5,499.5C 261.666,506.175 261.5,512.842 261,519.5C 260.827,513.652 260.327,507.985 259.5,502.5C 255.167,502.5 250.833,502.5 246.5,502.5C 246.5,510.5 246.5,518.5 246.5,526.5C 245.167,526.5 243.833,526.5 242.5,526.5C 242.5,518.5 242.5,510.5 242.5,502.5C 238.167,502.5 233.833,502.5 229.5,502.5C 229.5,509.167 229.5,515.833 229.5,522.5C 228.5,522.5 227.5,522.5 226.5,522.5C 226.5,514.833 226.5,507.167 226.5,499.5C 231.833,499.5 237.167,499.5 242.5,499.5C 242.5,496.833 242.5,494.167 242.5,491.5C 235.5,491.5 228.5,491.5 221.5,491.5C 221.5,490.5 221.5,489.5 221.5,488.5C 229.507,488.666 237.507,488.5 245.5,488C 243.833,486.333 242.167,484.667 240.5,483C 241.025,482.308 241.692,481.808 242.5,481.5C 245.565,482.976 246.898,485.143 246.5,488C 253.905,487.865 260.905,488.698 267.5,490.5 Z"/></g>
<g><path style="opacity:1" fill="#807d7e" d="M 64.5,490.5 C 57.9347,490.851 51.6014,491.851 45.5,493.5C 44.596,492.791 44.2627,491.791 44.5,490.5C 51.1667,490.5 57.8333,490.5 64.5,490.5 Z"/></g>
<g><path style="opacity:1" fill="#a1a0a0" d="M 68.5,486.5 C 68.5,487.833 68.5,489.167 68.5,490.5C 75.0221,490.177 81.3554,490.51 87.5,491.5C 80.8333,491.5 74.1667,491.5 67.5,491.5C 67.2155,489.585 67.5489,487.919 68.5,486.5 Z"/></g>
<g><path style="opacity:1" fill="#b5b4b4" d="M 178.5,490.5 C 178.666,497.508 178.5,504.508 178,511.5C 177.768,512.737 177.268,513.737 176.5,514.5C 176.5,513.833 176.5,513.167 176.5,512.5C 176.5,511.833 176.5,511.167 176.5,510.5C 177.833,506.167 177.833,501.833 176.5,497.5C 176.5,496.833 176.5,496.167 176.5,495.5C 177.167,493.833 177.833,492.167 178.5,490.5 Z"/></g>
<g><path style="opacity:1" fill="#908e8f" d="M 267.5,490.5 C 260.687,491.491 253.687,491.825 246.5,491.5C 246.5,494.167 246.5,496.833 246.5,499.5C 245.523,496.713 245.19,493.713 245.5,490.5C 252.833,490.5 260.167,490.5 267.5,490.5 Z"/></g>
<g><path style="opacity:1" fill="#696768" d="M 206.5,490.5 C 207.404,491.209 207.737,492.209 207.5,493.5C 203.833,493.5 200.167,493.5 196.5,493.5C 197.2,497.798 197.533,502.131 197.5,506.5C 195.789,502.119 195.123,497.453 195.5,492.5C 199.649,493.08 203.316,492.414 206.5,490.5 Z"/></g>
<g><path style="opacity:1" fill="#c0bfbf" d="M 87.5,493.5 C 82.8333,494.167 78.1667,494.833 73.5,495.5C 72.2438,495.539 71.2438,495.039 70.5,494C 76.1569,493.501 81.8236,493.334 87.5,493.5 Z"/></g>
<g><path style="opacity:1" fill="#454142" d="M 378.5,484.5 C 374.671,483.931 371.337,484.598 368.5,486.5C 367.849,485.909 367.182,485.243 366.5,484.5C 363.936,486.019 363.936,487.519 366.5,489C 369.482,489.498 372.482,489.665 375.5,489.5C 372.841,489.917 370.508,490.917 368.5,492.5C 367.883,492.389 367.383,492.056 367,491.5C 366.415,493.129 365.581,494.629 364.5,496C 365.856,497.567 366.523,499.4 366.5,501.5C 369.5,501.5 372.5,501.5 375.5,501.5C 365.5,502.833 355.5,502.833 345.5,501.5C 345.833,501.5 346.167,501.5 346.5,501.5C 349.167,501.5 351.833,501.5 354.5,501.5C 357.85,501.665 361.183,501.498 364.5,501C 362.322,498.121 359.822,497.955 357,500.5C 356.5,500.167 356,499.833 355.5,499.5C 356.737,498.719 357.737,497.719 358.5,496.5C 357.316,494.954 356.316,493.287 355.5,491.5C 352.242,492.417 348.909,492.751 345.5,492.5C 348.477,492.098 351.143,491.098 353.5,489.5C 360.766,488.314 361.099,486.648 354.5,484.5C 354.5,484.167 354.5,483.833 354.5,483.5C 355.583,483.461 356.583,483.127 357.5,482.5C 360.314,485.092 363.147,485.092 366,482.5C 370.316,483.08 374.483,483.747 378.5,484.5 Z"/></g>
<g><path style="opacity:1" fill="#e4e4e4" d="M 359.5,489.5 C 365.024,489.535 365.691,491.201 361.5,494.5C 357.565,493.663 356.899,491.997 359.5,489.5 Z"/></g>
<g><path style="opacity:1" fill="#efefef" d="M 368.5,492.5 C 370.833,492.5 373.167,492.5 375.5,492.5C 375.5,493.5 375.5,494.5 375.5,495.5C 372.833,495.5 370.167,495.5 367.5,495.5C 367.5,496.5 367.5,497.5 367.5,498.5C 370.167,498.5 372.833,498.5 375.5,498.5C 375.5,499.5 375.5,500.5 375.5,501.5C 372.5,501.5 369.5,501.5 366.5,501.5C 366.523,499.4 365.856,497.567 364.5,496C 365.581,494.629 366.415,493.129 367,491.5C 367.383,492.056 367.883,492.389 368.5,492.5 Z"/></g>
<g><path style="opacity:1" fill="#8e8c8c" d="M 300.5,488.5 C 300.682,490.591 300.348,492.591 299.5,494.5C 293.537,495.496 287.537,495.829 281.5,495.5C 286.975,494.511 292.642,494.178 298.5,494.5C 298.595,492.214 299.262,490.214 300.5,488.5 Z"/></g>
<g><path style="opacity:1" fill="#8f8d8e" d="M 302.5,481.5 C 303.485,485.634 303.818,489.968 303.5,494.5C 310.354,494.176 317.021,494.509 323.5,495.5C 316.5,495.5 309.5,495.5 302.5,495.5C 302.5,490.833 302.5,486.167 302.5,481.5 Z"/></g>
<g><path style="opacity:1" fill="#f2f2f2" d="M 64.5,504.5 C 60.2984,504.817 56.2984,504.483 52.5,503.5C 56.6684,501.577 60.3351,498.91 63.5,495.5C 64.4841,498.428 64.8174,501.428 64.5,504.5 Z"/></g>
<g><path style="opacity:1" fill="#6c696a" d="M 137.5,491.5 C 137.5,493.5 137.5,495.5 137.5,497.5C 141.042,497.187 144.375,497.521 147.5,498.5C 143.833,498.5 140.167,498.5 136.5,498.5C 136.198,495.941 136.532,493.607 137.5,491.5 Z"/></g>
<g><path style="opacity:1" fill="#918f90" d="M 281.5,497.5 C 287.167,497.5 292.833,497.5 298.5,497.5C 298.784,499.415 298.451,501.081 297.5,502.5C 297.5,501.167 297.5,499.833 297.5,498.5C 291.974,498.821 286.64,498.488 281.5,497.5 Z"/></g>
<g><path style="opacity:1" fill="#8e8c8d" d="M 323.5,495.5 C 324.404,496.209 324.737,497.209 324.5,498.5C 318.074,497.88 312.074,498.547 306.5,500.5C 305.596,499.791 305.263,498.791 305.5,497.5C 311.926,498.12 317.926,497.453 323.5,495.5 Z"/></g>
<g><path style="opacity:1" fill="#7a7878" d="M 163.5,495.5 C 164.918,497.308 166.918,497.975 169.5,497.5C 169.821,502.695 169.487,507.695 168.5,512.5C 168.5,507.833 168.5,503.167 168.5,498.5C 166.5,498.5 164.5,498.5 162.5,498.5C 162.263,497.209 162.596,496.209 163.5,495.5 Z"/></g>
<g><path style="opacity:1" fill="#afaeae" d="M 176.5,497.5 C 175.432,498.434 174.099,498.768 172.5,498.5C 172.5,502.5 172.5,506.5 172.5,510.5C 171.515,506.366 171.182,502.032 171.5,497.5C 173.167,497.5 174.833,497.5 176.5,497.5 Z"/></g>
<g><path style="opacity:1" fill="#fbfbfb" d="M 176.5,497.5 C 177.833,501.833 177.833,506.167 176.5,510.5C 175.295,509.314 173.961,509.314 172.5,510.5C 172.5,506.5 172.5,502.5 172.5,498.5C 174.099,498.768 175.432,498.434 176.5,497.5 Z"/></g>
<g><path style="opacity:1" fill="#cccccc" d="M 354.5,501.5 C 354.5,500.5 354.5,499.5 354.5,498.5C 351.833,498.5 349.167,498.5 346.5,498.5C 346.5,499.5 346.5,500.5 346.5,501.5C 346.167,501.5 345.833,501.5 345.5,501.5C 345.5,500.167 345.5,498.833 345.5,497.5C 357.5,496.833 357.5,496.167 345.5,495.5C 345.5,494.5 345.5,493.5 345.5,492.5C 348.909,492.751 352.242,492.417 355.5,491.5C 356.316,493.287 357.316,494.954 358.5,496.5C 357.737,497.719 356.737,498.719 355.5,499.5C 356,499.833 356.5,500.167 357,500.5C 359.822,497.955 362.322,498.121 364.5,501C 361.183,501.498 357.85,501.665 354.5,501.5 Z"/></g>
<g><path style="opacity:1" fill="#fefefe" d="M 354.5,501.5 C 351.833,501.5 349.167,501.5 346.5,501.5C 346.5,500.5 346.5,499.5 346.5,498.5C 349.167,498.5 351.833,498.5 354.5,498.5C 354.5,499.5 354.5,500.5 354.5,501.5 Z"/></g>
<g><path style="opacity:1" fill="#423f40" d="M 103.5,494.5 C 106.394,495.882 108.894,497.882 111,500.5C 111.749,501.635 111.583,502.635 110.5,503.5C 107.833,501.167 105.167,498.833 102.5,496.5C 102.863,495.817 103.196,495.15 103.5,494.5 Z"/></g>
<g><path style="opacity:1" fill="#343132" d="M 125.5,488.5 C 128.287,489.477 131.287,489.81 134.5,489.5C 134.5,486.833 134.5,484.167 134.5,481.5C 135.167,481.5 135.833,481.5 136.5,481.5C 136.5,484.167 136.5,486.833 136.5,489.5C 139.698,488.964 142.365,489.631 144.5,491.5C 142.167,491.5 139.833,491.5 137.5,491.5C 136.532,493.607 136.198,495.941 136.5,498.5C 140.167,498.5 143.833,498.5 147.5,498.5C 144.939,500.094 141.939,501.094 138.5,501.5C 141.236,505.035 144.569,507.868 148.5,510C 147.407,511.365 146.074,511.699 144.5,511C 142.415,509.959 140.748,508.459 139.5,506.5C 138.516,509.428 138.183,512.428 138.5,515.5C 133.833,515.5 129.167,515.5 124.5,515.5C 124.5,517.833 124.5,520.167 124.5,522.5C 130.176,522.666 135.843,522.499 141.5,522C 142.103,520.175 142.77,518.341 143.5,516.5C 144.857,519.527 144.524,522.36 142.5,525C 136.167,525.667 129.833,525.667 123.5,525C 122.619,524.292 121.953,523.458 121.5,522.5C 121.827,517.786 121.493,513.12 120.5,508.5C 119.893,508.624 119.56,508.957 119.5,509.5C 117.88,511.413 115.88,512.747 113.5,513.5C 113.351,512.448 113.517,511.448 114,510.5C 117.432,508.319 119.932,505.319 121.5,501.5C 118.572,500.516 115.572,500.183 112.5,500.5C 112.5,499.5 112.5,498.5 112.5,497.5C 115.833,497.5 119.167,497.5 122.5,497.5C 122.5,495.5 122.5,493.5 122.5,491.5C 120.167,491.5 117.833,491.5 115.5,491.5C 115.5,490.5 115.5,489.5 115.5,488.5C 117.833,488.5 120.167,488.5 122.5,488.5C 122.5,486.167 122.5,483.833 122.5,481.5C 123.5,481.5 124.5,481.5 125.5,481.5C 125.5,483.833 125.5,486.167 125.5,488.5 Z"/></g>
<g><path style="opacity:1" fill="#f3f3f3" d="M 136.5,503.5 C 134.696,504.162 132.696,504.495 130.5,504.5C 128.048,504.461 126.048,503.794 124.5,502.5C 125.694,501.223 127.36,500.556 129.5,500.5C 132.611,500.012 134.944,501.012 136.5,503.5 Z"/></g>
<g><path style="opacity:1" fill="#f5f5f5" d="M 125.5,491.5 C 128.167,491.5 130.833,491.5 133.5,491.5C 133.5,493.5 133.5,495.5 133.5,497.5C 130.833,497.5 128.167,497.5 125.5,497.5C 125.5,495.5 125.5,493.5 125.5,491.5 Z"/></g>
<g><path style="opacity:1" fill="#706d6e" d="M 134.5,481.5 C 134.5,484.167 134.5,486.833 134.5,489.5C 131.287,489.81 128.287,489.477 125.5,488.5C 128.167,488.5 130.833,488.5 133.5,488.5C 133.198,485.941 133.532,483.607 134.5,481.5 Z"/></g>
<g><path style="opacity:1" fill="#656263" d="M 379.5,509.5 C 378.549,508.081 378.216,506.415 378.5,504.5C 366.833,504.5 355.167,504.5 343.5,504.5C 343.784,506.415 343.451,508.081 342.5,509.5C 342.5,507.5 342.5,505.5 342.5,503.5C 354.833,503.5 367.167,503.5 379.5,503.5C 379.5,505.5 379.5,507.5 379.5,509.5 Z"/></g>
<g><path style="opacity:1" fill="#a7a6a6" d="M 69.5,496.5 C 68.5269,498.948 68.1936,501.615 68.5,504.5C 72.3714,504.185 76.0381,504.518 79.5,505.5C 75.5,505.5 71.5,505.5 67.5,505.5C 67.1796,502.102 67.513,498.768 68.5,495.5C 69.1067,495.624 69.44,495.957 69.5,496.5 Z"/></g>
<g><path style="opacity:1" fill="#9a9898" d="M 124.5,502.5 C 126.048,503.794 128.048,504.461 130.5,504.5C 132.696,504.495 134.696,504.162 136.5,503.5C 137.043,503.56 137.376,503.893 137.5,504.5C 132.88,505.493 128.214,505.827 123.5,505.5C 123.263,504.209 123.596,503.209 124.5,502.5 Z"/></g>
<g><path style="opacity:1" fill="#bfbfbf" d="M 52.5,503.5 C 56.2984,504.483 60.2984,504.817 64.5,504.5C 60.7016,505.483 56.7016,505.817 52.5,505.5C 52.5,512.167 52.5,518.833 52.5,525.5C 52.1502,518.605 51.1502,511.938 49.5,505.5C 50.2905,504.599 51.2905,503.932 52.5,503.5 Z"/></g>
<g><path style="opacity:1" fill="#a09f9f" d="M 374.5,507.5 C 365.475,507.168 356.475,507.502 347.5,508.5C 354.476,509.331 361.476,509.831 368.5,510C 367.473,510.513 366.473,511.013 365.5,511.5C 359.355,510.51 353.022,510.177 346.5,510.5C 346.5,509.167 346.5,507.833 346.5,506.5C 356.015,506.173 365.348,506.506 374.5,507.5 Z"/></g>
<g><path style="opacity:1" fill="#bebdbd" d="M 76.5,513.5 C 76.5,511.833 76.5,510.167 76.5,508.5C 69.8333,508.5 63.1667,508.5 56.5,508.5C 56.5,510.167 56.5,511.833 56.5,513.5C 55.5386,511.735 55.2053,509.735 55.5,507.5C 62.8333,507.5 70.1667,507.5 77.5,507.5C 77.7947,509.735 77.4614,511.735 76.5,513.5 Z"/></g>
<g><path style="opacity:1" fill="#fefffe" d="M 76.5,513.5 C 69.8333,513.5 63.1667,513.5 56.5,513.5C 56.5,511.833 56.5,510.167 56.5,508.5C 63.1667,508.5 69.8333,508.5 76.5,508.5C 76.5,510.167 76.5,511.833 76.5,513.5 Z"/></g>
<g><path style="opacity:1" fill="#f0f0f0" d="M 135.5,507.5 C 135.5,509.167 135.5,510.833 135.5,512.5C 131.833,512.5 128.167,512.5 124.5,512.5C 124.5,510.833 124.5,509.167 124.5,507.5C 128.167,507.5 131.833,507.5 135.5,507.5 Z"/></g>
<g><path style="opacity:1" fill="#969595" d="M 181.5,499.5 C 184.833,499.5 188.167,499.5 191.5,499.5C 191.813,503.042 191.479,506.375 190.5,509.5C 190.5,506.5 190.5,503.5 190.5,500.5C 187.287,500.81 184.287,500.477 181.5,499.5 Z"/></g>
<g><path style="opacity:1" fill="#bebdbd" d="M 119.5,509.5 C 119.56,508.957 119.893,508.624 120.5,508.5C 121.493,513.12 121.827,517.786 121.5,522.5C 120.833,518.167 120.167,513.833 119.5,509.5 Z"/></g>
<g><path style="opacity:1" fill="#7f7d7e" d="M 135.5,507.5 C 136.461,509.265 136.795,511.265 136.5,513.5C 132.298,513.817 128.298,513.483 124.5,512.5C 128.167,512.5 131.833,512.5 135.5,512.5C 135.5,510.833 135.5,509.167 135.5,507.5 Z"/></g>
<g><path style="opacity:1" fill="#454242" d="M 110.5,506.5 C 111.649,506.791 112.316,507.624 112.5,509C 111.598,515.641 108.765,521.141 104,525.5C 103.5,525.167 103,524.833 102.5,524.5C 105.759,518.709 108.425,512.709 110.5,506.5 Z"/></g>
<g><path style="opacity:1" fill="#282526" d="M 374.5,507.5 C 374.586,508.496 374.252,509.329 373.5,510C 369.833,511.667 366.167,513.333 362.5,515C 369.158,515.5 375.825,515.666 382.5,515.5C 376.25,517.459 369.584,518.126 362.5,517.5C 362.5,520.167 362.5,522.833 362.5,525.5C 359.713,526.477 356.713,526.81 353.5,526.5C 353.5,525.5 353.5,524.5 353.5,523.5C 359.434,525.888 361.434,524.221 359.5,518.5C 352.605,518.15 345.938,517.15 339.5,515.5C 345.833,515.5 352.167,515.5 358.5,515.5C 358.5,514.5 358.5,513.5 358.5,512.5C 360.861,512.326 363.194,511.993 365.5,511.5C 366.473,511.013 367.473,510.513 368.5,510C 361.476,509.831 354.476,509.331 347.5,508.5C 356.475,507.502 365.475,507.168 374.5,507.5 Z"/></g>
<g><path style="opacity:1" fill="#666364" d="M 339.5,515.5 C 345.938,517.15 352.605,518.15 359.5,518.5C 352.5,518.5 345.5,518.5 338.5,518.5C 338.263,517.209 338.596,516.209 339.5,515.5 Z"/></g>
<g><path style="opacity:1" fill="#777575" d="M 382.5,515.5 C 383.404,516.209 383.737,517.209 383.5,518.5C 376.833,518.5 370.167,518.5 363.5,518.5C 363.802,521.059 363.468,523.393 362.5,525.5C 362.5,522.833 362.5,520.167 362.5,517.5C 369.584,518.126 376.25,517.459 382.5,515.5 Z"/></g>
<g><path style="opacity:1" fill="#403c3d" d="M 261.5,499.5 C 262.655,506.321 262.821,513.321 262,520.5C 259.263,521.61 256.429,521.777 253.5,521C 251.595,520.174 251.261,519.007 252.5,517.5C 254.747,518.374 257.08,518.708 259.5,518.5C 259.5,513.167 259.5,507.833 259.5,502.5C 260.327,507.985 260.827,513.652 261,519.5C 261.5,512.842 261.666,506.175 261.5,499.5 Z"/></g>
<g><path style="opacity:1" fill="#959393" d="M 56.5,516.5 C 56.5,518.5 56.5,520.5 56.5,522.5C 63.1667,522.5 69.8333,522.5 76.5,522.5C 76.5,520.5 76.5,518.5 76.5,516.5C 77.4682,518.607 77.8016,520.941 77.5,523.5C 70.1667,523.5 62.8333,523.5 55.5,523.5C 55.1984,520.941 55.5318,518.607 56.5,516.5 Z"/></g>
<g><path style="opacity:1" fill="#fefffe" d="M 56.5,516.5 C 63.1667,516.5 69.8333,516.5 76.5,516.5C 76.5,518.5 76.5,520.5 76.5,522.5C 69.8333,522.5 63.1667,522.5 56.5,522.5C 56.5,520.5 56.5,518.5 56.5,516.5 Z"/></g>
<g><path style="opacity:1" fill="#332f30" d="M 50.5,550.5 C 48.39,551.453 47.2233,553.119 47,555.5C 46.3333,558.167 46.3333,560.833 47,563.5C 47.2784,564.416 47.7784,565.082 48.5,565.5C 53.6777,571.396 59.6777,572.063 66.5,567.5C 67.754,569.259 67.4206,570.759 65.5,572C 55.3829,576.181 48.2162,573.348 44,563.5C 42.1136,549.386 48.2802,543.22 62.5,545C 64.5547,545.687 66.2214,546.854 67.5,548.5C 66.7579,549.287 65.9246,549.953 65,550.5C 60.0978,546.527 55.2644,546.527 50.5,550.5 Z"/></g>
<g><path style="opacity:1" fill="#383435" d="M 72.5,545.5 C 73.8333,545.5 75.1667,545.5 76.5,545.5C 76.8333,548.5 75.5,549.833 72.5,549.5C 72.5,548.167 72.5,546.833 72.5,545.5 Z"/></g>
<g><path style="opacity:1" fill="#2e2b2b" d="M 126.5,566.5 C 131.488,572.03 136.154,571.696 140.5,565.5C 141.167,558.988 141.833,552.321 142.5,545.5C 143.497,552.803 143.831,560.137 143.5,567.5C 141.371,571.654 137.871,573.654 133,573.5C 128.255,573.883 125.089,571.883 123.5,567.5C 123.169,560.137 123.503,552.803 124.5,545.5C 125.167,552.655 125.833,559.655 126.5,566.5 Z"/></g>
<g><path style="opacity:1" fill="#8a8888" d="M 126.5,566.5 C 125.833,559.655 125.167,552.655 124.5,545.5C 123.503,552.803 123.169,560.137 123.5,567.5C 122.508,560.018 122.175,552.352 122.5,544.5C 123.833,544.5 125.167,544.5 126.5,544.5C 126.5,551.833 126.5,559.167 126.5,566.5 Z"/></g>
<g><path style="opacity:1" fill="#3a3738" d="M 168.5,545.5 C 169.833,545.5 171.167,545.5 172.5,545.5C 172.778,547.346 172.111,548.68 170.5,549.5C 168.889,548.68 168.222,547.346 168.5,545.5 Z"/></g>
<g><path style="opacity:1" fill="#3a3738" d="M 247.5,545.5 C 248.833,545.5 250.167,545.5 251.5,545.5C 251.778,547.346 251.111,548.68 249.5,549.5C 247.889,548.68 247.222,547.346 247.5,545.5 Z"/></g>
<g><path style="opacity:1" fill="#282425" d="M 327.5,545.5 C 326.883,545.611 326.383,545.944 326,546.5C 325.199,549.367 325.366,552.034 326.5,554.5C 327.5,554.5 328.5,554.5 329.5,554.5C 328.817,556.176 327.483,556.843 325.5,556.5C 325.828,561.875 325.495,567.208 324.5,572.5C 323.833,567.349 323.166,562.349 322.5,557.5C 318.392,555.67 318.725,554.67 323.5,554.5C 323.335,551.15 323.502,547.817 324,544.5C 326.228,542.887 328.728,542.22 331.5,542.5C 331.5,543.5 331.5,544.5 331.5,545.5C 330.167,545.5 328.833,545.5 327.5,545.5 Z"/></g>
<g><path style="opacity:1" fill="#454243" d="M 346.5,556.5 C 345.677,553.023 345.177,549.356 345,545.5C 344.333,554.5 344.333,563.5 345,572.5C 345.175,567.981 345.675,563.647 346.5,559.5C 346.5,564.167 346.5,568.833 346.5,573.5C 345.5,573.5 344.5,573.5 343.5,573.5C 343.5,563.833 343.5,554.167 343.5,544.5C 344.5,544.5 345.5,544.5 346.5,544.5C 346.5,548.5 346.5,552.5 346.5,556.5 Z"/></g>
<g><path style="opacity:1" fill="#2a2627" d="M 346.5,556.5 C 351.5,556.5 356.5,556.5 361.5,556.5C 362.166,552.979 362.833,549.313 363.5,545.5C 364.833,554.5 364.833,563.5 363.5,572.5C 362.508,568.217 362.174,563.884 362.5,559.5C 357.167,559.5 351.833,559.5 346.5,559.5C 345.675,563.647 345.175,567.981 345,572.5C 344.333,563.5 344.333,554.5 345,545.5C 345.177,549.356 345.677,553.023 346.5,556.5 Z"/></g>
<g><path style="opacity:1" fill="#393637" d="M 452.5,560.5 C 452.44,559.957 452.107,559.624 451.5,559.5C 450.507,564.12 450.173,568.786 450.5,573.5C 449.5,573.5 448.5,573.5 447.5,573.5C 447.5,563.833 447.5,554.167 447.5,544.5C 448.5,544.5 449.5,544.5 450.5,544.5C 450.176,548.555 450.509,552.555 451.5,556.5C 455.652,552.849 459.652,549.016 463.5,545C 465.167,544.333 466.833,544.333 468.5,545C 464.134,549.701 459.467,554.034 454.5,558C 459.446,562.946 464.446,567.946 469.5,573C 467.833,573.667 466.167,573.667 464.5,573C 460.599,568.663 456.599,564.496 452.5,560.5 Z"/></g>
<g><path style="opacity:1" fill="#858383" d="M 143.5,567.5 C 143.831,560.137 143.497,552.803 142.5,545.5C 141.833,552.321 141.167,558.988 140.5,565.5C 140.5,558.5 140.5,551.5 140.5,544.5C 141.833,544.5 143.167,544.5 144.5,544.5C 144.825,552.352 144.492,560.018 143.5,567.5 Z"/></g>
<g><path style="opacity:1" fill="#747272" d="M 85.5,549.5 C 83.9724,550.802 82.9724,552.469 82.5,554.5C 82.5,552.5 82.5,550.5 82.5,548.5C 83.791,548.263 84.791,548.596 85.5,549.5 Z"/></g>
<g><path style="opacity:1" fill="#2d292a" d="M 85.5,549.5 C 85.5,551.167 85.5,552.833 85.5,554.5C 87.1667,554.5 88.8333,554.5 90.5,554.5C 89.4479,556.256 87.7812,556.923 85.5,556.5C 85.1818,561.032 85.5151,565.366 86.5,569.5C 87.5676,570.434 88.901,570.768 90.5,570.5C 90.5,571.5 90.5,572.5 90.5,573.5C 88.4727,573.662 86.4727,573.495 84.5,573C 83.944,572.617 83.6107,572.117 83.5,571.5C 83.5,566.5 83.5,561.5 83.5,556.5C 81.5168,556.843 80.1834,556.176 79.5,554.5C 80.5,554.5 81.5,554.5 82.5,554.5C 82.9724,552.469 83.9724,550.802 85.5,549.5 Z"/></g>
<g><path style="opacity:1" fill="#282425" d="M 262.5,554.5 C 264.167,554.5 265.833,554.5 267.5,554.5C 266.082,556.308 264.082,556.975 261.5,556.5C 261.182,561.032 261.515,565.366 262.5,569.5C 263.919,570.451 265.585,570.784 267.5,570.5C 267.5,571.5 267.5,572.5 267.5,573.5C 265.05,573.702 262.717,573.369 260.5,572.5C 259.932,567.363 259.266,562.363 258.5,557.5C 257.602,556.842 256.602,556.176 255.5,555.5C 256.325,554.614 257.325,554.281 258.5,554.5C 259.163,552.958 259.83,551.291 260.5,549.5C 261.17,551.291 261.837,552.958 262.5,554.5 Z"/></g>
<g><path style="opacity:1" fill="#8e8c8c" d="M 262.5,554.5 C 261.837,552.958 261.17,551.291 260.5,549.5C 259.83,551.291 259.163,552.958 258.5,554.5C 258.5,552.5 258.5,550.5 258.5,548.5C 259.833,548.5 261.167,548.5 262.5,548.5C 262.5,550.5 262.5,552.5 262.5,554.5 Z"/></g>
<g><path style="opacity:1" fill="#908e8e" d="M 327.5,545.5 C 326.701,548.43 326.368,551.43 326.5,554.5C 325.366,552.034 325.199,549.367 326,546.5C 326.383,545.944 326.883,545.611 327.5,545.5 Z"/></g>
<g><path style="opacity:1" fill="#929090" d="M 224.5,554.5 C 225.568,553.566 226.901,553.232 228.5,553.5C 228.5,554.833 228.5,556.167 228.5,557.5C 227.167,557.5 225.833,557.5 224.5,557.5C 225.398,556.842 226.398,556.176 227.5,555.5C 226.675,554.614 225.675,554.281 224.5,554.5 Z"/></g>
<g><path style="opacity:1" fill="#474445" d="M 72.5,554.5 C 73.5,554.5 74.5,554.5 75.5,554.5C 75.5,560.833 75.5,567.167 75.5,573.5C 74.5,573.5 73.5,573.5 72.5,573.5C 72.5,567.167 72.5,560.833 72.5,554.5 Z"/></g>
<g><path style="opacity:1" fill="#322e2f" d="M 148.5,554.5 C 152.408,554.838 156.408,555.005 160.5,555C 161.942,555.377 162.942,556.21 163.5,557.5C 163.666,562.511 163.499,567.511 163,572.5C 162.824,568.312 162.324,564.312 161.5,560.5C 161.573,558.973 160.906,557.973 159.5,557.5C 156.058,556.828 153.391,557.828 151.5,560.5C 150.834,564.353 150.167,568.353 149.5,572.5C 148.504,566.537 148.171,560.537 148.5,554.5 Z"/></g>
<g><path style="opacity:1" fill="#878585" d="M 169.5,554.5 C 170.167,578.5 170.833,578.5 171.5,554.5C 172.49,560.645 172.823,566.978 172.5,573.5C 171.167,573.5 169.833,573.5 168.5,573.5C 168.177,566.978 168.51,560.645 169.5,554.5 Z"/></g>
<g><path style="opacity:1" fill="#221f1f" d="M 169.5,554.5 C 170.167,554.5 170.833,554.5 171.5,554.5C 170.833,578.5 170.167,578.5 169.5,554.5 Z"/></g>
<g><path style="opacity:1" fill="#2e2a2b" d="M 218.5,554.5 C 220.612,555.275 222.612,555.275 224.5,554.5C 225.675,554.281 226.675,554.614 227.5,555.5C 226.398,556.176 225.398,556.842 224.5,557.5C 223.833,557.833 223.167,558.167 222.5,558.5C 221.883,558.611 221.383,558.944 221,559.5C 220.501,563.821 220.334,568.154 220.5,572.5C 218.547,566.926 217.88,560.926 218.5,554.5 Z"/></g>
<g><path style="opacity:1" fill="#383535" d="M 233.5,554.5 C 237.302,553.88 240.635,554.714 243.5,557C 242.975,557.692 242.308,558.192 241.5,558.5C 238.916,557.607 236.249,557.274 233.5,557.5C 233.33,558.822 233.663,559.989 234.5,561C 237.558,562.015 240.558,563.181 243.5,564.5C 245.382,568.415 244.382,571.248 240.5,573C 237.007,574.004 233.841,573.504 231,571.5C 230.399,570.035 230.899,569.035 232.5,568.5C 235.552,571.311 238.219,571.144 240.5,568C 240.355,567.228 240.022,566.561 239.5,566C 234.988,565.698 231.988,563.531 230.5,559.5C 230.771,557.307 231.771,555.641 233.5,554.5 Z"/></g>
<g><path style="opacity:1" fill="#828080" d="M 248.5,554.5 C 249.167,578.5 249.833,578.5 250.5,554.5C 251.49,560.645 251.823,566.978 251.5,573.5C 250.167,573.5 248.833,573.5 247.5,573.5C 247.177,566.978 247.51,560.645 248.5,554.5 Z"/></g>
<g><path style="opacity:1" fill="#272324" d="M 248.5,554.5 C 249.167,554.5 249.833,554.5 250.5,554.5C 249.833,578.5 249.167,578.5 248.5,554.5 Z"/></g>
<g><path style="opacity:1" fill="#393637" d="M 302.5,554.5 C 313.137,553.382 317.637,558.049 316,568.5C 310.081,575.139 304.248,575.139 298.5,568.5C 296.312,562.649 297.646,557.982 302.5,554.5 Z"/></g>
<g><path style="opacity:1" fill="#373435" d="M 387.5,559.5 C 387.657,560.873 387.49,562.207 387,563.5C 386.768,562.263 386.268,561.263 385.5,560.5C 381.376,556.558 377.209,556.558 373,560.5C 372.529,570.898 376.695,573.232 385.5,567.5C 386.268,566.737 386.768,565.737 387,564.5C 387.49,565.793 387.657,567.127 387.5,568.5C 381.838,575.054 376.172,575.054 370.5,568.5C 367.593,557.906 371.593,553.406 382.5,555C 384.66,555.996 386.327,557.496 387.5,559.5 Z"/></g>
<g><path style="opacity:1" fill="#312d2e" d="M 393.5,554.5 C 397.408,554.838 401.408,555.005 405.5,555C 406.942,555.377 407.942,556.21 408.5,557.5C 408.827,562.544 408.494,567.544 407.5,572.5C 406.672,567.868 406.172,563.202 406,558.5C 405.617,557.944 405.117,557.611 404.5,557.5C 402.473,557.338 400.473,557.505 398.5,558C 397.244,558.417 396.577,559.25 396.5,560.5C 395.834,564.353 395.167,568.353 394.5,572.5C 393.504,566.537 393.171,560.537 393.5,554.5 Z"/></g>
<g><path style="opacity:1" fill="#373334" d="M 418.5,554.5 C 423.242,555.019 427.909,555.019 432.5,554.5C 432.666,562.174 432.5,569.841 432,577.5C 427.402,582.645 421.902,583.812 415.5,581C 414.663,579.989 414.33,578.822 414.5,577.5C 418.263,579.304 422.263,579.804 426.5,579C 429.385,577.067 430.052,574.567 428.5,571.5C 417.604,575.115 412.77,571.115 414,559.5C 415.025,557.313 416.525,555.646 418.5,554.5 Z"/></g>
<g><path style="opacity:1" fill="#3a3637" d="M 474.5,554.5 C 487.436,554.228 491.103,559.728 485.5,571C 473.651,575.5 468.484,571.334 470,558.5C 471.397,556.93 472.897,555.596 474.5,554.5 Z"/></g>
<g><path style="opacity:1" fill="#2e2a2b" d="M 493.5,554.5 C 494.735,554.721 495.735,555.388 496.5,556.5C 500.242,553.852 503.908,553.852 507.5,556.5C 508.735,561.813 508.735,567.147 507.5,572.5C 506.672,567.868 506.172,563.202 506,558.5C 505.617,557.944 505.117,557.611 504.5,557.5C 502.473,557.338 500.473,557.505 498.5,558C 497.244,558.417 496.577,559.25 496.5,560.5C 495.834,564.353 495.167,568.353 494.5,572.5C 493.504,566.537 493.171,560.537 493.5,554.5 Z"/></g>
<g><path style="opacity:1" fill="#383536" d="M 518.5,554.5 C 522.257,554.071 525.757,554.737 529,556.5C 529.71,555.027 530.876,554.36 532.5,554.5C 532.666,562.174 532.5,569.841 532,577.5C 527.402,582.645 521.902,583.812 515.5,581C 514.663,579.989 514.33,578.822 514.5,577.5C 518.263,579.304 522.263,579.804 526.5,579C 529.132,576.934 529.799,574.434 528.5,571.5C 517.604,575.115 512.77,571.115 514,559.5C 515.025,557.313 516.525,555.646 518.5,554.5 Z"/></g>
<g><path style="opacity:1" fill="#8d8c8c" d="M 50.5,550.5 C 47.5581,555.158 46.8914,560.158 48.5,565.5C 47.7784,565.082 47.2784,564.416 47,563.5C 46.3333,560.833 46.3333,558.167 47,555.5C 47.2233,553.119 48.39,551.453 50.5,550.5 Z"/></g>
<g><path style="opacity:1" fill="#656263" d="M 79.5,554.5 C 80.1834,556.176 81.5168,556.843 83.5,556.5C 83.5,561.5 83.5,566.5 83.5,571.5C 82.5139,567.03 82.1805,562.363 82.5,557.5C 81.1667,557.5 79.8333,557.5 78.5,557.5C 78.2627,556.209 78.596,555.209 79.5,554.5 Z"/></g>
<g><path style="opacity:1" fill="#a5a3a4" d="M 90.5,554.5 C 91.404,555.209 91.7373,556.209 91.5,557.5C 89.8333,557.5 88.1667,557.5 86.5,557.5C 86.5,561.5 86.5,565.5 86.5,569.5C 85.5151,565.366 85.1818,561.032 85.5,556.5C 87.7812,556.923 89.4479,556.256 90.5,554.5 Z"/></g>
<g><path style="opacity:1" fill="#8d8b8b" d="M 258.5,557.5 C 259.266,562.363 259.932,567.363 260.5,572.5C 259.883,572.389 259.383,572.056 259,571.5C 258.501,566.845 258.334,562.179 258.5,557.5 Z"/></g>
<g><path style="opacity:1" fill="#807e7e" d="M 267.5,554.5 C 268.404,555.209 268.737,556.209 268.5,557.5C 266.5,557.5 264.5,557.5 262.5,557.5C 262.5,561.5 262.5,565.5 262.5,569.5C 261.515,565.366 261.182,561.032 261.5,556.5C 264.082,556.975 266.082,556.308 267.5,554.5 Z"/></g>
<g><path style="opacity:1" fill="#f0f0f0" d="M 303.5,557.5 C 314.032,556.664 316.699,560.664 311.5,569.5C 303.206,572.037 299.706,569.037 301,560.5C 302.045,559.627 302.878,558.627 303.5,557.5 Z"/></g>
<g><path style="opacity:1" fill="#898687" d="M 329.5,554.5 C 330.404,555.209 330.737,556.209 330.5,557.5C 329.167,557.5 327.833,557.5 326.5,557.5C 326.5,562.833 326.5,568.167 326.5,573.5C 325.167,573.5 323.833,573.5 322.5,573.5C 322.5,568.167 322.5,562.833 322.5,557.5C 323.166,562.349 323.833,567.349 324.5,572.5C 325.495,567.208 325.828,561.875 325.5,556.5C 327.483,556.843 328.817,556.176 329.5,554.5 Z"/></g>
<g><path style="opacity:1" fill="#f5f5f5" d="M 385.5,560.5 C 385.5,562.833 385.5,565.167 385.5,567.5C 376.695,573.232 372.529,570.898 373,560.5C 377.209,556.558 381.376,556.558 385.5,560.5 Z"/></g>
<g><path style="opacity:1" fill="#f3f3f3" d="M 419.5,557.5 C 429.486,556.424 432.153,560.258 427.5,569C 421.35,571.925 417.683,570.092 416.5,563.5C 416.467,560.898 417.467,558.898 419.5,557.5 Z"/></g>
<g><path style="opacity:1" fill="#f5f5f5" d="M 475.5,557.5 C 483.99,555.971 487.157,559.304 485,567.5C 481,571.5 477,571.5 473,567.5C 471.861,563.579 472.695,560.246 475.5,557.5 Z"/></g>
<g><path style="opacity:1" fill="#8a8888" d="M 493.5,554.5 C 493.171,560.537 493.504,566.537 494.5,572.5C 495.167,568.353 495.834,564.353 496.5,560.5C 496.5,564.833 496.5,569.167 496.5,573.5C 495.167,573.5 493.833,573.5 492.5,573.5C 492.177,566.978 492.51,560.645 493.5,554.5 Z"/></g>
<g><path style="opacity:1" fill="#f2f2f2" d="M 519.5,557.5 C 525.632,555.977 528.965,558.31 529.5,564.5C 529.141,568.356 526.974,570.356 523,570.5C 516.851,569.306 514.851,565.639 517,559.5C 517.995,558.934 518.828,558.267 519.5,557.5 Z"/></g>
<g><path style="opacity:1" fill="#302c2d" d="M 213.5,564.5 C 208.5,564.5 203.5,564.5 198.5,564.5C 198.263,565.791 198.596,566.791 199.5,567.5C 199.953,568.458 200.619,569.292 201.5,570C 204.934,570.891 208.101,570.391 211,568.5C 212.726,569.648 212.559,570.815 210.5,572C 199.555,575.059 194.721,570.893 196,559.5C 196.833,557.333 198.333,555.833 200.5,555C 208.971,552.878 213.304,556.045 213.5,564.5 Z"/></g>
<g><path style="opacity:1" fill="#ececec" d="M 209.5,559.5 C 208.306,560.777 206.64,561.444 204.5,561.5C 202.36,561.444 200.694,560.777 199.5,559.5C 202.833,555.5 206.167,555.5 209.5,559.5 Z"/></g>
<g><path style="opacity:1" fill="#817f7f" d="M 346.5,573.5 C 346.5,568.833 346.5,564.167 346.5,559.5C 351.833,559.5 357.167,559.5 362.5,559.5C 362.174,563.884 362.508,568.217 363.5,572.5C 364.833,563.5 364.833,554.5 363.5,545.5C 362.833,549.313 362.166,552.979 361.5,556.5C 361.5,552.5 361.5,548.5 361.5,544.5C 362.833,544.5 364.167,544.5 365.5,544.5C 365.5,554.167 365.5,563.833 365.5,573.5C 364.167,573.5 362.833,573.5 361.5,573.5C 361.5,569.167 361.5,564.833 361.5,560.5C 356.833,560.5 352.167,560.5 347.5,560.5C 347.818,565.032 347.485,569.366 346.5,573.5 Z"/></g>
<g><path style="opacity:1" fill="#b4b3b3" d="M 452.5,560.5 C 451.833,564.833 451.167,569.167 450.5,573.5C 450.173,568.786 450.507,564.12 451.5,559.5C 452.107,559.624 452.44,559.957 452.5,560.5 Z"/></g>
<g><path style="opacity:1" fill="#b5b4b4" d="M 159.5,557.5 C 160.906,557.973 161.573,558.973 161.5,560.5C 161.5,564.833 161.5,569.167 161.5,573.5C 160.741,568.302 160.075,562.969 159.5,557.5 Z"/></g>
<g><path style="opacity:1" fill="#636061" d="M 163.5,557.5 C 164.488,562.64 164.821,567.974 164.5,573.5C 163.5,573.5 162.5,573.5 161.5,573.5C 161.5,569.167 161.5,564.833 161.5,560.5C 162.324,564.312 162.824,568.312 163,572.5C 163.499,567.511 163.666,562.511 163.5,557.5 Z"/></g>
<g><path style="opacity:1" fill="#a2a1a1" d="M 199.5,559.5 C 200.694,560.777 202.36,561.444 204.5,561.5C 206.64,561.444 208.306,560.777 209.5,559.5C 210.404,560.209 210.737,561.209 210.5,562.5C 206.5,562.5 202.5,562.5 198.5,562.5C 198.263,561.209 198.596,560.209 199.5,559.5 Z"/></g>
<g><path style="opacity:1" fill="#a9a8a8" d="M 222.5,558.5 C 221.932,563.637 221.266,568.637 220.5,573.5C 220.5,573.167 220.5,572.833 220.5,572.5C 220.334,568.154 220.501,563.821 221,559.5C 221.383,558.944 221.883,558.611 222.5,558.5 Z"/></g>
<g><path style="opacity:1" fill="#6c6a6a" d="M 387.5,559.5 C 388.833,562.5 388.833,565.5 387.5,568.5C 387.657,567.127 387.49,565.793 387,564.5C 386.768,565.737 386.268,566.737 385.5,567.5C 385.5,565.167 385.5,562.833 385.5,560.5C 386.268,561.263 386.768,562.263 387,563.5C 387.49,562.207 387.657,560.873 387.5,559.5 Z"/></g>
<g><path style="opacity:1" fill="#7e7b7c" d="M 148.5,554.5 C 148.171,560.537 148.504,566.537 149.5,572.5C 150.167,568.353 150.834,564.353 151.5,560.5C 151.5,564.833 151.5,569.167 151.5,573.5C 150.167,573.5 148.833,573.5 147.5,573.5C 147.177,566.978 147.51,560.645 148.5,554.5 Z"/></g>
<g><path style="opacity:1" fill="#b7b6b6" d="M 213.5,564.5 C 208.579,564.862 203.913,565.862 199.5,567.5C 198.596,566.791 198.263,565.791 198.5,564.5C 203.5,564.5 208.5,564.5 213.5,564.5 Z"/></g>
<g><path style="opacity:1" fill="#8d8b8b" d="M 393.5,554.5 C 393.171,560.537 393.504,566.537 394.5,572.5C 395.167,568.353 395.834,564.353 396.5,560.5C 396.5,564.833 396.5,569.167 396.5,573.5C 395.167,573.5 393.833,573.5 392.5,573.5C 392.177,566.978 392.51,560.645 393.5,554.5 Z"/></g>
<g><path style="opacity:1" fill="#828081" d="M 404.5,557.5 C 405.117,557.611 405.617,557.944 406,558.5C 406.172,563.202 406.672,567.868 407.5,572.5C 408.494,567.544 408.827,562.544 408.5,557.5C 409.488,562.64 409.821,567.974 409.5,573.5C 408.167,573.5 406.833,573.5 405.5,573.5C 405.733,568.105 405.4,562.772 404.5,557.5 Z"/></g>
<g><path style="opacity:1" fill="#878585" d="M 507.5,556.5 C 508.117,556.611 508.617,556.944 509,557.5C 509.499,562.823 509.666,568.156 509.5,573.5C 508.167,573.5 506.833,573.5 505.5,573.5C 505.733,568.105 505.4,562.772 504.5,557.5C 505.117,557.611 505.617,557.944 506,558.5C 506.172,563.202 506.672,567.868 507.5,572.5C 508.735,567.147 508.735,561.813 507.5,556.5 Z"/></g>
<g><path style="opacity:1" fill="#3e3a3b" d="M 94.5,554.5 C 95.8333,554.5 97.1667,554.5 98.5,554.5C 99.8516,559.216 101.518,563.882 103.5,568.5C 105.569,563.959 107.235,559.293 108.5,554.5C 109.5,554.5 110.5,554.5 111.5,554.5C 109.214,562.599 106.714,570.599 104,578.5C 101.761,581.962 98.594,583.295 94.5,582.5C 94.5,581.5 94.5,580.5 94.5,579.5C 99.2424,579.733 101.576,577.4 101.5,572.5C 99.1709,566.534 96.8376,560.534 94.5,554.5 Z"/></g>
<g><path style="opacity:1" fill="#3c393a" d="M 176.5,554.5 C 177.978,554.238 179.311,554.571 180.5,555.5C 181.578,560.067 183.244,564.4 185.5,568.5C 187.569,563.959 189.235,559.293 190.5,554.5C 191.675,554.281 192.675,554.614 193.5,555.5C 191.485,561.522 189.485,567.522 187.5,573.5C 186.022,573.762 184.689,573.429 183.5,572.5C 180.854,566.543 178.52,560.543 176.5,554.5 Z"/></g>
<g><path style="opacity:1" fill="#393536" d="M 270.5,554.5 C 272.592,554.561 274.092,555.561 275,557.5C 276.405,561.217 277.905,564.883 279.5,568.5C 281.569,563.959 283.235,559.293 284.5,554.5C 285.5,554.5 286.5,554.5 287.5,554.5C 284.998,562.349 282.331,570.182 279.5,578C 277.802,581.964 274.802,583.464 270.5,582.5C 270.5,581.5 270.5,580.5 270.5,579.5C 274.924,580.013 277.257,578.013 277.5,573.5C 275.623,566.984 273.289,560.651 270.5,554.5 Z"/></g>
<g><path style="opacity:1" fill="#6e6b6c" d="M 218.5,554.5 C 217.88,560.926 218.547,566.926 220.5,572.5C 220.5,572.833 220.5,573.167 220.5,573.5C 219.5,573.5 218.5,573.5 217.5,573.5C 217.177,566.978 217.51,560.645 218.5,554.5 Z"/></g>
</svg>
