<?xml version="1.0" encoding="UTF-8"?>
<!DOCTYPE svg PUBLIC "-//W3C//DTD SVG 1.1//EN" "http://www.w3.org/Graphics/SVG/1.1/DTD/svg11.dtd">
<svg xmlns="http://www.w3.org/2000/svg" version="1.1" width="240px" height="240px" style="shape-rendering:geometricPrecision; text-rendering:geometricPrecision; image-rendering:optimizeQuality; fill-rule:evenodd; clip-rule:evenodd" xmlns:xlink="http://www.w3.org/1999/xlink">
<g><path style="opacity:1" fill="#fcfdfc" d="M -0.5,-0.5 C 79.5,-0.5 159.5,-0.5 239.5,-0.5C 239.5,79.5 239.5,159.5 239.5,239.5C 159.5,239.5 79.5,239.5 -0.5,239.5C -0.5,159.5 -0.5,79.5 -0.5,-0.5 Z"/></g>
<g><path style="opacity:1" fill="#d2e6d9" d="M 137.5,7.5 C 126.153,6.24554 114.819,6.24554 103.5,7.5C 108.624,6.17144 114.124,5.50478 120,5.5C 125.5,5.66667 131,5.83333 136.5,6C 137.056,6.38258 137.389,6.88258 137.5,7.5 Z"/></g>
<g><path style="opacity:1" fill="#105828" d="M 137.5,7.5 C 191.24,19.4057 223.073,52.4057 233,106.5C 236.17,161.62 213.003,201.12 163.5,225C 156.553,227.483 149.553,229.65 142.5,231.5C 137.332,231.934 132.332,232.6 127.5,233.5C 78.1277,234.583 41.6277,213.583 18,170.5C -3.35436,121.289 4.14564,77.1223 40.5,38C 58.32,21.4243 79.32,11.2576 103.5,7.5C 114.819,6.24554 126.153,6.24554 137.5,7.5 Z"/></g>
<g><path style="opacity:1" fill="#dfece2" d="M 129.5,14.5 C 179.541,21.0405 211.041,48.7072 224,97.5C 231.356,148.493 213.189,187.326 169.5,214C 125.889,234.671 85.5557,229.671 48.5,199C 17.781,168.003 7.61431,131.17 18,88.5C 32.0497,48.277 59.8831,23.9436 101.5,15.5C 110.818,14.8167 120.151,14.4833 129.5,14.5 Z"/></g>
<g><path style="opacity:1" fill="#295b35" d="M 107.5,16.5 C 160.954,14.6265 197.787,38.2932 218,87.5C 229.686,129.917 219.853,166.417 188.5,197C 159.73,220.931 127.063,228.265 90.5,219C 40.8233,200.505 16.3233,164.672 17,111.5C 22.9152,66.1373 47.4152,35.9706 90.5,21C 96.2943,19.4906 101.961,17.9906 107.5,16.5 Z"/></g>
<g><path style="opacity:1" fill="#1f5930" d="M 193.5,175.5 C 193.5,175.833 193.5,176.167 193.5,176.5C 192.524,177.815 191.524,179.148 190.5,180.5C 186.986,177.253 183.32,174.253 179.5,171.5C 178.833,170.833 178.167,170.167 177.5,169.5C 177.833,168.833 178.167,168.167 178.5,167.5C 179.167,167.5 179.833,167.5 180.5,167.5C 181.973,168.74 183.64,169.74 185.5,170.5C 186.113,169.02 186.446,167.687 186.5,166.5C 188.028,167.861 189.695,169.028 191.5,170C 190.207,170.49 188.873,170.657 187.5,170.5C 188.243,173.57 190.243,175.236 193.5,175.5 Z"/></g>
<g><path style="opacity:1" fill="#5c7e67" d="M 180.5,167.5 C 179.833,167.5 179.167,167.5 178.5,167.5C 179.752,165.999 180.752,164.332 181.5,162.5C 183.872,159.979 186.205,160.146 188.5,163C 184.813,162.931 182.146,164.431 180.5,167.5 Z"/></g>
<g><path style="opacity:1" fill="#165328" d="M 201.5,134.5 C 206.835,134.005 209.335,136.338 209,141.5C 208.519,139.522 207.353,138.189 205.5,137.5C 203.194,139.139 201.194,141.139 199.5,143.5C 197.591,144.348 195.591,144.682 193.5,144.5C 192.833,143.5 192.167,142.5 191.5,141.5C 191.5,140.833 191.833,140.5 192.5,140.5C 193.002,142.085 194.002,142.585 195.5,142C 197.334,139.337 199.334,136.837 201.5,134.5 Z"/></g>
<g><path style="opacity:1" fill="#bcd9c7" d="M 193.5,127.5 C 198.59,129.144 203.923,130.144 209.5,130.5C 208.167,130.5 206.833,130.5 205.5,130.5C 201.429,130.234 197.429,130.567 193.5,131.5C 192.218,130.042 192.218,128.708 193.5,127.5 Z"/></g>
<g><path style="opacity:1" fill="#17572b" d="M 210.5,130.5 C 210.167,130.5 209.833,130.5 209.5,130.5C 203.923,130.144 198.59,129.144 193.5,127.5C 193.5,127.167 193.5,126.833 193.5,126.5C 198.975,125.511 204.642,125.178 210.5,125.5C 210.5,127.167 210.5,128.833 210.5,130.5 Z"/></g>
<g><path style="opacity:1" fill="#bad4c2" d="M 210.5,130.5 C 210.5,128.833 210.5,127.167 210.5,125.5C 204.642,125.178 198.975,125.511 193.5,126.5C 192.662,126.158 192.328,125.492 192.5,124.5C 198.561,124.79 204.561,124.457 210.5,123.5C 211.797,125.973 211.797,128.307 210.5,130.5 Z"/></g>
<g><path style="opacity:1" fill="#b9d2c2" d="M 202.5,115.5 C 200.444,116.199 198.444,117.199 196.5,118.5C 197.263,119.719 198.263,120.719 199.5,121.5C 198.675,122.386 197.675,122.719 196.5,122.5C 195.85,120.565 195.517,118.565 195.5,116.5C 197.764,115.781 200.097,115.448 202.5,115.5 Z"/></g>
<g><path style="opacity:1" fill="#608872" d="M 193.5,114.5 C 194.167,115.167 194.833,115.833 195.5,116.5C 195.517,118.565 195.85,120.565 196.5,122.5C 195.1,121.9 194.1,120.9 193.5,119.5C 193.5,117.833 193.5,116.167 193.5,114.5 Z"/></g>
<g><path style="opacity:1" fill="#89aa94" d="M 210.5,111.5 C 211.434,112.568 211.768,113.901 211.5,115.5C 209.833,115.5 208.167,115.5 206.5,115.5C 207.568,114.566 208.901,114.232 210.5,114.5C 210.5,113.5 210.5,112.5 210.5,111.5 Z"/></g>
<g><path style="opacity:1" fill="#175829" d="M 210.5,111.5 C 210.5,112.5 210.5,113.5 210.5,114.5C 208.901,114.232 207.568,114.566 206.5,115.5C 205.167,115.5 203.833,115.5 202.5,115.5C 200.097,115.448 197.764,115.781 195.5,116.5C 194.833,115.833 194.167,115.167 193.5,114.5C 193.5,114.167 193.5,113.833 193.5,113.5C 193.441,111.235 194.274,110.902 196,112.5C 199.794,111.77 203.627,111.27 207.5,111C 208.667,110.5 209.5,109.667 210,108.5C 210.483,109.448 210.649,110.448 210.5,111.5 Z"/></g>
<g><path style="opacity:1" fill="#436956" d="M 192.5,109.5 C 192.5,108.833 192.5,108.167 192.5,107.5C 193.738,106.588 195.072,106.421 196.5,107C 195.529,108.481 194.196,109.315 192.5,109.5 Z"/></g>
<g><path style="opacity:1" fill="#547a60" d="M 189.5,89.5 C 191.663,90.4691 193.996,91.3024 196.5,92C 194.623,92.5758 192.789,92.4091 191,91.5C 189.989,92.0556 189.156,92.7222 188.5,93.5C 188.461,92.4168 188.127,91.4168 187.5,90.5C 187.957,89.7025 188.624,89.3691 189.5,89.5 Z"/></g>
<g><path style="opacity:1" fill="#c2dbc9" d="M 89.5,23.5 C 86.0317,26.2281 82.0317,27.8948 77.5,28.5C 81.0986,26.0723 85.0986,24.4056 89.5,23.5 Z"/></g>
<g><path style="opacity:1" fill="#f8faf9" d="M 210.5,75.5 C 209.58,77.8809 209.58,80.2143 210.5,82.5C 209.423,84.9123 208.256,87.2457 207,89.5C 201.735,90.6379 195.901,90.6379 189.5,89.5C 188.624,89.3691 187.957,89.7025 187.5,90.5C 188.127,91.4168 188.461,92.4168 188.5,93.5C 188.21,97.3243 189.21,100.658 191.5,103.5C 191.433,104.959 191.766,106.292 192.5,107.5C 192.5,108.167 192.5,108.833 192.5,109.5C 192.232,111.099 192.566,112.432 193.5,113.5C 193.5,113.833 193.5,114.167 193.5,114.5C 193.5,116.167 193.5,117.833 193.5,119.5C 192.962,121.117 192.629,122.784 192.5,124.5C 192.328,125.492 192.662,126.158 193.5,126.5C 193.5,126.833 193.5,127.167 193.5,127.5C 192.218,128.708 192.218,130.042 193.5,131.5C 197.429,130.567 201.429,130.234 205.5,130.5C 203.861,131.473 202.527,132.806 201.5,134.5C 199.334,136.837 197.334,139.337 195.5,142C 194.002,142.585 193.002,142.085 192.5,140.5C 192.595,137.728 193.929,135.728 196.5,134.5C 195.311,133.571 193.978,133.238 192.5,133.5C 192.276,135.787 191.609,137.953 190.5,140C 190.57,140.765 190.903,141.265 191.5,141.5C 192.167,142.5 192.833,143.5 193.5,144.5C 191.782,145.224 189.948,145.891 188,146.5C 187.506,148.134 187.34,149.801 187.5,151.5C 185.965,152.844 184.632,154.511 183.5,156.5C 184.872,158.62 184.205,159.62 181.5,159.5C 181.5,160.5 181.5,161.5 181.5,162.5C 180.752,164.332 179.752,165.999 178.5,167.5C 178.167,168.167 177.833,168.833 177.5,169.5C 176.188,170.145 175.188,171.145 174.5,172.5C 176.533,176.162 177.2,179.829 176.5,183.5C 172.856,182.345 169.523,180.678 166.5,178.5C 164.139,178.326 161.806,177.993 159.5,177.5C 159.5,179.5 159.5,181.5 159.5,183.5C 158.711,183.783 158.044,184.283 157.5,185C 159.653,188.808 161.653,192.642 163.5,196.5C 163.5,198.167 163.5,199.833 163.5,201.5C 162.448,201.649 161.448,201.483 160.5,201C 159.167,200.333 159.167,199.667 160.5,199C 159.756,197.961 158.756,197.461 157.5,197.5C 155.628,194.083 154.628,190.417 154.5,186.5C 153.325,186.281 152.325,186.614 151.5,187.5C 153.607,190.479 154.607,193.479 154.5,196.5C 151.528,194.678 148.528,192.844 145.5,191C 143.735,190.36 142.068,190.527 140.5,191.5C 138.821,191.892 137.154,192.392 135.5,193C 137.625,198.01 137.958,203.176 136.5,208.5C 135.264,209.246 133.93,209.579 132.5,209.5C 130.034,205.982 129.034,201.982 129.5,197.5C 130.451,196.081 130.784,194.415 130.5,192.5C 129.07,192.579 127.736,192.246 126.5,191.5C 125.167,192.5 123.833,193.5 122.5,194.5C 123.7,198.992 125.034,203.326 126.5,207.5C 126.856,209.19 127.856,210.19 129.5,210.5C 135.8,212.671 139.134,210.337 139.5,203.5C 138.947,200.183 138.614,196.85 138.5,193.5C 139.5,193.5 140.5,193.5 141.5,193.5C 141.833,194.167 142.167,194.833 142.5,195.5C 143.91,199.397 144.91,203.397 145.5,207.5C 146.552,207.649 147.552,207.483 148.5,207C 146.69,203.214 145.023,199.381 143.5,195.5C 143.435,195.062 143.601,194.728 144,194.5C 147.812,197.312 151.646,199.979 155.5,202.5C 157.203,204.141 159.37,205.141 162,205.5C 164.11,200.595 167.61,199.262 172.5,201.5C 172.5,202.833 172.5,204.167 172.5,205.5C 160.166,213.822 146.499,218.489 131.5,219.5C 123.16,219.666 114.827,219.5 106.5,219C 104.744,218.798 103.078,218.298 101.5,217.5C 104.785,216.676 108.118,216.176 111.5,216C 110.978,215.439 110.645,214.772 110.5,214C 111.885,212.403 112.551,210.57 112.5,208.5C 112.5,207.5 112.5,206.5 112.5,205.5C 114.175,202.493 114.841,199.16 114.5,195.5C 115.675,195.719 116.675,195.386 117.5,194.5C 115.579,193.359 113.579,193.192 111.5,194C 112.357,194.689 113.023,195.522 113.5,196.5C 112.787,198.776 112.287,201.109 112,203.5C 111.617,202.944 111.117,202.611 110.5,202.5C 109.293,199.394 107.793,196.394 106,193.5C 105.329,192.748 104.496,192.414 103.5,192.5C 100.785,190.928 97.7846,189.928 94.5,189.5C 92.351,188.264 90.0177,187.264 87.5,186.5C 87.1583,185.662 86.4916,185.328 85.5,185.5C 83.8333,184.5 82.5,183.167 81.5,181.5C 79.0521,180.527 76.3854,180.194 73.5,180.5C 73.557,184.133 72.557,184.3 70.5,181C 71.2551,178.867 72.5884,177.2 74.5,176C 73.552,175.517 72.552,175.351 71.5,175.5C 71.762,174.022 71.4287,172.689 70.5,171.5C 67.1358,170.279 66.1358,168.113 67.5,165C 65.3213,163.858 62.9879,163.025 60.5,162.5C 59.2888,161.726 59.2888,160.893 60.5,160C 58.6498,159.31 57.3164,158.144 56.5,156.5C 56.3893,155.883 56.056,155.383 55.5,155C 52.1832,154.502 48.8499,154.335 45.5,154.5C 47.2446,151.348 49.2446,148.348 51.5,145.5C 51.5472,144 50.8805,143 49.5,142.5C 47.0077,145.163 44.6744,147.996 42.5,151C 40.1053,151.681 37.772,152.515 35.5,153.5C 36.4565,155.075 37.1231,156.742 37.5,158.5C 38.0906,159.151 38.7573,159.818 39.5,160.5C 38.3473,161.687 38.3473,162.687 39.5,163.5C 39.811,164.478 40.4777,165.145 41.5,165.5C 42.6199,164.167 43.9532,163.667 45.5,164C 46.7577,165.741 47.7577,167.574 48.5,169.5C 47.2112,170.637 46.2112,171.97 45.5,173.5C 45.4663,182.292 43.133,183.292 38.5,176.5C 41.2057,173.321 40.7057,170.654 37,168.5C 36.5172,169.448 36.3505,170.448 36.5,171.5C 35.5,171.5 34.5,171.5 33.5,171.5C 18.8486,146.101 15.3486,119.101 23,90.5C 32.5654,62.1113 50.7321,41.4447 77.5,28.5C 82.0317,27.8948 86.0317,26.2281 89.5,23.5C 132.759,12.1984 169.259,23.1984 199,56.5C 203.483,62.4737 207.317,68.8071 210.5,75.5 Z"/></g>
<g><path style="opacity:1" fill="#1f5c30" d="M 45.5,173.5 C 46.2112,171.97 47.2112,170.637 48.5,169.5C 49.4013,168.71 50.0679,167.71 50.5,166.5C 53.3976,164.227 53.0642,162.727 49.5,162C 52.4648,160.502 55.4648,160.335 58.5,161.5C 54.704,166.462 51.5373,171.795 49,177.5C 48.0513,175.907 46.8846,174.574 45.5,173.5 Z"/></g>
<g><path style="opacity:1" fill="#5d896f" d="M 50.5,166.5 C 50.0679,167.71 49.4013,168.71 48.5,169.5C 47.7577,167.574 46.7577,165.741 45.5,164C 43.9532,163.667 42.6199,164.167 41.5,165.5C 40.4777,165.145 39.811,164.478 39.5,163.5C 42.0241,162.2 44.6908,162.2 47.5,163.5C 47.8793,165.213 48.8793,166.213 50.5,166.5 Z"/></g>
<g><path style="opacity:1" fill="#759985" d="M 42.5,155.5 C 43.209,154.596 44.209,154.263 45.5,154.5C 48.8499,154.335 52.1832,154.502 55.5,155C 56.056,155.383 56.3893,155.883 56.5,156.5C 56.2648,157.097 55.7648,157.43 55,157.5C 50.8668,156.6 46.7001,155.933 42.5,155.5 Z"/></g>
<g><path style="opacity:1" fill="#235d33" d="M 45.5,154.5 C 44.209,154.263 43.209,154.596 42.5,155.5C 40.7798,156.308 39.1131,157.308 37.5,158.5C 37.1231,156.742 36.4565,155.075 35.5,153.5C 37.772,152.515 40.1053,151.681 42.5,151C 44.6744,147.996 47.0077,145.163 49.5,142.5C 50.8805,143 51.5472,144 51.5,145.5C 49.2446,148.348 47.2446,151.348 45.5,154.5 Z"/></g>
<g><path style="opacity:1" fill="#17582a" d="M 150.5,90.5 C 154.458,92.1559 158.458,93.8225 162.5,95.5C 177.539,107.703 181.039,122.703 173,140.5C 166.542,151.15 157.042,156.817 144.5,157.5C 141.9,167.93 135.233,174.096 124.5,176C 109.906,177.701 99.9059,171.701 94.5,158C 73.0145,154.212 62.5145,141.378 63,119.5C 66.6218,101.712 77.4551,91.7123 95.5,89.5C 101.55,73.6431 112.884,68.1431 129.5,73C 137.255,76.4206 142.588,82.0872 145.5,90C 147.134,90.4935 148.801,90.6602 150.5,90.5 Z"/></g>
<g><path style="opacity:1" fill="#5f866f" d="M 192.5,140.5 C 191.833,140.5 191.5,140.833 191.5,141.5C 190.903,141.265 190.57,140.765 190.5,140C 191.609,137.953 192.276,135.787 192.5,133.5C 193.978,133.238 195.311,133.571 196.5,134.5C 193.929,135.728 192.595,137.728 192.5,140.5 Z"/></g>
<g><path style="opacity:1" fill="#7ea68b" d="M 32.5,133.5 C 34.5,134.833 36.5,134.833 38.5,133.5C 41.5788,133.74 44.5788,133.407 47.5,132.5C 48.3857,133.325 48.719,134.325 48.5,135.5C 42.7945,135.829 37.1278,135.495 31.5,134.5C 31.6236,133.893 31.9569,133.56 32.5,133.5 Z"/></g>
<g><path style="opacity:1" fill="#175629" d="M 46.5,120.5 C 47.4511,121.919 47.7845,123.585 47.5,125.5C 44.4744,128.195 41.4744,130.862 38.5,133.5C 36.5,134.833 34.5,134.833 32.5,133.5C 36.1408,130.195 39.8075,126.862 43.5,123.5C 44.3382,123.158 44.6716,122.492 44.5,121.5C 45.4916,121.672 46.1583,121.338 46.5,120.5 Z"/></g>
<g><path style="opacity:1" fill="#5f876d" d="M 44.5,121.5 C 44.6716,122.492 44.3382,123.158 43.5,123.5C 39.2878,122.003 35.1211,122.336 31,124.5C 30.3333,123.167 30.3333,121.833 31,120.5C 35.4014,121.467 39.9014,121.8 44.5,121.5 Z"/></g>
<g><path style="opacity:1" fill="#4a7359" d="M 41.5,105.5 C 39.396,105.201 37.396,105.534 35.5,106.5C 36.2427,107.182 36.9094,107.849 37.5,108.5C 32.7589,108.161 31.4256,110.161 33.5,114.5C 37.2608,116.146 41.2608,117.146 45.5,117.5C 46.6473,117.182 47.4806,116.516 48,115.5C 48.8075,119.027 48.6408,122.36 47.5,125.5C 47.7845,123.585 47.4511,121.919 46.5,120.5C 46.3893,119.883 46.056,119.383 45.5,119C 40.6135,119.13 36.1135,117.964 32,115.5C 29.4865,106.182 32.6532,102.849 41.5,105.5 Z"/></g>
<g><path style="opacity:1" fill="#135827" d="M 41.5,105.5 C 44.1667,105.5 46.8333,105.5 49.5,105.5C 49.7852,107.288 49.4519,108.955 48.5,110.5C 44.9284,109.319 41.2617,108.652 37.5,108.5C 36.9094,107.849 36.2427,107.182 35.5,106.5C 37.396,105.534 39.396,105.201 41.5,105.5 Z"/></g>
<g><path style="opacity:1" fill="#d7e8dc" d="M 114.5,75.5 C 128.851,74.5511 137.851,80.8845 141.5,94.5C 155.646,94.1575 165.48,100.491 171,113.5C 175.511,137.482 165.677,150.815 141.5,153.5C 137.509,167.671 128.176,173.504 113.5,171C 105.412,168.335 100.412,162.835 98.5,154.5C 75.7796,151.283 65.6129,138.283 68,115.5C 73.3767,101.634 83.5433,94.6341 98.5,94.5C 100.211,85.122 105.544,78.7886 114.5,75.5 Z"/></g>
<g><path style="opacity:1" fill="#225d33" d="M 91.5,128.5 C 98.175,128.334 104.842,128.5 111.5,129C 109.167,129.333 106.833,129.667 104.5,130C 105.044,130.717 105.711,131.217 106.5,131.5C 106.783,132.289 107.283,132.956 108,133.5C 108.5,140.492 108.666,147.492 108.5,154.5C 109.5,154.5 110.5,154.5 111.5,154.5C 112.087,148.697 111.42,143.197 109.5,138C 110.094,137.536 110.761,137.369 111.5,137.5C 112.5,137.5 113.5,137.5 114.5,137.5C 114.238,138.978 114.571,140.311 115.5,141.5C 117.111,140.68 117.778,139.346 117.5,137.5C 118.833,137.5 120.167,137.5 121.5,137.5C 122.823,142.067 124.156,142.234 125.5,138C 126.448,137.517 127.448,137.351 128.5,137.5C 128.58,142.858 128.58,148.525 128.5,154.5C 129.5,154.5 130.5,154.5 131.5,154.5C 133.374,155.285 135.374,155.952 137.5,156.5C 135.683,163.148 131.35,167.315 124.5,169C 110.597,170.606 102.597,164.439 100.5,150.5C 96.2984,150.817 92.2984,150.483 88.5,149.5C 93.5,149.5 98.5,149.5 103.5,149.5C 103.5,148.167 103.5,146.833 103.5,145.5C 102.659,144.074 101.659,142.74 100.5,141.5C 102.5,141.5 104.5,141.5 106.5,141.5C 106.726,138.751 106.393,136.084 105.5,133.5C 103.385,131.385 101.051,131.051 98.5,132.5C 98.1667,132.5 97.8333,132.5 97.5,132.5C 97.9528,131.542 98.6195,130.708 99.5,130C 97.1902,129.503 94.8568,129.337 92.5,129.5C 91.8333,129.5 91.5,129.167 91.5,128.5 Z"/></g>
<g><path style="opacity:1" fill="#eaf3ec" d="M 103.5,156.5 C 114.167,156.5 124.833,156.5 135.5,156.5C 134.93,160.912 132.597,164.078 128.5,166C 116.976,170.553 108.643,167.387 103.5,156.5 Z"/></g>
<g><path style="opacity:1" fill="#779c86" d="M 115.5,158.5 C 116.5,158.5 117.5,158.5 118.5,158.5C 119.158,162.677 117.492,164.177 113.5,163C 114.267,161.53 114.933,160.03 115.5,158.5 Z"/></g>
<g><path style="opacity:1" fill="#29563a" d="M 125.5,158.5 C 127.134,159.207 128.468,160.373 129.5,162C 126.828,162.485 125.495,161.318 125.5,158.5 Z"/></g>
<g><path style="opacity:1" fill="#3b5443" d="M 111.5,159.5 C 112.776,160.386 112.776,161.386 111.5,162.5C 110.913,161.767 110.913,160.767 111.5,159.5 Z"/></g>
<g><path style="opacity:1" fill="#517e62" d="M 119.5,158.5 C 122.91,158.384 124.244,160.05 123.5,163.5C 122.022,163.762 120.689,163.429 119.5,162.5C 120.363,161.274 120.363,159.94 119.5,158.5 Z"/></g>
<g><path style="opacity:1" fill="#e0f0df" d="M 103.5,145.5 C 103.821,143.952 104.821,143.285 106.5,143.5C 106.823,147.226 106.489,150.893 105.5,154.5C 104.833,151.358 104.166,148.358 103.5,145.5 Z"/></g>
<g><path style="opacity:1" fill="#366e48" d="M 135.5,130.5 C 135.5,130.833 135.5,131.167 135.5,131.5C 133.701,134.505 133.034,137.838 133.5,141.5C 135.5,141.5 137.5,141.5 139.5,141.5C 138.313,142.534 137.48,143.867 137,145.5C 136.819,148.695 136.319,151.695 135.5,154.5C 135.211,150.894 135.544,147.394 136.5,144C 135.552,143.517 134.552,143.351 133.5,143.5C 133.5,147.167 133.5,150.833 133.5,154.5C 132.833,154.5 132.167,154.5 131.5,154.5C 131.334,147.159 131.5,139.826 132,132.5C 132.383,131.944 132.883,131.611 133.5,131.5C 134.167,131.167 134.833,130.833 135.5,130.5 Z"/></g>
<g><path style="opacity:1" fill="#eef9f3" d="M 135.5,154.5 C 134.833,154.5 134.167,154.5 133.5,154.5C 133.5,150.833 133.5,147.167 133.5,143.5C 134.552,143.351 135.552,143.517 136.5,144C 135.544,147.394 135.211,150.894 135.5,154.5 Z"/></g>
<g><path style="opacity:1" fill="#e4f0e8" d="M 112.5,132.5 C 111.566,133.568 111.232,134.901 111.5,136.5C 111.5,136.833 111.5,137.167 111.5,137.5C 110.761,137.369 110.094,137.536 109.5,138C 111.42,143.197 112.087,148.697 111.5,154.5C 110.5,154.5 109.5,154.5 108.5,154.5C 108.666,147.492 108.5,140.492 108,133.5C 107.283,132.956 106.783,132.289 106.5,131.5C 107.274,130.853 108.274,130.52 109.5,130.5C 111.03,130.64 112.03,131.307 112.5,132.5 Z"/></g>
<g><path style="opacity:1" fill="#f4f9f5" d="M 117.5,141.5 C 120.044,141.104 122.211,141.771 124,143.5C 124.499,147.152 124.665,150.818 124.5,154.5C 121.5,154.5 118.5,154.5 115.5,154.5C 114.975,149.86 115.642,145.527 117.5,141.5 Z"/></g>
<g><path style="opacity:1" fill="#075626" d="M 167.5,113.5 C 172.758,129.539 167.758,141.373 152.5,149C 148.249,150.195 143.915,150.695 139.5,150.5C 139.405,152.786 138.738,154.786 137.5,156.5C 135.374,155.952 133.374,155.285 131.5,154.5C 132.167,154.5 132.833,154.5 133.5,154.5C 134.167,154.5 134.833,154.5 135.5,154.5C 136.319,151.695 136.819,148.695 137,145.5C 137.48,143.867 138.313,142.534 139.5,141.5C 139.462,138.819 140.129,136.319 141.5,134C 140.056,131.966 138.056,131.132 135.5,131.5C 135.5,131.167 135.5,130.833 135.5,130.5C 133.031,129.683 130.365,129.183 127.5,129C 131.821,128.501 136.154,128.334 140.5,128.5C 140.5,128.833 140.5,129.167 140.5,129.5C 140.062,129.435 139.728,129.601 139.5,130C 141.291,132.099 143.291,132.599 145.5,131.5C 147.441,131.131 149.275,130.464 151,129.5C 151.903,125.195 153.737,121.361 156.5,118C 159.101,117.08 161.768,116.413 164.5,116C 165.691,115.302 166.691,114.469 167.5,113.5 Z"/></g>
<g><path style="opacity:1" fill="#075726" d="M 71.5,115.5 C 74.1667,115.5 76.8333,115.5 79.5,115.5C 84.4356,116.771 87.7689,119.771 89.5,124.5C 89.5,125.167 89.5,125.833 89.5,126.5C 89.5,127.833 90.1667,128.5 91.5,128.5C 91.5,129.167 91.8333,129.5 92.5,129.5C 93.6594,131.25 95.326,132.25 97.5,132.5C 97.8333,132.5 98.1667,132.5 98.5,132.5C 99.9205,135.261 100.587,138.261 100.5,141.5C 101.659,142.74 102.659,144.074 103.5,145.5C 103.5,146.833 103.5,148.167 103.5,149.5C 98.5,149.5 93.5,149.5 88.5,149.5C 76.8381,144.882 70.5047,136.215 69.5,123.5C 69.5637,120.65 70.2304,117.983 71.5,115.5 Z"/></g>
<g><path style="opacity:1" fill="#e8f1eb" d="M 135.5,131.5 C 138.056,131.132 140.056,131.966 141.5,134C 140.129,136.319 139.462,138.819 139.5,141.5C 137.5,141.5 135.5,141.5 133.5,141.5C 133.034,137.838 133.701,134.505 135.5,131.5 Z"/></g>
<g><path style="opacity:1" fill="#d8e8dc" d="M 133.5,131.5 C 132.883,131.611 132.383,131.944 132,132.5C 131.5,139.826 131.334,147.159 131.5,154.5C 130.5,154.5 129.5,154.5 128.5,154.5C 128.58,148.525 128.58,142.858 128.5,137.5C 128.5,137.167 128.5,136.833 128.5,136.5C 128.768,134.901 128.434,133.568 127.5,132.5C 127.97,131.307 128.97,130.64 130.5,130.5C 131.726,130.52 132.726,130.853 133.5,131.5 Z"/></g>
<g><path style="opacity:1" fill="#add1b9" d="M 111.5,137.5 C 111.5,137.167 111.5,136.833 111.5,136.5C 117.167,136.5 122.833,136.5 128.5,136.5C 128.5,136.833 128.5,137.167 128.5,137.5C 127.448,137.351 126.448,137.517 125.5,138C 124.156,142.234 122.823,142.067 121.5,137.5C 120.167,137.5 118.833,137.5 117.5,137.5C 117.778,139.346 117.111,140.68 115.5,141.5C 114.571,140.311 114.238,138.978 114.5,137.5C 113.5,137.5 112.5,137.5 111.5,137.5 Z"/></g>
<g><path style="opacity:1" fill="#eaf3ed" d="M 100.5,141.5 C 100.587,138.261 99.9205,135.261 98.5,132.5C 101.051,131.051 103.385,131.385 105.5,133.5C 106.393,136.084 106.726,138.751 106.5,141.5C 104.5,141.5 102.5,141.5 100.5,141.5 Z"/></g>
<g><path style="opacity:1" fill="#b6d5be" d="M 92.5,129.5 C 94.8568,129.337 97.1902,129.503 99.5,130C 98.6195,130.708 97.9528,131.542 97.5,132.5C 95.326,132.25 93.6594,131.25 92.5,129.5 Z"/></g>
<g><path style="opacity:1" fill="#b8dec3" d="M 140.5,129.5 C 142.527,129.338 144.527,129.505 146.5,130C 145.944,130.383 145.611,130.883 145.5,131.5C 143.291,132.599 141.291,132.099 139.5,130C 139.728,129.601 140.062,129.435 140.5,129.5 Z"/></g>
<g><path style="opacity:1" fill="#155829" d="M 113.5,103.5 C 114.5,103.5 115.5,103.5 116.5,103.5C 116.5,106.833 116.5,110.167 116.5,113.5C 117.791,113.263 118.791,113.596 119.5,114.5C 119.167,114.5 118.833,114.5 118.5,114.5C 117.2,116.223 116.533,118.39 116.5,121C 116.504,123.361 116.837,125.527 117.5,127.5C 119.167,127.5 120.833,127.5 122.5,127.5C 123.097,122.706 122.43,118.373 120.5,114.5C 121.167,113.833 121.833,113.167 122.5,112.5C 122.5,109.5 122.5,106.5 122.5,103.5C 123.833,103.5 125.167,103.5 126.5,103.5C 126.173,113.348 126.506,123.014 127.5,132.5C 128.434,133.568 128.768,134.901 128.5,136.5C 122.833,136.5 117.167,136.5 111.5,136.5C 111.232,134.901 111.566,133.568 112.5,132.5C 113.494,123.014 113.827,113.348 113.5,103.5 Z"/></g>
<g><path style="opacity:1" fill="#cee4cf" d="M 117.5,129.5 C 119.167,129.5 120.833,129.5 122.5,129.5C 122.5,130.5 122.5,131.5 122.5,132.5C 120.833,132.5 119.167,132.5 117.5,132.5C 117.5,131.5 117.5,130.5 117.5,129.5 Z"/></g>
<g><path style="opacity:1" fill="#adcebb" d="M 126.5,103.5 C 127.491,110.313 127.825,117.313 127.5,124.5C 134.789,126.147 142.456,127.147 150.5,127.5C 147.232,128.487 143.898,128.82 140.5,128.5C 136.154,128.334 131.821,128.501 127.5,129C 130.365,129.183 133.031,129.683 135.5,130.5C 134.833,130.833 134.167,131.167 133.5,131.5C 132.726,130.853 131.726,130.52 130.5,130.5C 128.97,130.64 127.97,131.307 127.5,132.5C 126.506,123.014 126.173,113.348 126.5,103.5 Z"/></g>
<g><path style="opacity:1" fill="#a1c5ae" d="M 113.5,103.5 C 113.827,113.348 113.494,123.014 112.5,132.5C 112.03,131.307 111.03,130.64 109.5,130.5C 108.274,130.52 107.274,130.853 106.5,131.5C 105.711,131.217 105.044,130.717 104.5,130C 106.833,129.667 109.167,129.333 111.5,129C 104.842,128.5 98.175,128.334 91.5,128.5C 90.1667,128.5 89.5,127.833 89.5,126.5C 97.2428,127.13 104.576,126.463 111.5,124.5C 112.167,117.5 112.833,110.5 113.5,103.5 Z"/></g>
<g><path style="opacity:1" fill="#3d6f4d" d="M 89.5,124.5 C 96.8333,124.5 104.167,124.5 111.5,124.5C 104.576,126.463 97.2428,127.13 89.5,126.5C 89.5,125.833 89.5,125.167 89.5,124.5 Z"/></g>
<g><path style="opacity:1" fill="#edf8f0" d="M 118.5,114.5 C 118.833,114.5 119.167,114.5 119.5,114.5C 119.833,114.5 120.167,114.5 120.5,114.5C 122.43,118.373 123.097,122.706 122.5,127.5C 120.833,127.5 119.167,127.5 117.5,127.5C 117.231,123.069 117.564,118.735 118.5,114.5 Z"/></g>
<g><path style="opacity:1" fill="#618e73" d="M 118.5,117.5 C 119.748,118.334 120.415,119.667 120.5,121.5C 120.167,122.833 119.833,124.167 119.5,125.5C 118.52,122.914 118.187,120.247 118.5,117.5 Z"/></g>
<g><path style="opacity:1" fill="#85a792" d="M 118.5,114.5 C 117.564,118.735 117.231,123.069 117.5,127.5C 116.837,125.527 116.504,123.361 116.5,121C 116.533,118.39 117.2,116.223 118.5,114.5 Z"/></g>
<g><path style="opacity:1" fill="#4f7059" d="M 51.5,93.5 C 53.7414,98.742 52.0747,101.575 46.5,102C 50.4359,100.629 51.7692,98.1295 50.5,94.5C 51.1667,94.5 51.5,94.1667 51.5,93.5 Z"/></g>
<g><path style="opacity:1" fill="#19572b" d="M 51.5,93.5 C 51.5,94.1667 51.1667,94.5 50.5,94.5C 47.213,95.264 44.5463,97.0973 42.5,100C 40.5,100.667 38.5,100.667 36.5,100C 35.944,99.6174 35.6107,99.1174 35.5,98.5C 35.5,97.8333 35.8333,97.5 36.5,97.5C 39.787,96.736 42.4537,94.9027 44.5,92C 46.5,91.3333 48.5,91.3333 50.5,92C 51.056,92.3826 51.3893,92.8826 51.5,93.5 Z"/></g>
<g><path style="opacity:1" fill="#c1d8c7" d="M 150.5,90.5 C 155.559,90.0846 159.559,91.7513 162.5,95.5C 158.458,93.8225 154.458,92.1559 150.5,90.5 Z"/></g>
<g><path style="opacity:1" fill="#688774" d="M 36.5,97.5 C 35.8333,97.5 35.5,97.8333 35.5,98.5C 34.0887,94.6428 34.7554,90.9761 37.5,87.5C 39.2251,88.0149 40.8917,88.6816 42.5,89.5C 37.5857,90.3691 35.5857,93.0358 36.5,97.5 Z"/></g>
<g><path style="opacity:1" fill="#2c5e3c" d="M 167.5,113.5 C 166.691,114.469 165.691,115.302 164.5,116C 161.768,116.413 159.101,117.08 156.5,118C 153.737,121.361 151.903,125.195 151,129.5C 149.275,130.464 147.441,131.131 145.5,131.5C 145.611,130.883 145.944,130.383 146.5,130C 144.527,129.505 142.527,129.338 140.5,129.5C 140.5,129.167 140.5,128.833 140.5,128.5C 143.898,128.82 147.232,128.487 150.5,127.5C 142.456,127.147 134.789,126.147 127.5,124.5C 135.174,124.666 142.841,124.5 150.5,124C 153.246,117.293 158.246,114.126 165.5,114.5C 162.943,106.783 157.61,101.95 149.5,100C 145.582,98.8436 141.582,98.3436 137.5,98.5C 135.904,83.3504 127.57,77.5171 112.5,81C 105.398,84.7069 102.064,90.5402 102.5,98.5C 92.163,97.2552 83.663,100.589 77,108.5C 75.4412,110.217 74.6079,112.217 74.5,114.5C 76.4147,114.216 78.0813,114.549 79.5,115.5C 76.8333,115.5 74.1667,115.5 71.5,115.5C 76.4711,102.171 86.1377,96.1711 100.5,97.5C 101.29,85.5659 107.623,79.2326 119.5,78.5C 130.902,79.2351 137.569,85.2351 139.5,96.5C 152.719,96.0961 162.052,101.763 167.5,113.5 Z"/></g>
<g><path style="opacity:1" fill="#f7faf8" d="M 127.5,124.5 C 127.825,117.313 127.491,110.313 126.5,103.5C 125.167,103.5 123.833,103.5 122.5,103.5C 122.5,106.5 122.5,109.5 122.5,112.5C 120.833,112.5 119.167,112.5 117.5,112.5C 117.81,109.287 117.477,106.287 116.5,103.5C 115.5,103.5 114.5,103.5 113.5,103.5C 112.833,110.5 112.167,117.5 111.5,124.5C 104.167,124.5 96.8333,124.5 89.5,124.5C 87.7689,119.771 84.4356,116.771 79.5,115.5C 78.0813,114.549 76.4147,114.216 74.5,114.5C 74.6079,112.217 75.4412,110.217 77,108.5C 83.663,100.589 92.163,97.2552 102.5,98.5C 102.064,90.5402 105.398,84.7069 112.5,81C 127.57,77.5171 135.904,83.3504 137.5,98.5C 141.582,98.3436 145.582,98.8436 149.5,100C 157.61,101.95 162.943,106.783 165.5,114.5C 158.246,114.126 153.246,117.293 150.5,124C 142.841,124.5 135.174,124.666 127.5,124.5 Z"/></g>
<g><path style="opacity:1" fill="#7ea590" d="M 116.5,103.5 C 117.477,106.287 117.81,109.287 117.5,112.5C 119.167,112.5 120.833,112.5 122.5,112.5C 121.833,113.167 121.167,113.833 120.5,114.5C 120.167,114.5 119.833,114.5 119.5,114.5C 118.791,113.596 117.791,113.263 116.5,113.5C 116.5,110.167 116.5,106.833 116.5,103.5 Z"/></g>
<g><path style="opacity:1" fill="#3e6146" d="M 118.5,106.5 C 119.5,106.5 120.5,106.5 121.5,106.5C 121.5,107.5 121.5,108.5 121.5,109.5C 120.5,109.5 119.5,109.5 118.5,109.5C 118.5,108.5 118.5,107.5 118.5,106.5 Z"/></g>
<g><path style="opacity:1" fill="#175429" d="M 118.5,89.5 C 119.5,89.5 120.5,89.5 121.5,89.5C 121.425,92.2062 121.092,94.8728 120.5,97.5C 121.5,97.5 122.5,97.5 123.5,97.5C 124.5,97.5 125.5,97.5 126.5,97.5C 126.36,99.1238 127.027,100.29 128.5,101C 122.833,101.667 117.167,101.667 111.5,101C 112.337,99.9887 112.67,98.8221 112.5,97.5C 114.554,97.6347 116.221,96.968 117.5,95.5C 117.205,93.2646 117.539,91.2646 118.5,89.5 Z"/></g>
<g><path style="opacity:1" fill="#7bab92" d="M 117.5,95.5 C 119.337,95.6395 119.67,96.3061 118.5,97.5C 117.702,97.0431 117.369,96.3764 117.5,95.5 Z"/></g>
<g><path style="opacity:1" fill="#528165" d="M 121.5,89.5 C 122.391,90.2613 123.058,91.2613 123.5,92.5C 122.948,94.0026 122.948,95.6693 123.5,97.5C 122.5,97.5 121.5,97.5 120.5,97.5C 121.092,94.8728 121.425,92.2062 121.5,89.5 Z"/></g>
<g><path style="opacity:1" fill="#789284" d="M 121.5,89.5 C 120.5,89.5 119.5,89.5 118.5,89.5C 119.5,82.8333 120.5,82.8333 121.5,89.5 Z"/></g>
<g><path style="opacity:1" fill="#18572b" d="M 185.5,58.5 C 182.577,59.1634 181.91,60.8301 183.5,63.5C 184.711,62.7261 184.711,61.8928 183.5,61C 184.094,60.5357 184.761,60.369 185.5,60.5C 186.209,61.404 187.209,61.7373 188.5,61.5C 188.762,62.9778 188.429,64.3112 187.5,65.5C 185.435,65.953 183.768,66.953 182.5,68.5C 184.171,70.5098 184.838,72.8431 184.5,75.5C 181.688,74.0418 178.688,73.0418 175.5,72.5C 174.167,72.8333 172.833,73.1667 171.5,73.5C 172.914,74.624 174.414,75.624 176,76.5C 176.781,77.9437 176.614,79.277 175.5,80.5C 173.833,79.1667 172.167,77.8333 170.5,76.5C 167.989,79.7553 164.656,81.422 160.5,81.5C 160.373,79.0846 160.207,76.7513 160,74.5C 161.444,76.1554 163.278,76.822 165.5,76.5C 165.719,75.325 165.386,74.325 164.5,73.5C 161.328,72.6686 159.662,70.6686 159.5,67.5C 162.353,68.1892 164.853,69.5225 167,71.5C 172.633,69.4738 172.133,68.1405 165.5,67.5C 165.62,66.4138 166.287,65.7472 167.5,65.5C 171.495,67.3446 175.495,68.8446 179.5,70C 175.878,67.0241 171.878,64.8574 167.5,63.5C 164.472,63.3389 161.639,64.0056 159,65.5C 157.97,65.1639 157.47,64.4972 157.5,63.5C 158.812,61.5212 160.479,59.8545 162.5,58.5C 163.62,59.8334 164.953,60.3334 166.5,60C 167.665,58.0083 168.998,56.175 170.5,54.5C 171.65,53.1498 172.317,53.3164 172.5,55C 170.922,56.9716 170.089,59.1383 170,61.5C 171.332,59.34 172.832,57.34 174.5,55.5C 174.908,54.3569 175.575,53.3569 176.5,52.5C 178.5,53.8333 180.5,55.1667 182.5,56.5C 183.736,55.7542 185.07,55.4208 186.5,55.5C 186.737,56.791 186.404,57.791 185.5,58.5 Z"/></g>
<g><path style="opacity:1" fill="#8abd99" d="M 167.5,63.5 C 171.878,64.8574 175.878,67.0241 179.5,70C 175.495,68.8446 171.495,67.3446 167.5,65.5C 166.287,65.7472 165.62,66.4138 165.5,67.5C 164.596,66.791 164.263,65.791 164.5,64.5C 165.791,64.7373 166.791,64.404 167.5,63.5 Z"/></g>
<g><path style="opacity:1" fill="#17592b" d="M 65.5,48.5 C 67.1439,48.2865 68.6439,48.6198 70,49.5C 69.9133,53.0895 71.08,56.0895 73.5,58.5C 71.8356,60.9807 71.3356,63.6474 72,66.5C 75.2792,69.7792 78.6126,73.1126 82,76.5C 82.49,77.7932 82.6567,79.1266 82.5,80.5C 78.188,78.7105 74.5214,75.8772 71.5,72C 70.0997,70.5619 68.433,69.7286 66.5,69.5C 66.5,71.5 66.5,73.5 66.5,75.5C 61.5253,75.9331 58.0253,73.9331 56,69.5C 56.6012,66.7427 57.4345,63.9094 58.5,61C 56.9801,58.9731 55.6467,56.8065 54.5,54.5C 54.4342,52.7336 55.2676,51.7336 57,51.5C 61.4786,55.857 64.3119,54.857 65.5,48.5 Z"/></g>
<g><path style="opacity:1" fill="#e0f4e4" d="M 61.5,63.5 C 63.1042,64.287 63.7709,65.6203 63.5,67.5C 62.5,67.5 61.5,67.5 60.5,67.5C 60.4326,66.0413 60.7659,64.7079 61.5,63.5 Z"/></g>
<g><path style="opacity:1" fill="#cbddd0" d="M 157.5,63.5 C 157.47,64.4972 157.97,65.1639 159,65.5C 161.639,64.0056 164.472,63.3389 167.5,63.5C 166.791,64.404 165.791,64.7373 164.5,64.5C 164.263,65.791 164.596,66.791 165.5,67.5C 172.133,68.1405 172.633,69.4738 167,71.5C 164.853,69.5225 162.353,68.1892 159.5,67.5C 158.791,66.596 157.791,66.2627 156.5,66.5C 156.263,65.209 156.596,64.209 157.5,63.5 Z"/></g>
<g><path style="opacity:1" fill="#88c3a0" d="M 173.5,60.5 C 174.376,60.3691 175.043,60.7025 175.5,61.5C 173.192,62.8734 172.525,62.5401 173.5,60.5 Z"/></g>
<g><path style="opacity:1" fill="#a4c2ab" d="M 150.5,58.5 C 152.048,58.8212 152.715,59.8212 152.5,61.5C 149.941,61.8016 147.607,61.4682 145.5,60.5C 147.527,60.6621 149.527,60.4955 151.5,60C 150.944,59.6174 150.611,59.1174 150.5,58.5 Z"/></g>
<g><path style="opacity:1" fill="#a0c8ac" d="M 185.5,58.5 C 185.5,59.1667 185.5,59.8333 185.5,60.5C 184.761,60.369 184.094,60.5357 183.5,61C 184.711,61.8928 184.711,62.7261 183.5,63.5C 181.91,60.8301 182.577,59.1634 185.5,58.5 Z"/></g>
<g><path style="opacity:1" fill="#d5eae1" d="M 64.5,55.5 C 65.5,55.5 66.5,55.5 67.5,55.5C 67.762,56.9778 67.4287,58.3112 66.5,59.5C 64.8888,58.6798 64.2222,57.3464 64.5,55.5 Z"/></g>
<g><path style="opacity:1" fill="#b3ddbc" d="M 176.5,56.5 C 178.337,56.6395 178.67,57.3061 177.5,58.5C 176.702,58.0431 176.369,57.3764 176.5,56.5 Z"/></g>
<g><path style="opacity:1" fill="#81ad89" d="M 174.5,55.5 C 172.832,57.34 171.332,59.34 170,61.5C 170.089,59.1383 170.922,56.9716 172.5,55C 172.317,53.3164 171.65,53.1498 170.5,54.5C 170.821,52.9519 171.821,52.2852 173.5,52.5C 173.263,53.791 173.596,54.791 174.5,55.5 Z"/></g>
<g><path style="opacity:1" fill="#17572a" d="M 91.5,34.5 C 92.9305,34.4208 94.2638,34.7542 95.5,35.5C 97.3128,39.6127 99.3128,43.6127 101.5,47.5C 104.172,45.5745 105.172,42.9079 104.5,39.5C 106.39,39.2965 107.89,39.9632 109,41.5C 110.108,45.0863 110.608,48.753 110.5,52.5C 108.641,52.5391 107.308,51.7058 106.5,50C 105.5,49.3333 104.5,49.3333 103.5,50C 101.321,52.5109 98.8207,54.6776 96,56.5C 95.5172,57.448 95.3505,58.448 95.5,59.5C 93.8561,59.7135 92.3561,59.3802 91,58.5C 90.4424,55.0662 89.609,51.7328 88.5,48.5C 89.552,48.3505 90.552,48.5172 91.5,49C 93.1976,53.2306 94.8643,53.3972 96.5,49.5C 95.4783,45.9284 93.9783,42.595 92,39.5C 91.5065,37.8659 91.3398,36.1992 91.5,34.5 Z"/></g>
<g><path style="opacity:1" fill="#17572b" d="M 150.5,58.5 C 150.611,59.1174 150.944,59.6174 151.5,60C 149.527,60.4955 147.527,60.6621 145.5,60.5C 144.504,60.5858 143.671,60.2524 143,59.5C 141.067,55.1977 139.233,50.8644 137.5,46.5C 135.35,48.1491 133.35,49.9824 131.5,52C 128.551,52.8472 126.218,52.0139 124.5,49.5C 127.212,48.7719 129.879,47.9385 132.5,47C 134.037,45.8904 134.703,44.3904 134.5,42.5C 132.5,42.5 130.5,42.5 128.5,42.5C 128.5,40.5 128.5,38.5 128.5,36.5C 131.482,36.9629 134.482,37.2962 137.5,37.5C 137.5,35.5 137.5,33.5 137.5,31.5C 139.5,31.5 141.5,31.5 143.5,31.5C 143.643,33.2624 143.309,34.9291 142.5,36.5C 142.833,37.5 143.5,38.1667 144.5,38.5C 147.428,37.0791 148.762,38.0791 148.5,41.5C 145.833,41.8333 143.167,42.1667 140.5,42.5C 141.346,49.5524 144.679,54.8857 150.5,58.5 Z"/></g>
<g><path style="opacity:1" fill="#a8c8b3" d="M 129.5,14.5 C 120.151,14.4833 110.818,14.8167 101.5,15.5C 107.274,14.1025 113.274,13.4359 119.5,13.5C 123.018,13.5016 126.351,13.8349 129.5,14.5 Z"/></g>
<g><path style="opacity:1" fill="#648672" d="M 177.5,169.5 C 178.167,170.167 178.833,170.833 179.5,171.5C 178.5,171.5 177.5,171.5 176.5,171.5C 177.652,175.775 178.652,180.108 179.5,184.5C 178.209,184.737 177.209,184.404 176.5,183.5C 177.2,179.829 176.533,176.162 174.5,172.5C 175.188,171.145 176.188,170.145 177.5,169.5 Z"/></g>
<g><path style="opacity:1" fill="#f3f7f5" d="M 210.5,75.5 C 222.145,101.025 223.645,127.358 215,154.5C 206.449,176.32 192.283,193.32 172.5,205.5C 172.5,204.167 172.5,202.833 172.5,201.5C 167.61,199.262 164.11,200.595 162,205.5C 159.37,205.141 157.203,204.141 155.5,202.5C 156.5,202.5 157.5,202.5 158.5,202.5C 158.567,201.041 158.234,199.708 157.5,198.5C 157.5,198.167 157.5,197.833 157.5,197.5C 158.756,197.461 159.756,197.961 160.5,199C 159.167,199.667 159.167,200.333 160.5,201C 161.448,201.483 162.448,201.649 163.5,201.5C 163.5,199.833 163.5,198.167 163.5,196.5C 164.712,197.23 165.712,198.23 166.5,199.5C 168.002,198.917 169.335,198.084 170.5,197C 166.725,192.631 163.558,187.798 161,182.5C 160.617,183.056 160.117,183.389 159.5,183.5C 159.5,181.5 159.5,179.5 159.5,177.5C 161.806,177.993 164.139,178.326 166.5,178.5C 165.77,179.712 164.77,180.712 163.5,181.5C 168.92,184.627 174.42,187.627 180,190.5C 180.49,188.455 180.323,186.455 179.5,184.5C 178.652,180.108 177.652,175.775 176.5,171.5C 177.5,171.5 178.5,171.5 179.5,171.5C 183.32,174.253 186.986,177.253 190.5,180.5C 191.524,179.148 192.524,177.815 193.5,176.5C 195.148,174.571 196.815,172.571 198.5,170.5C 195.463,165.645 194.463,165.645 195.5,170.5C 195.098,172.3 194.431,173.967 193.5,175.5C 190.243,175.236 188.243,173.57 187.5,170.5C 188.873,170.657 190.207,170.49 191.5,170C 189.695,169.028 188.028,167.861 186.5,166.5C 186.446,167.687 186.113,169.02 185.5,170.5C 183.64,169.74 181.973,168.74 180.5,167.5C 182.146,164.431 184.813,162.931 188.5,163C 186.205,160.146 183.872,159.979 181.5,162.5C 181.5,161.5 181.5,160.5 181.5,159.5C 184.205,159.62 184.872,158.62 183.5,156.5C 184.632,154.511 185.965,152.844 187.5,151.5C 187.34,149.801 187.506,148.134 188,146.5C 189.948,145.891 191.782,145.224 193.5,144.5C 195.591,144.682 197.591,144.348 199.5,143.5C 201.194,141.139 203.194,139.139 205.5,137.5C 207.353,138.189 208.519,139.522 209,141.5C 209.335,136.338 206.835,134.005 201.5,134.5C 202.527,132.806 203.861,131.473 205.5,130.5C 206.833,130.5 208.167,130.5 209.5,130.5C 209.833,130.5 210.167,130.5 210.5,130.5C 211.797,128.307 211.797,125.973 210.5,123.5C 204.561,124.457 198.561,124.79 192.5,124.5C 192.629,122.784 192.962,121.117 193.5,119.5C 194.1,120.9 195.1,121.9 196.5,122.5C 197.675,122.719 198.675,122.386 199.5,121.5C 198.263,120.719 197.263,119.719 196.5,118.5C 198.444,117.199 200.444,116.199 202.5,115.5C 203.833,115.5 205.167,115.5 206.5,115.5C 208.167,115.5 209.833,115.5 211.5,115.5C 211.768,113.901 211.434,112.568 210.5,111.5C 210.649,110.448 210.483,109.448 210,108.5C 209.5,109.667 208.667,110.5 207.5,111C 203.627,111.27 199.794,111.77 196,112.5C 194.274,110.902 193.441,111.235 193.5,113.5C 192.566,112.432 192.232,111.099 192.5,109.5C 194.196,109.315 195.529,108.481 196.5,107C 195.072,106.421 193.738,106.588 192.5,107.5C 191.766,106.292 191.433,104.959 191.5,103.5C 189.21,100.658 188.21,97.3243 188.5,93.5C 189.156,92.7222 189.989,92.0556 191,91.5C 192.789,92.4091 194.623,92.5758 196.5,92C 193.996,91.3024 191.663,90.4691 189.5,89.5C 195.901,90.6379 201.735,90.6379 207,89.5C 208.256,87.2457 209.423,84.9123 210.5,82.5C 209.58,80.2143 209.58,77.8809 210.5,75.5 Z"/></g>
<g><path style="opacity:1" fill="#567661" d="M 193.5,176.5 C 193.5,176.167 193.5,175.833 193.5,175.5C 194.431,173.967 195.098,172.3 195.5,170.5C 194.463,165.645 195.463,165.645 198.5,170.5C 196.815,172.571 195.148,174.571 193.5,176.5 Z"/></g>
<g><path style="opacity:1" fill="#225b31" d="M 187.5,151.5 C 188.849,149.319 190.682,147.652 193,146.5C 196.338,146.507 197.838,148.174 197.5,151.5C 200.667,151.6 203.667,150.933 206.5,149.5C 207.347,151.061 207.014,152.561 205.5,154C 202.57,154.606 199.737,155.44 197,156.5C 196.312,157.332 196.479,157.998 197.5,158.5C 199.071,159.309 200.738,159.643 202.5,159.5C 202.778,161.346 202.111,162.68 200.5,163.5C 195.389,161.778 190.389,159.778 185.5,157.5C 186.372,155.55 187.039,153.55 187.5,151.5 Z"/></g>
<g><path style="opacity:1" fill="#ebf4ee" d="M 189.5,150.5 C 194.5,149.5 196.5,151.5 195.5,156.5C 190.825,156.588 188.825,154.588 189.5,150.5 Z"/></g>
<g><path style="opacity:1" fill="#1a592d" d="M 191.5,103.5 C 191.343,102.127 191.51,100.793 192,99.5C 194.35,97.3171 196.517,94.9837 198.5,92.5C 202.186,90.7015 205.186,91.3682 207.5,94.5C 201.509,95.9656 196.675,99.2989 193,104.5C 192.617,103.944 192.117,103.611 191.5,103.5 Z"/></g>
<g><path style="opacity:1" fill="#4a7156" d="M 75.5,182.5 C 77.2646,181.539 79.2646,181.205 81.5,181.5C 82.5,183.167 83.8333,184.5 85.5,185.5C 85.5386,186.756 85.0386,187.756 84,188.5C 83.2126,184.499 81.0459,182.832 77.5,183.5C 77.1583,182.662 76.4916,182.328 75.5,182.5 Z"/></g>
<g><path style="opacity:1" fill="#1c5a30" d="M 166.5,178.5 C 169.523,180.678 172.856,182.345 176.5,183.5C 177.209,184.404 178.209,184.737 179.5,184.5C 180.323,186.455 180.49,188.455 180,190.5C 174.42,187.627 168.92,184.627 163.5,181.5C 164.77,180.712 165.77,179.712 166.5,178.5 Z"/></g>
<g><path style="opacity:1" fill="#1a592c" d="M 163.5,196.5 C 161.653,192.642 159.653,188.808 157.5,185C 158.044,184.283 158.711,183.783 159.5,183.5C 160.117,183.389 160.617,183.056 161,182.5C 163.558,187.798 166.725,192.631 170.5,197C 169.335,198.084 168.002,198.917 166.5,199.5C 165.712,198.23 164.712,197.23 163.5,196.5 Z"/></g>
<g><path style="opacity:1" fill="#63856b" d="M 157.5,197.5 C 157.5,197.833 157.5,198.167 157.5,198.5C 156.29,198.068 155.29,197.401 154.5,196.5C 154.607,193.479 153.607,190.479 151.5,187.5C 152.325,186.614 153.325,186.281 154.5,186.5C 154.628,190.417 155.628,194.083 157.5,197.5 Z"/></g>
<g><path style="opacity:1" fill="#497458" d="M 94.5,189.5 C 97.7846,189.928 100.785,190.928 103.5,192.5C 102.508,192.328 101.842,192.662 101.5,193.5C 99.8706,191.94 98.704,192.273 98,194.5C 97.3305,192.41 96.1639,190.743 94.5,189.5 Z"/></g>
<g><path style="opacity:1" fill="#d1e4d6" d="M 129.5,197.5 C 129.5,196.167 129.5,194.833 129.5,193.5C 127.692,193.491 126.025,193.991 124.5,195C 125.581,199.066 126.248,203.233 126.5,207.5C 125.034,203.326 123.7,198.992 122.5,194.5C 123.833,193.5 125.167,192.5 126.5,191.5C 127.736,192.246 129.07,192.579 130.5,192.5C 130.784,194.415 130.451,196.081 129.5,197.5 Z"/></g>
<g><path style="opacity:1" fill="#658c78" d="M 140.5,191.5 C 140.833,192.167 141.167,192.833 141.5,193.5C 140.5,193.5 139.5,193.5 138.5,193.5C 138.614,196.85 138.947,200.183 139.5,203.5C 139.134,210.337 135.8,212.671 129.5,210.5C 130.791,210.737 131.791,210.404 132.5,209.5C 133.93,209.579 135.264,209.246 136.5,208.5C 137.958,203.176 137.625,198.01 135.5,193C 137.154,192.392 138.821,191.892 140.5,191.5 Z"/></g>
<g><path style="opacity:1" fill="#f1f6f2" d="M 42.5,155.5 C 46.7001,155.933 50.8668,156.6 55,157.5C 55.7648,157.43 56.2648,157.097 56.5,156.5C 57.3164,158.144 58.6498,159.31 60.5,160C 59.2888,160.893 59.2888,161.726 60.5,162.5C 62.9879,163.025 65.3213,163.858 67.5,165C 66.1358,168.113 67.1358,170.279 70.5,171.5C 71.4287,172.689 71.762,174.022 71.5,175.5C 72.552,175.351 73.552,175.517 74.5,176C 72.5884,177.2 71.2551,178.867 70.5,181C 72.557,184.3 73.557,184.133 73.5,180.5C 76.3854,180.194 79.0521,180.527 81.5,181.5C 79.2646,181.205 77.2646,181.539 75.5,182.5C 74.9566,183.742 74.6233,185.075 74.5,186.5C 75.2101,189.589 76.2101,192.589 77.5,195.5C 77.4573,196.416 77.1239,197.083 76.5,197.5C 72.9302,197.099 70.7636,195.099 70,191.5C 68.9783,192.354 68.1449,193.354 67.5,194.5C 69.7074,197.203 72.5407,198.869 76,199.5C 77.0698,199.472 77.9032,199.139 78.5,198.5C 80.4779,197.683 81.4779,196.183 81.5,194C 79.9182,190.588 78.5848,187.088 77.5,183.5C 81.0459,182.832 83.2126,184.499 84,188.5C 85.0386,187.756 85.5386,186.756 85.5,185.5C 86.4916,185.328 87.1583,185.662 87.5,186.5C 86.1149,191.979 84.1149,197.313 81.5,202.5C 82.325,203.386 83.325,203.719 84.5,203.5C 87.08,205.576 90.08,206.909 93.5,207.5C 94.8876,206.409 95.3876,205.076 95,203.5C 92.1684,204.786 89.3351,204.786 86.5,203.5C 86.595,201.214 87.2616,199.214 88.5,197.5C 89.9432,198.335 90.9432,199.668 91.5,201.5C 92.687,198.831 93.5203,196.165 94,193.5C 92.8904,195.037 91.3904,195.703 89.5,195.5C 89.7922,192.199 91.4589,190.199 94.5,189.5C 96.1639,190.743 97.3305,192.41 98,194.5C 98.704,192.273 99.8706,191.94 101.5,193.5C 104.633,199.092 107.8,204.759 111,210.5C 111.278,209.584 111.778,208.918 112.5,208.5C 112.551,210.57 111.885,212.403 110.5,214C 110.645,214.772 110.978,215.439 111.5,216C 108.118,216.176 104.785,216.676 101.5,217.5C 103.078,218.298 104.744,218.798 106.5,219C 114.827,219.5 123.16,219.666 131.5,219.5C 88.9083,223.871 56.2416,207.871 33.5,171.5C 34.5,171.5 35.5,171.5 36.5,171.5C 36.3505,170.448 36.5172,169.448 37,168.5C 40.7057,170.654 41.2057,173.321 38.5,176.5C 43.133,183.292 45.4663,182.292 45.5,173.5C 46.8846,174.574 48.0513,175.907 49,177.5C 51.5373,171.795 54.704,166.462 58.5,161.5C 55.4648,160.335 52.4648,160.502 49.5,162C 53.0642,162.727 53.3976,164.227 50.5,166.5C 48.8793,166.213 47.8793,165.213 47.5,163.5C 44.6908,162.2 42.0241,162.2 39.5,163.5C 38.3473,162.687 38.3473,161.687 39.5,160.5C 38.7573,159.818 38.0906,159.151 37.5,158.5C 39.1131,157.308 40.7798,156.308 42.5,155.5 Z"/></g>
<g><path style="opacity:1" fill="#5e8269" d="M 88.5,197.5 C 88.8333,196.833 89.1667,196.167 89.5,195.5C 91.3904,195.703 92.8904,195.037 94,193.5C 93.5203,196.165 92.687,198.831 91.5,201.5C 90.9432,199.668 89.9432,198.335 88.5,197.5 Z"/></g>
<g><path style="opacity:1" fill="#185728" d="M 75.5,182.5 C 76.4916,182.328 77.1583,182.662 77.5,183.5C 78.5848,187.088 79.9182,190.588 81.5,194C 81.4779,196.183 80.4779,197.683 78.5,198.5C 77.5084,198.672 76.8417,198.338 76.5,197.5C 77.1239,197.083 77.4573,196.416 77.5,195.5C 76.2101,192.589 75.2101,189.589 74.5,186.5C 74.6233,185.075 74.9566,183.742 75.5,182.5 Z"/></g>
<g><path style="opacity:1" fill="#22502e" d="M 66.5,183.5 C 68.3936,184.048 70.0603,185.048 71.5,186.5C 68.9037,187.361 67.237,186.361 66.5,183.5 Z"/></g>
<g><path style="opacity:1" fill="#7b9886" d="M 66.5,173.5 C 66.5,172.833 66.8333,172.5 67.5,172.5C 69.0269,172.427 70.0269,173.094 70.5,174.5C 69.1667,175.5 69.1667,176.5 70.5,177.5C 70.2172,178.289 69.7172,178.956 69,179.5C 68.9977,176.949 68.1644,174.949 66.5,173.5 Z"/></g>
<g><path style="opacity:1" fill="#1b582d" d="M 67.5,172.5 C 66.8333,172.5 66.5,172.833 66.5,173.5C 63.0359,176.462 59.7025,179.629 56.5,183C 54.7991,183.345 53.4658,182.678 52.5,181C 56.349,177.318 60.0156,173.485 63.5,169.5C 62.286,167.931 60.6193,167.098 58.5,167C 59.5929,165.635 60.9262,165.301 62.5,166C 64.5389,167.926 66.2055,170.093 67.5,172.5 Z"/></g>
<g><path style="opacity:1" fill="#163b22" d="M 70.5,174.5 C 70.5,175.167 70.8333,175.5 71.5,175.5C 71.1667,176.167 70.8333,176.833 70.5,177.5C 69.1667,176.5 69.1667,175.5 70.5,174.5 Z"/></g>
<g><path style="opacity:1" fill="#62876e" d="M 76.5,197.5 C 76.8417,198.338 77.5084,198.672 78.5,198.5C 77.9032,199.139 77.0698,199.472 76,199.5C 72.5407,198.869 69.7074,197.203 67.5,194.5C 68.1449,193.354 68.9783,192.354 70,191.5C 70.7636,195.099 72.9302,197.099 76.5,197.5 Z"/></g>
<g><path style="opacity:1" fill="#17582a" d="M 87.5,186.5 C 90.0177,187.264 92.351,188.264 94.5,189.5C 91.4589,190.199 89.7922,192.199 89.5,195.5C 89.1667,196.167 88.8333,196.833 88.5,197.5C 87.2616,199.214 86.595,201.214 86.5,203.5C 85.8333,203.5 85.1667,203.5 84.5,203.5C 83.325,203.719 82.325,203.386 81.5,202.5C 84.1149,197.313 86.1149,191.979 87.5,186.5 Z"/></g>
<g><path style="opacity:1" fill="#1b5a2d" d="M 154.5,196.5 C 155.29,197.401 156.29,198.068 157.5,198.5C 158.234,199.708 158.567,201.041 158.5,202.5C 157.5,202.5 156.5,202.5 155.5,202.5C 151.646,199.979 147.812,197.312 144,194.5C 143.601,194.728 143.435,195.062 143.5,195.5C 143.167,195.5 142.833,195.5 142.5,195.5C 142.167,194.833 141.833,194.167 141.5,193.5C 141.167,192.833 140.833,192.167 140.5,191.5C 142.068,190.527 143.735,190.36 145.5,191C 148.528,192.844 151.528,194.678 154.5,196.5 Z"/></g>
<g><path style="opacity:1" fill="#5f7f6f" d="M 100.5,197.5 C 101.336,201.398 101.003,205.398 99.5,209.5C 99.1667,209 98.8333,208.5 98.5,208C 99.4894,204.553 100.156,201.053 100.5,197.5 Z"/></g>
<g><path style="opacity:1" fill="#83a391" d="M 112.5,205.5 C 111.449,204.778 110.782,203.778 110.5,202.5C 111.117,202.611 111.617,202.944 112,203.5C 112.287,201.109 112.787,198.776 113.5,196.5C 113.023,195.522 112.357,194.689 111.5,194C 113.579,193.192 115.579,193.359 117.5,194.5C 116.675,195.386 115.675,195.719 114.5,195.5C 114.841,199.16 114.175,202.493 112.5,205.5 Z"/></g>
<g><path style="opacity:1" fill="#165429" d="M 103.5,192.5 C 104.496,192.414 105.329,192.748 106,193.5C 107.793,196.394 109.293,199.394 110.5,202.5C 110.782,203.778 111.449,204.778 112.5,205.5C 112.5,206.5 112.5,207.5 112.5,208.5C 111.778,208.918 111.278,209.584 111,210.5C 107.8,204.759 104.633,199.092 101.5,193.5C 101.842,192.662 102.508,192.328 103.5,192.5 Z"/></g>
<g><path style="opacity:1" fill="#18582a" d="M 129.5,197.5 C 129.034,201.982 130.034,205.982 132.5,209.5C 131.791,210.404 130.791,210.737 129.5,210.5C 127.856,210.19 126.856,209.19 126.5,207.5C 126.248,203.233 125.581,199.066 124.5,195C 126.025,193.991 127.692,193.491 129.5,193.5C 129.5,194.833 129.5,196.167 129.5,197.5 Z"/></g>
<g><path style="opacity:1" fill="#5d856c" d="M 142.5,195.5 C 142.833,195.5 143.167,195.5 143.5,195.5C 145.023,199.381 146.69,203.214 148.5,207C 147.552,207.483 146.552,207.649 145.5,207.5C 144.91,203.397 143.91,199.397 142.5,195.5 Z"/></g>
<g><path style="opacity:1" fill="#52775a" d="M 84.5,203.5 C 85.1667,203.5 85.8333,203.5 86.5,203.5C 89.3351,204.786 92.1684,204.786 95,203.5C 95.3876,205.076 94.8876,206.409 93.5,207.5C 90.08,206.909 87.08,205.576 84.5,203.5 Z"/></g>
<g><path style="opacity:1" fill="#bcd9c4" d="M 142.5,231.5 C 141.737,232.268 140.737,232.768 139.5,233C 135.514,233.499 131.514,233.666 127.5,233.5C 132.332,232.6 137.332,231.934 142.5,231.5 Z"/></g>
</svg>
