<?xml version="1.0" encoding="UTF-8"?>
<!DOCTYPE svg PUBLIC "-//W3C//DTD SVG 1.1//EN" "http://www.w3.org/Graphics/SVG/1.1/DTD/svg11.dtd">
<svg xmlns="http://www.w3.org/2000/svg" version="1.1" width="226px" height="226px" style="shape-rendering:geometricPrecision; text-rendering:geometricPrecision; image-rendering:optimizeQuality; fill-rule:evenodd; clip-rule:evenodd" xmlns:xlink="http://www.w3.org/1999/xlink">
<g><path style="opacity:1" fill="#0e5727" d="M 97.5,-0.5 C 107.5,-0.5 117.5,-0.5 127.5,-0.5C 181.833,10.5 214.5,43.1667 225.5,97.5C 225.5,107.5 225.5,117.5 225.5,127.5C 214.5,181.833 181.833,214.5 127.5,225.5C 117.5,225.5 107.5,225.5 97.5,225.5C 43.1667,214.5 10.5,181.833 -0.5,127.5C -0.5,117.5 -0.5,107.5 -0.5,97.5C 10.5,43.1667 43.1667,10.5 97.5,-0.5 Z"/></g>
<g><path style="opacity:1" fill="#dfece2" d="M 122.5,7.5 C 172.541,14.0405 204.041,41.7072 217,90.5C 224.356,141.493 206.189,180.326 162.5,207C 118.889,227.671 78.5557,222.671 41.5,192C 10.781,161.003 0.614307,124.17 11,81.5C 25.0497,41.277 52.8831,16.9436 94.5,8.5C 103.818,7.81667 113.151,7.48334 122.5,7.5 Z"/></g>
<g><path style="opacity:1" fill="#295b36" d="M 100.5,9.5 C 153.954,7.6265 190.787,31.2932 211,80.5C 222.686,122.917 212.853,159.417 181.5,190C 152.73,213.931 120.063,221.265 83.5,212C 33.8233,193.505 9.32328,157.672 10,104.5C 15.9152,59.1373 40.4152,28.9706 83.5,14C 89.2943,12.4906 94.961,10.9906 100.5,9.5 Z"/></g>
<g><path style="opacity:1" fill="#ebf3ee" d="M 35.5,148.5 C 39.7001,148.933 43.8668,149.6 48,150.5C 48.7648,150.43 49.2648,150.097 49.5,149.5C 50.3164,151.144 51.6498,152.31 53.5,153C 52.2888,153.893 52.2888,154.726 53.5,155.5C 55.9879,156.025 58.3213,156.858 60.5,158C 59.1358,161.113 60.1358,163.279 63.5,164.5C 64.4287,165.689 64.762,167.022 64.5,168.5C 65.552,168.351 66.552,168.517 67.5,169C 63.7218,171.235 63.2218,173.735 66,176.5C 66.4828,175.552 66.6495,174.552 66.5,173.5C 70.1667,173.5 73.8333,173.5 77.5,173.5C 77.2222,175.346 77.8888,176.68 79.5,177.5C 81.4325,176.48 83.4325,176.313 85.5,177C 83.6269,177.953 83.2935,179.12 84.5,180.5C 83.4168,180.461 82.4168,180.127 81.5,179.5C 80.8281,180.949 80.1614,182.282 79.5,183.5C 78.6868,182.347 77.6868,182.347 76.5,183.5C 75.5481,181.955 75.2148,180.288 75.5,178.5C 76.2679,179.263 76.7679,180.263 77,181.5C 77.6924,180.975 78.1924,180.308 78.5,179.5C 76.2873,174.826 72.954,173.493 68.5,175.5C 67.9566,176.742 67.6233,178.075 67.5,179.5C 68.2101,182.589 69.2101,185.589 70.5,188.5C 70.4573,189.416 70.1239,190.083 69.5,190.5C 65.9302,190.099 63.7636,188.099 63,184.5C 62.6174,185.056 62.1174,185.389 61.5,185.5C 61.762,184.022 61.4287,182.689 60.5,181.5C 59.914,181.709 59.414,182.043 59,182.5C 58.0797,179.899 57.413,177.232 57,174.5C 54.7607,173.131 52.9274,173.631 51.5,176C 51.9574,176.414 52.2907,176.914 52.5,177.5C 49.1148,180.31 46.7815,179.81 45.5,176C 43.2992,175.175 41.4659,175.675 40,177.5C 38.9153,175.343 37.7487,175.176 36.5,177C 38.4386,177.908 39.4386,179.408 39.5,181.5C 34.0479,176.711 29.7145,171.045 26.5,164.5C 27.5,164.5 28.5,164.5 29.5,164.5C 29.2619,160.901 30.2619,160.567 32.5,163.5C 33.812,165.736 33.4787,167.736 31.5,169.5C 36.133,176.292 38.4663,175.292 38.5,166.5C 39.8846,167.574 41.0513,168.907 42,170.5C 44.5373,164.795 47.704,159.462 51.5,154.5C 48.4648,153.335 45.4648,153.502 42.5,155C 46.0642,155.727 46.3976,157.227 43.5,159.5C 41.8793,159.213 40.8793,158.213 40.5,156.5C 37.6908,155.2 35.0241,155.2 32.5,156.5C 31.3473,155.687 31.3473,154.687 32.5,153.5C 31.7573,152.818 31.0906,152.151 30.5,151.5C 32.1131,150.308 33.7798,149.308 35.5,148.5 Z"/></g>
<g><path style="opacity:1" fill="#1b582d" d="M 60.5,165.5 C 59.8333,165.5 59.5,165.833 59.5,166.5C 56.0359,169.462 52.7025,172.629 49.5,176C 47.7991,176.345 46.4658,175.678 45.5,174C 49.349,170.318 53.0156,166.485 56.5,162.5C 55.286,160.931 53.6193,160.098 51.5,160C 52.5929,158.635 53.9262,158.301 55.5,159C 57.5389,160.926 59.2055,163.093 60.5,165.5 Z"/></g>
<g><path style="opacity:1" fill="#c2dbc9" d="M 82.5,16.5 C 79.0317,19.2281 75.0317,20.8948 70.5,21.5C 74.0986,19.0723 78.0986,17.4056 82.5,16.5 Z"/></g>
<g><path style="opacity:1" fill="#f7faf8" d="M 124.5,212.5 C 116.16,212.666 107.827,212.5 99.5,212C 97.7444,211.798 96.0777,211.298 94.5,210.5C 97.7848,209.676 101.118,209.176 104.5,209C 99.8086,208.396 95.142,208.063 90.5,208C 91.1667,208.333 91.8333,208.667 92.5,209C 88.4761,209.497 84.4761,209.331 80.5,208.5C 64.3299,203.252 50.6632,194.252 39.5,181.5C 39.4386,179.408 38.4386,177.908 36.5,177C 37.7487,175.176 38.9153,175.343 40,177.5C 41.4659,175.675 43.2992,175.175 45.5,176C 46.7815,179.81 49.1148,180.31 52.5,177.5C 52.2907,176.914 51.9574,176.414 51.5,176C 52.9274,173.631 54.7607,173.131 57,174.5C 57.413,177.232 58.0797,179.899 59,182.5C 59.414,182.043 59.914,181.709 60.5,181.5C 61.4287,182.689 61.762,184.022 61.5,185.5C 61.1961,186.15 60.8627,186.817 60.5,187.5C 62.7074,190.203 65.5407,191.869 69,192.5C 70.0698,192.472 70.9032,192.139 71.5,191.5C 73.4779,190.683 74.4779,189.183 74.5,187C 72.9182,183.588 71.5848,180.088 70.5,176.5C 72.8342,175.159 74.5009,175.826 75.5,178.5C 75.2148,180.288 75.5481,181.955 76.5,183.5C 77.6868,182.347 78.6868,182.347 79.5,183.5C 78.2311,187.633 76.5644,191.633 74.5,195.5C 75.325,196.386 76.325,196.719 77.5,196.5C 80.08,198.576 83.08,199.909 86.5,200.5C 87.8876,199.409 88.3876,198.076 88,196.5C 85.1684,197.786 82.3351,197.786 79.5,196.5C 79.595,194.214 80.2616,192.214 81.5,190.5C 82.9432,191.335 83.9432,192.668 84.5,194.5C 85.687,191.831 86.5203,189.165 87,186.5C 85.8904,188.037 84.3904,188.703 82.5,188.5C 82.7922,185.199 84.4589,183.199 87.5,182.5C 86.5,181.833 85.5,181.167 84.5,180.5C 83.2935,179.12 83.6269,177.953 85.5,177C 83.4325,176.313 81.4325,176.48 79.5,177.5C 77.8888,176.68 77.2222,175.346 77.5,173.5C 73.8333,173.5 70.1667,173.5 66.5,173.5C 66.6495,174.552 66.4828,175.552 66,176.5C 63.2218,173.735 63.7218,171.235 67.5,169C 66.552,168.517 65.552,168.351 64.5,168.5C 64.762,167.022 64.4287,165.689 63.5,164.5C 60.1358,163.279 59.1358,161.113 60.5,158C 58.3213,156.858 55.9879,156.025 53.5,155.5C 52.2888,154.726 52.2888,153.893 53.5,153C 51.6498,152.31 50.3164,151.144 49.5,149.5C 49.3893,148.883 49.056,148.383 48.5,148C 45.1832,147.502 41.8499,147.335 38.5,147.5C 40.2446,144.348 42.2446,141.348 44.5,138.5C 44.5472,137 43.8805,136 42.5,135.5C 40.0077,138.163 37.6744,140.996 35.5,144C 33.1053,144.681 30.772,145.515 28.5,146.5C 29.4565,148.075 30.1231,149.742 30.5,151.5C 31.0906,152.151 31.7573,152.818 32.5,153.5C 31.3473,154.687 31.3473,155.687 32.5,156.5C 32.811,157.478 33.4777,158.145 34.5,158.5C 35.6199,157.167 36.9532,156.667 38.5,157C 39.7577,158.741 40.7577,160.574 41.5,162.5C 40.2112,163.637 39.2112,164.97 38.5,166.5C 38.4663,175.292 36.133,176.292 31.5,169.5C 33.4787,167.736 33.812,165.736 32.5,163.5C 30.2619,160.567 29.2619,160.901 29.5,164.5C 28.5,164.5 27.5,164.5 26.5,164.5C 11.8486,139.101 8.34862,112.101 16,83.5C 25.5654,55.1113 43.7321,34.4447 70.5,21.5C 75.0317,20.8948 79.0317,19.2281 82.5,16.5C 125.759,5.19844 162.259,16.1984 192,49.5C 215.373,81.0999 220.04,115.433 206,152.5C 189.975,187.698 162.809,207.698 124.5,212.5 Z"/></g>
<g><path style="opacity:1" fill="#d1e4d6" d="M 122.5,190.5 C 122.5,189.167 122.5,187.833 122.5,186.5C 120.692,186.491 119.025,186.991 117.5,188C 118.581,192.066 119.248,196.233 119.5,200.5C 118.034,196.326 116.7,191.992 115.5,187.5C 116.833,186.5 118.167,185.5 119.5,184.5C 120.736,185.246 122.07,185.579 123.5,185.5C 123.784,187.415 123.451,189.081 122.5,190.5 Z"/></g>
<g><path style="opacity:1" fill="#1c5a2f" d="M 84.5,180.5 C 85.5,181.167 86.5,181.833 87.5,182.5C 84.4589,183.199 82.7922,185.199 82.5,188.5C 82.1667,189.167 81.8333,189.833 81.5,190.5C 80.2616,192.214 79.595,194.214 79.5,196.5C 78.8333,196.5 78.1667,196.5 77.5,196.5C 76.325,196.719 75.325,196.386 74.5,195.5C 76.5644,191.633 78.2311,187.633 79.5,183.5C 80.1614,182.282 80.8281,180.949 81.5,179.5C 82.4168,180.127 83.4168,180.461 84.5,180.5 Z"/></g>
<g><path style="opacity:1" fill="#497458" d="M 87.5,182.5 C 90.7846,182.928 93.7846,183.928 96.5,185.5C 95.5084,185.328 94.8417,185.662 94.5,186.5C 92.8706,184.94 91.704,185.273 91,187.5C 90.3305,185.41 89.1639,183.743 87.5,182.5 Z"/></g>
<g><path style="opacity:1" fill="#63856b" d="M 150.5,191.5 C 149.29,191.068 148.29,190.401 147.5,189.5C 147.607,186.479 146.607,183.479 144.5,180.5C 145.325,179.614 146.325,179.281 147.5,179.5C 147.904,183.643 148.904,187.643 150.5,191.5 Z"/></g>
<g><path style="opacity:1" fill="#185728" d="M 68.5,175.5 C 69.4916,175.328 70.1583,175.662 70.5,176.5C 71.5848,180.088 72.9182,183.588 74.5,187C 74.4779,189.183 73.4779,190.683 71.5,191.5C 70.5084,191.672 69.8417,191.338 69.5,190.5C 70.1239,190.083 70.4573,189.416 70.5,188.5C 69.2101,185.589 68.2101,182.589 67.5,179.5C 67.6233,178.075 67.9566,176.742 68.5,175.5 Z"/></g>
<g><path style="opacity:1" fill="#22502e" d="M 59.5,176.5 C 61.3936,177.048 63.0603,178.048 64.5,179.5C 61.9037,180.361 60.237,179.361 59.5,176.5 Z"/></g>
<g><path style="opacity:1" fill="#1c5a30" d="M 169.5,176.5 C 170.209,177.404 171.209,177.737 172.5,177.5C 173.323,179.455 173.49,181.455 173,183.5C 167.42,180.627 161.92,177.627 156.5,174.5C 157.833,173.5 159.167,172.5 160.5,171.5C 163.071,173.952 166.071,175.619 169.5,176.5 Z"/></g>
<g><path style="opacity:1" fill="#4a7156" d="M 68.5,175.5 C 72.954,173.493 76.2873,174.826 78.5,179.5C 78.1924,180.308 77.6924,180.975 77,181.5C 76.7679,180.263 76.2679,179.263 75.5,178.5C 74.5009,175.826 72.8342,175.159 70.5,176.5C 70.1583,175.662 69.4916,175.328 68.5,175.5 Z"/></g>
<g><path style="opacity:1" fill="#648672" d="M 170.5,162.5 C 171.167,163.167 171.833,163.833 172.5,164.5C 171.5,164.5 170.5,164.5 169.5,164.5C 170.652,168.775 171.652,173.108 172.5,177.5C 171.209,177.737 170.209,177.404 169.5,176.5C 170.2,172.829 169.533,169.162 167.5,165.5C 168.188,164.145 169.188,163.145 170.5,162.5 Z"/></g>
<g><path style="opacity:1" fill="#7b9886" d="M 59.5,166.5 C 59.5,165.833 59.8333,165.5 60.5,165.5C 62.0269,165.427 63.0269,166.094 63.5,167.5C 62.1667,168.5 62.1667,169.5 63.5,170.5C 63.2172,171.289 62.7172,171.956 62,172.5C 61.9977,169.949 61.1644,167.949 59.5,166.5 Z"/></g>
<g><path style="opacity:1" fill="#163b22" d="M 63.5,167.5 C 63.5,168.167 63.8333,168.5 64.5,168.5C 64.1667,169.167 63.8333,169.833 63.5,170.5C 62.1667,169.5 62.1667,168.5 63.5,167.5 Z"/></g>
<g><path style="opacity:1" fill="#567661" d="M 186.5,169.5 C 186.5,169.167 186.5,168.833 186.5,168.5C 188.462,165.674 188.962,162.674 188,159.5C 189.353,160.685 190.52,162.019 191.5,163.5C 189.815,165.571 188.148,167.571 186.5,169.5 Z"/></g>
<g><path style="opacity:1" fill="#1f5930" d="M 186.5,168.5 C 186.5,168.833 186.5,169.167 186.5,169.5C 185.524,170.815 184.524,172.148 183.5,173.5C 179.986,170.253 176.32,167.253 172.5,164.5C 171.833,163.833 171.167,163.167 170.5,162.5C 170.833,161.833 171.167,161.167 171.5,160.5C 172.167,160.5 172.833,160.5 173.5,160.5C 174.973,161.74 176.64,162.74 178.5,163.5C 179.113,162.02 179.446,160.687 179.5,159.5C 181.028,160.861 182.695,162.028 184.5,163C 183.207,163.49 181.873,163.657 180.5,163.5C 181.243,166.57 183.243,168.236 186.5,168.5 Z"/></g>
<g><path style="opacity:1" fill="#215d31" d="M 38.5,166.5 C 39.2112,164.97 40.2112,163.637 41.5,162.5C 42.4013,161.71 43.0679,160.71 43.5,159.5C 46.3976,157.227 46.0642,155.727 42.5,155C 45.4648,153.502 48.4648,153.335 51.5,154.5C 47.704,159.462 44.5373,164.795 42,170.5C 41.0513,168.907 39.8846,167.574 38.5,166.5 Z"/></g>
<g><path style="opacity:1" fill="#5c7e67" d="M 173.5,160.5 C 172.833,160.5 172.167,160.5 171.5,160.5C 172.792,157.599 174.792,155.266 177.5,153.5C 179.002,154.083 180.335,154.916 181.5,156C 177.813,155.931 175.146,157.431 173.5,160.5 Z"/></g>
<g><path style="opacity:1" fill="#578369" d="M 43.5,159.5 C 43.0679,160.71 42.4013,161.71 41.5,162.5C 40.7577,160.574 39.7577,158.741 38.5,157C 36.9532,156.667 35.6199,157.167 34.5,158.5C 33.4777,158.145 32.811,157.478 32.5,156.5C 35.0241,155.2 37.6908,155.2 40.5,156.5C 40.8793,158.213 41.8793,159.213 43.5,159.5 Z"/></g>
<g><path style="opacity:1" fill="#1c582c" d="M 183.5,139.5 C 187.931,138.53 190.265,140.197 190.5,144.5C 193.667,144.6 196.667,143.933 199.5,142.5C 200.347,144.061 200.014,145.561 198.5,147C 195.57,147.606 192.737,148.44 190,149.5C 189.312,150.332 189.479,150.998 190.5,151.5C 192.071,152.309 193.738,152.643 195.5,152.5C 195.778,154.346 195.111,155.68 193.5,156.5C 188.389,154.778 183.389,152.778 178.5,150.5C 179.921,146.662 181.588,142.995 183.5,139.5 Z"/></g>
<g><path style="opacity:1" fill="#759985" d="M 35.5,148.5 C 36.209,147.596 37.209,147.263 38.5,147.5C 41.8499,147.335 45.1832,147.502 48.5,148C 49.056,148.383 49.3893,148.883 49.5,149.5C 49.2648,150.097 48.7648,150.43 48,150.5C 43.8668,149.6 39.7001,148.933 35.5,148.5 Z"/></g>
<g><path style="opacity:1" fill="#ebf4ee" d="M 182.5,143.5 C 187.5,142.5 189.5,144.5 188.5,149.5C 183.825,149.588 181.825,147.588 182.5,143.5 Z"/></g>
<g><path style="opacity:1" fill="#235d33" d="M 38.5,147.5 C 37.209,147.263 36.209,147.596 35.5,148.5C 33.7798,149.308 32.1131,150.308 30.5,151.5C 30.1231,149.742 29.4565,148.075 28.5,146.5C 30.772,145.515 33.1053,144.681 35.5,144C 37.6744,140.996 40.0077,138.163 42.5,135.5C 43.8805,136 44.5472,137 44.5,138.5C 42.2446,141.348 40.2446,144.348 38.5,147.5 Z"/></g>
<g><path style="opacity:1" fill="#17582a" d="M 143.5,83.5 C 147.458,85.1559 151.458,86.8225 155.5,88.5C 170.539,100.703 174.039,115.703 166,133.5C 159.542,144.15 150.042,149.817 137.5,150.5C 134.9,160.93 128.233,167.096 117.5,169C 102.906,170.701 92.9059,164.701 87.5,151C 66.0145,147.212 55.5145,134.378 56,112.5C 59.6218,94.7123 70.4551,84.7123 88.5,82.5C 94.5504,66.6431 105.884,61.1431 122.5,66C 130.255,69.4206 135.588,75.0872 138.5,83C 140.134,83.4935 141.801,83.6602 143.5,83.5 Z"/></g>
<g><path style="opacity:1" fill="#19532a" d="M 184.5,134.5 C 184.5,133.833 184.833,133.5 185.5,133.5C 186.002,135.085 187.002,135.585 188.5,135C 190.437,131.391 193.271,128.891 197,127.5C 201.051,128.208 202.718,130.541 202,134.5C 201.519,132.522 200.353,131.189 198.5,130.5C 196.016,132.483 193.683,134.65 191.5,137C 188.386,138.087 186.053,137.254 184.5,134.5 Z"/></g>
<g><path style="opacity:1" fill="#5f866f" d="M 185.5,133.5 C 184.833,133.5 184.5,133.833 184.5,134.5C 183.903,134.265 183.57,133.765 183.5,133C 184.609,130.953 185.276,128.787 185.5,126.5C 186.978,126.238 188.311,126.571 189.5,127.5C 186.929,128.728 185.595,130.728 185.5,133.5 Z"/></g>
<g><path style="opacity:1" fill="#7ea68b" d="M 25.5,126.5 C 27.5,127.833 29.5,127.833 31.5,126.5C 34.5788,126.74 37.5788,126.407 40.5,125.5C 41.3857,126.325 41.719,127.325 41.5,128.5C 35.7945,128.829 30.1278,128.495 24.5,127.5C 24.6236,126.893 24.9569,126.56 25.5,126.5 Z"/></g>
<g><path style="opacity:1" fill="#175629" d="M 39.5,113.5 C 40.4511,114.919 40.7845,116.585 40.5,118.5C 37.4744,121.195 34.4744,123.862 31.5,126.5C 29.5,127.833 27.5,127.833 25.5,126.5C 29.1408,123.195 32.8075,119.862 36.5,116.5C 37.3382,116.158 37.6716,115.492 37.5,114.5C 38.4916,114.672 39.1583,114.338 39.5,113.5 Z"/></g>
<g><path style="opacity:1" fill="#bcd9c7" d="M 186.5,120.5 C 191.59,122.144 196.923,123.144 202.5,123.5C 197.103,123.215 191.77,123.549 186.5,124.5C 185.218,123.042 185.218,121.708 186.5,120.5 Z"/></g>
<g><path style="opacity:1" fill="#17572b" d="M 203.5,123.5 C 203.167,123.5 202.833,123.5 202.5,123.5C 196.923,123.144 191.59,122.144 186.5,120.5C 186.5,120.167 186.5,119.833 186.5,119.5C 191.975,118.511 197.642,118.178 203.5,118.5C 203.5,120.167 203.5,121.833 203.5,123.5 Z"/></g>
<g><path style="opacity:1" fill="#bad4c2" d="M 203.5,123.5 C 203.5,121.833 203.5,120.167 203.5,118.5C 197.642,118.178 191.975,118.511 186.5,119.5C 185.957,119.44 185.624,119.107 185.5,118.5C 191.522,117.794 197.522,117.128 203.5,116.5C 204.797,118.973 204.797,121.307 203.5,123.5 Z"/></g>
<g><path style="opacity:1" fill="#5f876d" d="M 37.5,114.5 C 37.6716,115.492 37.3382,116.158 36.5,116.5C 32.2878,115.003 28.1211,115.336 24,117.5C 23.3333,116.167 23.3333,114.833 24,113.5C 28.4014,114.467 32.9014,114.8 37.5,114.5 Z"/></g>
<g><path style="opacity:1" fill="#b9d2c2" d="M 195.5,108.5 C 193.444,109.199 191.444,110.199 189.5,111.5C 190.263,112.719 191.263,113.719 192.5,114.5C 191.675,115.386 190.675,115.719 189.5,115.5C 188.85,113.565 188.517,111.565 188.5,109.5C 190.764,108.781 193.097,108.448 195.5,108.5 Z"/></g>
<g><path style="opacity:1" fill="#6b8e7b" d="M 40.5,118.5 C 40.7845,116.585 40.4511,114.919 39.5,113.5C 39.3893,112.883 39.056,112.383 38.5,112C 35.3054,111.819 32.3054,111.319 29.5,110.5C 30.791,110.737 31.791,110.404 32.5,109.5C 34.5466,109.511 36.5466,109.844 38.5,110.5C 39.6473,110.182 40.4806,109.516 41,108.5C 41.8075,112.027 41.6408,115.36 40.5,118.5 Z"/></g>
<g><path style="opacity:1" fill="#608872" d="M 186.5,107.5 C 187.167,108.167 187.833,108.833 188.5,109.5C 188.517,111.565 188.85,113.565 189.5,115.5C 187.023,113.584 186.023,110.917 186.5,107.5 Z"/></g>
<g><path style="opacity:1" fill="#89aa94" d="M 203.5,104.5 C 204.434,105.568 204.768,106.901 204.5,108.5C 202.833,108.5 201.167,108.5 199.5,108.5C 200.568,107.566 201.901,107.232 203.5,107.5C 203.5,106.5 203.5,105.5 203.5,104.5 Z"/></g>
<g><path style="opacity:1" fill="#175829" d="M 203.5,104.5 C 203.5,105.5 203.5,106.5 203.5,107.5C 201.901,107.232 200.568,107.566 199.5,108.5C 198.167,108.5 196.833,108.5 195.5,108.5C 193.097,108.448 190.764,108.781 188.5,109.5C 187.833,108.833 187.167,108.167 186.5,107.5C 186.089,104.724 186.922,104.057 189,105.5C 192.794,104.77 196.627,104.27 200.5,104C 201.667,103.5 202.5,102.667 203,101.5C 203.483,102.448 203.649,103.448 203.5,104.5 Z"/></g>
<g><path style="opacity:1" fill="#3c684c" d="M 34.5,98.5 C 32.396,98.2011 30.396,98.5344 28.5,99.5C 29.2427,100.182 29.9094,100.849 30.5,101.5C 27.4096,100.83 25.743,101.997 25.5,105C 26.639,108.298 28.9724,109.798 32.5,109.5C 31.791,110.404 30.791,110.737 29.5,110.5C 27.8297,110.249 26.3297,109.582 25,108.5C 22.4865,99.1824 25.6532,95.8491 34.5,98.5 Z"/></g>
<g><path style="opacity:1" fill="#436956" d="M 186.5,99.5 C 190.102,99.678 190.102,100.678 186.5,102.5C 185.438,101.575 185.438,100.575 186.5,99.5 Z"/></g>
<g><path style="opacity:1" fill="#135827" d="M 34.5,98.5 C 37.1667,98.5 39.8333,98.5 42.5,98.5C 42.7852,100.288 42.4519,101.955 41.5,103.5C 37.9284,102.319 34.2617,101.652 30.5,101.5C 29.9094,100.849 29.2427,100.182 28.5,99.5C 30.396,98.5344 32.396,98.2011 34.5,98.5 Z"/></g>
<g><path style="opacity:1" fill="#d8e8dc" d="M 107.5,68.5 C 121.851,67.5511 130.851,73.8845 134.5,87.5C 148.646,87.1575 158.48,93.4908 164,106.5C 168.511,130.482 158.677,143.815 134.5,146.5C 130.509,160.671 121.176,166.504 106.5,164C 98.4122,161.335 93.4122,155.835 91.5,147.5C 68.7796,144.283 58.6129,131.283 61,108.5C 66.3767,94.6341 76.5433,87.6341 91.5,87.5C 93.2109,78.122 98.5443,71.7886 107.5,68.5 Z"/></g>
<g><path style="opacity:1" fill="#235d34" d="M 84.5,121.5 C 91.175,121.334 97.8417,121.5 104.5,122C 102.167,122.333 99.8333,122.667 97.5,123C 98.0442,123.717 98.7109,124.217 99.5,124.5C 99.7828,125.289 100.283,125.956 101,126.5C 101.5,133.492 101.666,140.492 101.5,147.5C 102.5,147.5 103.5,147.5 104.5,147.5C 105.087,141.697 104.42,136.197 102.5,131C 103.094,130.536 103.761,130.369 104.5,130.5C 105.5,130.5 106.5,130.5 107.5,130.5C 107.238,131.978 107.571,133.311 108.5,134.5C 110.111,133.68 110.778,132.346 110.5,130.5C 111.833,130.5 113.167,130.5 114.5,130.5C 115.823,135.067 117.156,135.234 118.5,131C 119.448,130.517 120.448,130.351 121.5,130.5C 121.58,135.858 121.58,141.525 121.5,147.5C 122.5,147.5 123.5,147.5 124.5,147.5C 126.374,148.285 128.374,148.952 130.5,149.5C 128.683,156.148 124.35,160.315 117.5,162C 103.597,163.606 95.597,157.439 93.5,143.5C 89.2984,143.817 85.2984,143.483 81.5,142.5C 86.5,142.5 91.5,142.5 96.5,142.5C 96.5,141.167 96.5,139.833 96.5,138.5C 95.6588,137.074 94.6588,135.74 93.5,134.5C 95.5,134.5 97.5,134.5 99.5,134.5C 99.7261,131.751 99.3928,129.084 98.5,126.5C 96.3848,124.385 94.0514,124.051 91.5,125.5C 91.1667,125.5 90.8333,125.5 90.5,125.5C 90.9528,124.542 91.6195,123.708 92.5,123C 90.1902,122.503 87.8568,122.337 85.5,122.5C 84.8333,122.5 84.5,122.167 84.5,121.5 Z"/></g>
<g><path style="opacity:1" fill="#e9f3eb" d="M 96.5,149.5 C 107.167,149.5 117.833,149.5 128.5,149.5C 127.93,153.912 125.597,157.078 121.5,159C 109.976,163.553 101.643,160.387 96.5,149.5 Z"/></g>
<g><path style="opacity:1" fill="#779c86" d="M 108.5,151.5 C 109.5,151.5 110.5,151.5 111.5,151.5C 112.158,155.677 110.492,157.177 106.5,156C 107.267,154.53 107.933,153.03 108.5,151.5 Z"/></g>
<g><path style="opacity:1" fill="#29563a" d="M 118.5,151.5 C 120.134,152.207 121.468,153.373 122.5,155C 119.828,155.485 118.495,154.318 118.5,151.5 Z"/></g>
<g><path style="opacity:1" fill="#3b5443" d="M 104.5,152.5 C 105.776,153.386 105.776,154.386 104.5,155.5C 103.913,154.767 103.913,153.767 104.5,152.5 Z"/></g>
<g><path style="opacity:1" fill="#517e62" d="M 112.5,151.5 C 115.91,151.384 117.244,153.05 116.5,156.5C 115.022,156.762 113.689,156.429 112.5,155.5C 113.363,154.274 113.363,152.94 112.5,151.5 Z"/></g>
<g><path style="opacity:1" fill="#e0f0df" d="M 96.5,138.5 C 96.8212,136.952 97.8212,136.285 99.5,136.5C 99.8226,140.226 99.4892,143.893 98.5,147.5C 97.8326,144.358 97.166,141.358 96.5,138.5 Z"/></g>
<g><path style="opacity:1" fill="#e3f0e7" d="M 105.5,125.5 C 104.566,126.568 104.232,127.901 104.5,129.5C 104.5,129.833 104.5,130.167 104.5,130.5C 103.761,130.369 103.094,130.536 102.5,131C 104.42,136.197 105.087,141.697 104.5,147.5C 103.5,147.5 102.5,147.5 101.5,147.5C 101.666,140.492 101.5,133.492 101,126.5C 100.283,125.956 99.7828,125.289 99.5,124.5C 100.274,123.853 101.274,123.52 102.5,123.5C 104.03,123.64 105.03,124.307 105.5,125.5 Z"/></g>
<g><path style="opacity:1" fill="#366e48" d="M 128.5,123.5 C 128.5,123.833 128.5,124.167 128.5,124.5C 126.701,127.505 126.034,130.838 126.5,134.5C 128.5,134.5 130.5,134.5 132.5,134.5C 131.313,135.534 130.48,136.867 130,138.5C 129.819,141.695 129.319,144.695 128.5,147.5C 128.211,143.894 128.544,140.394 129.5,137C 128.552,136.517 127.552,136.351 126.5,136.5C 126.5,140.167 126.5,143.833 126.5,147.5C 125.833,147.5 125.167,147.5 124.5,147.5C 124.334,140.159 124.5,132.826 125,125.5C 125.383,124.944 125.883,124.611 126.5,124.5C 127.167,124.167 127.833,123.833 128.5,123.5 Z"/></g>
<g><path style="opacity:1" fill="#eef9f3" d="M 128.5,147.5 C 127.833,147.5 127.167,147.5 126.5,147.5C 126.5,143.833 126.5,140.167 126.5,136.5C 127.552,136.351 128.552,136.517 129.5,137C 128.544,140.394 128.211,143.894 128.5,147.5 Z"/></g>
<g><path style="opacity:1" fill="#f4f9f5" d="M 110.5,134.5 C 113.044,134.104 115.211,134.771 117,136.5C 117.499,140.152 117.665,143.818 117.5,147.5C 114.5,147.5 111.5,147.5 108.5,147.5C 107.975,142.86 108.642,138.527 110.5,134.5 Z"/></g>
<g><path style="opacity:1" fill="#e6f0e9" d="M 128.5,124.5 C 131.056,124.132 133.056,124.966 134.5,127C 133.129,129.319 132.462,131.819 132.5,134.5C 130.5,134.5 128.5,134.5 126.5,134.5C 126.034,130.838 126.701,127.505 128.5,124.5 Z"/></g>
<g><path style="opacity:1" fill="#d6e7db" d="M 126.5,124.5 C 125.883,124.611 125.383,124.944 125,125.5C 124.5,132.826 124.334,140.159 124.5,147.5C 123.5,147.5 122.5,147.5 121.5,147.5C 121.58,141.525 121.58,135.858 121.5,130.5C 121.5,130.167 121.5,129.833 121.5,129.5C 121.768,127.901 121.434,126.568 120.5,125.5C 120.97,124.307 121.97,123.64 123.5,123.5C 124.726,123.52 125.726,123.853 126.5,124.5 Z"/></g>
<g><path style="opacity:1" fill="#add1b9" d="M 104.5,130.5 C 104.5,130.167 104.5,129.833 104.5,129.5C 110.167,129.5 115.833,129.5 121.5,129.5C 121.5,129.833 121.5,130.167 121.5,130.5C 120.448,130.351 119.448,130.517 118.5,131C 117.156,135.234 115.823,135.067 114.5,130.5C 113.167,130.5 111.833,130.5 110.5,130.5C 110.778,132.346 110.111,133.68 108.5,134.5C 107.571,133.311 107.238,131.978 107.5,130.5C 106.5,130.5 105.5,130.5 104.5,130.5 Z"/></g>
<g><path style="opacity:1" fill="#eaf3ed" d="M 93.5,134.5 C 93.5871,131.261 92.9205,128.261 91.5,125.5C 94.0514,124.051 96.3848,124.385 98.5,126.5C 99.3928,129.084 99.7261,131.751 99.5,134.5C 97.5,134.5 95.5,134.5 93.5,134.5 Z"/></g>
<g><path style="opacity:1" fill="#b6d5be" d="M 85.5,122.5 C 87.8568,122.337 90.1902,122.503 92.5,123C 91.6195,123.708 90.9528,124.542 90.5,125.5C 88.326,125.25 86.6594,124.25 85.5,122.5 Z"/></g>
<g><path style="opacity:1" fill="#155829" d="M 106.5,96.5 C 107.5,96.5 108.5,96.5 109.5,96.5C 109.5,99.8333 109.5,103.167 109.5,106.5C 110.791,106.263 111.791,106.596 112.5,107.5C 112.167,107.5 111.833,107.5 111.5,107.5C 110.2,109.223 109.533,111.39 109.5,114C 109.504,116.361 109.837,118.527 110.5,120.5C 112.167,120.5 113.833,120.5 115.5,120.5C 116.097,115.706 115.43,111.373 113.5,107.5C 114.167,106.833 114.833,106.167 115.5,105.5C 115.5,102.5 115.5,99.5 115.5,96.5C 116.833,96.5 118.167,96.5 119.5,96.5C 119.173,106.348 119.506,116.014 120.5,125.5C 121.434,126.568 121.768,127.901 121.5,129.5C 115.833,129.5 110.167,129.5 104.5,129.5C 104.232,127.901 104.566,126.568 105.5,125.5C 106.494,116.014 106.827,106.348 106.5,96.5 Z"/></g>
<g><path style="opacity:1" fill="#cee4cf" d="M 110.5,122.5 C 112.167,122.5 113.833,122.5 115.5,122.5C 115.5,123.5 115.5,124.5 115.5,125.5C 113.833,125.5 112.167,125.5 110.5,125.5C 110.5,124.5 110.5,123.5 110.5,122.5 Z"/></g>
<g><path style="opacity:1" fill="#075726" d="M 64.5,108.5 C 67.1667,108.5 69.8333,108.5 72.5,108.5C 77.4356,109.771 80.7689,112.771 82.5,117.5C 82.5,118.167 82.5,118.833 82.5,119.5C 82.5,120.833 83.1667,121.5 84.5,121.5C 84.5,122.167 84.8333,122.5 85.5,122.5C 86.6594,124.25 88.326,125.25 90.5,125.5C 90.8333,125.5 91.1667,125.5 91.5,125.5C 92.9205,128.261 93.5871,131.261 93.5,134.5C 94.6588,135.74 95.6588,137.074 96.5,138.5C 96.5,139.833 96.5,141.167 96.5,142.5C 91.5,142.5 86.5,142.5 81.5,142.5C 69.8381,137.882 63.5047,129.215 62.5,116.5C 62.5637,113.65 63.2304,110.983 64.5,108.5 Z"/></g>
<g><path style="opacity:1" fill="#055626" d="M 160.5,106.5 C 165.758,122.539 160.758,134.373 145.5,142C 141.249,143.195 136.915,143.695 132.5,143.5C 132.405,145.786 131.738,147.786 130.5,149.5C 128.374,148.952 126.374,148.285 124.5,147.5C 125.167,147.5 125.833,147.5 126.5,147.5C 127.167,147.5 127.833,147.5 128.5,147.5C 129.319,144.695 129.819,141.695 130,138.5C 130.48,136.867 131.313,135.534 132.5,134.5C 132.462,131.819 133.129,129.319 134.5,127C 133.056,124.966 131.056,124.132 128.5,124.5C 128.5,124.167 128.5,123.833 128.5,123.5C 126.031,122.683 123.365,122.183 120.5,122C 124.821,121.501 129.154,121.334 133.5,121.5C 133.5,121.833 133.5,122.167 133.5,122.5C 133.062,122.435 132.728,122.601 132.5,123C 134.291,125.099 136.291,125.599 138.5,124.5C 140.441,124.131 142.275,123.464 144,122.5C 144.903,118.195 146.737,114.361 149.5,111C 152.101,110.08 154.768,109.413 157.5,109C 158.691,108.302 159.691,107.469 160.5,106.5 Z"/></g>
<g><path style="opacity:1" fill="#b8dec3" d="M 133.5,122.5 C 135.527,122.338 137.527,122.505 139.5,123C 138.944,123.383 138.611,123.883 138.5,124.5C 136.291,125.599 134.291,125.099 132.5,123C 132.728,122.601 133.062,122.435 133.5,122.5 Z"/></g>
<g><path style="opacity:1" fill="#adcebb" d="M 119.5,96.5 C 120.491,103.313 120.825,110.313 120.5,117.5C 127.789,119.147 135.456,120.147 143.5,120.5C 140.232,121.487 136.898,121.82 133.5,121.5C 129.154,121.334 124.821,121.501 120.5,122C 123.365,122.183 126.031,122.683 128.5,123.5C 127.833,123.833 127.167,124.167 126.5,124.5C 125.726,123.853 124.726,123.52 123.5,123.5C 121.97,123.64 120.97,124.307 120.5,125.5C 119.506,116.014 119.173,106.348 119.5,96.5 Z"/></g>
<g><path style="opacity:1" fill="#a2c5af" d="M 106.5,96.5 C 106.827,106.348 106.494,116.014 105.5,125.5C 105.03,124.307 104.03,123.64 102.5,123.5C 101.274,123.52 100.274,123.853 99.5,124.5C 98.7109,124.217 98.0442,123.717 97.5,123C 99.8333,122.667 102.167,122.333 104.5,122C 97.8417,121.5 91.175,121.334 84.5,121.5C 83.1667,121.5 82.5,120.833 82.5,119.5C 90.2428,120.13 97.5762,119.463 104.5,117.5C 105.167,110.5 105.833,103.5 106.5,96.5 Z"/></g>
<g><path style="opacity:1" fill="#3d6f4d" d="M 82.5,117.5 C 89.8333,117.5 97.1667,117.5 104.5,117.5C 97.5762,119.463 90.2428,120.13 82.5,119.5C 82.5,118.833 82.5,118.167 82.5,117.5 Z"/></g>
<g><path style="opacity:1" fill="#edf8f0" d="M 111.5,107.5 C 111.833,107.5 112.167,107.5 112.5,107.5C 112.833,107.5 113.167,107.5 113.5,107.5C 115.43,111.373 116.097,115.706 115.5,120.5C 113.833,120.5 112.167,120.5 110.5,120.5C 110.231,116.069 110.564,111.735 111.5,107.5 Z"/></g>
<g><path style="opacity:1" fill="#618e73" d="M 111.5,110.5 C 112.748,111.334 113.415,112.667 113.5,114.5C 113.167,115.833 112.833,117.167 112.5,118.5C 111.52,115.914 111.187,113.247 111.5,110.5 Z"/></g>
<g><path style="opacity:1" fill="#85a792" d="M 111.5,107.5 C 110.564,111.735 110.231,116.069 110.5,120.5C 109.837,118.527 109.504,116.361 109.5,114C 109.533,111.39 110.2,109.223 111.5,107.5 Z"/></g>
<g><path style="opacity:1" fill="#4f7059" d="M 44.5,86.5 C 46.7414,91.742 45.0747,94.5753 39.5,95C 43.4359,93.6295 44.7692,91.1295 43.5,87.5C 44.1667,87.5 44.5,87.1667 44.5,86.5 Z"/></g>
<g><path style="opacity:1" fill="#1a592d" d="M 199.5,84.5 C 199.539,85.5832 199.873,86.5832 200.5,87.5C 194.509,88.9656 189.675,92.2989 186,97.5C 184.56,96.0696 184.226,94.403 185,92.5C 187.04,90.6298 188.873,88.6298 190.5,86.5C 193.123,84.7345 196.123,84.0679 199.5,84.5 Z"/></g>
<g><path style="opacity:1" fill="#19572b" d="M 44.5,86.5 C 44.5,87.1667 44.1667,87.5 43.5,87.5C 40.213,88.264 37.5463,90.0973 35.5,93C 33.5,93.6667 31.5,93.6667 29.5,93C 28.944,92.6174 28.6107,92.1174 28.5,91.5C 28.5,90.8333 28.8333,90.5 29.5,90.5C 32.787,89.736 35.4537,87.9027 37.5,85C 39.5,84.3333 41.5,84.3333 43.5,85C 44.056,85.3826 44.3893,85.8826 44.5,86.5 Z"/></g>
<g><path style="opacity:1" fill="#c1d8c7" d="M 143.5,83.5 C 148.559,83.0846 152.559,84.7513 155.5,88.5C 151.458,86.8225 147.458,85.1559 143.5,83.5 Z"/></g>
<g><path style="opacity:1" fill="#c9ddd1" d="M 199.5,84.5 C 196.123,84.0679 193.123,84.7345 190.5,86.5C 189.209,86.7373 188.209,86.404 187.5,85.5C 188.239,85.631 188.906,85.4643 189.5,85C 186.996,84.3024 184.663,83.4691 182.5,82.5C 185.508,82.7009 188.508,83.0343 191.5,83.5C 194.211,82.7966 196.544,82.1299 198.5,81.5C 199.386,82.325 199.719,83.325 199.5,84.5 Z"/></g>
<g><path style="opacity:1" fill="#547a60" d="M 182.5,82.5 C 184.663,83.4691 186.996,84.3024 189.5,85C 188.906,85.4643 188.239,85.631 187.5,85.5C 186.305,85.3225 185.138,84.9891 184,84.5C 183.055,84.9054 182.388,85.572 182,86.5C 181.5,85.5 181,84.5 180.5,83.5C 180.957,82.7025 181.624,82.3691 182.5,82.5 Z"/></g>
<g><path style="opacity:1" fill="#688774" d="M 29.5,90.5 C 28.8333,90.5 28.5,90.8333 28.5,91.5C 27.0887,87.6428 27.7554,83.9761 30.5,80.5C 32.2251,81.0149 33.8917,81.6816 35.5,82.5C 30.5857,83.3691 28.5857,86.0358 29.5,90.5 Z"/></g>
<g><path style="opacity:1" fill="#2c5e3c" d="M 160.5,106.5 C 159.691,107.469 158.691,108.302 157.5,109C 154.768,109.413 152.101,110.08 149.5,111C 146.737,114.361 144.903,118.195 144,122.5C 142.275,123.464 140.441,124.131 138.5,124.5C 138.611,123.883 138.944,123.383 139.5,123C 137.527,122.505 135.527,122.338 133.5,122.5C 133.5,122.167 133.5,121.833 133.5,121.5C 136.898,121.82 140.232,121.487 143.5,120.5C 135.456,120.147 127.789,119.147 120.5,117.5C 128.174,117.666 135.841,117.5 143.5,117C 146.246,110.293 151.246,107.126 158.5,107.5C 155.943,99.7832 150.61,94.9498 142.5,93C 138.582,91.8436 134.582,91.3436 130.5,91.5C 128.904,76.3504 120.57,70.5171 105.5,74C 98.3978,77.7069 95.0644,83.5402 95.5,91.5C 85.163,90.2552 76.663,93.5885 70,101.5C 68.4412,103.217 67.6079,105.217 67.5,107.5C 69.4147,107.216 71.0813,107.549 72.5,108.5C 69.8333,108.5 67.1667,108.5 64.5,108.5C 69.4711,95.1711 79.1377,89.1711 93.5,90.5C 94.29,78.5659 100.623,72.2326 112.5,71.5C 123.902,72.2351 130.569,78.2351 132.5,89.5C 145.719,89.0961 155.052,94.7628 160.5,106.5 Z"/></g>
<g><path style="opacity:1" fill="#f7faf8" d="M 120.5,117.5 C 120.825,110.313 120.491,103.313 119.5,96.5C 118.167,96.5 116.833,96.5 115.5,96.5C 115.5,99.5 115.5,102.5 115.5,105.5C 113.833,105.5 112.167,105.5 110.5,105.5C 110.81,102.287 110.477,99.2869 109.5,96.5C 108.5,96.5 107.5,96.5 106.5,96.5C 105.833,103.5 105.167,110.5 104.5,117.5C 97.1667,117.5 89.8333,117.5 82.5,117.5C 80.7689,112.771 77.4356,109.771 72.5,108.5C 71.0813,107.549 69.4147,107.216 67.5,107.5C 67.6079,105.217 68.4412,103.217 70,101.5C 76.663,93.5885 85.163,90.2552 95.5,91.5C 95.0644,83.5402 98.3978,77.7069 105.5,74C 120.57,70.5171 128.904,76.3504 130.5,91.5C 134.582,91.3436 138.582,91.8436 142.5,93C 150.61,94.9498 155.943,99.7832 158.5,107.5C 151.246,107.126 146.246,110.293 143.5,117C 135.841,117.5 128.174,117.666 120.5,117.5 Z"/></g>
<g><path style="opacity:1" fill="#7ea590" d="M 109.5,96.5 C 110.477,99.2869 110.81,102.287 110.5,105.5C 112.167,105.5 113.833,105.5 115.5,105.5C 114.833,106.167 114.167,106.833 113.5,107.5C 113.167,107.5 112.833,107.5 112.5,107.5C 111.791,106.596 110.791,106.263 109.5,106.5C 109.5,103.167 109.5,99.8333 109.5,96.5 Z"/></g>
<g><path style="opacity:1" fill="#3e6146" d="M 111.5,99.5 C 112.5,99.5 113.5,99.5 114.5,99.5C 114.5,100.5 114.5,101.5 114.5,102.5C 113.5,102.5 112.5,102.5 111.5,102.5C 111.5,101.5 111.5,100.5 111.5,99.5 Z"/></g>
<g><path style="opacity:1" fill="#175429" d="M 111.5,82.5 C 112.5,82.5 113.5,82.5 114.5,82.5C 114.425,85.2062 114.092,87.8728 113.5,90.5C 114.5,90.5 115.5,90.5 116.5,90.5C 117.5,90.5 118.5,90.5 119.5,90.5C 119.36,92.1238 120.027,93.2904 121.5,94C 115.833,94.6667 110.167,94.6667 104.5,94C 105.337,92.9887 105.67,91.8221 105.5,90.5C 107.554,90.6347 109.221,89.968 110.5,88.5C 110.205,86.2646 110.539,84.2646 111.5,82.5 Z"/></g>
<g><path style="opacity:1" fill="#7bab92" d="M 110.5,88.5 C 112.337,88.6395 112.67,89.3061 111.5,90.5C 110.702,90.0431 110.369,89.3764 110.5,88.5 Z"/></g>
<g><path style="opacity:1" fill="#528165" d="M 114.5,82.5 C 115.391,83.2613 116.058,84.2613 116.5,85.5C 115.948,87.0026 115.948,88.6693 116.5,90.5C 115.5,90.5 114.5,90.5 113.5,90.5C 114.092,87.8728 114.425,85.2062 114.5,82.5 Z"/></g>
<g><path style="opacity:1" fill="#789284" d="M 114.5,82.5 C 113.5,82.5 112.5,82.5 111.5,82.5C 112.5,75.8333 113.5,75.8333 114.5,82.5 Z"/></g>
<g><path style="opacity:1" fill="#cde2d5" d="M 174.5,68.5 C 172.863,67.7822 171.197,67.6155 169.5,68C 170.801,69.6155 170.801,71.1155 169.5,72.5C 169.649,71.448 169.483,70.448 169,69.5C 167.414,68.624 165.914,67.624 164.5,66.5C 167.106,65.3483 169.773,65.1816 172.5,66C 173.381,66.7083 174.047,67.5416 174.5,68.5 Z"/></g>
<g><path style="opacity:1" fill="#17592a" d="M 58.5,41.5 C 60.1439,41.2865 61.6439,41.6198 63,42.5C 62.9133,46.0895 64.08,49.0895 66.5,51.5C 64.8356,53.9807 64.3356,56.6474 65,59.5C 68.2792,62.7792 71.6126,66.1126 75,69.5C 75.49,70.7932 75.6567,72.1266 75.5,73.5C 71.188,71.7105 67.5214,68.8772 64.5,65C 63.0997,63.5619 61.433,62.7286 59.5,62.5C 59.5,64.5 59.5,66.5 59.5,68.5C 54.5253,68.9331 51.0253,66.9331 49,62.5C 49.6012,59.7427 50.4345,56.9094 51.5,54C 49.9801,51.9731 48.6467,49.8065 47.5,47.5C 47.4342,45.7336 48.2676,44.7336 50,44.5C 54.4786,48.857 57.3119,47.857 58.5,41.5 Z"/></g>
<g><path style="opacity:1" fill="#18572b" d="M 178.5,51.5 C 175.577,52.1634 174.91,53.8301 176.5,56.5C 177.711,55.7261 177.711,54.8928 176.5,54C 177.094,53.5357 177.761,53.369 178.5,53.5C 179.209,54.404 180.209,54.7373 181.5,54.5C 181.762,55.9778 181.429,57.3112 180.5,58.5C 178.435,58.953 176.768,59.953 175.5,61.5C 177.171,63.5098 177.838,65.8431 177.5,68.5C 176.5,68.5 175.5,68.5 174.5,68.5C 174.047,67.5416 173.381,66.7083 172.5,66C 169.773,65.1816 167.106,65.3483 164.5,66.5C 165.914,67.624 167.414,68.624 169,69.5C 169.483,70.448 169.649,71.448 169.5,72.5C 169.44,73.0431 169.107,73.3764 168.5,73.5C 166.833,72.1667 165.167,70.8333 163.5,69.5C 160.989,72.7553 157.656,74.422 153.5,74.5C 153.373,72.0846 153.207,69.7513 153,67.5C 154.444,69.1554 156.278,69.822 158.5,69.5C 158.719,68.325 158.386,67.325 157.5,66.5C 154.328,65.6686 152.662,63.6686 152.5,60.5C 155.353,61.1892 157.853,62.5225 160,64.5C 165.633,62.4738 165.133,61.1405 158.5,60.5C 158.62,59.4138 159.287,58.7472 160.5,58.5C 164.495,60.3446 168.495,61.8446 172.5,63C 168.878,60.0241 164.878,57.8574 160.5,56.5C 157.472,56.3389 154.639,57.0056 152,58.5C 150.97,58.1639 150.47,57.4972 150.5,56.5C 151.812,54.5212 153.479,52.8545 155.5,51.5C 156.62,52.8334 157.953,53.3334 159.5,53C 160.665,51.0083 161.998,49.175 163.5,47.5C 164.65,46.1498 165.317,46.3164 165.5,48C 163.922,49.9716 163.089,52.1383 163,54.5C 164.332,52.34 165.832,50.34 167.5,48.5C 167.908,47.3569 168.575,46.3569 169.5,45.5C 171.5,46.8333 173.5,48.1667 175.5,49.5C 176.736,48.7542 178.07,48.4208 179.5,48.5C 179.737,49.791 179.404,50.791 178.5,51.5 Z"/></g>
<g><path style="opacity:1" fill="#8abd99" d="M 160.5,56.5 C 164.878,57.8574 168.878,60.0241 172.5,63C 168.495,61.8446 164.495,60.3446 160.5,58.5C 159.287,58.7472 158.62,59.4138 158.5,60.5C 157.596,59.791 157.263,58.791 157.5,57.5C 158.791,57.7373 159.791,57.404 160.5,56.5 Z"/></g>
<g><path style="opacity:1" fill="#e0f4e4" d="M 54.5,56.5 C 56.1042,57.287 56.7709,58.6203 56.5,60.5C 55.5,60.5 54.5,60.5 53.5,60.5C 53.4326,59.0413 53.7659,57.7079 54.5,56.5 Z"/></g>
<g><path style="opacity:1" fill="#cbddd0" d="M 150.5,56.5 C 150.47,57.4972 150.97,58.1639 152,58.5C 154.639,57.0056 157.472,56.3389 160.5,56.5C 159.791,57.404 158.791,57.7373 157.5,57.5C 157.263,58.791 157.596,59.791 158.5,60.5C 165.133,61.1405 165.633,62.4738 160,64.5C 157.853,62.5225 155.353,61.1892 152.5,60.5C 151.791,59.596 150.791,59.2627 149.5,59.5C 149.263,58.209 149.596,57.209 150.5,56.5 Z"/></g>
<g><path style="opacity:1" fill="#88c3a0" d="M 166.5,53.5 C 167.376,53.3691 168.043,53.7025 168.5,54.5C 166.192,55.8734 165.525,55.5401 166.5,53.5 Z"/></g>
<g><path style="opacity:1" fill="#a4c2ab" d="M 143.5,51.5 C 145.048,51.8212 145.715,52.8212 145.5,54.5C 142.941,54.8016 140.607,54.4682 138.5,53.5C 140.527,53.6621 142.527,53.4955 144.5,53C 143.944,52.6174 143.611,52.1174 143.5,51.5 Z"/></g>
<g><path style="opacity:1" fill="#a0c8ac" d="M 178.5,51.5 C 178.5,52.1667 178.5,52.8333 178.5,53.5C 177.761,53.369 177.094,53.5357 176.5,54C 177.711,54.8928 177.711,55.7261 176.5,56.5C 174.91,53.8301 175.577,52.1634 178.5,51.5 Z"/></g>
<g><path style="opacity:1" fill="#d5eae1" d="M 57.5,48.5 C 58.5,48.5 59.5,48.5 60.5,48.5C 60.762,49.9778 60.4287,51.3112 59.5,52.5C 57.8888,51.6798 57.2222,50.3464 57.5,48.5 Z"/></g>
<g><path style="opacity:1" fill="#b3ddbc" d="M 169.5,49.5 C 171.337,49.6395 171.67,50.3061 170.5,51.5C 169.702,51.0431 169.369,50.3764 169.5,49.5 Z"/></g>
<g><path style="opacity:1" fill="#81ad89" d="M 167.5,48.5 C 165.832,50.34 164.332,52.34 163,54.5C 163.089,52.1383 163.922,49.9716 165.5,48C 165.317,46.3164 164.65,46.1498 163.5,47.5C 163.821,45.9519 164.821,45.2852 166.5,45.5C 166.263,46.791 166.596,47.791 167.5,48.5 Z"/></g>
<g><path style="opacity:1" fill="#17572a" d="M 143.5,51.5 C 143.611,52.1174 143.944,52.6174 144.5,53C 142.527,53.4955 140.527,53.6621 138.5,53.5C 135.923,52.3939 134.256,50.3939 133.5,47.5C 132.897,44.6924 131.897,42.0258 130.5,39.5C 128.35,41.1491 126.35,42.9824 124.5,45C 123.207,45.49 121.873,45.6567 120.5,45.5C 119.71,44.5987 118.71,43.9321 117.5,43.5C 119.732,41.8046 122.399,40.6379 125.5,40C 127.037,38.8904 127.703,37.3904 127.5,35.5C 125.833,35.5 124.167,35.5 122.5,35.5C 121.539,33.7354 121.205,31.7354 121.5,29.5C 124.482,29.9629 127.482,30.2962 130.5,30.5C 130.5,28.5 130.5,26.5 130.5,24.5C 132.5,24.5 134.5,24.5 136.5,24.5C 136.643,26.2624 136.309,27.9291 135.5,29.5C 135.833,30.5 136.5,31.1667 137.5,31.5C 140.428,30.0791 141.762,31.0791 141.5,34.5C 138.833,34.8333 136.167,35.1667 133.5,35.5C 134.346,42.5524 137.679,47.8857 143.5,51.5 Z"/></g>
<g><path style="opacity:1" fill="#d2e4d8" d="M 133.5,47.5 C 131.827,46.657 130.66,45.3237 130,43.5C 128.391,44.1466 126.891,44.98 125.5,46C 123.613,46.7796 121.946,46.6129 120.5,45.5C 121.873,45.6567 123.207,45.49 124.5,45C 126.35,42.9824 128.35,41.1491 130.5,39.5C 131.897,42.0258 132.897,44.6924 133.5,47.5 Z"/></g>
<g><path style="opacity:1" fill="#d2e2d7" d="M 122.5,35.5 C 124.167,35.5 125.833,35.5 127.5,35.5C 127.703,37.3904 127.037,38.8904 125.5,40C 122.399,40.6379 119.732,41.8046 117.5,43.5C 116.596,42.791 116.263,41.791 116.5,40.5C 119.321,40.4613 121.988,39.7946 124.5,38.5C 123.624,37.7492 122.624,37.2492 121.5,37C 122.056,36.6174 122.389,36.1174 122.5,35.5 Z"/></g>
<g><path style="opacity:1" fill="#18592b" d="M 84.5,27.5 C 85.9305,27.4208 87.2638,27.7542 88.5,28.5C 90.3128,32.6127 92.3128,36.6127 94.5,40.5C 97.172,38.5745 98.172,35.9079 97.5,32.5C 99.3904,32.2965 100.89,32.9632 102,34.5C 103.108,38.0863 103.608,41.753 103.5,45.5C 101.641,45.5391 100.308,44.7058 99.5,43C 98.5,42.3333 97.5,42.3333 96.5,43C 94.3207,45.5109 91.8207,47.6776 89,49.5C 88.5172,50.448 88.3505,51.448 88.5,52.5C 86.8561,52.7135 85.3561,52.3802 84,51.5C 83.4424,48.0662 82.609,44.7328 81.5,41.5C 82.552,41.3505 83.552,41.5172 84.5,42C 86.1976,46.2306 87.8643,46.3972 89.5,42.5C 88.4783,38.9284 86.9783,35.595 85,32.5C 84.5065,30.8659 84.3398,29.1992 84.5,27.5 Z"/></g>
<g><path style="opacity:1" fill="#a8c8b3" d="M 122.5,7.5 C 113.151,7.48334 103.818,7.81667 94.5,8.5C 100.274,7.10252 106.274,6.43586 112.5,6.5C 116.018,6.5016 119.351,6.83493 122.5,7.5 Z"/></g>
<g><path style="opacity:1" fill="#1b592d" d="M 153.5,175.5 C 156.453,180.565 159.787,185.399 163.5,190C 162.335,191.084 161.002,191.917 159.5,192.5C 156.302,187.799 153.302,182.966 150.5,178C 151.571,177.148 152.571,176.315 153.5,175.5 Z"/></g>
<g><path style="opacity:1" fill="#5e8269" d="M 81.5,190.5 C 81.8333,189.833 82.1667,189.167 82.5,188.5C 84.3904,188.703 85.8904,188.037 87,186.5C 86.5203,189.165 85.687,191.831 84.5,194.5C 83.9432,192.668 82.9432,191.335 81.5,190.5 Z"/></g>
<g><path style="opacity:1" fill="#62876e" d="M 69.5,190.5 C 69.8417,191.338 70.5084,191.672 71.5,191.5C 70.9032,192.139 70.0698,192.472 69,192.5C 65.5407,191.869 62.7074,190.203 60.5,187.5C 60.8627,186.817 61.1961,186.15 61.5,185.5C 62.1174,185.389 62.6174,185.056 63,184.5C 63.7636,188.099 65.9302,190.099 69.5,190.5 Z"/></g>
<g><path style="opacity:1" fill="#1b5a2d" d="M 147.5,189.5 C 148.29,190.401 149.29,191.068 150.5,191.5C 151.234,192.708 151.567,194.041 151.5,195.5C 146.202,193.766 141.368,191.099 137,187.5C 136.601,187.728 136.435,188.062 136.5,188.5C 136.167,188.5 135.833,188.5 135.5,188.5C 135.167,187.833 134.833,187.167 134.5,186.5C 134.167,185.833 133.833,185.167 133.5,184.5C 135.068,183.527 136.735,183.36 138.5,184C 141.528,185.844 144.528,187.678 147.5,189.5 Z"/></g>
<g><path style="opacity:1" fill="#5f7f6f" d="M 93.5,190.5 C 94.3361,194.398 94.0028,198.398 92.5,202.5C 92.1667,202 91.8333,201.5 91.5,201C 92.4894,197.553 93.1561,194.053 93.5,190.5 Z"/></g>
<g><path style="opacity:1" fill="#83a391" d="M 105.5,198.5 C 104.449,197.778 103.782,196.778 103.5,195.5C 104.117,195.611 104.617,195.944 105,196.5C 105.287,194.109 105.787,191.776 106.5,189.5C 106.023,188.522 105.357,187.689 104.5,187C 106.579,186.192 108.579,186.359 110.5,187.5C 109.675,188.386 108.675,188.719 107.5,188.5C 107.841,192.16 107.175,195.493 105.5,198.5 Z"/></g>
<g><path style="opacity:1" fill="#165429" d="M 96.5,185.5 C 97.4959,185.414 98.3292,185.748 99,186.5C 100.793,189.394 102.293,192.394 103.5,195.5C 103.782,196.778 104.449,197.778 105.5,198.5C 105.509,200.308 105.009,201.975 104,203.5C 100.8,197.759 97.6334,192.092 94.5,186.5C 94.8417,185.662 95.5084,185.328 96.5,185.5 Z"/></g>
<g><path style="opacity:1" fill="#18582a" d="M 122.5,190.5 C 122.034,194.982 123.034,198.982 125.5,202.5C 124.791,203.404 123.791,203.737 122.5,203.5C 120.856,203.19 119.856,202.19 119.5,200.5C 119.248,196.233 118.581,192.066 117.5,188C 119.025,186.991 120.692,186.491 122.5,186.5C 122.5,187.833 122.5,189.167 122.5,190.5 Z"/></g>
<g><path style="opacity:1" fill="#6b947f" d="M 133.5,184.5 C 133.833,185.167 134.167,185.833 134.5,186.5C 133.5,186.5 132.5,186.5 131.5,186.5C 131.614,189.85 131.947,193.183 132.5,196.5C 132.134,203.337 128.8,205.671 122.5,203.5C 123.791,203.737 124.791,203.404 125.5,202.5C 126.93,202.579 128.264,202.246 129.5,201.5C 130.958,196.176 130.625,191.01 128.5,186C 130.154,185.392 131.821,184.892 133.5,184.5 Z"/></g>
<g><path style="opacity:1" fill="#5d856c" d="M 135.5,188.5 C 135.833,188.5 136.167,188.5 136.5,188.5C 138.023,192.381 139.69,196.214 141.5,200C 140.552,200.483 139.552,200.649 138.5,200.5C 137.91,196.397 136.91,192.397 135.5,188.5 Z"/></g>
<g><path style="opacity:1" fill="#52775a" d="M 77.5,196.5 C 78.1667,196.5 78.8333,196.5 79.5,196.5C 82.3351,197.786 85.1684,197.786 88,196.5C 88.3876,198.076 87.8876,199.409 86.5,200.5C 83.08,199.909 80.08,198.576 77.5,196.5 Z"/></g>
<g><path style="opacity:1" fill="#def0e3" d="M 124.5,212.5 C 115.343,213.658 106.009,213.824 96.5,213C 90.9016,212.024 85.5683,210.524 80.5,208.5C 84.4761,209.331 88.4761,209.497 92.5,209C 91.8333,208.667 91.1667,208.333 90.5,208C 95.142,208.063 99.8086,208.396 104.5,209C 101.118,209.176 97.7848,209.676 94.5,210.5C 96.0777,211.298 97.7444,211.798 99.5,212C 107.827,212.5 116.16,212.666 124.5,212.5 Z"/></g>
</svg>
