<?xml version="1.0" standalone="no"?>
<!DOCTYPE svg PUBLIC "-//W3C//DTD SVG 20010904//EN"
 "http://www.w3.org/TR/2001/REC-SVG-20010904/DTD/svg10.dtd">
<svg version="1.0" xmlns="http://www.w3.org/2000/svg"
 width="1391.000000pt" height="1390.000000pt" viewBox="0 0 1391.000000 1390.000000"
 preserveAspectRatio="xMidYMid meet">

<g transform="translate(0.000000,1390.000000) scale(0.100000,-0.100000)"
fill="#000000" stroke="none">
<path d="M5040 10661 c0 -5 -30 -12 -67 -16 -38 -3 -81 -10 -98 -15 -16 -5
-57 -16 -90 -26 -369 -105 -675 -362 -843 -707 -90 -184 -130 -311 -157 -491
-4 -21 -9 -35 -13 -31 -4 4 -9 280 -12 613 l-5 607 -319 3 c-227 2 -323 -1
-332 -9 -12 -10 -14 -176 -14 -1002 0 -667 -4 -1011 -11 -1056 -15 -92 -41
-191 -51 -197 -4 -3 -8 -12 -8 -20 0 -22 -73 -117 -117 -151 -54 -42 -120 -72
-210 -94 -110 -27 -348 -27 -452 1 -104 27 -193 73 -251 131 -53 53 -112 162
-132 245 -9 36 -13 337 -17 1099 l-6 1050 -315 3 c-173 1 -325 0 -338 -3 l-23
-6 3 -1052 c4 -961 6 -1059 22 -1132 34 -153 53 -218 92 -303 13 -29 24 -55
24 -59 0 -3 25 -42 55 -87 141 -208 351 -349 630 -421 148 -39 231 -47 465
-47 274 0 357 10 560 70 30 9 59 20 65 24 5 4 15 8 23 8 12 0 96 39 152 71 56
32 169 121 211 166 60 65 132 167 168 239 74 151 130 387 132 565 1 46 5 98 8
114 7 28 8 27 15 -20 14 -98 66 -282 101 -360 55 -122 72 -155 118 -228 28
-45 54 -84 57 -87 3 -3 31 -37 62 -76 149 -184 352 -322 608 -413 173 -61 421
-88 655 -71 129 9 291 41 360 70 17 7 39 16 50 20 84 31 222 110 302 173 34
26 66 47 71 47 5 0 37 -18 70 -40 33 -22 65 -40 71 -40 6 0 22 -6 34 -14 30
-19 254 -92 382 -124 22 -6 67 -17 100 -25 33 -9 87 -21 120 -28 33 -6 76 -16
95 -21 19 -5 58 -13 85 -18 28 -5 79 -16 115 -25 36 -9 81 -20 100 -24 128
-31 273 -97 327 -148 62 -59 78 -102 77 -209 -1 -80 -4 -97 -30 -143 -42 -78
-108 -133 -214 -179 -108 -46 -342 -71 -503 -53 -109 13 -225 44 -297 81 -101
52 -203 200 -224 325 -2 17 -9 42 -15 58 l-11 27 -292 -2 -293 -3 2 -105 c2
-96 19 -188 44 -232 5 -10 9 -23 9 -30 0 -23 54 -122 102 -188 134 -186 353
-327 613 -393 163 -41 304 -57 510 -57 178 1 432 32 484 60 11 5 29 10 40 10
12 0 29 4 39 10 9 5 35 16 57 26 177 73 329 190 432 332 69 93 133 229 133
281 0 24 17 63 22 51 1 -3 5 -167 8 -365 l5 -360 330 0 330 0 3 627 2 628 638
2 637 3 0 255 0 255 -635 5 c-349 3 -636 6 -638 8 -1 1 -1 156 0 345 l3 342
719 3 c511 1 723 5 733 13 10 9 13 66 13 269 0 142 -3 265 -6 274 -6 14 -109
16 -1070 16 l-1064 0 0 -942 c0 -519 -3 -954 -7 -966 -7 -29 -23 -10 -23 28 0
28 -50 154 -69 173 -6 6 -11 16 -11 22 0 6 -8 20 -18 31 -9 10 -30 35 -46 54
-109 132 -314 235 -611 306 -33 8 -78 20 -100 26 -22 6 -58 15 -80 19 -22 4
-69 15 -105 24 -36 9 -83 20 -105 25 -22 4 -71 16 -110 25 -38 9 -86 21 -105
25 -19 5 -53 13 -75 19 -22 6 -58 16 -80 22 -53 15 -164 59 -195 78 -105 65
-153 194 -118 315 53 181 249 286 533 286 108 0 251 -20 287 -40 10 -6 25 -10
33 -10 8 0 33 -11 55 -25 22 -14 44 -25 49 -25 24 0 122 -113 151 -174 16 -36
30 -70 30 -75 0 -6 5 -33 11 -61 l11 -50 301 2 302 3 -2 35 c-6 142 -54 321
-113 424 -105 188 -328 361 -570 445 -184 64 -423 90 -653 72 -83 -7 -168 -16
-187 -21 -39 -9 -121 -28 -160 -36 -14 -3 -34 -9 -45 -14 -11 -5 -48 -20 -83
-34 -165 -65 -322 -199 -422 -361 -53 -85 -110 -233 -110 -284 0 -22 -43 -148
-68 -201 -35 -71 -84 -142 -135 -193 -51 -50 -163 -127 -186 -127 -6 0 -19 -4
-29 -9 -115 -59 -390 -55 -557 8 -50 19 -115 54 -126 68 -6 7 -17 13 -23 13
-17 0 -117 99 -164 162 -84 113 -159 292 -178 423 -4 28 -11 61 -16 74 -5 14
-9 112 -9 219 0 302 42 471 179 718 40 72 251 254 295 254 7 0 17 4 22 9 11
10 89 34 158 50 96 22 299 12 382 -19 233 -87 381 -237 438 -445 l14 -50 322
-3 321 -2 0 32 c0 38 -27 165 -41 190 -5 10 -9 24 -9 33 0 8 -7 31 -16 52 -9
21 -20 47 -24 58 -36 97 -133 246 -219 339 -47 49 -185 166 -197 166 -4 0 -21
11 -38 23 -98 74 -353 166 -509 183 -32 4 -60 11 -63 15 -7 12 -404 12 -404 0z"/>
<path d="M8210 5214 c-92 -17 -167 -65 -223 -142 -53 -73 -71 -139 -70 -267 0
-100 2 -116 30 -182 37 -88 96 -152 171 -189 51 -24 68 -27 162 -28 88 0 112
4 146 22 87 45 139 108 169 208 23 77 21 86 -22 82 -34 -3 -37 -6 -50 -52 -30
-103 -88 -163 -185 -191 -53 -15 -63 -15 -119 0 -34 8 -80 29 -102 45 -42 31
-97 104 -97 131 0 8 -6 21 -12 27 -9 9 -13 50 -13 130 1 107 3 122 27 172 35
71 72 112 128 141 54 28 154 37 214 19 48 -15 143 -106 148 -141 3 -23 39 -40
66 -31 17 6 15 52 -5 89 -54 97 -147 152 -266 158 -39 2 -83 1 -97 -1z"/>
<path d="M1177 5203 c-4 -3 -7 -123 -7 -266 0 -208 3 -273 17 -328 20 -84 62
-138 137 -176 46 -24 62 -27 156 -26 86 0 114 4 151 21 57 27 101 71 131 131
22 44 23 57 26 343 l3 297 -25 7 c-57 14 -56 19 -56 -279 0 -305 -6 -342 -64
-400 -32 -32 -120 -67 -168 -67 -46 0 -123 33 -160 68 -61 58 -68 98 -68 405
0 232 -2 266 -16 271 -21 8 -49 8 -57 -1z"/>
<path d="M2633 5203 c-20 -4 -23 -11 -23 -49 0 -38 4 -46 25 -56 36 -16 55 4
55 57 0 30 -5 45 -16 49 -9 3 -16 5 -17 5 -1 -1 -12 -4 -24 -6z"/>
<path d="M5048 5203 c-14 -3 -18 -15 -18 -53 0 -43 2 -48 26 -54 37 -10 46 3
42 60 -3 50 -11 58 -50 47z"/>
<path d="M7353 5191 c-51 -24 -71 -63 -75 -146 -3 -55 -5 -60 -25 -58 -36 4
-73 -14 -73 -36 0 -17 8 -20 48 -23 l47 -3 3 -252 2 -253 34 0 c27 0 35 5 39
23 3 12 5 122 3 245 -2 241 -1 245 51 242 50 -4 54 -1 51 28 -3 25 -6 27 -47
27 -36 0 -45 4 -52 23 -5 13 -7 37 -5 55 2 18 4 38 5 45 1 15 45 34 86 36 60
2 36 66 -24 66 -14 0 -45 -9 -68 -19z"/>
<path d="M9395 5200 c-5 -8 -9 -611 -5 -762 0 -13 8 -18 30 -18 17 0 30 5 30
13 0 6 0 181 1 387 0 351 -1 375 -18 381 -26 11 -31 10 -38 -1z"/>
<path d="M9647 5203 c-11 -10 -8 -101 3 -108 5 -3 21 -3 35 1 22 6 25 11 25
54 0 41 -3 49 -22 54 -29 7 -33 7 -41 -1z"/>
<path d="M10029 5201 c-70 -22 -99 -65 -99 -151 0 -52 -15 -72 -47 -64 -22 6
-56 -21 -50 -40 2 -6 14 -12 28 -14 13 -1 34 -5 47 -7 l22 -5 0 -250 0 -250
35 0 35 0 0 249 0 249 23 6 c12 3 37 6 55 6 27 0 32 3 32 25 0 14 -3 26 -7 26
-5 1 -24 3 -44 4 -53 4 -59 11 -59 63 1 62 17 82 77 90 40 6 49 11 51 30 5 34
-43 50 -99 33z"/>
<path d="M11954 5196 c-3 -7 -4 -33 -2 -57 3 -40 6 -44 32 -47 35 -4 46 10 46
64 0 29 -5 44 -16 48 -27 10 -54 7 -60 -8z"/>
<path d="M5330 5083 c0 -38 -4 -73 -8 -80 -4 -6 -25 -13 -47 -15 -37 -3 -40
-5 -40 -33 0 -21 4 -29 15 -27 8 2 29 1 47 -3 l33 -6 0 -229 0 -228 31 -27
c27 -22 39 -26 88 -23 52 3 56 5 56 28 0 21 -6 26 -37 31 -69 11 -68 8 -68
240 l0 209 24 6 c13 3 32 5 42 4 39 -4 45 0 42 28 -3 24 -7 27 -43 27 -60 0
-65 7 -65 91 l0 74 -35 0 -35 0 0 -67z"/>
<path d="M2128 4980 c-20 -11 -43 -29 -52 -41 -17 -25 -36 -17 -36 16 0 31
-12 38 -44 25 l-26 -10 2 -272 3 -273 32 -3 31 -3 4 193 c3 189 4 194 30 240
59 98 206 119 260 36 26 -41 30 -70 37 -268 l6 -195 28 -3 27 -3 0 233 c0 233
0 233 -25 271 -37 54 -89 77 -172 77 -47 -1 -79 -7 -105 -20z"/>
<path d="M3540 4974 c-54 -31 -73 -50 -100 -101 -44 -86 -49 -243 -8 -329 22
-48 69 -98 112 -122 46 -25 201 -23 241 3 48 31 94 86 105 125 15 53 13 60
-18 60 -21 0 -32 -7 -42 -27 -60 -119 -164 -156 -262 -92 -45 29 -88 104 -88
153 l0 36 199 0 c110 0 206 3 215 6 19 7 21 59 3 124 -36 130 -112 190 -239
190 -60 0 -81 -5 -118 -26z m177 -45 c45 -17 91 -69 109 -122 14 -41 14 -51 3
-58 -8 -5 -88 -8 -179 -6 l-165 2 -3 25 c-1 14 11 48 27 76 46 78 131 113 208
83z"/>
<path d="M4251 4983 c-24 -8 -61 -33 -81 -53 -21 -21 -41 -36 -44 -32 -3 3 -6
23 -6 44 0 43 -16 56 -49 38 -21 -11 -21 -16 -19 -283 l3 -272 31 -3 c41 -4
43 4 40 188 -1 150 5 185 44 241 20 28 91 66 130 71 21 3 25 8 25 38 0 41 -12
45 -74 23z"/>
<path d="M4530 4977 c-80 -39 -110 -119 -76 -200 19 -47 92 -82 221 -106 78
-15 135 -59 135 -106 0 -77 -150 -134 -233 -87 -38 20 -51 35 -78 85 -17 32
-25 38 -47 35 -24 -3 -27 -7 -24 -38 4 -46 41 -102 89 -131 33 -21 50 -24 133
-24 82 0 101 4 139 25 55 31 81 65 88 117 12 92 -43 158 -153 182 -154 34
-214 68 -214 121 0 64 108 109 194 80 38 -12 86 -65 86 -93 0 -22 58 -24 66
-2 15 38 -37 115 -98 146 -54 28 -168 26 -228 -4z"/>
<path d="M6710 4982 c-55 -27 -98 -71 -127 -130 -24 -48 -27 -67 -27 -151 0
-83 4 -104 27 -152 28 -58 59 -90 117 -124 27 -15 54 -19 120 -19 72 0 92 4
130 25 52 30 104 93 120 147 51 173 -8 345 -139 403 -56 24 -171 25 -221 1z
m172 -52 c71 -20 138 -134 138 -232 0 -64 -39 -157 -81 -192 -54 -45 -123 -57
-185 -31 -92 38 -152 172 -125 282 36 148 125 208 253 173z"/>
<path d="M8848 4973 c-77 -43 -119 -158 -58 -158 19 0 29 9 43 40 27 58 58 77
136 82 73 4 103 -6 132 -47 30 -43 32 -76 6 -105 -20 -23 -36 -29 -122 -41
-118 -16 -140 -21 -180 -41 -43 -22 -65 -56 -71 -111 -8 -65 13 -118 59 -156
35 -28 43 -30 125 -31 74 0 92 3 125 23 20 13 43 33 51 44 15 21 36 17 36 -6
0 -27 37 -47 81 -44 37 2 45 7 47 26 3 18 -3 25 -27 33 l-31 11 0 177 c0 229
-14 274 -98 312 -32 14 -66 19 -125 19 -70 0 -89 -4 -129 -27z m274 -280 c9
-106 -27 -177 -109 -213 -84 -37 -163 -17 -199 51 -13 26 -14 39 -5 68 13 46
46 65 136 81 39 6 86 16 105 20 56 13 70 11 72 -7z"/>
<path d="M10360 4980 c-19 -11 -42 -22 -51 -26 -27 -10 -74 -84 -94 -148 -36
-117 -4 -264 74 -337 52 -50 89 -63 181 -63 71 0 92 4 129 24 53 28 105 98
126 167 18 60 20 160 4 200 -44 109 -71 143 -150 183 -52 27 -170 27 -219 0z
m169 -50 c69 -20 141 -133 141 -222 0 -47 -25 -128 -53 -169 -49 -72 -149 -99
-225 -60 -40 21 -67 49 -94 100 -26 48 -25 198 1 249 48 92 133 130 230 102z"/>
<path d="M11090 4983 c-25 -8 -63 -32 -85 -52 l-40 -36 -3 37 c-3 40 -23 63
-47 54 -13 -5 -15 -45 -15 -286 l0 -281 28 3 27 3 6 182 c5 174 6 183 31 221
31 46 87 83 137 91 31 5 37 11 39 35 2 16 -2 32 -10 37 -16 11 -14 11 -68 -8z"/>
<path d="M11472 4985 c-12 -7 -33 -22 -46 -34 -28 -26 -46 -27 -46 -1 0 22
-34 44 -56 36 -12 -4 -14 -53 -14 -286 l0 -281 33 3 32 3 5 195 c4 159 8 201
22 226 54 99 180 125 255 52 l33 -32 0 -207 c0 -114 3 -214 6 -223 4 -10 18
-16 40 -16 l34 0 0 220 c0 201 -2 224 -20 258 -28 52 -40 66 -79 85 -41 20
-164 22 -199 2z"/>
<path d="M12313 4984 c-18 -7 -47 -29 -66 -48 -49 -48 -60 -126 -18 -126 25 0
38 12 54 52 8 20 27 44 40 53 34 22 125 30 170 16 39 -13 77 -63 77 -100 0
-55 -34 -75 -150 -87 -106 -10 -167 -31 -205 -71 -33 -34 -35 -39 -35 -107 1
-58 5 -76 23 -97 44 -53 74 -64 168 -64 92 1 121 12 165 62 l21 24 27 -35 c23
-30 33 -36 65 -36 57 0 69 51 15 64 l-24 6 0 193 c0 181 -2 194 -23 232 -35
63 -85 85 -187 84 -50 0 -98 -6 -117 -15z m255 -350 c-6 -66 -43 -119 -109
-151 -113 -56 -225 5 -205 112 10 52 76 83 216 99 30 4 62 11 70 16 23 14 33
-15 28 -76z"/>
<path d="M2633 4980 l-23 -9 0 -263 c0 -145 4 -269 9 -276 5 -8 21 -12 37 -10
l29 3 3 269 c3 301 1 309 -55 286z"/>
<path d="M2817 4978 c-2 -7 5 -35 16 -63 11 -27 30 -77 43 -110 12 -33 34 -89
48 -125 13 -36 36 -96 51 -135 46 -126 46 -125 85 -125 41 0 60 14 60 45 0 12
4 25 9 31 5 5 18 36 29 69 11 34 26 74 33 90 6 17 15 39 19 50 4 11 15 37 24
58 9 21 16 44 16 52 0 9 4 23 10 33 10 19 35 78 43 104 8 22 -17 41 -43 33
-22 -7 -60 -80 -60 -114 0 -9 -4 -21 -9 -27 -4 -5 -16 -34 -25 -64 -15 -49
-25 -76 -56 -155 -5 -11 -11 -31 -14 -45 -12 -56 -56 -79 -56 -29 0 10 -4 27
-9 37 -5 9 -17 40 -26 67 -9 28 -20 59 -25 70 -5 11 -21 56 -35 100 -48 142
-62 165 -94 165 -16 0 -31 -6 -34 -12z"/>
<path d="M5048 4983 c-17 -4 -18 -26 -18 -284 l0 -279 35 0 35 0 -2 282 c-3
301 -2 294 -50 281z"/>
<path d="M5613 4974 c-6 -15 37 -129 137 -369 47 -111 70 -172 70 -186 0 -19
-34 -96 -54 -122 -8 -11 -34 -21 -63 -25 -43 -6 -48 -10 -48 -32 0 -24 3 -25
61 -28 57 -3 64 -1 90 26 16 16 37 51 47 78 21 55 29 76 47 119 6 17 19 50 27
75 8 25 21 59 28 75 7 17 25 64 40 105 15 41 33 89 40 105 43 102 66 178 58
186 -14 14 -64 0 -70 -20 -2 -9 -9 -24 -14 -33 -5 -10 -9 -26 -9 -36 0 -10 -7
-27 -15 -38 -8 -10 -15 -29 -15 -41 0 -12 -4 -25 -10 -28 -5 -3 -10 -13 -10
-22 0 -8 -7 -29 -14 -46 -8 -18 -23 -57 -34 -88 -10 -32 -25 -68 -34 -80 -16
-23 -16 -23 -23 -4 -9 28 -55 146 -66 170 -8 18 -22 54 -79 210 -17 45 -35 62
-68 64 -7 1 -15 -6 -19 -15z"/>
<path d="M9647 4983 c-4 -3 -7 -132 -7 -285 l0 -278 35 0 35 0 0 279 0 279
-22 6 c-29 7 -33 7 -41 -1z"/>
<path d="M11955 4977 c-3 -7 -4 -134 -3 -282 l3 -270 29 -3 c16 -2 32 2 37 10
14 22 11 532 -3 546 -16 16 -57 15 -63 -1z"/>
<path d="M1350 4009 c-120 -35 -180 -106 -180 -213 0 -126 51 -164 300 -222
100 -23 156 -50 186 -89 62 -81 1 -183 -129 -214 -80 -19 -215 12 -255 59 -24
29 -52 90 -52 115 0 22 -4 25 -34 25 -39 0 -48 -15 -40 -63 13 -77 58 -137
131 -174 53 -26 63 -28 182 -28 136 1 169 10 231 61 62 53 87 160 56 235 -26
61 -87 103 -186 129 -25 6 -58 15 -75 20 -16 5 -47 12 -67 15 -64 12 -109 31
-139 59 -45 43 -39 129 11 178 50 48 164 62 242 31 56 -22 90 -57 113 -115 16
-44 20 -48 51 -48 31 0 34 3 34 30 0 76 -74 166 -163 198 -53 18 -171 25 -217
11z"/>
<path d="M3555 3988 c-3 -7 -4 -184 -3 -393 l3 -380 35 0 35 0 5 185 5 185
175 3 c96 1 178 6 183 11 5 5 6 18 2 30 -6 20 -14 21 -183 23 l-177 3 0 135 0
135 205 5 205 5 0 30 0 30 -243 3 c-189 2 -244 0 -247 -10z"/>
<path d="M6460 3945 l0 -55 35 0 35 0 0 55 0 55 -35 0 -35 0 0 -55z"/>
<path d="M2030 3785 c-81 -29 -146 -133 -107 -172 20 -20 55 -1 63 35 9 36 32
61 73 78 90 38 202 -4 216 -82 12 -65 -42 -101 -154 -103 -75 -2 -160 -31
-197 -68 -33 -32 -34 -37 -34 -108 0 -74 1 -76 39 -114 33 -33 48 -40 95 -46
97 -12 165 5 212 53 27 28 38 28 53 -2 25 -46 104 -63 114 -25 8 30 -1 47 -26
51 -21 3 -22 8 -27 198 -6 231 -15 259 -89 298 -40 22 -177 25 -231 7z m248
-304 c16 -113 -77 -221 -190 -221 -76 0 -128 46 -128 112 0 28 7 44 26 61 34
30 118 56 179 57 28 0 57 5 65 10 23 16 45 7 48 -19z"/>
<path d="M2725 3793 c-24 -6 -77 -42 -88 -60 -13 -21 -25 -15 -29 15 -3 24 -7
27 -38 27 l-35 0 0 -280 0 -280 35 0 35 0 5 200 c3 110 9 209 14 220 25 56 98
105 156 105 45 0 99 -28 120 -63 18 -29 20 -51 20 -238 0 -217 3 -229 47 -229
32 0 36 38 31 268 -6 206 -12 235 -57 276 -41 37 -147 56 -216 39z"/>
<path d="M4715 3794 c-11 -3 -24 -10 -29 -15 -6 -5 -16 -9 -24 -9 -48 0 -122
-157 -77 -161 8 -1 20 -2 27 -3 7 -1 24 22 38 49 31 60 72 84 145 84 104 1
168 -78 126 -156 -11 -21 -88 -43 -149 -43 -54 0 -150 -32 -181 -60 -73 -66
-65 -186 16 -247 33 -26 44 -28 122 -28 96 0 145 17 181 62 17 22 23 25 30 13
6 -8 10 -20 10 -26 0 -20 50 -45 83 -42 28 3 32 7 35 36 3 28 0 32 -22 32 -14
0 -28 5 -31 10 -4 6 -8 98 -9 203 -2 170 -5 197 -22 225 -31 53 -77 74 -169
78 -44 1 -89 0 -100 -2z m213 -335 c5 -68 -6 -104 -42 -139 -63 -62 -165 -78
-221 -36 -63 48 -68 122 -10 160 30 20 230 67 260 61 6 -1 11 -21 13 -46z"/>
<path d="M5385 3793 c-23 -6 -63 -31 -87 -55 -25 -25 -36 -22 -40 10 -2 21 -8
27 -28 27 l-25 0 0 -280 0 -280 25 0 25 0 6 180 c7 209 11 231 51 279 74 90
205 86 255 -6 15 -28 18 -65 21 -245 4 -212 4 -213 26 -213 43 0 46 13 46 218
0 223 -12 285 -61 326 -47 40 -142 57 -214 39z"/>
<path d="M5977 3783 c-33 -11 -61 -31 -88 -62 -63 -71 -72 -100 -73 -226 0
-121 12 -154 77 -223 50 -53 90 -67 187 -67 78 0 88 2 126 30 49 35 81 79 95
129 12 43 6 56 -25 56 -27 0 -41 -14 -49 -50 -8 -32 -53 -81 -90 -97 -37 -17
-102 -16 -135 1 -35 18 -75 62 -98 106 -27 53 -25 191 4 246 52 97 146 136
235 99 34 -14 87 -76 87 -101 0 -12 49 -26 62 -17 12 7 9 51 -4 76 -21 37 -61
77 -93 93 -46 24 -161 27 -218 7z"/>
<path d="M6845 3793 c-59 -13 -133 -72 -136 -106 0 -7 -2 -25 -4 -42 -4 -36
13 -85 35 -103 27 -23 94 -49 170 -67 123 -30 159 -54 160 -111 0 -31 -32 -70
-77 -93 -31 -16 -115 -14 -151 4 -38 20 -82 70 -82 95 0 22 -35 44 -56 36 -21
-8 -17 -69 7 -111 12 -20 40 -49 63 -63 37 -24 50 -27 136 -27 129 0 191 31
225 112 20 47 19 66 -4 111 -28 55 -60 77 -137 96 -137 35 -173 48 -198 73
-30 30 -32 43 -11 83 28 54 117 75 188 45 37 -15 77 -62 77 -89 0 -12 10 -16
35 -16 31 0 35 3 35 25 0 58 -60 126 -128 145 -37 10 -109 12 -147 3z"/>
<path d="M7465 3793 c-63 -14 -131 -67 -162 -128 -48 -91 -45 -258 5 -340 48
-76 102 -111 190 -120 119 -13 195 25 244 122 35 71 32 93 -11 93 -25 0 -32
-5 -37 -27 -17 -70 -92 -133 -160 -133 -89 0 -156 62 -188 174 -16 55 -16 63
-1 127 35 140 146 211 259 164 33 -14 86 -78 86 -105 0 -10 4 -11 43 -13 16
-1 23 5 25 22 2 13 -1 28 -7 34 -6 6 -11 18 -11 27 0 24 -59 75 -108 94 -40
15 -121 20 -167 9z"/>
<path d="M8057 3783 c-59 -22 -113 -73 -140 -133 -32 -67 -31 -236 0 -302 40
-83 110 -134 198 -144 152 -18 254 51 300 202 24 81 14 180 -28 259 -17 32
-78 92 -116 113 -40 23 -159 25 -214 5z m166 -58 c129 -54 173 -273 79 -390
-87 -109 -233 -97 -307 24 -26 41 -29 55 -29 136 0 69 4 98 18 125 25 47 76
100 97 100 10 0 21 5 24 10 9 15 78 12 118 -5z"/>
<path d="M4354 3775 c-17 -8 -46 -28 -64 -46 -25 -26 -34 -30 -41 -18 -5 8 -7
20 -4 28 3 7 0 20 -6 27 -16 19 -59 18 -59 -1 0 -8 0 -127 0 -265 0 -137 0
-259 0 -271 0 -17 5 -20 33 -17 l32 3 5 185 c4 146 8 191 22 215 30 55 85 94
148 104 31 6 35 10 38 39 3 31 2 32 -35 31 -21 0 -52 -7 -69 -14z"/>
<path d="M6465 3767 c-3 -7 -4 -134 -3 -282 l3 -270 33 -3 32 -3 0 285 0 286
-30 0 c-17 0 -33 -6 -35 -13z"/>
</g>
</svg>
