<svg xmlns="http://www.w3.org/2000/svg" width="908" height="908" viewBox="0 0 908 908" version="1.1"><path d="M 421 0.631 C 408.884 1.691, 388.311 4.287, 378 6.056 C 187.256 38.778, 38.778 187.256, 6.056 378 C 1.213 406.232, 0.509 415.877, 0.509 454 C 0.509 492.123, 1.213 501.768, 6.056 530 C 34.199 694.052, 149.072 829.538, 305.607 883.305 C 338.289 894.530, 366.453 900.975, 403.500 905.704 C 414.686 907.132, 424.838 907.491, 454 907.491 C 492.123 907.491, 501.768 906.787, 530 901.944 C 718.998 869.521, 865.998 724.163, 901.087 535 C 903.528 521.841, 907 494.166, 907 487.866 C 907 485.255, 907.450 482.840, 908 482.500 C 908.629 482.111, 909 471.137, 909 452.882 C 909 433.803, 908.658 424.093, 908 424.500 C 907.386 424.880, 907 423.241, 907 420.252 C 907 413.852, 903.548 386.264, 901.087 373 C 889.272 309.303, 865.266 250.768, 829.409 198.216 C 760.583 97.346, 655.933 29.346, 535 6.913 C 508.560 2.008, 493.864 0.767, 459 0.497 C 440.575 0.354, 423.475 0.414, 421 0.631 M 350.500 207.529 C 345.550 208.253, 339.250 209.504, 336.500 210.308 C 303.977 219.819, 281.045 244.543, 272.531 279.273 C 271.348 284.099, 270.070 287.736, 269.690 287.357 C 269.311 286.977, 269 269.642, 269 248.833 L 269 211 247.569 211 L 226.138 211 225.703 277.750 C 225.396 324.895, 224.912 346.093, 224.057 349.925 C 219.885 368.609, 207.921 376.888, 185 376.950 C 169.498 376.992, 157.173 371.901, 151.049 362.927 C 144.462 353.274, 144.578 354.703, 144.240 279.231 L 143.934 210.961 122.217 211.231 L 100.500 211.500 100.500 280.500 C 100.500 354.926, 100.502 354.958, 106.008 370.023 C 110.634 382.678, 121.215 395.285, 133.084 402.283 C 154.422 414.863, 193.419 417.661, 221.500 408.625 C 249.860 399.500, 266.578 376.673, 268.647 344.250 C 269.007 338.613, 269.571 334.003, 269.901 334.006 C 270.230 334.009, 271.332 337.480, 272.349 341.720 C 278.823 368.703, 296.414 391.659, 319.611 403.396 C 334.473 410.916, 345.998 413.446, 365.500 413.467 C 388.376 413.492, 400.340 410.111, 417.374 398.804 C 425.412 393.468, 426.405 393.056, 427.919 394.427 C 433.246 399.247, 452.957 405.706, 481.159 411.873 C 520.367 420.445, 528 424.978, 528 439.690 C 528 444.526, 527.460 446.459, 525.050 450.260 C 519.552 458.930, 510.060 462.844, 492.419 463.716 C 464.082 465.117, 450.741 457.266, 445.318 436 L 444.425 432.500 424.963 432.500 L 405.500 432.500 405.804 439.841 C 406.156 448.321, 409.586 458.876, 414.468 466.500 C 421.335 477.223, 434.721 487.068, 449.500 492.265 C 461.640 496.533, 469.123 497.503, 489.500 497.452 C 505.726 497.411, 509.741 497.083, 517 495.205 C 527.854 492.397, 540.429 486.221, 547.827 480.065 C 554.561 474.460, 562.194 463.769, 564.831 456.247 C 565.844 453.358, 566.971 450.695, 567.336 450.330 C 567.701 449.965, 568 459.875, 568 472.353 L 568 495.039 589.750 494.770 L 611.500 494.500 612 454 L 612.500 413.500 653.774 413.239 L 695.048 412.978 694.774 396.239 L 694.500 379.500 653.250 379.239 L 612 378.978 612 356.489 L 612 334 659.500 334 L 707 334 707 315.500 L 707 297 637.500 297 L 568 297 568 358.500 C 568 398.833, 567.656 420, 567 420 C 566.450 420, 566 419.212, 565.999 418.250 C 565.998 415.138, 560.379 404.623, 556.246 400 C 548.850 391.725, 535.475 385.225, 516.500 380.684 C 463.338 367.961, 459.210 366.767, 453.391 362.430 C 445.495 356.546, 444.718 344.194, 451.728 336.004 C 457.940 328.748, 468.413 324.984, 482.299 325.017 C 502.810 325.067, 516.708 332.952, 520.529 346.709 C 521.413 349.894, 522.317 353.063, 522.537 353.750 C 522.839 354.694, 527.749 355, 542.598 355 L 562.258 355 561.549 347.798 C 560.094 333.038, 555.383 323.243, 544.562 312.484 C 531.819 299.813, 516.873 293.255, 495.495 290.953 C 484.051 289.721, 467.448 290.827, 456.145 293.574 C 432.382 299.351, 414.765 316.507, 409.498 339 C 403.868 363.047, 388.061 376.946, 366.299 376.988 C 333.423 377.051, 312.882 351.700, 312.832 311 C 312.791 277.831, 324.940 255.207, 347.500 246.443 C 351.534 244.875, 355.011 244.500, 365.500 244.500 C 378.262 244.500, 378.622 244.561, 385.204 247.865 C 397.013 253.792, 403.878 261.442, 407.533 272.750 L 409.230 278 430.115 278 L 451 278 451 275.314 C 451 263.226, 439.899 240.255, 429.094 229.985 C 416.141 217.673, 397.588 209.432, 377.500 207.066 C 366.461 205.766, 362.034 205.842, 350.500 207.529 M 0.442 454 C 0.442 470.225, 0.580 476.863, 0.748 468.750 C 0.916 460.637, 0.916 447.362, 0.748 439.250 C 0.580 431.137, 0.442 437.775, 0.442 454 M 554.460 562.064 C 541.991 565.690, 535.352 584.174, 541.049 599.402 C 544.584 608.849, 552.332 614, 563.008 614 C 569.698 614, 574.892 611.918, 578.892 607.632 C 581.667 604.658, 585.266 594.896, 584.044 593.656 C 582.224 591.809, 579.623 593.628, 578.268 597.695 C 576.534 602.899, 571.756 607.693, 566.834 609.168 C 558.265 611.735, 548.437 605.578, 545.541 595.826 C 543.586 589.244, 543.600 585.709, 545.608 578.948 C 550.212 563.446, 570.030 560.339, 577.012 574.024 C 579.410 578.724, 582.308 579.133, 582.807 574.841 C 583.204 571.422, 577.986 565.353, 572.509 562.865 C 568.227 560.920, 559.697 560.542, 554.460 562.064 M 101 580.935 C 101 601.067, 101.466 603.723, 105.814 608.373 C 109.560 612.380, 113.932 614, 121 614 C 127.833 614, 132.667 612.336, 135.936 608.860 C 140.426 604.086, 141 600.915, 141 580.878 L 141 562 138.561 562 L 136.121 562 135.811 580.750 C 135.575 594.972, 135.138 600.203, 134 602.410 C 129.249 611.627, 114.932 612.342, 108.571 603.680 C 106.675 601.098, 106.472 599.216, 106.174 581.430 L 105.847 562 103.424 562 L 101 562 101 580.935 M 194.889 562.430 C 194.828 562.744, 194.778 563.900, 194.778 565 C 194.778 568.785, 195.007 569.138, 197.250 568.820 C 199.012 568.569, 199.500 567.850, 199.500 565.500 C 199.500 563.150, 199.012 562.431, 197.250 562.180 C 196.012 562.005, 194.950 562.117, 194.889 562.430 M 351.187 565.250 C 351.427 567.741, 352.025 568.575, 353.750 568.820 C 355.723 569.100, 356 568.699, 356 565.570 C 356 562.405, 355.709 562, 353.437 562 C 351.147 562, 350.907 562.347, 351.187 565.250 M 500.922 563.862 C 499.303 565.173, 498.457 567.167, 498.061 570.604 C 497.547 575.080, 497.251 575.528, 494.500 576.002 C 492.751 576.304, 491.500 577.137, 491.500 578 C 491.500 578.863, 492.751 579.697, 494.500 579.999 L 497.500 580.518 497.775 596.759 L 498.050 613 500.525 613 L 503 613 503 596.500 L 503 580 506.573 580 C 509.436 580, 510.081 579.652, 509.815 578.250 C 509.597 577.097, 508.377 576.393, 506.242 576.187 C 503.194 575.892, 503 575.640, 503 571.972 C 503 567.838, 504.826 566, 508.934 566 C 510.333 566, 511 565.355, 511 564 C 511 562.343, 510.333 562, 507.111 562 C 504.808 562, 502.284 562.759, 500.922 563.862 M 635 587.500 C 635 612.333, 635.052 613, 637 613 C 638.948 613, 639 612.333, 639 587.500 C 639 562.667, 638.948 562, 637 562 C 635.052 562, 635 562.667, 635 587.500 M 651 565.500 C 651 568.567, 651.310 569, 653.500 569 C 655.690 569, 656 568.567, 656 565.500 C 656 562.433, 655.690 562, 653.500 562 C 651.310 562, 651 562.433, 651 565.500 M 673.063 563.750 C 671.633 564.909, 670.664 567.189, 670.195 570.500 C 669.556 575, 669.211 575.532, 666.743 575.816 C 662.917 576.258, 662.923 579.743, 666.750 580.184 L 669.500 580.500 669.775 596.750 L 670.050 613 672.500 613 L 674.950 613 675.225 596.750 L 675.500 580.500 678.750 580.187 C 681.149 579.955, 682 579.383, 682 578 C 682 576.617, 681.149 576.045, 678.750 575.813 C 675.847 575.533, 675.465 575.131, 675.171 572.044 C 674.804 568.178, 676.792 566, 680.691 566 C 682.333 566, 683 565.423, 683 564 C 683 562.343, 682.333 562, 679.111 562 C 676.896 562, 674.292 562.753, 673.063 563.750 M 801.411 563.371 C 800.391 566.029, 801.452 568.490, 803.760 568.820 C 804.992 568.995, 806.050 568.658, 806.111 568.070 C 806.607 563.297, 806.346 562.485, 804.221 562.180 C 802.920 561.993, 801.749 562.490, 801.411 563.371 M 370.804 570.182 C 370.516 575.210, 370.342 575.516, 367.500 576.004 C 365.750 576.305, 364.500 577.136, 364.500 578 C 364.500 578.863, 365.751 579.697, 367.500 579.999 L 370.500 580.517 370.778 595.440 C 370.944 604.363, 371.496 610.892, 372.150 611.681 C 372.787 612.448, 375.317 613, 378.196 613 C 382.364 613, 383.094 612.725, 382.811 611.258 C 382.612 610.223, 381.262 609.306, 379.488 608.999 L 376.500 608.483 376.223 594.241 L 375.945 580 379.473 580 C 382.295 580, 383 579.613, 383 578.063 C 383 576.609, 382.190 576.049, 379.750 575.813 C 376.637 575.513, 376.479 575.289, 376 570.500 C 375.580 566.300, 375.149 565.450, 373.304 565.188 C 371.311 564.904, 371.081 565.363, 370.804 570.182 M 161.732 577.407 C 158.352 579.701, 158.161 579.724, 157.686 577.907 C 157.396 576.797, 156.312 576, 155.094 576 C 153.044 576, 153 576.390, 153 594.570 L 153 613.139 155.250 612.820 C 157.421 612.511, 157.517 612.046, 158 599.500 C 158.558 584.998, 159.391 582.570, 164.548 580.415 C 169.305 578.428, 171.470 578.640, 174.694 581.410 C 177.474 583.798, 177.505 583.953, 178 598.160 C 178.486 612.096, 178.563 612.509, 180.750 612.820 C 182.995 613.138, 183 613.109, 183 598.520 C 183 582.279, 182.156 579.166, 177.033 576.517 C 172.537 574.192, 165.901 574.578, 161.732 577.407 M 253.913 577.280 C 248.550 580.893, 246.036 586.308, 246.016 594.282 C 245.997 602.160, 247.515 606.335, 251.894 610.454 C 254.540 612.943, 256.030 613.471, 261.361 613.810 C 265.845 614.096, 268.583 613.750, 270.765 612.622 C 276.442 609.686, 280.646 600.976, 276.759 600.203 C 275.616 599.976, 274.285 601.098, 272.888 603.465 C 269.114 609.862, 261.678 611.894, 256.615 607.912 C 253.565 605.512, 251 601.021, 251 598.078 C 251 596.161, 251.710 596.042, 264.750 595.778 L 278.500 595.500 278.337 590.742 C 278.018 581.380, 271.599 575, 262.500 575 C 258.739 575, 256.358 575.632, 253.913 577.280 M 300.077 576.566 C 298.194 577.382, 295.950 579.050, 295.090 580.274 L 293.526 582.500 293.007 579.500 C 292.635 577.353, 291.849 576.409, 290.244 576.180 L 288 575.861 288 594.430 L 288 613 290.500 613 L 293 613 293 601.968 C 293 587.617, 294.157 584.678, 300.977 581.700 C 304.777 580.041, 305.952 579.028, 305.757 577.578 C 305.414 575.015, 304.169 574.793, 300.077 576.566 M 318.314 576.950 C 312.508 580.490, 311.124 587.215, 315.336 591.427 C 317.462 593.553, 326.699 597, 330.269 597 C 332.775 597, 337 601.028, 337 603.418 C 337 606.715, 333.735 609.163, 328.560 609.746 C 323.264 610.343, 319.866 608.576, 317.495 603.991 C 316.523 602.111, 315.169 601, 313.849 601 C 312.015 601, 311.832 601.410, 312.398 604.250 C 312.754 606.038, 314.394 608.850, 316.042 610.500 C 318.866 613.328, 319.492 613.500, 326.946 613.500 C 333.419 613.500, 335.365 613.119, 337.677 611.398 C 341.399 608.627, 342.610 605.041, 341.433 600.278 C 340.671 597.190, 339.685 596.089, 336.038 594.250 C 333.584 593.013, 330.434 591.978, 329.038 591.952 C 325.782 591.890, 319.997 589.009, 318.596 586.750 C 317.197 584.495, 318.671 581.997, 322.511 580.115 C 326.674 578.074, 331.938 579.656, 334.484 583.711 C 336.467 586.871, 339.293 587.952, 340.493 586.011 C 341.525 584.341, 338.132 578.509, 335.080 576.706 C 331.057 574.330, 322.405 574.456, 318.314 576.950 M 458.952 577.253 C 452.809 581.393, 449.556 589.651, 450.659 598.304 C 451.865 607.757, 458.642 614, 467.698 614 C 470.669 614, 474.373 613.341, 475.931 612.536 C 489.094 605.729, 488.698 581.950, 475.329 576.364 C 470.205 574.223, 462.857 574.622, 458.952 577.253 M 599.420 576.885 C 596.105 578.907, 593.408 584.016, 594.355 586.482 C 595.297 588.939, 596.924 588.244, 599.180 584.420 C 603.425 577.224, 614.139 577.093, 617.083 584.201 C 618.895 588.574, 616.294 590.623, 607.399 591.831 C 596.094 593.366, 592 596.473, 592 603.518 C 592 610.311, 596.706 614, 605.374 614 C 609.829 614, 611.430 613.509, 613.982 611.362 L 617.118 608.723 618.616 610.862 C 619.557 612.206, 621.185 613, 622.998 613 C 626.805 613, 627.930 611.030, 625.171 609.197 C 623.154 607.858, 623 606.946, 623 596.346 C 623 583.234, 621.727 578.944, 617.128 576.566 C 612.839 574.348, 603.299 574.520, 599.420 576.885 M 695.735 577.534 C 690.356 581.190, 687.996 586.439, 688.016 594.710 C 688.045 606.551, 693.447 613.043, 703.898 613.799 C 711.983 614.384, 717.026 611.595, 720.503 604.618 C 725.663 594.264, 722.158 581.236, 712.931 576.464 C 708.283 574.061, 700.097 574.570, 695.735 577.534 M 744.432 576.499 C 742.744 577.246, 740.776 578.565, 740.059 579.429 C 738.165 581.711, 737 581.358, 737 578.500 C 737 576.667, 736.467 576, 735 576 C 733.072 576, 733 576.667, 733 594.500 C 733 612.333, 733.072 613, 735 613 C 736.854 613, 737.002 612.325, 737.024 603.750 C 737.064 588.254, 739.322 583.182, 747.237 580.811 C 750.283 579.898, 751.031 579.220, 750.797 577.588 C 750.433 575.051, 748.462 574.714, 744.432 576.499 M 768.687 577.438 C 765.230 579.783, 765.072 579.802, 764.480 577.938 C 764.142 576.872, 762.996 576, 761.933 576 C 760.092 576, 760 576.882, 760 594.500 C 760 612.333, 760.072 613, 762 613 C 764.193 613, 764.197 612.979, 764.065 600 C 763.918 585.432, 767.258 579.500, 775.609 579.500 C 779.370 579.500, 780.598 579.994, 782.587 582.306 C 784.888 584.982, 785 585.757, 785 599.056 L 785 613 787.500 613 L 790 613 790 598.968 C 790 583.068, 788.949 579.059, 784.128 576.566 C 779.523 574.185, 772.933 574.557, 768.687 577.438 M 823.314 576.950 C 819.587 579.223, 817.748 582.218, 818.187 585.302 C 818.632 588.426, 821.050 588.022, 822.990 584.500 C 825.282 580.337, 829.170 578.648, 834.591 579.461 C 839.276 580.164, 841 582.006, 841 586.312 C 841 589.842, 839.428 590.697, 830.725 591.907 C 819.407 593.479, 815.979 596.225, 816.022 603.684 C 816.062 610.497, 820.590 614, 829.358 614 C 833.830 614, 835.427 613.512, 837.982 611.362 L 841.118 608.723 842.616 610.862 C 844.597 613.690, 850 613.869, 850 611.107 C 850 610.066, 849.372 608.973, 848.605 608.679 C 847.549 608.273, 847.108 605.148, 846.792 595.822 C 846.333 582.284, 845.233 578.689, 840.855 576.425 C 836.760 574.307, 827.178 574.594, 823.314 576.950 M 194.852 576.931 C 194.658 577.506, 194.633 585.884, 194.795 595.551 C 195.088 613.025, 195.103 613.125, 197.295 612.814 C 199.475 612.504, 199.500 612.296, 199.500 594.500 C 199.500 576.848, 199.458 576.494, 197.352 576.194 C 196.171 576.025, 195.046 576.357, 194.852 576.931 M 208 577.425 C 208 578.533, 215.205 598.010, 220.512 611.250 C 221.322 613.270, 225.296 613.590, 226.727 611.750 C 227.262 611.063, 229.067 606.675, 230.739 602 C 232.411 597.325, 235.173 589.771, 236.877 585.214 C 239.475 578.267, 239.736 576.836, 238.488 576.357 C 235.513 575.215, 234.422 577.006, 230.098 590.135 C 227.677 597.486, 225.154 604.094, 224.492 604.820 C 223.534 605.871, 222.320 603.428, 218.527 592.820 C 215.908 585.494, 213.352 578.712, 212.847 577.750 C 211.748 575.654, 208 575.403, 208 577.425 M 351.443 577.287 C 351.172 577.994, 351.074 586.207, 351.225 595.537 C 351.496 612.272, 351.530 612.504, 353.750 612.820 L 356 613.139 356 594.570 C 356 576.571, 355.938 576, 353.969 576 C 352.851 576, 351.715 576.579, 351.443 577.287 M 389 576.873 C 389 577.353, 392.213 585.734, 396.139 595.497 L 403.278 613.248 401.152 617.624 C 399.907 620.186, 398.295 622.048, 397.263 622.115 C 396.293 622.179, 394.825 622.291, 394 622.365 C 393.175 622.439, 392.500 623.400, 392.500 624.500 C 392.500 626.070, 393.266 626.564, 396.064 626.799 C 398.839 627.032, 400.224 626.504, 402.314 624.413 C 403.791 622.936, 405 621.294, 405 620.765 C 405 620.235, 405.630 618.384, 406.400 616.651 C 409.148 610.469, 421 578.391, 421 577.138 C 421 576.386, 420.075 575.992, 418.750 576.180 C 416.843 576.451, 415.795 578.472, 411.873 589.444 C 406.086 605.629, 405.578 606.479, 404.060 602.500 C 394.201 576.643, 393.894 576, 391.416 576 C 390.087 576, 389 576.393, 389 576.873 M 651 594.500 L 651 613 653.500 613 L 656 613 656 594.500 L 656 576 653.500 576 L 651 576 651 594.500 M 801.443 577.287 C 801.172 577.994, 801.074 586.207, 801.225 595.537 C 801.495 612.167, 801.543 612.506, 803.705 612.814 C 805.897 613.125, 805.912 613.025, 806.205 595.551 C 806.367 585.884, 806.350 577.531, 806.167 576.988 C 805.680 575.547, 802.022 575.779, 801.443 577.287 M 258.030 580.230 C 255.087 581.778, 251 587.544, 251 590.148 C 251 591.838, 251.958 592, 261.941 592 C 267.959 592, 273.148 591.570, 273.473 591.044 C 274.305 589.698, 271.666 583.847, 269.262 581.707 C 266.597 579.335, 261.105 578.613, 258.030 580.230 M 463.388 579.929 C 460.398 581.210, 457.181 585.613, 455.982 590.068 C 454.486 595.622, 455.745 601.371, 459.376 605.572 C 461.923 608.518, 463.379 609.288, 467.224 609.722 C 471.588 610.214, 472.205 609.995, 475.370 606.830 C 478.617 603.583, 481.008 597.892, 480.972 593.500 C 480.949 590.629, 477.636 583.814, 475.219 581.665 C 472.835 579.546, 466.466 578.611, 463.388 579.929 M 700.270 580.435 C 695.449 582.602, 693.007 587.330, 693.007 594.500 C 693.007 601.482, 695.268 606.053, 699.906 608.451 C 704.375 610.763, 708.394 610.381, 712.059 607.297 C 724.749 596.619, 714.783 573.911, 700.270 580.435 M 613.500 594.674 C 612.400 594.910, 609.097 595.570, 606.161 596.141 C 597.385 597.847, 594.560 602.651, 599.455 607.545 C 602.506 610.597, 607.239 610.761, 611.810 607.974 C 615.309 605.841, 618.319 600.194, 617.806 596.726 C 617.471 594.463, 616.544 594.020, 613.500 594.674 M 836.500 594.698 C 830.047 595.553, 823.012 598.108, 822.024 599.955 C 820.327 603.126, 820.855 605.741, 823.635 607.927 C 828.142 611.473, 835.824 609.944, 839.439 604.783 C 841.001 602.553, 841.663 593.867, 840.250 594.150 C 839.837 594.232, 838.150 594.479, 836.500 594.698 M 110.462 640.064 C 101.098 642.787, 97.350 656.881, 104.478 662.565 C 105.929 663.721, 112.054 665.932, 118.091 667.478 C 127.163 669.802, 129.494 670.798, 131.533 673.222 C 134.666 676.945, 134.642 679.083, 131.426 682.905 C 124.432 691.218, 108.072 688.717, 104.777 678.832 C 103.744 675.732, 102.788 674.500, 101.417 674.500 C 98.671 674.500, 98.428 678.958, 100.907 683.819 C 103.806 689.500, 109.634 692.128, 119.425 692.166 C 132 692.215, 139 686.863, 139 677.197 C 139 673.273, 138.505 672.219, 135.167 669.044 C 131.980 666.013, 129.744 665.008, 121.917 663.091 C 110.309 660.248, 107.215 658.706, 106.371 655.341 C 104.786 649.026, 109.844 643.808, 117.641 643.713 C 124.245 643.633, 128.801 646.169, 130.859 651.072 C 132.074 653.964, 133.085 654.982, 134.750 654.990 C 136.612 654.998, 137 654.454, 137 651.829 C 137 647.836, 129.910 640.632, 125.018 639.654 C 120.690 638.788, 114.223 638.970, 110.462 640.064 M 255.667 640.667 C 255.300 641.033, 255 652.460, 255 666.060 C 255 687.972, 255.185 690.857, 256.627 691.410 C 260.151 692.763, 261 690.239, 261 678.409 L 261 667.063 272.750 666.782 C 282.403 666.550, 284.500 666.232, 284.500 665 C 284.500 663.783, 282.333 663.406, 273 663 L 261.500 662.500 261.211 653.779 L 260.923 645.059 274.211 644.779 C 287.134 644.508, 287.509 644.438, 287.820 642.250 L 288.139 640 272.236 640 C 263.490 640, 256.033 640.300, 255.667 640.667 M 444.361 641.502 C 443.337 644.171, 444.892 648, 447 648 C 448.258 648, 449.187 647.104, 449.589 645.502 C 450.447 642.085, 449.466 640, 447 640 C 445.865 640, 444.678 640.676, 444.361 641.502 M 155.404 654.468 C 151.714 656.151, 149 659.964, 149 663.465 C 149 667.228, 152.502 666.868, 153.862 662.966 C 155.825 657.334, 166.353 655.275, 170.211 659.770 C 174.909 665.243, 172.277 668.599, 162.191 669.997 C 150.727 671.585, 147 674.285, 147 681 C 147 688.334, 151.171 691.947, 159.673 691.978 C 164.836 691.996, 166.338 691.586, 168.850 689.472 L 171.854 686.945 174.450 689.541 C 175.878 690.969, 177.824 691.990, 178.773 691.809 C 181.023 691.380, 181.748 687, 179.570 687 C 178.241 687, 177.999 685.348, 177.994 676.250 C 177.985 658.051, 175.516 653.788, 164.718 653.323 C 160.939 653.160, 157.286 653.609, 155.404 654.468 M 198.706 655.408 C 194.131 658.533, 194 658.547, 194 655.930 C 194 654.356, 193.461 653.937, 191.750 654.180 C 189.509 654.499, 189.500 654.576, 189.500 673 C 189.500 690.833, 189.572 691.500, 191.500 691.500 C 193.372 691.500, 193.532 690.667, 194 678.500 C 194.275 671.350, 194.904 664.825, 195.399 664 C 199.080 657.856, 204.613 655.714, 209.832 658.413 C 213.955 660.545, 214.988 664.701, 214.994 679.191 C 215 691.011, 215.698 693.326, 218.544 690.964 C 219.669 690.030, 219.995 687.110, 219.976 678.128 C 219.936 658.688, 217.665 654.042, 207.815 653.246 C 203.321 652.883, 201.914 653.217, 198.706 655.408 M 309.419 654.143 C 307.724 654.598, 305.517 655.877, 304.514 656.985 C 302.156 659.590, 301.214 659.530, 300.820 656.750 C 300.610 655.273, 299.813 654.500, 298.500 654.500 C 296.572 654.500, 296.500 655.167, 296.500 673 C 296.500 690.833, 296.572 691.500, 298.500 691.500 C 300.367 691.500, 300.533 690.667, 301 679 C 301.637 663.085, 302.629 661.353, 312.750 658.500 C 315.159 657.820, 315.856 654.521, 313.750 653.765 C 313.063 653.518, 311.113 653.688, 309.419 654.143 M 328.004 654.805 C 324.488 656.525, 320.328 663.104, 321.529 665.047 C 322.797 667.099, 325.789 665.923, 327.051 662.877 C 330.357 654.894, 345 655.837, 345 664.033 C 345 667.852, 343.276 668.895, 335.308 669.895 C 323.628 671.362, 320 674.233, 320 682.011 C 320 685.257, 320.633 686.787, 322.923 689.077 C 325.554 691.708, 326.495 692, 332.346 692 C 337.821 692, 339.315 691.606, 341.818 689.500 C 345.210 686.645, 346 686.434, 346 688.379 C 346 690.014, 351.416 692.479, 352.940 691.537 C 354.495 690.576, 354.233 687, 352.607 687 C 350.413 687, 350 684.646, 350 672.141 C 350 659.322, 349.289 657.235, 343.989 654.494 C 340.174 652.521, 332.364 652.673, 328.004 654.805 M 373.372 654.265 C 372.201 654.944, 370.289 656.078, 369.122 656.785 C 367.315 657.879, 367 657.837, 367 656.504 C 367 654.387, 364.016 653.365, 362.914 655.104 C 362.428 655.872, 362.024 663.947, 362.015 673.050 C 362 689.685, 362.554 692.492, 365.622 691.315 C 366.673 690.911, 367 688.262, 367 680.136 C 367 674.279, 367.439 667.955, 367.976 666.083 C 370.065 658.800, 376.828 655.308, 382.832 658.413 C 386.955 660.545, 387.988 664.701, 387.994 679.191 C 388 691.184, 388.951 694.155, 391.616 690.511 C 393.203 688.340, 392.810 664.112, 391.117 659.750 C 388.957 654.186, 378.876 651.070, 373.372 654.265 M 413.001 654.123 C 406.152 656.854, 402.643 663.043, 402.581 672.500 C 402.496 685.301, 408.270 692, 419.388 692 C 424.245 692, 425.933 691.526, 428.762 689.368 C 431.853 687.011, 435 681.796, 435 679.032 C 435 678.464, 433.875 678, 432.500 678 C 430.875 678, 430 678.560, 430 679.600 C 430 682.519, 423.508 688, 420.050 688 C 412.388 688, 407.659 682.322, 407.559 673 C 407.488 666.338, 409.348 662.354, 414 659.206 C 419.592 655.422, 426.739 657.603, 429.116 663.819 C 429.736 665.441, 430.656 666.043, 432.173 665.819 C 435.241 665.368, 435.388 663.876, 432.753 659.932 C 428.741 653.928, 419.964 651.347, 413.001 654.123 M 465.891 654.995 C 461.706 657.208, 459.525 661.561, 460.463 665.830 C 461.499 670.548, 464.651 672.467, 475.500 674.988 C 484.058 676.977, 486.634 681.783, 481.365 685.927 C 477.250 689.164, 470.620 688.774, 466.923 685.077 C 465.315 683.469, 464 681.444, 464 680.577 C 464 679.562, 463.110 679, 461.500 679 C 458.592 679, 458.295 680.736, 460.480 684.961 C 463.224 690.267, 466.549 692, 473.987 692 C 484.772 692, 490.172 687.062, 488.593 678.644 C 487.746 674.128, 485.643 672.696, 476.121 670.156 C 472.063 669.073, 467.791 667.235, 466.628 666.072 C 464.660 664.104, 464.619 663.769, 466.039 661.229 C 469.167 655.637, 478.432 656.081, 481.791 661.985 C 482.893 663.920, 484.299 664.990, 485.750 664.994 C 490.371 665.007, 486.999 657.602, 480.961 654.480 C 477.056 652.460, 470.247 652.693, 465.891 654.995 M 506.500 654.995 C 500.396 658.037, 497.777 662.661, 497.275 671.284 C 496.920 677.393, 497.212 679.189, 499.178 682.992 C 502.488 689.395, 506.845 692, 514.244 692 C 518.668 692, 520.941 691.466, 523.118 689.916 C 526.300 687.650, 530.441 680.522, 529.479 678.966 C 528.189 676.879, 525.312 678.122, 523.725 681.451 C 521.385 686.357, 517.885 688.382, 512.901 687.714 C 508.242 687.089, 505.798 685.201, 503.571 680.508 C 497.758 668.258, 508.335 652.985, 518.862 658.428 C 520.569 659.311, 522.660 661.376, 523.509 663.017 C 524.478 664.891, 525.832 666, 527.151 666 C 528.977 666, 529.167 665.586, 528.613 662.816 C 526.913 654.313, 515.773 650.374, 506.500 654.995 M 547.841 654.344 C 541.854 657.005, 538.686 661.565, 537.591 669.100 C 536.335 677.740, 539.997 686.740, 546.222 690.313 C 550.525 692.782, 559.267 692.540, 564.114 689.816 C 575.752 683.275, 575.068 661.316, 563.038 655.250 C 558.178 652.799, 552.129 652.439, 547.841 654.344 M 444.607 655.582 C 444.273 656.452, 444 664.290, 444 673 C 444 681.710, 444.273 689.548, 444.607 690.418 C 445.514 692.782, 448.676 692.338, 449.370 689.750 C 450.159 686.804, 450.179 657.630, 449.393 655.582 C 449.059 654.712, 447.982 654, 447 654 C 446.018 654, 444.941 654.712, 444.607 655.582 M 550.034 658.711 C 545.069 661.274, 542.509 666.238, 542.603 673.120 C 542.777 685.968, 553.748 692.550, 562.370 684.980 C 567.338 680.618, 568.735 674.243, 566.304 667.023 C 563.466 658.593, 556.830 655.203, 550.034 658.711 M 163.254 673.846 C 152.113 676.389, 149.228 680.319, 154.576 685.667 C 156.791 687.882, 157.781 688.172, 161.638 687.737 C 166.849 687.150, 170.424 684.274, 172.043 679.369 C 173.103 676.158, 172.599 671.897, 171.183 672.096 C 170.807 672.148, 167.239 672.936, 163.254 673.846 M 338 673.549 C 337.175 673.724, 334.787 674.147, 332.694 674.489 C 321.220 676.366, 323.393 688.989, 334.968 687.696 C 340.955 687.027, 345 682.708, 345 676.984 C 345 673.276, 344.809 673.008, 342.250 673.116 C 340.738 673.180, 338.825 673.375, 338 673.549" stroke="none" fill="#ffffff" fill-rule="evenodd"/><path d="M 350.500 207.529 C 345.550 208.253, 339.250 209.504, 336.500 210.308 C 303.977 219.819, 281.045 244.543, 272.531 279.273 C 271.348 284.099, 270.070 287.736, 269.690 287.357 C 269.311 286.977, 269 269.642, 269 248.833 L 269 211 247.569 211 L 226.138 211 225.703 277.750 C 225.396 324.895, 224.912 346.093, 224.057 349.925 C 219.885 368.609, 207.921 376.888, 185 376.950 C 169.498 376.992, 157.173 371.901, 151.049 362.927 C 144.462 353.274, 144.578 354.703, 144.240 279.231 L 143.934 210.961 122.217 211.231 L 100.500 211.500 100.500 280.500 C 100.500 354.926, 100.502 354.958, 106.008 370.023 C 110.634 382.678, 121.215 395.285, 133.084 402.283 C 154.422 414.863, 193.419 417.661, 221.500 408.625 C 249.860 399.500, 266.578 376.673, 268.647 344.250 C 269.007 338.613, 269.571 334.003, 269.901 334.006 C 270.230 334.009, 271.332 337.480, 272.349 341.720 C 278.823 368.703, 296.414 391.659, 319.611 403.396 C 334.473 410.916, 345.998 413.446, 365.500 413.467 C 388.376 413.492, 400.340 410.111, 417.374 398.804 C 425.412 393.468, 426.405 393.056, 427.919 394.427 C 433.246 399.247, 452.957 405.706, 481.159 411.873 C 520.367 420.445, 528 424.978, 528 439.690 C 528 444.526, 527.460 446.459, 525.050 450.260 C 519.552 458.930, 510.060 462.844, 492.419 463.716 C 464.082 465.117, 450.741 457.266, 445.318 436 L 444.425 432.500 424.963 432.500 L 405.500 432.500 405.804 439.841 C 406.156 448.321, 409.586 458.876, 414.468 466.500 C 421.335 477.223, 434.721 487.068, 449.500 492.265 C 461.640 496.533, 469.123 497.503, 489.500 497.452 C 505.726 497.411, 509.741 497.083, 517 495.205 C 527.854 492.397, 540.429 486.221, 547.827 480.065 C 554.561 474.460, 562.194 463.769, 564.831 456.247 C 565.844 453.358, 566.971 450.695, 567.336 450.330 C 567.701 449.965, 568 459.875, 568 472.353 L 568 495.039 589.750 494.770 L 611.500 494.500 612 454 L 612.500 413.500 653.774 413.239 L 695.048 412.978 694.774 396.239 L 694.500 379.500 653.250 379.239 L 612 378.978 612 356.489 L 612 334 659.500 334 L 707 334 707 315.500 L 707 297 637.500 297 L 568 297 568 358.500 C 568 398.833, 567.656 420, 567 420 C 566.450 420, 566 419.212, 565.999 418.250 C 565.998 415.138, 560.379 404.623, 556.246 400 C 548.850 391.725, 535.475 385.225, 516.500 380.684 C 463.338 367.961, 459.210 366.767, 453.391 362.430 C 445.495 356.546, 444.718 344.194, 451.728 336.004 C 457.940 328.748, 468.413 324.984, 482.299 325.017 C 502.810 325.067, 516.708 332.952, 520.529 346.709 C 521.413 349.894, 522.317 353.063, 522.537 353.750 C 522.839 354.694, 527.749 355, 542.598 355 L 562.258 355 561.549 347.798 C 560.094 333.038, 555.383 323.243, 544.562 312.484 C 531.819 299.813, 516.873 293.255, 495.495 290.953 C 484.051 289.721, 467.448 290.827, 456.145 293.574 C 432.382 299.351, 414.765 316.507, 409.498 339 C 403.868 363.047, 388.061 376.946, 366.299 376.988 C 333.423 377.051, 312.882 351.700, 312.832 311 C 312.791 277.831, 324.940 255.207, 347.500 246.443 C 351.534 244.875, 355.011 244.500, 365.500 244.500 C 378.262 244.500, 378.622 244.561, 385.204 247.865 C 397.013 253.792, 403.878 261.442, 407.533 272.750 L 409.230 278 430.115 278 L 451 278 451 275.314 C 451 263.226, 439.899 240.255, 429.094 229.985 C 416.141 217.673, 397.588 209.432, 377.500 207.066 C 366.461 205.766, 362.034 205.842, 350.500 207.529 M 554.460 562.064 C 541.991 565.690, 535.352 584.174, 541.049 599.402 C 544.584 608.849, 552.332 614, 563.008 614 C 569.698 614, 574.892 611.918, 578.892 607.632 C 581.667 604.658, 585.266 594.896, 584.044 593.656 C 582.224 591.809, 579.623 593.628, 578.268 597.695 C 576.534 602.899, 571.756 607.693, 566.834 609.168 C 558.265 611.735, 548.437 605.578, 545.541 595.826 C 543.586 589.244, 543.600 585.709, 545.608 578.948 C 550.212 563.446, 570.030 560.339, 577.012 574.024 C 579.410 578.724, 582.308 579.133, 582.807 574.841 C 583.204 571.422, 577.986 565.353, 572.509 562.865 C 568.227 560.920, 559.697 560.542, 554.460 562.064 M 101 580.935 C 101 601.067, 101.466 603.723, 105.814 608.373 C 109.560 612.380, 113.932 614, 121 614 C 127.833 614, 132.667 612.336, 135.936 608.860 C 140.426 604.086, 141 600.915, 141 580.878 L 141 562 138.561 562 L 136.121 562 135.811 580.750 C 135.575 594.972, 135.138 600.203, 134 602.410 C 129.249 611.627, 114.932 612.342, 108.571 603.680 C 106.675 601.098, 106.472 599.216, 106.174 581.430 L 105.847 562 103.424 562 L 101 562 101 580.935 M 194.889 562.430 C 194.828 562.744, 194.778 563.900, 194.778 565 C 194.778 568.785, 195.007 569.138, 197.250 568.820 C 199.012 568.569, 199.500 567.850, 199.500 565.500 C 199.500 563.150, 199.012 562.431, 197.250 562.180 C 196.012 562.005, 194.950 562.117, 194.889 562.430 M 351.187 565.250 C 351.427 567.741, 352.025 568.575, 353.750 568.820 C 355.723 569.100, 356 568.699, 356 565.570 C 356 562.405, 355.709 562, 353.437 562 C 351.147 562, 350.907 562.347, 351.187 565.250 M 500.922 563.862 C 499.303 565.173, 498.457 567.167, 498.061 570.604 C 497.547 575.080, 497.251 575.528, 494.500 576.002 C 492.751 576.304, 491.500 577.137, 491.500 578 C 491.500 578.863, 492.751 579.697, 494.500 579.999 L 497.500 580.518 497.775 596.759 L 498.050 613 500.525 613 L 503 613 503 596.500 L 503 580 506.573 580 C 509.436 580, 510.081 579.652, 509.815 578.250 C 509.597 577.097, 508.377 576.393, 506.242 576.187 C 503.194 575.892, 503 575.640, 503 571.972 C 503 567.838, 504.826 566, 508.934 566 C 510.333 566, 511 565.355, 511 564 C 511 562.343, 510.333 562, 507.111 562 C 504.808 562, 502.284 562.759, 500.922 563.862 M 635 587.500 C 635 612.333, 635.052 613, 637 613 C 638.948 613, 639 612.333, 639 587.500 C 639 562.667, 638.948 562, 637 562 C 635.052 562, 635 562.667, 635 587.500 M 651 565.500 C 651 568.567, 651.310 569, 653.500 569 C 655.690 569, 656 568.567, 656 565.500 C 656 562.433, 655.690 562, 653.500 562 C 651.310 562, 651 562.433, 651 565.500 M 673.063 563.750 C 671.633 564.909, 670.664 567.189, 670.195 570.500 C 669.556 575, 669.211 575.532, 666.743 575.816 C 662.917 576.258, 662.923 579.743, 666.750 580.184 L 669.500 580.500 669.775 596.750 L 670.050 613 672.500 613 L 674.950 613 675.225 596.750 L 675.500 580.500 678.750 580.187 C 681.149 579.955, 682 579.383, 682 578 C 682 576.617, 681.149 576.045, 678.750 575.813 C 675.847 575.533, 675.465 575.131, 675.171 572.044 C 674.804 568.178, 676.792 566, 680.691 566 C 682.333 566, 683 565.423, 683 564 C 683 562.343, 682.333 562, 679.111 562 C 676.896 562, 674.292 562.753, 673.063 563.750 M 801.411 563.371 C 800.391 566.029, 801.452 568.490, 803.760 568.820 C 804.992 568.995, 806.050 568.658, 806.111 568.070 C 806.607 563.297, 806.346 562.485, 804.221 562.180 C 802.920 561.993, 801.749 562.490, 801.411 563.371 M 370.804 570.182 C 370.516 575.210, 370.342 575.516, 367.500 576.004 C 365.750 576.305, 364.500 577.136, 364.500 578 C 364.500 578.863, 365.751 579.697, 367.500 579.999 L 370.500 580.517 370.778 595.440 C 370.944 604.363, 371.496 610.892, 372.150 611.681 C 372.787 612.448, 375.317 613, 378.196 613 C 382.364 613, 383.094 612.725, 382.811 611.258 C 382.612 610.223, 381.262 609.306, 379.488 608.999 L 376.500 608.483 376.223 594.241 L 375.945 580 379.473 580 C 382.295 580, 383 579.613, 383 578.063 C 383 576.609, 382.190 576.049, 379.750 575.813 C 376.637 575.513, 376.479 575.289, 376 570.500 C 375.580 566.300, 375.149 565.450, 373.304 565.188 C 371.311 564.904, 371.081 565.363, 370.804 570.182 M 161.732 577.407 C 158.352 579.701, 158.161 579.724, 157.686 577.907 C 157.396 576.797, 156.312 576, 155.094 576 C 153.044 576, 153 576.390, 153 594.570 L 153 613.139 155.250 612.820 C 157.421 612.511, 157.517 612.046, 158 599.500 C 158.558 584.998, 159.391 582.570, 164.548 580.415 C 169.305 578.428, 171.470 578.640, 174.694 581.410 C 177.474 583.798, 177.505 583.953, 178 598.160 C 178.486 612.096, 178.563 612.509, 180.750 612.820 C 182.995 613.138, 183 613.109, 183 598.520 C 183 582.279, 182.156 579.166, 177.033 576.517 C 172.537 574.192, 165.901 574.578, 161.732 577.407 M 253.913 577.280 C 248.550 580.893, 246.036 586.308, 246.016 594.282 C 245.997 602.160, 247.515 606.335, 251.894 610.454 C 254.540 612.943, 256.030 613.471, 261.361 613.810 C 265.845 614.096, 268.583 613.750, 270.765 612.622 C 276.442 609.686, 280.646 600.976, 276.759 600.203 C 275.616 599.976, 274.285 601.098, 272.888 603.465 C 269.114 609.862, 261.678 611.894, 256.615 607.912 C 253.565 605.512, 251 601.021, 251 598.078 C 251 596.161, 251.710 596.042, 264.750 595.778 L 278.500 595.500 278.337 590.742 C 278.018 581.380, 271.599 575, 262.500 575 C 258.739 575, 256.358 575.632, 253.913 577.280 M 300.077 576.566 C 298.194 577.382, 295.950 579.050, 295.090 580.274 L 293.526 582.500 293.007 579.500 C 292.635 577.353, 291.849 576.409, 290.244 576.180 L 288 575.861 288 594.430 L 288 613 290.500 613 L 293 613 293 601.968 C 293 587.617, 294.157 584.678, 300.977 581.700 C 304.777 580.041, 305.952 579.028, 305.757 577.578 C 305.414 575.015, 304.169 574.793, 300.077 576.566 M 318.314 576.950 C 312.508 580.490, 311.124 587.215, 315.336 591.427 C 317.462 593.553, 326.699 597, 330.269 597 C 332.775 597, 337 601.028, 337 603.418 C 337 606.715, 333.735 609.163, 328.560 609.746 C 323.264 610.343, 319.866 608.576, 317.495 603.991 C 316.523 602.111, 315.169 601, 313.849 601 C 312.015 601, 311.832 601.410, 312.398 604.250 C 312.754 606.038, 314.394 608.850, 316.042 610.500 C 318.866 613.328, 319.492 613.500, 326.946 613.500 C 333.419 613.500, 335.365 613.119, 337.677 611.398 C 341.399 608.627, 342.610 605.041, 341.433 600.278 C 340.671 597.190, 339.685 596.089, 336.038 594.250 C 333.584 593.013, 330.434 591.978, 329.038 591.952 C 325.782 591.890, 319.997 589.009, 318.596 586.750 C 317.197 584.495, 318.671 581.997, 322.511 580.115 C 326.674 578.074, 331.938 579.656, 334.484 583.711 C 336.467 586.871, 339.293 587.952, 340.493 586.011 C 341.525 584.341, 338.132 578.509, 335.080 576.706 C 331.057 574.330, 322.405 574.456, 318.314 576.950 M 458.952 577.253 C 452.809 581.393, 449.556 589.651, 450.659 598.304 C 451.865 607.757, 458.642 614, 467.698 614 C 470.669 614, 474.373 613.341, 475.931 612.536 C 489.094 605.729, 488.698 581.950, 475.329 576.364 C 470.205 574.223, 462.857 574.622, 458.952 577.253 M 599.420 576.885 C 596.105 578.907, 593.408 584.016, 594.355 586.482 C 595.297 588.939, 596.924 588.244, 599.180 584.420 C 603.425 577.224, 614.139 577.093, 617.083 584.201 C 618.895 588.574, 616.294 590.623, 607.399 591.831 C 596.094 593.366, 592 596.473, 592 603.518 C 592 610.311, 596.706 614, 605.374 614 C 609.829 614, 611.430 613.509, 613.982 611.362 L 617.118 608.723 618.616 610.862 C 619.557 612.206, 621.185 613, 622.998 613 C 626.805 613, 627.930 611.030, 625.171 609.197 C 623.154 607.858, 623 606.946, 623 596.346 C 623 583.234, 621.727 578.944, 617.128 576.566 C 612.839 574.348, 603.299 574.520, 599.420 576.885 M 695.735 577.534 C 690.356 581.190, 687.996 586.439, 688.016 594.710 C 688.045 606.551, 693.447 613.043, 703.898 613.799 C 711.983 614.384, 717.026 611.595, 720.503 604.618 C 725.663 594.264, 722.158 581.236, 712.931 576.464 C 708.283 574.061, 700.097 574.570, 695.735 577.534 M 744.432 576.499 C 742.744 577.246, 740.776 578.565, 740.059 579.429 C 738.165 581.711, 737 581.358, 737 578.500 C 737 576.667, 736.467 576, 735 576 C 733.072 576, 733 576.667, 733 594.500 C 733 612.333, 733.072 613, 735 613 C 736.854 613, 737.002 612.325, 737.024 603.750 C 737.064 588.254, 739.322 583.182, 747.237 580.811 C 750.283 579.898, 751.031 579.220, 750.797 577.588 C 750.433 575.051, 748.462 574.714, 744.432 576.499 M 768.687 577.438 C 765.230 579.783, 765.072 579.802, 764.480 577.938 C 764.142 576.872, 762.996 576, 761.933 576 C 760.092 576, 760 576.882, 760 594.500 C 760 612.333, 760.072 613, 762 613 C 764.193 613, 764.197 612.979, 764.065 600 C 763.918 585.432, 767.258 579.500, 775.609 579.500 C 779.370 579.500, 780.598 579.994, 782.587 582.306 C 784.888 584.982, 785 585.757, 785 599.056 L 785 613 787.500 613 L 790 613 790 598.968 C 790 583.068, 788.949 579.059, 784.128 576.566 C 779.523 574.185, 772.933 574.557, 768.687 577.438 M 823.314 576.950 C 819.587 579.223, 817.748 582.218, 818.187 585.302 C 818.632 588.426, 821.050 588.022, 822.990 584.500 C 825.282 580.337, 829.170 578.648, 834.591 579.461 C 839.276 580.164, 841 582.006, 841 586.312 C 841 589.842, 839.428 590.697, 830.725 591.907 C 819.407 593.479, 815.979 596.225, 816.022 603.684 C 816.062 610.497, 820.590 614, 829.358 614 C 833.830 614, 835.427 613.512, 837.982 611.362 L 841.118 608.723 842.616 610.862 C 844.597 613.690, 850 613.869, 850 611.107 C 850 610.066, 849.372 608.973, 848.605 608.679 C 847.549 608.273, 847.108 605.148, 846.792 595.822 C 846.333 582.284, 845.233 578.689, 840.855 576.425 C 836.760 574.307, 827.178 574.594, 823.314 576.950 M 194.852 576.931 C 194.658 577.506, 194.633 585.884, 194.795 595.551 C 195.088 613.025, 195.103 613.125, 197.295 612.814 C 199.475 612.504, 199.500 612.296, 199.500 594.500 C 199.500 576.848, 199.458 576.494, 197.352 576.194 C 196.171 576.025, 195.046 576.357, 194.852 576.931 M 208 577.425 C 208 578.533, 215.205 598.010, 220.512 611.250 C 221.322 613.270, 225.296 613.590, 226.727 611.750 C 227.262 611.063, 229.067 606.675, 230.739 602 C 232.411 597.325, 235.173 589.771, 236.877 585.214 C 239.475 578.267, 239.736 576.836, 238.488 576.357 C 235.513 575.215, 234.422 577.006, 230.098 590.135 C 227.677 597.486, 225.154 604.094, 224.492 604.820 C 223.534 605.871, 222.320 603.428, 218.527 592.820 C 215.908 585.494, 213.352 578.712, 212.847 577.750 C 211.748 575.654, 208 575.403, 208 577.425 M 351.443 577.287 C 351.172 577.994, 351.074 586.207, 351.225 595.537 C 351.496 612.272, 351.530 612.504, 353.750 612.820 L 356 613.139 356 594.570 C 356 576.571, 355.938 576, 353.969 576 C 352.851 576, 351.715 576.579, 351.443 577.287 M 389 576.873 C 389 577.353, 392.213 585.734, 396.139 595.497 L 403.278 613.248 401.152 617.624 C 399.907 620.186, 398.295 622.048, 397.263 622.115 C 396.293 622.179, 394.825 622.291, 394 622.365 C 393.175 622.439, 392.500 623.400, 392.500 624.500 C 392.500 626.070, 393.266 626.564, 396.064 626.799 C 398.839 627.032, 400.224 626.504, 402.314 624.413 C 403.791 622.936, 405 621.294, 405 620.765 C 405 620.235, 405.630 618.384, 406.400 616.651 C 409.148 610.469, 421 578.391, 421 577.138 C 421 576.386, 420.075 575.992, 418.750 576.180 C 416.843 576.451, 415.795 578.472, 411.873 589.444 C 406.086 605.629, 405.578 606.479, 404.060 602.500 C 394.201 576.643, 393.894 576, 391.416 576 C 390.087 576, 389 576.393, 389 576.873 M 651 594.500 L 651 613 653.500 613 L 656 613 656 594.500 L 656 576 653.500 576 L 651 576 651 594.500 M 801.443 577.287 C 801.172 577.994, 801.074 586.207, 801.225 595.537 C 801.495 612.167, 801.543 612.506, 803.705 612.814 C 805.897 613.125, 805.912 613.025, 806.205 595.551 C 806.367 585.884, 806.350 577.531, 806.167 576.988 C 805.680 575.547, 802.022 575.779, 801.443 577.287 M 258.030 580.230 C 255.087 581.778, 251 587.544, 251 590.148 C 251 591.838, 251.958 592, 261.941 592 C 267.959 592, 273.148 591.570, 273.473 591.044 C 274.305 589.698, 271.666 583.847, 269.262 581.707 C 266.597 579.335, 261.105 578.613, 258.030 580.230 M 463.388 579.929 C 460.398 581.210, 457.181 585.613, 455.982 590.068 C 454.486 595.622, 455.745 601.371, 459.376 605.572 C 461.923 608.518, 463.379 609.288, 467.224 609.722 C 471.588 610.214, 472.205 609.995, 475.370 606.830 C 478.617 603.583, 481.008 597.892, 480.972 593.500 C 480.949 590.629, 477.636 583.814, 475.219 581.665 C 472.835 579.546, 466.466 578.611, 463.388 579.929 M 700.270 580.435 C 695.449 582.602, 693.007 587.330, 693.007 594.500 C 693.007 601.482, 695.268 606.053, 699.906 608.451 C 704.375 610.763, 708.394 610.381, 712.059 607.297 C 724.749 596.619, 714.783 573.911, 700.270 580.435 M 613.500 594.674 C 612.400 594.910, 609.097 595.570, 606.161 596.141 C 597.385 597.847, 594.560 602.651, 599.455 607.545 C 602.506 610.597, 607.239 610.761, 611.810 607.974 C 615.309 605.841, 618.319 600.194, 617.806 596.726 C 617.471 594.463, 616.544 594.020, 613.500 594.674 M 836.500 594.698 C 830.047 595.553, 823.012 598.108, 822.024 599.955 C 820.327 603.126, 820.855 605.741, 823.635 607.927 C 828.142 611.473, 835.824 609.944, 839.439 604.783 C 841.001 602.553, 841.663 593.867, 840.250 594.150 C 839.837 594.232, 838.150 594.479, 836.500 594.698 M 110.462 640.064 C 101.098 642.787, 97.350 656.881, 104.478 662.565 C 105.929 663.721, 112.054 665.932, 118.091 667.478 C 127.163 669.802, 129.494 670.798, 131.533 673.222 C 134.666 676.945, 134.642 679.083, 131.426 682.905 C 124.432 691.218, 108.072 688.717, 104.777 678.832 C 103.744 675.732, 102.788 674.500, 101.417 674.500 C 98.671 674.500, 98.428 678.958, 100.907 683.819 C 103.806 689.500, 109.634 692.128, 119.425 692.166 C 132 692.215, 139 686.863, 139 677.197 C 139 673.273, 138.505 672.219, 135.167 669.044 C 131.980 666.013, 129.744 665.008, 121.917 663.091 C 110.309 660.248, 107.215 658.706, 106.371 655.341 C 104.786 649.026, 109.844 643.808, 117.641 643.713 C 124.245 643.633, 128.801 646.169, 130.859 651.072 C 132.074 653.964, 133.085 654.982, 134.750 654.990 C 136.612 654.998, 137 654.454, 137 651.829 C 137 647.836, 129.910 640.632, 125.018 639.654 C 120.690 638.788, 114.223 638.970, 110.462 640.064 M 255.667 640.667 C 255.300 641.033, 255 652.460, 255 666.060 C 255 687.972, 255.185 690.857, 256.627 691.410 C 260.151 692.763, 261 690.239, 261 678.409 L 261 667.063 272.750 666.782 C 282.403 666.550, 284.500 666.232, 284.500 665 C 284.500 663.783, 282.333 663.406, 273 663 L 261.500 662.500 261.211 653.779 L 260.923 645.059 274.211 644.779 C 287.134 644.508, 287.509 644.438, 287.820 642.250 L 288.139 640 272.236 640 C 263.490 640, 256.033 640.300, 255.667 640.667 M 444.361 641.502 C 443.337 644.171, 444.892 648, 447 648 C 448.258 648, 449.187 647.104, 449.589 645.502 C 450.447 642.085, 449.466 640, 447 640 C 445.865 640, 444.678 640.676, 444.361 641.502 M 155.404 654.468 C 151.714 656.151, 149 659.964, 149 663.465 C 149 667.228, 152.502 666.868, 153.862 662.966 C 155.825 657.334, 166.353 655.275, 170.211 659.770 C 174.909 665.243, 172.277 668.599, 162.191 669.997 C 150.727 671.585, 147 674.285, 147 681 C 147 688.334, 151.171 691.947, 159.673 691.978 C 164.836 691.996, 166.338 691.586, 168.850 689.472 L 171.854 686.945 174.450 689.541 C 175.878 690.969, 177.824 691.990, 178.773 691.809 C 181.023 691.380, 181.748 687, 179.570 687 C 178.241 687, 177.999 685.348, 177.994 676.250 C 177.985 658.051, 175.516 653.788, 164.718 653.323 C 160.939 653.160, 157.286 653.609, 155.404 654.468 M 198.706 655.408 C 194.131 658.533, 194 658.547, 194 655.930 C 194 654.356, 193.461 653.937, 191.750 654.180 C 189.509 654.499, 189.500 654.576, 189.500 673 C 189.500 690.833, 189.572 691.500, 191.500 691.500 C 193.372 691.500, 193.532 690.667, 194 678.500 C 194.275 671.350, 194.904 664.825, 195.399 664 C 199.080 657.856, 204.613 655.714, 209.832 658.413 C 213.955 660.545, 214.988 664.701, 214.994 679.191 C 215 691.011, 215.698 693.326, 218.544 690.964 C 219.669 690.030, 219.995 687.110, 219.976 678.128 C 219.936 658.688, 217.665 654.042, 207.815 653.246 C 203.321 652.883, 201.914 653.217, 198.706 655.408 M 309.419 654.143 C 307.724 654.598, 305.517 655.877, 304.514 656.985 C 302.156 659.590, 301.214 659.530, 300.820 656.750 C 300.610 655.273, 299.813 654.500, 298.500 654.500 C 296.572 654.500, 296.500 655.167, 296.500 673 C 296.500 690.833, 296.572 691.500, 298.500 691.500 C 300.367 691.500, 300.533 690.667, 301 679 C 301.637 663.085, 302.629 661.353, 312.750 658.500 C 315.159 657.820, 315.856 654.521, 313.750 653.765 C 313.063 653.518, 311.113 653.688, 309.419 654.143 M 328.004 654.805 C 324.488 656.525, 320.328 663.104, 321.529 665.047 C 322.797 667.099, 325.789 665.923, 327.051 662.877 C 330.357 654.894, 345 655.837, 345 664.033 C 345 667.852, 343.276 668.895, 335.308 669.895 C 323.628 671.362, 320 674.233, 320 682.011 C 320 685.257, 320.633 686.787, 322.923 689.077 C 325.554 691.708, 326.495 692, 332.346 692 C 337.821 692, 339.315 691.606, 341.818 689.500 C 345.210 686.645, 346 686.434, 346 688.379 C 346 690.014, 351.416 692.479, 352.940 691.537 C 354.495 690.576, 354.233 687, 352.607 687 C 350.413 687, 350 684.646, 350 672.141 C 350 659.322, 349.289 657.235, 343.989 654.494 C 340.174 652.521, 332.364 652.673, 328.004 654.805 M 373.372 654.265 C 372.201 654.944, 370.289 656.078, 369.122 656.785 C 367.315 657.879, 367 657.837, 367 656.504 C 367 654.387, 364.016 653.365, 362.914 655.104 C 362.428 655.872, 362.024 663.947, 362.015 673.050 C 362 689.685, 362.554 692.492, 365.622 691.315 C 366.673 690.911, 367 688.262, 367 680.136 C 367 674.279, 367.439 667.955, 367.976 666.083 C 370.065 658.800, 376.828 655.308, 382.832 658.413 C 386.955 660.545, 387.988 664.701, 387.994 679.191 C 388 691.184, 388.951 694.155, 391.616 690.511 C 393.203 688.340, 392.810 664.112, 391.117 659.750 C 388.957 654.186, 378.876 651.070, 373.372 654.265 M 413.001 654.123 C 406.152 656.854, 402.643 663.043, 402.581 672.500 C 402.496 685.301, 408.270 692, 419.388 692 C 424.245 692, 425.933 691.526, 428.762 689.368 C 431.853 687.011, 435 681.796, 435 679.032 C 435 678.464, 433.875 678, 432.500 678 C 430.875 678, 430 678.560, 430 679.600 C 430 682.519, 423.508 688, 420.050 688 C 412.388 688, 407.659 682.322, 407.559 673 C 407.488 666.338, 409.348 662.354, 414 659.206 C 419.592 655.422, 426.739 657.603, 429.116 663.819 C 429.736 665.441, 430.656 666.043, 432.173 665.819 C 435.241 665.368, 435.388 663.876, 432.753 659.932 C 428.741 653.928, 419.964 651.347, 413.001 654.123 M 465.891 654.995 C 461.706 657.208, 459.525 661.561, 460.463 665.830 C 461.499 670.548, 464.651 672.467, 475.500 674.988 C 484.058 676.977, 486.634 681.783, 481.365 685.927 C 477.250 689.164, 470.620 688.774, 466.923 685.077 C 465.315 683.469, 464 681.444, 464 680.577 C 464 679.562, 463.110 679, 461.500 679 C 458.592 679, 458.295 680.736, 460.480 684.961 C 463.224 690.267, 466.549 692, 473.987 692 C 484.772 692, 490.172 687.062, 488.593 678.644 C 487.746 674.128, 485.643 672.696, 476.121 670.156 C 472.063 669.073, 467.791 667.235, 466.628 666.072 C 464.660 664.104, 464.619 663.769, 466.039 661.229 C 469.167 655.637, 478.432 656.081, 481.791 661.985 C 482.893 663.920, 484.299 664.990, 485.750 664.994 C 490.371 665.007, 486.999 657.602, 480.961 654.480 C 477.056 652.460, 470.247 652.693, 465.891 654.995 M 506.500 654.995 C 500.396 658.037, 497.777 662.661, 497.275 671.284 C 496.920 677.393, 497.212 679.189, 499.178 682.992 C 502.488 689.395, 506.845 692, 514.244 692 C 518.668 692, 520.941 691.466, 523.118 689.916 C 526.300 687.650, 530.441 680.522, 529.479 678.966 C 528.189 676.879, 525.312 678.122, 523.725 681.451 C 521.385 686.357, 517.885 688.382, 512.901 687.714 C 508.242 687.089, 505.798 685.201, 503.571 680.508 C 497.758 668.258, 508.335 652.985, 518.862 658.428 C 520.569 659.311, 522.660 661.376, 523.509 663.017 C 524.478 664.891, 525.832 666, 527.151 666 C 528.977 666, 529.167 665.586, 528.613 662.816 C 526.913 654.313, 515.773 650.374, 506.500 654.995 M 547.841 654.344 C 541.854 657.005, 538.686 661.565, 537.591 669.100 C 536.335 677.740, 539.997 686.740, 546.222 690.313 C 550.525 692.782, 559.267 692.540, 564.114 689.816 C 575.752 683.275, 575.068 661.316, 563.038 655.250 C 558.178 652.799, 552.129 652.439, 547.841 654.344 M 444.607 655.582 C 444.273 656.452, 444 664.290, 444 673 C 444 681.710, 444.273 689.548, 444.607 690.418 C 445.514 692.782, 448.676 692.338, 449.370 689.750 C 450.159 686.804, 450.179 657.630, 449.393 655.582 C 449.059 654.712, 447.982 654, 447 654 C 446.018 654, 444.941 654.712, 444.607 655.582 M 550.034 658.711 C 545.069 661.274, 542.509 666.238, 542.603 673.120 C 542.777 685.968, 553.748 692.550, 562.370 684.980 C 567.338 680.618, 568.735 674.243, 566.304 667.023 C 563.466 658.593, 556.830 655.203, 550.034 658.711 M 163.254 673.846 C 152.113 676.389, 149.228 680.319, 154.576 685.667 C 156.791 687.882, 157.781 688.172, 161.638 687.737 C 166.849 687.150, 170.424 684.274, 172.043 679.369 C 173.103 676.158, 172.599 671.897, 171.183 672.096 C 170.807 672.148, 167.239 672.936, 163.254 673.846 M 338 673.549 C 337.175 673.724, 334.787 674.147, 332.694 674.489 C 321.220 676.366, 323.393 688.989, 334.968 687.696 C 340.955 687.027, 345 682.708, 345 676.984 C 345 673.276, 344.809 673.008, 342.250 673.116 C 340.738 673.180, 338.825 673.375, 338 673.549" stroke="none" fill="#0c294f" fill-rule="evenodd"/></svg>