<?xml version="1.0" encoding="UTF-8"?>
<svg version="1.1" xmlns="http://www.w3.org/2000/svg" width="452" height="292">
<path d="M0 0 C149.16 0 298.32 0 452 0 C452 96.36 452 192.72 452 292 C302.84 292 153.68 292 0 292 C0 195.64 0 99.28 0 0 Z " fill="#FDFDFD" transform="translate(0,0)"/>
<path d="M0 0 C9.9878541 6.59164911 16.23299686 15.60109399 19.9921875 26.921875 C20.4375 29.125 20.4375 29.125 20.4375 35.125 C12.1875 35.125 3.9375 35.125 -4.5625 35.125 C-5.366875 33.26875 -6.17125 31.4125 -7 29.5 C-10.71119972 22.06005352 -15.15359903 19.23360481 -22.4375 15.75 C-31.37097698 13.9633046 -39.45362333 14.86847128 -47.5625 19.125 C-54.89924246 24.34377719 -58.96475876 32.47585217 -60.875 41.125 C-63.0753962 55.99883203 -62.50014919 69.91942956 -54.30078125 82.859375 C-50.12780851 88.29830576 -45.13594626 91.33734327 -38.5625 93.125 C-29.44548705 94.08735137 -20.97229259 94.0166208 -13.5625 88.125 C-8.46754638 82.90605415 -6.56976903 76.45471807 -4.44702148 69.65283203 C-1.03921459 59.00326744 4.98649127 52.44442535 14.59375 46.875 C28.4635856 40.04058826 46.01103491 40.42304101 60.4375 45.125 C70.40740716 48.96526053 78.84764599 54.74063349 83.9375 64.375 C86.48541564 70.25836884 86.4375 74.47365777 86.4375 81.125 C78.8475 81.125 71.2575 81.125 63.4375 81.125 C61.4575 76.175 61.4575 76.175 59.4375 71.125 C54.91655407 66.22730858 49.32643326 64.35661545 42.83203125 63.8359375 C34.06477816 63.64553319 28.25294112 63.72428074 21.5625 69.6875 C19.18013755 72.42020986 18.50609317 73.35332687 18.1875 76.9375 C18.48614657 80.74524372 18.92634305 82.23336472 21.4375 85.125 C29.61206421 90.07667144 39.64725724 91.47832627 48.85205078 93.54956055 C75.14117103 99.50592237 75.14117103 99.50592237 83.4375 107.125 C85.4175 110.425 87.3975 113.725 89.4375 117.125 C89.7675 93.695 90.0975 70.265 90.4375 46.125 C118.1575 46.125 145.8775 46.125 174.4375 46.125 C174.4375 53.385 174.4375 60.645 174.4375 68.125 C173.4375 69.125 173.4375 69.125 171.15330505 69.24525452 C170.14292679 69.24303391 169.13254852 69.24081329 168.09155273 69.23852539 C166.9504454 69.23844986 165.80933807 69.23837433 164.63365173 69.23829651 C163.3920076 69.23313522 162.15036346 69.22797394 160.87109375 69.22265625 C158.97545433 69.22053383 158.97545433 69.22053383 157.04151917 69.21836853 C153.67625111 69.21370582 150.3110501 69.2047148 146.94580078 69.19366455 C143.51400341 69.18344846 140.08219892 69.17881578 136.65039062 69.17382812 C129.91272246 69.16362263 123.17517229 69.14405091 116.4375 69.125 C116.4375 77.705 116.4375 86.285 116.4375 95.125 C132.9375 95.125 149.4375 95.125 166.4375 95.125 C166.4375 102.055 166.4375 108.985 166.4375 116.125 C149.9375 116.125 133.4375 116.125 116.4375 116.125 C116.4375 132.295 116.4375 148.465 116.4375 165.125 C107.8575 165.125 99.2775 165.125 90.4375 165.125 C90.1075 156.875 89.7775 148.625 89.4375 140.125 C87.7875 143.425 86.1375 146.725 84.4375 150.125 C77.79886132 159.98812033 66.15057667 164.27280978 54.94604492 166.70166016 C50.67503068 167.42243278 46.44792956 167.46523394 42.125 167.4375 C41.20146729 167.43186035 40.27793457 167.4262207 39.32641602 167.42041016 C25.61217991 167.17708335 12.76650685 163.4391181 2.5 153.9375 C-4.74758436 146.17692872 -7.5625 137.5283951 -7.5625 127.125 C0.3575 127.125 8.2775 127.125 16.4375 127.125 C18.4175 132.57 18.4175 132.57 20.4375 138.125 C25.1354159 143.02282722 29.44743239 145.15714402 36.16796875 145.4609375 C49.93915904 146.05993815 49.93915904 146.05993815 62.4375 141.125 C65.29455911 138.18390974 65.66100164 135.59472645 65.9375 131.625 C65.78898404 128.30814359 65.48404541 127.19722563 63.625 124.3125 C55.51811409 118.74895084 45.54168495 117.11886557 36.0625 115.1875 C25.8818917 113.02634606 16.1820891 110.75670182 6.94921875 105.78515625 C4.36350022 104.81824082 4.36350022 104.81824082 1.82421875 106.35546875 C0.93347656 107.00128906 0.04273438 107.64710937 -0.875 108.3125 C-13.69079902 117.08029799 -29.54314063 118.04414124 -44.70898438 115.80859375 C-48.50560403 114.99134856 -52.01960075 113.69503115 -55.5625 112.125 C-56.36429688 111.774375 -57.16609375 111.42375 -57.9921875 111.0625 C-73.94796962 103.1122141 -81.73796689 89.12646458 -87.5625 73.125 C-87.72105469 73.92421875 -87.87960938 74.7234375 -88.04296875 75.546875 C-90.9733337 89.34063711 -94.70021153 100.52642632 -106.5 108.8125 C-117.33129601 115.23318816 -127.91172235 116.46851667 -140.25 116.5625 C-141.2827002 116.57273193 -142.31540039 116.58296387 -143.37939453 116.59350586 C-156.76967877 116.44122252 -168.2386899 113.03777274 -178.3125 104 C-186.3562328 95.44283745 -189.89571488 83.93719942 -189.78955078 72.43579102 C-189.78984283 71.59596176 -189.79013489 70.75613251 -189.79043579 69.89085388 C-189.78905124 67.13676333 -189.77353152 64.38294908 -189.7578125 61.62890625 C-189.75407926 59.71077116 -189.75123375 57.79263415 -189.74923706 55.87449646 C-189.74162513 50.84228184 -189.72199769 45.81018388 -189.6998291 40.77801514 C-189.679318 35.63653135 -189.67022411 30.49502859 -189.66015625 25.35351562 C-189.6387494 15.27728442 -189.60358723 5.20117019 -189.5625 -4.875 C-180.9825 -4.875 -172.4025 -4.875 -163.5625 -4.875 C-163.54791748 -2.46840088 -163.53333496 -0.06180176 -163.51831055 2.41772461 C-163.46784549 10.39259593 -163.40122963 18.36727444 -163.32678509 26.34195614 C-163.28216574 31.17432405 -163.24289121 36.00660929 -163.21606445 40.83911133 C-163.18994709 45.50770107 -163.14948557 50.17597125 -163.09931374 54.84436226 C-163.08270187 56.62038747 -163.07115237 58.39646789 -163.06488609 60.17255974 C-163.43148559 75.07455375 -163.43148559 75.07455375 -157.0625 88.0625 C-149.46031106 94.33430587 -141.00665264 93.67699617 -131.5625 93.125 C-126.01087644 92.05834918 -122.00341696 89.64734801 -118.5625 85.125 C-114.53331091 76.29364032 -115.08433189 67.03682053 -115.05078125 57.52734375 C-115.03391531 55.72415458 -115.01576252 53.92097703 -114.99638367 52.11781311 C-114.94908536 47.39807772 -114.91914596 42.67838946 -114.89294434 37.95849609 C-114.86303652 33.1317413 -114.81654153 28.30514857 -114.77148438 23.47851562 C-114.68568085 14.02741036 -114.61976923 4.57632129 -114.5625 -4.875 C-105.9825 -4.875 -97.4025 -4.875 -88.5625 -4.875 C-88.0675 15.42 -88.0675 15.42 -87.5625 36.125 C-86.2425 32.495 -84.9225 28.865 -83.5625 25.125 C-76.87548822 10.2445617 -66.74735714 1.18366031 -51.625 -4.75 C-34.40344796 -11.06945166 -15.93602304 -8.91458732 0 0 Z " fill="#07224A" transform="translate(191.5625,7.875)"/>
<path d="M0 0 C49.5 0 99 0 150 0 C146.64349752 1.67825124 143.45919207 2.93372628 139.9375 4.1875 C124.85473614 10.01454763 115.16474022 19.1021047 108.21875 33.78515625 C106.10069297 39.37221054 104.99289607 45.11230049 104 51 C103.67 51 103.34 51 103 51 C103 35.16 103 19.32 103 3 C94.42 3 85.84 3 77 3 C77.0314209 6.59418823 77.0314209 6.59418823 77.06347656 10.26098633 C77.13000028 18.21169541 77.17403626 26.16241735 77.20724869 34.11333179 C77.22805031 38.93011612 77.25623095 43.7466133 77.30175781 48.56323242 C77.34548214 53.21871925 77.36919284 57.87393132 77.37950897 62.52960777 C77.38685292 64.29848233 77.40119299 66.06734326 77.42292023 67.83609962 C77.67358381 89.10369108 77.67358381 89.10369108 71.6585083 96.69245911 C66.31019434 101.67367426 59.49176559 102.27889159 52.5 102.25 C51.2521875 102.25515625 50.004375 102.2603125 48.71875 102.265625 C41.65709273 101.76122091 37.03313498 100.03313498 32 95 C28.2447328 88.78438533 27.85183864 83.12033944 27.88647461 75.99682617 C27.88632858 75.20605682 27.88618256 74.41528748 27.8860321 73.60055542 C27.88672638 70.99799821 27.894496 68.39551339 27.90234375 65.79296875 C27.90420965 63.98407531 27.90563274 62.17518136 27.90663147 60.36628723 C27.91044306 55.61356197 27.92026175 50.86086744 27.93133545 46.1081543 C27.94157877 41.2550498 27.94613535 36.40194032 27.95117188 31.54882812 C27.96188525 22.03253643 27.97947105 12.51627558 28 3 C19.09 3 10.18 3 1 3 C1 26.1 1 49.2 1 73 C0.67 73 0.34 73 0 73 C0 48.91 0 24.82 0 0 Z " fill="#FCFCFD" transform="translate(0,0)"/>
<path d="M0 0 C3.10039543 1.75494081 5.48825667 3.48825667 8 6 C8 7.32 8 8.64 8 10 C7.01 10 6.02 10 5 10 C3.95107762 8.36368108 2.95093297 6.69514137 2 5 C-1.01868434 3.49065783 -3.67297229 3.82489328 -7 4 C-7.99 4.66 -8.98 5.32 -10 6 C-10.5 8.5 -10.5 8.5 -10 11 C-5.94920477 13.70053016 -1.69471417 14.60518649 2.96875 15.90234375 C5.84659379 16.94444956 7.2403331 17.5426406 9 20 C9.40975664 23.85171239 9.38087326 26.86157615 7 30 C1.93414961 33.20524485 -2.0999037 33.37687489 -7.875 33.1875 C-10.55625 33.125625 -13.2375 33.06375 -16 33 C-16 25.74 -16 18.48 -16 11 C-15.34 11 -14.68 11 -14 11 C-14.0825 10.0925 -14.165 9.185 -14.25 8.25 C-14 5 -14 5 -12.1875 2.6875 C-8.28171425 -0.32553472 -4.80548135 -0.40724418 0 0 Z " fill="#F5F6F7" transform="translate(16,259)"/>
<path d="M0 0 C3.02508145 1.73602105 5.41790069 3.83580137 7 7 C7.37464112 12.6196168 7.13609371 16.121632 4 21 C-0.01858595 23.6790573 -3.27641721 23.69610694 -8 23 C-10.87029869 21.20606332 -12.49131638 20.01736724 -14 17 C-14.51124099 11.79539913 -14.86132441 7.43554069 -12.125 2.875 C-8.42359063 -0.39094945 -4.80970295 -0.82095115 0 0 Z " fill="#F4F5F6" transform="translate(278,268)"/>
<path d="M0 0 C4.14613048 1.79037453 6.20962547 3.85386952 8 8 C8.77951588 14.01340818 7.29243822 17.15817909 4 22 C0.2433878 23.8783061 -3.91815413 23.64079213 -8 23 C-11.71574695 20.25034726 -12.70281586 18.83129684 -13.43359375 14.328125 C-13.63804377 9.74348815 -13.51550416 6.85917359 -11.125 2.875 C-7.4305429 -0.38481508 -4.88688663 -0.33131435 0 0 Z " fill="#F6F7F8" transform="translate(225,221)"/>
<path d="M0 0 C2.265625 1.51171875 2.265625 1.51171875 4 4 C4.2906124 6.89449949 4.38186045 9.37949935 4.25 12.25 C4.23195313 12.99507812 4.21390625 13.74015625 4.1953125 14.5078125 C4.14835649 16.33909701 4.07661652 18.16971649 4 20 C4.66 20 5.32 20 6 20 C6 20.99 6 21.98 6 23 C5.21625 22.835 4.4325 22.67 3.625 22.5 C1.11791961 21.9376293 1.11791961 21.9376293 -1 22 C-1.33 22.33 -1.66 22.66 -2 23 C-4.1796875 23.23828125 -4.1796875 23.23828125 -6.875 23.3125 C-7.75929688 23.34988281 -8.64359375 23.38726562 -9.5546875 23.42578125 C-12 23 -12 23 -13.82421875 21.171875 C-15 19 -15 19 -14.9375 15.9375 C-14 13 -14 13 -12.5 11.1875 C-8.79722812 9.42868335 -5.05632151 9.25135326 -1 9 C-0.40929986 7.05396726 -0.40929986 7.05396726 0 5 C-0.98267859 3.79438816 -0.98267859 3.79438816 -2.84765625 3.90234375 C-4.8984375 3.93489583 -6.94921875 3.96744792 -9 4 C-9.66 5.32 -10.32 6.64 -11 8 C-11.99 8 -12.98 8 -14 8 C-13.69209738 5.15190074 -13.34521809 3.41713852 -11.5 1.1875 C-7.80215093 -0.56897831 -4.00567841 -0.89563584 0 0 Z " fill="#1C355A" transform="translate(311,221)"/>
<path d="M0 0 C2.265625 1.51171875 2.265625 1.51171875 4 4 C4.2906124 6.89449949 4.38186045 9.37949935 4.25 12.25 C4.23195312 12.99507813 4.21390625 13.74015625 4.1953125 14.5078125 C4.14835649 16.33909701 4.07661652 18.16971649 4 20 C4.66 20 5.32 20 6 20 C6 20.99 6 21.98 6 23 C5.21625 22.835 4.4325 22.67 3.625 22.5 C0.18082427 21.82086554 0.18082427 21.82086554 -3 23 C-6.0379777 23.35164448 -8.96564189 23.40013514 -12 23 C-14.52185965 20.93666028 -14.86913636 19.65431822 -15.5 16.5 C-15 14 -15 14 -13.125 11.75 C-8.84099897 9.35095943 -4.84316215 9.18808397 0 9 C-0.66 7.02 -1.32 5.04 -2 3 C-4.87364791 2.58253392 -4.87364791 2.58253392 -8 3 C-9.71711243 5.44496043 -9.71711243 5.44496043 -11 8 C-11.99 8 -12.98 8 -14 8 C-13.69209738 5.15190074 -13.34521809 3.41713852 -11.5 1.1875 C-7.80215093 -0.56897831 -4.00567841 -0.89563584 0 0 Z " fill="#2D4466" transform="translate(148,268)"/>
<path d="M0 0 C2.69105198 2.17574416 4.45532928 3.91065856 6 7 C6 8.98 6 10.96 6 13 C0.39 13 -5.22 13 -11 13 C-9.45957252 17.80304035 -9.45957252 17.80304035 -7 20 C-3.5082547 19.98952718 -3.5082547 19.98952718 0 19 C1.75422772 17.02329393 1.75422772 17.02329393 3 15 C3.99 15 4.98 15 6 15 C3.88929889 21.00738007 3.88929889 21.00738007 1 23 C-2.84036931 23.9956513 -5.06959489 24.40176584 -8.75 22.8125 C-11.85667261 20.30990262 -13.76814932 18.40154781 -14.43359375 14.37890625 C-14.44418819 6.74031365 -14.44418819 6.74031365 -12.125 2.875 C-8.43772575 -0.37847728 -4.79766152 -0.84556487 0 0 Z " fill="#0B264E" transform="translate(103,221)"/>
<path d="M0 0 C0.76183594 -0.02835938 1.52367187 -0.05671875 2.30859375 -0.0859375 C5.59136038 0.58540819 6.65304924 1.62504608 8.5625 4.375 C8.8531124 7.26949949 8.94436045 9.75449935 8.8125 12.625 C8.79445313 13.37007812 8.77640625 14.11515625 8.7578125 14.8828125 C8.71085649 16.71409701 8.63911652 18.54471649 8.5625 20.375 C9.2225 20.375 9.8825 20.375 10.5625 20.375 C10.5625 21.365 10.5625 22.355 10.5625 23.375 C9.2425 23.375 7.9225 23.375 6.5625 23.375 C5.9025 22.715 5.2425 22.055 4.5625 21.375 C3.9025 22.035 3.2425 22.695 2.5625 23.375 C0.50390625 23.67578125 0.50390625 23.67578125 -1.875 23.6875 C-3.04869141 23.71263672 -3.04869141 23.71263672 -4.24609375 23.73828125 C-6.96451834 23.28763332 -7.82101036 22.57930405 -9.4375 20.375 C-9.9375 16.875 -9.9375 16.875 -9.4375 13.375 C-5.48092717 9.41842717 0.25410943 9.67391908 5.5625 9.375 C5.2325 7.395 4.9025 5.415 4.5625 3.375 C0.1075 3.87 0.1075 3.87 -4.4375 4.375 C-4.7675 5.365 -5.0975 6.355 -5.4375 7.375 C-6.4275 7.375 -7.4175 7.375 -8.4375 7.375 C-8.125 5 -8.125 5 -7.4375 2.375 C-4.37702368 0.33468245 -3.50254006 0.05906476 0 0 Z " fill="#152E54" transform="translate(440.4375,220.625)"/>
<path d="M0 0 C0.76183594 -0.02835937 1.52367187 -0.05671875 2.30859375 -0.0859375 C5.59136038 0.58540819 6.65304924 1.62504608 8.5625 4.375 C8.8531124 7.26949949 8.94436045 9.75449935 8.8125 12.625 C8.79445313 13.37007813 8.77640625 14.11515625 8.7578125 14.8828125 C8.71085649 16.71409701 8.63911652 18.54471649 8.5625 20.375 C9.2225 20.375 9.8825 20.375 10.5625 20.375 C10.5625 21.365 10.5625 22.355 10.5625 23.375 C9.964375 23.21 9.36625 23.045 8.75 22.875 C6.44905664 22.2635876 6.44905664 22.2635876 3.5625 22.375 C3.2325 22.705 2.9025 23.035 2.5625 23.375 C0.6015625 23.578125 0.6015625 23.578125 -1.8125 23.625 C-2.60398437 23.65078125 -3.39546875 23.6765625 -4.2109375 23.703125 C-6.4375 23.375 -6.4375 23.375 -8.19921875 22.078125 C-10.27991711 19.21634429 -9.86226854 16.77314835 -9.4375 13.375 C-6.6003314 10.62914258 -4.02607173 9.8440978 -0.1875 9.1875 C0.70453125 9.02894531 1.5965625 8.87039063 2.515625 8.70703125 C3.19109375 8.59746094 3.8665625 8.48789062 4.5625 8.375 C4.5625 7.055 4.5625 5.735 4.5625 4.375 C1.25682511 3.52112895 1.25682511 3.52112895 -2.4375 3.375 C-4.77204661 5.20858335 -4.77204661 5.20858335 -6.4375 7.375 C-7.0975 7.375 -7.7575 7.375 -8.4375 7.375 C-8.125 5 -8.125 5 -7.4375 2.375 C-4.37702368 0.33468245 -3.50254006 0.05906476 0 0 Z " fill="#112B52" transform="translate(39.4375,267.625)"/>
<path d="M0 0 C3.10039543 1.75494081 5.48825667 3.48825667 8 6 C8 7.32 8 8.64 8 10 C7.01 10 6.02 10 5 10 C3.95107762 8.36368108 2.95093297 6.69514137 2 5 C-1.01868434 3.49065783 -3.67297229 3.82489328 -7 4 C-7.99 4.66 -8.98 5.32 -10 6 C-10.5 8.5 -10.5 8.5 -10 11 C-5.94920477 13.70053016 -1.69471417 14.60518649 2.96875 15.90234375 C5.84659379 16.94444956 7.2403331 17.5426406 9 20 C9.41158832 23.86893019 9.29427725 26.78801186 7 30 C2.13536675 33.09466372 -3.45310134 32.5986407 -9 32 C-12.1875 30.4375 -12.1875 30.4375 -14 28 C-14.8125 24.25 -14.8125 24.25 -15 21 C-14.01 21 -13.02 21 -12 21 C-11.7525 21.94875 -11.505 22.8975 -11.25 23.875 C-10.30333013 26.99782715 -10.30333013 26.99782715 -8.25 28.375 C-4.00020118 29.55549967 -1.0689675 29.55772217 2.875 27.5 C3.926875 26.7575 3.926875 26.7575 5 26 C5.13440778 23.57080135 5.13440778 23.57080135 4 21 C1.28167126 19.76006057 -1.16479934 18.84909624 -4 18 C-11.70276326 15.44585512 -11.70276326 15.44585512 -14 12 C-14.66812946 5.87547998 -14.66812946 5.87547998 -12.1875 2.625 C-8.25003543 -0.29997368 -4.78658751 -0.40564301 0 0 Z " fill="#162F55" transform="translate(16,259)"/>
<path d="M0 0 C3.1875 1.6875 3.1875 1.6875 5 4 C5.8125 6.75 5.8125 6.75 6 9 C5.01 9 4.02 9 3 9 C1.62131719 7.37064759 0.28725907 5.70250393 -1 4 C-4.13871188 2.43064406 -6.53855822 2.64798897 -10 3 C-12.63016161 5.1727422 -14.47336894 6.94673788 -16 10 C-16.55508155 15.93510271 -16.52656889 20.96204444 -13 26 C-10.64994965 27.78279682 -8.99234991 28.00113938 -6.0625 28.4375 C-1.91803416 27.84543345 -0.61018485 26.19022593 2 23 C3.29519995 20.83379456 3.29519995 20.83379456 4 19 C4.99 19 5.98 19 7 19 C6.43453326 22.95826719 5.36453668 25.759709 3 29 C-1.6318487 31.92430183 -6.71219493 31.74993473 -12 31 C-15.42750713 29.36399068 -17.46240894 27.10854984 -19.1328125 23.6640625 C-20.96390807 18.03880492 -20.73147301 12.11742187 -18.8125 6.5625 C-13.72277536 -0.6333176 -8.47257066 -1.16014453 0 0 Z " fill="#142D54" transform="translate(285,213)"/>
<path d="M0 0 C0.99 0 1.98 0 3 0 C3.01458252 0.64026123 3.02916504 1.28052246 3.04418945 1.94018555 C3.11891382 4.85654831 3.21549293 7.77179687 3.3125 10.6875 C3.33505859 11.69490234 3.35761719 12.70230469 3.38085938 13.74023438 C3.58751265 19.43259265 3.76403069 23.76403069 8 28 C13.6047709 28.21326403 13.6047709 28.21326403 19 27 C19.76636091 23.53910321 20.17149371 20.23922512 20.31640625 16.69921875 C20.35830078 15.72275391 20.40019531 14.74628906 20.44335938 13.74023438 C20.48267578 12.73283203 20.52199219 11.72542969 20.5625 10.6875 C20.60568359 9.66076172 20.64886719 8.63402344 20.69335938 7.57617188 C20.79906825 5.05090431 20.90116468 2.52554438 21 0 C21.99 0 22.98 0 24 0 C24.11668214 3.87474457 24.18741231 7.74903396 24.25 11.625 C24.30027344 13.26662109 24.30027344 13.26662109 24.3515625 14.94140625 C24.42813939 21.25899979 24.37138667 25.25623595 20 30 C15.80888835 32.09555583 10.55233879 31.55842023 6 31 C3.02638914 28.78436838 1.63040207 27.26080415 0 24 C-0.08471364 22.18658158 -0.10721083 20.37005839 -0.09765625 18.5546875 C-0.09443359 17.47832031 -0.09121094 16.40195313 -0.08789062 15.29296875 C-0.07951172 14.16503906 -0.07113281 13.03710938 -0.0625 11.875 C-0.05798828 10.73933594 -0.05347656 9.60367188 -0.04882812 8.43359375 C-0.03701615 5.62234362 -0.02054507 2.8111977 0 0 Z " fill="#0D284F" transform="translate(2,213)"/>
<path d="M0 0 C6.6 0 13.2 0 20 0 C20 0.99 20 1.98 20 3 C14.72 3 9.44 3 4 3 C4 6.3 4 9.6 4 13 C8.62 13 13.24 13 18 13 C18 13.99 18 14.98 18 16 C13.38 16 8.76 16 4 16 C4 20.95 4 25.9 4 31 C2.68 31 1.36 31 0 31 C0 20.77 0 10.54 0 0 Z " fill="#2C4265" transform="translate(94,260)"/>
<path d="M0 0 C2.1640625 0.359375 2.1640625 0.359375 4.7265625 2.171875 C6.1640625 4.359375 6.1640625 4.359375 6.1640625 7.359375 C5.1740625 7.359375 4.1840625 7.359375 3.1640625 7.359375 C2.5040625 6.369375 1.8440625 5.379375 1.1640625 4.359375 C-2.41950991 4.10921627 -2.41950991 4.10921627 -5.8359375 4.359375 C-5.8359375 5.679375 -5.8359375 6.999375 -5.8359375 8.359375 C-5.14886719 8.54113281 -4.46179688 8.72289062 -3.75390625 8.91015625 C-2.85285156 9.16152344 -1.95179688 9.41289062 -1.0234375 9.671875 C-0.13011719 9.91550781 0.76320312 10.15914063 1.68359375 10.41015625 C4.26778187 11.39906603 5.55005851 12.12460025 7.1640625 14.359375 C7.0390625 17.921875 7.0390625 17.921875 6.1640625 21.359375 C1.93332741 24.17986506 -1.86720459 24.02620986 -6.8359375 23.359375 C-9.4609375 21.609375 -9.4609375 21.609375 -10.8359375 19.359375 C-10.8359375 18.039375 -10.8359375 16.719375 -10.8359375 15.359375 C-9.8459375 15.359375 -8.8559375 15.359375 -7.8359375 15.359375 C-7.4028125 16.184375 -6.9696875 17.009375 -6.5234375 17.859375 C-5.9665625 18.684375 -5.4096875 19.509375 -4.8359375 20.359375 C-1.79340242 20.94282976 -1.79340242 20.94282976 1.1640625 20.359375 C1.8240625 19.699375 2.4840625 19.039375 3.1640625 18.359375 C2.8455448 16.25116703 2.8455448 16.25116703 2.1640625 14.359375 C1.39320313 14.17761719 0.62234375 13.99585938 -0.171875 13.80859375 C-1.17476562 13.55722656 -2.17765625 13.30585938 -3.2109375 13.046875 C-4.20867187 12.80324219 -5.20640625 12.55960937 -6.234375 12.30859375 C-8.8359375 11.359375 -8.8359375 11.359375 -10.8359375 8.359375 C-10.62935002 5.60487521 -10.27371046 3.91934838 -8.5625 1.73046875 C-5.82223189 -0.44562651 -3.38246049 -0.11017787 0 0 Z " fill="#173056" transform="translate(227.8359375,267.640625)"/>
<path d="M0 0 C3.37495058 0.02428022 5.14420406 0.59958588 7.75 2.75 C11.48822882 6.57940514 11.6471478 8.87867314 11.60546875 14.046875 C11.16283425 17.56434382 9.57080531 19.71817023 7.3125 22.375 C3.5558878 24.2533061 -0.60565413 24.01579213 -4.6875 23.375 C-8.40489281 20.62412932 -9.36856259 19.19294323 -10.15625 14.703125 C-10.4234961 9.7590722 -10.35825676 7.23494457 -7.25 3.25 C-6.404375 2.63125 -5.55875 2.0125 -4.6875 1.375 C-3.6875 0.375 -3.6875 0.375 0 0 Z M-5.6875 4.8125 C-7.21147055 8.71767453 -7.45671254 12.25055563 -6.6875 16.375 C-4.83108251 19.6489971 -4.83108251 19.6489971 -1.6875 21.375 C1.95657137 21.71160145 1.95657137 21.71160145 5.3125 20.375 C7.88490651 17.55365092 8.27693474 15.65952212 8.75 11.875 C8.22473955 7.67291641 7.58478507 6.07463518 4.3125 3.375 C0.64985085 2.53487524 -2.53358412 2.54562296 -5.6875 4.8125 Z " fill="#1A3358" transform="translate(363.6875,220.625)"/>
<path d="M0 0 C4.14613048 1.79037453 6.20962547 3.85386952 8 8 C8.77951588 14.01340818 7.29243822 17.15817909 4 22 C0.2433878 23.8783061 -3.91815413 23.64079213 -8 23 C-11.71574695 20.25034726 -12.70281586 18.83129684 -13.43359375 14.328125 C-13.63804377 9.74348815 -13.51550416 6.85917359 -11.125 2.875 C-7.4305429 -0.38481508 -4.88688663 -0.33131435 0 0 Z M-9 4.4375 C-10.52056864 8.33395713 -10.6441127 11.8791426 -10 16 C-8.66983836 19.22838773 -8.66983836 19.22838773 -6 21 C-1.75372309 21.15165275 0.22246644 20.67784977 3.4375 17.875 C5.42214753 14.22324854 5.58639648 12.10477533 5 8 C3.67838573 4.93126102 3.67838573 4.93126102 1 3 C-2.66264915 2.15987524 -5.84608412 2.17062296 -9 4.4375 Z " fill="#1C355A" transform="translate(225,221)"/>
<path d="M0 0 C3 1.8125 3 1.8125 5 4 C5 4.99 5 5.98 5 7 C4.01 7 3.02 7 2 7 C1.34 6.01 0.68 5.02 0 4 C-1.96361864 3.42251197 -1.96361864 3.42251197 -4.125 3.3125 C-5.40375 3.209375 -6.6825 3.10625 -8 3 C-7.67 4.65 -7.34 6.3 -7 8 C-6.31292969 8.17015625 -5.62585938 8.3403125 -4.91796875 8.515625 C-4.01691406 8.75796875 -3.11585938 9.0003125 -2.1875 9.25 C-0.84751953 9.59804687 -0.84751953 9.59804687 0.51953125 9.953125 C3.41543237 11.17533209 4.45676415 12.29030495 6 15 C5.86420172 17.78386466 5.45668127 19.3871632 3.7890625 21.625 C1.32196148 23.52111257 -0.41740595 23.43335673 -3.5 23.4375 C-4.4590625 23.45683594 -5.418125 23.47617188 -6.40625 23.49609375 C-9 23 -9 23 -10.84375 21.16015625 C-12 19 -12 19 -12 16 C-9 17 -9 17 -7.6875 18.5625 C-5.21416874 20.66941181 -3.1362632 20.20908421 0 20 C0.66 18.68 1.32 17.36 2 16 C-0.34048471 13.65951529 -1.83726507 13.34584771 -5 12.5 C-9.77777778 11.22222222 -9.77777778 11.22222222 -12 9 C-11.8125 5.5 -11.8125 5.5 -11 2 C-7.31028744 -0.45980837 -4.28401332 -0.69177647 0 0 Z " fill="#1F375C" transform="translate(141,221)"/>
<path d="M0 0 C3.02508145 1.73602105 5.41790069 3.83580137 7 7 C7.37464112 12.6196168 7.13609371 16.121632 4 21 C-0.01858595 23.6790573 -3.27641721 23.69610694 -8 23 C-10.87029869 21.20606332 -12.49131638 20.01736724 -14 17 C-14.51124099 11.79539913 -14.86132441 7.43554069 -12.125 2.875 C-8.42359063 -0.39094945 -4.80970295 -0.82095115 0 0 Z M-11 7 C-11.9581615 11.56778716 -11.55962436 14.94532333 -9.375 19.0625 C-7.10778807 21.20142882 -7.10778807 21.20142882 -4.0625 21.6875 C-0.58279106 20.90634085 0.98469815 19.66600094 3.078125 16.77734375 C4.71144141 13.62836508 4.61554185 11.44703435 4 8 C2.58190243 5.36639022 1.2881103 4.08472272 -1 2 C-5.87042023 0.66063444 -8.23670899 3.13139259 -11 7 Z " fill="#1A3258" transform="translate(278,268)"/>
<path d="M0 0 C0.99 0 1.98 0 3 0 C3.33 0.66 3.66 1.32 4 2 C4.66 1.34 5.32 0.68 6 0 C13.03045705 -0.56697234 13.03045705 -0.56697234 16.10498047 1.23095703 C18 3 18 3 18.45410156 5.17651367 C18.42268066 6.40978394 18.42268066 6.40978394 18.390625 7.66796875 C18.37128906 9.00698242 18.37128906 9.00698242 18.3515625 10.37304688 C18.31804688 11.30181641 18.28453125 12.23058594 18.25 13.1875 C18.23195313 14.12787109 18.21390625 15.06824219 18.1953125 16.03710938 C18.1481655 18.35909889 18.08238231 20.6790369 18 23 C17.01 23 16.02 23 15 23 C14.93941406 21.71222656 14.87882812 20.42445313 14.81640625 19.09765625 C14.73201753 17.41925841 14.6473687 15.74087364 14.5625 14.0625 C14.52318359 13.21236328 14.48386719 12.36222656 14.44335938 11.48632812 C14.38051758 10.27299805 14.38051758 10.27299805 14.31640625 9.03515625 C14.27974854 8.2862915 14.24309082 7.53742676 14.20532227 6.76586914 C14.18228937 4.97538674 14.18228937 4.97538674 13 4 C9.54187831 3.66661404 9.54187831 3.66661404 6 4 C3.51955685 7.72066472 3.55618827 10.86540474 3.375 15.1875 C3.33632813 15.93708984 3.29765625 16.68667969 3.2578125 17.45898438 C3.16371784 19.30559199 3.08077681 21.1527619 3 23 C2.01 23 1.02 23 0 23 C0 15.41 0 7.82 0 0 Z " fill="#294063" transform="translate(33,221)"/>
<path d="M0 0 C0.99 0 1.98 0 3 0 C3.33 0.66 3.66 1.32 4 2 C4.66 1.34 5.32 0.68 6 0 C12.93572311 -0.67119901 12.93572311 -0.67119901 16.2421875 1.4140625 C18.93134771 5.37011597 18.42904584 9.08792173 18.25 13.75 C18.23195313 14.63816406 18.21390625 15.52632812 18.1953125 16.44140625 C18.14827374 18.62870848 18.08257009 20.81379816 18 23 C17.01 23 16.02 23 15 23 C14.93941406 21.71222656 14.87882812 20.42445313 14.81640625 19.09765625 C14.73201753 17.41925841 14.6473687 15.74087364 14.5625 14.0625 C14.52318359 13.21236328 14.48386719 12.36222656 14.44335938 11.48632812 C14.38051758 10.27299805 14.38051758 10.27299805 14.31640625 9.03515625 C14.27974854 8.2862915 14.24309082 7.53742676 14.20532227 6.76586914 C14.18228937 4.97538674 14.18228937 4.97538674 13 4 C9.54178598 3.74996036 9.54178598 3.74996036 6 4 C2.97906785 7.02093215 3.53323166 10.56372072 3.375 14.625 C3.33632813 15.42679688 3.29765625 16.22859375 3.2578125 17.0546875 C3.16346069 19.03607556 3.08063785 21.01800645 3 23 C2.01 23 1.02 23 0 23 C0 15.41 0 7.82 0 0 Z " fill="#21395D" transform="translate(397,221)"/>
<path d="M0 0 C0.99 0 1.98 0 3 0 C2.34896836 5.89874122 0.24269201 11.12962719 -1.875 16.625 C-2.22691406 17.56601563 -2.57882813 18.50703125 -2.94140625 19.4765625 C-3.28816406 20.3840625 -3.63492188 21.2915625 -3.9921875 22.2265625 C-4.30526855 23.04721191 -4.61834961 23.86786133 -4.94091797 24.71337891 C-6.06378022 27.13770529 -7.1932111 29.02839697 -9 31 C-12.1875 31.25 -12.1875 31.25 -15 31 C-15 30.01 -15 29.02 -15 28 C-13.35 27.67 -11.7 27.34 -10 27 C-8.24937418 21.06891797 -10.11709336 17.16865204 -12.4375 11.75 C-13.10549766 10.14171612 -13.77099004 8.53238866 -14.43359375 6.921875 C-14.73322021 6.21643555 -15.03284668 5.51099609 -15.34155273 4.78417969 C-16 3 -16 3 -16 1 C-15.01 1 -14.02 1 -13 1 C-10.69 6.28 -8.38 11.56 -6 17 C-4.02 11.39 -2.04 5.78 0 0 Z " fill="#193258" transform="translate(191,221)"/>
<path d="M0 0 C0.99 0 1.98 0 3 0 C3.33 0.66 3.66 1.32 4 2 C4.66 1.34 5.32 0.68 6 0 C12.93572311 -0.67119901 12.93572311 -0.67119901 16.2421875 1.4140625 C18.93134771 5.37011597 18.42904584 9.08792173 18.25 13.75 C18.23195313 14.63816406 18.21390625 15.52632813 18.1953125 16.44140625 C18.14827374 18.62870848 18.08257009 20.81379816 18 23 C17.01 23 16.02 23 15 23 C14.95101562 21.72382813 14.90203125 20.44765625 14.8515625 19.1328125 C14.77653809 17.46351928 14.70099012 15.79424954 14.625 14.125 C14.5940625 13.28324219 14.563125 12.44148438 14.53125 11.57421875 C14.49257812 10.76855469 14.45390625 9.96289062 14.4140625 9.1328125 C14.3826416 8.38918457 14.3512207 7.64555664 14.31884766 6.87939453 C14.14580449 4.75989026 14.14580449 4.75989026 12 3 C9.54230847 2.58320703 9.54230847 2.58320703 7 3 C5.03983092 4.52751518 4.12387207 5.4553406 3.56762695 7.90112305 C3.54144287 8.59761963 3.51525879 9.29411621 3.48828125 10.01171875 C3.45283203 10.76904297 3.41738281 11.52636719 3.38085938 12.30664062 C3.35830078 13.09232422 3.33574219 13.87800781 3.3125 14.6875 C3.27833984 15.48478516 3.24417969 16.28207031 3.20898438 17.10351562 C3.12661896 19.06851904 3.06162933 21.03423696 3 23 C2.01 23 1.02 23 0 23 C0 15.41 0 7.82 0 0 Z " fill="#0F2950" transform="translate(55,268)"/>
<path d="M0 0 C2.70920198 3.95638968 2.20287209 7.66764304 2.0234375 12.33984375 C2.00539062 13.22800781 1.98734375 14.11617188 1.96875 15.03125 C1.92171124 17.21855223 1.85600759 19.40364191 1.7734375 21.58984375 C0.7834375 21.58984375 -0.2065625 21.58984375 -1.2265625 21.58984375 C-1.27554688 20.31367188 -1.32453125 19.0375 -1.375 17.72265625 C-1.45002441 16.05336303 -1.52557238 14.38409329 -1.6015625 12.71484375 C-1.6325 11.87308594 -1.6634375 11.03132813 -1.6953125 10.1640625 C-1.73398438 9.35839844 -1.77265625 8.55273438 -1.8125 7.72265625 C-1.8439209 6.97902832 -1.8753418 6.23540039 -1.90771484 5.46923828 C-2.08075801 3.34973401 -2.08075801 3.34973401 -4.2265625 1.58984375 C-7.3179011 1.35204847 -9.25761194 1.60019356 -12.2265625 2.58984375 C-12.5565625 8.85984375 -12.8865625 15.12984375 -13.2265625 21.58984375 C-14.2165625 21.58984375 -15.2065625 21.58984375 -16.2265625 21.58984375 C-16.2265625 14.32984375 -16.2265625 7.06984375 -16.2265625 -0.41015625 C-3.89322917 -2.46571181 -3.89322917 -2.46571181 0 0 Z " fill="#1B3459" transform="translate(175.2265625,269.41015625)"/>
<path d="M0 0 C3 2.3125 3 2.3125 5 5 C5 5.99 5 6.98 5 8 C4.01 8 3.02 8 2 8 C1.814375 7.360625 1.62875 6.72125 1.4375 6.0625 C0.06468563 3.62306084 0.06468563 3.62306084 -3.4375 3.0625 C-6.86554931 2.64234871 -6.86554931 2.64234871 -8.6640625 4.22265625 C-11.08607165 7.44491989 -11.21339873 11.0624493 -11 15 C-9.73680006 18.24790764 -9.73680006 18.24790764 -7 20 C-3.29945591 19.9363921 -3.29945591 19.9363921 0 19 C0.66 17.35 1.32 15.7 2 14 C2.99 14 3.98 14 5 14 C4.71827807 17.16937172 4.51665615 19.35417981 2.5 21.875 C-1.33419366 23.60038715 -4.88545806 23.93145602 -9 23 C-11.79278995 20.85119456 -13.42751862 18.14496277 -15 15 C-15.54802111 9.30058046 -14.60961802 6.43467357 -11 2 C-7.32610037 -0.44926642 -4.26791164 -0.830333 0 0 Z " fill="#20385D" transform="translate(254,268)"/>
<path d="M0 0 C3 1.8125 3 1.8125 5 4 C5 4.99 5 5.98 5 7 C4.01 7 3.02 7 2 7 C0.3125 5 0.3125 5 -1 3 C-4.43230448 3.26393501 -4.43230448 3.26393501 -8 4 C-10.69469307 8.04203961 -10.53918165 11.25862489 -10 16 C-9.08686892 18.63926464 -9.08686892 18.63926464 -7 20 C-4 20.75 -4 20.75 -1 20 C0.71711243 17.55503957 0.71711243 17.55503957 2 15 C2.99 15 3.98 15 5 15 C4.68762196 17.88949684 4.35661121 19.58633099 2.4375 21.8125 C-1.03017616 23.50188069 -4.26065253 23.68999864 -8 23 C-10.8100346 21.20636089 -12.50940468 19.98119065 -14 17 C-14.51124099 11.79539913 -14.86132441 7.43554069 -12.125 2.875 C-8.39878059 -0.41284066 -4.83430097 -0.68401199 0 0 Z " fill="#0F2850" transform="translate(197,268)"/>
<path d="M0 0 C0.99 0 1.98 0 3 0 C5.31 5.94 7.62 11.88 10 18 C11.98 12.39 13.96 6.78 16 1 C16.99 1 17.98 1 19 1 C17.66870704 8.26159797 15.7673852 15.58920087 12 22 C9.91162109 22.65039062 9.91162109 22.65039062 8 23 C6.6582322 19.73256344 5.32805641 16.46053092 4 13.1875 C3.6184375 12.25873047 3.236875 11.32996094 2.84375 10.37304688 C2.4828125 9.48037109 2.121875 8.58769531 1.75 7.66796875 C1.41484375 6.84578857 1.0796875 6.0236084 0.734375 5.17651367 C0 3 0 3 0 0 Z " fill="#22395E" transform="translate(66,221)"/>
<path d="M0 0 C3.125 -0.1875 3.125 -0.1875 6 0 C6 0.99 6 1.98 6 3 C4.35 3 2.7 3 1 3 C1 4.65 1 6.3 1 8 C2.32 8 3.64 8 5 8 C5 8.99 5 9.98 5 11 C3.68 11 2.36 11 1 11 C1 17.6 1 24.2 1 31 C0.01 31 -0.98 31 -2 31 C-2 24.4 -2 17.8 -2 11 C-3.32 11 -4.64 11 -6 11 C-6 10.34 -6 9.68 -6 9 C-4.68 9 -3.36 9 -2 9 C-2.04125 8.071875 -2.0825 7.14375 -2.125 6.1875 C-2 3 -2 3 0 0 Z " fill="#122C52" transform="translate(242,213)"/>
<path d="M0 0 C0 0.99 0 1.98 0 3 C-1.32 3.33 -2.64 3.66 -4 4 C-4.33 5.32 -4.66 6.64 -5 8 C-3.35 8.33 -1.7 8.66 0 9 C0 9.66 0 10.32 0 11 C-1.65 11 -3.3 11 -5 11 C-5 17.6 -5 24.2 -5 31 C-5.99 31 -6.98 31 -8 31 C-8 24.4 -8 17.8 -8 11 C-8.99 11 -9.98 11 -11 11 C-11 10.34 -11 9.68 -11 9 C-10.01 9 -9.02 9 -8 9 C-8.061875 8.071875 -8.12375 7.14375 -8.1875 6.1875 C-8 3 -8 3 -6.8125 1.125 C-4.43963721 -0.34781139 -2.74086056 -0.22223194 0 0 Z " fill="#1D365B" transform="translate(351,213)"/>
<path d="M0 0 C0.99 0 1.98 0 3 0 C3 1.98 3 3.96 3 6 C4.32 6 5.64 6 7 6 C7 6.99 7 7.98 7 9 C5.68 9 4.36 9 3 9 C3 14.61 3 20.22 3 26 C4.32 26 5.64 26 7 26 C7 26.99 7 27.98 7 29 C5.00045254 29.04254356 2.99958364 29.04080783 1 29 C0 28 0 28 -0.11352539 26.14233398 C-0.10828857 25.35157471 -0.10305176 24.56081543 -0.09765625 23.74609375 C-0.09443359 22.89208984 -0.09121094 22.03808594 -0.08789062 21.15820312 C-0.07951172 20.26037109 -0.07113281 19.36253906 -0.0625 18.4375 C-0.05798828 17.53580078 -0.05347656 16.63410156 -0.04882812 15.70507812 C-0.03700225 13.46998686 -0.0205222 11.23502563 0 9 C-1.32 9 -2.64 9 -4 9 C-4 8.34 -4 7.68 -4 7 C-2.68 7 -1.36 7 0 7 C0 4.69 0 2.38 0 0 Z " fill="#1B3359" transform="translate(164,215)"/>
<path d="M0 0 C1.98 0.99 1.98 0.99 4 2 C4.99 1.34 5.98 0.68 7 0 C8.32 0 9.64 0 11 0 C11 1.32 11 2.64 11 4 C10.030625 4.309375 9.06125 4.61875 8.0625 4.9375 C5.15934208 5.69523342 5.15934208 5.69523342 4 7 C3.76321284 9.69235776 3.57801975 12.36498156 3.4375 15.0625 C3.39431641 15.82111328 3.35113281 16.57972656 3.30664062 17.36132812 C3.20026367 19.24065438 3.09960066 21.12030244 3 23 C2.01 23 1.02 23 0 23 C0 15.41 0 7.82 0 0 Z " fill="#2F4567" transform="translate(381,221)"/>
<path d="M0 0 C0.99 0 1.98 0 3 0 C3.33 0.66 3.66 1.32 4 2 C4.99 1.34 5.98 0.68 7 0 C8.32 0 9.64 0 11 0 C11 0.99 11 1.98 11 3 C10.21625 3.28875 9.4325 3.5775 8.625 3.875 C5.90328368 4.84912254 5.90328368 4.84912254 4 7 C3.6936141 9.73434962 3.4886664 12.38279821 3.375 15.125 C3.33632812 15.87910156 3.29765625 16.63320313 3.2578125 17.41015625 C3.16348969 19.27303184 3.08065338 21.13648255 3 23 C2.01 23 1.02 23 0 23 C0 15.41 0 7.82 0 0 Z " fill="#112A51" transform="translate(119,268)"/>
<path d="M0 0 C-0.48529412 6.43014706 -0.48529412 6.43014706 -2.75 8.9375 C-5.44963365 10.212327 -7.04916349 10.45397485 -10 10 C-11.875 8.75 -11.875 8.75 -13 7 C-12.84375 5 -12.84375 5 -12 3 C-10.0390625 1.953125 -10.0390625 1.953125 -7.625 1.25 C-6.83351563 1.00765625 -6.04203125 0.7653125 -5.2265625 0.515625 C-3 0 -3 0 0 0 Z " fill="#E9EBEF" transform="translate(312,232)"/>
<path d="M0 0 C0.99 0 1.98 0 3 0 C3.33 0.99 3.66 1.98 4 3 C4.598125 2.505 5.19625 2.01 5.8125 1.5 C8 0 8 0 11 0 C11 0.99 11 1.98 11 3 C10.030625 3.45375 9.06125 3.9075 8.0625 4.375 C4.92920418 5.65786221 4.92920418 5.65786221 4 8 C3.76827173 10.54615009 3.58105471 13.07396225 3.4375 15.625 C3.39431641 16.33140625 3.35113281 17.0378125 3.30664062 17.765625 C3.20055249 19.51018537 3.09977111 21.25506697 3 23 C2.01 23 1.02 23 0 23 C0 15.41 0 7.82 0 0 Z " fill="#1E365B" transform="translate(114,221)"/>
<path d="M0 0 C0.99 0 1.98 0 3 0 C3 10.23 3 20.46 3 31 C2.01 31 1.02 31 0 31 C0 20.77 0 10.54 0 0 Z " fill="#1C3459" transform="translate(322,213)"/>
<path d="M0 0 C-0.48529412 6.43014706 -0.48529412 6.43014706 -2.75 8.9375 C-5.41086144 10.1940179 -7.09053036 10.38282495 -10 10 C-12 8 -12 8 -12.125 5.375 C-12.08375 4.59125 -12.0425 3.8075 -12 3 C-8.06781617 1.31477836 -4.31682198 0 0 0 Z " fill="#F1F3F5" transform="translate(45,279)"/>
<path d="M0 0 C-0.48529412 6.43014706 -0.48529412 6.43014706 -2.75 8.9375 C-5.41086144 10.1940179 -7.09053036 10.38282495 -10 10 C-12 8 -12 8 -12.125 5.375 C-12.08375 4.59125 -12.0425 3.8075 -12 3 C-10.37604003 2.49663233 -8.75079459 1.99741024 -7.125 1.5 C-6.22007812 1.2215625 -5.31515625 0.943125 -4.3828125 0.65625 C-2 0 -2 0 0 0 Z " fill="#F5F6F7" transform="translate(446,232)"/>
<path d="M0 0 C0.25 2.8125 0.25 2.8125 0 6 C-2.11689705 8.35210784 -3.44041515 8.91810953 -6.5625 9.375 C-9 9 -9 9 -10.875 7.75 C-12 6 -12 6 -12 3.9375 C-11 2 -11 2 -8.8125 0.75 C-5.75967331 -0.06408712 -3.14582965 -0.14631766 0 0 Z " fill="#F1F2F4" transform="translate(148,280)"/>
<path d="M0 0 C0 0.99 0 1.98 0 3 C-2.97 3.66 -5.94 4.32 -9 5 C-9.042721 6.66611905 -9.04063832 8.33382885 -9 10 C-8.67 10.33 -8.34 10.66 -8 11 C-6.14227838 10.91015699 -4.28752015 10.75388139 -2.4375 10.5625 C-1.42558594 10.46066406 -0.41367187 10.35882813 0.62890625 10.25390625 C1.80259766 10.12822266 1.80259766 10.12822266 3 10 C2 12 2 12 -1 14 C-3.15625 14.30078125 -3.15625 14.30078125 -5.5 14.3125 C-6.66015625 14.33763672 -6.66015625 14.33763672 -7.84375 14.36328125 C-10.53688625 13.90954634 -11.39750483 13.18522069 -13 11 C-13.4375 7.5 -13.4375 7.5 -13 4 C-9.75667114 0.10800537 -4.82198551 0 0 0 Z " fill="#1C3459" transform="translate(43,277)"/>
<path d="M0 0 C3.32801974 -0.30254725 5.33172094 -0.42960797 8.1875 1.40625 C10.94935467 5.35855927 10.43029937 9.05528182 10.25 13.75 C10.23195313 14.63816406 10.21390625 15.52632813 10.1953125 16.44140625 C10.14827374 18.62870848 10.08257009 20.81379816 10 23 C9.01 23 8.02 23 7 23 C6.95101562 21.72382813 6.90203125 20.44765625 6.8515625 19.1328125 C6.77653809 17.46351928 6.70099012 15.79424954 6.625 14.125 C6.5940625 13.28324219 6.563125 12.44148438 6.53125 11.57421875 C6.49257812 10.76855469 6.45390625 9.96289062 6.4140625 9.1328125 C6.3826416 8.38918457 6.3512207 7.64555664 6.31884766 6.87939453 C6.14580449 4.75989026 6.14580449 4.75989026 4 3 C1.42938689 2.35232207 1.42938689 2.35232207 -1 2 C-0.67 1.34 -0.34 0.68 0 0 Z " fill="#183156" transform="translate(63,268)"/>
<path d="M0 0 C3.32801974 -0.30254725 5.33172094 -0.42960797 8.1875 1.40625 C10.94935467 5.35855927 10.43029937 9.05528182 10.25 13.75 C10.23195313 14.63816406 10.21390625 15.52632812 10.1953125 16.44140625 C10.14827374 18.62870848 10.08257009 20.81379816 10 23 C9.01 23 8.02 23 7 23 C6.95101563 21.72382813 6.90203125 20.44765625 6.8515625 19.1328125 C6.77653809 17.46351928 6.70099012 15.79424954 6.625 14.125 C6.5940625 13.28324219 6.563125 12.44148437 6.53125 11.57421875 C6.49257813 10.76855469 6.45390625 9.96289062 6.4140625 9.1328125 C6.3826416 8.38918457 6.3512207 7.64555664 6.31884766 6.87939453 C6.14580449 4.75989026 6.14580449 4.75989026 4 3 C1.42938689 2.35232207 1.42938689 2.35232207 -1 2 C-0.67 1.34 -0.34 0.68 0 0 Z " fill="#0E284F" transform="translate(405,221)"/>
<path d="M0 0 C-0.99 1.485 -0.99 1.485 -2 3 C-2.66 3 -3.32 3 -4 3 C-4.33 9.27 -4.66 15.54 -5 22 C-5.99 22 -6.98 22 -8 22 C-8 14.74 -8 7.48 -8 0 C-2 -1 -2 -1 0 0 Z " fill="#273E62" transform="translate(167,269)"/>
<path d="M0 0 C3.5625 0.3125 3.5625 0.3125 5.4375 1.5625 C6.5625 3.3125 6.5625 3.3125 7.5625 7.3125 C2.9425 7.3125 -1.6775 7.3125 -6.4375 7.3125 C-5.06712963 0.46064815 -5.06712963 0.46064815 0 0 Z " fill="#F7F8F9" transform="translate(98.4375,223.6875)"/>
<path d="M0 0 C7.24101736 -0.61364554 7.24101736 -0.61364554 10.9375 2.375 C14.32872321 6.69110227 14 6.83363714 14 13 C8.39 13 2.78 13 -3 13 C-3 12.67 -3 12.34 -3 12 C1.29 12 5.58 12 10 12 C9.67 9.36 9.34 6.72 9 4 C6.36 3.67 3.72 3.34 1 3 C0.67 2.01 0.34 1.02 0 0 Z " fill="#415574" transform="translate(95,221)"/>
<path d="M0 0 C3 2.3125 3 2.3125 5 5 C5 5.99 5 6.98 5 8 C4.01 8 3.02 8 2 8 C1.814375 7.360625 1.62875 6.72125 1.4375 6.0625 C0.06468563 3.62306084 0.06468563 3.62306084 -3.4375 3.0625 C-6.86436371 2.66822444 -6.86436371 2.66822444 -8.8125 4.1875 C-10.04580213 6.06990851 -11.07951712 7.94661511 -12 10 C-12.66 10 -13.32 10 -14 10 C-14 11.65 -14 13.3 -14 15 C-14.33 15 -14.66 15 -15 15 C-15.45675183 9.29060212 -14.62105556 6.44872541 -11 2 C-7.32610037 -0.44926642 -4.26791164 -0.830333 0 0 Z " fill="#1D355A" transform="translate(254,268)"/>
<path d="M0 0 C0.99 0 1.98 0 3 0 C3 0.99 3 1.98 3 3 C3.66 3 4.32 3 5 3 C4.76228882 3.86963379 4.76228882 3.86963379 4.51977539 4.75683594 C3.71911382 8.21220398 3.62776918 11.71910303 3.4375 15.25 C3.39431641 15.99507812 3.35113281 16.74015625 3.30664062 17.5078125 C3.20103275 19.338349 3.10005799 21.16915176 3 23 C2.01 23 1.02 23 0 23 C0 15.41 0 7.82 0 0 Z " fill="#20385D" transform="translate(33,221)"/>
<path d="M0 0 C0.99 0 1.98 0 3 0 C3 7.59 3 15.18 3 23 C2.01 23 1.02 23 0 23 C0 15.41 0 7.82 0 0 Z " fill="#21395D" transform="translate(332,221)"/>
<path d="M0 0 C0.99 0 1.98 0 3 0 C3 7.59 3 15.18 3 23 C2.01 23 1.02 23 0 23 C0 15.41 0 7.82 0 0 Z " fill="#21395D" transform="translate(58,221)"/>
<path d="M0 0 C0.8353125 0.37125 0.8353125 0.37125 1.6875 0.75 C1.6875 1.41 1.6875 2.07 1.6875 2.75 C0.0375 3.41 -1.6125 4.07 -3.3125 4.75 C-2.81493908 7.50641416 -2.81493908 7.50641416 -1.3125 9.75 C1.02047433 9.79092937 3.35455225 9.79241723 5.6875 9.75 C5.3575 10.74 5.0275 11.73 4.6875 12.75 C-3.55242322 13.371881 -3.55242322 13.371881 -6.375 11.0625 C-7.50960664 8.26380361 -7.90914818 6.73324089 -7.3125 3.75 C-3.41056452 -0.36870968 -3.41056452 -0.36870968 0 0 Z " fill="#1A3358" transform="translate(140.3125,278.25)"/>
<path d="M0 0 C3 1.8125 3 1.8125 5 4 C5 4.99 5 5.98 5 7 C4.01 7 3.02 7 2 7 C0.3125 5 0.3125 5 -1 3 C-4.43230448 3.26393501 -4.43230448 3.26393501 -8 4 C-10.12508244 7.18762365 -10.5020163 9.26512223 -11 13 C-13.08489627 10.74831203 -14 9.62263575 -14 6.5 C-11.46997558 0.17493894 -6.23345828 -1.26931308 0 0 Z " fill="#21395D" transform="translate(197,268)"/>
<path d="M0 0 C0.99 0 1.98 0 3 0 C3 7.26 3 14.52 3 22 C2.01 22 1.02 22 0 22 C0 14.74 0 7.48 0 0 Z " fill="#07224B" transform="translate(208,269)"/>
<path d="M0 0 C0.99 0 1.98 0 3 0 C3 7.26 3 14.52 3 22 C2.01 22 1.02 22 0 22 C0 14.74 0 7.48 0 0 Z " fill="#1C355A" transform="translate(152,222)"/>
<path d="M0 0 C0.99 0 1.98 0 3 0 C3 7.26 3 14.52 3 22 C2.01 22 1.02 22 0 22 C0 14.74 0 7.48 0 0 Z " fill="#07234B" transform="translate(422,222)"/>
<path d="M0 0 C0.33 0 0.66 0 1 0 C1.19335938 0.69867188 1.38671875 1.39734375 1.5859375 2.1171875 C1.84632813 3.02726562 2.10671875 3.93734375 2.375 4.875 C2.63023437 5.77992188 2.88546875 6.68484375 3.1484375 7.6171875 C3.8604315 10.14569726 3.8604315 10.14569726 6 12 C10.89677339 13.25820208 10.89677339 13.25820208 15.4375 11.5625 C15.953125 11.046875 16.46875 10.53125 17 10 C17 10.99 17 11.98 17 13 C12.98141405 15.6790573 9.72358279 15.69610694 5 15 C2.12970131 13.20606332 0.50868362 12.01736724 -1 9 C-1.18704404 6.30986661 -1.08581391 3.70313823 -1 1 C-0.67 0.67 -0.34 0.34 0 0 Z " fill="#112A51" transform="translate(265,276)"/>
<path d="M0 0 C2.1640625 0.359375 2.1640625 0.359375 4.7265625 2.171875 C6.1640625 4.359375 6.1640625 4.359375 6.1640625 7.359375 C5.1740625 7.359375 4.1840625 7.359375 3.1640625 7.359375 C2.5040625 6.369375 1.8440625 5.379375 1.1640625 4.359375 C-2.55233889 4.08909126 -5.2931385 4.178442 -8.8359375 5.359375 C-9.4959375 6.349375 -10.1559375 7.339375 -10.8359375 8.359375 C-9.85810012 1.1233784 -6.894763 -0.22458511 0 0 Z " fill="#162F55" transform="translate(227.8359375,267.640625)"/>
<path d="M0 0 C3 1 3 1 4.3125 2.5625 C6.01905348 4.27434705 6.01905348 4.27434705 9 4.4375 C12.10555161 4.31635182 12.10555161 4.31635182 13.75 2 C14.1625 1.34 14.575 0.68 15 0 C15.66 0 16.32 0 17 0 C16.25 4.75 16.25 4.75 14 7 C11.50390625 7.3359375 11.50390625 7.3359375 8.5625 7.375 C7.11037109 7.41753906 7.11037109 7.41753906 5.62890625 7.4609375 C3 7 3 7 1.15234375 5.1640625 C0 3 0 3 0 0 Z " fill="#112A51" transform="translate(129,237)"/>
<path d="M0 0 C0.99 0 1.98 0 3 0 C1.83348574 5.92863717 0.24480642 11.38798394 -2 17 C-2.99 16.67 -3.98 16.34 -5 16 C-4.39363767 10.23955788 -2.24341721 5.27985631 0 0 Z " fill="#304768" transform="translate(82,222)"/>
<path d="M0 0 C-0.33 1.32 -0.66 2.64 -1 4 C-1.33 3.67 -1.66 3.34 -2 3 C-4.91538029 2.49957854 -4.91538029 2.49957854 -8 3 C-9.71711243 5.44496043 -9.71711243 5.44496043 -11 8 C-11.99 8 -12.98 8 -14 8 C-13.69209738 5.15190074 -13.34521809 3.41713852 -11.5 1.1875 C-7.73512805 -0.60081417 -4.09873595 -0.23646554 0 0 Z " fill="#122C53" transform="translate(148,268)"/>
<path d="M0 0 C0.99 0 1.98 0 3 0 C2.36843005 5.05255964 0.86540627 9.29593201 -1 14 C-1.99 13.67 -2.98 13.34 -4 13 C-3.52343588 11.20763933 -3.04366502 9.41613103 -2.5625 7.625 C-2.29566406 6.62726563 -2.02882812 5.62953125 -1.75390625 4.6015625 C-1 2 -1 2 0 0 Z " fill="#2C4365" transform="translate(191,221)"/>
<path d="M0 0 C0.33 0 0.66 0 1 0 C1.268125 1.2375 1.53625 2.475 1.8125 3.75 C2.64484241 7.13925038 3.72431903 9.31055886 6 12 C6 12.66 6 13.32 6 14 C3.46096004 13.64978759 2.17906702 13.15988127 0.25 11.4375 C-1.60382717 7.82253703 -1.26488479 5.03949299 -1 1 C-0.67 0.67 -0.34 0.34 0 0 Z " fill="#102950" transform="translate(213,229)"/>
<path d="M0 0 C0.94875 0.350625 1.8975 0.70125 2.875 1.0625 C2.875 1.3925 2.875 1.7225 2.875 2.0625 C0.565 2.7225 -1.745 3.3825 -4.125 4.0625 C-4.785 7.0325 -5.445 10.0025 -6.125 13.0625 C-6.455 13.0625 -6.785 13.0625 -7.125 13.0625 C-7.269375 12.299375 -7.41375 11.53625 -7.5625 10.75 C-8.0882594 7.98077092 -8.0882594 7.98077092 -9.125 5.0625 C-4.66346154 -1.39903846 -4.66346154 -1.39903846 0 0 Z " fill="#304668" transform="translate(221.125,221.9375)"/>
<path d="M0 0 C1.175625 1.2065625 1.175625 1.2065625 2.375 2.4375 C6.43820536 5.89513149 10.84620904 5.88796107 16 6 C16 6.33 16 6.66 16 7 C10.39 7 4.78 7 -1 7 C-0.67 4.69 -0.34 2.38 0 0 Z " fill="#E7EAED" transform="translate(1,285)"/>
<path d="M0 0 C-2.11070111 6.00738007 -2.11070111 6.00738007 -5 8 C-8.6875 8.6875 -8.6875 8.6875 -12 9 C-11.01 8.67 -10.02 8.34 -9 8 C-8.67 7.01 -8.34 6.02 -8 5 C-3.58139535 0 -3.58139535 0 0 0 Z " fill="#2D4366" transform="translate(109,236)"/>
<path d="M0 0 C2.50357861 0.8345262 4.66785852 1.79371992 7 3 C5.329375 3.12375 5.329375 3.12375 3.625 3.25 C-0.05753944 3.57873787 -0.05753944 3.57873787 -1.4375 6.0625 C-1.623125 6.701875 -1.80875 7.34125 -2 8 C-2.99 8 -3.98 8 -5 8 C-4.66275164 4.88045262 -4.3790035 3.3790035 -2.125 1.125 C-1.42375 0.75375 -0.7225 0.3825 0 0 Z " fill="#3C5070" transform="translate(302,221)"/>
<path d="M0 0 C0.66 0 1.32 0 2 0 C2.268125 1.093125 2.53625 2.18625 2.8125 3.3125 C3.91358648 6.73166327 4.42474926 7.77591981 7 10 C7 10.66 7 11.32 7 12 C4.41851492 11.64393309 3.17954253 11.16671807 1.25 9.375 C-0.43754802 6.16865877 -0.20576047 3.56651486 0 0 Z " fill="#0C264E" transform="translate(240,278)"/>
<path d="M0 0 C0.804375 1.2065625 0.804375 1.2065625 1.625 2.4375 C4.43105369 5.46508424 5.96825194 5.72510809 10 6 C10 6.66 10 7.32 10 8 C2.62957075 8.36248013 2.62957075 8.36248013 -0.0625 6.8125 C-1.38135516 4.26271335 -0.7975116 2.68253902 0 0 Z " fill="#0B254D" transform="translate(432,236)"/>
<path d="M0 0 C3.81365679 -0.35475877 5.58442458 -0.2619932 8.875 1.8125 C11 4 11 4 11 7 C10.01 7 9.02 7 8 7 C7.566875 6.360625 7.13375 5.72125 6.6875 5.0625 C5.08674484 2.67933367 5.08674484 2.67933367 1.8125 2.25 C0.884375 2.1675 -0.04375 2.085 -1 2 C-0.67 1.34 -0.34 0.68 0 0 Z " fill="#0F284F" transform="translate(191,268)"/>
<path d="M0 0 C-0.268125 0.515625 -0.53625 1.03125 -0.8125 1.5625 C-2.32349407 4.66401415 -3.65572726 7.82262806 -5 11 C-5.66 11 -6.32 11 -7 11 C-7.3125 8.3125 -7.3125 8.3125 -7 5 C-2.86956522 0 -2.86956522 0 0 0 Z " fill="#122B52" transform="translate(361,222)"/>
<path d="M0 0 C5.75 1.625 5.75 1.625 8 5 C7.625 7.1875 7.625 7.1875 7 9 C7 8.01 7 7.02 7 6 C6.443125 5.87625 5.88625 5.7525 5.3125 5.625 C2.77885636 4.94023145 0.42078968 4.00866237 -2 3 C-1.34 2.67 -0.68 2.34 0 2 C0 1.34 0 0.68 0 0 Z " fill="#2B4264" transform="translate(139,231)"/>
<path d="M0 0 C0.99 0 1.98 0 3 0 C2.71125 0.556875 2.4225 1.11375 2.125 1.6875 C0.9586747 4.08494645 -0.0339881 6.51596939 -1 9 C-1.99 9 -2.98 9 -4 9 C-3.47557578 5.2241456 -2.67345333 2.77627845 0 0 Z " fill="#162F55" transform="translate(93,222)"/>
<path d="M0 0 C3.6875 0.875 3.6875 0.875 7 2 C7 2.33 7 2.66 7 3 C4.69 3.33 2.38 3.66 0 4 C-0.33 4.99 -0.66 5.98 -1 7 C-1.99 7 -2.98 7 -4 7 C-3.6875 4.625 -3.6875 4.625 -3 2 C-2.01 1.34 -1.02 0.68 0 0 Z " fill="#2E4467" transform="translate(436,221)"/>
<path d="M0 0 C0.625 1.8125 0.625 1.8125 1 4 C0.01 5.485 0.01 5.485 -1 7 C-1.99 7 -2.98 7 -4 7 C-4.33 5.35 -4.66 3.7 -5 2 C-4.360625 1.855625 -3.72125 1.71125 -3.0625 1.5625 C-1.02454854 1.18992819 -1.02454854 1.18992819 0 0 Z " fill="#183057" transform="translate(78,237)"/>
<path d="M0 0 C0 0.66 0 1.32 0 2 C0.66 2.33 1.32 2.66 2 3 C0.02 3.33 -1.96 3.66 -4 4 C-4.33 5.32 -4.66 6.64 -5 8 C-5.66 7.34 -6.32 6.68 -7 6 C-6.875 4 -6.875 4 -6 2 C-3.85331506 0.61504198 -2.56128588 0 0 0 Z " fill="#2B4265" transform="translate(438,231)"/>
<path d="M0 0 C0.33 0.99 0.66 1.98 1 3 C-1 5 -1 5 -4.125 5.125 C-5.548125 5.063125 -5.548125 5.063125 -7 5 C-7 4.01 -7 3.02 -7 2 C-4.69 1.34 -2.38 0.68 0 0 Z " fill="#2C4265" transform="translate(183,247)"/>
<path d="M0 0 C1.27875 0.103125 2.5575 0.20625 3.875 0.3125 C4.95394531 0.39951172 4.95394531 0.39951172 6.0546875 0.48828125 C8 1 8 1 10 4 C9.01 4.33 8.02 4.66 7 5 C6.01 4.34 5.02 3.68 4 3 C2.34450469 2.61500109 0.6777567 2.27206865 -1 2 C-0.67 1.34 -0.34 0.68 0 0 Z " fill="#0E284F" transform="translate(220,221)"/>
<path d="M0 0 C0.99 0 1.98 0 3 0 C2.8125 2.3125 2.8125 2.3125 2 5 C-0.5625 6.8125 -0.5625 6.8125 -3 8 C-2.690625 7.236875 -2.38125 6.47375 -2.0625 5.6875 C-1.32106407 3.81210323 -0.63771783 1.91315348 0 0 Z " fill="#132D53" transform="translate(199,283)"/>
<path d="M0 0 C2.31 0.66 4.62 1.32 7 2 C7 2.33 7 2.66 7 3 C6.37351563 3.10957031 5.74703125 3.21914063 5.1015625 3.33203125 C4.28429687 3.49058594 3.46703125 3.64914062 2.625 3.8125 C1.40683594 4.03873047 1.40683594 4.03873047 0.1640625 4.26953125 C-2.35820641 4.87544942 -2.35820641 4.87544942 -4 8 C-3.50168276 4.31245243 -2.89932357 2.39509338 0 0 Z " fill="#4D5F7D" transform="translate(221,268)"/>
<path d="M0 0 C0.99 0 1.98 0 3 0 C2.50168276 3.68754757 1.89932357 5.60490662 -1 8 C-2.2077558 4.37673261 -1.54311128 3.35853631 0 0 Z " fill="#193157" transform="translate(82,222)"/>
<path d="M0 0 C0.33 0 0.66 0 1 0 C0.67 2.31 0.34 4.62 0 7 C-1.65 7.66 -3.3 8.32 -5 9 C-4.67 7.68 -4.34 6.36 -4 5 C-2.68 4.67 -1.36 4.34 0 4 C0 2.68 0 1.36 0 0 Z " fill="#2E4466" transform="translate(234,282)"/>
<path d="M0 0 C0.598125 0.20625 1.19625 0.4125 1.8125 0.625 C1.8125 1.285 1.8125 1.945 1.8125 2.625 C-0.4975 3.285 -2.8075 3.945 -5.1875 4.625 C-5.1875 3.635 -5.1875 2.645 -5.1875 1.625 C-2.1875 -0.375 -2.1875 -0.375 0 0 Z " fill="#223A5E" transform="translate(140.1875,278.375)"/>
<path d="M0 0 C0.66 1.32 1.32 2.64 2 4 C-1.96 4 -5.92 4 -10 4 C-10 3.67 -10 3.34 -10 3 C-9.04287109 2.80083984 -9.04287109 2.80083984 -8.06640625 2.59765625 C-7.24011719 2.42105469 -6.41382813 2.24445313 -5.5625 2.0625 C-4.73878906 1.88847656 -3.91507813 1.71445312 -3.06640625 1.53515625 C-1.02338796 1.19247006 -1.02338796 1.19247006 0 0 Z " fill="#E5E8EC" transform="translate(148,288)"/>
<path d="M0 0 C0 0.99 0 1.98 0 3 C-1.98 3.66 -3.96 4.32 -6 5 C-6.33 4.01 -6.66 3.02 -7 2 C-4 0 -4 0 0 0 Z " fill="#183257" transform="translate(130,268)"/>
<path d="M0 0 C2.64 0 5.28 0 8 0 C7.67 0.99 7.34 1.98 7 3 C5.02 3 3.04 3 1 3 C0.67 2.01 0.34 1.02 0 0 Z " fill="#2C4265" transform="translate(360,221)"/>
<path d="M0 0 C2.64 0 5.28 0 8 0 C7.67 0.99 7.34 1.98 7 3 C5.02 3 3.04 3 1 3 C0.67 2.01 0.34 1.02 0 0 Z " fill="#2B4164" transform="translate(95,221)"/>
<path d="M0 0 C0.33 1.32 0.66 2.64 1 4 C0.01 4.33 -0.98 4.66 -2 5 C-2 6.65 -2 8.3 -2 10 C-2.33 10 -2.66 10 -3 10 C-3.36923077 3.47692308 -3.36923077 3.47692308 -1.5 1.0625 C-1.005 0.711875 -0.51 0.36125 0 0 Z " fill="#394E6E" transform="translate(242,273)"/>
<path d="M0 0 C0.66 0.33 1.32 0.66 2 1 C0.37660195 2.70884005 -1.29319053 4.37446717 -3 6 C-3.66 6 -4.32 6 -5 6 C-3.63016497 2.83884224 -3.0109362 2.0072908 0 0 Z " fill="#122B52" transform="translate(246,268)"/>
<path d="M0 0 C0.66 0.33 1.32 0.66 2 1 C1.34 2.98 0.68 4.96 0 7 C-0.99 7 -1.98 7 -3 7 C-2.25 2.25 -2.25 2.25 0 0 Z " fill="#284063" transform="translate(137,269)"/>
<path d="M0 0 C1.15941038 3.47823115 0.70820884 5.45895578 0 9 C-1.5625 7.25 -1.5625 7.25 -3 5 C-2.8125 2.8125 -2.8125 2.8125 -2 1 C-1.34 0.67 -0.68 0.34 0 0 Z " fill="#294063" transform="translate(267,272)"/>
</svg>
