<?xml version="1.0" encoding="UTF-8" standalone="no" ?>
<!DOCTYPE svg PUBLIC "-//W3C//DTD SVG 1.1//EN" "http://www.w3.org/Graphics/SVG/1.1/DTD/svg11.dtd">
<svg xmlns="http://www.w3.org/2000/svg" xmlns:xlink="http://www.w3.org/1999/xlink" version="1.1" width="1080" height="1080" viewBox="0 0 1080 1080" xml:space="preserve">
<desc>Created with Fabric.js 5.2.4</desc>
<defs>
</defs>
<g transform="matrix(1 0 0 1 540 540)" id="e6c0ab92-aaf4-4ec8-be9c-9c5967e98220"  >
<rect style="stroke: none; stroke-width: 1; stroke-dasharray: none; stroke-linecap: butt; stroke-dashoffset: 0; stroke-linejoin: miter; stroke-miterlimit: 4; fill: rgb(255,255,255); fill-rule: nonzero; opacity: 1;" vector-effect="non-scaling-stroke"  x="-540" y="-540" rx="0" ry="0" width="1080" height="1080" />
</g>
<g transform="matrix(1 0 0 1 540 540)" id="082d2d65-decf-4870-8ac8-2ed2b867217f"  >
</g>
<g transform="matrix(0.66 0 0 0.66 540.33 572.04)"  >
<g style="" vector-effect="non-scaling-stroke"   >
		<g transform="matrix(0.13 0 0 -0.13 -161.1 -206.72)"  >
<path style="stroke: none; stroke-width: 1; stroke-dasharray: none; stroke-linecap: butt; stroke-dashoffset: 0; stroke-linejoin: miter; stroke-miterlimit: 4; fill: rgb(0,0,0); fill-rule: nonzero; opacity: 1;" vector-effect="non-scaling-stroke"  transform=" translate(-5829.5, -8430)" d="M 5040 10661 C 5040 10656 5010 10649 4973 10645 C 4935 10642 4892 10635 4875 10630 C 4859 10625 4818 10614 4785 10604 C 4416 10499 4110 10242 3942 9897 C 3852 9713 3812 9586 3785 9406 C 3781 9385 3776 9371 3772 9375 C 3768 9379 3763 9655 3760 9988 L 3755 10595 L 3436 10598 C 3209 10600 3113 10597 3104 10589 C 3092 10579 3090 10413 3090 9587 C 3090 8920 3086 8576 3079 8531 C 3064 8439 3038 8340 3028 8334 C 3024 8331 3020 8322 3020 8314 C 3020 8292 2947 8197 2903 8163 C 2849 8121 2783 8091 2693 8069 C 2583 8042 2345 8042 2241 8070 C 2137 8097 2048 8143 1990 8201 C 1937 8254 1878 8363 1858 8446 C 1849 8482 1845 8783 1841 9545 L 1835 10595 L 1520 10598 C 1347 10599 1195 10598 1182 10595 L 1159 10589 L 1162 9537 C 1166 8576 1168 8478 1184 8405 C 1218 8252 1237 8187 1276 8102 C 1289 8073 1300 8047 1300 8043 C 1300 8040 1325 8001 1355 7956 C 1496 7748 1706 7607 1985 7535 C 2133 7496 2216 7488 2450 7488 C 2724 7488 2807 7498 3010 7558 C 3040 7567 3069 7578 3075 7582 C 3080 7586 3090 7590 3098 7590 C 3110 7590 3194 7629 3250 7661 C 3306 7693 3419 7782 3461 7827 C 3521 7892 3593 7994 3629 8066 C 3703 8217 3759 8453 3761 8631 C 3762 8677 3766 8729 3769 8745 C 3776 8773 3777 8772 3784 8725 C 3798 8627 3850 8443 3885 8365 C 3940 8243 3957 8210 4003 8137 C 4031 8092 4057 8053 4060 8050 C 4063 8047 4091 8013 4122 7974 C 4271 7790 4474 7652 4730 7561 C 4903 7500 5151 7473 5385 7490 C 5514 7499 5676 7531 5745 7560 C 5762 7567 5784 7576 5795 7580 C 5879 7611 6017 7690 6097 7753 C 6131 7779 6163 7800 6168 7800 C 6173 7800 6205 7782 6238 7760 C 6271 7738 6303 7720 6309 7720 C 6315 7720 6331 7714 6343 7706 C 6373 7687 6597 7614 6725 7582 C 6747 7576 6792 7565 6825 7557 C 6858 7548 6912 7536 6945 7529 C 6978 7523 7021 7513 7040 7508 C 7059 7503 7098 7495 7125 7490 C 7153 7485 7204 7474 7240 7465 C 7276 7456 7321 7445 7340 7441 C 7468 7410 7613 7344 7667 7293 C 7729 7234 7745 7191 7744 7084 C 7743 7004 7740 6987 7714 6941 C 7672 6863 7606 6808 7500 6762 C 7392 6716 7158 6691 6997 6709 C 6888 6722 6772 6753 6700 6790 C 6599 6842 6497 6990 6476 7115 C 6474 7132 6467 7157 6461 7173 L 6450 7200 L 6158 7198 L 5865 7195 L 5867 7090 C 5869 6994 5886 6902 5911 6858 C 5916 6848 5920 6835 5920 6828 C 5920 6805 5974 6706 6022 6640 C 6156 6454 6375 6313 6635 6247 C 6798 6206 6939 6190 7145 6190 C 7323 6191 7577 6222 7629 6250 C 7640 6255 7658 6260 7669 6260 C 7681 6260 7698 6264 7708 6270 C 7717 6275 7743 6286 7765 6296 C 7942 6369 8094 6486 8197 6628 C 8266 6721 8330 6857 8330 6909 C 8330 6933 8347 6972 8352 6960 C 8353 6957 8357 6793 8360 6595 L 8365 6235 L 8695 6235 L 9025 6235 L 9028 6862 L 9030 7490 L 9668 7492 L 10305 7495 L 10305 7750 L 10305 8005 L 9670 8010 C 9321 8013 9034 8016 9032 8018 C 9031 8019 9031 8174 9032 8363 L 9035 8705 L 9754 8708 C 10265 8709 10477 8713 10487 8721 C 10497 8730 10500 8787 10500 8990 C 10500 9132 10497 9255 10494 9264 C 10488 9278 10385 9280 9424 9280 L 8360 9280 L 8360 8338 C 8360 7819 8357 7384 8353 7372 C 8346 7343 8330 7362 8330 7400 C 8330 7428 8280 7554 8261 7573 C 8255 7579 8250 7589 8250 7595 C 8250 7601 8242 7615 8232 7626 C 8223 7636 8202 7661 8186 7680 C 8077 7812 7872 7915 7575 7986 C 7542 7994 7497 8006 7475 8012 C 7453 8018 7417 8027 7395 8031 C 7373 8035 7326 8046 7290 8055 C 7254 8064 7207 8075 7185 8080 C 7163 8084 7114 8096 7075 8105 C 7037 8114 6989 8126 6970 8130 C 6951 8135 6917 8143 6895 8149 C 6873 8155 6837 8165 6815 8171 C 6762 8186 6651 8230 6620 8249 C 6515 8314 6467 8443 6502 8564 C 6555 8745 6751 8850 7035 8850 C 7143 8850 7286 8830 7322 8810 C 7332 8804 7347 8800 7355 8800 C 7363 8800 7388 8789 7410 8775 C 7432 8761 7454 8750 7459 8750 C 7483 8750 7581 8637 7610 8576 C 7626 8540 7640 8506 7640 8501 C 7640 8495 7645 8468 7651 8440 L 7662 8390 L 7963 8392 L 8265 8395 L 8263 8430 C 8257 8572 8209 8751 8150 8854 C 8045 9042 7822 9215 7580 9299 C 7396 9363 7157 9389 6927 9371 C 6844 9364 6759 9355 6740 9350 C 6701 9341 6619 9322 6580 9314 C 6566 9311 6546 9305 6535 9300 C 6524 9295 6487 9280 6452 9266 C 6287 9201 6130 9067 6030 8905 C 5977 8820 5920 8672 5920 8621 C 5920 8599 5877 8473 5852 8420 C 5817 8349 5768 8278 5717 8227 C 5666 8177 5554 8100 5531 8100 C 5525 8100 5512 8096 5502 8091 C 5387 8032 5112 8036 4945 8099 C 4895 8118 4830 8153 4819 8167 C 4813 8174 4802 8180 4796 8180 C 4779 8180 4679 8279 4632 8342 C 4548 8455 4473 8634 4454 8765 C 4450 8793 4443 8826 4438 8839 C 4433 8853 4429 8951 4429 9058 C 4429 9360 4471 9529 4608 9776 C 4648 9848 4859 10030 4903 10030 C 4910 10030 4920 10034 4925 10039 C 4936 10049 5014 10073 5083 10089 C 5179 10111 5382 10101 5465 10070 C 5698 9983 5846 9833 5903 9625 L 5917 9575 L 6239 9572 L 6560 9570 L 6560 9602 C 6560 9640 6533 9767 6519 9792 C 6514 9802 6510 9816 6510 9825 C 6510 9833 6503 9856 6494 9877 C 6485 9898 6474 9924 6470 9935 C 6434 10032 6337 10181 6251 10274 C 6204 10323 6066 10440 6054 10440 C 6050 10440 6033 10451 6016 10463 C 5918 10537 5663 10629 5507 10646 C 5475 10650 5447 10657 5444 10661 C 5437 10673 5040 10673 5040 10661 z" stroke-linecap="round" />
</g>
		<g transform="matrix(0.13 0 0 -0.13 177.81 281.93)"  >
<path style="stroke: none; stroke-width: 1; stroke-dasharray: none; stroke-linecap: butt; stroke-dashoffset: 0; stroke-linejoin: miter; stroke-miterlimit: 4; fill: rgb(0,0,0); fill-rule: nonzero; opacity: 1;" vector-effect="non-scaling-stroke"  transform=" translate(-8263.27, -4811.05)" d="M 8210 5214 C 8118 5197 8043 5149 7987 5072 C 7934 4999 7916 4933 7917 4805 C 7917 4705 7919 4689 7947 4623 C 7984 4535 8043 4471 8118 4434 C 8169 4410 8186 4407 8280 4406 C 8368 4406 8392 4410 8426 4428 C 8513 4473 8565 4536 8595 4636 C 8618 4713 8616 4722 8573 4718 C 8539 4715 8536 4712 8523 4666 C 8493 4563 8435 4503 8338 4475 C 8285 4460 8275 4460 8219 4475 C 8185 4483 8139 4504 8117 4520 C 8075 4551 8020 4624 8020 4651 C 8020 4659 8014 4672 8008 4678 C 7999 4687 7995 4728 7995 4808 C 7996 4915 7998 4930 8022 4980 C 8057 5051 8094 5092 8150 5121 C 8204 5149 8304 5158 8364 5140 C 8412 5125 8507 5034 8512 4999 C 8515 4976 8551 4959 8578 4968 C 8595 4974 8593 5020 8573 5057 C 8519 5154 8426 5209 8307 5215 C 8268 5217 8224 5216 8210 5214 z" stroke-linecap="round" />
</g>
		<g transform="matrix(0.13 0 0 -0.13 -726.43 282.22)"  >
<path style="stroke: none; stroke-width: 1; stroke-dasharray: none; stroke-linecap: butt; stroke-dashoffset: 0; stroke-linejoin: miter; stroke-miterlimit: 4; fill: rgb(0,0,0); fill-rule: nonzero; opacity: 1;" vector-effect="non-scaling-stroke"  transform=" translate(-1480.5, -4808.91)" d="M 1177 5203 C 1173 5200 1170 5080 1170 4937 C 1170 4729 1173 4664 1187 4609 C 1207 4525 1249 4471 1324 4433 C 1370 4409 1386 4406 1480 4407 C 1566 4407 1594 4411 1631 4428 C 1688 4455 1732 4499 1762 4559 C 1784 4603 1785 4616 1788 4902 L 1791 5199 L 1766 5206 C 1709 5220 1710 5225 1710 4927 C 1710 4622 1704 4585 1646 4527 C 1614 4495 1526 4460 1478 4460 C 1432 4460 1355 4493 1318 4528 C 1257 4586 1250 4626 1250 4933 C 1250 5165 1248 5199 1234 5204 C 1213 5212 1185 5212 1177 5203 z" stroke-linecap="round" />
</g>
		<g transform="matrix(0.13 0 0 -0.13 -569.6 237.77)"  >
<path style="stroke: none; stroke-width: 1; stroke-dasharray: none; stroke-linecap: butt; stroke-dashoffset: 0; stroke-linejoin: miter; stroke-miterlimit: 4; fill: rgb(0,0,0); fill-rule: nonzero; opacity: 1;" vector-effect="non-scaling-stroke"  transform=" translate(-2650, -5150.82)" d="M 2633 5203 C 2613 5199 2610 5192 2610 5154 C 2610 5116 2614 5108 2635 5098 C 2671 5082 2690 5102 2690 5155 C 2690 5185 2685 5200 2674 5204 C 2665 5207 2658 5209 2657 5209 C 2656 5208 2645 5205 2633 5203 z" stroke-linecap="round" />
</g>
		<g transform="matrix(0.13 0 0 -0.13 -247.66 237.88)"  >
<path style="stroke: none; stroke-width: 1; stroke-dasharray: none; stroke-linecap: butt; stroke-dashoffset: 0; stroke-linejoin: miter; stroke-miterlimit: 4; fill: rgb(0,0,0); fill-rule: nonzero; opacity: 1;" vector-effect="non-scaling-stroke"  transform=" translate(-5064.44, -5150.13)" d="M 5048 5203 C 5034 5200 5030 5188 5030 5150 C 5030 5107 5032 5102 5056 5096 C 5093 5086 5102 5099 5098 5156 C 5095 5206 5087 5214 5048 5203 z" stroke-linecap="round" />
</g>
		<g transform="matrix(0.13 0 0 -0.13 54.01 281.43)"  >
<path style="stroke: none; stroke-width: 1; stroke-dasharray: none; stroke-linecap: butt; stroke-dashoffset: 0; stroke-linejoin: miter; stroke-miterlimit: 4; fill: rgb(0,0,0); fill-rule: nonzero; opacity: 1;" vector-effect="non-scaling-stroke"  transform=" translate(-7329.88, -4815)" d="M 7353 5191 C 7302 5167 7282 5128 7278 5045 C 7275 4990 7273 4985 7253 4987 C 7217 4991 7180 4973 7180 4951 C 7180 4934 7188 4931 7228 4928 L 7275 4925 L 7278 4673 L 7280 4420 L 7314 4420 C 7341 4420 7349 4425 7353 4443 C 7356 4455 7358 4565 7356 4688 C 7354 4929 7355 4933 7407 4930 C 7457 4926 7461 4929 7458 4958 C 7455 4983 7452 4985 7411 4985 C 7375 4985 7366 4989 7359 5008 C 7354 5021 7352 5045 7354 5063 C 7356 5081 7358 5101 7359 5108 C 7360 5123 7404 5142 7445 5144 C 7505 5146 7481 5210 7421 5210 C 7407 5210 7376 5201 7353 5191 z" stroke-linecap="round" />
</g>
		<g transform="matrix(0.13 0 0 -0.13 333.05 281.51)"  >
<path style="stroke: none; stroke-width: 1; stroke-dasharray: none; stroke-linecap: butt; stroke-dashoffset: 0; stroke-linejoin: miter; stroke-miterlimit: 4; fill: rgb(0,0,0); fill-rule: nonzero; opacity: 1;" vector-effect="non-scaling-stroke"  transform=" translate(-9419.68, -4814.38)" d="M 9395 5200 C 9390 5192 9386 4589 9390 4438 C 9390 4425 9398 4420 9420 4420 C 9437 4420 9450 4425 9450 4433 C 9450 4439 9450 4614 9451 4820 C 9451 5171 9450 5195 9433 5201 C 9407 5212 9402 5211 9395 5200 z" stroke-linecap="round" />
</g>
		<g transform="matrix(0.13 0 0 -0.13 367.08 237.76)"  >
<path style="stroke: none; stroke-width: 1; stroke-dasharray: none; stroke-linecap: butt; stroke-dashoffset: 0; stroke-linejoin: miter; stroke-miterlimit: 4; fill: rgb(0,0,0); fill-rule: nonzero; opacity: 1;" vector-effect="non-scaling-stroke"  transform=" translate(-9675.05, -5151)" d="M 9647 5203 C 9636 5193 9639 5102 9650 5095 C 9655 5092 9671 5092 9685 5096 C 9707 5102 9710 5107 9710 5150 C 9710 5191 9707 5199 9688 5204 C 9659 5211 9655 5211 9647 5203 z" stroke-linecap="round" />
</g>
		<g transform="matrix(0.13 0 0 -0.13 407.41 281.58)"  >
<path style="stroke: none; stroke-width: 1; stroke-dasharray: none; stroke-linecap: butt; stroke-dashoffset: 0; stroke-linejoin: miter; stroke-miterlimit: 4; fill: rgb(0,0,0); fill-rule: nonzero; opacity: 1;" vector-effect="non-scaling-stroke"  transform=" translate(-9980.33, -4813.93)" d="M 10029 5201 C 9959 5179 9930 5136 9930 5050 C 9930 4998 9915 4978 9883 4986 C 9861 4992 9827 4965 9833 4946 C 9835 4940 9847 4934 9861 4932 C 9874 4931 9895 4927 9908 4925 L 9930 4920 L 9930 4670 L 9930 4420 L 9965 4420 L 10000 4420 L 10000 4669 L 10000 4918 L 10023 4924 C 10035 4927 10060 4930 10078 4930 C 10105 4930 10110 4933 10110 4955 C 10110 4969 10107 4981 10103 4981 C 10098 4982 10079 4984 10059 4985 C 10006 4989 10000 4996 10000 5048 C 10001 5110 10017 5130 10077 5138 C 10117 5144 10126 5149 10128 5168 C 10133 5202 10085 5218 10029 5201 z" stroke-linecap="round" />
</g>
		<g transform="matrix(0.13 0 0 -0.13 675.8 237.8)"  >
<path style="stroke: none; stroke-width: 1; stroke-dasharray: none; stroke-linecap: butt; stroke-dashoffset: 0; stroke-linejoin: miter; stroke-miterlimit: 4; fill: rgb(0,0,0); fill-rule: nonzero; opacity: 1;" vector-effect="non-scaling-stroke"  transform=" translate(-11990.48, -5150.59)" d="M 11954 5196 C 11951 5189 11950 5163 11952 5139 C 11955 5099 11958 5095 11984 5092 C 12019 5088 12030 5102 12030 5156 C 12030 5185 12025 5200 12014 5204 C 11987 5214 11960 5211 11954 5196 z" stroke-linecap="round" />
</g>
		<g transform="matrix(0.13 0 0 -0.13 -207.01 286.11)"  >
<path style="stroke: none; stroke-width: 1; stroke-dasharray: none; stroke-linecap: butt; stroke-dashoffset: 0; stroke-linejoin: miter; stroke-miterlimit: 4; fill: rgb(0,0,0); fill-rule: nonzero; opacity: 1;" vector-effect="non-scaling-stroke"  transform=" translate(-5371.83, -4780.56)" d="M 5330 5083 C 5330 5045 5326 5010 5322 5003 C 5318 4997 5297 4990 5275 4988 C 5238 4985 5235 4983 5235 4955 C 5235 4934 5239 4926 5250 4928 C 5258 4930 5279 4929 5297 4925 L 5330 4919 L 5330 4690 L 5330 4462 L 5361 4435 C 5388 4413 5400 4409 5449 4412 C 5501 4415 5505 4417 5505 4440 C 5505 4461 5499 4466 5468 4471 C 5399 4482 5400 4479 5400 4711 L 5400 4920 L 5424 4926 C 5437 4929 5456 4931 5466 4930 C 5505 4926 5511 4930 5508 4958 C 5505 4982 5501 4985 5465 4985 C 5405 4985 5400 4992 5400 5076 L 5400 5150 L 5365 5150 L 5330 5150 L 5330 5083 z" stroke-linecap="round" />
</g>
		<g transform="matrix(0.13 0 0 -0.13 -630.24 295.84)"  >
<path style="stroke: none; stroke-width: 1; stroke-dasharray: none; stroke-linecap: butt; stroke-dashoffset: 0; stroke-linejoin: miter; stroke-miterlimit: 4; fill: rgb(0,0,0); fill-rule: nonzero; opacity: 1;" vector-effect="non-scaling-stroke"  transform=" translate(-2200, -4709.5)" d="M 2128 4980 C 2108 4969 2085 4951 2076 4939 C 2059 4914 2040 4922 2040 4955 C 2040 4986 2028 4993 1996 4980 L 1970 4970 L 1972 4698 L 1975 4425 L 2007 4422 L 2038 4419 L 2042 4612 C 2045 4801 2046 4806 2072 4852 C 2131 4950 2278 4971 2332 4888 C 2358 4847 2362 4818 2369 4620 L 2375 4425 L 2403 4422 L 2430 4419 L 2430 4652 C 2430 4885 2430 4885 2405 4923 C 2368 4977 2316 5000 2233 5000 C 2186 4999 2154 4993 2128 4980 z" stroke-linecap="round" />
</g>
		<g transform="matrix(0.13 0 0 -0.13 -436.09 296.8)"  >
<path style="stroke: none; stroke-width: 1; stroke-dasharray: none; stroke-linecap: butt; stroke-dashoffset: 0; stroke-linejoin: miter; stroke-miterlimit: 4; fill: rgb(0,0,0); fill-rule: nonzero; opacity: 1;" vector-effect="non-scaling-stroke"  transform=" translate(-3656.69, -4702.16)" d="M 3540 4974 C 3486 4943 3467 4924 3440 4873 C 3396 4787 3391 4630 3432 4544 C 3454 4496 3501 4446 3544 4422 C 3590 4397 3745 4399 3785 4425 C 3833 4456 3879 4511 3890 4550 C 3905 4603 3903 4610 3872 4610 C 3851 4610 3840 4603 3830 4583 C 3770 4464 3666 4427 3568 4491 C 3523 4520 3480 4595 3480 4644 L 3480 4680 L 3679 4680 C 3789 4680 3885 4683 3894 4686 C 3913 4693 3915 4745 3897 4810 C 3861 4940 3785 5000 3658 5000 C 3598 5000 3577 4995 3540 4974 z M 3717 4929 C 3762 4912 3808 4860 3826 4807 C 3840 4766 3840 4756 3829 4749 C 3821 4744 3741 4741 3650 4743 L 3485 4745 L 3482 4770 C 3481 4784 3493 4818 3509 4846 C 3555 4924 3640 4959 3717 4929 z" stroke-linecap="round" />
</g>
		<g transform="matrix(0.13 0 0 -0.13 -364.85 295.95)"  >
<path style="stroke: none; stroke-width: 1; stroke-dasharray: none; stroke-linecap: butt; stroke-dashoffset: 0; stroke-linejoin: miter; stroke-miterlimit: 4; fill: rgb(0,0,0); fill-rule: nonzero; opacity: 1;" vector-effect="non-scaling-stroke"  transform=" translate(-4188.08, -4708.77)" d="M 4251 4983 C 4227 4975 4190 4950 4170 4930 C 4149 4909 4129 4894 4126 4898 C 4123 4901 4120 4921 4120 4942 C 4120 4985 4104 4998 4071 4980 C 4050 4969 4050 4964 4052 4697 L 4055 4425 L 4086 4422 C 4127 4418 4129 4426 4126 4610 C 4125 4760 4131 4795 4170 4851 C 4190 4879 4261 4917 4300 4922 C 4321 4925 4325 4930 4325 4960 C 4325 5001 4313 5005 4251 4983 z" stroke-linecap="round" />
</g>
		<g transform="matrix(0.13 0 0 -0.13 -303.18 296.7)"  >
<path style="stroke: none; stroke-width: 1; stroke-dasharray: none; stroke-linecap: butt; stroke-dashoffset: 0; stroke-linejoin: miter; stroke-miterlimit: 4; fill: rgb(0,0,0); fill-rule: nonzero; opacity: 1;" vector-effect="non-scaling-stroke"  transform=" translate(-4652.83, -4702.9)" d="M 4530 4977 C 4450 4938 4420 4858 4454 4777 C 4473 4730 4546 4695 4675 4671 C 4753 4656 4810 4612 4810 4565 C 4810 4488 4660 4431 4577 4478 C 4539 4498 4526 4513 4499 4563 C 4482 4595 4474 4601 4452 4598 C 4428 4595 4425 4591 4428 4560 C 4432 4514 4469 4458 4517 4429 C 4550 4408 4567 4405 4650 4405 C 4732 4405 4751 4409 4789 4430 C 4844 4461 4870 4495 4877 4547 C 4889 4639 4834 4705 4724 4729 C 4570 4763 4510 4797 4510 4850 C 4510 4914 4618 4959 4704 4930 C 4742 4918 4790 4865 4790 4837 C 4790 4815 4848 4813 4856 4835 C 4871 4873 4819 4950 4758 4981 C 4704 5009 4590 5007 4530 4977 z" stroke-linecap="round" />
</g>
		<g transform="matrix(0.13 0 0 -0.13 -14.07 296.73)"  >
<path style="stroke: none; stroke-width: 1; stroke-dasharray: none; stroke-linecap: butt; stroke-dashoffset: 0; stroke-linejoin: miter; stroke-miterlimit: 4; fill: rgb(0,0,0); fill-rule: nonzero; opacity: 1;" vector-effect="non-scaling-stroke"  transform=" translate(-6822.12, -4702.75)" d="M 6710 4982 C 6655 4955 6612 4911 6583 4852 C 6559 4804 6556 4785 6556 4701 C 6556 4618 6560 4597 6583 4549 C 6611 4491 6642 4459 6700 4425 C 6727 4410 6754 4406 6820 4406 C 6892 4406 6912 4410 6950 4431 C 7002 4461 7054 4524 7070 4578 C 7121 4751 7062 4923 6931 4981 C 6875 5005 6760 5006 6710 4982 z M 6882 4930 C 6953 4910 7020 4796 7020 4698 C 7020 4634 6981 4541 6939 4506 C 6885 4461 6816 4449 6754 4475 C 6662 4513 6602 4647 6629 4757 C 6665 4905 6754 4965 6882 4930 z" stroke-linecap="round" />
</g>
		<g transform="matrix(0.13 0 0 -0.13 275.72 296.75)"  >
<path style="stroke: none; stroke-width: 1; stroke-dasharray: none; stroke-linecap: butt; stroke-dashoffset: 0; stroke-linejoin: miter; stroke-miterlimit: 4; fill: rgb(0,0,0); fill-rule: nonzero; opacity: 1;" vector-effect="non-scaling-stroke"  transform=" translate(-8995.52, -4702.5)" d="M 8848 4973 C 8771 4930 8729 4815 8790 4815 C 8809 4815 8819 4824 8833 4855 C 8860 4913 8891 4932 8969 4937 C 9042 4941 9072 4931 9101 4890 C 9131 4847 9133 4814 9107 4785 C 9087 4762 9071 4756 8985 4744 C 8867 4728 8845 4723 8805 4703 C 8762 4681 8740 4647 8734 4592 C 8726 4527 8747 4474 8793 4436 C 8828 4408 8836 4406 8918 4405 C 8992 4405 9010 4408 9043 4428 C 9063 4441 9086 4461 9094 4472 C 9109 4493 9130 4489 9130 4466 C 9130 4439 9167 4419 9211 4422 C 9248 4424 9256 4429 9258 4448 C 9261 4466 9255 4473 9231 4481 L 9200 4492 L 9200 4669 C 9200 4898 9186 4943 9102 4981 C 9070 4995 9036 5000 8977 5000 C 8907 5000 8888 4996 8848 4973 z M 9122 4693 C 9131 4587 9095 4516 9013 4480 C 8929 4443 8850 4463 8814 4531 C 8801 4557 8800 4570 8809 4599 C 8822 4645 8855 4664 8945 4680 C 8984 4686 9031 4696 9050 4700 C 9106 4713 9120 4711 9122 4693 z" stroke-linecap="round" />
</g>
		<g transform="matrix(0.13 0 0 -0.13 472.3 296.68)"  >
<path style="stroke: none; stroke-width: 1; stroke-dasharray: none; stroke-linecap: butt; stroke-dashoffset: 0; stroke-linejoin: miter; stroke-miterlimit: 4; fill: rgb(0,0,0); fill-rule: nonzero; opacity: 1;" vector-effect="non-scaling-stroke"  transform=" translate(-10470.06, -4703.13)" d="M 10360 4980 C 10341 4969 10318 4958 10309 4954 C 10282 4944 10235 4870 10215 4806 C 10179 4689 10211 4542 10289 4469 C 10341 4419 10378 4406 10470 4406 C 10541 4406 10562 4410 10599 4430 C 10652 4458 10704 4528 10725 4597 C 10743 4657 10745 4757 10729 4797 C 10685 4906 10658 4940 10579 4980 C 10527 5007 10409 5007 10360 4980 z M 10529 4930 C 10598 4910 10670 4797 10670 4708 C 10670 4661 10645 4580 10617 4539 C 10568 4467 10468 4440 10392 4479 C 10352 4500 10325 4528 10298 4579 C 10272 4627 10273 4777 10299 4828 C 10347 4920 10432 4958 10529 4930 z" stroke-linecap="round" />
</g>
		<g transform="matrix(0.13 0 0 -0.13 547.98 295.95)"  >
<path style="stroke: none; stroke-width: 1; stroke-dasharray: none; stroke-linecap: butt; stroke-dashoffset: 0; stroke-linejoin: miter; stroke-miterlimit: 4; fill: rgb(0,0,0); fill-rule: nonzero; opacity: 1;" vector-effect="non-scaling-stroke"  transform=" translate(-11034.25, -4708.73)" d="M 11090 4983 C 11065 4975 11027 4951 11005 4931 L 10965 4895 L 10962 4932 C 10959 4972 10939 4995 10915 4986 C 10902 4981 10900 4941 10900 4700 L 10900 4419 L 10928 4422 L 10955 4425 L 10961 4607 C 10966 4781 10967 4790 10992 4828 C 11023 4874 11079 4911 11129 4919 C 11160 4924 11166 4930 11168 4954 C 11170 4970 11166 4986 11158 4991 C 11142 5002 11144 5002 11090 4983 z" stroke-linecap="round" />
</g>
		<g transform="matrix(0.13 0 0 -0.13 615.1 295.91)"  >
<path style="stroke: none; stroke-width: 1; stroke-dasharray: none; stroke-linecap: butt; stroke-dashoffset: 0; stroke-linejoin: miter; stroke-miterlimit: 4; fill: rgb(0,0,0); fill-rule: nonzero; opacity: 1;" vector-effect="non-scaling-stroke"  transform=" translate(-11540, -4709.02)" d="M 11472 4985 C 11460 4978 11439 4963 11426 4951 C 11398 4925 11380 4924 11380 4950 C 11380 4972 11346 4994 11324 4986 C 11312 4982 11310 4933 11310 4700 L 11310 4419 L 11343 4422 L 11375 4425 L 11380 4620 C 11384 4779 11388 4821 11402 4846 C 11456 4945 11582 4971 11657 4898 L 11690 4866 L 11690 4659 C 11690 4545 11693 4445 11696 4436 C 11700 4426 11714 4420 11736 4420 L 11770 4420 L 11770 4640 C 11770 4841 11768 4864 11750 4898 C 11722 4950 11710 4964 11671 4983 C 11630 5003 11507 5005 11472 4985 z" stroke-linecap="round" />
</g>
		<g transform="matrix(0.13 0 0 -0.13 734.92 296.82)"  >
<path style="stroke: none; stroke-width: 1; stroke-dasharray: none; stroke-linecap: butt; stroke-dashoffset: 0; stroke-linejoin: miter; stroke-miterlimit: 4; fill: rgb(0,0,0); fill-rule: nonzero; opacity: 1;" vector-effect="non-scaling-stroke"  transform=" translate(-12439.37, -4702.02)" d="M 12313 4984 C 12295 4977 12266 4955 12247 4936 C 12198 4888 12187 4810 12229 4810 C 12254 4810 12267 4822 12283 4862 C 12291 4882 12310 4906 12323 4915 C 12357 4937 12448 4945 12493 4931 C 12532 4918 12570 4868 12570 4831 C 12570 4776 12536 4756 12420 4744 C 12314 4734 12253 4713 12215 4673 C 12182 4639 12180 4634 12180 4566 C 12181 4508 12185 4490 12203 4469 C 12247 4416 12277 4405 12371 4405 C 12463 4406 12492 4417 12536 4467 L 12557 4491 L 12584 4456 C 12607 4426 12617 4420 12649 4420 C 12706 4420 12718 4471 12664 4484 L 12640 4490 L 12640 4683 C 12640 4864 12638 4877 12617 4915 C 12582 4978 12532 5000 12430 4999 C 12380 4999 12332 4993 12313 4984 z M 12568 4634 C 12562 4568 12525 4515 12459 4483 C 12346 4427 12234 4488 12254 4595 C 12264 4647 12330 4678 12470 4694 C 12500 4698 12532 4705 12540 4710 C 12563 4724 12573 4695 12568 4634 z" stroke-linecap="round" />
</g>
		<g transform="matrix(0.13 0 0 -0.13 -569.67 296.5)"  >
<path style="stroke: none; stroke-width: 1; stroke-dasharray: none; stroke-linecap: butt; stroke-dashoffset: 0; stroke-linejoin: miter; stroke-miterlimit: 4; fill: rgb(0,0,0); fill-rule: nonzero; opacity: 1;" vector-effect="non-scaling-stroke"  transform=" translate(-2649.43, -4704.74)" d="M 2633 4980 L 2610 4971 L 2610 4708 C 2610 4563 2614 4439 2619 4432 C 2624 4424 2640 4420 2656 4422 L 2685 4425 L 2688 4694 C 2691 4995 2689 5003 2633 4980 z" stroke-linecap="round" />
</g>
		<g transform="matrix(0.13 0 0 -0.13 -515.54 296.46)"  >
<path style="stroke: none; stroke-width: 1; stroke-dasharray: none; stroke-linecap: butt; stroke-dashoffset: 0; stroke-linejoin: miter; stroke-miterlimit: 4; fill: rgb(0,0,0); fill-rule: nonzero; opacity: 1;" vector-effect="non-scaling-stroke"  transform=" translate(-3060.59, -4705)" d="M 2817 4978 C 2815 4971 2822 4943 2833 4915 C 2844 4888 2863 4838 2876 4805 C 2888 4772 2910 4716 2924 4680 C 2937 4644 2960 4584 2975 4545 C 3021 4419 3021 4420 3060 4420 C 3101 4420 3120 4434 3120 4465 C 3120 4477 3124 4490 3129 4496 C 3134 4501 3147 4532 3158 4565 C 3169 4599 3184 4639 3191 4655 C 3197 4672 3206 4694 3210 4705 C 3214 4716 3225 4742 3234 4763 C 3243 4784 3250 4807 3250 4815 C 3250 4824 3254 4838 3260 4848 C 3270 4867 3295 4926 3303 4952 C 3311 4974 3286 4993 3260 4985 C 3238 4978 3200 4905 3200 4871 C 3200 4862 3196 4850 3191 4844 C 3187 4839 3175 4810 3166 4780 C 3151 4731 3141 4704 3110 4625 C 3105 4614 3099 4594 3096 4580 C 3084 4524 3040 4501 3040 4551 C 3040 4561 3036 4578 3031 4588 C 3026 4597 3014 4628 3005 4655 C 2996 4683 2985 4714 2980 4725 C 2975 4736 2959 4781 2945 4825 C 2897 4967 2883 4990 2851 4990 C 2835 4990 2820 4984 2817 4978 z" stroke-linecap="round" />
</g>
		<g transform="matrix(0.13 0 0 -0.13 -247.59 296.62)"  >
<path style="stroke: none; stroke-width: 1; stroke-dasharray: none; stroke-linecap: butt; stroke-dashoffset: 0; stroke-linejoin: miter; stroke-miterlimit: 4; fill: rgb(0,0,0); fill-rule: nonzero; opacity: 1;" vector-effect="non-scaling-stroke"  transform=" translate(-5065, -4703.84)" d="M 5048 4983 C 5031 4979 5030 4957 5030 4699 L 5030 4420 L 5065 4420 L 5100 4420 L 5098 4702 C 5095 5003 5096 4996 5048 4983 z" stroke-linecap="round" />
</g>
		<g transform="matrix(0.13 0 0 -0.13 -143.14 310.11)"  >
<path style="stroke: none; stroke-width: 1; stroke-dasharray: none; stroke-linecap: butt; stroke-dashoffset: 0; stroke-linejoin: miter; stroke-miterlimit: 4; fill: rgb(0,0,0); fill-rule: nonzero; opacity: 1;" vector-effect="non-scaling-stroke"  transform=" translate(-5853.51, -4600.03)" d="M 5613 4974 C 5607 4959 5650 4845 5750 4605 C 5797 4494 5820 4433 5820 4419 C 5820 4400 5786 4323 5766 4297 C 5758 4286 5732 4276 5703 4272 C 5660 4266 5655 4262 5655 4240 C 5655 4216 5658 4215 5716 4212 C 5773 4209 5780 4211 5806 4238 C 5822 4254 5843 4289 5853 4316 C 5874 4371 5882 4392 5900 4435 C 5906 4452 5919 4485 5927 4510 C 5935 4535 5948 4569 5955 4585 C 5962 4602 5980 4649 5995 4690 C 6010 4731 6028 4779 6035 4795 C 6078 4897 6101 4973 6093 4981 C 6079 4995 6029 4981 6023 4961 C 6021 4952 6014 4937 6009 4928 C 6004 4918 6000 4902 6000 4892 C 6000 4882 5993 4865 5985 4854 C 5977 4844 5970 4825 5970 4813 C 5970 4801 5966 4788 5960 4785 C 5955 4782 5950 4772 5950 4763 C 5950 4755 5943 4734 5936 4717 C 5928 4699 5913 4660 5902 4629 C 5892 4597 5877 4561 5868 4549 C 5852 4526 5852 4526 5845 4545 C 5836 4573 5790 4691 5779 4715 C 5771 4733 5757 4769 5700 4925 C 5683 4970 5665 4987 5632 4989 C 5625 4990 5617 4983 5613 4974 z" stroke-linecap="round" />
</g>
		<g transform="matrix(0.13 0 0 -0.13 367.08 296.52)"  >
<path style="stroke: none; stroke-width: 1; stroke-dasharray: none; stroke-linecap: butt; stroke-dashoffset: 0; stroke-linejoin: miter; stroke-miterlimit: 4; fill: rgb(0,0,0); fill-rule: nonzero; opacity: 1;" vector-effect="non-scaling-stroke"  transform=" translate(-9675, -4704.57)" d="M 9647 4983 C 9643 4980 9640 4851 9640 4698 L 9640 4420 L 9675 4420 L 9710 4420 L 9710 4699 L 9710 4978 L 9688 4984 C 9659 4991 9655 4991 9647 4983 z" stroke-linecap="round" />
</g>
		<g transform="matrix(0.13 0 0 -0.13 675.85 296.4)"  >
<path style="stroke: none; stroke-width: 1; stroke-dasharray: none; stroke-linecap: butt; stroke-dashoffset: 0; stroke-linejoin: miter; stroke-miterlimit: 4; fill: rgb(0,0,0); fill-rule: nonzero; opacity: 1;" vector-effect="non-scaling-stroke"  transform=" translate(-11990.87, -4705.5)" d="M 11955 4977 C 11952 4970 11951 4843 11952 4695 L 11955 4425 L 11984 4422 C 12000 4420 12016 4424 12021 4432 C 12035 4454 12032 4964 12018 4978 C 12002 4994 11961 4993 11955 4977 z" stroke-linecap="round" />
</g>
		<g transform="matrix(0.13 0 0 -0.13 -730.32 441.96)"  >
<path style="stroke: none; stroke-width: 1; stroke-dasharray: none; stroke-linecap: butt; stroke-dashoffset: 0; stroke-linejoin: miter; stroke-miterlimit: 4; fill: rgb(0,0,0); fill-rule: nonzero; opacity: 1;" vector-effect="non-scaling-stroke"  transform=" translate(-1451.32, -3610.71)" d="M 1350 4009 C 1230 3974 1170 3903 1170 3796 C 1170 3670 1221 3632 1470 3574 C 1570 3551 1626 3524 1656 3485 C 1718 3404 1657 3302 1527 3271 C 1447 3252 1312 3283 1272 3330 C 1248 3359 1220 3420 1220 3445 C 1220 3467 1216 3470 1186 3470 C 1147 3470 1138 3455 1146 3407 C 1159 3330 1204 3270 1277 3233 C 1330 3207 1340 3205 1459 3205 C 1595 3206 1628 3215 1690 3266 C 1752 3319 1777 3426 1746 3501 C 1720 3562 1659 3604 1560 3630 C 1535 3636 1502 3645 1485 3650 C 1469 3655 1438 3662 1418 3665 C 1354 3677 1309 3696 1279 3724 C 1234 3767 1240 3853 1290 3902 C 1340 3950 1454 3964 1532 3933 C 1588 3911 1622 3876 1645 3818 C 1661 3774 1665 3770 1696 3770 C 1727 3770 1730 3773 1730 3800 C 1730 3876 1656 3966 1567 3998 C 1514 4016 1396 4023 1350 4009 z" stroke-linecap="round" />
</g>
		<g transform="matrix(0.13 0 0 -0.13 -417.18 442.53)"  >
<path style="stroke: none; stroke-width: 1; stroke-dasharray: none; stroke-linecap: butt; stroke-dashoffset: 0; stroke-linejoin: miter; stroke-miterlimit: 4; fill: rgb(0,0,0); fill-rule: nonzero; opacity: 1;" vector-effect="non-scaling-stroke"  transform=" translate(-3798.31, -3606.85)" d="M 3555 3988 C 3552 3981 3551 3804 3552 3595 L 3555 3215 L 3590 3215 L 3625 3215 L 3630 3400 L 3635 3585 L 3810 3588 C 3906 3589 3988 3594 3993 3599 C 3998 3604 3999 3617 3995 3629 C 3989 3649 3981 3650 3812 3652 L 3635 3655 L 3635 3790 L 3635 3925 L 3840 3930 L 4045 3935 L 4045 3965 L 4045 3995 L 3802 3998 C 3613 4000 3558 3998 3555 3988 z" stroke-linecap="round" />
</g>
		<g transform="matrix(0.13 0 0 -0.13 -56.92 398.56)"  >
<path style="stroke: none; stroke-width: 1; stroke-dasharray: none; stroke-linecap: butt; stroke-dashoffset: 0; stroke-linejoin: miter; stroke-miterlimit: 4; fill: rgb(0,0,0); fill-rule: nonzero; opacity: 1;" vector-effect="non-scaling-stroke"  transform=" translate(-6495, -3945)" d="M 6460 3945 L 6460 3890 L 6495 3890 L 6530 3890 L 6530 3945 L 6530 4000 L 6495 4000 L 6460 4000 L 6460 3945 z" stroke-linecap="round" />
</g>
		<g transform="matrix(0.13 0 0 -0.13 -637.27 457.22)"  >
<path style="stroke: none; stroke-width: 1; stroke-dasharray: none; stroke-linecap: butt; stroke-dashoffset: 0; stroke-linejoin: miter; stroke-miterlimit: 4; fill: rgb(0,0,0); fill-rule: nonzero; opacity: 1;" vector-effect="non-scaling-stroke"  transform=" translate(-2147.92, -3499.01)" d="M 2030 3785 C 1949 3756 1884 3652 1923 3613 C 1943 3593 1978 3612 1986 3648 C 1995 3684 2018 3709 2059 3726 C 2149 3764 2261 3722 2275 3644 C 2287 3579 2233 3543 2121 3541 C 2046 3539 1961 3510 1924 3473 C 1891 3441 1890 3436 1890 3365 C 1890 3291 1891 3289 1929 3251 C 1962 3218 1977 3211 2024 3205 C 2121 3193 2189 3210 2236 3258 C 2263 3286 2274 3286 2289 3256 C 2314 3210 2393 3193 2403 3231 C 2411 3261 2402 3278 2377 3282 C 2356 3285 2355 3290 2350 3480 C 2344 3711 2335 3739 2261 3778 C 2221 3800 2084 3803 2030 3785 z M 2278 3481 C 2294 3368 2201 3260 2088 3260 C 2012 3260 1960 3306 1960 3372 C 1960 3400 1967 3416 1986 3433 C 2020 3463 2104 3489 2165 3490 C 2193 3490 2222 3495 2230 3500 C 2253 3516 2275 3507 2278 3481 z" stroke-linecap="round" />
</g>
		<g transform="matrix(0.13 0 0 -0.13 -554.59 456.48)"  >
<path style="stroke: none; stroke-width: 1; stroke-dasharray: none; stroke-linecap: butt; stroke-dashoffset: 0; stroke-linejoin: miter; stroke-miterlimit: 4; fill: rgb(0,0,0); fill-rule: nonzero; opacity: 1;" vector-effect="non-scaling-stroke"  transform=" translate(-2767.4, -3504.64)" d="M 2725 3793 C 2701 3787 2648 3751 2637 3733 C 2624 3712 2612 3718 2608 3748 C 2605 3772 2601 3775 2570 3775 L 2535 3775 L 2535 3495 L 2535 3215 L 2570 3215 L 2605 3215 L 2610 3415 C 2613 3525 2619 3624 2624 3635 C 2649 3691 2722 3740 2780 3740 C 2825 3740 2879 3712 2900 3677 C 2918 3648 2920 3626 2920 3439 C 2920 3222 2923 3210 2967 3210 C 2999 3210 3003 3248 2998 3478 C 2992 3684 2986 3713 2941 3754 C 2900 3791 2794 3810 2725 3793 z" stroke-linecap="round" />
</g>
		<g transform="matrix(0.13 0 0 -0.13 -283.03 457)"  >
<path style="stroke: none; stroke-width: 1; stroke-dasharray: none; stroke-linecap: butt; stroke-dashoffset: 0; stroke-linejoin: miter; stroke-miterlimit: 4; fill: rgb(0,0,0); fill-rule: nonzero; opacity: 1;" vector-effect="non-scaling-stroke"  transform=" translate(-4804.94, -3500.7)" d="M 4715 3794 C 4704 3791 4691 3784 4686 3779 C 4680 3774 4670 3770 4662 3770 C 4614 3770 4540 3613 4585 3609 C 4593 3608 4605 3607 4612 3606 C 4619 3605 4636 3628 4650 3655 C 4681 3715 4722 3739 4795 3739 C 4899 3740 4963 3661 4921 3583 C 4910 3562 4833 3540 4772 3540 C 4718 3540 4622 3508 4591 3480 C 4518 3414 4526 3294 4607 3233 C 4640 3207 4651 3205 4729 3205 C 4825 3205 4874 3222 4910 3267 C 4927 3289 4933 3292 4940 3280 C 4946 3272 4950 3260 4950 3254 C 4950 3234 5000 3209 5033 3212 C 5061 3215 5065 3219 5068 3248 C 5071 3276 5068 3280 5046 3280 C 5032 3280 5018 3285 5015 3290 C 5011 3296 5007 3388 5006 3493 C 5004 3663 5001 3690 4984 3718 C 4953 3771 4907 3792 4815 3796 C 4771 3797 4726 3796 4715 3794 z M 4928 3459 C 4933 3391 4922 3355 4886 3320 C 4823 3258 4721 3242 4665 3284 C 4602 3332 4597 3406 4655 3444 C 4685 3464 4885 3511 4915 3505 C 4921 3504 4926 3484 4928 3459 z" stroke-linecap="round" />
</g>
		<g transform="matrix(0.13 0 0 -0.13 -199.23 456.42)"  >
<path style="stroke: none; stroke-width: 1; stroke-dasharray: none; stroke-linecap: butt; stroke-dashoffset: 0; stroke-linejoin: miter; stroke-miterlimit: 4; fill: rgb(0,0,0); fill-rule: nonzero; opacity: 1;" vector-effect="non-scaling-stroke"  transform=" translate(-5432.5, -3505.08)" d="M 5385 3793 C 5362 3787 5322 3762 5298 3738 C 5273 3713 5262 3716 5258 3748 C 5256 3769 5250 3775 5230 3775 L 5205 3775 L 5205 3495 L 5205 3215 L 5230 3215 L 5255 3215 L 5261 3395 C 5268 3604 5272 3626 5312 3674 C 5386 3764 5517 3760 5567 3668 C 5582 3640 5585 3603 5588 3423 C 5592 3211 5592 3210 5614 3210 C 5657 3210 5660 3223 5660 3428 C 5660 3651 5648 3713 5599 3754 C 5552 3794 5457 3811 5385 3793 z" stroke-linecap="round" />
</g>
		<g transform="matrix(0.13 0 0 -0.13 -115.44 457.02)"  >
<path style="stroke: none; stroke-width: 1; stroke-dasharray: none; stroke-linecap: butt; stroke-dashoffset: 0; stroke-linejoin: miter; stroke-miterlimit: 4; fill: rgb(0,0,0); fill-rule: nonzero; opacity: 1;" vector-effect="non-scaling-stroke"  transform=" translate(-6061.38, -3500.61)" d="M 5977 3783 C 5944 3772 5916 3752 5889 3721 C 5826 3650 5817 3621 5816 3495 C 5816 3374 5828 3341 5893 3272 C 5943 3219 5983 3205 6080 3205 C 6158 3205 6168 3207 6206 3235 C 6255 3270 6287 3314 6301 3364 C 6313 3407 6307 3420 6276 3420 C 6249 3420 6235 3406 6227 3370 C 6219 3338 6174 3289 6137 3273 C 6100 3256 6035 3257 6002 3274 C 5967 3292 5927 3336 5904 3380 C 5877 3433 5879 3571 5908 3626 C 5960 3723 6054 3762 6143 3725 C 6177 3711 6230 3649 6230 3624 C 6230 3612 6279 3598 6292 3607 C 6304 3614 6301 3658 6288 3683 C 6267 3720 6227 3760 6195 3776 C 6149 3800 6034 3803 5977 3783 z" stroke-linecap="round" />
</g>
		<g transform="matrix(0.13 0 0 -0.13 -0.93 456.84)"  >
<path style="stroke: none; stroke-width: 1; stroke-dasharray: none; stroke-linecap: butt; stroke-dashoffset: 0; stroke-linejoin: miter; stroke-miterlimit: 4; fill: rgb(0,0,0); fill-rule: nonzero; opacity: 1;" vector-effect="non-scaling-stroke"  transform=" translate(-6919.78, -3501.87)" d="M 6845 3793 C 6786 3780 6712 3721 6709 3687 C 6709 3680 6707 3662 6705 3645 C 6701 3609 6718 3560 6740 3542 C 6767 3519 6834 3493 6910 3475 C 7033 3445 7069 3421 7070 3364 C 7070 3333 7038 3294 6993 3271 C 6962 3255 6878 3257 6842 3275 C 6804 3295 6760 3345 6760 3370 C 6760 3392 6725 3414 6704 3406 C 6683 3398 6687 3337 6711 3295 C 6723 3275 6751 3246 6774 3232 C 6811 3208 6824 3205 6910 3205 C 7039 3205 7101 3236 7135 3317 C 7155 3364 7154 3383 7131 3428 C 7103 3483 7071 3505 6994 3524 C 6857 3559 6821 3572 6796 3597 C 6766 3627 6764 3640 6785 3680 C 6813 3734 6902 3755 6973 3725 C 7010 3710 7050 3663 7050 3636 C 7050 3624 7060 3620 7085 3620 C 7116 3620 7120 3623 7120 3645 C 7120 3703 7060 3771 6992 3790 C 6955 3800 6883 3802 6845 3793 z" stroke-linecap="round" />
</g>
		<g transform="matrix(0.13 0 0 -0.13 78.67 456.99)"  >
<path style="stroke: none; stroke-width: 1; stroke-dasharray: none; stroke-linecap: butt; stroke-dashoffset: 0; stroke-linejoin: miter; stroke-miterlimit: 4; fill: rgb(0,0,0); fill-rule: nonzero; opacity: 1;" vector-effect="non-scaling-stroke"  transform=" translate(-7517.34, -3500.74)" d="M 7465 3793 C 7402 3779 7334 3726 7303 3665 C 7255 3574 7258 3407 7308 3325 C 7356 3249 7410 3214 7498 3205 C 7617 3192 7693 3230 7742 3327 C 7777 3398 7774 3420 7731 3420 C 7706 3420 7699 3415 7694 3393 C 7677 3323 7602 3260 7534 3260 C 7445 3260 7378 3322 7346 3434 C 7330 3489 7330 3497 7345 3561 C 7380 3701 7491 3772 7604 3725 C 7637 3711 7690 3647 7690 3620 C 7690 3610 7694 3609 7733 3607 C 7749 3606 7756 3612 7758 3629 C 7760 3642 7757 3657 7751 3663 C 7745 3669 7740 3681 7740 3690 C 7740 3714 7681 3765 7632 3784 C 7592 3799 7511 3804 7465 3793 z" stroke-linecap="round" />
</g>
		<g transform="matrix(0.13 0 0 -0.13 164.39 457.23)"  >
<path style="stroke: none; stroke-width: 1; stroke-dasharray: none; stroke-linecap: butt; stroke-dashoffset: 0; stroke-linejoin: miter; stroke-miterlimit: 4; fill: rgb(0,0,0); fill-rule: nonzero; opacity: 1;" vector-effect="non-scaling-stroke"  transform=" translate(-8160.58, -3498.97)" d="M 8057 3783 C 7998 3761 7944 3710 7917 3650 C 7885 3583 7886 3414 7917 3348 C 7957 3265 8027 3214 8115 3204 C 8267 3186 8369 3255 8415 3406 C 8439 3487 8429 3586 8387 3665 C 8370 3697 8309 3757 8271 3778 C 8231 3801 8112 3803 8057 3783 z M 8223 3725 C 8352 3671 8396 3452 8302 3335 C 8215 3226 8069 3238 7995 3359 C 7969 3400 7966 3414 7966 3495 C 7966 3564 7970 3593 7984 3620 C 8009 3667 8060 3720 8081 3720 C 8091 3720 8102 3725 8105 3730 C 8114 3745 8183 3742 8223 3725 z" stroke-linecap="round" />
</g>
		<g transform="matrix(0.13 0 0 -0.13 -347.33 457.11)"  >
<path style="stroke: none; stroke-width: 1; stroke-dasharray: none; stroke-linecap: butt; stroke-dashoffset: 0; stroke-linejoin: miter; stroke-miterlimit: 4; fill: rgb(0,0,0); fill-rule: nonzero; opacity: 1;" vector-effect="non-scaling-stroke"  transform=" translate(-4319.53, -3500.1)" d="M 4354 3775 C 4337 3767 4308 3747 4290 3729 C 4265 3703 4256 3699 4249 3711 C 4244 3719 4242 3731 4245 3739 C 4248 3746 4245 3759 4239 3766 C 4223 3785 4180 3784 4180 3765 C 4180 3757 4180 3638 4180 3500 C 4180 3363 4180 3241 4180 3229 C 4180 3212 4185 3209 4213 3212 L 4245 3215 L 4250 3400 C 4254 3546 4258 3591 4272 3615 C 4302 3670 4357 3709 4420 3719 C 4451 3725 4455 3729 4458 3758 C 4461 3789 4460 3790 4423 3789 C 4402 3789 4371 3782 4354 3775 z" stroke-linecap="round" />
</g>
		<g transform="matrix(0.13 0 0 -0.13 -56.81 457.87)"  >
<path style="stroke: none; stroke-width: 1; stroke-dasharray: none; stroke-linecap: butt; stroke-dashoffset: 0; stroke-linejoin: miter; stroke-miterlimit: 4; fill: rgb(0,0,0); fill-rule: nonzero; opacity: 1;" vector-effect="non-scaling-stroke"  transform=" translate(-6495.81, -3494.5)" d="M 6465 3767 C 6462 3760 6461 3633 6462 3485 L 6465 3215 L 6498 3212 L 6530 3209 L 6530 3494 L 6530 3780 L 6500 3780 C 6483 3780 6467 3774 6465 3767 z" stroke-linecap="round" />
</g>
</g>
</g>
</svg>