<svg xmlns="http://www.w3.org/2000/svg" viewBox="0 0 452 292"><path fill="#fbfbfb" stroke="#fbfbfb" d="M144.782 1.553C125.731 6.171 109.985 22.403 104.576 43c-1.379 5.252-1.447 4.452-1.51-17.779L103 1.942l-13.25.279L76.5 2.5l-.5 43c-.55 47.303-.417 46.307-6.935 51.792-7.461 6.278-26.186 6.052-33.54-.405-6.914-6.069-6.991-6.629-7.326-53.137L27.899 2H1v39.912c0 50.555 1.017 56.702 11.36 68.687 12.61 14.612 46.103 18.691 68.229 8.309 13.19-6.188 22.267-21.279 22.477-37.368l.066-5.04 1.476 5.5c4.322 16.098 15.137 29.855 28.922 36.789 17.445 8.775 43.038 7.573 57.736-2.713l5.234-3.663 5.502 2.833c3.028 1.558 12.245 4.432 20.5 6.391 30.461 7.228 35.498 9.728 35.498 17.615 0 9.455-7.906 14.248-23.5 14.248-16.193 0-23.46-4.316-25.187-14.959l-.575-3.541H183.725l.652 5.75c2.427 21.396 21.198 34.21 50.123 34.218 22.005.006 37.143-7.562 44.473-22.23l3.027-6.057V173h27v-49h49v-21h-49V77h57V54h-84v73.393l-2.567-5.152c-5.126-10.285-12.368-14.374-34.957-19.734-24.105-5.72-29.246-7.445-32.021-10.743-3.577-4.251-3.349-9.676.595-14.168 10.615-12.089 40.95-5.207 40.95 9.29 0 2.04.44 2.114 12.628 2.114h12.628l-.669-4.25c-3.516-22.358-20.514-34.794-47.473-34.733-23.363.054-39.879 10.698-44.196 28.483-3.845 15.843-12.158 23.047-26.418 22.892-17.308-.187-27.772-10.83-30.649-31.171-3.862-27.308 9.283-47.272 31.077-47.199C173.163 23.063 186 32.504 186 41.46c0 1.31 1.999 1.54 13.371 1.54h13.371l-.81-4.25c-5.456-28.631-34.994-44.993-67.15-37.197M272 213.762c-10.436 5.623-10.169 24.608.417 29.632 6.725 3.191 13.998 1.254 17.623-4.693 2.544-4.172 2.529-6.701-.04-6.701-1.281 0-2 .667-2 1.854 0 6.087-9.899 9.373-15.341 5.092-8.503-6.688-4.269-22.946 5.975-22.946 4.396 0 9.366 3.16 9.366 5.955 0 .575.9 1.045 2 1.045 2.949 0 2.447-2.542-1.312-6.643-4.182-4.564-11.051-5.631-16.688-2.595M2 225.484c0 12.381.024 12.512 2.918 15.75C7.615 244.253 8.302 244.5 14 244.5s6.385-.247 9.082-3.266c2.894-3.238 2.918-3.369 2.918-15.75 0-9.933-.281-12.484-1.377-12.484-1.068 0-1.472 2.677-1.803 11.954C22.313 239.186 21.355 241 14.345 241 6.932 241 6 239.212 6 225c0-11.333-.111-12-2-12-1.893 0-2 .667-2 12.484m56-9.984c0 1.833.533 2.5 2 2.5s2-.667 2-2.5-.533-2.5-2-2.5-2 .667-2 2.5m94 0c0 1.833.533 2.5 2 2.5s2-.667 2-2.5-.533-2.5-2-2.5-2 .667-2 2.5m89.2-1.3c-.66.66-1.2 2.46-1.2 4 0 2.133-.476 2.8-2 2.8-1.111 0-2 .667-2 1.5s.889 1.5 2 1.5c1.867 0 2 .667 2 10 0 8.222.267 10 1.5 10s1.5-1.778 1.5-10v-10h2.5c1.556 0 2.5-.567 2.5-1.5 0-.944-.952-1.5-2.57-1.5-3.419 0-3.132-4.329.32-4.82 1.238-.175 2.25-.963 2.25-1.75 0-1.771-5.087-1.943-6.8-.23m80.8 14.3c0 13.111.231 15.5 1.5 15.5s1.5-2.389 1.5-15.5-.231-15.5-1.5-15.5-1.5 2.389-1.5 15.5m9-13c0 1.833.533 2.5 2 2.5s2-.667 2-2.5-.533-2.5-2-2.5-2 .667-2 2.5m13.2-1.3c-.66.66-1.2 2.46-1.2 4 0 2.133-.476 2.8-2 2.8-1.111 0-2 .667-2 1.5s.889 1.5 2 1.5c1.867 0 2 .667 2 10s.133 10 2 10 2-.667 2-10 .133-10 2-10c1.111 0 2-.667 2-1.5s-.889-1.5-2-1.5c-1.467 0-2-.667-2-2.5s.533-2.5 2-2.5c1.111 0 2-.667 2-1.5 0-1.837-5.041-2.059-6.8-.3m77.8 1.3c0 1.556.567 2.5 1.5 2.5s1.5-.944 1.5-2.5-.567-2.5-1.5-2.5-1.5.944-1.5 2.5M163 218c0 2-.5 3-1.5 3-.825 0-1.5.675-1.5 1.5s.675 1.5 1.5 1.5c1.209 0 1.5 1.563 1.5 8.066 0 9.961.915 11.934 5.535 11.934 2.413 0 3.465-.455 3.465-1.5 0-.933-.944-1.5-2.5-1.5-2.471 0-2.5-.1-2.5-8.5s.029-8.5 2.5-8.5c1.556 0 2.5-.567 2.5-1.5s-.944-1.5-2.5-1.5c-2.111 0-2.5-.467-2.5-3 0-2.333-.444-3-2-3s-2 .667-2 3m-121.5 2.815c-1.1.215-2.788 1.09-3.75 1.943-1.587 1.407-1.75 1.398-1.75-.103 0-.91-.675-1.655-1.5-1.655-1.246 0-1.5 1.944-1.5 11.5 0 9.167.283 11.5 1.394 11.5 1.044 0 1.484-1.982 1.753-7.898.407-8.974 2.21-12.102 6.973-12.102 3.893 0 4.88 2.413 4.88 11.934 0 7.523.141 8.066 2.097 8.066 2.004 0 2.081-.412 1.75-9.397-.437-11.848-2.977-15.232-10.347-13.788m262.272-.001c-2.777.32-6.772 4.344-6.772 6.821 0 2.227 3.444 1.552 4.513-.885 1.576-3.593 8.868-3.281 9.294.398.287 2.48-.015 2.693-4.732 3.342-9.415 1.295-13.316 7.815-7.44 12.437 3.116 2.451 6.381 2.633 10.358.577 1.825-.944 3.121-1.129 3.509-.5.993 1.606 5.498 1.193 5.498-.504 0-.825-.675-1.5-1.5-1.5-1.205 0-1.5-1.531-1.5-7.777 0-10.923-2.277-13.44-11.228-12.409m58.228-.016c-10.234 1.545-11.728 19.172-1.968 23.215 10.452 4.33 19.279-8.431 12.979-18.763-1.09-1.787-2.104-3.25-2.253-3.25-.149 0-1.618-.355-3.265-.79-1.646-.434-4.118-.62-5.493-.412m41.084.809c-1.71.719-3.084.872-3.084.345 0-.524-.675-.952-1.5-.952-1.246 0-1.5 1.944-1.5 11.5 0 9.18.282 11.5 1.397 11.5 1.061 0 1.483-2.068 1.75-8.581.39-9.479 1.591-11.419 7.069-11.419 3.702 0 4.784 2.842 4.784 12.565 0 5.942.301 7.435 1.5 7.435 2.392 0 2.167-19.109-.25-21.214-2.523-2.198-6.614-2.673-10.166-1.179m34.688-.798c-2.778.325-6.772 4.352-6.772 6.826 0 2.227 3.444 1.552 4.513-.885 1.406-3.204 7.886-3.742 9.468-.786 1.601 2.992.593 3.891-5.223 4.662-8.813 1.17-12.324 6.899-7.303 11.919 2.85 2.851 7.927 3.276 11.257.944 1.365-.956 2.386-1.139 2.781-.5 1 1.617 5.507 1.217 5.507-.489 0-.825-.675-1.5-1.5-1.5-1.214 0-1.5-1.594-1.5-8.345 0-10.576-2.206-12.904-11.228-11.846M58 232.5c0 10.833.116 11.5 2 11.5s2-.667 2-11.5-.116-11.5-2-11.5-2 .667-2 11.5m8.97-6.321c8.389 22.379 8.931 22.664 14.497 7.618 2.095-5.663 4.02-10.859 4.278-11.547.279-.743-.353-1.25-1.56-1.25-1.464 0-2.368 1.047-3.242 3.75-.666 2.063-2.114 6.194-3.217 9.181l-2.005 5.432-3.213-8.932c-2.568-7.14-3.646-8.995-5.373-9.252l-2.16-.321 1.995 5.321m25.18-2.839c-4.637 4.936-4.735 14.519-.195 19.06 4.784 4.784 17.045 1.219 17.045-4.956 0-2.226-3.78-1.714-4.518.613C102.59 244.018 92 241.042 92 234.55c0-.303 3.884-.55 8.632-.55h8.631l-.549-4.098c-1.131-8.433-11.097-12.381-16.564-6.562M114 232.5c0 10.833.116 11.5 2 11.5 1.83 0 2-.667 2-7.845 0-8.293 1.072-10.503 5.489-11.313 1.093-.201 2.139-1.147 2.323-2.103.433-2.25-3.483-2.358-6.589-.182-2.012 1.409-2.223 1.409-2.223 0 0-.856-.675-1.557-1.5-1.557-1.246 0-1.5 1.944-1.5 11.5m17.223-9.943c-5.194 3.637-2.144 9.279 6.277 11.615 3.874 1.075 5.072 1.887 5.319 3.606.677 4.7-9.306 4.899-10.532.21-.616-2.353-4.287-2.705-4.287-.411 0 3.848 5.806 7.705 10.758 7.147 11.534-1.3 11.1-10.795-.654-14.286-4.436-1.317-5.181-1.883-4.916-3.735.536-3.752 8.105-3.514 9.099.286.688 2.63 3.713 2.639 3.713.011 0-5.255-9.528-8.12-14.777-4.443M152 232.5c0 10.833.116 11.5 2 11.5s2-.667 2-11.5-.116-11.5-2-11.5-2 .667-2 11.5m22-10.995c0 .278 1.842 4.891 4.093 10.25 5.272 12.551 5.213 17.245-.215 17.245-1.035 0-1.878.701-1.878 1.56 0 1.191.884 1.487 3.73 1.25 3.65-.303 3.793-.472 6.612-7.81 8.502-22.134 8.755-23 6.734-23-1.432 0-2.524 1.825-4.636 7.75-3.744 10.501-3.704 10.497-7.364.799-2.511-6.653-3.654-8.549-5.151-8.549-1.059 0-1.925.227-1.925.505m40.607 2.383c-7.968 8.317-1.259 22.77 9.622 20.729 7.25-1.36 11.152-11.111 7.372-18.422-3.185-6.159-12.139-7.375-16.994-2.307M331 232.5c0 10.833.116 11.5 2 11.5s2-.667 2-11.5-.116-11.5-2-11.5-2 .667-2 11.5m49 0c0 10.833.116 11.5 2 11.5 1.822 0 2-.667 2-7.5 0-8.097 1.776-11.5 6-11.5 1.333 0 2-.667 2-2 0-2.435-2.645-2.638-5.777-.443-2.012 1.409-2.223 1.409-2.223 0 0-.89-.857-1.557-2-1.557-1.884 0-2 .667-2 11.5m42 0c0 9.556.254 11.5 1.5 11.5s1.5-1.944 1.5-11.5c0-9.556-.254-11.5-1.5-11.5s-1.5 1.944-1.5 11.5m-327.193-6.75c-3.789 4.412-3.195 5.25 3.724 5.25 5.621 0 6.469-.242 6.469-1.845 0-4.453-7.221-6.866-10.193-3.405m122.266.885c-5.256 6.681.182 17.12 7.474 14.347 3.038-1.155 4.453-3.929 4.453-8.728 0-7.593-7.57-11.159-11.927-5.619m142.594-.819c-3.939 4.352-2.865 12.862 1.897 15.031 5.819 2.651 11.345-3.969 9.349-11.2-1.529-5.536-7.777-7.665-11.246-3.831M304 234.306c-4.151 1.416-5.281 4.938-2.126 6.626 3.861 2.067 9.08-1.189 9.111-5.682.017-2.567-1.588-2.784-6.985-.944m135.413-.363c-4.309 1.03-5.413 1.875-5.413 4.141 0 4.792 9.155 4.268 11.018-.631 1.799-4.733 1.167-5.129-5.605-3.51M5.856 260.516c-3.542 1.925-5.263 6.864-3.599 10.326 1.429 2.973 3.851 4.329 12.243 6.853 4.875 1.467 6.062 2.242 6.33 4.137 1.114 7.867-14.27 8.521-16.235.691-.424-1.69-1.323-2.523-2.722-2.523-4.761 0 .274 9.391 5.868 10.945C17.407 293.629 25 289.914 25 282.5c0-5.482-1.689-6.759-13.142-9.93-6.219-1.723-7.694-3.645-5.438-7.088 2.956-4.511 10.863-3.741 13.067 1.272 1.121 2.549 4.513 3.06 4.513.68 0-6.649-10.952-10.825-18.144-6.918M94 275.5c0 14.833.086 15.5 2 15.5 1.808 0 2-.667 2-6.956v-6.956l7.239-.294c5.961-.242 7.299-.603 7.574-2.044.294-1.542-.566-1.75-7.24-1.75H98v-10h8.5c6.889 0 8.5-.284 8.5-1.5 0-1.238-1.833-1.5-10.5-1.5H94v15.5m114-13c0 1.556.567 2.5 1.5 2.5s1.5-.944 1.5-2.5-.567-2.5-1.5-2.5-1.5.944-1.5 2.5m-172.643 5.445c-2.369 1.008-5.357 4.788-5.357 6.778 0 2.16 3.466 1.413 4.513-.973 1.279-2.914 7.299-3.727 9.124-1.232 2.006 2.743.519 4.273-4.873 5.015-5.449.749-9.764 3.931-9.764 7.199 0 5.478 7.198 8.768 12.822 5.86 1.921-.994 3.294-1.213 3.68-.588.947 1.532 5.498 1.203 5.498-.397 0-.766-.675-1.652-1.5-1.969-1.158-.444-1.5-2.373-1.5-8.452 0-6.432-.344-8.187-1.876-9.574-2.271-2.055-7.831-2.916-10.767-1.667m25.393.587c-1.567.873-2.75 1.088-2.75.5 0-.568-.675-1.032-1.5-1.032-1.246 0-1.5 1.944-1.5 11.5 0 9.556.254 11.5 1.5 11.5 1.192 0 1.5-1.452 1.5-7.066 0-9.663 1.801-12.888 7.215-12.919 3.788-.021 4.785 2.461 4.785 11.919 0 7.523.141 8.066 2.097 8.066 3.063 0 2.553-17.798-.6-20.95-2.74-2.737-7.383-3.393-10.747-1.518m77.65-.152c-4.494 2.025-6.256 7.62-2.4 7.62 1.327 0 2-.667 2-1.981 0-4.214 9.316-4.11 9.805.109.289 2.494.017 2.664-5.333 3.332-3.473.434-6.373 1.441-7.554 2.622-6.514 6.514 3.993 15.709 11.344 9.927 2.137-1.681 2.62-1.759 3.103-.5.749 1.951 4.635 1.944 4.635-.009 0-.825-.45-1.5-1-1.5-.582 0-1-3.296-1-7.889 0-11.337-4.967-15.622-13.6-11.731m26.35.026c-1.512.811-2.75 1.052-2.75.535 0-.518-.9-.941-2-.941-1.884 0-2 .667-2 11.5s.116 11.5 2 11.5c1.829 0 2-.667 2-7.777 0-9.808 1.509-12.474 6.806-12.028 4.337.366 4.947 1.87 5.094 12.555.079 5.733.414 7.25 1.6 7.25 2.366 0 2.15-17.995-.25-20.886-2.317-2.791-7.048-3.561-10.5-1.708m23.571.207c-5.716 2.819-7.813 10.44-4.686 17.03 3.765 7.934 14.212 8.414 17.817.817 1.982-4.177 1.953-4.46-.452-4.46-1.1 0-2 .605-2 1.345 0 5.451-9.1 6.196-11.85.971-4.444-8.443 5.005-18.02 10.671-10.816 1.72 2.186 5.179 3.489 5.179 1.95 0-2.243-3.483-6.423-6.119-7.342-4.078-1.421-4.732-1.383-8.56.505m33.904-.938c-2.862.592-5.481 4.489-5.052 7.517.33 2.329 4.08 4.686 10.327 6.49 2.292.662 3 1.45 3 3.342 0 3.842-7.949 4.28-9.656.533-1.521-3.338-5.292-3.607-4.307-.307 2.647 8.862 18.463 8.515 18.463-.405 0-3.23-3.09-6.845-5.851-6.845-7.812 0-11.416-6.187-3.964-6.806 2.884-.24 3.923.14 4.785 1.75 1.368 2.557 4.03 2.696 4.03.211 0-3.837-6.069-6.662-11.775-5.48m23.09.75c-8.301 3.712-8.414 17.887-.177 22.147 5.604 2.897 12.664-.261 14.13-6.322.827-3.416-2.409-2.868-4.471.756-3.781 6.644-11.797 2.879-11.797-5.54 0-7.628 7.854-11.67 11.592-5.966 1.914 2.921 4.408 3.302 4.408.674 0-4.824-8.123-8.237-13.685-5.749m24.006.188c-11.835 5.837-5.316 25.982 7.383 22.816 10.038-2.502 11.303-19.021 1.762-23.008-4.248-1.775-5.197-1.755-9.145.192M119 279.5c0 9.556.254 11.5 1.5 11.5 1.178 0 1.5-1.384 1.5-6.453 0-8.073 1.386-11.196 5.657-12.74 1.839-.665 3.343-1.793 3.343-2.508 0-1.788-4.078-1.633-6.777.258-2.012 1.409-2.223 1.409-2.223 0 0-.856-.675-1.557-1.5-1.557-1.246 0-1.5 1.944-1.5 11.5m89 0c0 9.556.254 11.5 1.5 11.5s1.5-1.944 1.5-11.5c0-9.556-.254-11.5-1.5-11.5s-1.5 1.944-1.5 11.5m61.073-5.865c-4.709 5.986-1.446 14.316 5.62 14.35 4.109.019 6.307-3.015 6.307-8.708 0-7.779-7.468-11.312-11.927-5.642m-231.25 7.074c-5.963.913-6.354 7.291-.447 7.291 4.023 0 6.316-1.677 7.178-5.25.711-2.948.203-3.102-6.731-2.041m102.365.426c-2.828.815-3.267 1.35-3 3.66.652 5.651 10.812 3.349 10.812-2.45 0-2.611-1.92-2.908-7.812-1.21" fill-rule="evenodd"/><path fill="#f6f7f8" stroke="#f6f7f8" d="M145.725 1.501C124.993 6.757 110.945 21.039 104.907 43l-1.787 6.5-.06-23.25L103 3H77l-.044 35.75c-.061 50.08-.824 54.736-9.836 60.034-6.895 4.053-22.363 4.043-29.274-.02-9.261-5.444-9.3-5.662-9.637-54.014L27.917 3H.817l.463 42.25c.302 27.503.87 43.782 1.628 46.638 5.808 21.893 21.778 32.299 49.592 32.314 30.741.017 47.902-14.037 50.193-41.108l.627-7.406 1.35 5.406c3.79 15.172 16.094 31.218 28.501 37.17 18.559 8.903 41.805 8.015 57.611-2.201l6.137-3.967 4.291 2.338c5.789 3.156 11.577 4.929 29.29 8.971 23.432 5.347 27.5 7.778 27.5 16.435 0 9.572-9.29 14.586-25.934 13.998-13.51-.477-20.748-4.875-22.678-13.779-.305-1.407-.728-3.121-.94-3.809-.281-.91-3.682-1.25-12.51-1.25h-12.126l.72 5.23c2.923 21.256 18.771 33.13 45.968 34.442 24.37 1.176 43.243-7.953 49.362-23.879l2.034-5.293.052 13.75L282 173h26v-49h50v-21h-50V77.031l28.75-.266 28.75-.265.283-11.25.283-11.25H282l-.076 37.25c-.061 29.721-.313 36.606-1.25 34.066-4.499-12.202-12.885-17.067-41.03-23.803-27.052-6.475-29.941-8.083-29.823-16.602.12-8.686 7.077-13.294 20.179-13.365 14.071-.076 22.196 4.577 23.628 13.531l.628 3.923h24.835l-.62-3.75c-3.801-22.998-19.632-34.692-46.971-34.696-25.162-.005-38.535 8.851-44.909 29.737-5.716 18.729-19.66 26.145-36.978 19.665-27.137-10.153-27.922-63.126-1.113-75.084 14.071-6.276 32.261.46 36.816 13.633l1.382 3.995 12.651.28 12.651.28v-2.374c0-2.747-3.001-11.853-5.497-16.68-4.332-8.378-15.349-17.288-26.084-21.098-7.823-2.776-26.334-3.527-34.694-1.407M274 213.121c-13.145 5.226-12.406 27.269 1.036 30.889 8.123 2.187 16.964-3.534 16.964-10.978 0-2.431-3.093-.746-4.408 2.402-5.408 12.944-21.619 4.446-19.259-10.096 1.681-10.363 13.658-13.824 18.458-5.334 1.876 3.318 4.919 3.638 4.369.46-1.051-6.067-10.356-10.048-17.16-7.343M2.004 224.75c.003 9.887.313 12.257 1.954 14.949 3.752 6.154 15.36 6.527 19.988.642 2.631-3.344 3.19-27.341.638-27.341-1.124 0-1.485 2.469-1.75 11.975-.393 14.093-1.672 16.48-8.834 16.48-7.153 0-8.437-2.391-8.855-16.483C4.866 215.569 4.49 213 3.395 213c-1.114 0-1.394 2.365-1.391 11.75M58 215.5c0 1.556.567 2.5 1.5 2.5s1.5-.944 1.5-2.5-.567-2.5-1.5-2.5-1.5.944-1.5 2.5m94 0c0 1.556.567 2.5 1.5 2.5s1.5-.944 1.5-2.5-.567-2.5-1.5-2.5-1.5.944-1.5 2.5m89.2-1.3c-.66.66-1.2 2.46-1.2 4 0 2.133-.476 2.8-2 2.8-1.111 0-2 .667-2 1.5s.889 1.5 2 1.5c1.867 0 2 .667 2 10 0 8.222.267 10 1.5 10s1.5-1.778 1.5-10c0-9.333.133-10 2-10 1.111 0 2-.667 2-1.5 0-.85-.897-1.5-2.07-1.5-2.995 0-2.249-4.384.82-4.82 1.238-.175 2.25-.963 2.25-1.75 0-1.771-5.087-1.943-6.8-.23m80.8 14.3c0 13.111.231 15.5 1.5 15.5s1.5-2.389 1.5-15.5-.231-15.5-1.5-15.5-1.5 2.389-1.5 15.5m10-13c0 1.556.567 2.5 1.5 2.5s1.5-.944 1.5-2.5-.567-2.5-1.5-2.5-1.5.944-1.5 2.5m12.571-.929c-.864.865-1.571 2.612-1.571 3.884 0 1.471-.728 2.502-2 2.835-1.1.287-2 1.015-2 1.616 0 .602.9 1.094 2 1.094 1.867 0 2 .667 2 10 0 8.222.267 10 1.5 10s1.5-1.778 1.5-10v-10h2.583c3.166 0 2.774-2.351-.471-2.827-3.056-.449-2.533-4.542.638-4.993 1.238-.175 2.25-.963 2.25-1.75 0-1.94-4.444-1.843-6.429.141M422 215.5c0 1.556.567 2.5 1.5 2.5s1.5-.944 1.5-2.5-.567-2.5-1.5-2.5-1.5.944-1.5 2.5M164 218c0 2.333-.444 3-2 3-1.111 0-2 .667-2 1.5 0 .825.884 1.5 1.964 1.5 1.798 0 1.988.824 2.25 9.75l.286 9.75 3.25.313c2.414.233 3.25-.088 3.25-1.25 0-.896-.853-1.563-2-1.563-1.843 0-2-.667-2-8.5s.157-8.5 2-8.5c1.111 0 2-.667 2-1.5s-.889-1.5-2-1.5c-1.556 0-2-.667-2-3 0-2-.5-3-1.5-3s-1.5 1-1.5 3M33 232.5c0 9.556.254 11.5 1.5 11.5 1.194 0 1.503-1.479 1.515-7.25.018-9.123 1.417-12.142 5.823-12.568 5.348-.517 6.162.929 6.162 10.94 0 7.225.279 8.878 1.5 8.878 1.232 0 1.5-1.761 1.5-9.845C51 222.783 49.984 221 43.5 221c-2.172 0-4.637.719-5.671 1.655-1.702 1.54-1.829 1.54-1.829 0 0-.91-.675-1.655-1.5-1.655-1.246 0-1.5 1.944-1.5 11.5m25 0c0 9.556.254 11.5 1.5 11.5s1.5-1.944 1.5-11.5c0-9.556-.254-11.5-1.5-11.5s-1.5 1.944-1.5 11.5m8.046-10.25c.151 4.062 7.897 21.25 9.578 21.25 1.825 0 9.186-16.454 9.32-20.833.132-4.32-2.691-.343-5.896 8.307-1.898 5.123-3.648 8.688-3.888 7.921C72.145 229.261 68.565 221 67.405 221c-.773 0-1.384.563-1.359 1.25m25.877 1.673c-5.587 5.587-3.427 17.766 3.56 20.071 4.8 1.585 10.039-.169 12.034-4.028 2.63-5.085.801-5.588-3.517-.966-3.402 3.642-6.285 3.806-9.545.545C89.91 235.001 91.001 234 100.5 234c9.536 0 9.996-.484 7.085-7.452-2.661-6.368-10.59-7.697-15.662-2.625M114 232.5c0 9.556.254 11.5 1.5 11.5 1.178 0 1.5-1.384 1.5-6.453 0-7.786 1.317-11.022 5.13-12.601 2.93-1.214 3.972-3.946 1.505-3.946-.751 0-2.551.933-4 2.073L117 225.145v-2.072c0-1.176-.649-2.073-1.5-2.073-1.246 0-1.5 1.944-1.5 11.5m17-9.5c-4.427 4.427-1.836 8.695 6.634 10.926 5.734 1.51 7.091 3.349 4.433 6.007-3.02 3.02-6.484 2.626-9.374-1.066-2.486-3.177-5.112-3.232-3.997-.085 1.878 5.304 7.632 7.361 13.607 4.865 7.454-3.115 5.576-10.517-3.203-12.623-5.904-1.416-7.962-3.28-6.1-5.524 1.873-2.257 7.698-1.933 9 .5 1.201 2.244 4 2.716 4 .674 0-5.012-10.974-7.7-15-3.674m21 9.5c0 9.556.254 11.5 1.5 11.5s1.5-1.944 1.5-11.5c0-9.556-.254-11.5-1.5-11.5s-1.5 1.944-1.5 11.5m23-10.249c0 .78 1.812 5.871 4.026 11.313 4.511 11.086 4.328 15.436-.647 15.436-1.448 0-2.379.587-2.379 1.5 0 2.482 5.691 1.906 7.413-.75C184.94 247.396 194 223.608 194 221.953c0-2.562-2.992-.499-4.057 2.797-.666 2.063-2.106 6.174-3.2 9.136l-1.988 5.386-3.628-8.81c-3.302-8.022-6.127-11.807-6.127-8.211m40.659.803c-5.147 4.048-5.652 13.68-.964 18.368 7.804 7.805 19.524.705 17.97-10.886-1.1-8.2-10.716-12.43-17.006-7.482m83.722.474c-2.545 2.545-2.761 4.512-.575 5.241.65.216 1.623-.768 2.163-2.188 1.321-3.474 8.307-3.802 10.088-.474 1.553 2.902.186 3.997-6.247 5.004-8.035 1.257-10.996 5.968-6.917 11.005 2.375 2.933 8.944 3.246 11.904.568 1.718-1.555 2.028-1.583 2.548-.227.763 1.989 4.655 2.025 4.655.043 0-.825-.45-1.5-1-1.5-.583 0-1-3.333-1-8 0-9.881-1.509-12-8.545-12-3.529 0-5.111.566-7.074 2.528M332 232.5c0 9.556.254 11.5 1.5 11.5s1.5-1.944 1.5-11.5c0-9.556-.254-11.5-1.5-11.5s-1.5 1.944-1.5 11.5m24.923-8.577c-4.037 4.037-4.232 12.368-.396 16.927 8.232 9.783 22.257-.766 17.534-13.189-2.729-7.179-11.733-9.143-17.138-3.738M381 232.5c0 9.556.254 11.5 1.5 11.5 1.196 0 1.5-1.475 1.5-7.277 0-8.072 1.365-11.096 5.477-12.128 2.862-.718 3.459-3.595.746-3.595-.978 0-2.732.669-3.899 1.486-1.876 1.314-2.187 1.314-2.691 0-1.664-4.335-2.633-.648-2.633 10.014m16 0c0 9.556.254 11.5 1.5 11.5 1.205 0 1.5-1.531 1.5-7.777 0-9.481 1.463-12.223 6.522-12.223 4.557 0 5.478 2.007 5.478 11.934 0 6.503.291 8.066 1.5 8.066 2.572 0 2.134-18.366-.5-21-2.478-2.478-8.605-2.668-11.171-.345-1.702 1.54-1.829 1.54-1.829 0 0-.91-.675-1.655-1.5-1.655-1.246 0-1.5 1.944-1.5 11.5m25 0c0 9.556.254 11.5 1.5 11.5s1.5-1.944 1.5-11.5c0-9.556-.254-11.5-1.5-11.5s-1.5 1.944-1.5 11.5m12.223-9.943c-1.266.886-2.223 2.608-2.223 4 0 3.152 1.334 3.108 3.445-.114 1.987-3.032 8.086-3.167 9.931-.221 1.564 2.497-.288 3.905-6.408 4.872-6.858 1.084-8.136 2.288-7.768 7.312.396 5.382 4.011 7.447 9.933 5.672 2.127-.637 3.881-1.703 3.897-2.368.017-.666.489-.423 1.05.54 1.246 2.138 4.92 2.325 4.92.25 0-.825-.45-1.5-1-1.5-.583 0-1-3.333-1-8 0-6.667-.333-8.333-2-10-2.465-2.465-9.541-2.71-12.777-.443M95.4 224.765c-1.09.728-3.4 4.58-3.4 5.669 0 .311 3.136.566 6.969.566 6.206 0 6.9-.191 6.348-1.75-1.591-4.486-6.554-6.73-9.917-4.485M217 226c-3.008 3.008-2.762 10.329.455 13.545 6.965 6.966 15.899-4.252 10.25-12.872-2.203-3.363-7.671-3.707-10.705-.673m142.073.635c-4.269 5.427-1.147 15.365 4.826 15.365 6.401 0 10.282-10.828 5.696-15.895-2.781-3.073-7.891-2.816-10.522.53M441 233.306c-5.255 1.043-7 2.234-7 4.781 0 4.502 7.695 4.834 10.564.455 2.899-4.423 1.643-6.268-3.564-5.236m-137.75.813c-2.437.704-3.25 1.506-3.25 3.21 0 7.02 9.848 5.676 11.566-1.579.731-3.088-1.651-3.556-8.316-1.631M8 259.706c-3.568 1.305-6 4.674-6 8.313 0 4.825 1.959 6.448 10.318 8.547 7.713 1.936 10.663 4.733 8.754 8.299C17.853 290.88 4 288.104 4 281.444 4 280.65 3.325 280 2.5 280c-1.841 0-1.988 4.781-.218 7.087 3.752 4.887 15.456 5.739 20.072 1.461 6.238-5.782 2.554-12.184-8.751-15.205-7.78-2.079-9.597-3.865-7.845-7.711 2.244-4.924 12.267-4.326 14.235.85 1.101 2.895 4.007 3.407 4.007.707 0-5.282-9.661-9.8-16-7.483M94 275.5c0 14.833.086 15.5 2 15.5 1.822 0 2-.667 2-7.5V276h7c5.556 0 7-.31 7-1.5s-1.444-1.5-7-1.5h-7v-10h8c6.444 0 8-.292 8-1.5 0-1.233-1.778-1.5-10-1.5H94v15.5m114-13c0 1.556.567 2.5 1.5 2.5s1.5-.944 1.5-2.5-.567-2.5-1.5-2.5-1.5.944-1.5 2.5m-174.833 7.25c-2.412 2.056-3.199 5.357-1.423 5.978.684.239 1.664-.67 2.177-2.02 1.223-3.217 5.502-4.316 8.685-2.231 4.534 2.971 1.567 6.523-5.449 6.523-6.177 0-9.735 7.279-5.586 11.429 2.416 2.415 8.803 2.389 11.536-.047 1.397-1.246 1.771-1.234 2.872.093 1.623 1.955 4.021 1.97 4.021.025 0-.825-.45-1.5-1-1.5-.581 0-1-3.259-1-7.777C48 270.011 46.693 268 40.054 268c-3.153 0-5.546.608-6.887 1.75M55 279.5c0 9.556.254 11.5 1.5 11.5 1.201 0 1.5-1.507 1.5-7.566 0-8.512.968-11.091 4.696-12.508 5.412-2.058 7.304.816 7.304 11.097 0 7.313.278 8.977 1.5 8.977 1.232 0 1.5-1.761 1.5-9.845C73 269.783 71.984 268 65.5 268c-2.172 0-4.637.719-5.671 1.655-1.702 1.54-1.829 1.54-1.829 0 0-.91-.675-1.655-1.5-1.655-1.246 0-1.5 1.944-1.5 11.5m64 0c0 9.556.254 11.5 1.5 11.5 1.201 0 1.5-1.505 1.5-7.545 0-7.894 2.364-12.455 6.455-12.455.85 0 1.545-.675 1.545-1.5 0-2.156-3.649-1.851-6 .5l-2 2v-2c0-1.111-.667-2-1.5-2-1.246 0-1.5 1.944-1.5 11.5m17.073-8.865c-1.14 1.449-2.073 3.249-2.073 4 0 2.144 2.792 1.595 3.518-.692 1.527-4.812 10.482-4.386 10.482.498 0 2.235-.515 2.558-5.035 3.158-8.763 1.162-12.371 6.209-8.158 11.411 2.207 2.726 9.391 3.026 12.173.508 1.586-1.435 1.835-1.442 2.365-.061.763 1.989 4.655 2.025 4.655.043 0-.825-.404-1.5-.897-1.5-.494 0-1.056-3.861-1.25-8.581-.414-10.063-1.479-11.419-8.972-11.419-3.925 0-5.091.451-6.808 2.635M159 279.5c0 9.556.254 11.5 1.5 11.5 1.215 0 1.5-1.603 1.5-8.427 0-7.914.161-8.554 2.635-10.5 6.11-4.807 9.365-1.183 9.365 10.427 0 6.889.284 8.5 1.5 8.5 2.572 0 2.134-18.366-.5-21-2.182-2.182-7.835-2.694-11.005-.997-1.252.67-2.079.67-2.493 0-1.799-2.91-2.502.042-2.502 10.497m27.669-9.455c-5.275 4.15-5.433 14.01-.301 18.831 5.071 4.764 15.632 1.69 15.632-4.55 0-3.202-1.644-2.915-3.463.603-1.796 3.473-4.319 4.485-7.844 3.144-6.41-2.437-6.504-14.673-.132-17.096 3.149-1.197 7.065.269 7.921 2.966.808 2.546 3.518 2.725 3.518.231 0-5.525-10.098-8.244-15.331-4.129M208 279.5c0 9.556.254 11.5 1.5 11.5s1.5-1.944 1.5-11.5c0-9.556-.254-11.5-1.5-11.5s-1.5 1.944-1.5 11.5m11-9.5c-4.154 4.154-1.268 9.272 5.914 10.485 7.077 1.196 8.855 4.645 3.849 7.468-3.136 1.768-7.653.182-8.48-2.977-.647-2.476-3.283-2.61-3.283-.167 0 6.318 12.725 9.023 16.723 3.555 3.327-4.55.437-8.739-7.356-10.663-5.844-1.442-7.329-4.85-2.976-6.833 2.621-1.195 7.609.874 7.609 3.155 0 .537.675.977 1.5.977 2.124 0 1.86-2.64-.5-5-1.407-1.407-3.333-2-6.5-2s-5.093.593-6.5 2m23.684.588c-6.546 6.547-3.161 19.596 5.316 20.491 5.647.596 11-2.827 11-7.034 0-2.577-2.597-2.694-3.263-.147-.855 3.27-5.392 5.58-8.33 4.242-6.06-2.761-6.226-14.022-.249-16.887 3.3-1.582 7.387-.261 8.324 2.69.726 2.287 3.518 2.836 3.518.692 0-6.383-11.201-9.161-16.316-4.047m24.985-.543c-8.09 6.364-3.794 20.996 6.206 21.134 7.601.105 12.281-6.206 10.73-14.47-1.476-7.868-10.761-11.521-16.936-6.664m3.646.962c-4.429 1.784-5.986 10.796-2.565 14.84 6.197 7.323 15.692-1.067 11.786-10.416-1.124-2.689-5.245-5.918-6.851-5.368-.102.035-1.168.46-2.37.944m-231.172 9.17c-5.046.875-7.143 2.316-7.143 4.91 0 4.415 7.803 4.67 10.635.348 2.775-4.236 1.52-6.126-3.492-5.258m99.885.936c-3.189 1.273-4.119 2.848-2.959 5.015 2.666 4.982 10.875 2.065 10.916-3.878.017-2.51-3.32-2.987-7.957-1.137" fill-rule="evenodd"/><path fill="#dde0e6" stroke="#dde0e6" d="M147.209 1.525c-21.645 4.7-37.812 21.245-42.684 43.684-1.296 5.968-1.37 5.046-1.446-17.959L103 3H77.12l-.317 41.75c-.35 46.151-.501 47.294-6.959 52.727-9.097 7.655-31.431 5.607-37.584-3.446-3.971-5.844-4.249-9.162-4.254-50.781L28 3H1.903l.299 44.25c.295 43.699.328 44.322 2.632 50.032 7.438 18.431 21.3 26.218 46.666 26.218 32.862 0 48.591-12.86 51.206-41.867.403-4.473.882-7.008 1.064-5.633 2.203 16.642 14.946 34.868 29.23 41.808 18.87 9.168 42.538 8.243 58.394-2.282l5.397-3.582 3.355 1.938c4.96 2.865 11.482 4.852 30.047 9.152 23.365 5.413 27.811 8.042 27.803 16.439-.007 8.179-5.355 12.73-17.199 14.637-16.09 2.591-27.962-2.614-31.491-13.808L207.635 135H185v4.462c0 20.508 20.079 34.826 49 34.941 25.166.101 41.587-9.46 47.065-27.403.439-1.44.8 3.542.849 11.75L282 173h26v-49h50v-19.965l-24.75-.268-24.75-.267v-27l28.25-.266 28.25-.265V54h-83l-.033 38.25-.032 38.25-1.889-5.5c-4.114-11.977-11.802-16.312-41.725-23.53-26.426-6.374-31.356-9.736-28.457-19.409 4.979-16.62 39.516-14.22 44.171 3.07L255.077 89H278.28l-.56-5.425c-2.271-22.004-25.085-35.819-53.782-32.568-20.262 2.295-31.779 10.973-36.485 27.493-2.146 7.535-5.558 14.351-8.604 17.188-9.137 8.51-27.492 8.445-37.514-.133-16.415-14.051-16.652-50.696-.426-65.873 14.388-13.459 39.206-8.015 45.117 9.897L187.155 43h25.021l-.71-4.25c-4.542-27.187-33.426-43.92-64.257-37.225M2 223.851c0 16.587 2.264 20.175 12.7 20.127 9.145-.043 11.3-3.744 11.3-19.412 0-9.614-.253-11.566-1.5-11.566-1.242 0-1.5 1.884-1.5 10.953 0 11.902-.916 15.232-4.657 16.937-4.077 1.857-7.313 1.294-10.42-1.813C5.029 236.183 5 236.039 5 224.577 5 214.953 4.747 213 3.5 213c-1.241 0-1.5 1.872-1.5 10.851M58 215c0 1.111.667 2 1.5 2s1.5-.889 1.5-2-.667-2-1.5-2-1.5.889-1.5 2m94 0c0 1.111.667 2 1.5 2s1.5-.889 1.5-2-.667-2-1.5-2-1.5.889-1.5 2m89.571-.429c-.864.865-1.571 2.89-1.571 4.5 0 2.262-.455 2.929-2 2.929-1.1 0-2 .45-2 1s.9 1 2 1c1.867 0 2 .667 2 10 0 8.222.267 10 1.5 10s1.5-1.778 1.5-10c0-9.333.133-10 2-10 1.1 0 2-.45 2-1s-.9-1-2-1c-2.127 0-3.085-5.864-1-6.125.55-.069 1.525-.181 2.167-.25.641-.069 1.354-.687 1.583-1.375.609-1.828-4.284-1.573-6.179.321m29.044.517c-11.263 8.86-5.59 28.896 8.185 28.908 6.968.006 13.2-5.431 13.2-11.516 0-1.741-3.081-.004-3.59 2.023-2.171 8.651-14.687 9.664-18.893 1.53-6.777-13.105 6.369-27.347 16.183-17.533 3.829 3.829 5.3 4.357 5.3 1.901 0-6.33-14.34-10.067-20.385-5.313M322 228.583c0 12.022.286 15.489 1.25 15.168 2.046-.68 2.316-30.751.276-30.751-1.303 0-1.526 2.28-1.526 15.583M332 215c0 1.111.667 2 1.5 2s1.5-.889 1.5-2-.667-2-1.5-2-1.5.889-1.5 2m12.557.223c-.856 1.222-1.557 3.247-1.557 4.5 0 1.357-.606 2.277-1.5 2.277-.825 0-1.5.45-1.5 1s.659 1 1.464 1c1.164 0 1.522 1.978 1.75 9.669.196 6.633.678 9.799 1.536 10.083.945.313 1.25-2.048 1.25-9.669 0-9.416.132-10.083 2-10.083 1.1 0 2-.398 2-.883 0-.486-.9-1.119-2-1.407-1.147-.3-2-1.364-2-2.494 0-2.329 2.467-4.663 3.956-3.743.574.355 1.044-.057 1.044-.914 0-2.405-4.628-1.928-6.443.664M422 215c0 1.111.667 2 1.5 2s1.5-.889 1.5-2-.667-2-1.5-2-1.5.889-1.5 2m-258 3.094c0 2.252-.544 3.235-2 3.616-1.1.288-2 .921-2 1.407 0 .485.9.883 2 .883 1.848 0 2 .667 2 8.8 0 9.379.764 11.2 4.7 11.2 2.828 0 3.034-1.575.3-2.29-1.804-.472-2-1.364-2-9.116 0-7.927.155-8.594 2-8.594 1.1 0 2-.45 2-1s-.9-1-2-1c-1.619 0-2-.667-2-3.5 0-2.444-.452-3.5-1.5-3.5-1.01 0-1.5 1.01-1.5 3.094m-125.777 4.463c-1.246.872-2.223 1.092-2.223.5 0-.581-.69-1.057-1.534-1.057-2.026 0-1.751 21.077.284 21.752.931.309 1.25-1.657 1.25-7.714 0-7.297.251-8.38 2.455-10.583 5.75-5.751 9.724-1.884 10.351 10.073C49.41 247.03 51 246.284 51 234.5c0-8.167-.281-9.781-2-11.5-2.414-2.414-7.656-2.63-10.777-.443m55.137-.097c-4.997 3.501-5.739 14.379-1.302 19.102 4.597 4.893 15.942 2.134 15.942-3.876 0-2.513-1.355-2.049-3.842 1.314-2.905 3.929-7.161 4.083-10.085.365-4.176-5.308-3.095-6.365 6.506-6.365h8.58l-.707-3.217c-1.701-7.746-9.255-11.411-15.092-7.323m28.64-.751c-.825.304-2.287 1.238-3.25 2.076-1.576 1.373-1.75 1.36-1.75-.13 0-.91-.69-1.655-1.534-1.655-2.026 0-1.751 21.077.284 21.752.927.308 1.25-1.557 1.25-7.214 0-7.981 2.346-12.538 6.455-12.538.85 0 1.545-.675 1.545-1.5 0-1.569-.514-1.705-3-.791m9.455 1.746c-1.35 1.35-2.455 3.15-2.455 4 0 1.851 3.491 5.543 5.25 5.551 3.153.014 8.611 2.19 9.175 3.658 1.851 4.823-6.879 7.108-10.837 2.836-2.659-2.869-3.588-3.128-3.588-1 0 4.936 11.695 7.823 15.193 3.75 4.243-4.94 2.667-8.653-4.562-10.755-5.951-1.73-7.99-3.395-7.076-5.778 1.324-3.45 10.445-2.31 10.445 1.306 0 .537.675.977 1.5.977 2.202 0 1.833-1.758-.955-4.545-1.694-1.695-3.566-2.455-6.045-2.455s-4.351.76-6.045 2.455m85.295-1.375c-2.757 1.606-4.75 6.408-4.75 11.447 0 12.564 16.59 14.861 19.931 2.761 2.792-10.113-6.799-19.09-15.181-14.208M300 223c-1.892 1.892-2.74 5-1.365 5 .35 0 1.678-1.125 2.953-2.5 2.781-3.001 5.372-3.171 8.551-.563 3.366 2.762 1.533 5.363-4.376 6.213-7.139 1.026-8.763 2.295-8.763 6.85 0 2.862.526 4.211 1.934 4.965 2.958 1.583 9.629 1.266 11.118-.528 1.177-1.418 1.379-1.418 2.173 0 1.116 1.995 4.775 2.044 4.775.063 0-.825-.45-1.5-1-1.5-.578 0-1-3.182-1-7.545 0-6.678-.282-7.828-2.455-10-3.169-3.17-9.597-3.403-12.545-.455m58.888-.5c-5.718 3.107-6.587 14.782-1.431 19.217 3.9 3.354 10.8 3.188 14.068-.339 8.905-9.608-1.392-24.99-12.637-18.878m28.362-.276c-1.238.595-2.25 1.463-2.25 1.929 0 .466-.45.847-1 .847s-1-.675-1-1.5-.45-1.5-1-1.5c-.606 0-1 4.333-1 11 0 12.581 1.493 14.802 2.23 3.317.511-7.959 3.132-12.317 7.409-12.317.84 0 1.35-.534 1.132-1.187-.556-1.668-1.908-1.844-4.521-.589m14.973.333c-1.246.872-2.223 1.092-2.223.5 0-.581-.675-1.057-1.5-1.057-1.243 0-1.5 1.898-1.5 11.083 0 8.42.3 10.985 1.25 10.671.81-.267 1.426-3.343 1.75-8.731.461-7.673.717-8.481 3.296-10.4 2.581-1.922 3.003-1.966 5.5-.567 2.595 1.454 2.716 1.886 2.992 10.729.227 7.288.593 9.215 1.75 9.215 1.84 0 2.098-15.923.312-19.316-2.138-4.063-7.471-5.039-11.627-2.127m33.277-.362c-3.552 2.014-4.858 5.805-2 5.805.825 0 1.5-.686 1.5-1.525 0-4.172 9.591-3.953 10.644.243.727 2.895-.8 4.244-4.829 4.267-8.188.046-12.984 6.704-8.244 11.444 2.067 2.066 9.748 2.097 11.45.046 1.134-1.367 1.441-1.367 2.951 0 2.149 1.944 4.028 1.956 4.028.025 0-.825-.45-1.5-1-1.5-.583 0-1-3.333-1-8 0-6.667-.333-8.333-2-10-2.246-2.246-8.221-2.664-11.5-.805M58.216 232.669c.198 7.435.663 10.794 1.534 11.083.95.315 1.25-2.247 1.25-10.669 0-9.294-.248-11.083-1.534-11.083-1.3 0-1.49 1.624-1.25 10.669m8.216-9.02c.398 1.018 2.331 6.034 4.295 11.146 4.424 11.513 5.469 11.535 9.769.205 4.709-12.407 4.857-13 3.244-13-.852 0-2.49 3.209-4.212 8.25-3.777 11.055-3.74 11.05-7.212 1.023-2.115-6.106-3.581-8.88-4.823-9.124-1.381-.272-1.621.067-1.061 1.5m85.784 9.02c.198 7.435.663 10.794 1.534 11.083.95.315 1.25-2.247 1.25-10.669 0-9.294-.248-11.083-1.534-11.083-1.3 0-1.49 1.624-1.25 10.669M175 222.48c0 .264 1.829 5.07 4.063 10.679 4.432 11.124 4.51 14.167.409 16.036-3.134 1.428-3.181 2.805-.094 2.805 3.302 0 3.894-.959 8.967-14.521 2.464-6.588 4.792-12.766 5.174-13.729.472-1.189.223-1.75-.778-1.75-.932 0-2.492 2.847-4.248 7.75-3.784 10.567-3.843 10.574-7.516.84-1.894-5.017-3.811-8.59-4.61-8.59-.752 0-1.367.216-1.367.48m157 10.603c0 8.422.3 10.984 1.25 10.669 2.035-.675 2.31-21.752.284-21.752-1.286 0-1.534 1.789-1.534 11.083m90-.083c0 9.111.258 11 1.5 11s1.5-1.889 1.5-11-.258-11-1.5-11-1.5 1.889-1.5 11m-327.45-7.641c-4.454 4.454-3.504 5.641 4.517 5.641 6.863 0 7.048-.065 6.393-2.25-1.648-5.496-7.108-7.193-10.91-3.391m124.106-1.226c-1.014.589-2.484 2.604-3.267 4.478-3.793 9.078 5.36 17.543 11.687 10.808 6.561-6.984-.536-19.869-8.42-15.286m142.659-.126c-7.06 2.845-4.907 17.993 2.558 17.993 7.644 0 10.979-10.302 5.204-16.077-3.074-3.074-4.199-3.351-7.762-1.916m-51.815 8.49c-.55.187-2.682.62-4.738.964-4.79.801-6.709 3.835-4.187 6.622 3.61 3.988 11.425.2 11.425-5.538 0-2.462-.375-2.769-2.5-2.048m133.5.309c-5.855.716-9 2.313-9 4.572 0 4.891 5.112 6.15 9.532 2.348 3.531-3.037 3.197-7.376-.532-6.92M7.329 260.458C3.817 261.986 2 264.64 2 268.243c0 3.96 2.259 5.82 9.513 7.831 8.931 2.477 11.583 4.887 9.48 8.617-3.216 5.705-14.077 5.195-16.327-.766C3.395 280.558 1 280.004 1 283.077 1 287.54 6.241 291 13 291c14.852 0 16.411-13.621 1.941-16.967-9.677-2.238-13.014-6.767-7.718-10.476 4.512-3.161 13.777-.203 13.777 4.398 0 .575.675 1.045 1.5 1.045 3.782 0-.073-6.506-5.099-8.606-4.109-1.717-6.007-1.705-10.072.064M95 275.583c0 12.021.286 15.489 1.25 15.17.806-.266 1.354-2.958 1.544-7.583l.294-7.17h6.956c3.971 0 6.956-.429 6.956-1s-3-1-7-1h-7v-11h8c6.444 0 8-.292 8-1.5 0-1.228-1.722-1.5-9.5-1.5H95v15.583M208 262c0 1.111.667 2 1.5 2s1.5-.889 1.5-2-.667-2-1.5-2-1.5.889-1.5 2m-175 8c-1.892 1.892-2.74 5-1.365 5 .35 0 1.678-1.125 2.953-2.5 2.464-2.659 5.323-3.153 8.478-1.465 4.19 2.243 1.603 6.965-3.816 6.965-7.98 0-12.434 6.809-7.421 11.345 2.339 2.117 9.474 2.2 11.192.13 1.134-1.367 1.441-1.367 2.951 0 2.149 1.944 4.028 1.956 4.028.025 0-.825-.45-1.5-1-1.5-.583 0-1-3.333-1-8 0-9.863-1.514-12-8.5-12-3.167 0-5.093.593-6.5 2m27.223-.443c-1.246.872-2.223 1.092-2.223.5 0-.581-.675-1.057-1.5-1.057-1.242 0-1.5 1.889-1.5 11s.258 11 1.5 11c1.209 0 1.5-1.561 1.5-8.045 0-8.582 2.278-12.977 6.705-12.94 4.025.035 4.779 1.618 5.295 11.116.331 6.105.922 9.35 1.75 9.623 2.369.782 1.679-18.325-.75-20.754-2.414-2.414-7.656-2.63-10.777-.443m64.412.516c-2.184 1.718-2.635 1.803-2.635.5 0-.865-.675-1.573-1.5-1.573-1.242 0-1.5 1.889-1.5 11s.258 11 1.5 11c1.201 0 1.5-1.505 1.5-7.545 0-7.894 2.364-12.455 6.455-12.455.85 0 1.545-.675 1.545-1.5 0-2.107-2.266-1.865-5.365.573m12.712-.604c-2.16 1.514-3.83 5.531-2.299 5.531.474 0 1.986-1.125 3.361-2.5 4.033-4.033 12.048-1.74 10.255 2.933-.575 1.5-1.753 1.903-8.922 3.056-6.364 1.024-8.847 8.779-3.693 11.537 2.638 1.412 8.268 1.194 10.453-.404 1.601-1.171 2.092-1.171 3.263 0 .758.758 2.021 1.378 2.806 1.378 1.894 0 1.839-2.629-.071-3.362-1.158-.444-1.5-2.373-1.5-8.452 0-6.36-.352-8.195-1.829-9.531-2.28-2.063-8.992-2.169-11.824-.186m26.247.281c-1.343 1.282-1.958 1.416-2.297.5-1.401-3.779-2.297.024-2.297 9.75 0 6.667.394 11 1 11 .55 0 1.003-2.587 1.006-5.75.01-10.486 2.438-15.25 7.773-15.25 3.93 0 5.221 3.07 5.221 12.412 0 6.558.314 8.651 1.25 8.341 1.335-.441 2.302-13.419 1.297-17.421-1.308-5.214-9.01-7.344-12.953-3.582m22.786.599c-4.427 3.809-4.742 13.443-.574 17.611 5.223 5.222 16.194 2.909 16.194-3.415 0-2.246-2.675-1.896-3.283.431-1.487 5.683-9.727 4.637-12.318-1.564-3.688-8.825 4.903-17.201 11.192-10.912 2.626 2.626 4.409 3.214 4.409 1.455 0-5.345-10.721-7.819-15.62-3.606m33.843-.792c-2.533 1.774-3.02 6.537-.852 8.336.755.626 3.703 1.831 6.553 2.677 5.838 1.734 7.144 3.593 4.542 6.467-2.706 2.991-6.987 2.529-9.624-1.037-2.529-3.421-3.842-3.822-3.842-1.174 0 3.241 4.208 6.174 8.86 6.174 10.178 0 12.215-10.845 2.361-12.572-7.007-1.228-9.602-3.904-6.65-6.857 2.333-2.332 6.011-1.918 8.25.929 2.135 2.714 4.179 3.289 4.179 1.174 0-4.596-9.178-7.339-13.777-4.117m23.28.693c-9.493 8.19-.588 24.557 10.952 20.129 1.405-.539 4.545-5.257 4.545-6.829 0-1.63-2.841-.195-3.805 1.922-2.354 5.165-10.018 3.754-12.306-2.264-3.26-8.573 5.746-16.942 11.523-10.708 2.397 2.586 4.588 3.28 4.588 1.455 0-5.265-10.718-7.827-15.497-3.705m23.877.099c-4.427 3.809-4.742 13.443-.574 17.611 8.146 8.146 20.736-.533 17.318-11.939-2.307-7.702-10.971-10.637-16.744-5.672M208 280c0 9.111.258 11 1.5 11s1.5-1.889 1.5-11-.258-11-1.5-11-1.5 1.889-1.5 11m62.299-8.497c-3.399 2.381-4.696 7.611-2.933 11.831 2.657 6.359 7.967 7.436 12.15 2.465 6.237-7.412-1.628-19.611-9.217-14.296M39 280.098c-5.569 1.087-7.595 3.367-5.634 6.34C36.473 291.146 45 287.84 45 281.927c0-1.61-.337-2.878-.75-2.817-.413.06-2.775.505-5.25.988m104.143-.022c-6.99 1.374-8.916 4.009-5.314 7.269 2.597 2.35 5.866 2.05 8.716-.8 2.239-2.238 3.49-7.696 1.705-7.435-.412.06-2.71.495-5.107.966" fill-rule="evenodd"/><path fill="#04234c" stroke="#04234c" d="M150.87 1.071C126.877 4.596 109.587 21.721 104.497 47c-1.223 6.072-1.315 4.837-1.403-18.75L103 3H77.1l-.3 42.25c-.327 46.007-.382 46.447-6.48 51.962-8.633 7.807-29.698 6.817-37.219-1.75-4.855-5.53-5.089-7.905-5.095-51.712L28 3H1.885l.349 43.75c.393 49.305.509 50.129 8.526 60.666 16.023 21.062 62.594 22.555 80.551 2.583 7.299-8.118 9.822-14.945 11.274-30.499l.746-8 1.307 7c5.927 31.739 36.477 51.056 69.632 44.031 6.912-1.465 17.375-6.377 20.176-9.472 1.465-1.618 1.944-1.527 7.999 1.521 3.904 1.965 11.881 4.485 20.248 6.399 33.058 7.558 38.32 10.833 35.317 21.985-2.163 8.031-9.681 11.556-24.51 11.494-15.134-.065-21.338-3.763-24.674-14.708l-1.143-3.75H184.72l.58 5.617c2.092 20.268 20.283 32.353 48.7 32.353 25.708 0 41.898-9.345 46.638-26.921 1.12-4.153 1.233-3.22 1.295 10.701L282 173h26v-49h50v-20h-50V76h57V55h-83l-.102 38.25c-.057 21.037-.45 36.9-.874 35.25-3.731-14.513-10.921-19.098-41.566-26.51-27.507-6.653-31.175-8.819-30.17-17.816 1.823-16.321 36.015-18.573 43.616-2.872 1.153 2.381 2.096 5.087 2.096 6.014 0 1.481 1.385 1.684 11.5 1.684H278v-2.684c0-19.629-17.953-34.096-43.533-35.08-26.568-1.022-42.353 8.692-47.366 29.148-4.531 18.488-21.616 27.115-38.88 19.633-24.995-10.833-26.602-60.706-2.396-74.304 14.758-8.29 35.9-1.378 40.256 13.162L187.317 43h24.842l-.65-3.25c-5.526-27.638-29.913-43.193-60.639-38.679M2.179 225.626l.42 12.627 3.216 2.873c4.616 4.125 11.773 4.106 16.419-.042l3.266-2.915.332-12.585c.288-10.947.125-12.584-1.25-12.584-1.355 0-1.582 1.729-1.582 12.045C23 239.34 21.588 242 14 242s-9-2.66-9-16.955C5 214.606 4.784 213 3.379 213c-1.431 0-1.571 1.479-1.2 12.626M59 215c0 1.1.45 2 1 2s1-.9 1-2-.45-2-1-2-1 .9-1 2m94 0c0 1.1.45 2 1 2s1-.9 1-2-.45-2-1-2-1 .9-1 2m89 0c-1.1 1.1-2 3.125-2 4.5 0 1.556-.567 2.5-1.5 2.5-.825 0-1.5.45-1.5 1s.675 1 1.5 1c1.228 0 1.5 1.722 1.5 9.5 0 7.778.272 9.5 1.5 9.5s1.5-1.722 1.5-9.5c0-8.833.14-9.5 2-9.5 1.1 0 2-.45 2-1s-.9-1-2-1c-1.569 0-2-.667-2-3.094 0-2.252.544-3.235 2-3.616 1.1-.288 2-.921 2-1.407 0-1.588-2.955-.928-5 1.117m29.42-.114c-6.224 3.795-8.343 14.425-4.41 22.133 5.232 10.257 20.891 9.1 23.939-1.769 1.286-4.584-1.146-4.36-2.816.26-2.518 6.963-11.172 8.655-16.578 3.24-8.352-8.366-3.451-23.75 7.567-23.75 3.91 0 8.878 3.332 8.878 5.955 0 .575.675 1.045 1.5 1.045 2.41 0 1.748-1.952-1.9-5.6-4.087-4.087-10.913-4.726-16.18-1.514M322 228c0 9.333.378 15 1 15s1-5.667 1-15-.378-15-1-15-1 5.667-1 15m10-13c0 1.1.45 2 1 2s1-.9 1-2-.45-2-1-2-1 .9-1 2m13.75-.92c-1.06.618-1.75 2.219-1.75 4.063 0 2.203-.553 3.189-2 3.567-1.1.288-2 .921-2 1.407 0 .485.9.883 2 .883 1.86 0 2 .667 2 9.5 0 5.667.404 9.5 1 9.5s1-3.833 1-9.5c0-8.833.14-9.5 2-9.5 1.1 0 2-.45 2-1s-.9-1-2-1c-3.238 0-2.801-5.761.5-6.589 1.375-.345 2.5-1.029 2.5-1.519 0-1.191-3.071-1.081-5.25.188M422 215c0 1.111.667 2 1.5 2s1.5-.889 1.5-2-.667-2-1.5-2-1.5.889-1.5 2m-258 3.5c0 2.833-.381 3.5-2 3.5-1.1 0-2 .45-2 1s.9 1 2 1c1.848 0 2 .667 2 8.8 0 5.511.448 9.248 1.2 10 1.451 1.451 5.8 1.601 5.8.2 0-.55-.852-1-1.893-1-2.56 0-3.107-1.865-3.107-10.582 0-7.246.058-7.418 2.5-7.418 3.111 0 3.311-1.746.25-2.18-1.725-.245-2.323-1.079-2.563-3.57-.421-4.363-2.187-4.161-2.187.25m-124.5 3.695c-1.1.624-2.331 1.623-2.735 2.22-.447.661-.74.401-.75-.665-.008-.963-.465-1.75-1.015-1.75-.603 0-1 4.167-1 10.5s.397 10.5 1 10.5c.583 0 1-3.309 1-7.927 0-7.373.184-8.073 2.635-10 6.349-4.995 9.756-1.878 10.218 9.346.465 11.333 2.147 11.062 2.147-.346 0-8.454-.14-9.038-2.635-11-2.925-2.301-5.846-2.59-8.865-.878m53.611 1.365c-5.215 4.388-5.134 15.209.141 18.904 4.702 3.293 14.748.284 14.748-4.419 0-1.673-1.103-1.226-3.588 1.455-4.332 4.675-12.412 2.071-12.412-4 0-2.458.133-2.5 8-2.5h8v-3.077c0-7.452-9.016-11.305-14.889-6.363M133 222.238c-2.853 1.492-3.945 6.733-1.778 8.531.729.605 3.787 1.917 6.797 2.915 3.774 1.252 5.586 2.416 5.836 3.75.884 4.711-8.593 6.422-11.447 2.066-1.782-2.719-3.408-3.28-3.408-1.174 0 2.699 4.505 5.674 8.592 5.674 10.554 0 11.721-10.357 1.408-12.507-5.087-1.061-7-2.304-7-4.55 0-4.305 9.172-5.127 10.501-.941.801 2.526 2.499 2.608 2.499.12 0-3.936-7.35-6.315-12-3.884m82.4 2.162c-3.877 3.877-4.59 9.398-1.89 14.62 4.807 9.294 18.49 5.301 18.49-5.396 0-11.463-9.231-16.593-16.6-9.224m85.35-1.423c-1.512 1.193-2.75 2.81-2.75 3.596 0 2.079.952 1.758 3.179-1.073 3.489-4.435 11.388-2.55 10.666 2.546-.3 2.119-1.048 2.534-5.788 3.213-8.384 1.201-12.008 6.76-7.228 11.086 2.992 2.708 12.171 1.641 12.171-1.415 0-.655-.668-.643-1.934.035-6.263 3.352-13.326-1.907-8.169-6.082 1.278-1.036 3.287-1.889 4.464-1.897 1.176-.007 3.22-.303 4.542-.656 2.3-.616 2.379-.472 1.867 3.348-.639 4.764.561 7.322 3.435 7.322 1.976 0 2.004-.112.45-1.829-1.232-1.361-1.655-3.756-1.655-9.377 0-8.541-.73-9.682-6.711-10.479-2.895-.386-4.438.006-6.539 1.662M361 221.66c-5.521 2.187-8.105 8.71-6.1 15.4 2.226 7.43 10.668 9.526 16.177 4.017 7.973-7.973-.032-23.396-10.077-19.417m43 .049c-.825.304-2.288 1.238-3.25 2.076-1.576 1.373-1.75 1.36-1.75-.13 0-.91-.45-1.655-1-1.655-.603 0-1 4.167-1 10.5s.397 10.5 1 10.5c.553 0 1-2.617 1-5.851 0-9.688 2.479-14.149 7.863-14.149 3.992 0 5.137 2.579 5.137 11.571 0 7.059.26 8.429 1.599 8.429 2.888 0 1.609-17.605-1.46-20.089-2.317-1.875-5.163-2.296-8.139-1.202m32.098.556c-2.78 1.43-4.847 4.319-3.823 5.344.388.387 1.813-.491 3.167-1.952 4.066-4.387 11.132-2.761 10.403 2.393-.3 2.118-1.067 2.55-5.845 3.294-6.416.998-9 2.909-9 6.656 0 5.727 8.065 8.096 13.365 3.927 2.184-1.718 2.635-1.803 2.635-.5 0 .937.859 1.573 2.122 1.573 1.573 0 1.86-.324 1.109-1.25-.558-.687-1.187-4.786-1.398-9.109-.517-10.604-5.073-14.317-12.735-10.376M59 232.5c0 6.333.397 10.5 1 10.5s1-4.167 1-10.5-.397-10.5-1-10.5-1 4.167-1 10.5m7.91-8.25c8.804 23.009 8.711 22.955 14.292 8.245C85.601 220.901 85.339 222 83.706 222c-.739 0-2.476 3.63-4.053 8.474-1.518 4.661-3.148 8.714-3.622 9.007-.474.293-2.311-3.521-4.083-8.474-1.878-5.252-3.78-9.007-4.56-9.007-.976 0-1.106.609-.478 2.25M115 232.5c0 6.333.397 10.5 1 10.5.572 0 1-3.015 1-7.045 0-7.371 2.475-11.955 6.455-11.955.85 0 1.545-.45 1.545-1 0-1.736-3.917-1.083-6 1l-2 2v-2c0-1.1-.45-2-1-2-.603 0-1 4.167-1 10.5m38 0c0 6.333.397 10.5 1 10.5s1-4.167 1-10.5-.397-10.5-1-10.5-1 4.167-1 10.5m22.281-9.25c.272.688 2.188 5.465 4.258 10.617 4.117 10.244 4.05 13.698-.303 15.62-3.922 1.731-1.953 3.493 2.145 1.92 2.3-.882 13.267-29.407 11.307-29.407-.672 0-2.517 3.713-4.1 8.25-3.883 11.131-3.852 11.128-7.674.814-2.015-5.437-3.913-9.064-4.743-9.064-.762 0-1.162.563-.89 1.25M332 232.5c0 6.333.397 10.5 1 10.5s1-4.167 1-10.5-.397-10.5-1-10.5-1 4.167-1 10.5m49 0c0 6.333.397 10.5 1 10.5.556 0 1-2.683 1-6.05 0-7.101 2.007-11.663 5.518-12.544 1.365-.343 2.482-1.024 2.482-1.514 0-1.661-3.359-.904-5.686 1.282L383 226.349v-2.175c0-1.196-.45-2.174-1-2.174-.603 0-1 4.167-1 10.5m41 0c0 8.667.262 10.5 1.5 10.5s1.5-1.833 1.5-10.5-.262-10.5-1.5-10.5-1.5 1.833-1.5 10.5m-327.545-7.045C90.109 229.8 91.092 231 99 231c5.647 0 7-.299 7-1.545 0-2.248-4.562-6.455-7-6.455-1.15 0-3.195 1.105-4.545 2.455m123.217-.412c-3.19 2.509-4.37 7.859-2.649 12.012 3.069 7.409 13.065 6.325 14.547-1.577 1.761-9.387-5.327-15.603-11.898-10.435m142.627-.54c-2.652 1.858-4.6 7.451-3.76 10.797 2.502 9.969 15.461 8.305 15.461-1.985 0-8.262-6.016-12.794-11.701-8.812m79.201 8.619c-5.781 1.332-7.844 4.391-4.929 7.307 3.916 3.916 11.429.347 11.429-5.429 0-3.24-.259-3.315-6.5-1.878M5.262 261.529c-1.217.853-2.485 3.141-2.867 5.177-.877 4.679 2.108 7.516 9.772 9.287 10.031 2.318 12.753 6.557 7.083 11.032-4.878 3.849-15.25 1.006-15.25-4.18C4 281.83 3.325 281 2.5 281c-3.284 0-.583 6.389 3.621 8.562 7.895 4.083 18.279.076 18.279-7.054 0-4.773-1.84-6.306-10.133-8.439C5.46 271.803 5 271.507 5 268.096 5 264.262 7.84 262 12.654 262c4.007 0 8.346 3.023 8.346 5.814 0 .653.613 1.186 1.361 1.186 2.178 0 .738-4.777-2.117-7.023-3.12-2.454-11.749-2.712-14.982-.448M95 275c0 9.333.378 15 1 15 .571 0 1-3 1-7v-7h7.5c9.615 0 9.821-1.818.25-2.206l-7.25-.294v-11l8.25-.29c11.483-.405 10.461-2.21-1.25-2.21H95v15m113-13c0 1.111.667 2 1.5 2s1.5-.889 1.5-2-.667-2-1.5-2-1.5.889-1.5 2m-174.365 8.073c-1.449 1.139-2.635 2.714-2.635 3.5 0 2.198 1.594 1.696 3.408-1.073C37.372 267.977 45 269.513 45 274.633c0 2.334-.778 2.735-7.5 3.864-5.027.845-7.5 3.021-7.5 6.601 0 5.527 8.215 7.881 13.365 3.829 2.184-1.718 2.635-1.803 2.635-.5 0 .937.859 1.573 2.122 1.573 1.573 0 1.86-.324 1.109-1.25-.558-.687-1.187-4.786-1.398-9.109-.33-6.773-.705-8.119-2.719-9.75-3.069-2.485-8.192-2.404-11.479.182m26.588-.516c-1.246.872-2.223 1.092-2.223.5 0-.581-.675-1.057-1.5-1.057-1.238 0-1.5 1.833-1.5 10.5s.262 10.5 1.5 10.5c1.208 0 1.5-1.556 1.5-8 0-8.795 1.685-12 6.309-12 4.926 0 6.163 2.159 6.544 11.419.457 11.128 2.147 11.156 2.147.036 0-7.74-.231-8.777-2.455-11-2.831-2.832-7.04-3.198-10.322-.898m66.777-.851c-.825.302-2.513 1.47-3.75 2.596l-2.25 2.047v-2.175c0-1.196-.45-2.174-1-2.174-.603 0-1 4.167-1 10.5 0 8.667.262 10.5 1.5 10.5 1.2 0 1.5-1.5 1.5-7.5 0-8.097 1.776-11.5 6-11.5 1.111 0 2-.667 2-1.5 0-1.568-.511-1.704-3-.794m11.338.293c-2.256.909-4.053 4.659-2.792 5.826.4.371.931.104 1.18-.593 1.476-4.136 7.684-5.679 10.703-2.661 3.053 3.054 1.131 6.429-3.661 6.429-5.818 0-9.768 2.545-9.768 6.294 0 6.266 8.293 9.355 12.534 4.668 1.6-1.768 1.958-1.834 2.705-.5.949 1.697 4.761 2.127 4.761.538 0-.55-.675-1-1.5-1-1.215 0-1.5-1.605-1.5-8.443 0-10.789-3.941-14.075-12.662-10.558m25.297 1.074c-2.184 1.718-2.635 1.803-2.635.5 0-.865-.45-1.573-1-1.573-.603 0-1 4.167-1 10.5 0 12.342 1.622 14.15 2.156 2.402.4-8.816 2.315-11.902 7.383-11.902 4.328 0 5.461 2.4 5.461 11.571 0 4.953.412 8.429 1 8.429.596 0 1-3.814 1-9.443 0-8.625-.193-9.579-2.223-11-3.066-2.148-7.011-1.948-10.142.516m24.475-.732c-6.974 4.024-6.741 17.228.362 20.464 5.379 2.451 9.906 1.127 12.446-3.641 1.96-3.678.239-3.938-2.543-.384-3.173 4.055-7.021 4.29-10.451.639-5.178-5.511-1.738-16.419 5.179-16.419 2.689 0 5.897 2.215 5.897 4.071 0 .511.675.929 1.5.929 1.98 0 1.895-1.29-.26-3.952-2.203-2.72-8.772-3.645-12.13-1.707m32.113.216c-2.47 1.73-3.038 6.53-.973 8.223.688.563 3.275 1.562 5.75 2.22 5.364 1.425 7 2.614 7 5.087 0 4.277-7.857 5.25-11.412 1.413-2.485-2.681-3.588-3.128-3.588-1.455 0 2.568 4.967 5.955 8.732 5.955 5.687 0 8.448-2.341 8.073-6.845-.292-3.494-.565-3.743-6.199-5.655-6.933-2.352-9.124-4.861-6.165-7.059 3.331-2.473 9.559-1.109 9.559 2.094 0 .806.675 1.465 1.5 1.465 2.202 0 1.833-1.758-.955-4.545-2.87-2.871-7.933-3.272-11.322-.898m25.079-.545c-3.08 1.24-5.302 6.067-5.302 11.515 0 6.098 3.969 10.473 9.5 10.473 2.705 0 4.413-.759 6.577-2.923 3.213-3.213 3.736-5.077 1.423-5.077-.825 0-1.5.605-1.5 1.345 0 5.699-9.659 6.148-12.537.583-4.917-9.507 5.065-20.429 11.358-12.428 2.597 3.301 4.533 3.371 3.047.11-1.83-4.017-7.497-5.639-12.566-3.598m23.808.329c-6.974 4.024-6.741 17.228.362 20.464 7.907 3.603 14.528-1.033 14.528-10.172 0-9.108-7.708-14.436-14.89-10.292M208 279.5c0 8.667.262 10.5 1.5 10.5s1.5-1.833 1.5-10.5-.262-10.5-1.5-10.5-1.5 1.833-1.5 10.5m60.924-6.919c-5.106 5.435-1.742 16.419 5.028 16.419 3.845 0 6.882-2.6 7.618-6.522 1.857-9.9-6.499-16.44-12.646-9.897m-230.122 7.368c-6.315 1.228-8.442 4.269-5.231 7.48C37.487 291.345 45 287.776 45 282c0-3.18-.145-3.228-6.198-2.051m103.454.026c-5.687 1.35-7.981 4.9-5.056 7.825 3.471 3.471 11.8-.944 11.8-6.255 0-2.746-.905-2.956-6.744-1.57" fill-rule="evenodd"/></svg>