<?xml version="1.0" encoding="utf-8"?>
<!-- Generator: Adobe Illustrator 24.2.0, SVG Export Plug-In . SVG Version: 6.00 Build 0)  -->
<svg version="1.1" id="Layer_1" xmlns="http://www.w3.org/2000/svg" xmlns:xlink="http://www.w3.org/1999/xlink" x="0px" y="0px"
	 viewBox="0 0 117.1 78.9" style="enable-background:new 0 0 117.1 78.9;" xml:space="preserve">
<g>
	<g>
		<path d="M4.8,55.6h0.7v4.5c0,1.7,0.8,2.4,2.1,2.4c1.4,0,2.2-0.6,2.2-2.4v-4.5h0.7v4.7c0,1.5-0.8,2.8-2.9,2.8c-2,0-2.8-1.3-2.8-2.8
			V55.6z"/>
		<path d="M12.3,57.7h0.6v0.9h0c0.2-0.6,0.9-1.1,1.7-1.1c1.5,0,1.9,0.8,1.9,2V63h-0.6v-3.3c0-0.9-0.3-1.6-1.3-1.6
			c-1,0-1.6,0.8-1.7,1.8V63h-0.6V57.7z"/>
		<path d="M18.3,55.6h0.6v1h-0.6V55.6z M18.3,57.7h0.6V63h-0.6V57.7z"/>
		<path d="M20.1,57.7h0.7l1.7,4.7h0l1.6-4.7h0.7l-2,5.3h-0.7L20.1,57.7z"/>
		<path d="M26.3,60.5c0,0.9,0.5,2.1,1.7,2.1c0.9,0,1.5-0.6,1.7-1.4h0.6c-0.3,1.2-1,1.9-2.3,1.9c-1.7,0-2.4-1.3-2.4-2.8
			c0-1.4,0.7-2.8,2.4-2.8c1.7,0,2.4,1.5,2.3,3H26.3z M29.7,60c0-1-0.6-1.9-1.7-1.9c-1.1,0-1.6,0.9-1.7,1.9H29.7z"/>
		<path d="M31.7,57.7h0.6v1.2h0c0.3-0.9,1-1.4,2-1.3v0.6c-1.2-0.1-2,0.8-2,1.9V63h-0.6V57.7z"/>
		<path d="M38.6,59.2c0-0.8-0.6-1.2-1.4-1.2c-0.6,0-1.3,0.2-1.3,0.9c0,0.6,0.7,0.8,1.1,0.9l0.9,0.2c0.7,0.1,1.5,0.5,1.5,1.5
			c0,1.2-1.1,1.6-2.1,1.6c-1.2,0-2.1-0.6-2.2-1.9h0.6c0.1,0.9,0.7,1.3,1.6,1.3c0.6,0,1.4-0.3,1.4-1c0-0.6-0.6-0.8-1.2-1l-0.8-0.2
			c-0.8-0.2-1.5-0.5-1.5-1.4c0-1.1,1.1-1.5,2-1.5c1.1,0,1.9,0.6,1.9,1.7H38.6z"/>
		<path d="M40.9,55.6h0.6v1h-0.6V55.6z M40.9,57.7h0.6V63h-0.6V57.7z"/>
		<path d="M44.3,57.7h1.1v0.5h-1.1v3.6c0,0.4,0.1,0.7,0.5,0.7c0.2,0,0.4,0,0.6,0V63c-0.2,0-0.4,0-0.6,0c-0.9,0-1.2-0.3-1.2-1.2v-3.6
			h-0.9v-0.5h0.9v-1.6h0.6V57.7z"/>
		<path d="M46.2,57.7h0.7l1.7,4.5l1.6-4.5h0.6l-2.3,6.1c-0.4,0.9-0.6,1.2-1.4,1.2c-0.3,0-0.4,0-0.5-0.1v-0.5c0.2,0,0.3,0.1,0.4,0.1
			c0.6,0,0.7-0.3,0.9-0.8l0.2-0.6L46.2,57.7z"/>
		<path d="M60.1,60.3c0,1.5-0.9,2.8-2.5,2.8c-1.6,0-2.5-1.3-2.5-2.8c0-1.5,0.9-2.8,2.5-2.8C59.2,57.5,60.1,58.8,60.1,60.3z
			 M55.7,60.3c0,1.1,0.6,2.3,1.9,2.3c1.2,0,1.9-1.1,1.9-2.3c0-1.1-0.6-2.3-1.9-2.3C56.3,58.1,55.7,59.2,55.7,60.3z"/>
		<path d="M63.6,58.2h-1V63h-0.6v-4.8H61v-0.5h0.9v-0.5c0-0.9,0.2-1.6,1.3-1.6c0.2,0,0.3,0,0.5,0v0.6c-0.2,0-0.3-0.1-0.5-0.1
			c-0.7,0-0.7,0.5-0.7,1v0.5h1V58.2z"/>
		<path d="M73.5,57.9c-0.2-1.1-1.2-1.8-2.3-1.8c-1.9,0-2.8,1.6-2.8,3.2c0,1.6,0.8,3.2,2.8,3.2c1.4,0,2.2-1,2.4-2.4h0.7
			c-0.2,1.8-1.3,2.9-3.1,2.9c-2.3,0-3.5-1.8-3.5-3.8c0-2,1.2-3.8,3.5-3.8c1.4,0,2.8,0.8,2.9,2.4H73.5z"/>
		<path d="M75.7,59.3c0.1-1.2,0.9-1.8,2.1-1.8c0.9,0,2,0.3,2,1.7V62c0,0.2,0.1,0.4,0.4,0.4c0.1,0,0.2,0,0.2,0v0.5
			c-0.1,0-0.2,0-0.4,0c-0.7,0-0.8-0.4-0.8-0.9h0c-0.5,0.7-0.9,1.1-1.9,1.1c-1,0-1.8-0.5-1.8-1.6c0-1.5,1.4-1.5,2.8-1.7
			c0.5-0.1,0.8-0.1,0.8-0.7c0-0.9-0.6-1.1-1.4-1.1c-0.8,0-1.4,0.4-1.4,1.2H75.7z M79.1,60.1L79.1,60.1c-0.1,0.2-0.4,0.2-0.6,0.2
			c-1.1,0.2-2.5,0.2-2.5,1.2c0,0.6,0.6,1,1.2,1c1,0,1.9-0.6,1.8-1.7V60.1z"/>
		<path d="M81.6,55.6h0.6V63h-0.6V55.6z"/>
		<path d="M83.9,55.6h0.6v1h-0.6V55.6z M83.9,57.7h0.6V63h-0.6V57.7z"/>
		<path d="M88.4,58.2h-1V63h-0.6v-4.8h-0.9v-0.5h0.9v-0.5c0-0.9,0.2-1.6,1.3-1.6c0.2,0,0.3,0,0.5,0v0.6c-0.2,0-0.3-0.1-0.5-0.1
			c-0.7,0-0.7,0.5-0.7,1v0.5h1V58.2z"/>
		<path d="M94.2,60.3c0,1.5-0.9,2.8-2.5,2.8c-1.6,0-2.5-1.3-2.5-2.8c0-1.5,0.9-2.8,2.5-2.8C93.3,57.5,94.2,58.8,94.2,60.3z
			 M89.8,60.3c0,1.1,0.6,2.3,1.9,2.3c1.2,0,1.9-1.1,1.9-2.3c0-1.1-0.6-2.3-1.9-2.3C90.5,58.1,89.8,59.2,89.8,60.3z"/>
		<path d="M95.7,57.7h0.6v1.2h0c0.3-0.9,1-1.4,2-1.3v0.6c-1.2-0.1-2,0.8-2,1.9V63h-0.6V57.7z"/>
		<path d="M99.6,57.7h0.6v0.9h0c0.2-0.6,0.9-1.1,1.7-1.1c1.5,0,1.9,0.8,1.9,2V63h-0.6v-3.3c0-0.9-0.3-1.6-1.3-1.6
			c-1,0-1.6,0.8-1.7,1.8V63h-0.6V57.7z"/>
		<path d="M105.6,55.6h0.6v1h-0.6V55.6z M105.6,57.7h0.6V63h-0.6V57.7z"/>
		<path d="M107.9,59.3c0.1-1.2,0.9-1.8,2.1-1.8c0.9,0,2,0.3,2,1.7V62c0,0.2,0.1,0.4,0.4,0.4c0.1,0,0.2,0,0.2,0v0.5
			c-0.1,0-0.2,0-0.4,0c-0.7,0-0.8-0.4-0.8-0.9h0c-0.5,0.7-0.9,1.1-1.9,1.1c-1,0-1.8-0.5-1.8-1.6c0-1.5,1.4-1.5,2.8-1.7
			c0.5-0.1,0.8-0.1,0.8-0.7c0-0.9-0.6-1.1-1.4-1.1c-0.8,0-1.4,0.4-1.4,1.2H107.9z M111.3,60.1L111.3,60.1c-0.1,0.2-0.4,0.2-0.6,0.2
			c-1.1,0.2-2.5,0.2-2.5,1.2c0,0.6,0.6,1,1.2,1c1,0,1.9-0.6,1.8-1.7V60.1z"/>
		<path d="M5.2,71.8c0,1.5,1.1,2,2.4,2c0.8,0,1.9-0.4,1.9-1.5c0-0.8-0.8-1.2-1.5-1.3l-1.6-0.4c-0.9-0.2-1.7-0.6-1.7-1.8
			c0-0.7,0.5-2.1,2.5-2.1c1.4,0,2.7,0.8,2.7,2.3H9.3c0-1.1-1-1.7-2-1.7c-1,0-1.8,0.4-1.8,1.5c0,0.7,0.5,1,1.1,1.1l1.8,0.4
			c1,0.3,1.9,0.7,1.9,1.9c0,0.5-0.2,2.1-2.8,2.1c-1.7,0-3-0.8-2.9-2.6H5.2z"/>
		<path d="M11.6,70.5c0.1-1.2,0.9-1.8,2.1-1.8c0.9,0,2,0.3,2,1.7v2.8c0,0.2,0.1,0.4,0.4,0.4c0.1,0,0.2,0,0.2,0v0.5
			c-0.1,0-0.2,0-0.4,0c-0.7,0-0.8-0.4-0.8-0.9h0c-0.5,0.7-0.9,1.1-1.9,1.1c-1,0-1.8-0.5-1.8-1.6c0-1.5,1.4-1.5,2.8-1.7
			c0.5-0.1,0.8-0.1,0.8-0.7c0-0.9-0.6-1.1-1.4-1.1c-0.8,0-1.4,0.4-1.4,1.2H11.6z M15.1,71.3L15.1,71.3c-0.1,0.2-0.4,0.2-0.6,0.2
			c-1.1,0.2-2.5,0.2-2.5,1.2c0,0.6,0.6,1,1.2,1c1,0,1.9-0.6,1.8-1.7V71.3z"/>
		<path d="M17.5,68.9h0.6v0.9h0c0.2-0.6,0.9-1.1,1.7-1.1c1.5,0,1.9,0.8,1.9,2v3.4h-0.6v-3.3c0-0.9-0.3-1.6-1.3-1.6
			c-1,0-1.6,0.8-1.7,1.8v3.1h-0.6V68.9z"/>
		<path d="M27,66.9h4.7v0.6h-4v2.7h3.5v0.6h-3.5v3.5H27V66.9z"/>
		<path d="M32.9,68.9h0.6v1.2h0c0.3-0.9,1-1.4,2-1.3v0.6c-1.2-0.1-2,0.8-2,1.9v2.8h-0.6V68.9z"/>
		<path d="M36.5,70.5c0.1-1.2,0.9-1.8,2.1-1.8c0.9,0,2,0.3,2,1.7v2.8c0,0.2,0.1,0.4,0.4,0.4c0.1,0,0.2,0,0.2,0v0.5
			c-0.1,0-0.2,0-0.4,0c-0.7,0-0.8-0.4-0.8-0.9h0c-0.5,0.7-0.9,1.1-1.9,1.1c-1,0-1.8-0.5-1.8-1.6c0-1.5,1.4-1.5,2.8-1.7
			c0.5-0.1,0.8-0.1,0.8-0.7c0-0.9-0.6-1.1-1.4-1.1c-0.8,0-1.4,0.4-1.4,1.2H36.5z M40,71.3L40,71.3c-0.1,0.2-0.4,0.2-0.6,0.2
			c-1.1,0.2-2.5,0.2-2.5,1.2c0,0.6,0.6,1,1.2,1c1,0,1.9-0.6,1.9-1.7V71.3z"/>
		<path d="M42.4,68.9H43v0.9h0c0.2-0.6,0.9-1.1,1.7-1.1c1.5,0,1.9,0.8,1.9,2v3.4H46v-3.3c0-0.9-0.3-1.6-1.3-1.6
			c-1,0-1.6,0.8-1.7,1.8v3.1h-0.6V68.9z"/>
		<path d="M52.1,70.6c-0.2-0.8-0.7-1.3-1.5-1.3c-1.2,0-1.9,1.1-1.9,2.3c0,1.1,0.6,2.3,1.9,2.3c0.8,0,1.5-0.6,1.5-1.5h0.6
			c-0.2,1.3-1,2.1-2.2,2.1c-1.6,0-2.5-1.3-2.5-2.8c0-1.5,0.9-2.8,2.5-2.8c1.1,0,2,0.6,2.1,1.8H52.1z"/>
		<path d="M54.2,66.9h0.6v1h-0.6V66.9z M54.2,68.9h0.6v5.3h-0.6V68.9z"/>
		<path d="M59.8,70.5c0-0.8-0.6-1.2-1.4-1.2c-0.6,0-1.3,0.2-1.3,0.9c0,0.6,0.7,0.8,1.1,0.9l0.9,0.2c0.7,0.1,1.5,0.5,1.5,1.5
			c0,1.2-1.1,1.6-2.1,1.6c-1.2,0-2.1-0.6-2.2-1.9h0.6c0.1,0.9,0.7,1.3,1.6,1.3c0.6,0,1.4-0.3,1.4-1c0-0.6-0.6-0.8-1.2-1L58,71.7
			c-0.8-0.2-1.5-0.5-1.5-1.4c0-1.1,1.1-1.5,2-1.5c1.1,0,1.9,0.6,1.9,1.7H59.8z"/>
		<path d="M65.8,70.6c-0.2-0.8-0.7-1.3-1.5-1.3c-1.2,0-1.9,1.1-1.9,2.3c0,1.1,0.6,2.3,1.9,2.3c0.8,0,1.5-0.6,1.5-1.5h0.6
			c-0.2,1.3-1,2.1-2.2,2.1c-1.6,0-2.5-1.3-2.5-2.8c0-1.5,0.9-2.8,2.5-2.8c1.1,0,2,0.6,2.1,1.8H65.8z"/>
		<path d="M72.6,71.6c0,1.5-0.9,2.8-2.5,2.8c-1.6,0-2.5-1.3-2.5-2.8c0-1.5,0.9-2.8,2.5-2.8C71.7,68.8,72.6,70,72.6,71.6z M68.2,71.6
			c0,1.1,0.6,2.3,1.9,2.3c1.2,0,1.9-1.1,1.9-2.3c0-1.1-0.6-2.3-1.9-2.3C68.8,69.3,68.2,70.4,68.2,71.6z"/>
	</g>
</g>
<path d="M51.5,31.2c0.1,0.1,0.3,0.2,0.4,0.3c1.1,0.8,3.2,1.5,6.2,2.2l3.1,0.7c1.8,0.4,3.1,0.8,3.9,1.3c0.8,0.5,1.2,1.2,1.2,2.2
	c0,1.6-0.8,2.7-2.5,3.3c-0.9,0.3-2,0.5-3.5,0.5c-2.4,0-4.1-0.6-5-1.7c-0.5-0.6-0.9-1.6-1.1-2.9h-5.6c0,2.9,1.1,5.3,3.2,6.9
	c2.1,1.7,5.1,2.5,8.8,2.5c3.6,0,6.5-0.9,8.5-2.6c1.8-1.6,2.8-3.5,3-5.8l0,0v8h6.3V34.2h11.9v-4.9H78.2v-6.6H92v-5.3H72v19.4v0
	c-0.1-2.3-0.9-4-2.5-5.3c-1.2-0.9-2.9-1.6-4.9-2.1c-1.1-0.3-4.1-1-5-1.2s-2.8-0.6-3.8-1.2c-1-0.5-1.4-1.4-1.4-2.3
	c0-1.2,0.5-2,1.4-2.6c1-0.7,2.3-0.9,3.7-0.9c3,0,5.6,1.1,5.8,4.3h5.7c-0.1-3-1.2-5.3-3.3-6.9c-2.1-1.6-4.7-2.4-7.7-2.4
	c-3.6,0-6.3,0.8-8.2,2.5c-1.1,1-1.9,2.2-2.4,3.6c0,0-0.1,0.2-0.1,0.5c-0.1,0.2-0.1,0.4-0.1,0.4l0,0c-0.7,3.3-2.8,5.5-6.3,5.5
	c-5.6,0-7.7-4.8-7.7-9.5c0-5,2.1-9.8,7.7-9.8c3.1,0,5.8,2.2,6.2,5h6.1c-0.8-6.6-6-10.2-12.3-10.2c-8.4,0-13.5,6-13.9,13.9V5.2h-6.3
	v17.7c0,4.2-1.4,6.2-5.9,6.2c-5.1,0-5.9-3.1-5.9-6.2V5.2H4.7v17.7c0,7.7,4.5,11.4,12.1,11.4c7.6,0,12.2-3.7,12.2-11.4v-2.2
	c0.5,7.7,5.6,13.7,13.9,13.7C46.4,34.3,49.3,33.2,51.5,31.2L51.5,31.2z"/>
</svg>
