<?xml version="1.0" encoding="utf-8"?>
<!-- Generator: Adobe Illustrator 24.2.0, SVG Export Plug-In . SVG Version: 6.00 Build 0)  -->
<svg version="1.1" id="Layer_1" xmlns="http://www.w3.org/2000/svg" xmlns:xlink="http://www.w3.org/1999/xlink" x="0px" y="0px"
	 viewBox="0 0 452 292" style="enable-background:new 0 0 452 292;" xml:space="preserve">
<style type="text/css">
	.st0{fill-rule:evenodd;clip-rule:evenodd;fill:#07254D;}
</style>
<path class="st0" d="M149.8,1c-22.2,3.7-38.6,19.5-44.7,43l-1.9,7.5l-0.1-24.3L103,3H77v39c0,40.8-0.5,46.4-4.3,52.3
	c-7,10.5-32.3,10.9-39.9,0.6c-4.6-6.2-4.8-7.8-4.8-51V3H2l0,41.3C2,88,2.5,93.1,7,102.1c7.1,13.9,20.4,20.8,42,21.6
	c32.6,1.3,49.8-11.8,53.3-40.3l1.1-9.1l1.7,6.8c6.6,26.1,25.6,41.5,52.9,42.7c14.5,0.7,25.2-2.3,34.9-9.5l3.4-2.5l4.3,2.1
	c6.8,3.4,14,5.6,29.5,9.1c23.4,5.2,28,8,28,17.1c0,9.5-7.8,14.2-24,14.3c-14.2,0.2-22.6-4.8-25.1-14.9l-1.1-4.5h-23l0.5,6.1
	c1.9,20.6,20.3,33.2,48.7,33.3c24.9,0.1,41-9.2,46.6-26.8c1.1-3.6,1.3-2.6,1.3,10.8L282,173h26v-49h50v-20h-50V76h57V54h-83
	l-0.1,38.3c-0.1,35.6-0.2,37.9-1.6,33.4c-3.6-11.7-13.5-17.5-40.4-23.6c-25.2-5.7-29.7-8-30.7-15.6c-1.1-8.2,6.4-14.4,18.2-15.1
	c14.3-0.9,23.9,3.9,26.5,13.3l1.3,4.5h23l-0.6-5.4C275.5,62,252.2,47.8,224.2,51c-20,2.3-32.7,11.8-36.7,27.4
	c-4.5,17.6-13.3,24.5-29.9,23.4c-18.2-1.2-28.5-15.4-28.6-39.3c-0.1-25.3,11.2-39.8,31-39.9c13.1-0.1,21.4,5.1,25.5,15.9l1.7,4.5
	h12.4c13.9,0,13.3,0.5,10.8-8.1C203,9.9,178.5-3.8,149.8,1 M2.2,225.6l0.3,12.6l3.3,2.9c5.9,5.2,16.8,3.4,19.1-3.2
	c1.8-5.1,1.5-24.9-0.4-24.9c-1.3,0-1.5,2-1.5,12c0,13.9-1.5,17-8.4,17c-8.1,0-9.6-2.9-9.6-17.9c0-9.4-0.2-11.1-1.6-11.1
	C2,213,1.9,214.6,2.2,225.6 M58,215c0,1.1,0.7,2,1.5,2s1.5-0.9,1.5-2s-0.7-2-1.5-2S58,213.9,58,215 M152,215c0,1.1,0.7,2,1.5,2
	s1.5-0.9,1.5-2s-0.7-2-1.5-2S152,213.9,152,215 M241.6,214.6c-0.9,0.9-1.6,2.9-1.6,4.5c0,2.3-0.5,2.9-2,2.9c-1.1,0-2,0.4-2,1
	s0.9,1,2,1c1.9,0,2,0.7,2,10c0,8.2,0.3,10,1.5,10s1.5-1.8,1.5-10c0-9.3,0.1-10,2-10c1.1,0,2-0.4,2-1s-0.9-1-2-1
	c-3.2,0-2.8-5.8,0.5-6.6c1.4-0.3,2.2-1,1.9-1.5C246.6,212.5,243.3,212.9,241.6,214.6 M271.2,215c-4,2.4-6.2,7.3-6.2,13.5
	c0,16.1,19.7,22.1,25.6,7.9c1.7-4.1,1.7-4.4-0.1-4.4c-0.8,0-1.5,0.7-1.5,1.6c0,5.1-8.7,9.6-14.4,7.4c-7.3-2.8-9.1-17.5-2.7-23.2
	c4.9-4.4,14-3.1,15.7,2.1c0.7,2.1,3.5,2.8,3.5,0.9C291,214.3,278.5,210.5,271.2,215 M322,228.6c0,12,0.3,15.5,1.3,15.2
	c2-0.7,2.3-30.8,0.3-30.8C322.2,213,322,215.3,322,228.6 M332,215c0,1.1,0.7,2,1.5,2s1.5-0.9,1.5-2s-0.7-2-1.5-2S332,213.9,332,215
	 M345,215c-1.1,1.1-2,3.1-2,4.5c0,1.6-0.6,2.5-1.5,2.5c-0.8,0-1.5,0.4-1.5,1s0.7,1,1.5,1c1.2,0,1.5,2,1.8,9.7
	c0.2,6.6,0.7,9.8,1.5,10.1c0.9,0.3,1.3-2,1.3-9.7c0-9.4,0.1-10.1,2-10.1c1.1,0,2-0.4,2-1s-0.9-1-2-1c-1.5,0-2-0.7-2-2.9
	c0-2.8,2.2-4.7,4.1-3.6c0.5,0.3,0.9-0.1,0.9-1C351,212.3,347.4,212.6,345,215 M422,215c0,1.1,0.7,2,1.5,2s1.5-0.9,1.5-2
	s-0.7-2-1.5-2S422,213.9,422,215 M164,218.5c0,2.8-0.4,3.5-2,3.5c-1.1,0-2,0.4-2,1s0.9,1,2,1c1.8,0,2,0.7,2,8.8
	c0,9.4,0.8,11.2,4.7,11.2c2.8,0,3-1.6,0.3-2.3c-1.8-0.5-2-1.4-2-9.1c0-7.9,0.2-8.6,2-8.6c1.1,0,2-0.4,2-1s-0.9-1-2-1
	c-1.6,0-2-0.7-2-3.5c0-2.4-0.5-3.5-1.5-3.5S164,216.1,164,218.5 M40,221.6c-0.8,0.3-2.1,1.3-2.8,2.2c-1.1,1.4-1.3,1.4-1.3-0.1
	c0-0.9-0.7-1.7-1.5-1.7c-2,0-1.8,21.1,0.3,21.8c0.9,0.3,1.3-1.7,1.3-7.7c0-8.7,2.3-13,6.8-13c4.4,0,5.6,2.3,6,11.9
	c0.2,5,0.8,9.1,1.3,9.1c1.4,0,1.1-18.4-0.4-20.3C48.4,221.9,42.6,220.7,40,221.6 M93.8,222.5c-5.5,3-6.4,14.9-1.3,19.2
	c3.4,2.9,9.3,3,12.9,0.2c2.6-2,3.6-5.9,1.6-5.9c-0.6,0-1,0.4-1,1c0,4.5-8.5,6.5-12,2.8c-4.7-5-3-6.8,6.5-6.8c9.2,0,9.3-0.1,7.1-5.4
	C105.1,221.5,99.5,219.5,93.8,222.5 M121.3,222c-1.2,0.5-2.6,1.7-3.2,2.7c-1,1.7-1.1,1.6-1.1-0.4c0-1.3-0.6-2.3-1.6-2.3
	c-2,0-1.8,21.1,0.3,21.8c0.9,0.3,1.3-1.6,1.3-7.2c0-8,2.3-12.5,6.5-12.5c0.8,0,1.5-0.7,1.5-1.5C125,220.8,124.5,220.7,121.3,222
	 M132.8,222.1c-6.1,3.5-4.1,8.7,4.3,11.4c6.8,2.2,8.2,4.1,5.4,6.9c-2.5,2.5-7.2,2-9.9-0.9c-2.7-2.9-3.6-3.1-3.6-1
	c0,3,3.8,5.5,8.3,5.5c5.8,0,8.7-2.2,8.7-6.6c0-3.8-0.5-4.1-9-6.6c-5-1.5-6.5-4.3-3.4-6.5c2.7-2,5.2-1.6,8,1.2c3,3,4.4,3.2,3.7,0.5
	C144.2,221.7,137.1,219.5,132.8,222.1 M216.9,222.4c-5.7,3.2-6.6,14.8-1.4,19.3c8.1,7,19.5-1.8,16.5-12.8
	C230.2,222.3,222.8,219.1,216.9,222.4 M301.3,222.2c-2.1,1-4,4.4-3,5.4c0.3,0.3,1.6-0.7,3-2.1c2.9-2.9,6.8-3.3,9.1-1
	c3.4,3.4,1.4,6.4-4,6.4c-5.5,0-9.4,2.6-9.4,6.4c0,6.1,7.2,9,12.7,5.1c1.9-1.3,2.3-1.3,3.3,0c1.6,1.9,4,1.9,4,0
	c0-0.8-0.4-1.5-0.9-1.5s-1.1-3.6-1.3-8.1C314.4,222,309.5,218.2,301.3,222.2 M359.3,222.1c-4.7,2.4-6.7,11.3-3.8,16.9
	c4.5,8.6,17.3,6,19-4C376.1,225.6,367.3,218.1,359.3,222.1 M388.4,222c-1.2,0.4-2.4,1.3-2.8,1.9c-1,1.6-2.5,1.3-2.5-0.4
	c0-0.8-0.5-1.5-1-1.5c-0.6,0-1,4.3-1,11s0.4,11,1,11c0.6,0,1-2.6,1-5.9c0-8.9,2.6-13.9,7.3-14c1,0,1.8-0.5,1.8-1
	C392,221.5,390.7,221.2,388.4,222 M402.2,222.6c-1.2,0.9-2.2,1.1-2.2,0.5c0-0.6-0.7-1.1-1.5-1.1c-1.2,0-1.5,1.9-1.5,11.1
	c0,8.4,0.3,11,1.3,10.7c0.8-0.3,1.3-3.1,1.5-8.5c0.3-7.4,0.5-8.3,2.9-10.2c6.3-4.9,9.3-1.5,9.3,10.3c0,7,0.3,8.7,1.5,8.7
	c2.9,0,2.1-17.5-1-20.5C409.7,220.6,405.5,220.3,402.2,222.6 M434.6,223.1c-1.4,1.1-2.6,2.7-2.6,3.5c0,2.1,1,1.8,3.6-1.1
	c3.9-4.2,11-2.5,10.3,2.5c-0.3,2.1-1,2.5-5.8,3.2c-8.4,1.2-12,6.8-7.2,11.1c2.3,2.1,9.5,2.2,11.2,0.1c1.1-1.4,1.4-1.4,3,0
	c2.1,1.9,4,2,4,0c0-0.8-0.5-1.5-1-1.5c-0.6,0-1-3.2-1-7.5C449,222.1,442.2,217.2,434.6,223.1 M58.2,232.7c0.2,7.4,0.7,10.8,1.5,11.1
	c1,0.3,1.3-2.2,1.3-10.7c0-9.3-0.2-11.1-1.5-11.1C58.2,222,58,223.6,58.2,232.7 M68.6,228.8c1.4,3.7,3.3,8.7,4.1,11.1
	c2.3,6.5,4,5.1,8.4-6.7c4.5-11.9,4.3-11.1,2.6-11.1c-0.7,0-2.6,3.8-4.2,8.5s-3.2,8.7-3.6,9s-2.2-3.6-3.9-8.5c-2-5.5-3.8-9-4.6-9
	C66.3,222,66.6,223.5,68.6,228.8 M152.2,232.7c0.2,7.4,0.7,10.8,1.5,11.1c0.9,0.3,1.3-2.2,1.3-10.7c0-9.3-0.2-11.1-1.5-11.1
	C152.2,222,152,223.6,152.2,232.7 M175.3,223.3c0.3,0.7,2.2,5.5,4.3,10.6c4.1,10.2,4.1,13.7-0.3,15.6c-2.7,1.2-2.9,2.5-0.3,2.5
	c2.8,0,4.7-2.3,7.1-8.7c7.3-19.4,7.9-21.3,6.6-21.3c-0.7,0-2.5,3.4-4,7.8c-4,11.4-3.9,11.4-7.7,1.3c-2-5.5-3.9-9-4.8-9
	C175.4,222,175,222.6,175.3,223.3 M332,233.1c0,8.4,0.3,11,1.3,10.7c2-0.7,2.3-21.8,0.3-21.8C332.2,222,332,223.8,332,233.1
	 M422,233c0,9.1,0.3,11,1.5,11s1.5-1.9,1.5-11s-0.3-11-1.5-11S422,223.9,422,233 M94.5,225.5c-4.3,4.3-3.4,5.5,4.5,5.5
	c5.6,0,7-0.3,7-1.5c0-2.2-4.6-6.5-7-6.5C97.8,223,95.8,224.1,94.5,225.5 M218.3,224.5c-2.6,1.9-4.7,7.7-3.8,10.7
	c2.3,7.6,10.6,9.2,14,2.7C232.9,229.5,225.3,219.6,218.3,224.5 M359.5,225.5c-5.2,5.2-2,16.5,4.7,16.5c8.5,0,11-14.3,3.2-17.9
	C363.7,222.5,362.2,222.7,359.5,225.5 M306.1,233.1c-6.9,1.3-8.9,4-5.6,7.4c3.8,3.8,11.4,0,11.4-5.7c0-1.5-0.3-2.6-0.8-2.6
	C310.8,232.2,308.5,232.6,306.1,233.1 M440,233.1c-5.6,1.1-7.6,3.4-5.6,6.3c1.9,2.9,7,3.2,9.6,0.6c1.9-1.9,3-8.2,1.3-7.9
	C444.8,232.2,442.5,232.6,440,233.1 M8.3,260.1c-8.5,2.5-8.5,12.7,0,14.9c12.6,3.2,16.3,6.5,12.2,11c-4.1,4.6-14.7,2.9-16.1-2.5
	c-0.7-3-3.4-3.4-3.4-0.6c0,4.8,4.3,7.6,12,7.6c6.6,0,7.4-0.2,9.6-2.8c5-5.8,1.7-11.5-7.6-13.7c-9.7-2.2-13-6.8-7.7-10.5
	c4.5-3.2,13.8-0.2,13.8,4.4c0,0.6,0.7,1,1.6,1c4.2,0-1.2-7.5-6.5-9C12,258.9,12.6,258.9,8.3,260.1 M95,275.6c0,12,0.3,15.5,1.3,15.2
	c0.8-0.3,1.4-3,1.5-7.6l0.3-7.2h7c4,0,7-0.4,7-1s-3-1-7-1h-7v-11h8c6.4,0,8-0.3,8-1.5c0-1.2-1.7-1.5-9.5-1.5H95V275.6 M208,262
	c0,1.1,0.7,2,1.5,2s1.5-0.9,1.5-2s-0.7-2-1.5-2S208,260.9,208,262 M34.3,269.2c-2.2,1.1-4,4.4-2.9,5.5c0.3,0.3,1.7-0.6,3-2.1
	c3.9-4.2,10.6-3,10.6,1.9c0,2.5-0.3,2.7-8.2,4c-4.6,0.7-6.8,2.8-6.8,6.4c0,5.5,7.6,8.1,12.8,4.5c2-1.4,2.4-1.4,3.8,0
	c2,2,3.4,2,3.4,0.1c0-0.8-0.4-1.5-0.9-1.5c-0.5,0-1.1-3.9-1.3-8.6c-0.3-7.1-0.7-8.8-2.3-10C43.3,267.8,37.5,267.7,34.3,269.2
	 M60.2,269.6c-1.2,0.9-2.2,1.1-2.2,0.5c0-0.6-0.7-1.1-1.5-1.1c-1.2,0-1.5,1.9-1.5,11s0.3,11,1.5,11c1.2,0,1.5-1.6,1.5-8.3
	c0-9,1.9-12.7,6.6-12.7c4.3,0,5.3,2,5.6,11.4c0.2,6,0.7,9.1,1.5,9.3c2.4,0.8,1.7-18.3-0.8-20.8C68.6,267.6,63.3,267.4,60.2,269.6
	 M124.6,270.1c-2.2,1.7-2.6,1.8-2.6,0.5c0-0.9-0.7-1.6-1.5-1.6c-1.2,0-1.5,1.9-1.5,11s0.3,11,1.5,11c1.2,0,1.5-1.5,1.5-7.8
	c0-8.3,2-12.2,6.3-12.2c0.9,0,1.7-0.7,1.7-1.5C130,267.4,127.7,267.6,124.6,270.1 M137.3,269.5c-2.3,1.6-3.8,5.5-2.1,5.5
	c0.6,0,1.9-1.1,3-2.5c2.3-2.9,6.8-3.4,9.3-0.9c3.5,3.5,1.4,5.8-5.9,6.8c-5.9,0.8-7.9,2.4-7.9,6.7c0,5.5,7.8,8.1,13.1,4.3
	c1.2-0.9,2.2-1.1,2.2-0.6c0,1.5,3.2,2.3,4.4,1.1c0.8-0.8,0.6-1.4-0.7-2.1c-1.4-0.8-1.8-2.4-1.8-8.9c0-7-0.2-8.1-2.2-9.5
	C146,267.6,140.1,267.5,137.3,269.5 M164,269.7c-1.7,1.2-2.5,1.3-2.8,0.5c-1.3-3.9-2.2,0.2-2.2,9.8c0,6.7,0.4,11,1,11
	c0.6,0,1-2.8,1-6.4c0-10.1,2.4-14.6,7.8-14.6c3.9,0,5.2,3.1,5.2,12.4c0,6.6,0.3,8.6,1.3,8.3c0.9-0.3,1.3-3.2,1.3-9.7
	c0-8.5-0.2-9.4-2.4-11.2C171.2,267.5,167.2,267.5,164,269.7 M188.3,269c-6.7,2.7-6.9,17.5-0.4,21c5.2,2.8,14.1-0.6,14.1-5.4
	c0-2.4-1.4-1.8-3.8,1.5c-5.7,7.7-15.7-1.1-11.8-10.4c2.5-5.9,8-7.4,11.4-3.1c2,2.6,4.2,3.3,4.2,1.5C202,269.7,193.9,266.8,188.3,269
	 M220.2,269.6c-5.1,3.6-2.5,8.8,5.4,10.8c5,1.3,7.1,3.3,6.1,5.9c-1.5,3.8-10.2,3.2-11.7-0.9c-1-2.7-3-3.3-3-0.9c0,3.1,4.7,6.5,9,6.5
	c10.2,0,12-10.8,2-12.5c-5.1-0.9-8.4-3.4-7.5-5.8c1.4-3.7,10.5-3,10.5,0.7c0,0.8,0.7,1.5,1.5,1.5c2.2,0,1.8-1.8-1-4.5
	C228.7,267.6,223.6,267.2,220.2,269.6 M243.5,270.2c-7.6,6.6-3.3,20.8,6.3,20.7c4.6,0,9.2-3.7,9.2-7.4c0-1.5-2.6-0.3-3.5,1.7
	c-2.3,5.3-10.1,4.4-12.5-1.4c-3.7-8.9,5.3-17.7,11.6-11.4c3.1,3.1,4.6,3.2,3.5,0.3C256.3,267.9,247.9,266.4,243.5,270.2 M269.3,269
	c-4.8,1.9-6.8,11.1-3.8,17c4.1,8,16,6.2,18.4-2.8C286.7,273.2,278.6,265.3,269.3,269 M208,280c0,9.1,0.3,11,1.5,11s1.5-1.9,1.5-11
	s-0.3-11-1.5-11S208,270.9,208,280 M270.7,271.1c-2.6,1.5-4.8,7.3-4,10.6c1.9,8,10.4,9.9,13.9,3.2
	C284.9,276.5,278,266.8,270.7,271.1 M39,280.1c-5.6,1.1-7.6,3.4-5.6,6.3c3.1,4.7,11.6,1.4,11.6-4.5c0-1.6-0.3-2.9-0.8-2.8
	C43.8,279.2,41.5,279.6,39,280.1 M142.8,279.9c-6.3,1.2-8.4,4.3-5.2,7.5c3.6,3.6,11.4-0.4,11.4-5.9
	C149,278.9,148.7,278.8,142.8,279.9"/>
</svg>
