<svg xmlns="http://www.w3.org/2000/svg" viewBox="0 0 452 292"><path fill="#07254d" d="M149.763 1.033C127.579 4.768 111.147 20.561 105.058 44l-1.948 7.5-.055-24.25L103 3H77v38.951c0 40.761-.472 46.449-4.333 52.262-6.975 10.501-32.268 10.911-39.895.646C28.153 88.642 28 87.012 28 43.851V3H2l.015 41.25c.015 43.795.457 48.874 5.024 57.827C14.13 115.976 27.471 122.854 49 123.708c32.606 1.295 49.849-11.758 53.304-40.35l1.105-9.143 1.732 6.82c6.638 26.138 25.626 41.478 52.859 42.704 14.534.654 25.213-2.251 34.85-9.48l3.35-2.514 4.295 2.146c6.814 3.403 13.972 5.601 29.514 9.065C253.4 128.169 258 130.98 258 140.064c0 9.514-7.786 14.168-24 14.344-14.214.154-22.562-4.81-25.111-14.934L207.763 135h-23.041l.549 6.057c1.865 20.561 20.344 33.18 48.729 33.276 24.923.084 41.02-9.185 46.601-26.833 1.149-3.631 1.271-2.64 1.332 10.75L282 173h26v-49h50v-20h-50V76h57V54h-83l-.07 38.25c-.064 35.564-.175 37.907-1.569 33.365-3.608-11.749-13.459-17.518-40.361-23.636-25.183-5.727-29.67-8.014-30.668-15.631-1.072-8.187 6.357-14.372 18.175-15.13 14.327-.92 23.854 3.856 26.493 13.281L255.26 89h23.02l-.56-5.425c-2.229-21.596-25.52-35.791-53.493-32.601-19.953 2.276-32.653 11.773-36.68 27.43-4.526 17.602-13.299 24.453-29.946 23.384-18.205-1.168-28.512-15.352-28.577-39.328-.068-25.316 11.187-39.816 30.976-39.907 13.106-.06 21.417 5.117 25.538 15.908L187.272 43h12.364c13.898 0 13.283.461 10.752-8.068-7.435-25.061-31.894-38.737-60.625-33.899M2.168 225.584l.332 12.585 3.266 2.915c5.86 5.232 16.825 3.396 19.126-3.203 1.781-5.11 1.47-24.881-.392-24.881-1.25 0-1.5 2.005-1.5 12.045C23 238.981 21.509 242 14.627 242 6.549 242 5 239.111 5 224.05 5 214.641 4.765 213 3.418 213c-1.375 0-1.538 1.637-1.25 12.584M58 215c0 1.111.667 2 1.5 2s1.5-.889 1.5-2-.667-2-1.5-2-1.5.889-1.5 2m94 0c0 1.111.667 2 1.5 2s1.5-.889 1.5-2-.667-2-1.5-2-1.5.889-1.5 2m89.571-.429c-.864.865-1.571 2.89-1.571 4.5 0 2.262-.455 2.929-2 2.929-1.1 0-2 .45-2 1s.9 1 2 1c1.867 0 2 .667 2 10 0 8.222.267 10 1.5 10s1.5-1.778 1.5-10c0-9.333.133-10 2-10 1.1 0 2-.45 2-1s-.9-1-2-1c-3.233 0-2.802-5.761.493-6.588 1.371-.344 2.245-1.027 1.941-1.519-.876-1.417-4.145-1.039-5.863.678m29.619.455c-3.965 2.417-6.19 7.261-6.19 13.474 0 16.117 19.652 22.15 25.621 7.864 1.725-4.127 1.718-4.364-.121-4.364-.825 0-1.5.72-1.5 1.6 0 5.121-8.71 9.601-14.434 7.425-7.309-2.779-9.056-17.518-2.744-23.157 4.879-4.359 14.01-3.124 15.675 2.121.658 2.074 3.503 2.841 3.503.945 0-6.68-12.453-10.394-19.81-5.908M322 228.583c0 12.022.286 15.489 1.25 15.168 2.046-.68 2.316-30.751.276-30.751-1.303 0-1.526 2.28-1.526 15.583M332 215c0 1.111.667 2 1.5 2s1.5-.889 1.5-2-.667-2-1.5-2-1.5.889-1.5 2m13 0c-1.1 1.1-2 3.125-2 4.5 0 1.556-.567 2.5-1.5 2.5-.825 0-1.5.45-1.5 1s.659 1 1.464 1c1.164 0 1.522 1.978 1.75 9.669.196 6.633.678 9.799 1.536 10.083.945.313 1.25-2.048 1.25-9.669 0-9.416.132-10.083 2-10.083 1.1 0 2-.45 2-1s-.9-1-2-1c-1.539 0-2-.667-2-2.893 0-2.838 2.181-4.731 4.09-3.551.501.309.91-.14.91-.997 0-2.213-3.611-1.948-6 .441m77 0c0 1.111.667 2 1.5 2s1.5-.889 1.5-2-.667-2-1.5-2-1.5.889-1.5 2m-258 3.5c0 2.833-.381 3.5-2 3.5-1.1 0-2 .45-2 1s.9 1 2 1c1.848 0 2 .667 2 8.8 0 9.379.764 11.2 4.7 11.2 2.828 0 3.034-1.575.3-2.29-1.804-.472-2-1.364-2-9.116 0-7.927.155-8.594 2-8.594 1.1 0 2-.45 2-1s-.9-1-2-1c-1.619 0-2-.667-2-3.5 0-2.444-.452-3.5-1.5-3.5s-1.5 1.056-1.5 3.5m-124 3.148c-.825.32-2.062 1.291-2.75 2.158-1.129 1.423-1.25 1.412-1.25-.115 0-.93-.69-1.691-1.534-1.691-2.026 0-1.751 21.077.284 21.752.931.309 1.25-1.657 1.25-7.714C36 227.336 38.25 223 42.763 223c4.43 0 5.586 2.271 6.045 11.873.24 5.02.832 9.127 1.314 9.127 1.405 0 1.066-18.361-.375-20.332-1.315-1.798-7.184-3.014-9.747-2.02m53.831.882c-5.546 3.011-6.372 14.887-1.337 19.218 3.402 2.926 9.275 3.008 12.871.179C107.929 239.91 109.008 236 107 236c-.55 0-1 .45-1 1 0 4.469-8.546 6.477-11.961 2.811-4.676-5.019-2.976-6.811 6.461-6.811 9.155 0 9.312-.12 7.106-5.401-2.549-6.101-8.108-8.147-13.775-5.069m27.504-.53c-1.19.48-2.639 1.689-3.219 2.686-.966 1.661-1.058 1.624-1.086-.436-.018-1.342-.649-2.25-1.564-2.25-2.026 0-1.751 21.077.284 21.752.927.308 1.25-1.557 1.25-7.214 0-7.981 2.346-12.538 6.455-12.538.85 0 1.545-.675 1.545-1.5 0-1.682-.548-1.757-3.665-.5m11.427.073c-6.08 3.543-4.12 8.702 4.329 11.393 6.768 2.155 8.247 4.053 5.388 6.913-2.456 2.455-7.192 2.034-9.891-.879-2.659-2.869-3.588-3.128-3.588-1 0 2.971 3.805 5.5 8.277 5.5 5.833 0 8.723-2.18 8.723-6.578 0-3.754-.476-4.104-8.991-6.604-4.986-1.463-6.469-4.277-3.427-6.502 2.699-1.973 5.225-1.599 8.009 1.184 3.027 3.027 4.406 3.203 3.691.469-1.107-4.232-8.17-6.43-12.52-3.896m84.126.372c-5.723 3.23-6.585 14.838-1.431 19.272 8.106 6.972 19.477-1.819 16.527-12.777-1.784-6.623-9.207-9.817-15.096-6.495m84.384-.234c-2.135 1.03-3.985 4.41-2.969 5.425.267.267 1.637-.667 3.045-2.075 2.899-2.899 6.752-3.318 9.081-.99 3.366 3.367 1.441 6.429-4.043 6.429-5.517 0-9.386 2.629-9.386 6.378 0 6.082 7.172 8.991 12.67 5.14 1.869-1.308 2.259-1.308 3.345 0 1.593 1.919 3.985 1.908 3.985-.018 0-.825-.402-1.5-.894-1.5s-1.06-3.644-1.262-8.098c-.493-10.859-5.33-14.669-13.572-10.691m58.031-.066c-4.702 2.383-6.697 11.259-3.793 16.875 4.471 8.645 17.302 5.973 18.978-3.951 1.599-9.461-7.218-16.964-15.185-12.924m29.049-.098c-1.181.447-2.445 1.294-2.809 1.883-.97 1.57-2.543 1.304-2.543-.43 0-.825-.45-1.5-1-1.5-.606 0-1 4.333-1 11s.394 11 1 11c.554 0 1-2.645 1-5.935 0-8.932 2.592-13.949 7.25-14.033.962-.018 1.75-.455 1.75-.973 0-1.512-1.341-1.884-3.648-1.012m13.871.51c-1.246.872-2.223 1.092-2.223.5 0-.581-.675-1.057-1.5-1.057-1.243 0-1.5 1.898-1.5 11.083 0 8.421.3 10.984 1.25 10.67.83-.275 1.347-3.146 1.54-8.542.263-7.387.526-8.314 2.885-10.17 6.255-4.92 9.325-1.533 9.325 10.288 0 7.041.282 8.671 1.5 8.671 2.898 0 2.085-17.506-.955-20.545-2.831-2.832-7.04-3.198-10.322-.898m32.412.516c-1.449 1.139-2.635 2.714-2.635 3.5 0 2.055.953 1.77 3.588-1.073 3.935-4.247 10.972-2.5 10.257 2.546-.3 2.119-1.048 2.534-5.788 3.213-8.384 1.201-12.008 6.76-7.228 11.086 2.339 2.117 9.474 2.2 11.192.13 1.134-1.367 1.441-1.367 2.951 0 2.149 1.944 4.028 1.956 4.028.025 0-.825-.45-1.5-1-1.5-.578 0-1-3.182-1-7.545 0-11.364-6.836-16.305-14.365-10.382m-376.419 9.596c.198 7.435.663 10.794 1.534 11.083.95.315 1.25-2.247 1.25-10.669 0-9.294-.248-11.083-1.534-11.083-1.3 0-1.49 1.624-1.25 10.669m10.391-3.919c1.424 3.713 3.27 8.686 4.103 11.052 2.276 6.469 3.959 5.127 8.393-6.689C85.569 221.211 85.382 222 83.737 222c-.695 0-2.569 3.844-4.164 8.542-1.595 4.698-3.218 8.739-3.607 8.979-.389.24-2.153-3.603-3.919-8.542-1.981-5.537-3.752-8.979-4.621-8.979-1.095 0-.832 1.503 1.181 6.75m83.609 3.919c.198 7.435.663 10.794 1.534 11.083.95.315 1.25-2.247 1.25-10.669 0-9.294-.248-11.083-1.534-11.083-1.3 0-1.49 1.624-1.25 10.669m23.065-9.419c.272.688 2.188 5.465 4.258 10.617 4.117 10.244 4.05 13.698-.303 15.62-2.746 1.213-2.905 2.513-.307 2.513 2.811 0 4.651-2.268 7.097-8.749 7.322-19.399 7.899-21.251 6.622-21.251-.725 0-2.5 3.437-4.005 7.75-3.979 11.408-3.909 11.396-7.684 1.288-2.042-5.469-3.927-9.038-4.774-9.038-.769 0-1.176.563-.904 1.25M332 233.083c0 8.422.3 10.984 1.25 10.669 2.035-.675 2.31-21.752.284-21.752-1.286 0-1.534 1.789-1.534 11.083m90-.083c0 9.111.258 11 1.5 11s1.5-1.889 1.5-11-.258-11-1.5-11-1.5 1.889-1.5 11m-327.545-7.545C90.109 229.8 91.092 231 99 231c5.647 0 7-.299 7-1.545 0-2.248-4.562-6.455-7-6.455-1.15 0-3.195 1.105-4.545 2.455m123.844-.952c-2.642 1.851-4.682 7.679-3.756 10.731 2.302 7.591 10.632 9.195 13.994 2.694 4.343-8.399-3.232-18.332-10.238-13.425m141.156.952c-5.208 5.208-2.013 16.545 4.663 16.545 8.459 0 11.041-14.328 3.225-17.89-3.608-1.643-5.166-1.378-7.888 1.345m-53.312 7.621c-6.86 1.348-8.893 4.031-5.572 7.353 3.811 3.81 11.429-.018 11.429-5.743 0-1.478-.337-2.637-.75-2.576-.413.06-2.71.495-5.107.966m133.857.022c-5.569 1.087-7.595 3.367-5.634 6.34 1.912 2.897 6.971 3.225 9.575.621 1.939-1.939 2.968-8.192 1.309-7.949-.413.06-2.775.505-5.25.988M8.295 260.107c-8.503 2.459-8.523 12.749-.028 14.894 12.585 3.179 16.287 6.519 12.214 11.02-4.147 4.582-14.698 2.946-16.063-2.492-.744-2.964-3.418-3.422-3.418-.585 0 4.845 4.306 7.556 12 7.556 6.62 0 7.359-.216 9.587-2.806 4.955-5.76 1.749-11.489-7.646-13.661-9.677-2.238-13.014-6.767-7.718-10.476 4.512-3.161 13.777-.203 13.777 4.398 0 .575.705 1.045 1.567 1.045 4.197 0-1.222-7.532-6.467-8.989-4.07-1.13-3.541-1.137-7.805.096M95 275.583c0 12.021.286 15.489 1.25 15.17.806-.266 1.354-2.958 1.544-7.583l.294-7.17h6.956c3.971 0 6.956-.429 6.956-1s-3-1-7-1h-7v-11h8c6.444 0 8-.292 8-1.5 0-1.228-1.722-1.5-9.5-1.5H95v15.583M208 262c0 1.111.667 2 1.5 2s1.5-.889 1.5-2-.667-2-1.5-2-1.5.889-1.5 2m-173.728 7.211c-2.227 1.075-3.97 4.424-2.873 5.521.32.32 1.689-.614 3.043-2.075C38.309 268.484 45 269.662 45 274.516c0 2.539-.334 2.7-8.218 3.966-4.595.737-6.782 2.813-6.782 6.434 0 5.454 7.612 8.145 12.786 4.521 2.023-1.417 2.377-1.417 3.794 0 1.975 1.975 3.42 2.002 3.42.063 0-.825-.404-1.5-.897-1.5-.494 0-1.056-3.861-1.25-8.581-.292-7.087-.691-8.827-2.294-10-2.257-1.65-8.077-1.758-11.287-.208m25.951.346c-1.246.872-2.223 1.092-2.223.5 0-.581-.675-1.057-1.5-1.057-1.242 0-1.5 1.889-1.5 11s.258 11 1.5 11c1.213 0 1.5-1.592 1.5-8.326 0-8.97 1.936-12.674 6.623-12.674 4.33 0 5.308 1.994 5.6 11.419.188 6.04.681 9.053 1.527 9.334 2.37.784 1.679-18.324-.75-20.753-2.414-2.414-7.656-2.63-10.777-.443m64.412.516c-2.184 1.718-2.635 1.803-2.635.5 0-.865-.675-1.573-1.5-1.573-1.242 0-1.5 1.889-1.5 11s.258 11 1.5 11c1.206 0 1.5-1.536 1.5-7.826 0-8.26 2.03-12.174 6.314-12.174.928 0 1.686-.675 1.686-1.5 0-2.107-2.266-1.865-5.365.573m12.712-.604c-2.269 1.589-3.799 5.531-2.147 5.531.557 0 1.897-1.125 2.979-2.5 2.28-2.899 6.823-3.355 9.25-.929 3.471 3.472 1.409 5.847-5.905 6.803-5.927.774-7.857 2.425-7.857 6.72 0 5.485 7.797 8.071 13.11 4.349 1.223-.856 2.223-1.129 2.223-.607 0 1.51 3.226 2.339 4.417 1.135.779-.788.592-1.373-.667-2.083-1.435-.81-1.75-2.406-1.75-8.881 0-7.023-.245-8.065-2.223-9.45-2.804-1.964-8.686-2.009-11.43-.088m26.688.219c-1.709 1.197-2.525 1.342-2.806.5-1.293-3.879-2.229.243-2.229 9.812 0 6.667.394 11 1 11 .562 0 1-2.784 1-6.351 0-10.138 2.395-14.649 7.779-14.649 3.93 0 5.221 3.07 5.221 12.412 0 6.563.313 8.649 1.25 8.332.879-.298 1.25-3.166 1.25-9.674 0-8.516-.188-9.402-2.361-11.16-2.918-2.361-6.925-2.449-10.104-.222m24.267-.676c-6.661 2.682-6.913 17.45-.357 20.958 5.183 2.774 14.055-.65 14.055-5.425 0-2.377-1.401-1.846-3.842 1.455-5.706 7.718-15.655-1.089-11.76-10.411 2.453-5.87 8.046-7.383 11.423-3.089 2.017 2.564 4.179 3.316 4.179 1.455 0-4.268-8.109-7.194-13.698-4.943m31.921.545c-5.084 3.561-2.453 8.826 5.413 10.833 4.994 1.274 7.075 3.314 6.066 5.944-1.477 3.848-10.165 3.208-11.713-.862-1.041-2.739-2.989-3.343-2.989-.927 0 3.112 4.662 6.455 9 6.455 10.231 0 11.969-10.816 2.008-12.499-5.072-.857-8.366-3.404-7.459-5.768 1.401-3.652 10.451-3.006 10.451.746 0 .836.675 1.521 1.5 1.521 2.202 0 1.833-1.758-.955-4.545-2.87-2.871-7.933-3.272-11.322-.898m23.28.693c-7.6 6.557-3.268 20.801 6.303 20.718 4.586-.039 9.194-3.749 9.194-7.402 0-1.545-2.65-.285-3.513 1.67-2.336 5.291-10.138 4.435-12.545-1.376-3.679-8.882 5.336-17.673 11.649-11.36 3.124 3.124 4.611 3.229 3.522.25-1.783-4.882-10.183-6.319-14.61-2.5m25.799-1.238c-4.763 1.918-6.821 11.149-3.792 17.008 4.137 8 15.95 6.216 18.435-2.784 2.776-10.054-5.363-17.961-14.643-14.224M208 280c0 9.111.258 11 1.5 11s1.5-1.889 1.5-11-.258-11-1.5-11-1.5 1.889-1.5 11m62.656-8.867c-2.604 1.514-4.819 7.336-4.042 10.625 1.88 7.95 10.443 9.9 13.923 3.17 4.379-8.467-2.507-18.082-9.881-13.795M39 280.098c-5.569 1.087-7.595 3.367-5.634 6.34C36.473 291.146 45 287.84 45 281.927c0-1.61-.337-2.878-.75-2.817-.413.06-2.775.505-5.25.988m103.802-.149c-6.315 1.228-8.442 4.269-5.231 7.48 3.641 3.64 11.429-.369 11.429-5.884 0-2.684-.259-2.751-6.198-1.596" fill-rule="evenodd"/></svg>