<?xml version="1.0" standalone="no"?>
<!DOCTYPE svg PUBLIC "-//W3C//DTD SVG 20010904//EN"
 "http://www.w3.org/TR/2001/REC-SVG-20010904/DTD/svg10.dtd">
<svg version="1.0" xmlns="http://www.w3.org/2000/svg"
 width="452.000000pt" height="292.000000pt" viewBox="0 0 452.000000 292.000000"
 preserveAspectRatio="xMidYMid meet">

<g transform="translate(0.000000,292.000000) scale(0.100000,-0.100000)"
fill="#000000" stroke="none">
<path d="M1472 2905 c-217 -47 -378 -212 -427 -436 -13 -61 -13 -53 -14 179
l-1 242 -129 0 -130 0 -3 -417 c-3 -381 -5 -422 -22 -461 -37 -85 -105 -116
-241 -110 -123 5 -188 49 -215 147 -6 21 -10 200 -10 439 l0 402 -130 0 -130
0 0 -418 c0 -339 3 -429 15 -475 43 -164 146 -262 322 -303 96 -23 304 -15
388 15 73 26 155 81 190 127 57 74 93 192 96 309 1 37 2 35 14 -23 36 -164
154 -318 295 -385 99 -47 176 -61 303 -55 117 6 187 27 269 81 l53 36 60 -29
c33 -16 130 -45 215 -65 295 -70 340 -93 340 -177 0 -86 -54 -131 -178 -149
-73 -11 -174 1 -222 26 -41 21 -75 67 -90 119 l-13 46 -115 0 -115 0 5 -63
c12 -150 137 -275 318 -318 72 -17 270 -17 340 0 151 38 262 134 301 261 4 14
8 -35 8 -117 l1 -143 130 0 130 0 0 245 0 245 250 0 250 0 0 100 0 100 -247 2
-248 3 0 135 0 135 283 3 282 2 0 110 0 110 -415 0 -415 0 -1 -382 c-1 -211
-4 -369 -8 -353 -20 80 -92 157 -181 193 -30 12 -140 42 -243 67 -214 51 -261
71 -284 120 -14 29 -14 41 -4 74 22 76 114 118 239 109 111 -8 180 -56 202
-139 l11 -39 116 0 116 0 -6 54 c-8 80 -42 148 -101 204 -95 90 -195 125 -356
125 -169 0 -275 -36 -359 -122 -49 -50 -70 -91 -95 -182 -37 -134 -129 -209
-255 -209 -128 0 -215 52 -270 160 -41 84 -54 157 -48 270 7 135 35 208 106
281 46 47 67 60 115 74 149 43 302 -28 346 -161 l12 -34 124 0 c118 0 124 1
124 20 0 35 -40 143 -72 193 -107 167 -347 252 -576 202z"/>
<path d="M20 681 c0 -165 21 -201 120 -201 101 0 120 31 120 195 0 96 -3 115
-15 115 -12 0 -15 -19 -15 -110 0 -119 -9 -152 -47 -169 -38 -17 -69 -13 -100
13 -27 24 -28 27 -31 145 -3 96 -7 121 -18 121 -11 0 -14 -22 -14 -109z"/>
<path d="M580 770 c0 -11 7 -20 15 -20 8 0 15 9 15 20 0 11 -7 20 -15 20 -8 0
-15 -9 -15 -20z"/>
<path d="M1520 770 c0 -11 7 -20 15 -20 8 0 15 9 15 20 0 11 -7 20 -15 20 -8
0 -15 -9 -15 -20z"/>
<path d="M2416 774 c-9 -8 -16 -29 -16 -45 0 -22 -5 -29 -20 -29 -11 0 -20 -4
-20 -10 0 -5 9 -10 20 -10 19 0 20 -7 20 -100 0 -82 3 -100 15 -100 12 0 15
18 15 100 0 93 1 100 20 100 11 0 20 5 20 10 0 6 -9 10 -20 10 -16 0 -20 7
-20 30 0 28 8 35 38 31 6 -1 12 5 12 14 0 20 -44 20 -64 -1z"/>
<path d="M2706 769 c-39 -31 -56 -71 -56 -134 0 -98 49 -155 135 -155 63 0 99
21 119 70 20 49 20 50 2 50 -8 0 -18 -10 -21 -22 -19 -62 -88 -93 -144 -64
-40 21 -61 63 -61 121 0 57 21 100 60 120 47 24 78 19 117 -20 19 -19 39 -35
44 -35 19 0 7 33 -22 61 -27 25 -39 29 -89 29 -43 0 -64 -5 -84 -21z"/>
<path d="M3220 635 c0 -131 2 -155 15 -155 13 0 15 24 15 155 0 131 -2 155
-15 155 -13 0 -15 -24 -15 -155z"/>
<path d="M3320 770 c0 -11 7 -20 15 -20 8 0 15 9 15 20 0 11 -7 20 -15 20 -8
0 -15 -9 -15 -20z"/>
<path d="M3446 768 c-9 -12 -16 -33 -16 -45 0 -14 -6 -23 -15 -23 -8 0 -15 -4
-15 -10 0 -5 7 -10 15 -10 12 0 15 -18 15 -100 0 -82 3 -100 15 -100 12 0 15
18 15 100 0 93 1 100 20 100 11 0 20 4 20 9 0 5 -9 11 -20 14 -25 7 -26 43 -1
56 10 6 21 7 25 4 3 -3 6 1 6 10 0 25 -46 21 -64 -5z"/>
<path d="M4220 770 c0 -11 7 -20 15 -20 8 0 15 9 15 20 0 11 -7 20 -15 20 -8
0 -15 -9 -15 -20z"/>
<path d="M1640 739 c0 -22 -5 -32 -20 -36 -11 -3 -20 -9 -20 -14 0 -5 9 -9 20
-9 19 0 20 -7 20 -94 0 -99 3 -106 51 -106 25 0 24 16 -1 23 -18 5 -20 14 -20
91 0 79 2 86 20 86 11 0 20 5 20 10 0 6 -9 10 -20 10 -16 0 -20 7 -20 35 0 24
-5 35 -15 35 -10 0 -15 -10 -15 -31z"/>
<path d="M382 694 c-12 -8 -22 -10 -22 -5 0 6 -7 11 -15 11 -12 0 -15 -19 -15
-110 0 -91 3 -110 15 -110 12 0 15 15 15 79 0 87 14 115 60 126 45 11 63 -22
68 -120 3 -47 8 -85 13 -85 5 0 9 43 9 95 0 82 -3 98 -20 115 -24 24 -77 26
-108 4z"/>
<path d="M937 699 c-51 -30 -64 -138 -21 -188 22 -27 33 -31 73 -31 37 0 52 5
69 23 22 23 30 57 14 57 -5 0 -18 -13 -30 -30 -29 -39 -72 -41 -101 -4 -12 15
-21 35 -21 45 0 17 9 19 86 19 85 0 86 0 80 23 -3 12 -6 27 -6 33 0 6 -12 23
-26 38 -28 28 -83 35 -117 15z m99 -33 c7 -6 15 -21 19 -33 6 -22 4 -23 -64
-23 -73 0 -80 5 -60 41 19 37 76 45 105 15z"/>
<path d="M1220 703 c-8 -3 -23 -12 -32 -21 -16 -14 -18 -13 -18 1 0 10 -7 17
-15 17 -12 0 -15 -19 -15 -110 0 -91 3 -110 15 -110 12 0 15 14 15 64 0 83 13
115 50 129 17 6 30 17 30 24 0 14 -6 15 -30 6z"/>
<path d="M1316 689 c-48 -38 -22 -91 52 -104 22 -3 48 -15 58 -26 16 -18 16
-20 -1 -39 -26 -29 -71 -26 -101 7 -28 30 -42 24 -26 -12 21 -45 121 -49 154
-4 31 41 12 74 -56 94 -30 9 -59 22 -65 29 -30 35 32 69 75 41 13 -8 24 -20
24 -25 0 -6 7 -10 15 -10 22 0 18 18 -10 45 -30 31 -82 33 -119 4z"/>
<path d="M2149 681 c-25 -25 -29 -37 -29 -84 0 -45 5 -61 26 -86 22 -27 33
-31 73 -31 79 0 124 66 101 149 -22 82 -113 109 -171 52z m118 -15 c38 -33 40
-102 4 -140 -64 -68 -155 17 -117 108 25 59 67 71 113 32z"/>
<path d="M3000 690 c-20 -20 -27 -50 -11 -50 5 0 15 9 22 20 21 30 61 35 90
11 34 -28 16 -54 -43 -62 -72 -11 -88 -23 -88 -69 0 -29 5 -42 19 -50 30 -15
97 -12 112 6 11 14 13 14 21 0 11 -20 48 -21 48 -1 0 8 -4 15 -10 15 -6 0 -10
32 -10 75 0 67 -3 79 -25 100 -31 32 -96 34 -125 5z m120 -115 c0 -33 -42 -75
-73 -75 -13 0 -32 9 -41 19 -34 37 1 63 107 80 4 0 7 -10 7 -24z"/>
<path d="M3584 692 c-32 -25 -44 -55 -44 -107 0 -38 5 -52 29 -76 24 -24 38
-29 76 -29 37 0 51 5 70 26 69 74 23 204 -72 204 -21 0 -48 -8 -59 -18z m107
-31 c33 -33 38 -75 14 -120 -38 -75 -135 -40 -135 49 0 50 14 78 43 90 36 14
47 12 78 -19z"/>
<path d="M3863 690 c-27 -16 -33 -17 -33 -5 0 8 -4 15 -10 15 -6 0 -10 -43
-10 -110 0 -126 15 -148 22 -33 5 68 8 79 32 100 15 13 34 23 42 23 8 0 14 7
14 15 0 20 -19 19 -57 -5z"/>
<path d="M4022 694 c-12 -8 -22 -10 -22 -5 0 6 -7 11 -15 11 -12 0 -15 -19
-15 -110 0 -90 3 -110 15 -110 11 0 15 19 17 86 3 82 5 88 31 108 26 19 30 19
55 5 26 -14 27 -18 30 -107 2 -73 6 -92 17 -92 12 0 15 17 15 86 0 81 -10 120
-34 136 -19 13 -71 9 -94 -8z"/>
<path d="M4342 690 c-25 -24 -29 -50 -7 -50 8 0 15 7 15 15 0 20 44 37 76 29
15 -4 27 -16 30 -31 8 -29 -8 -43 -48 -43 -33 0 -80 -17 -90 -33 -13 -20 -9
-65 8 -81 20 -21 97 -21 114 -1 12 14 15 14 30 0 21 -19 40 -19 40 0 0 8 -4
15 -10 15 -6 0 -10 33 -10 80 0 67 -3 83 -20 100 -28 28 -98 27 -128 0z m93
-167 c-44 -38 -95 -26 -95 23 0 23 31 39 90 46 37 5 41 -39 5 -69z"/>
<path d="M580 590 c0 -91 3 -110 15 -110 12 0 15 19 15 110 0 91 -3 110 -15
110 -12 0 -15 -19 -15 -110z"/>
<path d="M664 684 c61 -164 80 -205 94 -202 10 2 30 42 54 103 43 113 43 115
25 115 -8 0 -25 -35 -42 -82 -15 -46 -31 -86 -35 -91 -3 -4 -20 32 -37 80 -21
61 -36 89 -48 92 -14 2 -16 -1 -11 -15z"/>
<path d="M1522 593 c2 -74 7 -108 16 -111 9 -3 12 23 12 107 0 93 -2 111 -15
111 -13 0 -15 -16 -13 -107z"/>
<path d="M1750 695 c0 -2 18 -50 40 -105 22 -55 40 -107 40 -115 0 -20 -38
-57 -50 -50 -6 4 -10 -1 -10 -9 0 -20 43 -22 59 -3 9 11 111 271 111 283 0 2
-6 4 -14 4 -8 0 -25 -32 -41 -77 -15 -43 -31 -82 -35 -86 -4 -5 -22 30 -40 77
-19 50 -38 86 -46 86 -8 0 -14 -2 -14 -5z"/>
<path d="M3320 590 c0 -91 3 -110 15 -110 12 0 15 19 15 110 0 91 -3 110 -15
110 -12 0 -15 -19 -15 -110z"/>
<path d="M4220 590 c0 -91 3 -110 15 -110 12 0 15 19 15 110 0 91 -3 110 -15
110 -12 0 -15 -19 -15 -110z"/>
<path d="M73 315 c-35 -15 -53 -41 -53 -77 0 -40 23 -59 95 -79 38 -10 79 -28
90 -39 18 -19 19 -23 5 -47 -32 -57 -141 -52 -163 8 -6 16 -17 29 -24 29 -23
0 -14 -41 16 -71 25 -25 37 -29 85 -29 68 0 101 14 116 51 25 60 -17 110 -104
124 -56 9 -86 30 -86 60 0 54 91 75 135 30 14 -13 25 -29 25 -35 0 -5 7 -10
15 -10 38 0 -1 65 -51 86 -41 17 -60 17 -101 -1z"/>
<path d="M950 164 c0 -120 3 -155 13 -152 8 3 13 30 15 76 l3 72 69 0 c40 0
70 4 70 10 0 6 -30 10 -70 10 l-70 0 0 55 0 55 80 0 c64 0 80 3 80 15 0 12
-17 15 -95 15 l-95 0 0 -156z"/>
<path d="M2080 300 c0 -11 7 -20 15 -20 8 0 15 9 15 20 0 11 -7 20 -15 20 -8
0 -15 -9 -15 -20z"/>
<path d="M330 220 c-19 -19 -27 -50 -14 -50 4 0 17 11 30 25 25 27 53 32 85
15 42 -23 12 -70 -46 -70 -14 0 -39 -7 -55 -15 -24 -13 -30 -22 -30 -49 0 -19
8 -40 18 -49 24 -22 95 -22 112 -2 12 14 15 14 30 0 21 -19 40 -19 40 0 0 8
-4 15 -10 15 -6 0 -10 33 -10 80 0 99 -15 120 -85 120 -32 0 -51 -6 -65 -20z
m120 -119 c0 -59 -85 -92 -116 -45 -25 36 8 58 109 73 4 1 7 -12 7 -28z"/>
<path d="M602 224 c-12 -8 -22 -10 -22 -5 0 6 -7 11 -15 11 -12 0 -15 -19 -15
-110 0 -91 3 -110 15 -110 12 0 15 16 15 80 0 73 3 83 25 105 13 14 32 25 42
25 40 0 48 -16 53 -111 3 -61 9 -94 18 -97 9 -3 12 20 12 92 0 83 -3 99 -20
116 -24 24 -77 26 -108 4z"/>
<path d="M1255 228 c-11 -6 -23 -16 -27 -22 -5 -7 -8 -4 -8 7 0 9 -7 17 -15
17 -12 0 -15 -19 -15 -110 0 -91 3 -110 15 -110 12 0 15 15 15 75 0 67 3 79
25 100 13 14 31 25 40 25 8 0 15 7 15 15 0 18 -17 19 -45 3z"/>
<path d="M1365 215 c-26 -25 -32 -45 -15 -45 5 0 20 11 34 25 29 29 52 31 84
9 44 -31 22 -57 -58 -67 -72 -9 -103 -64 -60 -107 24 -24 87 -27 115 -6 16 11
21 11 33 0 7 -8 20 -14 28 -14 19 0 18 26 -1 34 -12 4 -15 23 -15 84 0 94 -13
112 -79 112 -31 0 -48 -6 -66 -25z m125 -113 c0 -52 -74 -89 -111 -56 -37 33
-18 60 52 73 51 9 59 6 59 -17z"/>
<path d="M1633 223 c-14 -9 -23 -11 -23 -4 0 6 -4 11 -10 11 -6 0 -10 -43 -10
-110 0 -67 4 -110 10 -110 6 0 10 28 11 63 0 84 17 128 52 140 21 7 34 5 52
-7 24 -15 25 -22 25 -106 0 -73 3 -90 15 -90 12 0 15 16 15 86 0 81 -10 120
-34 136 -19 13 -80 8 -103 -9z"/>
<path d="M1864 217 c-23 -20 -28 -34 -32 -85 -4 -58 -3 -63 26 -92 40 -40 101
-42 137 -5 14 13 25 31 25 40 0 22 -27 19 -33 -5 -3 -11 -17 -25 -32 -32 -80
-36 -135 106 -64 165 29 24 56 21 85 -8 14 -14 29 -25 34 -25 17 0 11 20 -15
45 -33 34 -93 34 -131 2z"/>
<path d="M2202 224 c-25 -17 -30 -65 -8 -83 7 -6 37 -18 65 -27 59 -17 72 -36
46 -64 -26 -29 -62 -25 -95 10 -33 35 -40 37 -40 10 0 -57 114 -84 158 -37 42
44 18 89 -57 107 -28 6 -55 18 -61 25 -29 34 34 68 76 40 13 -8 24 -20 24 -25
0 -6 7 -10 15 -10 21 0 19 26 -5 50 -24 24 -86 27 -118 4z"/>
<path d="M2435 218 c-50 -43 -50 -143 0 -185 26 -23 75 -30 110 -17 14 6 45
53 45 69 0 16 -28 1 -38 -20 -15 -32 -55 -42 -88 -21 -51 34 -56 118 -7 156
34 27 59 25 87 -5 24 -26 46 -33 46 -15 0 6 -11 22 -25 35 -32 33 -93 34 -130
3z"/>
<path d="M2669 211 c-25 -26 -29 -37 -29 -86 0 -49 4 -60 29 -86 61 -60 160
-28 176 57 21 113 -99 192 -176 115z m118 -15 c23 -20 28 -32 28 -71 0 -39 -5
-51 -28 -71 -33 -28 -54 -30 -85 -9 -44 32 -45 121 -1 158 29 23 53 21 86 -7z"/>
<path d="M2080 120 c0 -91 3 -110 15 -110 12 0 15 19 15 110 0 91 -3 110 -15
110 -12 0 -15 -19 -15 -110z"/>
</g>
</svg>
