<?xml version="1.0" encoding="utf-8"?>
<!-- Generator: Adobe Illustrator 24.2.0, SVG Export Plug-In . SVG Version: 6.00 Build 0)  -->
<svg version="1.1" id="Layer_1" xmlns="http://www.w3.org/2000/svg" xmlns:xlink="http://www.w3.org/1999/xlink" x="0px" y="0px"
	 viewBox="0 0 234.3 147.7" style="enable-background:new 0 0 234.3 147.7;" xml:space="preserve">
<style type="text/css">
	.st0{fill:#00264F;}
</style>
<g>
	<g>
		<path class="st0" d="M12.1,106.1h1.4v8.7c0,3.3,1.6,4.7,4.1,4.7c2.7,0,4.3-1.2,4.3-4.7v-8.7h1.4v9.1c0,2.9-1.6,5.4-5.6,5.4
			c-3.9,0-5.4-2.5-5.4-5.4V106.1z"/>
		<path class="st0" d="M26.6,110.2h1.2v1.7l0,0c0.4-1.2,1.7-2.1,3.3-2.1c2.9,0,3.7,1.6,3.7,3.9v6.8h-1.2V114c0-1.7-0.6-3.1-2.5-3.1
			s-3.1,1.6-3.3,3.5v6h-1.2C26.6,120.4,26.6,110.2,26.6,110.2z"/>
		<path class="st0" d="M38.3,106.1h1.2v1.9h-1.2V106.1z M38.3,110.2h1.2v10.3h-1.2V110.2z"/>
		<path class="st0" d="M41.7,110.2h1.4l3.3,9.1l0,0l3.1-9.1h1.4L47,120.4h-1.4L41.7,110.2z"/>
		<path class="st0" d="M53.8,115.6c0,1.7,1,4.1,3.3,4.1c1.7,0,2.9-1.2,3.3-2.7h1.2c-0.6,2.3-1.9,3.7-4.5,3.7c-3.3,0-4.7-2.5-4.7-5.4
			c0-2.7,1.4-5.4,4.7-5.4s4.7,2.9,4.5,5.8H53.8z M60.4,114.6c0-1.9-1.2-3.7-3.3-3.7s-3.1,1.7-3.3,3.7H60.4z"/>
		<path class="st0" d="M64.2,110.2h1.2v2.3l0,0c0.6-1.7,1.9-2.7,3.9-2.5v1.2c-2.3-0.2-3.9,1.6-3.9,3.7v5.6h-1.2
			C64.2,120.4,64.2,110.2,64.2,110.2z"/>
		<path class="st0" d="M77.6,113.1c0-1.6-1.2-2.3-2.7-2.3c-1.2,0-2.5,0.4-2.5,1.7c0,1.2,1.4,1.6,2.1,1.7l1.7,0.4
			c1.4,0.2,2.9,1,2.9,2.9c0,2.3-2.1,3.1-4.1,3.1c-2.3,0-4.1-1.2-4.3-3.7H72c0.2,1.7,1.4,2.5,3.1,2.5c1.2,0,2.7-0.6,2.7-1.9
			c0-1.2-1.2-1.6-2.3-1.9l-1.6-0.4c-1.6-0.4-2.9-1-2.9-2.7c0-2.1,2.1-2.9,3.9-2.9c2.1,0,3.7,1.2,3.7,3.3h-1V113.1z"/>
		<path class="st0" d="M82.1,106.1h1.2v1.9h-1.2V106.1z M82.1,110.2h1.2v10.3h-1.2V110.2z"/>
		<path class="st0" d="M88.7,110.2h2.1v1h-2.1v7c0,0.8,0.2,1.4,1,1.4c0.4,0,0.8,0,1.2,0v1c-0.4,0-0.8,0-1.2,0
			c-1.7,0-2.3-0.6-2.3-2.3v-7h-1.7v-1h1.7v-3.1h1.2v3.1H88.7z"/>
		<path class="st0" d="M92.3,110.2h1.4l3.3,8.7l3.1-8.7h1.2L96.8,122c-0.8,1.7-1.2,2.3-2.7,2.3c-0.6,0-0.8,0-1-0.2v-1
			c0.4,0,0.6,0.2,0.8,0.2c1.2,0,1.4-0.6,1.7-1.6l0.4-1.2L92.3,110.2z"/>
		<path class="st0" d="M119.3,115.2c0,2.9-1.7,5.4-4.8,5.4s-4.8-2.5-4.8-5.4s1.7-5.4,4.8-5.4C117.5,109.8,119.3,112.3,119.3,115.2z
			 M110.8,115.2c0,2.1,1.2,4.5,3.7,4.5c2.3,0,3.7-2.1,3.7-4.5c0-2.1-1.2-4.5-3.7-4.5C111.9,110.9,110.8,113.1,110.8,115.2z"/>
		<path class="st0" d="M126.1,111.1h-1.9v9.3H123v-9.3H121v-1h1.7v-1c0-1.7,0.4-3.1,2.5-3.1c0.4,0,0.6,0,1,0v1.2
			c-0.4,0-0.6-0.2-1-0.2c-1.4,0-1.4,1-1.4,1.9v1h1.9v1.2H126.1z"/>
		<path class="st0" d="M145.3,110.5c-0.4-2.1-2.3-3.5-4.5-3.5c-3.7,0-5.4,3.1-5.4,6.2c0,3.1,1.6,6.2,5.4,6.2c2.7,0,4.3-1.9,4.7-4.7
			h1.4c-0.4,3.5-2.5,5.6-6,5.6c-4.5,0-6.8-3.5-6.8-7.4c0-3.9,2.3-7.4,6.8-7.4c2.7,0,5.4,1.6,5.6,4.7h-1.2V110.5z"/>
		<path class="st0" d="M149.5,113.3c0.2-2.3,1.7-3.5,4.1-3.5c1.7,0,3.9,0.6,3.9,3.3v5.4c0,0.4,0.2,0.8,0.8,0.8c0.2,0,0.4,0,0.4,0v1
			c-0.2,0-0.4,0-0.8,0c-1.4,0-1.6-0.8-1.6-1.7l0,0c-1,1.4-1.7,2.1-3.7,2.1c-1.9,0-3.5-1-3.5-3.1c0-2.9,2.7-2.9,5.4-3.3
			c1-0.2,1.6-0.2,1.6-1.4c0-1.7-1.2-2.1-2.7-2.1s-2.7,0.8-2.7,2.3h-1.2V113.3z M156.1,114.8L156.1,114.8c-0.2,0.4-0.8,0.4-1.2,0.4
			c-2.1,0.4-4.8,0.4-4.8,2.3c0,1.2,1.2,1.9,2.3,1.9c1.9,0,3.7-1.2,3.5-3.3v-1.4H156.1z"/>
		<path class="st0" d="M161,106.1h1.2v14.3H161V106.1z"/>
		<path class="st0" d="M165.4,106.1h1.2v1.9h-1.2V106.1z M165.4,110.2h1.2v10.3h-1.2V110.2z"/>
		<path class="st0" d="M174.1,111.1h-1.9v9.3H171v-9.3h-1.7v-1h1.7v-1c0-1.7,0.4-3.1,2.5-3.1c0.4,0,0.6,0,1,0v1.2
			c-0.4,0-0.6-0.2-1-0.2c-1.4,0-1.4,1-1.4,1.9v1h1.9C174.1,110,174.1,111.1,174.1,111.1z"/>
		<path class="st0" d="M185.4,115.2c0,2.9-1.7,5.4-4.8,5.4s-4.8-2.5-4.8-5.4s1.7-5.4,4.8-5.4C183.6,109.8,185.4,112.3,185.4,115.2z
			 M176.8,115.2c0,2.1,1.2,4.5,3.7,4.5c2.3,0,3.7-2.1,3.7-4.5c0-2.1-1.2-4.5-3.7-4.5C178.2,110.9,176.8,113.1,176.8,115.2z"/>
		<path class="st0" d="M188.3,110.2h1.2v2.3l0,0c0.6-1.7,1.9-2.7,3.9-2.5v1.2c-2.3-0.2-3.9,1.6-3.9,3.7v5.6h-1.2V110.2z"/>
		<path class="st0" d="M195.8,110.2h1.2v1.7l0,0c0.4-1.2,1.7-2.1,3.3-2.1c2.9,0,3.7,1.6,3.7,3.9v6.8h-1.2V114c0-1.7-0.6-3.1-2.5-3.1
			c-1.9,0-3.1,1.6-3.3,3.5v6h-1.2V110.2z"/>
		<path class="st0" d="M207.5,106.1h1.2v1.9h-1.2V106.1z M207.5,110.2h1.2v10.3h-1.2V110.2z"/>
		<path class="st0" d="M211.9,113.3c0.2-2.3,1.7-3.5,4.1-3.5c1.7,0,3.9,0.6,3.9,3.3v5.4c0,0.4,0.2,0.8,0.8,0.8c0.2,0,0.4,0,0.4,0v1
			c-0.2,0-0.4,0-0.8,0c-1.4,0-1.6-0.8-1.6-1.7l0,0c-1,1.4-1.7,2.1-3.7,2.1c-1.9,0-3.5-1-3.5-3.1c0-2.9,2.7-2.9,5.4-3.3
			c1-0.2,1.6-0.2,1.6-1.4c0-1.7-1.2-2.1-2.7-2.1c-1.6,0-2.7,0.8-2.7,2.3h-1.2V113.3z M218.5,114.8L218.5,114.8
			c-0.2,0.4-0.8,0.4-1.2,0.4c-2.1,0.4-4.8,0.4-4.8,2.3c0,1.2,1.2,1.9,2.3,1.9c1.9,0,3.7-1.2,3.5-3.3v-1.4H218.5z"/>
		<path class="st0" d="M12.9,137.5c0,2.9,2.1,3.9,4.7,3.9c1.6,0,3.7-0.8,3.7-2.9c0-1.6-1.6-2.3-2.9-2.5l-3.1-0.8
			c-1.7-0.4-3.3-1.2-3.3-3.5c0-1.4,1-4.1,4.8-4.1c2.7,0,5.2,1.6,5.2,4.5h-1.2c0-2.1-1.9-3.3-3.9-3.3s-3.5,0.8-3.5,2.9
			c0,1.4,1,1.9,2.1,2.1l3.5,0.8c1.9,0.6,3.7,1.4,3.7,3.7c0,1-0.4,4.1-5.4,4.1c-3.3,0-5.8-1.6-5.6-5h1.2V137.5z"/>
		<path class="st0" d="M25.3,135c0.2-2.3,1.7-3.5,4.1-3.5c1.7,0,3.9,0.6,3.9,3.3v5.4c0,0.4,0.2,0.8,0.8,0.8c0.2,0,0.4,0,0.4,0v1
			c-0.2,0-0.4,0-0.8,0c-1.4,0-1.6-0.8-1.6-1.7l0,0c-1,1.4-1.7,2.1-3.7,2.1s-3.5-1-3.5-3.1c0-2.9,2.7-2.9,5.4-3.3
			c1-0.2,1.6-0.2,1.6-1.4c0-1.7-1.2-2.1-2.7-2.1c-1.6,0-2.7,0.8-2.7,2.3h-1.2V135z M32.1,136.5L32.1,136.5c-0.2,0.4-0.8,0.4-1.2,0.4
			c-2.1,0.4-4.8,0.4-4.8,2.3c0,1.2,1.2,1.9,2.3,1.9c1.9,0,3.7-1.2,3.5-3.3v-1.4H32.1z"/>
		<path class="st0" d="M36.7,131.9h1.2v1.7l0,0c0.4-1.2,1.7-2.1,3.3-2.1c2.9,0,3.7,1.6,3.7,3.9v6.6h-1.2v-6.4c0-1.7-0.6-3.1-2.5-3.1
			c-1.9,0-3.1,1.6-3.3,3.5v6h-1.2V131.9z"/>
		<path class="st0" d="M55.1,128h9.1v1.2h-7.8v5.2h6.8v1.2h-6.8v6.8h-1.4V128z"/>
		<path class="st0" d="M66.6,131.9h1.2v2.3l0,0c0.6-1.7,1.9-2.7,3.9-2.5v1.2c-2.3-0.2-3.9,1.6-3.9,3.7v5.4h-1.2V131.9z"/>
		<path class="st0" d="M73.5,135c0.2-2.3,1.7-3.5,4.1-3.5c1.7,0,3.9,0.6,3.9,3.3v5.4c0,0.4,0.2,0.8,0.8,0.8c0.2,0,0.4,0,0.4,0v1
			c-0.2,0-0.4,0-0.8,0c-1.4,0-1.6-0.8-1.6-1.7l0,0c-1,1.4-1.7,2.1-3.7,2.1c-1.9,0-3.5-1-3.5-3.1c0-2.9,2.7-2.9,5.4-3.3
			c1-0.2,1.6-0.2,1.6-1.4c0-1.7-1.2-2.1-2.7-2.1c-1.6,0-2.7,0.8-2.7,2.3h-1.2V135z M80.3,136.5L80.3,136.5c-0.2,0.4-0.8,0.4-1.2,0.4
			c-2.1,0.4-4.8,0.4-4.8,2.3c0,1.2,1.2,1.9,2.3,1.9c1.9,0,3.7-1.2,3.7-3.3C80.3,137.9,80.3,136.5,80.3,136.5z"/>
		<path class="st0" d="M85,131.9h1.2v1.7l0,0c0.4-1.2,1.7-2.1,3.3-2.1c2.9,0,3.7,1.6,3.7,3.9v6.6h-1.2v-6.4c0-1.7-0.6-3.1-2.5-3.1
			c-1.9,0-3.1,1.6-3.3,3.5v6H85V131.9z"/>
		<path class="st0" d="M103.8,135.2c-0.4-1.6-1.4-2.5-2.9-2.5c-2.3,0-3.7,2.1-3.7,4.5c0,2.1,1.2,4.5,3.7,4.5c1.6,0,2.9-1.2,2.9-2.9
			h1.2c-0.4,2.5-1.9,4.1-4.3,4.1c-3.1,0-4.8-2.5-4.8-5.4c0-2.9,1.7-5.4,4.8-5.4c2.1,0,3.9,1.2,4.1,3.5h-1V135.2z"/>
		<path class="st0" d="M107.8,128h1.2v1.9h-1.2V128z M107.8,131.9h1.2v10.3h-1.2V131.9z"/>
		<path class="st0" d="M118.7,135c0-1.6-1.2-2.3-2.7-2.3c-1.2,0-2.5,0.4-2.5,1.7c0,1.2,1.4,1.6,2.1,1.7l1.7,0.4
			c1.4,0.2,2.9,1,2.9,2.9c0,2.3-2.1,3.1-4.1,3.1c-2.3,0-4.1-1.2-4.3-3.7h1.2c0.2,1.7,1.4,2.5,3.1,2.5c1.2,0,2.7-0.6,2.7-1.9
			c0-1.2-1.2-1.6-2.3-1.9l-1.4-0.2c-1.6-0.4-2.9-1-2.9-2.7c0-2.1,2.1-2.9,3.9-2.9c2.1,0,3.7,1.2,3.7,3.3
			C119.9,135,118.7,135,118.7,135z"/>
		<path class="st0" d="M130.3,135.2c-0.4-1.6-1.4-2.5-2.9-2.5c-2.3,0-3.7,2.1-3.7,4.5c0,2.1,1.2,4.5,3.7,4.5c1.6,0,2.9-1.2,2.9-2.9
			h1.2c-0.4,2.5-1.9,4.1-4.3,4.1c-3.1,0-4.8-2.5-4.8-5.4c0-2.9,1.7-5.4,4.8-5.4c2.1,0,3.9,1.2,4.1,3.5h-1V135.2z"/>
		<path class="st0" d="M143.5,137.1c0,2.9-1.7,5.4-4.8,5.4c-3.1,0-4.8-2.5-4.8-5.4s1.7-5.4,4.8-5.4
			C141.8,131.7,143.5,134,143.5,137.1z M135,137.1c0,2.1,1.2,4.5,3.7,4.5c2.3,0,3.7-2.1,3.7-4.5c0-2.1-1.2-4.5-3.7-4.5
			C136.1,132.6,135,134.8,135,137.1z"/>
	</g>
</g>
<path class="st0" d="M102.6,58.8c0.2,0.2,0.6,0.4,0.8,0.6c2.1,1.6,6.2,2.9,12,4.3l6,1.4c3.5,0.8,6,1.6,7.6,2.5
	c1.6,1,2.3,2.3,2.3,4.3c0,3.1-1.6,5.2-4.8,6.4c-1.7,0.6-3.9,1-6.8,1c-4.7,0-7.9-1.2-9.7-3.3c-1-1.2-1.7-3.1-2.1-5.6H97
	c0,5.6,2.1,10.3,6.2,13.4c4.1,3.3,9.9,4.8,17.1,4.8c7,0,12.6-1.7,16.5-5c3.5-3.1,5.4-6.8,5.8-11.2l0,0v15.5h12.2V64.6h23.1v-9.5
	h-23.5V42.3h26.7V32h-38.8v37.6l0,0c-0.2-4.5-1.7-7.8-4.8-10.3c-2.3-1.7-5.6-3.1-9.5-4.1c-2.1-0.6-7.9-1.9-9.7-2.3
	c-1.7-0.4-5.4-1.2-7.4-2.3c-1.9-1-2.7-2.7-2.7-4.5c0-2.3,1-3.9,2.7-5c1.9-1.4,4.5-1.7,7.2-1.7c5.8,0,10.9,2.1,11.2,8.3h11
	c-0.2-5.8-2.3-10.3-6.4-13.4c-4.1-3.1-9.1-4.7-14.9-4.7c-7,0-12.2,1.6-15.9,4.8c-2.1,1.9-3.7,4.3-4.7,7c0,0-0.2,0.4-0.2,1
	c-0.2,0.4-0.2,0.8-0.2,0.8l0,0c-1.4,6.4-5.4,10.7-12.2,10.7C75.1,53.9,71,44.6,71,35.5c0-9.7,4.1-19,14.9-19c6,0,11.2,4.3,12,9.7
	h11.8C108.2,13.4,98.2,6.5,85.9,6.5C69.7,6.5,59.8,18.1,59,33.4v-25H46.8v34.3c0,8.1-2.7,12-11.4,12c-9.9,0-11.4-6-11.4-12V8.4h-12
	v34.3c0,14.9,8.7,22.1,23.5,22.1S59,57.6,59,42.7v-4.3C60,53.4,69.9,65,85.9,65C92.7,64.8,98.3,62.7,102.6,58.8L102.6,58.8z"/>
</svg>
