<svg xmlns="http://www.w3.org/2000/svg" width="1352" height="1352" viewBox="0 0 1352 1352" version="1.1"><path d="M 502 309.898 C 501.175 310.381, 498.025 311.088, 495 311.468 C 491.975 311.848, 488.150 312.544, 486.500 313.015 C 484.850 313.485, 480.575 314.651, 477 315.604 C 473.425 316.558, 470.072 317.712, 469.550 318.169 C 469.027 318.626, 467.983 319, 467.229 319 C 464.425 319, 445.040 329.205, 437.141 334.840 C 416.252 349.742, 399.227 371.167, 388.939 395.500 C 384.474 406.060, 379.874 421.872, 378.375 431.812 C 376.635 443.347, 375.995 429.551, 375.758 375.458 L 375.500 316.500 342.500 316.500 L 309.500 316.500 308.913 416.500 C 308.325 516.651, 308.048 524.366, 304.622 535.902 C 297.342 560.414, 279.763 570.928, 246 570.963 C 214.648 570.995, 196.289 560.735, 187.911 538.500 C 183.649 527.189, 183.692 528.251, 183.083 420 L 182.500 316.500 150.119 316.236 C 127.058 316.048, 117.345 316.299, 116.369 317.108 C 115.228 318.056, 115.002 333.905, 115.010 412.372 C 115.021 506.076, 115.487 522.542, 118.588 538.780 C 127.172 583.716, 154.605 612.240, 199.500 622.912 C 204.450 624.089, 210.750 625.582, 213.500 626.230 C 220.093 627.784, 269.613 627.763, 276.500 626.204 C 279.250 625.581, 284.875 624.348, 289 623.464 C 303.105 620.440, 314.963 615.766, 326.251 608.781 C 343.921 597.847, 354.632 585.937, 363.376 567.500 C 370.579 552.312, 374.150 536.844, 375.556 514.735 C 375.933 508.814, 376.586 503.756, 377.008 503.495 C 377.431 503.234, 378.091 505.153, 378.477 507.760 C 382.342 533.914, 399.185 567.101, 418.401 586.428 C 430.737 598.834, 440.366 605.712, 455.500 612.927 C 470.318 619.991, 477.547 622.378, 494 625.640 C 504.204 627.662, 543.676 628.103, 551.008 626.276 C 553.478 625.661, 558.650 624.408, 562.500 623.494 C 574.780 620.576, 582.237 617.494, 597.500 609.029 C 600.800 607.198, 603.725 605.428, 604 605.095 C 604.922 603.977, 615.907 596, 616.524 596 C 616.859 596, 618.566 597.090, 620.317 598.421 C 624.440 601.557, 632.288 605.471, 640.754 608.613 C 647.715 611.197, 664.590 616.376, 669 617.282 C 670.375 617.565, 675.325 618.744, 680 619.903 C 684.675 621.062, 690.525 622.439, 693 622.964 C 695.475 623.489, 700.650 624.616, 704.500 625.469 C 708.350 626.321, 714.650 627.715, 718.500 628.567 C 742.369 633.846, 759.056 640.196, 766.038 646.655 C 771.740 651.931, 774 657.594, 774 666.607 C 774 674.940, 772.256 680.403, 767.598 686.663 C 764.348 691.030, 753.590 699, 750.944 699 C 750.095 699, 748.972 699.379, 748.450 699.842 C 747.927 700.305, 744.350 701.525, 740.500 702.552 C 730.400 705.248, 693.403 705.256, 684.500 702.565 C 662.762 695.993, 653.260 686.401, 647.734 665.448 L 645.374 656.500 615.661 656.235 C 588.919 655.997, 585.886 656.134, 585.321 657.607 C 584.203 660.519, 586.799 680.287, 589.313 688.007 C 600.106 721.154, 628.602 744.305, 669.500 753.153 C 691.697 757.955, 733.956 758.394, 752 754.009 C 766.470 750.493, 770.891 749.112, 776.331 746.407 C 777.888 745.633, 779.555 745, 780.035 745 C 782.004 745, 798.357 734.851, 803.651 730.343 C 817.196 718.811, 830.742 698.152, 832.604 686.188 C 834.186 676.029, 834.990 685.760, 835.237 718.037 L 835.500 752.500 868.500 752.500 L 901.500 752.500 902 690 L 902.500 627.500 966.267 627.243 L 1030.033 626.985 1029.767 600.743 L 1029.500 574.500 966.554 574.242 C 917.722 574.043, 903.432 573.706, 902.820 572.742 C 901.457 570.597, 901.817 507.583, 903.200 506.200 C 904.111 505.289, 921.644 505, 976 505 C 1030.356 505, 1047.889 504.711, 1048.800 503.800 C 1050.546 502.054, 1050.500 452.062, 1048.750 449.683 C 1047.585 448.100, 1040.268 448.001, 941.500 448.242 L 835.500 448.500 835.245 543.750 C 835.078 606.090, 834.646 639, 833.995 639 C 833.448 639, 833 638.109, 833 637.020 C 833 635.931, 832.276 633.119, 831.391 630.770 C 823.944 611.012, 811.566 597.837, 792 588.844 C 784.954 585.606, 774.149 581.680, 766.500 579.581 C 763.200 578.676, 759.118 577.499, 757.429 576.967 C 755.740 576.435, 753.458 576, 752.357 576 C 751.257 576, 748.364 575.374, 745.928 574.609 C 743.493 573.843, 738.800 572.670, 735.500 572.001 C 732.200 571.332, 728.150 570.352, 726.500 569.823 C 724.850 569.295, 721.475 568.470, 719 567.991 C 716.525 567.512, 711.575 566.393, 708 565.505 C 704.425 564.617, 699.925 563.517, 698 563.059 C 668.536 556.061, 657.026 550.637, 652.255 541.500 C 647.463 532.322, 647.643 522.173, 652.765 512.714 C 660.554 498.333, 682.817 489.819, 708.500 491.400 C 719.468 492.076, 730.206 493.872, 731.599 495.266 C 732.003 495.670, 733.039 496, 733.902 496 C 737.212 496, 746.663 501.733, 752.037 507 C 758.080 512.922, 762.314 520.669, 763.514 528 C 763.919 530.475, 764.633 533.513, 765.100 534.750 L 765.950 537 796.065 537 L 826.180 537 825.493 528.250 C 822.847 494.518, 805.840 469.758, 773.928 453.175 C 760.140 446.011, 746.349 441.800, 728 439.154 C 718.457 437.778, 693.990 437.976, 682.500 439.523 C 668.499 441.408, 654.005 444.662, 652.382 446.285 C 651.988 446.678, 651.068 447, 650.336 447 C 647.682 447, 629.461 456.383, 627 459.016 C 626.725 459.311, 624.476 461.115, 622.001 463.026 C 615.586 467.981, 612.267 471.522, 606.447 479.626 C 599.594 489.167, 595.177 498.601, 592.464 509.488 C 583.473 545.573, 569.167 562.203, 540.809 569.535 C 535.457 570.919, 531.454 571.161, 520.809 570.745 C 513.489 570.459, 505.925 569.707, 504 569.074 C 502.075 568.442, 498.925 567.448, 497 566.866 C 484.826 563.187, 471.232 553.222, 463.063 541.992 C 460.279 538.163, 458 534.824, 458 534.572 C 458 534.320, 456.988 532.405, 455.750 530.315 C 451.730 523.527, 446.832 508.729, 444.429 496.110 C 442.440 485.664, 442.152 453.466, 443.967 444.435 C 446.303 432.808, 448.383 424.486, 449.185 423.550 C 449.633 423.027, 450 421.781, 450 420.779 C 450 418.322, 455.517 406.974, 460.590 399 C 462.864 395.425, 467.612 389.745, 471.142 386.379 C 477.737 380.087, 487.861 373, 490.252 373 C 490.993 373, 492.027 372.605, 492.550 372.123 C 494.005 370.780, 502.712 368.276, 510.500 366.961 C 519.993 365.359, 539.369 366.459, 545.500 368.948 C 546.600 369.395, 549.525 370.580, 552 371.583 C 562.341 375.769, 573.219 384.301, 579.946 393.500 C 583.742 398.692, 589 409.074, 589 411.378 C 589 412.106, 589.494 414.119, 590.098 415.851 L 591.196 419 623.598 419 C 654.446 419, 656 418.911, 656 417.152 C 656 413.969, 652.327 397.777, 650.164 391.422 C 638.048 355.832, 610.723 329.041, 574 316.748 C 569.875 315.367, 564.925 313.910, 563 313.509 C 561.075 313.109, 556.350 312.083, 552.500 311.230 C 544.580 309.474, 504.527 308.418, 502 309.898 M 817.500 854.921 C 811.179 856.693, 807.041 859.107, 802.355 863.756 C 788.472 877.531, 786.366 902.518, 797.569 920.535 C 801.288 926.516, 805.391 930.153, 811.795 933.144 C 818.273 936.171, 836.621 936.435, 842 933.579 C 843.925 932.557, 845.725 931.446, 846 931.110 C 846.275 930.775, 847.400 930.016, 848.500 929.424 C 853.304 926.840, 862.469 908.186, 860.500 905.001 C 860.160 904.450, 858.351 904, 856.480 904 C 853.274 904, 852.994 904.281, 851.631 908.872 C 849.484 916.101, 847.500 919.416, 843.034 923.239 C 832.065 932.628, 814.340 930.266, 805.814 918.280 C 800.814 911.250, 798.989 904.958, 798.995 894.770 C 799.001 884.062, 801.718 875.816, 807.412 869.226 C 813.377 862.323, 826.938 859.093, 836.288 862.349 C 840.806 863.922, 847.079 869.794, 849.648 874.854 C 851.856 879.200, 852.769 879.964, 855.781 879.985 C 858.782 880.005, 859.381 878.128, 858.004 873.014 C 856.568 867.682, 850.732 861.327, 843.852 857.603 C 839.285 855.132, 837.180 854.661, 829.500 854.393 C 824.550 854.221, 819.150 854.458, 817.500 854.921 M 117.667 855.667 C 117.300 856.033, 117 869.111, 117 884.729 C 117 915.909, 117.523 919.539, 122.962 926.137 C 124.517 928.024, 128.199 930.897, 131.144 932.522 C 136.162 935.290, 137.194 935.477, 147.500 935.481 C 156.974 935.485, 159.153 935.165, 163.206 933.175 C 168.805 930.426, 173.482 925.375, 176.113 919.236 C 177.880 915.114, 178.009 912.457, 177.765 885.133 L 177.500 855.500 174.250 855.187 C 172.463 855.014, 170.999 855.239, 170.998 855.687 C 170.997 856.134, 170.847 868.875, 170.665 884 C 170.295 914.614, 169.863 917.137, 163.984 923.016 C 155.883 931.117, 139.102 931.116, 131.024 923.013 C 125.583 917.555, 125 913.694, 125 883.093 C 125 859.505, 124.806 856.140, 123.418 855.607 C 121.330 854.806, 118.498 854.835, 117.667 855.667 M 262.189 855.862 C 261.321 856.412, 260.983 858.351, 261.189 861.597 C 261.473 866.080, 261.730 866.527, 264.183 866.810 C 267.278 867.168, 268.771 865.117, 268.776 860.500 C 268.782 855.695, 265.782 853.583, 262.189 855.862 M 503.250 855.641 C 501.321 856.453, 501.604 865.634, 503.582 866.393 C 508.519 868.287, 510.495 865.912, 509.824 858.888 C 509.556 856.091, 509.064 855.466, 507 855.307 C 505.625 855.201, 503.938 855.351, 503.250 855.641 M 734.406 856.903 C 729.523 859.121, 727 864.270, 727 872.020 L 727 877 723.035 877 C 719.990 877, 718.801 877.503, 717.909 879.171 C 716.946 880.970, 717.058 881.569, 718.565 882.671 C 719.564 883.402, 721.871 884, 723.691 884 L 727 884 727 907.809 C 727 933.562, 727.364 935.507, 732.056 934.845 L 734.500 934.500 734.767 909.250 L 735.034 884 739.267 883.985 C 744.849 883.964, 746.439 882.884, 745.630 879.662 C 745.071 877.435, 744.383 877.070, 740.245 876.805 L 735.500 876.500 735.205 870.910 C 734.858 864.339, 735.871 863.088, 742.211 862.260 C 747.899 861.518, 749.379 859.522, 746.429 856.571 C 744.340 854.483, 739.438 854.618, 734.406 856.903 M 938.667 855.667 C 937.592 856.741, 937.873 933.803, 938.954 934.472 C 939.479 934.796, 941.054 934.774, 942.454 934.422 L 945 933.783 945 894.999 C 945 860.555, 944.823 856.146, 943.418 855.607 C 941.350 854.813, 939.497 854.837, 938.667 855.667 M 963.406 856.386 C 963.113 857.148, 963.015 859.735, 963.187 862.136 C 963.451 865.819, 963.860 866.551, 965.805 866.827 C 969.318 867.325, 971 865.272, 971 860.485 C 971 857.513, 970.519 856.029, 969.418 855.607 C 966.730 854.576, 963.963 854.934, 963.406 856.386 M 1000.071 856.726 C 994.923 859.389, 992.792 862.985, 992.104 870.173 C 991.597 875.465, 991.179 876.526, 989.500 876.778 C 983.787 877.635, 983 878.075, 983 880.412 C 983 883.026, 984.652 884, 989.082 884 L 992 884 992 908.525 L 992 933.050 994.622 934.046 C 999.797 936.014, 1000 935.047, 1000 908.378 L 1000 884 1003.918 884 C 1009.057 884, 1011 883.181, 1011 881.015 C 1011 878.461, 1009.032 877.194, 1004.487 876.825 L 1000.500 876.500 1000.207 871.500 C 999.815 864.834, 1001.436 862.707, 1007.117 862.431 C 1011.382 862.224, 1011.500 862.128, 1011.500 858.859 C 1011.500 855.652, 1011.319 855.488, 1007.500 855.226 C 1005.131 855.065, 1002.102 855.676, 1000.071 856.726 M 1194.667 856.693 C 1194.228 858.269, 1194.283 861.114, 1194.843 865.813 C 1194.946 866.671, 1196.128 867.018, 1198.250 866.813 C 1201.485 866.501, 1201.500 866.474, 1201.500 861 C 1201.500 855.557, 1201.467 855.497, 1198.335 855.193 C 1195.973 854.964, 1195.043 855.344, 1194.667 856.693 M 533.298 860.790 C 532.588 861.244, 531.975 864.613, 531.798 869.029 L 531.500 876.500 527 877 C 522.778 877.469, 522.500 877.685, 522.500 880.500 C 522.500 883.370, 522.707 883.513, 527.250 883.805 L 532 884.110 532 906.632 L 532 929.154 534.923 932.077 C 537.516 934.670, 538.537 935, 543.954 935 C 548.687 935, 550.204 934.632, 550.691 933.364 C 551.526 931.186, 549.732 928.514, 547.386 928.443 C 546.349 928.411, 544.263 928.065, 542.750 927.674 L 540 926.962 540 905.481 L 540 884 544.250 883.985 C 549.849 883.965, 551.439 882.887, 550.630 879.662 C 550.071 877.435, 549.383 877.070, 545.245 876.805 L 540.500 876.500 540.208 868.750 C 539.990 862.979, 539.564 861, 538.540 861 C 537.783 861, 536.564 860.780, 535.832 860.511 C 535.099 860.241, 533.959 860.367, 533.298 860.790 M 212.500 877.693 C 210.850 878.581, 208.586 880.363, 207.468 881.653 C 204.774 884.764, 204.186 884.619, 203.813 880.750 C 203.536 877.875, 203.154 877.500, 200.500 877.500 L 197.500 877.500 197.235 905.629 C 196.971 933.522, 196.987 933.763, 199.081 934.311 C 203.837 935.555, 204 934.948, 204 916.019 C 204 896.396, 204.880 891.966, 209.743 887.103 C 215.781 881.065, 226.277 880.548, 231.528 886.029 C 235.145 889.805, 235.832 894.518, 235.927 916.215 C 235.996 932.040, 236.110 932.988, 238.064 934.034 C 239.613 934.863, 240.506 934.825, 241.642 933.882 C 242.933 932.811, 243.108 929.217, 242.828 909.562 C 242.511 887.263, 242.423 886.392, 240.166 883.227 C 236.538 878.141, 231.345 875.993, 222.790 876.040 C 218.056 876.066, 214.448 876.646, 212.500 877.693 M 353.852 878.016 C 348.816 880.676, 343.385 887.323, 341.424 893.227 C 340.392 896.334, 339.794 901.394, 339.814 906.837 C 339.850 916.719, 341.743 922.360, 347.050 928.404 C 352.316 934.402, 355.196 935.464, 366.184 935.460 C 375.479 935.456, 376.020 935.334, 379.623 932.417 C 385.196 927.907, 388.781 922.968, 389.544 918.750 C 390.211 915.065, 390.168 915, 387.065 915 C 384.567 915, 383.551 915.648, 382.203 918.098 C 379.105 923.734, 376.704 926.230, 372.579 928.104 C 367.359 930.474, 363.922 930.470, 358.695 928.087 C 353.806 925.858, 350.823 922.192, 348.620 915.701 C 345.948 907.831, 345.513 908, 368.407 908 C 389.734 908, 391 907.739, 391 903.349 C 391 899.272, 388.212 890.297, 385.720 886.349 C 382.918 881.911, 381.943 881.017, 376.720 878.107 C 371.583 875.244, 359.191 875.195, 353.852 878.016 M 422.729 878.401 C 420.104 879.687, 416.940 881.923, 415.697 883.369 C 412.794 886.748, 412 886.686, 412 883.082 C 412 881.477, 411.727 879.452, 411.393 878.582 C 410.543 876.366, 406.283 876.602, 405.035 878.934 C 403.941 880.979, 403.560 927.759, 404.606 931.658 C 405.212 933.915, 408.199 935.245, 410.596 934.325 C 411.724 933.892, 412 930.482, 412 916.976 C 412 891.849, 414.040 888.382, 431.750 883.413 C 433.343 882.967, 433.376 878.776, 431.800 877.200 C 430.087 875.487, 428.152 875.743, 422.729 878.401 M 453 877.673 C 448.311 879.697, 446.115 881.789, 444.417 885.852 C 442.465 890.525, 442.649 894.912, 444.956 898.696 C 448.138 903.914, 452.996 906.226, 466.736 909.061 C 473.826 910.523, 478.752 913.821, 480.267 918.119 C 481.208 920.792, 477.269 925.975, 472.729 928.036 C 463.976 932.010, 454.167 928.973, 450.399 921.123 C 447.949 916.018, 446.359 914.903, 443.225 916.091 C 441.348 916.803, 441.067 917.439, 441.616 919.727 C 444.602 932.176, 454.382 937.557, 470.390 935.557 C 479.468 934.423, 488 926.876, 488 919.980 C 488 910.670, 482.592 905.339, 470.333 902.566 C 459.540 900.124, 456.156 898.874, 453.384 896.305 C 450.032 893.198, 450.262 889.081, 453.990 885.510 C 456.623 882.987, 457.746 882.637, 463.416 882.573 C 470.934 882.488, 474.399 884.415, 477.332 890.315 C 478.804 893.275, 479.727 894, 482.023 894 C 485.784 894, 486.390 892.770, 484.858 888.244 C 481.957 879.673, 475.682 875.962, 464.290 876.082 C 459.731 876.129, 455.048 876.790, 453 877.673 M 668.433 878.925 C 659.326 884.149, 654.538 893.325, 654.580 905.476 C 654.624 918.375, 658.588 926.424, 667.927 932.581 C 672.013 935.275, 673.053 935.498, 681.427 935.469 C 689.924 935.440, 690.830 935.230, 695.697 932.166 C 713.463 920.980, 712.904 889.441, 694.755 879.033 C 690.112 876.370, 688.568 876.019, 681.500 876.019 C 674.497 876.019, 672.868 876.381, 668.433 878.925 M 884.804 878.041 C 879.727 880.722, 876.025 885.854, 875.736 890.613 C 875.519 894.184, 875.725 894.526, 878.268 894.818 C 880.644 895.091, 881.285 894.582, 882.786 891.229 C 885.103 886.054, 886.891 884.401, 891.586 883.098 C 896.989 881.598, 900.276 881.727, 905.018 883.624 C 909.278 885.329, 912.025 889.113, 911.968 893.200 C 911.898 898.262, 907.597 900.513, 896 901.554 C 887.917 902.280, 879.966 904.816, 876.805 907.676 C 869.988 913.846, 870.796 926.281, 878.414 932.448 C 882.010 935.358, 882.615 935.500, 891.416 935.500 C 899.849 935.500, 901.011 935.258, 904.872 932.703 C 907.197 931.165, 909.350 929.252, 909.656 928.453 C 910.358 926.625, 912 926.550, 912 928.347 C 912 930.511, 915.267 933.623, 918.335 934.380 C 922.752 935.472, 925 934.315, 925 930.952 C 925 928.678, 924.451 927.900, 922.500 927.411 C 921.125 927.066, 919.963 926.269, 919.917 925.642 C 919.871 925.014, 919.688 916.625, 919.509 907 C 919.109 885.477, 917.793 881.537, 909.648 877.474 C 905.066 875.189, 889.533 875.543, 884.804 878.041 M 1036 877.257 C 1030.653 879.656, 1025.087 885.123, 1022.565 890.453 C 1020.374 895.086, 1019.987 897.320, 1019.930 905.691 C 1019.853 916.843, 1021.653 922.383, 1027.279 928.316 C 1032.758 934.093, 1036.374 935.438, 1046.523 935.471 C 1055.012 935.498, 1055.840 935.310, 1060.523 932.280 C 1066.082 928.684, 1069.887 923.696, 1071.735 917.584 C 1073.218 912.679, 1073.372 899.878, 1072.007 894.965 C 1070.214 888.512, 1065.444 882.295, 1059.805 879.061 C 1055.069 876.345, 1053.642 876.025, 1046.500 876.077 C 1042.100 876.109, 1037.375 876.640, 1036 877.257 M 1107.500 877.867 C 1105.300 878.870, 1102.085 880.885, 1100.356 882.345 C 1098.626 883.805, 1096.967 885, 1096.669 885 C 1096.371 885, 1095.986 883.583, 1095.813 881.851 C 1095.467 878.369, 1093.156 876.342, 1090.636 877.309 C 1089.175 877.870, 1089 880.931, 1089 905.862 C 1089 930.333, 1089.194 933.861, 1090.572 934.389 C 1091.437 934.721, 1093.012 934.529, 1094.072 933.961 C 1095.844 933.013, 1096.002 931.702, 1096.024 917.715 C 1096.037 909.347, 1096.457 900.735, 1096.957 898.577 C 1098.624 891.394, 1103.722 886.519, 1111.667 884.512 C 1115.850 883.455, 1116.544 882.916, 1116.830 880.504 C 1117.386 875.808, 1114.072 874.871, 1107.500 877.867 M 1146.213 877.459 C 1144.954 878.154, 1142.900 879.684, 1141.648 880.861 C 1138.869 883.471, 1138 883.552, 1138 881.200 C 1138 877.373, 1131.900 875.213, 1130.607 878.582 C 1130.273 879.452, 1130 891.997, 1130 906.459 C 1130 927.535, 1130.273 932.981, 1131.373 933.895 C 1132.822 935.097, 1135.996 934.381, 1137.235 932.573 C 1137.639 931.983, 1137.976 923.542, 1137.985 913.815 C 1137.993 903.820, 1138.461 894.906, 1139.061 893.315 C 1140.695 888.981, 1146.009 884.075, 1150.328 882.912 C 1155.020 881.648, 1161.198 882.534, 1163.688 884.827 C 1168.459 889.222, 1168.478 889.321, 1169 912.401 L 1169.500 934.500 1172.183 934.810 C 1176.789 935.342, 1177.210 933.033, 1176.779 909.657 C 1176.459 892.311, 1176.088 887.950, 1174.720 885.449 C 1172.955 882.220, 1169.958 879.315, 1166.264 877.250 C 1163.381 875.639, 1149.243 875.786, 1146.213 877.459 M 1230.979 877.331 C 1223.912 880.609, 1220.017 885.549, 1220.007 891.250 C 1220.001 894.479, 1220.313 894.998, 1222.250 894.985 C 1225.288 894.964, 1226.589 893.973, 1227.480 891 C 1229.396 884.611, 1236.369 881.313, 1245.350 882.548 C 1252 883.463, 1256 887.419, 1256 893.083 C 1256 898.296, 1253.270 899.956, 1242.769 901.128 C 1222.329 903.408, 1215.717 908.929, 1217.241 922.444 C 1218.354 932.324, 1227.486 937.294, 1241.343 935.563 C 1245.578 935.034, 1247.709 934.085, 1251.013 931.257 L 1255.250 927.630 1257.875 930.723 C 1262.523 936.199, 1269 936.332, 1269 930.952 C 1269 928.702, 1268.448 927.899, 1266.574 927.429 L 1264.148 926.820 1263.824 907.160 C 1263.456 884.800, 1262.763 882.412, 1255.444 878.267 C 1252.137 876.394, 1250.047 876.043, 1242.500 876.098 C 1237.550 876.133, 1232.366 876.688, 1230.979 877.331 M 262.250 877.662 C 261.292 878.049, 261 884.662, 261 905.967 C 261 933.352, 261.031 933.775, 263.096 934.315 C 265.654 934.984, 267.996 934.188, 268.012 932.643 C 268.260 909.984, 267.969 878.758, 267.503 878.006 C 266.855 876.957, 264.396 876.796, 262.250 877.662 M 281.369 878.480 C 280.877 879.764, 289.438 904.368, 292.081 909.262 C 292.604 910.231, 293.744 913.156, 294.615 915.762 C 296.424 921.174, 298.369 925.957, 300.814 931 C 302.490 934.459, 303 934.659, 308.771 934.119 C 310.162 933.989, 310.591 933.083, 314.509 922 C 315.967 917.875, 317.520 913.600, 317.960 912.500 C 318.816 910.363, 320.998 904.656, 323.603 897.750 C 324.484 895.413, 325.518 892.825, 325.900 892 C 326.282 891.175, 327.453 887.915, 328.502 884.755 C 330.737 878.027, 329.844 875.942, 325.417 877.555 C 323.486 878.259, 322.328 879.906, 320.882 884 C 318.219 891.546, 316.588 896.077, 312.965 906 C 311.257 910.675, 309.486 915.975, 309.029 917.778 C 307.705 923, 304 926.310, 304 922.271 C 304 921.320, 302.875 917.495, 301.500 913.771 C 300.125 910.047, 297.841 903.737, 296.425 899.750 C 288.884 878.513, 288.112 877, 284.817 877 C 283.197 877, 281.689 877.647, 281.369 878.480 M 503.250 877.662 C 502.293 878.049, 502 884.590, 502 905.605 L 502 933.043 504.470 934.168 C 506.359 935.029, 507.301 934.995, 508.470 934.025 C 509.772 932.944, 510 928.840, 510 906.459 C 510 891.997, 509.727 879.452, 509.393 878.582 C 508.808 877.058, 505.847 876.614, 503.250 877.662 M 560.419 878.350 C 559.983 879.487, 563.736 890.443, 566.980 897.500 C 567.485 898.600, 569.763 904.225, 572.042 910 C 577.279 923.269, 578.859 927.065, 580.048 929.236 C 581.694 932.239, 581.094 936.634, 578.307 942.006 C 575.526 947.366, 573.119 949, 568.002 949 C 566.017 949, 564.940 949.613, 564.503 950.991 C 563.472 954.238, 564.777 955, 571.370 955 C 579.993 955, 582.432 952.351, 587.945 937 C 589.387 932.984, 590.254 930.724, 591.970 926.500 C 592.641 924.850, 593.866 921.475, 594.694 919 C 595.522 916.525, 596.785 913.150, 597.503 911.500 C 598.220 909.850, 600.012 905.125, 601.485 901 C 602.959 896.875, 605.252 890.883, 606.582 887.684 C 609.719 880.138, 609.769 876.995, 606.750 877.015 C 605.513 877.024, 604.050 877.361, 603.500 877.765 C 602.091 878.800, 599 885.717, 599 887.834 C 599 888.805, 598.605 890.028, 598.123 890.550 C 597.641 891.072, 596.317 894.200, 595.180 897.500 C 585.668 925.125, 585.492 925.400, 582.567 917.250 C 581.629 914.638, 579.768 909.688, 578.431 906.250 C 577.094 902.813, 574.826 896.962, 573.390 893.250 C 568.566 880.773, 567.560 878.503, 566.528 877.765 C 564.818 876.543, 560.971 876.911, 560.419 878.350 M 963.667 877.667 C 963.300 878.033, 963 890.578, 963 905.544 C 963 935.272, 963.144 936.036, 968.378 934.046 L 971 933.050 971 906.225 C 971 886.694, 970.674 879.074, 969.800 878.200 C 968.506 876.906, 964.753 876.580, 963.667 877.667 M 1194.737 879.196 C 1193.776 883.568, 1194.682 933.082, 1195.743 934.143 C 1196.308 934.708, 1197.834 935.019, 1199.135 934.835 L 1201.500 934.500 1201.500 906 L 1201.500 877.500 1198.372 877.196 C 1195.798 876.945, 1195.154 877.299, 1194.737 879.196 M 359.245 883.493 C 353.309 886.073, 347.483 894.324, 348.171 899.177 L 348.500 901.500 365.169 901.500 C 374.337 901.500, 382.154 901.182, 382.542 900.793 C 382.929 900.405, 382.629 897.996, 381.875 895.441 C 378.831 885.133, 368.284 879.565, 359.245 883.493 M 675.604 883.038 C 671.852 884.161, 667.366 888.465, 664.697 893.500 C 661.859 898.856, 661.664 912.805, 664.357 917.839 C 668.362 925.324, 675.114 930.032, 681.770 929.978 C 685.861 929.945, 692.240 926.692, 695.267 923.095 C 698.333 919.451, 701 911.421, 701 905.833 C 701 889.891, 688.924 879.052, 675.604 883.038 M 1040.500 883.202 C 1036.511 884.590, 1031.220 889.671, 1029.256 894 C 1026.921 899.147, 1027.008 913.424, 1029.402 918 C 1038.303 935.007, 1058.025 933.351, 1064.480 915.056 C 1068.937 902.424, 1062.850 886.729, 1052.101 883.136 C 1048.027 881.775, 1044.545 881.794, 1040.500 883.202 M 905.500 906.054 C 903.300 906.495, 898.350 907.396, 894.500 908.057 C 883.952 909.867, 880 912.962, 880 919.412 C 880 924.095, 886.933 930, 892.430 930 C 896.361 930, 903.179 927.005, 906.647 923.756 C 910.119 920.503, 912.333 914.203, 911.827 909.015 C 911.453 905.173, 910.987 904.955, 905.500 906.054 M 1248.500 906.197 C 1235.046 908.676, 1232.224 909.456, 1228.750 911.655 C 1225.244 913.874, 1225 914.349, 1225 918.963 C 1225 923.430, 1225.333 924.152, 1228.506 926.573 C 1233.704 930.537, 1239.187 930.753, 1245.984 927.262 C 1253.081 923.616, 1255.960 918.861, 1255.984 910.750 C 1255.995 906.736, 1255.623 905.042, 1254.750 905.138 C 1254.063 905.213, 1251.250 905.690, 1248.500 906.197 M 132.966 975.355 C 120.833 979.286, 114.773 988.634, 116.573 1000.639 C 117.069 1003.945, 118.242 1006.213, 120.877 1008.960 C 124.678 1012.922, 129.308 1014.708, 146.539 1018.860 C 160.064 1022.119, 164.470 1024.813, 166.942 1031.337 C 167.804 1033.613, 167.644 1035.016, 166.134 1038.429 C 163.786 1043.738, 159.543 1046.822, 152.255 1048.516 C 145.704 1050.039, 136.775 1048.927, 131.050 1045.876 C 126.866 1043.647, 122 1036.708, 122 1032.972 C 122 1029.475, 119.742 1027.597, 116.513 1028.407 C 114.268 1028.971, 114 1029.547, 114 1033.813 C 114 1040.990, 118.840 1048.449, 126 1052.305 C 130.900 1054.944, 132.720 1055.322, 142.684 1055.770 C 159.011 1056.504, 167.339 1053.362, 172.546 1044.500 C 179.220 1033.143, 174.980 1020.628, 162.730 1015.523 C 155.773 1012.624, 154.813 1012.321, 147 1010.548 C 133.422 1007.468, 130.936 1006.566, 127.938 1003.635 C 115.854 991.820, 134.437 975.768, 152.230 982.652 C 158.085 984.917, 160.810 987.589, 163.553 993.750 C 165.739 998.661, 166.120 999, 169.445 999 C 172.662 999, 172.998 998.738, 172.978 996.250 C 172.928 989.939, 166.165 980.492, 159.614 977.581 C 151.107 973.801, 140.496 972.915, 132.966 975.355 M 354.456 977.253 C 354.192 977.942, 354.093 995.605, 354.238 1016.503 L 354.500 1054.500 358.250 1054.810 C 360.313 1054.981, 362.087 1054.981, 362.193 1054.810 C 362.299 1054.640, 362.636 1046.175, 362.943 1036 L 363.500 1017.500 381.250 1017.227 L 399 1016.954 399 1013.977 C 399 1012.309, 398.450 1010.961, 397.750 1010.912 C 397.063 1010.863, 389.525 1010.859, 381 1010.901 C 372.475 1010.944, 364.923 1010.611, 364.219 1010.162 C 363.261 1009.550, 363.009 1006.086, 363.219 996.422 L 363.500 983.500 383.647 983.230 L 403.793 982.959 404.427 980.434 C 404.776 979.045, 404.796 977.479, 404.472 976.954 C 403.520 975.414, 355.051 975.704, 354.456 977.253 M 645.667 976.667 C 645.300 977.033, 645 979.228, 645 981.544 C 645 986.270, 646.697 988.323, 650.195 987.827 C 652.254 987.535, 652.532 986.887, 652.800 981.750 L 653.100 976 649.717 976 C 647.856 976, 646.033 976.300, 645.667 976.667 M 200.288 998.499 C 194.798 1001.282, 191.687 1005.218, 190.674 1010.663 C 189.474 1017.105, 197.047 1017.617, 198.458 1011.190 C 199.555 1006.197, 206.135 1002, 212.866 1002 C 222.930 1002, 230.558 1011.717, 225.250 1017.776 C 223.306 1019.996, 216.182 1022, 210.239 1022 C 205.821 1022, 196.458 1024.566, 193.620 1026.554 C 189.776 1029.246, 188.013 1033.274, 188.007 1039.382 C 187.995 1049.508, 192.868 1054.815, 203.022 1055.736 C 212.182 1056.566, 217.171 1055.401, 221.941 1051.318 L 226.145 1047.720 229.189 1051.413 C 231.824 1054.610, 232.723 1055.066, 235.867 1054.803 C 239.140 1054.530, 239.530 1054.186, 239.808 1051.327 C 240.066 1048.664, 239.744 1048.102, 237.808 1047.827 C 235.508 1047.501, 235.498 1047.428, 234.975 1028 C 234.389 1006.245, 233.872 1004.292, 227.383 999.343 C 224.160 996.885, 222.763 996.542, 214.632 996.219 C 206.345 995.890, 205.018 996.100, 200.288 998.499 M 268.999 997.877 C 267.073 998.930, 264.651 1000.728, 263.615 1001.873 C 261.376 1004.347, 260 1003.802, 260 1000.441 C 260 998.318, 259.544 998, 256.500 998 L 253 998 253 1026.500 L 253 1055 256.500 1055 L 260 1055 260.006 1037.250 C 260.009 1027.487, 260.483 1017.800, 261.060 1015.723 C 263.072 1008.477, 271.127 1001.925, 277.872 1002.048 C 281.618 1002.117, 286.974 1005.028, 289.412 1008.321 C 291.353 1010.943, 291.524 1012.689, 291.835 1033.071 L 292.169 1055 295.585 1055 L 299 1055 298.984 1031.750 C 298.968 1009.547, 298.866 1008.322, 296.733 1004.556 C 293.496 998.840, 289.226 996.721, 280.111 996.307 C 274.038 996.031, 271.792 996.349, 268.999 997.877 M 439.500 996.976 C 433.825 998.435, 431.316 999.835, 428.605 1003.058 C 425.623 1006.602, 424.337 1006.183, 423.827 1001.500 C 423.547 998.928, 423.036 998.455, 420.250 998.187 L 417 997.873 417 1026.437 L 417 1055 420.481 1055 C 424.907 1055, 424.904 1055.014, 425.237 1033.423 C 425.488 1017.092, 425.609 1016.187, 427.983 1012.726 C 430.815 1008.598, 435.952 1005.392, 441.613 1004.222 C 444.586 1003.608, 445.577 1002.886, 445.827 1001.154 C 446.006 999.909, 445.614 998.240, 444.954 997.445 C 443.640 995.862, 443.785 995.874, 439.500 996.976 M 467.500 997.902 C 462.339 1000.299, 459.358 1003.208, 457.495 1007.665 C 455.574 1012.263, 455.601 1014.633, 457.582 1015.393 C 460.796 1016.626, 461.936 1015.883, 464.687 1010.759 C 468.915 1002.882, 476.794 1000.122, 485.529 1003.458 C 492.333 1006.057, 495.195 1013.234, 491.250 1017.807 C 489.416 1019.934, 481.551 1022, 475.289 1022 C 469.685 1022, 461.120 1025.120, 458.021 1028.290 C 456.478 1029.868, 454.652 1033.171, 453.964 1035.629 C 452.354 1041.377, 454.050 1047.192, 458.624 1051.609 C 462.239 1055.100, 465.470 1056, 474.390 1056 C 480.812 1056, 486.832 1053.651, 490.117 1049.864 C 492.196 1047.469, 494 1047.478, 494 1049.885 C 494 1052.462, 498.190 1055, 502.446 1055 C 505.341 1055, 506.070 1054.568, 506.575 1052.557 C 507.333 1049.538, 506.464 1048, 504 1048 C 502.965 1048, 501.754 1047.438, 501.309 1046.750 C 500.864 1046.063, 500.275 1036.335, 500 1025.134 L 499.500 1004.768 495.266 1001.012 C 492.937 998.947, 489.618 996.974, 487.891 996.628 C 481.610 995.372, 471.601 995.997, 467.500 997.902 M 535.700 997.473 C 534.161 998.276, 531.737 999.848, 530.316 1000.966 C 527.013 1003.564, 526.214 1003.525, 525.820 1000.750 C 525.569 998.988, 524.850 998.500, 522.500 998.500 L 519.500 998.500 519.500 1026.500 L 519.500 1054.500 522.500 1054.500 L 525.500 1054.500 526.085 1035 C 526.560 1019.133, 527 1014.848, 528.443 1012 C 532.777 1003.444, 543.500 999.568, 550.696 1003.956 C 557.122 1007.874, 557.448 1009.169, 558 1032.952 L 558.500 1054.500 561.500 1054.500 L 564.500 1054.500 564.719 1032 C 564.927 1010.545, 564.834 1009.291, 562.719 1005 C 559.700 998.878, 554.038 995.998, 545.038 996.006 C 541.262 996.010, 537.317 996.629, 535.700 997.473 M 596.500 997.806 C 590.244 1000.753, 586.484 1004.483, 583.463 1010.734 C 580.972 1015.891, 580.681 1017.561, 580.713 1026.544 C 580.753 1037.599, 582.112 1041.641, 588.076 1048.434 C 592.426 1053.388, 596.451 1055.152, 604.760 1055.746 C 616.138 1056.558, 623.488 1052.843, 628.001 1043.999 C 630.255 1039.581, 630.629 1034.453, 628.750 1033.738 C 626.372 1032.833, 623.063 1034.901, 622.399 1037.707 C 619.874 1048.370, 606.788 1053.224, 597.577 1046.912 C 588.220 1040.501, 585.108 1024.507, 590.986 1013.047 C 594.255 1006.674, 601.215 1002.060, 607.628 1002.015 C 613.009 1001.977, 622 1008.765, 622 1012.866 C 622 1014.457, 626.492 1016.409, 628.436 1015.663 C 632.905 1013.948, 626.867 1002.188, 619.544 998.342 C 614.706 995.802, 601.411 995.492, 596.500 997.806 M 683 996.669 C 678.612 998.162, 675.207 1000.150, 672.985 1002.516 C 670.840 1004.799, 670.500 1006.094, 670.500 1011.976 C 670.500 1017.385, 670.912 1019.247, 672.500 1021.005 C 675.076 1023.857, 680.724 1026.333, 689.500 1028.458 C 699.900 1030.975, 703.578 1032.802, 705.525 1036.416 C 707.132 1039.401, 707.138 1039.833, 705.606 1042.794 C 702.167 1049.445, 690.864 1051.962, 683.084 1047.809 C 678.658 1045.447, 676.703 1043.070, 675.643 1038.765 C 674.962 1035.999, 671.224 1034.126, 669.057 1035.465 C 667.351 1036.519, 667.838 1041.228, 670.087 1045.423 C 672.438 1049.810, 673.254 1050.701, 677.500 1053.513 C 681.557 1056.200, 698.635 1056.394, 704.015 1053.815 C 710.578 1050.668, 714 1045.493, 714 1038.714 C 714 1030.696, 708.569 1025.504, 697.500 1022.939 C 680.930 1019.098, 676.291 1016.295, 677.392 1010.788 C 677.733 1009.084, 678.536 1007.059, 679.176 1006.288 C 680.795 1004.338, 686.696 1002, 690 1002 C 696.297 1002, 704 1007.577, 704 1012.135 C 704 1013.644, 704.763 1014, 708 1014 C 711.530 1014, 712 1013.724, 712 1011.654 C 712 1006.293, 707.165 1000.220, 700.768 997.548 C 697.252 996.079, 686.321 995.538, 683 996.669 M 745 996.669 C 730.903 1001.468, 723.376 1016.258, 726.551 1032.919 C 728.052 1040.796, 729.116 1042.995, 733.999 1048.313 C 739.187 1053.963, 743.144 1055.500, 752.500 1055.500 C 763.944 1055.500, 768.871 1052.788, 773.902 1043.720 C 776.235 1039.515, 776.671 1034.392, 774.750 1033.746 C 771.985 1032.816, 769.823 1034.497, 767.515 1039.374 C 764.597 1045.540, 758.488 1050.015, 753.050 1049.972 C 748.022 1049.932, 740.945 1046, 737.934 1041.574 C 729.195 1028.725, 733.829 1008.859, 746.833 1003.425 C 755.484 999.811, 762.787 1003.049, 768.203 1012.902 C 769.401 1015.079, 770.646 1016, 772.394 1016 C 775.813 1016, 776.471 1014.456, 774.978 1009.933 C 773.399 1005.150, 768.758 1000.273, 763.500 997.871 C 759.667 996.120, 748.704 995.408, 745 996.669 M 804.305 997.757 C 798.873 1000.041, 794.927 1003.887, 791.409 1010.323 C 788.804 1015.087, 788.581 1016.337, 788.601 1026 C 788.626 1037.545, 789.917 1041.419, 796.076 1048.434 C 800.591 1053.577, 804.456 1055.193, 813.552 1055.743 C 820.285 1056.150, 822.359 1055.886, 826.207 1054.133 C 834.818 1050.211, 839.563 1043.470, 841.964 1031.750 C 844.623 1018.770, 838.295 1004.527, 827 998.068 C 823.059 995.814, 809.369 995.626, 804.305 997.757 M 645.476 999.201 C 645.196 999.932, 645.086 1012.673, 645.233 1027.515 L 645.500 1054.500 649 1054.500 L 652.500 1054.500 652.500 1026.500 L 652.500 998.500 649.243 998.186 C 647.214 997.991, 645.794 998.373, 645.476 999.201 M 809.174 1003.444 C 793.252 1009.216, 791.008 1036.929, 805.649 1046.962 C 815.930 1054.006, 829.385 1047.937, 833.491 1034.403 C 835.535 1027.664, 835.373 1023.078, 832.849 1016.288 C 830.329 1009.508, 825.883 1004.881, 820.276 1003.201 C 815.545 1001.783, 813.641 1001.825, 809.174 1003.444 M 223 1026 C 222.175 1026.533, 219.954 1026.976, 218.064 1026.985 C 213.572 1027.005, 202.095 1029.899, 199.325 1031.710 C 195.070 1034.492, 194.355 1041.278, 197.889 1045.352 C 201.785 1049.844, 207.501 1051.015, 214.180 1048.688 C 222.481 1045.796, 227 1039.403, 227 1030.550 C 227 1024.871, 226.183 1023.943, 223 1026 M 484 1026.654 C 475.593 1027.553, 466.646 1030.508, 463.844 1033.310 C 459.714 1037.440, 460.042 1041.042, 465 1046 C 468.255 1049.255, 469.698 1049.997, 472.750 1049.985 C 484.735 1049.937, 493.875 1040.684, 492.808 1029.678 C 492.475 1026.245, 491.370 1025.865, 484 1026.654" stroke="none" fill="#0b274e" fill-rule="evenodd"/><path d="M 637.500 0.592 C 635.300 0.797, 627.200 1.450, 619.500 2.042 C 602.392 3.359, 573.809 7.142, 555.283 10.542 C 433.574 32.878, 322.468 86.603, 229 168.315 C 214.210 181.245, 181.245 214.210, 168.315 229 C 72.100 339.057, 15.737 471.247, 1.815 619.500 C 0.036 638.441, 0.036 713.559, 1.815 732.500 C 15.737 880.753, 72.100 1012.943, 168.315 1123 C 181.245 1137.790, 214.210 1170.755, 229 1183.685 C 330.885 1272.756, 453.649 1328.519, 587.283 1346.429 C 620.445 1350.873, 631.407 1351.500, 676 1351.500 C 720.593 1351.500, 731.555 1350.873, 764.717 1346.429 C 898.351 1328.519, 1021.115 1272.756, 1123 1183.685 C 1137.790 1170.755, 1170.755 1137.790, 1183.685 1123 C 1263.489 1031.715, 1316.958 922.866, 1339.892 805 C 1345.396 776.717, 1351 732.267, 1351 716.898 C 1351 713.719, 1351.450 710.840, 1352 710.500 C 1352.636 710.107, 1353 697.137, 1353 674.882 C 1353 651.803, 1352.659 640.092, 1352 640.500 C 1351.377 640.885, 1351 638.897, 1351 635.220 C 1351 619.738, 1345.416 575.384, 1339.892 547 C 1316.958 429.134, 1263.489 320.285, 1183.685 229 C 1170.755 214.210, 1137.790 181.245, 1123 168.315 C 1023.032 80.920, 902.640 25.440, 772 6.563 C 738.182 1.676, 725.729 0.835, 682.500 0.519 C 659.950 0.354, 639.700 0.386, 637.500 0.592 M 502 309.898 C 501.175 310.381, 498.025 311.088, 495 311.468 C 491.975 311.848, 488.150 312.544, 486.500 313.015 C 484.850 313.485, 480.575 314.651, 477 315.604 C 473.425 316.558, 470.072 317.712, 469.550 318.169 C 469.027 318.626, 467.983 319, 467.229 319 C 464.425 319, 445.040 329.205, 437.141 334.840 C 416.252 349.742, 399.227 371.167, 388.939 395.500 C 384.474 406.060, 379.874 421.872, 378.375 431.812 C 376.635 443.347, 375.995 429.551, 375.758 375.458 L 375.500 316.500 342.500 316.500 L 309.500 316.500 308.913 416.500 C 308.325 516.651, 308.048 524.366, 304.622 535.902 C 297.342 560.414, 279.763 570.928, 246 570.963 C 214.648 570.995, 196.289 560.735, 187.911 538.500 C 183.649 527.189, 183.692 528.251, 183.083 420 L 182.500 316.500 150.119 316.236 C 127.058 316.048, 117.345 316.299, 116.369 317.108 C 115.228 318.056, 115.002 333.905, 115.010 412.372 C 115.021 506.076, 115.487 522.542, 118.588 538.780 C 127.172 583.716, 154.605 612.240, 199.500 622.912 C 204.450 624.089, 210.750 625.582, 213.500 626.230 C 220.093 627.784, 269.613 627.763, 276.500 626.204 C 279.250 625.581, 284.875 624.348, 289 623.464 C 303.105 620.440, 314.963 615.766, 326.251 608.781 C 343.921 597.847, 354.632 585.937, 363.376 567.500 C 370.579 552.312, 374.150 536.844, 375.556 514.735 C 375.933 508.814, 376.586 503.756, 377.008 503.495 C 377.431 503.234, 378.091 505.153, 378.477 507.760 C 382.342 533.914, 399.185 567.101, 418.401 586.428 C 430.737 598.834, 440.366 605.712, 455.500 612.927 C 470.318 619.991, 477.547 622.378, 494 625.640 C 504.204 627.662, 543.676 628.103, 551.008 626.276 C 553.478 625.661, 558.650 624.408, 562.500 623.494 C 574.780 620.576, 582.237 617.494, 597.500 609.029 C 600.800 607.198, 603.725 605.428, 604 605.095 C 604.922 603.977, 615.907 596, 616.524 596 C 616.859 596, 618.566 597.090, 620.317 598.421 C 624.440 601.557, 632.288 605.471, 640.754 608.613 C 647.715 611.197, 664.590 616.376, 669 617.282 C 670.375 617.565, 675.325 618.744, 680 619.903 C 684.675 621.062, 690.525 622.439, 693 622.964 C 695.475 623.489, 700.650 624.616, 704.500 625.469 C 708.350 626.321, 714.650 627.715, 718.500 628.567 C 742.369 633.846, 759.056 640.196, 766.038 646.655 C 771.740 651.931, 774 657.594, 774 666.607 C 774 674.940, 772.256 680.403, 767.598 686.663 C 764.348 691.030, 753.590 699, 750.944 699 C 750.095 699, 748.972 699.379, 748.450 699.842 C 747.927 700.305, 744.350 701.525, 740.500 702.552 C 730.400 705.248, 693.403 705.256, 684.500 702.565 C 662.762 695.993, 653.260 686.401, 647.734 665.448 L 645.374 656.500 615.661 656.235 C 588.919 655.997, 585.886 656.134, 585.321 657.607 C 584.203 660.519, 586.799 680.287, 589.313 688.007 C 600.106 721.154, 628.602 744.305, 669.500 753.153 C 691.697 757.955, 733.956 758.394, 752 754.009 C 766.470 750.493, 770.891 749.112, 776.331 746.407 C 777.888 745.633, 779.555 745, 780.035 745 C 782.004 745, 798.357 734.851, 803.651 730.343 C 817.196 718.811, 830.742 698.152, 832.604 686.188 C 834.186 676.029, 834.990 685.760, 835.237 718.037 L 835.500 752.500 868.500 752.500 L 901.500 752.500 902 690 L 902.500 627.500 966.267 627.243 L 1030.033 626.985 1029.767 600.743 L 1029.500 574.500 966.554 574.242 C 917.722 574.043, 903.432 573.706, 902.820 572.742 C 901.457 570.597, 901.817 507.583, 903.200 506.200 C 904.111 505.289, 921.644 505, 976 505 C 1030.356 505, 1047.889 504.711, 1048.800 503.800 C 1050.546 502.054, 1050.500 452.062, 1048.750 449.683 C 1047.585 448.100, 1040.268 448.001, 941.500 448.242 L 835.500 448.500 835.245 543.750 C 835.078 606.090, 834.646 639, 833.995 639 C 833.448 639, 833 638.109, 833 637.020 C 833 635.931, 832.276 633.119, 831.391 630.770 C 823.944 611.012, 811.566 597.837, 792 588.844 C 784.954 585.606, 774.149 581.680, 766.500 579.581 C 763.200 578.676, 759.118 577.499, 757.429 576.967 C 755.740 576.435, 753.458 576, 752.357 576 C 751.257 576, 748.364 575.374, 745.928 574.609 C 743.493 573.843, 738.800 572.670, 735.500 572.001 C 732.200 571.332, 728.150 570.352, 726.500 569.823 C 724.850 569.295, 721.475 568.470, 719 567.991 C 716.525 567.512, 711.575 566.393, 708 565.505 C 704.425 564.617, 699.925 563.517, 698 563.059 C 668.536 556.061, 657.026 550.637, 652.255 541.500 C 647.463 532.322, 647.643 522.173, 652.765 512.714 C 660.554 498.333, 682.817 489.819, 708.500 491.400 C 719.468 492.076, 730.206 493.872, 731.599 495.266 C 732.003 495.670, 733.039 496, 733.902 496 C 737.212 496, 746.663 501.733, 752.037 507 C 758.080 512.922, 762.314 520.669, 763.514 528 C 763.919 530.475, 764.633 533.513, 765.100 534.750 L 765.950 537 796.065 537 L 826.180 537 825.493 528.250 C 822.847 494.518, 805.840 469.758, 773.928 453.175 C 760.140 446.011, 746.349 441.800, 728 439.154 C 718.457 437.778, 693.990 437.976, 682.500 439.523 C 668.499 441.408, 654.005 444.662, 652.382 446.285 C 651.988 446.678, 651.068 447, 650.336 447 C 647.682 447, 629.461 456.383, 627 459.016 C 626.725 459.311, 624.476 461.115, 622.001 463.026 C 615.586 467.981, 612.267 471.522, 606.447 479.626 C 599.594 489.167, 595.177 498.601, 592.464 509.488 C 583.473 545.573, 569.167 562.203, 540.809 569.535 C 535.457 570.919, 531.454 571.161, 520.809 570.745 C 513.489 570.459, 505.925 569.707, 504 569.074 C 502.075 568.442, 498.925 567.448, 497 566.866 C 484.826 563.187, 471.232 553.222, 463.063 541.992 C 460.279 538.163, 458 534.824, 458 534.572 C 458 534.320, 456.988 532.405, 455.750 530.315 C 451.730 523.527, 446.832 508.729, 444.429 496.110 C 442.440 485.664, 442.152 453.466, 443.967 444.435 C 446.303 432.808, 448.383 424.486, 449.185 423.550 C 449.633 423.027, 450 421.781, 450 420.779 C 450 418.322, 455.517 406.974, 460.590 399 C 462.864 395.425, 467.612 389.745, 471.142 386.379 C 477.737 380.087, 487.861 373, 490.252 373 C 490.993 373, 492.027 372.605, 492.550 372.123 C 494.005 370.780, 502.712 368.276, 510.500 366.961 C 519.993 365.359, 539.369 366.459, 545.500 368.948 C 546.600 369.395, 549.525 370.580, 552 371.583 C 562.341 375.769, 573.219 384.301, 579.946 393.500 C 583.742 398.692, 589 409.074, 589 411.378 C 589 412.106, 589.494 414.119, 590.098 415.851 L 591.196 419 623.598 419 C 654.446 419, 656 418.911, 656 417.152 C 656 413.969, 652.327 397.777, 650.164 391.422 C 638.048 355.832, 610.723 329.041, 574 316.748 C 569.875 315.367, 564.925 313.910, 563 313.509 C 561.075 313.109, 556.350 312.083, 552.500 311.230 C 544.580 309.474, 504.527 308.418, 502 309.898 M 0.451 676 C 0.451 695.525, 0.585 703.513, 0.748 693.750 C 0.912 683.988, 0.912 668.013, 0.748 658.250 C 0.585 648.488, 0.451 656.475, 0.451 676 M 817.500 854.921 C 811.179 856.693, 807.041 859.107, 802.355 863.756 C 788.472 877.531, 786.366 902.518, 797.569 920.535 C 801.288 926.516, 805.391 930.153, 811.795 933.144 C 818.273 936.171, 836.621 936.435, 842 933.579 C 843.925 932.557, 845.725 931.446, 846 931.110 C 846.275 930.775, 847.400 930.016, 848.500 929.424 C 853.304 926.840, 862.469 908.186, 860.500 905.001 C 860.160 904.450, 858.351 904, 856.480 904 C 853.274 904, 852.994 904.281, 851.631 908.872 C 849.484 916.101, 847.500 919.416, 843.034 923.239 C 832.065 932.628, 814.340 930.266, 805.814 918.280 C 800.814 911.250, 798.989 904.958, 798.995 894.770 C 799.001 884.062, 801.718 875.816, 807.412 869.226 C 813.377 862.323, 826.938 859.093, 836.288 862.349 C 840.806 863.922, 847.079 869.794, 849.648 874.854 C 851.856 879.200, 852.769 879.964, 855.781 879.985 C 858.782 880.005, 859.381 878.128, 858.004 873.014 C 856.568 867.682, 850.732 861.327, 843.852 857.603 C 839.285 855.132, 837.180 854.661, 829.500 854.393 C 824.550 854.221, 819.150 854.458, 817.500 854.921 M 117.667 855.667 C 117.300 856.033, 117 869.111, 117 884.729 C 117 915.909, 117.523 919.539, 122.962 926.137 C 124.517 928.024, 128.199 930.897, 131.144 932.522 C 136.162 935.290, 137.194 935.477, 147.500 935.481 C 156.974 935.485, 159.153 935.165, 163.206 933.175 C 168.805 930.426, 173.482 925.375, 176.113 919.236 C 177.880 915.114, 178.009 912.457, 177.765 885.133 L 177.500 855.500 174.250 855.187 C 172.463 855.014, 170.999 855.239, 170.998 855.687 C 170.997 856.134, 170.847 868.875, 170.665 884 C 170.295 914.614, 169.863 917.137, 163.984 923.016 C 155.883 931.117, 139.102 931.116, 131.024 923.013 C 125.583 917.555, 125 913.694, 125 883.093 C 125 859.505, 124.806 856.140, 123.418 855.607 C 121.330 854.806, 118.498 854.835, 117.667 855.667 M 262.189 855.862 C 261.321 856.412, 260.983 858.351, 261.189 861.597 C 261.473 866.080, 261.730 866.527, 264.183 866.810 C 267.278 867.168, 268.771 865.117, 268.776 860.500 C 268.782 855.695, 265.782 853.583, 262.189 855.862 M 503.250 855.641 C 501.321 856.453, 501.604 865.634, 503.582 866.393 C 508.519 868.287, 510.495 865.912, 509.824 858.888 C 509.556 856.091, 509.064 855.466, 507 855.307 C 505.625 855.201, 503.938 855.351, 503.250 855.641 M 734.406 856.903 C 729.523 859.121, 727 864.270, 727 872.020 L 727 877 723.035 877 C 719.990 877, 718.801 877.503, 717.909 879.171 C 716.946 880.970, 717.058 881.569, 718.565 882.671 C 719.564 883.402, 721.871 884, 723.691 884 L 727 884 727 907.809 C 727 933.562, 727.364 935.507, 732.056 934.845 L 734.500 934.500 734.767 909.250 L 735.034 884 739.267 883.985 C 744.849 883.964, 746.439 882.884, 745.630 879.662 C 745.071 877.435, 744.383 877.070, 740.245 876.805 L 735.500 876.500 735.205 870.910 C 734.858 864.339, 735.871 863.088, 742.211 862.260 C 747.899 861.518, 749.379 859.522, 746.429 856.571 C 744.340 854.483, 739.438 854.618, 734.406 856.903 M 938.667 855.667 C 937.592 856.741, 937.873 933.803, 938.954 934.472 C 939.479 934.796, 941.054 934.774, 942.454 934.422 L 945 933.783 945 894.999 C 945 860.555, 944.823 856.146, 943.418 855.607 C 941.350 854.813, 939.497 854.837, 938.667 855.667 M 963.406 856.386 C 963.113 857.148, 963.015 859.735, 963.187 862.136 C 963.451 865.819, 963.860 866.551, 965.805 866.827 C 969.318 867.325, 971 865.272, 971 860.485 C 971 857.513, 970.519 856.029, 969.418 855.607 C 966.730 854.576, 963.963 854.934, 963.406 856.386 M 1000.071 856.726 C 994.923 859.389, 992.792 862.985, 992.104 870.173 C 991.597 875.465, 991.179 876.526, 989.500 876.778 C 983.787 877.635, 983 878.075, 983 880.412 C 983 883.026, 984.652 884, 989.082 884 L 992 884 992 908.525 L 992 933.050 994.622 934.046 C 999.797 936.014, 1000 935.047, 1000 908.378 L 1000 884 1003.918 884 C 1009.057 884, 1011 883.181, 1011 881.015 C 1011 878.461, 1009.032 877.194, 1004.487 876.825 L 1000.500 876.500 1000.207 871.500 C 999.815 864.834, 1001.436 862.707, 1007.117 862.431 C 1011.382 862.224, 1011.500 862.128, 1011.500 858.859 C 1011.500 855.652, 1011.319 855.488, 1007.500 855.226 C 1005.131 855.065, 1002.102 855.676, 1000.071 856.726 M 1194.667 856.693 C 1194.228 858.269, 1194.283 861.114, 1194.843 865.813 C 1194.946 866.671, 1196.128 867.018, 1198.250 866.813 C 1201.485 866.501, 1201.500 866.474, 1201.500 861 C 1201.500 855.557, 1201.467 855.497, 1198.335 855.193 C 1195.973 854.964, 1195.043 855.344, 1194.667 856.693 M 533.298 860.790 C 532.588 861.244, 531.975 864.613, 531.798 869.029 L 531.500 876.500 527 877 C 522.778 877.469, 522.500 877.685, 522.500 880.500 C 522.500 883.370, 522.707 883.513, 527.250 883.805 L 532 884.110 532 906.632 L 532 929.154 534.923 932.077 C 537.516 934.670, 538.537 935, 543.954 935 C 548.687 935, 550.204 934.632, 550.691 933.364 C 551.526 931.186, 549.732 928.514, 547.386 928.443 C 546.349 928.411, 544.263 928.065, 542.750 927.674 L 540 926.962 540 905.481 L 540 884 544.250 883.985 C 549.849 883.965, 551.439 882.887, 550.630 879.662 C 550.071 877.435, 549.383 877.070, 545.245 876.805 L 540.500 876.500 540.208 868.750 C 539.990 862.979, 539.564 861, 538.540 861 C 537.783 861, 536.564 860.780, 535.832 860.511 C 535.099 860.241, 533.959 860.367, 533.298 860.790 M 212.500 877.693 C 210.850 878.581, 208.586 880.363, 207.468 881.653 C 204.774 884.764, 204.186 884.619, 203.813 880.750 C 203.536 877.875, 203.154 877.500, 200.500 877.500 L 197.500 877.500 197.235 905.629 C 196.971 933.522, 196.987 933.763, 199.081 934.311 C 203.837 935.555, 204 934.948, 204 916.019 C 204 896.396, 204.880 891.966, 209.743 887.103 C 215.781 881.065, 226.277 880.548, 231.528 886.029 C 235.145 889.805, 235.832 894.518, 235.927 916.215 C 235.996 932.040, 236.110 932.988, 238.064 934.034 C 239.613 934.863, 240.506 934.825, 241.642 933.882 C 242.933 932.811, 243.108 929.217, 242.828 909.562 C 242.511 887.263, 242.423 886.392, 240.166 883.227 C 236.538 878.141, 231.345 875.993, 222.790 876.040 C 218.056 876.066, 214.448 876.646, 212.500 877.693 M 353.852 878.016 C 348.816 880.676, 343.385 887.323, 341.424 893.227 C 340.392 896.334, 339.794 901.394, 339.814 906.837 C 339.850 916.719, 341.743 922.360, 347.050 928.404 C 352.316 934.402, 355.196 935.464, 366.184 935.460 C 375.479 935.456, 376.020 935.334, 379.623 932.417 C 385.196 927.907, 388.781 922.968, 389.544 918.750 C 390.211 915.065, 390.168 915, 387.065 915 C 384.567 915, 383.551 915.648, 382.203 918.098 C 379.105 923.734, 376.704 926.230, 372.579 928.104 C 367.359 930.474, 363.922 930.470, 358.695 928.087 C 353.806 925.858, 350.823 922.192, 348.620 915.701 C 345.948 907.831, 345.513 908, 368.407 908 C 389.734 908, 391 907.739, 391 903.349 C 391 899.272, 388.212 890.297, 385.720 886.349 C 382.918 881.911, 381.943 881.017, 376.720 878.107 C 371.583 875.244, 359.191 875.195, 353.852 878.016 M 422.729 878.401 C 420.104 879.687, 416.940 881.923, 415.697 883.369 C 412.794 886.748, 412 886.686, 412 883.082 C 412 881.477, 411.727 879.452, 411.393 878.582 C 410.543 876.366, 406.283 876.602, 405.035 878.934 C 403.941 880.979, 403.560 927.759, 404.606 931.658 C 405.212 933.915, 408.199 935.245, 410.596 934.325 C 411.724 933.892, 412 930.482, 412 916.976 C 412 891.849, 414.040 888.382, 431.750 883.413 C 433.343 882.967, 433.376 878.776, 431.800 877.200 C 430.087 875.487, 428.152 875.743, 422.729 878.401 M 453 877.673 C 448.311 879.697, 446.115 881.789, 444.417 885.852 C 442.465 890.525, 442.649 894.912, 444.956 898.696 C 448.138 903.914, 452.996 906.226, 466.736 909.061 C 473.826 910.523, 478.752 913.821, 480.267 918.119 C 481.208 920.792, 477.269 925.975, 472.729 928.036 C 463.976 932.010, 454.167 928.973, 450.399 921.123 C 447.949 916.018, 446.359 914.903, 443.225 916.091 C 441.348 916.803, 441.067 917.439, 441.616 919.727 C 444.602 932.176, 454.382 937.557, 470.390 935.557 C 479.468 934.423, 488 926.876, 488 919.980 C 488 910.670, 482.592 905.339, 470.333 902.566 C 459.540 900.124, 456.156 898.874, 453.384 896.305 C 450.032 893.198, 450.262 889.081, 453.990 885.510 C 456.623 882.987, 457.746 882.637, 463.416 882.573 C 470.934 882.488, 474.399 884.415, 477.332 890.315 C 478.804 893.275, 479.727 894, 482.023 894 C 485.784 894, 486.390 892.770, 484.858 888.244 C 481.957 879.673, 475.682 875.962, 464.290 876.082 C 459.731 876.129, 455.048 876.790, 453 877.673 M 668.433 878.925 C 659.326 884.149, 654.538 893.325, 654.580 905.476 C 654.624 918.375, 658.588 926.424, 667.927 932.581 C 672.013 935.275, 673.053 935.498, 681.427 935.469 C 689.924 935.440, 690.830 935.230, 695.697 932.166 C 713.463 920.980, 712.904 889.441, 694.755 879.033 C 690.112 876.370, 688.568 876.019, 681.500 876.019 C 674.497 876.019, 672.868 876.381, 668.433 878.925 M 884.804 878.041 C 879.727 880.722, 876.025 885.854, 875.736 890.613 C 875.519 894.184, 875.725 894.526, 878.268 894.818 C 880.644 895.091, 881.285 894.582, 882.786 891.229 C 885.103 886.054, 886.891 884.401, 891.586 883.098 C 896.989 881.598, 900.276 881.727, 905.018 883.624 C 909.278 885.329, 912.025 889.113, 911.968 893.200 C 911.898 898.262, 907.597 900.513, 896 901.554 C 887.917 902.280, 879.966 904.816, 876.805 907.676 C 869.988 913.846, 870.796 926.281, 878.414 932.448 C 882.010 935.358, 882.615 935.500, 891.416 935.500 C 899.849 935.500, 901.011 935.258, 904.872 932.703 C 907.197 931.165, 909.350 929.252, 909.656 928.453 C 910.358 926.625, 912 926.550, 912 928.347 C 912 930.511, 915.267 933.623, 918.335 934.380 C 922.752 935.472, 925 934.315, 925 930.952 C 925 928.678, 924.451 927.900, 922.500 927.411 C 921.125 927.066, 919.963 926.269, 919.917 925.642 C 919.871 925.014, 919.688 916.625, 919.509 907 C 919.109 885.477, 917.793 881.537, 909.648 877.474 C 905.066 875.189, 889.533 875.543, 884.804 878.041 M 1036 877.257 C 1030.653 879.656, 1025.087 885.123, 1022.565 890.453 C 1020.374 895.086, 1019.987 897.320, 1019.930 905.691 C 1019.853 916.843, 1021.653 922.383, 1027.279 928.316 C 1032.758 934.093, 1036.374 935.438, 1046.523 935.471 C 1055.012 935.498, 1055.840 935.310, 1060.523 932.280 C 1066.082 928.684, 1069.887 923.696, 1071.735 917.584 C 1073.218 912.679, 1073.372 899.878, 1072.007 894.965 C 1070.214 888.512, 1065.444 882.295, 1059.805 879.061 C 1055.069 876.345, 1053.642 876.025, 1046.500 876.077 C 1042.100 876.109, 1037.375 876.640, 1036 877.257 M 1107.500 877.867 C 1105.300 878.870, 1102.085 880.885, 1100.356 882.345 C 1098.626 883.805, 1096.967 885, 1096.669 885 C 1096.371 885, 1095.986 883.583, 1095.813 881.851 C 1095.467 878.369, 1093.156 876.342, 1090.636 877.309 C 1089.175 877.870, 1089 880.931, 1089 905.862 C 1089 930.333, 1089.194 933.861, 1090.572 934.389 C 1091.437 934.721, 1093.012 934.529, 1094.072 933.961 C 1095.844 933.013, 1096.002 931.702, 1096.024 917.715 C 1096.037 909.347, 1096.457 900.735, 1096.957 898.577 C 1098.624 891.394, 1103.722 886.519, 1111.667 884.512 C 1115.850 883.455, 1116.544 882.916, 1116.830 880.504 C 1117.386 875.808, 1114.072 874.871, 1107.500 877.867 M 1146.213 877.459 C 1144.954 878.154, 1142.900 879.684, 1141.648 880.861 C 1138.869 883.471, 1138 883.552, 1138 881.200 C 1138 877.373, 1131.900 875.213, 1130.607 878.582 C 1130.273 879.452, 1130 891.997, 1130 906.459 C 1130 927.535, 1130.273 932.981, 1131.373 933.895 C 1132.822 935.097, 1135.996 934.381, 1137.235 932.573 C 1137.639 931.983, 1137.976 923.542, 1137.985 913.815 C 1137.993 903.820, 1138.461 894.906, 1139.061 893.315 C 1140.695 888.981, 1146.009 884.075, 1150.328 882.912 C 1155.020 881.648, 1161.198 882.534, 1163.688 884.827 C 1168.459 889.222, 1168.478 889.321, 1169 912.401 L 1169.500 934.500 1172.183 934.810 C 1176.789 935.342, 1177.210 933.033, 1176.779 909.657 C 1176.459 892.311, 1176.088 887.950, 1174.720 885.449 C 1172.955 882.220, 1169.958 879.315, 1166.264 877.250 C 1163.381 875.639, 1149.243 875.786, 1146.213 877.459 M 1230.979 877.331 C 1223.912 880.609, 1220.017 885.549, 1220.007 891.250 C 1220.001 894.479, 1220.313 894.998, 1222.250 894.985 C 1225.288 894.964, 1226.589 893.973, 1227.480 891 C 1229.396 884.611, 1236.369 881.313, 1245.350 882.548 C 1252 883.463, 1256 887.419, 1256 893.083 C 1256 898.296, 1253.270 899.956, 1242.769 901.128 C 1222.329 903.408, 1215.717 908.929, 1217.241 922.444 C 1218.354 932.324, 1227.486 937.294, 1241.343 935.563 C 1245.578 935.034, 1247.709 934.085, 1251.013 931.257 L 1255.250 927.630 1257.875 930.723 C 1262.523 936.199, 1269 936.332, 1269 930.952 C 1269 928.702, 1268.448 927.899, 1266.574 927.429 L 1264.148 926.820 1263.824 907.160 C 1263.456 884.800, 1262.763 882.412, 1255.444 878.267 C 1252.137 876.394, 1250.047 876.043, 1242.500 876.098 C 1237.550 876.133, 1232.366 876.688, 1230.979 877.331 M 262.250 877.662 C 261.292 878.049, 261 884.662, 261 905.967 C 261 933.352, 261.031 933.775, 263.096 934.315 C 265.654 934.984, 267.996 934.188, 268.012 932.643 C 268.260 909.984, 267.969 878.758, 267.503 878.006 C 266.855 876.957, 264.396 876.796, 262.250 877.662 M 281.369 878.480 C 280.877 879.764, 289.438 904.368, 292.081 909.262 C 292.604 910.231, 293.744 913.156, 294.615 915.762 C 296.424 921.174, 298.369 925.957, 300.814 931 C 302.490 934.459, 303 934.659, 308.771 934.119 C 310.162 933.989, 310.591 933.083, 314.509 922 C 315.967 917.875, 317.520 913.600, 317.960 912.500 C 318.816 910.363, 320.998 904.656, 323.603 897.750 C 324.484 895.413, 325.518 892.825, 325.900 892 C 326.282 891.175, 327.453 887.915, 328.502 884.755 C 330.737 878.027, 329.844 875.942, 325.417 877.555 C 323.486 878.259, 322.328 879.906, 320.882 884 C 318.219 891.546, 316.588 896.077, 312.965 906 C 311.257 910.675, 309.486 915.975, 309.029 917.778 C 307.705 923, 304 926.310, 304 922.271 C 304 921.320, 302.875 917.495, 301.500 913.771 C 300.125 910.047, 297.841 903.737, 296.425 899.750 C 288.884 878.513, 288.112 877, 284.817 877 C 283.197 877, 281.689 877.647, 281.369 878.480 M 503.250 877.662 C 502.293 878.049, 502 884.590, 502 905.605 L 502 933.043 504.470 934.168 C 506.359 935.029, 507.301 934.995, 508.470 934.025 C 509.772 932.944, 510 928.840, 510 906.459 C 510 891.997, 509.727 879.452, 509.393 878.582 C 508.808 877.058, 505.847 876.614, 503.250 877.662 M 560.419 878.350 C 559.983 879.487, 563.736 890.443, 566.980 897.500 C 567.485 898.600, 569.763 904.225, 572.042 910 C 577.279 923.269, 578.859 927.065, 580.048 929.236 C 581.694 932.239, 581.094 936.634, 578.307 942.006 C 575.526 947.366, 573.119 949, 568.002 949 C 566.017 949, 564.940 949.613, 564.503 950.991 C 563.472 954.238, 564.777 955, 571.370 955 C 579.993 955, 582.432 952.351, 587.945 937 C 589.387 932.984, 590.254 930.724, 591.970 926.500 C 592.641 924.850, 593.866 921.475, 594.694 919 C 595.522 916.525, 596.785 913.150, 597.503 911.500 C 598.220 909.850, 600.012 905.125, 601.485 901 C 602.959 896.875, 605.252 890.883, 606.582 887.684 C 609.719 880.138, 609.769 876.995, 606.750 877.015 C 605.513 877.024, 604.050 877.361, 603.500 877.765 C 602.091 878.800, 599 885.717, 599 887.834 C 599 888.805, 598.605 890.028, 598.123 890.550 C 597.641 891.072, 596.317 894.200, 595.180 897.500 C 585.668 925.125, 585.492 925.400, 582.567 917.250 C 581.629 914.638, 579.768 909.688, 578.431 906.250 C 577.094 902.813, 574.826 896.962, 573.390 893.250 C 568.566 880.773, 567.560 878.503, 566.528 877.765 C 564.818 876.543, 560.971 876.911, 560.419 878.350 M 963.667 877.667 C 963.300 878.033, 963 890.578, 963 905.544 C 963 935.272, 963.144 936.036, 968.378 934.046 L 971 933.050 971 906.225 C 971 886.694, 970.674 879.074, 969.800 878.200 C 968.506 876.906, 964.753 876.580, 963.667 877.667 M 1194.737 879.196 C 1193.776 883.568, 1194.682 933.082, 1195.743 934.143 C 1196.308 934.708, 1197.834 935.019, 1199.135 934.835 L 1201.500 934.500 1201.500 906 L 1201.500 877.500 1198.372 877.196 C 1195.798 876.945, 1195.154 877.299, 1194.737 879.196 M 359.245 883.493 C 353.309 886.073, 347.483 894.324, 348.171 899.177 L 348.500 901.500 365.169 901.500 C 374.337 901.500, 382.154 901.182, 382.542 900.793 C 382.929 900.405, 382.629 897.996, 381.875 895.441 C 378.831 885.133, 368.284 879.565, 359.245 883.493 M 675.604 883.038 C 671.852 884.161, 667.366 888.465, 664.697 893.500 C 661.859 898.856, 661.664 912.805, 664.357 917.839 C 668.362 925.324, 675.114 930.032, 681.770 929.978 C 685.861 929.945, 692.240 926.692, 695.267 923.095 C 698.333 919.451, 701 911.421, 701 905.833 C 701 889.891, 688.924 879.052, 675.604 883.038 M 1040.500 883.202 C 1036.511 884.590, 1031.220 889.671, 1029.256 894 C 1026.921 899.147, 1027.008 913.424, 1029.402 918 C 1038.303 935.007, 1058.025 933.351, 1064.480 915.056 C 1068.937 902.424, 1062.850 886.729, 1052.101 883.136 C 1048.027 881.775, 1044.545 881.794, 1040.500 883.202 M 905.500 906.054 C 903.300 906.495, 898.350 907.396, 894.500 908.057 C 883.952 909.867, 880 912.962, 880 919.412 C 880 924.095, 886.933 930, 892.430 930 C 896.361 930, 903.179 927.005, 906.647 923.756 C 910.119 920.503, 912.333 914.203, 911.827 909.015 C 911.453 905.173, 910.987 904.955, 905.500 906.054 M 1248.500 906.197 C 1235.046 908.676, 1232.224 909.456, 1228.750 911.655 C 1225.244 913.874, 1225 914.349, 1225 918.963 C 1225 923.430, 1225.333 924.152, 1228.506 926.573 C 1233.704 930.537, 1239.187 930.753, 1245.984 927.262 C 1253.081 923.616, 1255.960 918.861, 1255.984 910.750 C 1255.995 906.736, 1255.623 905.042, 1254.750 905.138 C 1254.063 905.213, 1251.250 905.690, 1248.500 906.197 M 132.966 975.355 C 120.833 979.286, 114.773 988.634, 116.573 1000.639 C 117.069 1003.945, 118.242 1006.213, 120.877 1008.960 C 124.678 1012.922, 129.308 1014.708, 146.539 1018.860 C 160.064 1022.119, 164.470 1024.813, 166.942 1031.337 C 167.804 1033.613, 167.644 1035.016, 166.134 1038.429 C 163.786 1043.738, 159.543 1046.822, 152.255 1048.516 C 145.704 1050.039, 136.775 1048.927, 131.050 1045.876 C 126.866 1043.647, 122 1036.708, 122 1032.972 C 122 1029.475, 119.742 1027.597, 116.513 1028.407 C 114.268 1028.971, 114 1029.547, 114 1033.813 C 114 1040.990, 118.840 1048.449, 126 1052.305 C 130.900 1054.944, 132.720 1055.322, 142.684 1055.770 C 159.011 1056.504, 167.339 1053.362, 172.546 1044.500 C 179.220 1033.143, 174.980 1020.628, 162.730 1015.523 C 155.773 1012.624, 154.813 1012.321, 147 1010.548 C 133.422 1007.468, 130.936 1006.566, 127.938 1003.635 C 115.854 991.820, 134.437 975.768, 152.230 982.652 C 158.085 984.917, 160.810 987.589, 163.553 993.750 C 165.739 998.661, 166.120 999, 169.445 999 C 172.662 999, 172.998 998.738, 172.978 996.250 C 172.928 989.939, 166.165 980.492, 159.614 977.581 C 151.107 973.801, 140.496 972.915, 132.966 975.355 M 354.456 977.253 C 354.192 977.942, 354.093 995.605, 354.238 1016.503 L 354.500 1054.500 358.250 1054.810 C 360.313 1054.981, 362.087 1054.981, 362.193 1054.810 C 362.299 1054.640, 362.636 1046.175, 362.943 1036 L 363.500 1017.500 381.250 1017.227 L 399 1016.954 399 1013.977 C 399 1012.309, 398.450 1010.961, 397.750 1010.912 C 397.063 1010.863, 389.525 1010.859, 381 1010.901 C 372.475 1010.944, 364.923 1010.611, 364.219 1010.162 C 363.261 1009.550, 363.009 1006.086, 363.219 996.422 L 363.500 983.500 383.647 983.230 L 403.793 982.959 404.427 980.434 C 404.776 979.045, 404.796 977.479, 404.472 976.954 C 403.520 975.414, 355.051 975.704, 354.456 977.253 M 645.667 976.667 C 645.300 977.033, 645 979.228, 645 981.544 C 645 986.270, 646.697 988.323, 650.195 987.827 C 652.254 987.535, 652.532 986.887, 652.800 981.750 L 653.100 976 649.717 976 C 647.856 976, 646.033 976.300, 645.667 976.667 M 200.288 998.499 C 194.798 1001.282, 191.687 1005.218, 190.674 1010.663 C 189.474 1017.105, 197.047 1017.617, 198.458 1011.190 C 199.555 1006.197, 206.135 1002, 212.866 1002 C 222.930 1002, 230.558 1011.717, 225.250 1017.776 C 223.306 1019.996, 216.182 1022, 210.239 1022 C 205.821 1022, 196.458 1024.566, 193.620 1026.554 C 189.776 1029.246, 188.013 1033.274, 188.007 1039.382 C 187.995 1049.508, 192.868 1054.815, 203.022 1055.736 C 212.182 1056.566, 217.171 1055.401, 221.941 1051.318 L 226.145 1047.720 229.189 1051.413 C 231.824 1054.610, 232.723 1055.066, 235.867 1054.803 C 239.140 1054.530, 239.530 1054.186, 239.808 1051.327 C 240.066 1048.664, 239.744 1048.102, 237.808 1047.827 C 235.508 1047.501, 235.498 1047.428, 234.975 1028 C 234.389 1006.245, 233.872 1004.292, 227.383 999.343 C 224.160 996.885, 222.763 996.542, 214.632 996.219 C 206.345 995.890, 205.018 996.100, 200.288 998.499 M 268.999 997.877 C 267.073 998.930, 264.651 1000.728, 263.615 1001.873 C 261.376 1004.347, 260 1003.802, 260 1000.441 C 260 998.318, 259.544 998, 256.500 998 L 253 998 253 1026.500 L 253 1055 256.500 1055 L 260 1055 260.006 1037.250 C 260.009 1027.487, 260.483 1017.800, 261.060 1015.723 C 263.072 1008.477, 271.127 1001.925, 277.872 1002.048 C 281.618 1002.117, 286.974 1005.028, 289.412 1008.321 C 291.353 1010.943, 291.524 1012.689, 291.835 1033.071 L 292.169 1055 295.585 1055 L 299 1055 298.984 1031.750 C 298.968 1009.547, 298.866 1008.322, 296.733 1004.556 C 293.496 998.840, 289.226 996.721, 280.111 996.307 C 274.038 996.031, 271.792 996.349, 268.999 997.877 M 439.500 996.976 C 433.825 998.435, 431.316 999.835, 428.605 1003.058 C 425.623 1006.602, 424.337 1006.183, 423.827 1001.500 C 423.547 998.928, 423.036 998.455, 420.250 998.187 L 417 997.873 417 1026.437 L 417 1055 420.481 1055 C 424.907 1055, 424.904 1055.014, 425.237 1033.423 C 425.488 1017.092, 425.609 1016.187, 427.983 1012.726 C 430.815 1008.598, 435.952 1005.392, 441.613 1004.222 C 444.586 1003.608, 445.577 1002.886, 445.827 1001.154 C 446.006 999.909, 445.614 998.240, 444.954 997.445 C 443.640 995.862, 443.785 995.874, 439.500 996.976 M 467.500 997.902 C 462.339 1000.299, 459.358 1003.208, 457.495 1007.665 C 455.574 1012.263, 455.601 1014.633, 457.582 1015.393 C 460.796 1016.626, 461.936 1015.883, 464.687 1010.759 C 468.915 1002.882, 476.794 1000.122, 485.529 1003.458 C 492.333 1006.057, 495.195 1013.234, 491.250 1017.807 C 489.416 1019.934, 481.551 1022, 475.289 1022 C 469.685 1022, 461.120 1025.120, 458.021 1028.290 C 456.478 1029.868, 454.652 1033.171, 453.964 1035.629 C 452.354 1041.377, 454.050 1047.192, 458.624 1051.609 C 462.239 1055.100, 465.470 1056, 474.390 1056 C 480.812 1056, 486.832 1053.651, 490.117 1049.864 C 492.196 1047.469, 494 1047.478, 494 1049.885 C 494 1052.462, 498.190 1055, 502.446 1055 C 505.341 1055, 506.070 1054.568, 506.575 1052.557 C 507.333 1049.538, 506.464 1048, 504 1048 C 502.965 1048, 501.754 1047.438, 501.309 1046.750 C 500.864 1046.063, 500.275 1036.335, 500 1025.134 L 499.500 1004.768 495.266 1001.012 C 492.937 998.947, 489.618 996.974, 487.891 996.628 C 481.610 995.372, 471.601 995.997, 467.500 997.902 M 535.700 997.473 C 534.161 998.276, 531.737 999.848, 530.316 1000.966 C 527.013 1003.564, 526.214 1003.525, 525.820 1000.750 C 525.569 998.988, 524.850 998.500, 522.500 998.500 L 519.500 998.500 519.500 1026.500 L 519.500 1054.500 522.500 1054.500 L 525.500 1054.500 526.085 1035 C 526.560 1019.133, 527 1014.848, 528.443 1012 C 532.777 1003.444, 543.500 999.568, 550.696 1003.956 C 557.122 1007.874, 557.448 1009.169, 558 1032.952 L 558.500 1054.500 561.500 1054.500 L 564.500 1054.500 564.719 1032 C 564.927 1010.545, 564.834 1009.291, 562.719 1005 C 559.700 998.878, 554.038 995.998, 545.038 996.006 C 541.262 996.010, 537.317 996.629, 535.700 997.473 M 596.500 997.806 C 590.244 1000.753, 586.484 1004.483, 583.463 1010.734 C 580.972 1015.891, 580.681 1017.561, 580.713 1026.544 C 580.753 1037.599, 582.112 1041.641, 588.076 1048.434 C 592.426 1053.388, 596.451 1055.152, 604.760 1055.746 C 616.138 1056.558, 623.488 1052.843, 628.001 1043.999 C 630.255 1039.581, 630.629 1034.453, 628.750 1033.738 C 626.372 1032.833, 623.063 1034.901, 622.399 1037.707 C 619.874 1048.370, 606.788 1053.224, 597.577 1046.912 C 588.220 1040.501, 585.108 1024.507, 590.986 1013.047 C 594.255 1006.674, 601.215 1002.060, 607.628 1002.015 C 613.009 1001.977, 622 1008.765, 622 1012.866 C 622 1014.457, 626.492 1016.409, 628.436 1015.663 C 632.905 1013.948, 626.867 1002.188, 619.544 998.342 C 614.706 995.802, 601.411 995.492, 596.500 997.806 M 683 996.669 C 678.612 998.162, 675.207 1000.150, 672.985 1002.516 C 670.840 1004.799, 670.500 1006.094, 670.500 1011.976 C 670.500 1017.385, 670.912 1019.247, 672.500 1021.005 C 675.076 1023.857, 680.724 1026.333, 689.500 1028.458 C 699.900 1030.975, 703.578 1032.802, 705.525 1036.416 C 707.132 1039.401, 707.138 1039.833, 705.606 1042.794 C 702.167 1049.445, 690.864 1051.962, 683.084 1047.809 C 678.658 1045.447, 676.703 1043.070, 675.643 1038.765 C 674.962 1035.999, 671.224 1034.126, 669.057 1035.465 C 667.351 1036.519, 667.838 1041.228, 670.087 1045.423 C 672.438 1049.810, 673.254 1050.701, 677.500 1053.513 C 681.557 1056.200, 698.635 1056.394, 704.015 1053.815 C 710.578 1050.668, 714 1045.493, 714 1038.714 C 714 1030.696, 708.569 1025.504, 697.500 1022.939 C 680.930 1019.098, 676.291 1016.295, 677.392 1010.788 C 677.733 1009.084, 678.536 1007.059, 679.176 1006.288 C 680.795 1004.338, 686.696 1002, 690 1002 C 696.297 1002, 704 1007.577, 704 1012.135 C 704 1013.644, 704.763 1014, 708 1014 C 711.530 1014, 712 1013.724, 712 1011.654 C 712 1006.293, 707.165 1000.220, 700.768 997.548 C 697.252 996.079, 686.321 995.538, 683 996.669 M 745 996.669 C 730.903 1001.468, 723.376 1016.258, 726.551 1032.919 C 728.052 1040.796, 729.116 1042.995, 733.999 1048.313 C 739.187 1053.963, 743.144 1055.500, 752.500 1055.500 C 763.944 1055.500, 768.871 1052.788, 773.902 1043.720 C 776.235 1039.515, 776.671 1034.392, 774.750 1033.746 C 771.985 1032.816, 769.823 1034.497, 767.515 1039.374 C 764.597 1045.540, 758.488 1050.015, 753.050 1049.972 C 748.022 1049.932, 740.945 1046, 737.934 1041.574 C 729.195 1028.725, 733.829 1008.859, 746.833 1003.425 C 755.484 999.811, 762.787 1003.049, 768.203 1012.902 C 769.401 1015.079, 770.646 1016, 772.394 1016 C 775.813 1016, 776.471 1014.456, 774.978 1009.933 C 773.399 1005.150, 768.758 1000.273, 763.500 997.871 C 759.667 996.120, 748.704 995.408, 745 996.669 M 804.305 997.757 C 798.873 1000.041, 794.927 1003.887, 791.409 1010.323 C 788.804 1015.087, 788.581 1016.337, 788.601 1026 C 788.626 1037.545, 789.917 1041.419, 796.076 1048.434 C 800.591 1053.577, 804.456 1055.193, 813.552 1055.743 C 820.285 1056.150, 822.359 1055.886, 826.207 1054.133 C 834.818 1050.211, 839.563 1043.470, 841.964 1031.750 C 844.623 1018.770, 838.295 1004.527, 827 998.068 C 823.059 995.814, 809.369 995.626, 804.305 997.757 M 645.476 999.201 C 645.196 999.932, 645.086 1012.673, 645.233 1027.515 L 645.500 1054.500 649 1054.500 L 652.500 1054.500 652.500 1026.500 L 652.500 998.500 649.243 998.186 C 647.214 997.991, 645.794 998.373, 645.476 999.201 M 809.174 1003.444 C 793.252 1009.216, 791.008 1036.929, 805.649 1046.962 C 815.930 1054.006, 829.385 1047.937, 833.491 1034.403 C 835.535 1027.664, 835.373 1023.078, 832.849 1016.288 C 830.329 1009.508, 825.883 1004.881, 820.276 1003.201 C 815.545 1001.783, 813.641 1001.825, 809.174 1003.444 M 223 1026 C 222.175 1026.533, 219.954 1026.976, 218.064 1026.985 C 213.572 1027.005, 202.095 1029.899, 199.325 1031.710 C 195.070 1034.492, 194.355 1041.278, 197.889 1045.352 C 201.785 1049.844, 207.501 1051.015, 214.180 1048.688 C 222.481 1045.796, 227 1039.403, 227 1030.550 C 227 1024.871, 226.183 1023.943, 223 1026 M 484 1026.654 C 475.593 1027.553, 466.646 1030.508, 463.844 1033.310 C 459.714 1037.440, 460.042 1041.042, 465 1046 C 468.255 1049.255, 469.698 1049.997, 472.750 1049.985 C 484.735 1049.937, 493.875 1040.684, 492.808 1029.678 C 492.475 1026.245, 491.370 1025.865, 484 1026.654" stroke="none" fill="#fafafa" fill-rule="evenodd"/></svg>