<?xml version="1.0" encoding="utf-8"?>
<!-- Svg Vector Icons : http://www.onlinewebfonts.com/icon -->
<!DOCTYPE svg PUBLIC "-//W3C//DTD SVG 1.1//EN" "http://www.w3.org/Graphics/SVG/1.1/DTD/svg11.dtd">
<svg version="1.1" xmlns="http://www.w3.org/2000/svg" xmlns:xlink="http://www.w3.org/1999/xlink" x="0px" y="0px" viewBox="0 0 256 256" enable-background="new 0 0 256 256" xml:space="preserve">
<metadata> Svg Vector Icons : http://www.onlinewebfonts.com/icon </metadata>
<g><g><g><path fill="#000000" d="M76.7,18.3c-7.6,1.6-14.4,6.8-18.6,14.1l-1.9,3.4L53.5,36c-5.4,0.5-10.5,4.2-13,9.6c-1.1,2.3-1.3,3.7-1.4,6.7c0,3.3,0.2,4.3,1.7,7.3c1.9,4,4.6,6.5,8.6,8.1c2.7,1.1,2.7,1.2,3,3.5c0.2,1.3,0.5,3.7,0.8,5.5c0.3,1.7,0.5,3.3,0.5,3.6c0,0.3-2.7,1.6-5.9,3c-15,6.2-27.9,15.9-33.4,25c-3.3,5.6-4.3,9.1-4.3,15.4s1,9.8,4.3,15.5c2.5,4.2,10.1,11.7,15.8,15.5c5,3.3,14.3,8.2,19.7,10.3c1.7,0.7,3.3,1.3,3.5,1.5c0.2,0.2,0,3.2-0.5,6.7c-1.2,9.5-0.8,24,1,30.7c3,11.5,7.9,18.4,16.1,22.6c4.5,2.3,7.5,3.1,13,3.2l4.5,0.1l1.5,2.1c3.2,4.3,9.5,7.2,14.8,6.6c3.6-0.4,8.8-2.9,10.9-5.3c3.5-4,5-9.8,3.9-15c-0.4-1.7-0.3-1.9,1.5-3.1c1-0.7,3.1-2.3,4.6-3.4c1.5-1.2,3-2.2,3.2-2.2c0.3,0,1.8,1,3.4,2.3c15.1,12.3,33.5,19.5,45.1,17.7c14.6-2.3,23.6-12.6,26.5-30.4c1-6.2,1-18.6,0-26.3c-0.5-3.3-0.6-6.1-0.4-6.3c0.2-0.2,1.8-0.9,3.5-1.5c5.4-2.1,14.7-7,19.7-10.3c6.3-4.2,13.4-11.3,16.2-16.4c5.5-9.7,5.5-20.1-0.2-29.4l-1.8-3l1.1-2.6c0.9-1.9,1.2-3.6,1.2-6.4c0-3.4-0.2-4.3-1.6-7.3c-0.9-1.9-2.5-4.1-3.5-5.1c-6.3-5.5-15.2-5.8-21.9-0.7l-2.2,1.6l-5.3-2.3c-2.9-1.3-5.4-2.4-5.4-2.4c-0.1-0.1,0.2-2.9,0.7-6.2c1.3-9.4,0.8-24.4-1-31.1c-3.6-14-11.7-22.7-23.1-25.1c-4.6-1-8.3-1-13.6,0c-10.1,1.9-21.9,7.8-33.4,16.7c-2.5,1.9-4.2,2.9-4.6,2.7c-0.4-0.2-1.7-1.2-3-2.3c-4.1-3.4-12.2-8.7-17.3-11.2C95.2,18.2,85.5,16.3,76.7,18.3z M92.3,26.7c4.5,1.1,11.9,4.5,17.1,7.7c4.2,2.7,12.3,8.7,12.3,9.3c0,0.2-0.5,0.6-1,0.9c-1.5,0.8-13,13.3-18,19.5c-2.4,2.9-4.5,5.6-4.9,6c-0.3,0.4-4.1,1.2-8.6,1.9c-8.3,1.3-19.2,3.6-24.7,5.3l-3.2,1l-0.6-3.8c-0.9-5.9-0.9-5.9,1.7-7c5.6-2.3,9.6-8.3,9.7-14.5c0-5.3-1.3-8.4-5.1-12.2l-3.1-3.2l1.6-2.5C71.5,26.3,79.9,23.7,92.3,26.7z M176.9,25.9c4.8,0.6,10.6,4.9,13.8,10c1.9,3.1,4.1,10.7,4.8,16.4c0.7,5.8,0.4,15.5-0.6,22.1l-0.6,3.9l-3.2-1c-5.2-1.6-18.6-4.5-25.8-5.5c-3.8-0.6-7-1.2-7.3-1.4c-0.3-0.3-2.1-2.6-4.1-5.1c-4.9-6.1-14.5-16.7-17.7-19.5l-2.6-2.2l1.7-1.4c11.4-9.1,23.6-15.3,32.7-16.4C171.6,25.3,172.5,25.3,176.9,25.9z M60.2,44.9c6.8,4,5.1,14.4-2.6,16.1c-3.6,0.8-7.2-0.7-9.5-4.1c-1.6-2.3-1.4-7.1,0.4-9.6C51.1,43.6,56.2,42.6,60.2,44.9z M134.7,55.3c3.5,3.6,7.7,8.3,9.4,10.3l3.1,3.7h-19.3h-19.3l3.1-3.8c3.7-4.5,15.6-16.9,16.2-16.9C128.2,48.7,131.2,51.7,134.7,55.3z M142,77.4c13.4,0.8,11.6,0,17,8.1c6.7,9.9,11.3,17.9,16.6,28.6l4.7,9.4l-1.9,4.3c-4.3,9.8-14.1,26.7-21.4,37.1c-3.2,4.6-2.2,4.3-17.9,5.1c-8.3,0.4-14,0.4-22.3,0c-16.1-0.9-14.6-0.3-18.9-6.5c-2-2.9-5.5-8.4-7.9-12.2c-4.4-7.2-14.3-26.4-14.3-27.5c0-0.9,7.7-16.3,11.4-22.7c1.7-3,5.6-9.3,8.8-14c6.5-9.9,4.8-8.9,16.5-9.6C122.1,76.8,132.7,76.8,142,77.4z M88,84.4c-4.1,6.2-9,14.5-13,22.3c-1.9,3.6-3.6,6.5-3.7,6.3c-1-1-8.7-26.3-8.2-26.9C63.9,85.4,87,80,89.9,80C90.9,79.9,90.7,80.4,88,84.4z M171.8,81c6.1,1.1,11.8,2.5,17.4,4.1l3.7,1l-0.8,3.2c-1.8,8-7.1,23.9-7.9,23.9c-0.2,0-0.6-0.5-0.8-1.2c-0.9-3-10.3-19.7-15.7-27.6c-1.8-2.8-2.7-4.5-2.2-4.5C165.9,79.9,168.8,80.4,171.8,81z M230.3,89.3c0.9,0.6,2.3,1.9,2.9,2.9c1.6,2.4,1.4,7.1-0.4,9.6c-3.6,5.1-11.6,4.7-14.8-0.7c-0.9-1.6-1.1-2.6-1-5c0.2-3.3,1.2-5,3.9-6.9C223.4,87.6,227.9,87.6,230.3,89.3z M56.5,93.1c1.2,5.1,6.3,20.6,8.7,26.2l1.8,4.2l-2.8,7c-3.1,8.1-6.3,18.1-7.7,23.7c-0.5,2.2-1.1,4-1.4,4c-0.9,0-10.2-4.1-13.7-6c-13.6-7.5-21.9-16.5-23.5-25.6c-1.7-9.5,4.7-19.7,17.7-28c5.7-3.7,17.2-9.4,19.2-9.4C55.3,89.1,55.8,90.2,56.5,93.1z M206.1,91.1l3.2,1.4L209,95c-0.8,7.1,4.1,14.9,11.1,17.5c3.2,1.1,8.3,1.1,11.6-0.2l2.7-1l1.5,3.1c4.3,9.1,2.5,17.5-5.4,25.9c-3.7,4-9.8,8.5-16,11.9c-3.4,1.8-12.8,6-13.6,6c-0.3,0-1-2.2-1.7-4.8c-1.5-6.1-6.1-19.9-8.4-25.4l-1.8-4.3l2.7-7c3.1-7.9,6.4-17.9,7.8-23.7C200.4,88.5,200.1,88.6,206.1,91.1z M74.5,139.4c3.8,7.6,8.2,15.1,12.8,22.3c2,3.2,3.5,5.8,3.1,5.8c-1.5,0-16.5-3.2-21.8-4.7l-5.8-1.6l0.4-1.6c1.1-5.3,7.7-25.9,8.2-25.9C71.5,133.6,72.8,136.3,74.5,139.4z M187.3,141.6c2.4,7.1,5.8,19.2,5.5,19.5c-0.7,0.7-24.9,6.3-27.4,6.3c-0.4,0,0.3-1.4,1.5-3.2c3.6-5.4,10.5-17.1,14-24.1c1.8-3.6,3.4-6.5,3.5-6.4C184.6,133.9,185.9,137.4,187.3,141.6z M70.9,171.5c7.6,1.9,22,4.6,24.9,4.6c1.2,0,2,0.8,5.3,4.8c5.4,6.8,7.8,9.5,14.8,16.6c3.5,3.5,6,6.4,5.7,6.7c-0.3,0.2-1.9,1.4-3.6,2.8c-1.7,1.4-3.4,2.5-3.7,2.5c-0.3,0-1.3-0.6-2.3-1.3c-2.5-1.9-5.8-2.9-9.5-2.9c-8.6,0-15.2,5.7-16.6,14.3l-0.4,2.2l-4-0.2c-15.6-0.9-23.9-18.5-21-44.7c0.8-7.5,1-8.1,1.9-7.7C62.8,169.4,66.7,170.4,70.9,171.5z M194.7,170.6c2,11.2,1.6,25-1,33.7c-2.2,7.3-6.4,12.7-11.8,15.5c-8.1,4-20.4,1.9-33.2-5.6c-3.4-1.9-10-6.6-13.3-9.3l-1.4-1.1l6.9-7.1c3.8-3.8,9.4-10.1,12.4-13.8c4.7-5.8,5.7-6.8,7-6.8c4.1,0,28-4.9,32.2-6.6C194.2,168.8,194.3,168.8,194.7,170.6z M143.3,182.5c-5.4,6.4-14.6,15.7-15.5,15.7c-0.8,0-10-9.4-15.5-15.8l-3.8-4.5h19.3h19.3L143.3,182.5z M106.4,214c3.2,1.6,4.3,3.7,4.3,7.8c0,3.8-0.8,5.4-3.8,7.4c-1.3,0.9-2.4,1.2-4.6,1.2c-3.4,0-5.6-1.2-7.6-4.1c-1.6-2.4-1.4-7.1,0.4-9.6C97.6,213.2,102.5,212,106.4,214z"/><path fill="#000000" d="M124,96.3c-11.2,1.7-20.4,10.2-23,21.1c-2.3,9.5,0.5,18.7,7.6,25.7c5.7,5.6,11.3,7.9,19.4,7.9c7.8,0,14.8-3.1,20.1-8.8c11.7-12.8,9.1-32.3-5.6-42C137.4,97,130,95.3,124,96.3z M136.3,105.7c7.8,3.8,12.6,12.7,11.2,21c-1.2,6.5-5.3,11.9-11.3,14.8c-3,1.4-3.8,1.6-8.2,1.6c-4.3,0-5.2-0.2-8.2-1.6c-16.1-7.6-15-30.4,1.7-36.6C125.4,103.5,132.3,103.8,136.3,105.7z"/></g></g></g>
</svg>