<?xml version="1.0"?>
<svg version="1.1" xmlns="http://www.w3.org/2000/svg" width="400px" height="200px" style=""><path fill="#7f0020" d="M8.0849609375,124.0966796875q0-7.4169921875,0.66650390625-14.85107421875t2.78564453125-14.64599609375q0.615234375-2.1533203125,1.6064453125-4.25537109375t2.4267578125-3.74267578125t3.41796875-2.666015625t4.716796875-1.025390625l0.7177734375,0.068359375q2.939453125,0.41015625,4.3408203125,2.37548828125t1.4013671875,4.90478515625q0,0.7861328125-0.18798828125,1.96533203125t-0.59814453125,2.27294921875t-1.11083984375,1.86279296875t-1.76025390625,0.76904296875q-0.478515625-0.068359375-0.87158203125-0.1708984375t-0.73486328125-0.4443359375q0.546875-1.1962890625,0.97412109375-2.4951171875t0.42724609375-2.9736328125q0-0.615234375-0.1025390625-1.572265625t-0.39306640625-1.89697265625t-0.76904296875-1.640625t-1.3330078125-0.70068359375q-2.1533203125,0-3.623046875,2.40966796875t-2.4609375,6.15234375t-1.4697265625,8.271484375t-0.73486328125,8.75t-0.29052734375,7.6220703125t-0.0341796875,4.80224609375q0,1.640625-0.0341796875,3.623046875l0,0.4443359375q0.0341796875,1.7431640625,0.2392578125,3.3154296875q0.2734375,1.77734375,1.0595703125,3.076171875t2.4609375,1.50390625q0.5126953125,0.068359375,0.9912109375,0.068359375q1.982421875,0,3.5888671875-1.1279296875q1.982421875-1.4013671875,3.5205078125-3.64013671875t2.734375-4.921875t2.20458984375-5.07568359375t1.96533203125-3.96484375t1.982421875-1.572265625q0.341796875,0,1.025390625,0.13671875t0.68359375,0.6494140625q0,0.13671875-0.068359375,0.3759765625t-0.1708984375,0.3759765625q-0.9228515625,3.623046875-2.34130859375,7.51953125t-3.623046875,7.09228515625t-5.400390625,5.21240234375t-7.67333984375,2.0166015625q-3.212890625,0-5.21240234375-1.21337890625t-3.076171875-3.2470703125t-1.4697265625-4.59716796875t-0.39306640625-5.1953125z M44.509228515625,125.9765625l0-3.212890625q0-1.7431640625,0.08544921875-4.93896484375t0.22216796875-7.0068359375t0.3759765625-7.94677734375t0.546875-7.81005859375t0.73486328125-6.57958984375t0.97412109375-4.306640625q0.341796875-0.7861328125,1.1279296875-0.9912109375t1.5380859375-0.205078125q1.1962890625,0,2.10205078125,0.52978515625t0.90576171875,1.93115234375l-0.615234375,0.68359375q-1.1962890625,7.8955078125-1.5380859375,15.859375t-0.478515625,15.927734375q0.8544921875-1.3330078125,1.93115234375-2.61474609375t2.392578125-2.27294921875t2.8369140625-1.58935546875t3.33251953125-0.59814453125q2.32421875,0,3.84521484375,1.4013671875t2.51220703125,3.64013671875t1.4697265625,5.00732421875t0.73486328125,5.537109375t0.35888671875,5.24658203125t0.3076171875,4.11865234375q-0.6494140625,0.888671875-1.9140625,0.888671875l-0.1025390625,0q-0.546875,0-1.1962890625-0.13671875t-0.8544921875-0.68359375l0.068359375,0.068359375q-0.478515625-1.0595703125-0.6494140625-3.05908203125t-0.2734375-4.4091796875t-0.35888671875-4.93896484375t-0.76904296875-4.580078125t-1.50390625-3.3837890625t-2.666015625-1.4013671875l-0.205078125,0q-2.0166015625,0-3.3837890625,1.23046875q-1.435546875,1.298828125-2.32421875,3.41796875t-1.3671875,4.716796875t-0.73486328125,5.00732421875t-0.39306640625,4.375t-0.341796875,2.88818359375q-0.205078125,0.7861328125-1.21337890625,1.04248046875t-1.72607421875,0.25634765625q-1.6748046875,0-2.734375-0.95703125q-0.7861328125-1.8798828125-0.9228515625-4.6826171875t-0.13671875-5.46875z M77.20791015625,123.65234375q0-2.392578125,0.52978515625-5.6396484375t1.79443359375-6.15234375t3.33251953125-4.93896484375t5.21240234375-2.03369140625q2.939453125,0,4.4091796875,1.69189453125t1.4697265625,4.56298828125q0,1.8798828125-0.70068359375,4.11865234375t-1.99951171875,4.23828125t-3.076171875,3.33251953125t-3.96484375,1.3330078125l-0.888671875-0.068359375q0,0.9228515625,0.2734375,2.47802734375t0.80322265625,3.09326171875t1.3671875,2.7001953125t2.03369140625,1.162109375q1.7431640625,0,3.349609375-1.4013671875t3.0419921875-3.1103515625t2.666015625-3.1103515625t2.255859375-1.4013671875q0.546875,0,1.1279296875,0.1708984375t0.6494140625,0.95703125q0,0.478515625-0.25634765625,0.7861328125t-0.46142578125,0.68359375q-1.0595703125,1.8115234375-2.30712890625,3.4521484375t-2.81982421875,2.9736328125t-3.43505859375,2.10205078125t-4.11865234375,0.76904296875q-2.939453125,0-4.8876953125-1.04248046875t-3.14453125-2.802734375t-1.72607421875-4.0673828125t-0.52978515625-4.83642578125z M83.32607421875,121.0546875l0.95703125,0.8544921875q0.68359375,0.615234375,1.3671875,0.2734375t1.23046875-1.24755859375t1.00830078125-2.23876953125t0.8203125-2.734375t0.52978515625-2.734375t0.1708984375-2.2216796875l0-1.162109375t-0.1025390625-1.23046875t-0.35888671875-0.97412109375t-0.80322265625-0.49560546875q-0.1708984375-0.0341796875-0.3076171875-0.0341796875q-1.162109375,0-1.982421875,1.4697265625q-0.888671875,1.640625-1.435546875,3.98193359375t-0.7861328125,4.80224609375t-0.3076171875,3.69140625z M105.80502929688,122.421875l0-0.9912109375q0-1.23046875,0.068359375-2.32421875q0.068359375-1.5380859375,0.068359375-2.529296875q0-0.546875,0.068359375-1.24755859375t0.341796875-1.11083984375q0.341796875-0.341796875,0.80322265625-0.70068359375t1.00830078125-0.35888671875q1.7431640625,0,2.734375,0.39306640625t1.0595703125,1.62353515625l0.13671875,1.0595703125q0.615234375-1.4697265625,1.640625-3.64013671875t2.37548828125-4.1357421875t3.0419921875-3.349609375t3.57177734375-1.38427734375q1.7431640625,0,2.87109375,1.640625t1.79443359375,4.18701171875t0.93994140625,5.673828125t0.3759765625,6.13525390625t0.13671875,5.48583984375t0.2392578125,3.74267578125q0.13671875,1.0595703125,0.46142578125,2.23876953125t0.32470703125,2.17041015625q0,0.2734375-0.39306640625,0.52978515625t-0.83740234375,0.42724609375t-0.90576171875,0.2734375t-0.66650390625,0.1025390625q-1.3330078125,0-1.89697265625-1.99951171875t-0.70068359375-5.00732421875t-0.13671875-6.51123046875t-0.2392578125-6.51123046875t-0.97412109375-5.00732421875t-2.34130859375-2.06787109375q-1.4697265625,0-3.0419921875,1.89697265625t-2.7001953125,5.04150390625q-1.09375,3.14453125-1.50390625,7.1435546875q-0.13671875,1.2646484375-0.13671875,2.529296875q0,2.7685546875,0.5810546875,5.537109375q0.068359375,0.478515625-0.39306640625,0.7177734375t-1.14501953125,0.3759765625t-1.38427734375,0.1708984375t-1.07666015625,0.0341796875q-1.3330078125,0-2.13623046875-0.93994140625t-1.24755859375-2.40966796875t-0.59814453125-3.29833984375t-0.18798828125-3.60595703125z M136.8630859375,121.0546875q0-1.8798828125,0.35888671875-4.01611328125t1.23046875-3.91357421875t2.40966796875-2.939453125t3.9306640625-1.162109375q1.6064453125,0,3.1103515625,0.52978515625t2.8369140625,1.45263671875q0.41015625-0.68359375,1.298828125-0.83740234375t1.572265625-0.15380859375q0.2734375,0,0.76904296875,0.0341796875t0.97412109375,0.205078125t0.83740234375,0.41015625t0.42724609375,0.68359375q0.2734375,2.392578125,0.3759765625,4.76806640625t0.3076171875,4.73388671875q0.341796875,4.4091796875,1.0595703125,8.7158203125t0.7177734375,8.7158203125q0,2.0849609375-0.18798828125,4.51171875t-0.9912109375,4.49462890625t-2.34130859375,3.43505859375t-4.2724609375,1.3671875q-2.4609375,0-3.77685546875-0.87158203125t-2.37548828125-2.92236328125q0.068359375-0.68359375,0.87158203125-0.90576171875t1.38427734375-0.22216796875q0.546875,0,1.11083984375,0.1025390625t0.90576171875,0.341796875l0.8544921875,0.546875q1.2646484375-2.59765625,1.5380859375-5.673828125t0.2734375-5.947265625q0-2.392578125-0.2392578125-4.73388671875t-0.478515625-4.69970703125q-2.392578125,4.3408203125-7.2802734375,4.3408203125q-2.255859375,0-3.67431640625-0.95703125t-2.1875-2.4267578125t-1.0595703125-3.3154296875t-0.29052734375-3.69140625z M141.0671875,121.3623046875q0,0.8544921875,0.068359375,2.20458984375t0.35888671875,2.64892578125t0.83740234375,2.23876953125t1.5380859375,0.93994140625q1.8798828125,0,2.9736328125-1.4697265625t1.72607421875-3.50341796875t1.00830078125-4.2041015625t0.95703125-3.57177734375q-0.068359375-0.478515625-0.068359375-0.93994140625l0-0.93994140625q-0.7861328125-1.4697265625-2.2900390625-2.54638671875t-3.1103515625-1.45263671875q-0.205078125-0.0341796875-0.3759765625-0.0341796875q-0.95703125,0-1.572265625,1.1279296875q-0.7861328125,1.3671875-1.23046875,3.26416015625t-0.63232421875,3.74267578125t-0.18798828125,2.4951171875z M166.07543945312,88.173828125q0-1.6064453125,0.39306640625-2.34130859375t1.1279296875-1.025390625t1.77734375-0.22216796875t2.44384765625,0.068359375q3.5546875,0,7.177734375,1.09375t6.5283203125,3.19580078125t4.6826171875,5.17822265625t1.77734375,7.0751953125q0,2.666015625-0.76904296875,5.04150390625t-2.17041015625,4.443359375t-3.28125,3.77685546875t-4.1357421875,2.9736328125q0.9228515625,0.9228515625,2.392578125,3.26416015625t2.9052734375,4.990234375t2.54638671875,5.14404296875t1.31591796875,3.759765625l-0.41015625,0.615234375q-0.9228515625,0.546875-2.2216796875,0.5810546875q-0.615234375,0-1.6064453125-0.15380859375t-1.2646484375-0.90576171875q-1.4013671875-3.9306640625-3.05908203125-8.1005859375t-4.08447265625-7.51953125l0-0.068359375q-0.8544921875,0.341796875-1.69189453125,0.66650390625t-1.69189453125,0.59814453125q0.2734375,3.7939453125,0.56396484375,7.46826171875t0.29052734375,7.43408203125q0,0.478515625-0.46142578125,0.76904296875t-1.04248046875,0.46142578125t-1.17919921875,0.2392578125t-0.97412109375,0.068359375q-0.341796875,0-0.97412109375-0.068359375t-1.21337890625-0.2392578125t-1.00830078125-0.49560546875t-0.42724609375-0.87158203125q0-3.7939453125-0.1708984375-7.57080078125t-0.3759765625-7.53662109375q-1.0595703125-0.68359375-1.0595703125-1.77734375q0-0.8544921875,0.8203125-1.162109375q-0.41015625-7.2119140625-0.93994140625-14.3896484375t-0.52978515625-14.4580078125z M172.26196289062,87.1142578125q0.478515625,7.4169921875,1.07666015625,14.6630859375t1.14501953125,14.6630859375q2.392578125-0.68359375,4.46044921875-2.37548828125t3.57177734375-3.81103515625t2.34130859375-4.6142578125t0.83740234375-4.9560546875q0-2.734375-1.09375-5.24658203125t-2.9052734375-4.39208984375q-1.845703125-1.8798828125-4.23828125-2.939453125q-2.119140625-0.9228515625-4.443359375-0.9228515625l-0.615234375,0z M198.97919921875,123.65234375q0-2.392578125,0.52978515625-5.6396484375t1.79443359375-6.15234375t3.33251953125-4.93896484375t5.21240234375-2.03369140625q2.939453125,0,4.4091796875,1.69189453125t1.4697265625,4.56298828125q0,1.8798828125-0.70068359375,4.11865234375t-1.99951171875,4.23828125t-3.076171875,3.33251953125t-3.96484375,1.3330078125l-0.888671875-0.068359375q0,0.9228515625,0.2734375,2.47802734375t0.80322265625,3.09326171875t1.3671875,2.7001953125t2.03369140625,1.162109375q1.7431640625,0,3.349609375-1.4013671875t3.0419921875-3.1103515625t2.666015625-3.1103515625t2.255859375-1.4013671875q0.546875,0,1.1279296875,0.1708984375t0.6494140625,0.95703125q0,0.478515625-0.25634765625,0.7861328125t-0.46142578125,0.68359375q-1.0595703125,1.8115234375-2.30712890625,3.4521484375t-2.81982421875,2.9736328125t-3.43505859375,2.10205078125t-4.11865234375,0.76904296875q-2.939453125,0-4.8876953125-1.04248046875t-3.14453125-2.802734375t-1.72607421875-4.0673828125t-0.52978515625-4.83642578125z M205.09736328125,121.0546875l0.95703125,0.8544921875q0.68359375,0.615234375,1.3671875,0.2734375t1.23046875-1.24755859375t1.00830078125-2.23876953125t0.8203125-2.734375t0.52978515625-2.734375t0.1708984375-2.2216796875l0-1.162109375t-0.1025390625-1.23046875t-0.35888671875-0.97412109375t-0.80322265625-0.49560546875q-0.1708984375-0.0341796875-0.3076171875-0.0341796875q-1.162109375,0-1.982421875,1.4697265625q-0.888671875,1.640625-1.435546875,3.98193359375t-0.7861328125,4.80224609375t-0.3076171875,3.69140625z M227.54213867188,113.4326171875q0-1.4013671875,0.8203125-2.40966796875t1.99951171875-1.640625t2.58056640625-0.93994140625t2.59765625-0.3076171875q0.9228515625,0,2.4609375,0.2734375t3.0078125,0.8203125t2.54638671875,1.435546875t1.07666015625,2.0849609375q0,0.546875-0.41015625,0.97412109375t-0.8544921875,0.42724609375q-0.9228515625,0-1.6748046875-0.59814453125t-1.55517578125-1.2646484375t-1.76025390625-1.2646484375t-2.1533203125-0.59814453125t-2.17041015625,0.76904296875t-0.97412109375,2.03369140625q0,2.0849609375,1.4697265625,4.08447265625t3.22998046875,4.2041015625t3.22998046875,4.63134765625t1.4697265625,5.3662109375q0,1.2646484375-0.52978515625,2.13623046875t-1.4013671875,1.41845703125t-1.96533203125,0.83740234375t-2.119140625,0.29052734375q-1.1279296875,0-2.6318359375-0.52978515625t-2.8369140625-1.4013671875t-2.23876953125-2.03369140625t-0.90576171875-2.4267578125q0-0.615234375,0.87158203125-0.7861328125t1.28173828125-0.1708984375q0.205078125,0,0.63232421875,0.13671875t0.83740234375,0.3076171875t0.73486328125,0.3759765625t0.25634765625,0.4443359375q0.341796875,0.41015625,1.04248046875,1.21337890625t1.4013671875,1.298828125t1.23046875,0.35888671875t0.52978515625-1.5380859375q0-2.666015625-1.435546875-4.90478515625t-3.12744140625-4.375t-3.12744140625-4.23828125t-1.435546875-4.49462890625z M251.6275390625,123.65234375q0-2.392578125,0.52978515625-5.6396484375t1.79443359375-6.15234375t3.33251953125-4.93896484375t5.21240234375-2.03369140625q2.939453125,0,4.4091796875,1.69189453125t1.4697265625,4.56298828125q0,1.8798828125-0.70068359375,4.11865234375t-1.99951171875,4.23828125t-3.076171875,3.33251953125t-3.96484375,1.3330078125l-0.888671875-0.068359375q0,0.9228515625,0.2734375,2.47802734375t0.80322265625,3.09326171875t1.3671875,2.7001953125t2.03369140625,1.162109375q1.7431640625,0,3.349609375-1.4013671875t3.0419921875-3.1103515625t2.666015625-3.1103515625t2.255859375-1.4013671875q0.546875,0,1.1279296875,0.1708984375t0.6494140625,0.95703125q0,0.478515625-0.25634765625,0.7861328125t-0.46142578125,0.68359375q-1.0595703125,1.8115234375-2.30712890625,3.4521484375t-2.81982421875,2.9736328125t-3.43505859375,2.10205078125t-4.11865234375,0.76904296875q-2.939453125,0-4.8876953125-1.04248046875t-3.14453125-2.802734375t-1.72607421875-4.0673828125t-0.52978515625-4.83642578125z M257.745703125,121.0546875l0.95703125,0.8544921875q0.68359375,0.615234375,1.3671875,0.2734375t1.23046875-1.24755859375t1.00830078125-2.23876953125t0.8203125-2.734375t0.52978515625-2.734375t0.1708984375-2.2216796875l0-1.162109375t-0.1025390625-1.23046875t-0.35888671875-0.97412109375t-0.80322265625-0.49560546875q-0.1708984375-0.0341796875-0.3076171875-0.0341796875q-1.162109375,0-1.982421875,1.4697265625q-0.888671875,1.640625-1.435546875,3.98193359375t-0.7861328125,4.80224609375t-0.3076171875,3.69140625z M280.19047851563,122.2509765625q0-2.32421875,0.63232421875-4.4775390625t1.89697265625-3.84521484375t3.16162109375-2.7001953125t4.39208984375-1.00830078125q1.5380859375,0,3.40087890625,0.46142578125t3.50341796875,1.3671875t2.734375,2.30712890625t1.09375,3.212890625q0,0.8544921875-0.29052734375,1.298828125t-1.17919921875,0.4443359375l-0.3759765625-0.068359375q0.9912109375,2.666015625,1.708984375,5.46875t1.4013671875,5.60546875q0.2734375,0.546875,0.41015625,0.97412109375t0.13671875,0.83740234375q0,0.546875-0.3076171875,0.90576171875t-0.80322265625,0.52978515625t-1.025390625,0.2392578125t-0.93994140625,0.068359375q-1.4697265625,0-2.20458984375-0.5126953125t-1.0595703125-1.4013671875t-0.39306640625-1.99951171875t-0.2734375-2.23876953125q-0.41015625,1.3330078125-1.07666015625,2.59765625t-1.572265625,2.27294921875t-2.13623046875,1.6064453125t-2.7685546875,0.59814453125q-2.255859375,0-3.7939453125-1.298828125t-2.47802734375-3.19580078125t-1.3671875-4.05029296875t-0.42724609375-3.9990234375z M285.04399414063,121.7724609375q0,1.2646484375,0.1708984375,2.666015625t0.56396484375,2.7685546875t1.00830078125,2.58056640625t1.5380859375,2.13623046875q1.6748046875-1.8115234375,2.47802734375-4.4091796875t1.435546875-5.00732421875t1.435546875-4.1357421875t2.47802734375-1.72607421875q1.0595703125,0,1.77734375,0.3759765625q-0.341796875-0.8544921875-1.1279296875-1.65771484375t-1.76025390625-1.4697265625t-2.0166015625-1.09375t-1.96533203125-0.42724609375q-0.2734375,0-0.63232421875,0.08544921875t-0.56396484375,0.01708984375q-1.4013671875,0.41015625-2.30712890625,1.41845703125t-1.4697265625,2.37548828125t-0.80322265625,2.802734375t-0.2392578125,2.7001953125z M309.81298828125,112.6806640625q0-1.4013671875,0.49560546875-2.3583984375t2.10205078125-0.95703125q0.615234375,0,1.5380859375,0.18798828125t1.0595703125,0.93994140625q0.341796875,2.0166015625,0.3759765625,4.375t0.2392578125,4.443359375q0.7861328125-1.5380859375,2.0166015625-3.3154296875t2.802734375-3.28125t3.41796875-2.4951171875t3.759765625-0.9912109375q0.13671875,0,0.5126953125,0.1025390625t0.70068359375,0.29052734375t0.39306640625,0.42724609375t-0.3759765625,0.4443359375q-0.13671875,0.41015625-0.5810546875,0.49560546875t-0.7861328125,0.08544921875q-0.205078125,0-0.6494140625-0.1708984375q-2.529296875,1.3330078125-4.306640625,3.623046875t-2.9052734375,5.07568359375t-1.640625,5.87890625t-0.5126953125,6.03271484375q0,1.4697265625-0.66650390625,1.77734375t-2.13623046875,0.3076171875q-0.7861328125,0-1.65771484375-0.1708984375t-1.21337890625-1.09375q-0.615234375-1.9482421875-1.00830078125-4.4775390625t-0.59814453125-5.21240234375t-0.29052734375-5.28076171875t-0.08544921875-4.6826171875z M334.10346679688,121.5673828125q0-2.4609375,0.63232421875-4.93896484375t1.96533203125-4.443359375t3.40087890625-3.19580078125t4.87060546875-1.23046875q1.1962890625,0,2.6318359375,0.29052734375t2.64892578125,0.9228515625t2.05078125,1.640625t0.83740234375,2.47802734375q0,0.9228515625-0.478515625,1.23046875t-1.2646484375,0.3076171875l-0.2392578125-0.341796875t-0.66650390625-0.87158203125t-0.90576171875-1.1279296875t-0.9228515625-1.00830078125q-1.4013671875-1.4013671875-2.6318359375-1.50390625l-0.2734375,0q-1.025390625,0-1.9140625,0.615234375q-0.9912109375,0.751953125-1.76025390625,2.119140625t-1.28173828125,2.9052734375t-0.80322265625,3.1103515625t-0.29052734375,2.59765625q0,1.4013671875,0.32470703125,3.19580078125t1.09375,3.40087890625t1.9482421875,2.7001953125t3.02490234375,1.09375q1.6748046875,0,3.0419921875-0.8203125t2.61474609375-1.82861328125t2.44384765625-1.8115234375t2.4609375-0.80322265625q0.546875,0,1.11083984375,0.13671875t0.56396484375,0.7177734375l0,0.205078125q-0.615234375,1.6064453125-2.0849609375,2.8369140625t-3.29833984375,2.13623046875t-3.7939453125,1.35009765625t-3.50341796875,0.4443359375q-2.87109375,0-5.04150390625-0.93994140625t-3.60595703125-2.58056640625t-2.17041015625-3.94775390625t-0.73486328125-5.04150390625z M363.9310546875,125.9765625l0-3.212890625q0-1.7431640625,0.08544921875-4.93896484375t0.22216796875-7.0068359375t0.3759765625-7.94677734375t0.546875-7.81005859375t0.73486328125-6.57958984375t0.97412109375-4.306640625q0.341796875-0.7861328125,1.1279296875-0.9912109375t1.5380859375-0.205078125q1.1962890625,0,2.10205078125,0.52978515625t0.90576171875,1.93115234375l-0.615234375,0.68359375q-1.1962890625,7.8955078125-1.5380859375,15.859375t-0.478515625,15.927734375q0.8544921875-1.3330078125,1.93115234375-2.61474609375t2.392578125-2.27294921875t2.8369140625-1.58935546875t3.33251953125-0.59814453125q2.32421875,0,3.84521484375,1.4013671875t2.51220703125,3.64013671875t1.4697265625,5.00732421875t0.73486328125,5.537109375t0.35888671875,5.24658203125t0.3076171875,4.11865234375q-0.6494140625,0.888671875-1.9140625,0.888671875l-0.1025390625,0q-0.546875,0-1.1962890625-0.13671875t-0.8544921875-0.68359375l0.068359375,0.068359375q-0.478515625-1.0595703125-0.6494140625-3.05908203125t-0.2734375-4.4091796875t-0.35888671875-4.93896484375t-0.76904296875-4.580078125t-1.50390625-3.3837890625t-2.666015625-1.4013671875l-0.205078125,0q-2.0166015625,0-3.3837890625,1.23046875q-1.435546875,1.298828125-2.32421875,3.41796875t-1.3671875,4.716796875t-0.73486328125,5.00732421875t-0.39306640625,4.375t-0.341796875,2.88818359375q-0.205078125,0.7861328125-1.21337890625,1.04248046875t-1.72607421875,0.25634765625q-1.6748046875,0-2.734375-0.95703125q-0.7861328125-1.8798828125-0.9228515625-4.6826171875t-0.13671875-5.46875z"/><path fill="#" d=""/></svg>
