<svg width="375" height="117" xmlns="http://www.w3.org/2000/svg" xmlns:xlink="http://www.w3.org/1999/xlink" overflow="hidden"><defs><clipPath id="clip0"><rect x="230" y="173" width="359" height="115"/></clipPath><clipPath id="clip1"><rect x="188" y="115" width="401" height="201"/></clipPath></defs><g transform="translate(-230 -172)"><g><g clip-path="url(#clip0)"><g clip-path="url(#clip1)"><path d="M51.8143 121.815C51.8143 117.302 52.0171 112.784 52.4226 108.261 52.8282 103.738 53.6756 99.2822 54.965 94.8942 55.3393 93.584 55.828 92.2894 56.4311 91.0104 57.0342 89.7314 57.7725 88.5928 58.646 87.5946 59.5194 86.5964 60.5592 85.7853 61.7654 85.1614 62.9716 84.5375 64.4066 84.2256 66.0703 84.2256L66.7254 84.288C68.5139 84.5375 69.8345 85.2602 70.6871 86.456 71.5398 87.6518 71.9661 89.144 71.9661 90.9324 71.9661 91.4108 71.9089 92.0087 71.7945 92.7261 71.6801 93.4436 71.4982 94.1351 71.2486 94.8006 70.9991 95.4661 70.6611 96.0328 70.2348 96.5007 69.8085 96.9686 69.2729 97.2026 68.6283 97.2026 68.3371 97.161 68.072 97.109 67.8328 97.0466 67.5936 96.9842 67.3701 96.849 67.1621 96.6411 67.4949 95.9132 67.7912 95.1541 68.0512 94.3639 68.3111 93.5736 68.4411 92.6689 68.4411 91.6499 68.4411 91.2756 68.4099 90.7973 68.3475 90.215 68.2851 89.6327 68.1655 89.0556 67.9888 88.4837 67.812 87.9118 67.578 87.4126 67.2869 86.9863 66.9957 86.56 66.5902 86.3468 66.0703 86.3468 64.7601 86.3468 63.6579 87.0799 62.7637 88.5461 61.8694 90.0122 61.1207 91.8839 60.5176 94.1611 59.9145 96.4383 59.4674 98.9547 59.1763 101.71 58.8851 104.466 58.6616 107.128 58.5056 109.696 58.3496 112.264 58.2612 114.583 58.2404 116.652 58.2196 118.722 58.2092 120.183 58.2092 121.035 58.2092 122.034 58.1988 123.136 58.178 124.342L58.178 124.747C58.1988 125.808 58.2716 126.817 58.3964 127.773 58.5628 128.855 58.8851 129.791 59.3634 130.581 59.8418 131.371 60.5904 131.829 61.6095 131.953 61.9214 131.995 62.223 132.016 62.5141 132.016 63.7203 132.016 64.8121 131.673 65.7895 130.986 66.9957 130.134 68.0668 129.026 69.0026 127.664 69.9384 126.302 70.7703 124.805 71.4982 123.172 72.226 121.54 72.8967 119.995 73.5102 118.54 74.1237 117.084 74.7216 115.878 75.3039 114.921 75.8862 113.965 76.4893 113.486 77.1132 113.486 77.3212 113.486 77.6331 113.528 78.049 113.611 78.465 113.694 78.6729 113.892 78.6729 114.204 78.6729 114.287 78.6521 114.401 78.6105 114.547 78.569 114.692 78.517 114.807 78.4546 114.89 77.8931 117.094 77.1808 119.382 76.3177 121.753 75.4547 124.124 74.3525 126.281 73.0111 128.226 71.6697 130.17 70.0268 131.756 68.0824 132.983 66.1379 134.21 63.8035 134.823 61.0792 134.823 59.1243 134.823 57.5386 134.454 56.322 133.716 55.1054 132.978 54.1695 131.99 53.5144 130.752 52.8594 129.515 52.4122 128.116 52.1731 126.557 51.9339 124.997 51.8143 123.416 51.8143 121.815ZM85.0575 123.531 85.0575 120.599C85.0575 119.538 85.0835 118.035 85.1355 116.091 85.1875 114.146 85.2551 112.015 85.3383 109.696 85.4215 107.377 85.5359 104.96 85.6814 102.443 85.827 99.9269 85.9934 97.5509 86.1806 95.3153 86.3677 93.0797 86.5913 91.078 86.8512 89.3103 87.1112 87.5426 87.4076 86.2324 87.7403 85.3798 87.9483 84.9015 88.2914 84.5999 88.7697 84.4751 89.248 84.3504 89.716 84.288 90.1735 84.288 90.9014 84.288 91.5408 84.4492 92.0919 84.7715 92.6431 85.0938 92.9186 85.6813 92.9186 86.534L92.3571 87.1579C91.6292 91.9619 91.1613 96.7866 90.9533 101.632 90.7454 106.478 90.5998 111.323 90.5166 116.169 91.0365 115.358 91.624 114.562 92.2791 113.783 92.9342 113.003 93.6621 112.311 94.4627 111.708 95.2634 111.105 96.1265 110.621 97.0519 110.258 97.9773 109.894 98.9912 109.712 100.093 109.712 101.508 109.712 102.677 110.138 103.603 110.991 104.528 111.843 105.292 112.951 105.896 114.313 106.499 115.675 106.946 117.198 107.237 118.883 107.528 120.567 107.752 122.252 107.908 123.936 108.064 125.621 108.173 127.217 108.235 128.725 108.298 130.233 108.391 131.486 108.516 132.484 108.121 133.024 107.539 133.295 106.769 133.295L106.675 133.295C106.343 133.295 105.979 133.253 105.584 133.17 105.189 133.087 104.929 132.879 104.804 132.546L104.866 132.609C104.575 131.964 104.377 131.033 104.273 129.817 104.169 128.6 104.086 127.259 104.024 125.792 103.962 124.326 103.852 122.824 103.696 121.285 103.54 119.746 103.306 118.353 102.994 117.105 102.683 115.857 102.225 114.828 101.622 114.016 101.019 113.205 100.208 112.779 99.1887 112.738L99.0016 112.738C97.7746 112.738 96.7451 113.112 95.9133 113.861 95.0398 114.651 94.3328 115.691 93.7921 116.98 93.2514 118.269 92.8354 119.704 92.5443 121.285 92.2531 122.865 92.0296 124.389 91.8736 125.855 91.7176 127.321 91.598 128.652 91.5148 129.848 91.4317 131.044 91.3277 131.922 91.2029 132.484 91.0781 132.962 90.709 133.279 90.0955 133.435 89.482 133.591 88.9569 133.669 88.5202 133.669 87.5011 133.669 86.6693 133.378 86.0246 132.796 85.5463 131.652 85.2655 130.227 85.1823 128.522 85.0991 126.817 85.0575 125.153 85.0575 123.531ZM114.901 121.41C114.901 119.954 115.062 118.238 115.384 116.263 115.706 114.287 116.252 112.415 117.022 110.647 117.791 108.88 118.805 107.377 120.063 106.14 121.321 104.902 122.907 104.284 124.82 104.284 126.609 104.284 127.95 104.798 128.845 105.828 129.739 106.857 130.186 108.245 130.186 109.992 130.186 111.136 129.973 112.389 129.546 113.751 129.12 115.114 128.512 116.403 127.722 117.619 126.931 118.836 125.995 119.85 124.914 120.661 123.833 121.472 122.626 121.878 121.295 121.878L120.484 121.815C120.484 122.377 120.568 123.131 120.734 124.077 120.9 125.023 121.145 125.964 121.467 126.9 121.789 127.836 122.205 128.657 122.715 129.364 123.224 130.071 123.843 130.425 124.571 130.425 125.632 130.425 126.651 129.999 127.628 129.146 128.605 128.293 129.531 127.347 130.404 126.307 131.278 125.267 132.089 124.321 132.837 123.468 133.586 122.616 134.272 122.189 134.896 122.189 135.229 122.189 135.572 122.241 135.926 122.345 136.279 122.449 136.477 122.741 136.518 123.219 136.518 123.51 136.44 123.749 136.284 123.936 136.129 124.124 135.988 124.332 135.863 124.56 135.219 125.662 134.517 126.713 133.758 127.711 132.999 128.709 132.141 129.614 131.184 130.425 130.228 131.236 129.183 131.875 128.049 132.343 126.916 132.811 125.663 133.045 124.29 133.045 122.502 133.045 121.015 132.728 119.829 132.094 118.644 131.46 117.687 130.607 116.959 129.536 116.232 128.465 115.706 127.227 115.384 125.824 115.062 124.42 114.901 122.949 114.901 121.41ZM120.484 119.039 121.358 119.819C121.774 120.193 122.19 120.276 122.606 120.068 123.022 119.86 123.396 119.481 123.729 118.93 124.061 118.379 124.368 117.697 124.649 116.886 124.93 116.075 125.179 115.243 125.398 114.391 125.616 113.538 125.777 112.706 125.881 111.895 125.985 111.084 126.037 110.408 126.037 109.868L126.037 108.807C126.037 108.807 126.006 108.433 125.943 107.684 125.881 106.935 125.772 106.639 125.616 106.795 125.46 106.951 125.216 106.8 124.883 106.343 124.779 106.322 124.685 106.311 124.602 106.311 123.895 106.311 123.292 106.759 122.793 107.653 122.252 108.651 121.815 109.862 121.483 111.287 121.15 112.712 120.911 114.172 120.765 115.67 120.62 117.167 120.526 118.29 120.484 119.039ZM141 120.287 141 119.382C141 118.633 141.021 117.926 141.063 117.261 141.104 116.325 141.125 115.555 141.125 114.952 141.125 114.62 141.146 114.24 141.187 113.814 141.229 113.387 141.333 113.049 141.499 112.8 141.707 112.592 141.952 112.379 142.232 112.16 142.513 111.942 142.82 111.833 143.153 111.833 144.213 111.833 145.045 111.952 145.648 112.192 146.251 112.431 146.574 112.925 146.615 113.673L146.74 114.64C147.114 113.746 147.613 112.639 148.237 111.318 148.861 109.998 149.584 108.739 150.405 107.544 151.227 106.348 152.152 105.329 153.182 104.487 154.211 103.644 155.298 103.223 156.442 103.223 157.502 103.223 158.376 103.722 159.062 104.72 159.748 105.719 160.294 106.992 160.7 108.542 161.105 110.091 161.391 111.817 161.557 113.72 161.724 115.623 161.838 117.489 161.901 119.32 161.963 121.15 162.005 122.819 162.025 124.326 162.046 125.834 162.119 126.973 162.244 127.742 162.327 128.387 162.467 129.068 162.665 129.785 162.862 130.503 162.961 131.163 162.961 131.766 162.961 131.933 162.842 132.094 162.602 132.25 162.363 132.406 162.109 132.536 161.838 132.64 161.568 132.744 161.292 132.827 161.012 132.889 160.731 132.952 160.528 132.983 160.403 132.983 159.592 132.983 159.015 132.375 158.672 131.158 158.329 129.941 158.116 128.418 158.032 126.588 157.949 124.758 157.908 122.777 157.908 120.645 157.908 118.514 157.835 116.533 157.689 114.703 157.544 112.873 157.247 111.349 156.8 110.133 156.353 108.916 155.641 108.287 154.663 108.245 153.769 108.245 152.844 108.823 151.887 109.977 150.93 111.131 150.109 112.665 149.423 114.578 148.757 116.491 148.3 118.664 148.05 121.098 147.967 121.867 147.925 122.637 147.925 123.406 147.925 125.091 148.102 126.775 148.456 128.46 148.497 128.751 148.378 128.969 148.097 129.115 147.816 129.26 147.468 129.375 147.052 129.458 146.636 129.541 146.215 129.593 145.789 129.614 145.362 129.635 145.035 129.645 144.806 129.645 143.995 129.645 143.345 129.359 142.856 128.787 142.368 128.215 141.988 127.482 141.718 126.588 141.447 125.694 141.265 124.69 141.172 123.578 141.078 122.465 141.021 121.368 141 120.287ZM169.346 119.039C169.346 117.895 169.455 116.673 169.673 115.373 169.892 114.074 170.266 112.883 170.796 111.802 171.327 110.72 172.06 109.826 172.996 109.119 173.931 108.412 175.127 108.058 176.583 108.058 177.56 108.058 178.507 108.219 179.422 108.542 180.337 108.864 181.2 109.306 182.011 109.868 182.26 109.452 182.656 109.197 183.196 109.103 183.737 109.01 184.215 108.963 184.631 108.963 184.798 108.963 185.032 108.973 185.333 108.994 185.635 109.015 185.931 109.077 186.222 109.181 186.513 109.285 186.768 109.41 186.986 109.556 187.205 109.701 187.335 109.909 187.376 110.18 187.543 111.635 187.657 113.086 187.719 114.531 187.782 115.977 187.875 117.417 188 118.852 188.208 121.534 188.531 124.186 188.967 126.806 189.404 129.427 189.622 132.078 189.622 134.761 189.622 136.03 189.565 137.402 189.451 138.879 189.336 140.355 189.035 141.723 188.546 142.981 188.057 144.239 187.345 145.284 186.409 146.116 185.473 146.948 184.174 147.364 182.51 147.364 181.013 147.364 179.864 147.098 179.063 146.568 178.262 146.038 177.54 145.149 176.895 143.901 176.937 143.485 177.202 143.21 177.69 143.074 178.179 142.939 178.6 142.872 178.954 142.872 179.287 142.872 179.624 142.903 179.968 142.965 180.311 143.028 180.586 143.132 180.794 143.277L181.574 143.776C182.344 142.196 182.812 140.47 182.978 138.598 183.144 136.726 183.227 134.917 183.227 133.17 183.227 131.714 183.155 130.274 183.009 128.85 182.864 127.425 182.718 125.995 182.572 124.56 181.117 127.201 178.902 128.522 175.928 128.522 174.555 128.522 173.438 128.231 172.574 127.649 171.711 127.066 171.046 126.328 170.578 125.434 170.11 124.539 169.788 123.531 169.611 122.408 169.434 121.285 169.346 120.162 169.346 119.039ZM173.183 119.32C173.183 119.84 173.204 120.51 173.245 121.332 173.287 122.153 173.396 122.959 173.573 123.749 173.749 124.539 174.004 125.221 174.337 125.792 174.67 126.364 175.138 126.65 175.741 126.65 176.885 126.65 177.789 126.203 178.455 125.309 179.12 124.415 179.645 123.349 180.03 122.112 180.415 120.874 180.721 119.595 180.95 118.275 181.179 116.954 181.47 115.867 181.824 115.015 181.782 114.724 181.761 114.438 181.761 114.157L181.761 113.299C181.283 112.405 180.586 111.63 179.671 110.975 178.756 110.32 177.81 109.878 176.833 109.649 176.708 109.628 176.593 109.618 176.489 109.618 175.907 109.618 175.429 109.961 175.054 110.647 174.576 111.479 174.202 112.472 173.931 113.627 173.661 114.781 173.469 115.919 173.354 117.042 173.24 118.165 173.183 118.924 173.183 119.32ZM196.007 89.0296C196.007 88.0521 196.127 87.3399 196.366 86.8927 196.605 86.4456 196.948 86.1337 197.395 85.9569 197.842 85.7801 198.383 85.7125 199.017 85.7541 199.652 85.7957 200.395 85.8165 201.248 85.8165 203.411 85.8165 205.594 86.1493 207.799 86.8147 210.003 87.4802 211.989 88.4525 213.757 89.7314 215.524 91.0104 216.949 92.5858 218.03 94.4574 219.112 96.3291 219.653 98.4816 219.653 100.915 219.653 102.537 219.419 104.071 218.951 105.516 218.483 106.961 217.822 108.313 216.97 109.571 216.117 110.829 215.119 111.978 213.975 113.018 212.831 114.058 211.573 114.963 210.201 115.732 210.762 116.294 211.49 117.287 212.384 118.711 213.278 120.136 214.162 121.654 215.036 123.266 215.909 124.877 216.684 126.442 217.36 127.961 218.036 129.479 218.436 130.622 218.561 131.392L218.186 131.953C217.625 132.286 216.949 132.463 216.159 132.484 215.784 132.484 215.296 132.437 214.693 132.343 214.089 132.25 213.705 131.974 213.538 131.517 212.686 129.125 211.755 126.661 210.746 124.124 209.738 121.586 208.495 119.299 207.019 117.261L207.019 117.198C206.499 117.406 205.984 117.609 205.475 117.807 204.965 118.004 204.45 118.186 203.93 118.353 204.097 120.661 204.268 122.933 204.445 125.169 204.622 127.404 204.71 129.666 204.71 131.953 204.71 132.245 204.57 132.479 204.289 132.655 204.008 132.832 203.691 132.972 203.338 133.076 202.984 133.18 202.625 133.253 202.262 133.295 201.898 133.336 201.601 133.357 201.372 133.357 201.165 133.357 200.868 133.336 200.483 133.295 200.099 133.253 199.73 133.18 199.376 133.076 199.022 132.972 198.716 132.822 198.456 132.624 198.196 132.427 198.066 132.161 198.066 131.829 198.066 129.52 198.014 127.217 197.91 124.919 197.806 122.621 197.691 120.328 197.567 118.041 196.922 117.625 196.6 117.084 196.6 116.418 196.6 115.899 196.849 115.545 197.348 115.358 197.099 110.97 196.813 106.592 196.491 102.225 196.168 97.8577 196.007 93.4592 196.007 89.0296ZM201.653 88.0625C201.944 92.5754 202.272 97.0362 202.636 101.445 203 105.854 203.348 110.315 203.681 114.828 205.137 114.412 206.494 113.689 207.752 112.66 209.01 111.63 210.097 110.471 211.012 109.181 211.927 107.892 212.639 106.488 213.148 104.97 213.658 103.452 213.913 101.944 213.913 100.447 213.913 98.7831 213.58 97.187 212.914 95.6584 212.249 94.1299 211.365 92.7937 210.263 91.6499 209.14 90.5061 207.851 89.6119 206.395 88.9672 205.105 88.4057 203.754 88.1249 202.34 88.1249L201.778 88.1249ZM226.037 121.41C226.037 119.954 226.198 118.238 226.521 116.263 226.843 114.287 227.389 112.415 228.158 110.647 228.928 108.88 229.942 107.377 231.2 106.14 232.458 104.902 234.044 104.284 235.957 104.284 237.746 104.284 239.087 104.798 239.981 105.828 240.875 106.857 241.323 108.245 241.323 109.992 241.323 111.136 241.109 112.389 240.683 113.751 240.257 115.114 239.648 116.403 238.858 117.619 238.068 118.836 237.132 119.85 236.051 120.661 234.969 121.472 233.763 121.878 232.432 121.878L231.621 121.815C231.621 122.377 231.704 123.131 231.871 124.077 232.037 125.023 232.281 125.964 232.604 126.9 232.926 127.836 233.342 128.657 233.851 129.364 234.361 130.071 234.98 130.425 235.707 130.425 236.768 130.425 237.787 129.999 238.765 129.146 239.742 128.293 240.667 127.347 241.541 126.307 242.414 125.267 243.225 124.321 243.974 123.468 244.723 122.616 245.409 122.189 246.033 122.189 246.366 122.189 246.709 122.241 247.062 122.345 247.416 122.449 247.613 122.741 247.655 123.219 247.655 123.51 247.577 123.749 247.421 123.936 247.265 124.124 247.125 124.332 247 124.56 246.355 125.662 245.653 126.713 244.894 127.711 244.135 128.709 243.277 129.614 242.321 130.425 241.364 131.236 240.319 131.875 239.186 132.343 238.052 132.811 236.799 133.045 235.427 133.045 233.638 133.045 232.151 132.728 230.966 132.094 229.781 131.46 228.824 130.607 228.096 129.536 227.368 128.465 226.843 127.227 226.521 125.824 226.198 124.42 226.037 122.949 226.037 121.41ZM231.621 119.039 232.494 119.819C232.91 120.193 233.326 120.276 233.742 120.068 234.158 119.86 234.533 119.481 234.865 118.93 235.198 118.379 235.505 117.697 235.785 116.886 236.066 116.075 236.316 115.243 236.534 114.391 236.753 113.538 236.914 112.706 237.018 111.895 237.122 111.084 237.174 110.408 237.174 109.868L237.174 108.807C237.174 108.807 237.142 108.433 237.08 107.684 237.018 106.935 236.908 106.639 236.753 106.795 236.597 106.951 236.352 106.8 236.019 106.343 235.915 106.322 235.822 106.311 235.739 106.311 235.032 106.311 234.429 106.759 233.929 107.653 233.389 108.651 232.952 109.862 232.619 111.287 232.286 112.712 232.047 114.172 231.902 115.67 231.756 117.167 231.663 118.29 231.621 119.039ZM252.106 112.082C252.106 111.23 252.355 110.497 252.854 109.883 253.353 109.27 253.962 108.771 254.679 108.386 255.397 108.001 256.182 107.715 257.034 107.528 257.887 107.341 258.677 107.247 259.405 107.247 259.967 107.247 260.715 107.33 261.651 107.497 262.587 107.663 263.502 107.913 264.396 108.245 265.291 108.578 266.065 109.015 266.72 109.556 267.375 110.096 267.703 110.731 267.703 111.459 267.703 111.791 267.578 112.088 267.329 112.348 267.079 112.608 266.819 112.738 266.549 112.738 265.987 112.738 265.478 112.556 265.02 112.192 264.563 111.828 264.09 111.443 263.601 111.037 263.112 110.632 262.577 110.247 261.994 109.883 261.412 109.519 260.757 109.337 260.029 109.337 259.301 109.337 258.641 109.571 258.048 110.039 257.456 110.507 257.159 111.126 257.159 111.895 257.159 113.164 257.606 114.406 258.501 115.623 259.395 116.84 260.377 118.119 261.448 119.46 262.519 120.801 263.502 122.21 264.396 123.687 265.291 125.163 265.738 126.796 265.738 128.584 265.738 129.354 265.576 130.004 265.254 130.534 264.932 131.064 264.505 131.496 263.975 131.829 263.445 132.161 262.847 132.416 262.181 132.593 261.516 132.77 260.871 132.858 260.247 132.858 259.561 132.858 258.76 132.697 257.845 132.375 256.93 132.052 256.067 131.626 255.256 131.096 254.445 130.565 253.764 129.947 253.213 129.239 252.662 128.532 252.386 127.794 252.386 127.025 252.386 126.65 252.652 126.411 253.182 126.307 253.712 126.203 254.102 126.151 254.352 126.151 254.476 126.151 254.669 126.193 254.929 126.276 255.189 126.359 255.443 126.453 255.693 126.557 255.943 126.661 256.166 126.775 256.364 126.9 256.561 127.025 256.639 127.16 256.598 127.305 256.806 127.555 257.123 127.924 257.549 128.413 257.975 128.902 258.402 129.297 258.828 129.598 259.254 129.9 259.629 130.009 259.951 129.926 260.273 129.843 260.435 129.375 260.435 128.522 260.435 126.9 259.998 125.408 259.124 124.046 258.251 122.683 257.3 121.352 256.27 120.053 255.241 118.753 254.289 117.464 253.416 116.185 252.542 114.906 252.106 113.538 252.106 112.082ZM274.088 121.41C274.088 119.954 274.249 118.238 274.571 116.263 274.893 114.287 275.439 112.415 276.209 110.647 276.978 108.88 277.992 107.377 279.25 106.14 280.508 104.902 282.094 104.284 284.007 104.284 285.796 104.284 287.137 104.798 288.032 105.828 288.926 106.857 289.373 108.245 289.373 109.992 289.373 111.136 289.16 112.389 288.733 113.751 288.307 115.114 287.699 116.403 286.909 117.619 286.118 118.836 285.182 119.85 284.101 120.661 283.02 121.472 281.813 121.878 280.482 121.878L279.671 121.815C279.671 122.377 279.755 123.131 279.921 124.077 280.087 125.023 280.332 125.964 280.654 126.9 280.976 127.836 281.392 128.657 281.902 129.364 282.411 130.071 283.03 130.425 283.758 130.425 284.819 130.425 285.838 129.999 286.815 129.146 287.792 128.293 288.718 127.347 289.591 126.307 290.465 125.267 291.276 124.321 292.024 123.468 292.773 122.616 293.459 122.189 294.083 122.189 294.416 122.189 294.759 122.241 295.113 122.345 295.466 122.449 295.664 122.741 295.705 123.219 295.705 123.51 295.627 123.749 295.471 123.936 295.316 124.124 295.175 124.332 295.05 124.56 294.406 125.662 293.704 126.713 292.945 127.711 292.186 128.709 291.328 129.614 290.371 130.425 289.415 131.236 288.37 131.875 287.236 132.343 286.103 132.811 284.85 133.045 283.477 133.045 281.689 133.045 280.202 132.728 279.016 132.094 277.831 131.46 276.874 130.607 276.146 129.536 275.418 128.465 274.893 127.227 274.571 125.824 274.249 124.42 274.088 122.949 274.088 121.41ZM279.671 119.039 280.545 119.819C280.961 120.193 281.377 120.276 281.793 120.068 282.209 119.86 282.583 119.481 282.916 118.93 283.248 118.379 283.555 117.697 283.836 116.886 284.117 116.075 284.366 115.243 284.585 114.391 284.803 113.538 284.964 112.706 285.068 111.895 285.172 111.084 285.224 110.408 285.224 109.868L285.224 108.807C285.224 108.807 285.193 108.433 285.13 107.684 285.068 106.935 284.959 106.639 284.803 106.795 284.647 106.951 284.403 106.8 284.07 106.343 283.966 106.322 283.872 106.311 283.789 106.311 283.082 106.311 282.479 106.759 281.98 107.653 281.439 108.651 281.002 109.862 280.67 111.287 280.337 112.712 280.098 114.172 279.952 115.67 279.807 117.167 279.713 118.29 279.671 119.039ZM300.156 120.131C300.156 118.716 300.348 117.354 300.733 116.044 301.118 114.734 301.695 113.564 302.464 112.535 303.234 111.505 304.196 110.684 305.35 110.07 306.504 109.457 307.84 109.15 309.358 109.15 310.294 109.15 311.329 109.291 312.462 109.571 313.596 109.852 314.661 110.268 315.66 110.819 316.658 111.37 317.49 112.072 318.155 112.925 318.821 113.777 319.154 114.755 319.154 115.857 319.154 116.377 319.065 116.772 318.888 117.042 318.712 117.313 318.353 117.448 317.812 117.448L317.469 117.386C318.072 119.008 318.592 120.671 319.029 122.377 319.465 124.082 319.892 125.787 320.308 127.493 320.474 127.825 320.599 128.122 320.682 128.382 320.765 128.642 320.807 128.896 320.807 129.146 320.807 129.479 320.713 129.754 320.526 129.973 320.339 130.191 320.095 130.352 319.793 130.456 319.491 130.56 319.18 130.633 318.857 130.674 318.535 130.716 318.249 130.737 317.999 130.737 317.105 130.737 316.434 130.581 315.987 130.269 315.54 129.957 315.218 129.531 315.02 128.99 314.823 128.449 314.703 127.841 314.661 127.165 314.62 126.489 314.537 125.808 314.412 125.122 314.162 125.933 313.835 126.723 313.429 127.493 313.024 128.262 312.545 128.954 311.994 129.567 311.443 130.181 310.793 130.669 310.045 131.033 309.296 131.397 308.454 131.579 307.518 131.579 306.145 131.579 304.991 131.184 304.055 130.394 303.119 129.603 302.366 128.631 301.794 127.477 301.222 126.323 300.806 125.091 300.546 123.78 300.286 122.47 300.156 121.254 300.156 120.131ZM304.586 119.694C304.586 120.463 304.638 121.274 304.742 122.127 304.846 122.98 305.017 123.822 305.256 124.654 305.495 125.486 305.802 126.271 306.177 127.009 306.551 127.747 307.019 128.397 307.58 128.959 308.599 127.857 309.353 126.515 309.842 124.935 310.331 123.354 310.767 121.831 311.152 120.365 311.537 118.898 311.974 117.64 312.462 116.59 312.951 115.54 313.705 115.015 314.724 115.015 315.369 115.015 315.909 115.129 316.346 115.358 316.138 114.838 315.795 114.334 315.317 113.845 314.838 113.356 314.303 112.909 313.71 112.504 313.117 112.098 312.504 111.765 311.87 111.505 311.235 111.245 310.637 111.115 310.076 111.115 309.909 111.115 309.717 111.141 309.499 111.193 309.28 111.245 309.109 111.251 308.984 111.209 308.131 111.459 307.43 111.89 306.878 112.504 306.327 113.117 305.88 113.84 305.537 114.672 305.194 115.503 304.95 116.356 304.804 117.23 304.658 118.103 304.586 118.924 304.586 119.694ZM327.191 111.396C327.191 110.543 327.342 109.826 327.644 109.244 327.945 108.661 328.585 108.37 329.562 108.37 329.937 108.37 330.405 108.427 330.966 108.542 331.528 108.656 331.85 108.942 331.933 109.4 332.141 110.627 332.255 111.958 332.276 113.393 332.297 114.828 332.37 116.179 332.495 117.448 332.973 116.512 333.586 115.503 334.335 114.422 335.084 113.341 335.936 112.342 336.893 111.427 337.85 110.512 338.889 109.753 340.012 109.15 341.135 108.547 342.279 108.245 343.444 108.245 343.527 108.245 343.683 108.277 343.912 108.339 344.141 108.401 344.354 108.49 344.551 108.604 344.749 108.719 344.868 108.849 344.91 108.994 344.952 109.14 344.837 109.275 344.567 109.4 344.484 109.649 344.307 109.8 344.037 109.852 343.766 109.904 343.527 109.93 343.319 109.93 343.194 109.93 342.997 109.878 342.726 109.774 341.187 110.585 339.877 111.687 338.796 113.081 337.714 114.474 336.831 116.018 336.144 117.713 335.458 119.408 334.959 121.196 334.647 123.079 334.335 124.961 334.179 126.796 334.179 128.584 334.179 129.479 333.976 130.019 333.571 130.207 333.165 130.394 332.515 130.487 331.621 130.487 331.143 130.487 330.638 130.435 330.108 130.331 329.578 130.227 329.209 129.895 329.001 129.333 328.626 128.148 328.32 126.786 328.081 125.247 327.841 123.708 327.659 122.122 327.535 120.489 327.41 118.857 327.321 117.25 327.269 115.67 327.217 114.089 327.191 112.665 327.191 111.396ZM349.361 119.507C349.361 118.009 349.553 116.507 349.938 114.999 350.322 113.491 350.92 112.14 351.731 110.944 352.542 109.748 353.577 108.776 354.835 108.027 356.093 107.278 357.575 106.904 359.28 106.904 360.008 106.904 360.809 106.992 361.682 107.169 362.556 107.346 363.362 107.627 364.1 108.012 364.838 108.396 365.462 108.895 365.972 109.509 366.481 110.122 366.736 110.876 366.736 111.77 366.736 112.332 366.59 112.706 366.299 112.893 366.008 113.081 365.623 113.174 365.145 113.174L364.927 112.862C364.927 112.862 364.724 112.597 364.318 112.067 363.913 111.537 363.637 111.193 363.492 111.037 363.346 110.881 363.065 110.575 362.65 110.117 361.797 109.265 360.996 108.807 360.247 108.745L359.998 108.745C359.374 108.745 358.792 108.932 358.251 109.306 357.648 109.764 357.112 110.408 356.645 111.24 356.177 112.072 355.787 112.956 355.475 113.892 355.163 114.828 354.918 115.774 354.742 116.73 354.565 117.687 354.477 118.477 354.477 119.101 354.477 119.954 354.575 120.926 354.773 122.018 354.97 123.11 355.303 124.144 355.771 125.122 356.239 126.099 356.832 126.921 357.549 127.586 358.267 128.252 359.187 128.584 360.31 128.584 361.329 128.584 362.254 128.335 363.086 127.836 363.918 127.337 364.714 126.78 365.473 126.167 366.232 125.553 366.975 125.002 367.703 124.513 368.431 124.025 369.18 123.78 369.949 123.78 370.282 123.78 370.62 123.822 370.963 123.905 371.306 123.988 371.478 124.207 371.478 124.56L371.478 124.747C371.103 125.725 370.469 126.588 369.575 127.337 368.68 128.085 367.677 128.735 366.564 129.286 365.452 129.837 364.298 130.248 363.102 130.518 361.906 130.789 360.84 130.924 359.904 130.924 358.157 130.924 356.624 130.638 355.303 130.066 353.983 129.494 352.886 128.709 352.012 127.711 351.139 126.713 350.478 125.512 350.031 124.108 349.584 122.704 349.361 121.17 349.361 119.507ZM376.583 123.531 376.583 120.599C376.583 119.538 376.609 118.035 376.661 116.091 376.713 114.146 376.781 112.015 376.864 109.696 376.947 107.377 377.062 104.96 377.207 102.443 377.353 99.9269 377.519 97.5509 377.706 95.3153 377.893 93.0797 378.117 91.078 378.377 89.3103 378.637 87.5426 378.933 86.2324 379.266 85.3798 379.474 84.9015 379.817 84.5999 380.295 84.4751 380.774 84.3504 381.242 84.288 381.699 84.288 382.427 84.288 383.066 84.4492 383.618 84.7715 384.169 85.0938 384.444 85.6813 384.444 86.534L383.883 87.1579C383.155 91.9619 382.687 96.7866 382.479 101.632 382.271 106.478 382.125 111.323 382.042 116.169 382.562 115.358 383.15 114.562 383.805 113.783 384.46 113.003 385.188 112.311 385.988 111.708 386.789 111.105 387.652 110.621 388.578 110.258 389.503 109.894 390.517 109.712 391.619 109.712 393.033 109.712 394.203 110.138 395.128 110.991 396.054 111.843 396.818 112.951 397.421 114.313 398.024 115.675 398.471 117.198 398.763 118.883 399.054 120.567 399.277 122.252 399.433 123.936 399.589 125.621 399.698 127.217 399.761 128.725 399.823 130.233 399.917 131.486 400.042 132.484 399.646 133.024 399.064 133.295 398.295 133.295L398.201 133.295C397.868 133.295 397.504 133.253 397.109 133.17 396.714 133.087 396.454 132.879 396.329 132.546L396.392 132.609C396.101 131.964 395.903 131.033 395.799 129.817 395.695 128.6 395.612 127.259 395.55 125.792 395.487 124.326 395.378 122.824 395.222 121.285 395.066 119.746 394.832 118.353 394.52 117.105 394.208 115.857 393.751 114.828 393.148 114.016 392.544 113.205 391.733 112.779 390.714 112.738L390.527 112.738C389.3 112.738 388.271 113.112 387.439 113.861 386.566 114.651 385.858 115.691 385.318 116.98 384.777 118.269 384.361 119.704 384.07 121.285 383.779 122.865 383.555 124.389 383.399 125.855 383.243 127.321 383.124 128.652 383.04 129.848 382.957 131.044 382.853 131.922 382.729 132.484 382.604 132.962 382.235 133.279 381.621 133.435 381.008 133.591 380.483 133.669 380.046 133.669 379.027 133.669 378.195 133.378 377.55 132.796 377.072 131.652 376.791 130.227 376.708 128.522 376.625 126.817 376.583 125.153 376.583 123.531Z" fill="#3A9CED" transform="matrix(1.00335 0 0 1 188.174 115.6)"/></g></g></g></g></svg>