<?xml version="1.0"?>
<svg version="1.1" xmlns="http://www.w3.org/2000/svg" width="400px" height="200px" style=""><path fill="#3a9ced" d="M51.90625,122.03125q0-6.78125,0.609375-13.578125t2.546875-13.390625q0.5625-1.96875,1.46875-3.890625t2.21875-3.421875t3.125-2.4375t4.3125-0.9375l0.65625,0.0625q2.6875,0.375,3.96875,2.171875t1.28125,4.484375q0,0.71875-0.171875,1.796875t-0.546875,2.078125t-1.015625,1.703125t-1.609375,0.703125q-0.4375-0.0625-0.796875-0.15625t-0.671875-0.40625q0.5-1.09375,0.890625-2.28125t0.390625-2.71875q0-0.5625-0.09375-1.4375t-0.359375-1.734375t-0.703125-1.5t-1.21875-0.640625q-1.96875,0-3.3125,2.203125t-2.25,5.625t-1.34375,7.5625t-0.671875,8t-0.265625,6.96875t-0.03125,4.390625q0,1.5-0.03125,3.3125l0,0.40625q0.03125,1.59375,0.21875,3.03125q0.25,1.625,0.96875,2.8125t2.25,1.375q0.46875,0.0625,0.90625,0.0625q1.8125,0,3.28125-1.03125q1.8125-1.28125,3.21875-3.328125t2.5-4.5t2.015625-4.640625t1.796875-3.625t1.8125-1.4375q0.3125,0,0.9375,0.125t0.625,0.59375q0,0.125-0.0625,0.34375t-0.15625,0.34375q-0.84375,3.3125-2.140625,6.875t-3.3125,6.484375t-4.9375,4.765625t-7.015625,1.84375q-2.9375,0-4.765625-1.109375t-2.8125-2.96875t-1.34375-4.203125t-0.359375-4.75z M85.2084375,123.75l0-2.9375q0-1.59375,0.078125-4.515625t0.203125-6.40625t0.34375-7.265625t0.5-7.140625t0.671875-6.015625t0.890625-3.9375q0.3125-0.71875,1.03125-0.90625t1.40625-0.1875q1.09375,0,1.921875,0.484375t0.828125,1.765625l-0.5625,0.625q-1.09375,7.21875-1.40625,14.5t-0.4375,14.5625q0.78125-1.21875,1.765625-2.390625t2.1875-2.078125t2.59375-1.453125t3.046875-0.546875q2.125,0,3.515625,1.28125t2.296875,3.328125t1.34375,4.578125t0.671875,5.0625t0.328125,4.796875t0.28125,3.765625q-0.59375,0.8125-1.75,0.8125l-0.09375,0q-0.5,0-1.09375-0.125t-0.78125-0.625l0.0625,0.0625q-0.4375-0.96875-0.59375-2.796875t-0.25-4.03125t-0.328125-4.515625t-0.703125-4.1875t-1.375-3.09375t-2.4375-1.28125l-0.1875,0q-1.84375,0-3.09375,1.125q-1.3125,1.1875-2.125,3.125t-1.25,4.3125t-0.671875,4.578125t-0.359375,4t-0.3125,2.640625q-0.1875,0.71875-1.109375,0.953125t-1.578125,0.234375q-1.53125,0-2.5-0.875q-0.71875-1.71875-0.84375-4.28125t-0.125-5z M115.104375,121.625q0-2.1875,0.484375-5.15625t1.640625-5.625t3.046875-4.515625t4.765625-1.859375q2.6875,0,4.03125,1.546875t1.34375,4.171875q0,1.71875-0.640625,3.765625t-1.828125,3.875t-2.8125,3.046875t-3.625,1.21875l-0.8125-0.0625q0,0.84375,0.25,2.265625t0.734375,2.828125t1.25,2.46875t1.859375,1.0625q1.59375,0,3.0625-1.28125t2.78125-2.84375t2.4375-2.84375t2.0625-1.28125q0.5,0,1.03125,0.15625t0.59375,0.875q0,0.4375-0.234375,0.71875t-0.421875,0.625q-0.96875,1.65625-2.109375,3.15625t-2.578125,2.71875t-3.140625,1.921875t-3.765625,0.703125q-2.6875,0-4.46875-0.953125t-2.875-2.5625t-1.578125-3.71875t-0.484375-4.421875z M120.698125,119.25l0.875,0.78125q0.625,0.5625,1.25,0.25t1.125-1.140625t0.921875-2.046875t0.75-2.5t0.484375-2.5t0.15625-2.03125l0-1.0625t-0.09375-1.125t-0.328125-0.890625t-0.734375-0.453125q-0.15625-0.03125-0.28125-0.03125q-1.0625,0-1.8125,1.34375q-0.8125,1.5-1.3125,3.640625t-0.71875,4.390625t-0.28125,3.375z M141.2503125,120.5l0-0.90625q0-1.125,0.0625-2.125q0.0625-1.40625,0.0625-2.3125q0-0.5,0.0625-1.140625t0.3125-1.015625q0.3125-0.3125,0.734375-0.640625t0.921875-0.328125q1.59375,0,2.5,0.359375t0.96875,1.484375l0.125,0.96875q0.5625-1.34375,1.5-3.328125t2.171875-3.78125t2.78125-3.0625t3.265625-1.265625q1.59375,0,2.625,1.5t1.640625,3.828125t0.859375,5.1875t0.34375,5.609375t0.125,5.015625t0.21875,3.421875q0.125,0.96875,0.421875,2.046875t0.296875,1.984375q0,0.25-0.359375,0.484375t-0.765625,0.390625t-0.828125,0.25t-0.609375,0.09375q-1.21875,0-1.734375-1.828125t-0.640625-4.578125t-0.125-5.953125t-0.21875-5.953125t-0.890625-4.578125t-2.140625-1.890625q-1.34375,0-2.78125,1.734375t-2.46875,4.609375q-1,2.875-1.375,6.53125q-0.125,1.15625-0.125,2.3125q0,2.53125,0.53125,5.0625q0.0625,0.4375-0.359375,0.65625t-1.046875,0.34375t-1.265625,0.15625t-0.984375,0.03125q-1.21875,0-1.953125-0.859375t-1.140625-2.203125t-0.546875-3.015625t-0.171875-3.296875z M169.64625,119.25q0-1.71875,0.328125-3.671875t1.125-3.578125t2.203125-2.6875t3.59375-1.0625q1.46875,0,2.84375,0.484375t2.59375,1.328125q0.375-0.625,1.1875-0.765625t1.4375-0.140625q0.25,0,0.703125,0.03125t0.890625,0.1875t0.765625,0.375t0.390625,0.625q0.25,2.1875,0.34375,4.359375t0.28125,4.328125q0.3125,4.03125,0.96875,7.96875t0.65625,7.96875q0,1.90625-0.171875,4.125t-0.90625,4.109375t-2.140625,3.140625t-3.90625,1.25q-2.25,0-3.453125-0.796875t-2.171875-2.671875q0.0625-0.625,0.796875-0.828125t1.265625-0.203125q0.5,0,1.015625,0.09375t0.828125,0.3125l0.78125,0.5q1.15625-2.375,1.40625-5.1875t0.25-5.4375q0-2.1875-0.21875-4.328125t-0.4375-4.296875q-2.1875,3.96875-6.65625,3.96875q-2.0625,0-3.359375-0.875t-2-2.21875t-0.96875-3.03125t-0.265625-3.375z M173.49,119.53125q0,0.78125,0.0625,2.015625t0.328125,2.421875t0.765625,2.046875t1.40625,0.859375q1.71875,0,2.71875-1.34375t1.578125-3.203125t0.921875-3.84375t0.875-3.265625q-0.0625-0.4375-0.0625-0.859375l0-0.859375q-0.71875-1.34375-2.09375-2.328125t-2.84375-1.328125q-0.1875-0.03125-0.34375-0.03125q-0.875,0-1.4375,1.03125q-0.71875,1.25-1.125,2.984375t-0.578125,3.421875t-0.171875,2.28125z M196.3546875,89.1875q0-1.46875,0.359375-2.140625t1.03125-0.9375t1.625-0.203125t2.234375,0.0625q3.25,0,6.5625,1t5.96875,2.921875t4.28125,4.734375t1.625,6.46875q0,2.4375-0.703125,4.609375t-1.984375,4.0625t-3,3.453125t-3.78125,2.71875q0.84375,0.84375,2.1875,2.984375t2.65625,4.5625t2.328125,4.703125t1.203125,3.4375l-0.375,0.5625q-0.84375,0.5-2.03125,0.53125q-0.5625,0-1.46875-0.140625t-1.15625-0.828125q-1.28125-3.59375-2.796875-7.40625t-3.734375-6.875l0-0.0625q-0.78125,0.3125-1.546875,0.609375t-1.546875,0.546875q0.25,3.46875,0.515625,6.828125t0.265625,6.796875q0,0.4375-0.421875,0.703125t-0.953125,0.421875t-1.078125,0.21875t-0.890625,0.0625q-0.3125,0-0.890625-0.0625t-1.109375-0.21875t-0.921875-0.453125t-0.390625-0.796875q0-3.46875-0.15625-6.921875t-0.34375-6.890625q-0.96875-0.625-0.96875-1.625q0-0.78125,0.75-1.0625q-0.375-6.59375-0.859375-13.15625t-0.484375-13.21875z M202.0109375,88.21875q0.4375,6.78125,0.984375,13.40625t1.046875,13.40625q2.1875-0.625,4.078125-2.171875t3.265625-3.484375t2.140625-4.21875t0.765625-4.53125q0-2.5-1-4.796875t-2.65625-4.015625q-1.6875-1.71875-3.875-2.6875q-1.9375-0.84375-4.0625-0.84375l-0.5625,0z M226.438125,121.625q0-2.1875,0.484375-5.15625t1.640625-5.625t3.046875-4.515625t4.765625-1.859375q2.6875,0,4.03125,1.546875t1.34375,4.171875q0,1.71875-0.640625,3.765625t-1.828125,3.875t-2.8125,3.046875t-3.625,1.21875l-0.8125-0.0625q0,0.84375,0.25,2.265625t0.734375,2.828125t1.25,2.46875t1.859375,1.0625q1.59375,0,3.0625-1.28125t2.78125-2.84375t2.4375-2.84375t2.0625-1.28125q0.5,0,1.03125,0.15625t0.59375,0.875q0,0.4375-0.234375,0.71875t-0.421875,0.625q-0.96875,1.65625-2.109375,3.15625t-2.578125,2.71875t-3.140625,1.921875t-3.765625,0.703125q-2.6875,0-4.46875-0.953125t-2.875-2.5625t-1.578125-3.71875t-0.484375-4.421875z M232.031875,119.25l0.875,0.78125q0.625,0.5625,1.25,0.25t1.125-1.140625t0.921875-2.046875t0.75-2.5t0.484375-2.5t0.15625-2.03125l0-1.0625t-0.09375-1.125t-0.328125-0.890625t-0.734375-0.453125q-0.15625-0.03125-0.28125-0.03125q-1.0625,0-1.8125,1.34375q-0.8125,1.5-1.3125,3.640625t-0.71875,4.390625t-0.28125,3.375z M252.5528125,112.28125q0-1.28125,0.75-2.203125t1.828125-1.5t2.359375-0.859375t2.375-0.28125q0.84375,0,2.25,0.25t2.75,0.75t2.328125,1.3125t0.984375,1.90625q0,0.5-0.375,0.890625t-0.78125,0.390625q-0.84375,0-1.53125-0.546875t-1.421875-1.15625t-1.609375-1.15625t-1.96875-0.546875t-1.984375,0.703125t-0.890625,1.859375q0,1.90625,1.34375,3.734375t2.953125,3.84375t2.953125,4.234375t1.34375,4.90625q0,1.15625-0.484375,1.953125t-1.28125,1.296875t-1.796875,0.765625t-1.9375,0.265625q-1.03125,0-2.40625-0.484375t-2.59375-1.28125t-2.046875-1.859375t-0.828125-2.21875q0-0.5625,0.796875-0.71875t1.171875-0.15625q0.1875,0,0.578125,0.125t0.765625,0.28125t0.671875,0.34375t0.234375,0.40625q0.3125,0.375,0.953125,1.109375t1.28125,1.1875t1.125,0.328125t0.484375-1.40625q0-2.4375-1.3125-4.484375t-2.859375-4t-2.859375-3.875t-1.3125-4.109375z M274.57375,121.625q0-2.1875,0.484375-5.15625t1.640625-5.625t3.046875-4.515625t4.765625-1.859375q2.6875,0,4.03125,1.546875t1.34375,4.171875q0,1.71875-0.640625,3.765625t-1.828125,3.875t-2.8125,3.046875t-3.625,1.21875l-0.8125-0.0625q0,0.84375,0.25,2.265625t0.734375,2.828125t1.25,2.46875t1.859375,1.0625q1.59375,0,3.0625-1.28125t2.78125-2.84375t2.4375-2.84375t2.0625-1.28125q0.5,0,1.03125,0.15625t0.59375,0.875q0,0.4375-0.234375,0.71875t-0.421875,0.625q-0.96875,1.65625-2.109375,3.15625t-2.578125,2.71875t-3.140625,1.921875t-3.765625,0.703125q-2.6875,0-4.46875-0.953125t-2.875-2.5625t-1.578125-3.71875t-0.484375-4.421875z M280.1675,119.25l0.875,0.78125q0.625,0.5625,1.25,0.25t1.125-1.140625t0.921875-2.046875t0.75-2.5t0.484375-2.5t0.15625-2.03125l0-1.0625t-0.09375-1.125t-0.328125-0.890625t-0.734375-0.453125q-0.15625-0.03125-0.28125-0.03125q-1.0625,0-1.8125,1.34375q-0.8125,1.5-1.3125,3.640625t-0.71875,4.390625t-0.28125,3.375z M300.6884375,120.34375q0-2.125,0.578125-4.09375t1.734375-3.515625t2.890625-2.46875t4.015625-0.921875q1.40625,0,3.109375,0.421875t3.203125,1.25t2.5,2.109375t1,2.9375q0,0.78125-0.265625,1.1875t-1.078125,0.40625l-0.34375-0.0625q0.90625,2.4375,1.5625,5t1.28125,5.125q0.25,0.5,0.375,0.890625t0.125,0.765625q0,0.5-0.28125,0.828125t-0.734375,0.484375t-0.9375,0.21875t-0.859375,0.0625q-1.34375,0-2.015625-0.46875t-0.96875-1.28125t-0.359375-1.828125t-0.25-2.046875q-0.375,1.21875-0.984375,2.375t-1.4375,2.078125t-1.953125,1.46875t-2.53125,0.546875q-2.0625,0-3.46875-1.1875t-2.265625-2.921875t-1.25-3.703125t-0.390625-3.65625z M305.1259375,119.90625q0,1.15625,0.15625,2.4375t0.515625,2.53125t0.921875,2.359375t1.40625,1.953125q1.53125-1.65625,2.265625-4.03125t1.3125-4.578125t1.3125-3.78125t2.265625-1.578125q0.96875,0,1.625,0.34375q-0.3125-0.78125-1.03125-1.515625t-1.609375-1.34375t-1.84375-1t-1.796875-0.390625q-0.25,0-0.578125,0.078125t-0.515625,0.015625q-1.28125,0.375-2.109375,1.296875t-1.34375,2.171875t-0.734375,2.5625t-0.21875,2.46875z M327.771875,111.59375q0-1.28125,0.453125-2.15625t1.921875-0.875q0.5625,0,1.40625,0.171875t0.96875,0.859375q0.3125,1.84375,0.34375,4t0.21875,4.0625q0.71875-1.40625,1.84375-3.03125t2.5625-3t3.125-2.28125t3.4375-0.90625q0.125,0,0.46875,0.09375t0.640625,0.265625t0.359375,0.390625t-0.34375,0.40625q-0.125,0.375-0.53125,0.453125t-0.71875,0.078125q-0.1875,0-0.59375-0.15625q-2.3125,1.21875-3.9375,3.3125t-2.65625,4.640625t-1.5,5.375t-0.46875,5.515625q0,1.34375-0.609375,1.625t-1.953125,0.28125q-0.71875,0-1.515625-0.15625t-1.109375-1q-0.5625-1.78125-0.921875-4.09375t-0.546875-4.765625t-0.265625-4.828125t-0.078125-4.28125z M349.9803125,119.71875q0-2.25,0.578125-4.515625t1.796875-4.0625t3.109375-2.921875t4.453125-1.125q1.09375,0,2.40625,0.265625t2.421875,0.84375t1.875,1.5t0.765625,2.265625q0,0.84375-0.4375,1.125t-1.15625,0.28125l-0.21875-0.3125t-0.609375-0.796875t-0.828125-1.03125t-0.84375-0.921875q-1.28125-1.28125-2.40625-1.375l-0.25,0q-0.9375,0-1.75,0.5625q-0.90625,0.6875-1.609375,1.9375t-1.171875,2.65625t-0.734375,2.84375t-0.265625,2.375q0,1.28125,0.296875,2.921875t1,3.109375t1.78125,2.46875t2.765625,1q1.53125,0,2.78125-0.75t2.390625-1.671875t2.234375-1.65625t2.25-0.734375q0.5,0,1.015625,0.125t0.515625,0.65625l0,0.1875q-0.5625,1.46875-1.90625,2.59375t-3.015625,1.953125t-3.46875,1.234375t-3.203125,0.40625q-2.625,0-4.609375-0.859375t-3.296875-2.359375t-1.984375-3.609375t-0.671875-4.609375z M377.25125,123.75l0-2.9375q0-1.59375,0.078125-4.515625t0.203125-6.40625t0.34375-7.265625t0.5-7.140625t0.671875-6.015625t0.890625-3.9375q0.3125-0.71875,1.03125-0.90625t1.40625-0.1875q1.09375,0,1.921875,0.484375t0.828125,1.765625l-0.5625,0.625q-1.09375,7.21875-1.40625,14.5t-0.4375,14.5625q0.78125-1.21875,1.765625-2.390625t2.1875-2.078125t2.59375-1.453125t3.046875-0.546875q2.125,0,3.515625,1.28125t2.296875,3.328125t1.34375,4.578125t0.671875,5.0625t0.328125,4.796875t0.28125,3.765625q-0.59375,0.8125-1.75,0.8125l-0.09375,0q-0.5,0-1.09375-0.125t-0.78125-0.625l0.0625,0.0625q-0.4375-0.96875-0.59375-2.796875t-0.25-4.03125t-0.328125-4.515625t-0.703125-4.1875t-1.375-3.09375t-2.4375-1.28125l-0.1875,0q-1.84375,0-3.09375,1.125q-1.3125,1.1875-2.125,3.125t-1.25,4.3125t-0.671875,4.578125t-0.359375,4t-0.3125,2.640625q-0.1875,0.71875-1.109375,0.953125t-1.578125,0.234375q-1.53125,0-2.5-0.875q-0.71875-1.71875-0.84375-4.28125t-0.125-5z"/><path fill="#" d=""/></svg>
