<?xml version="1.0" encoding="utf-8"?>
<!-- Generator: Adobe Illustrator 24.2.0, SVG Export Plug-In . SVG Version: 6.00 Build 0)  -->
<svg version="1.1" id="Layer_1" xmlns="http://www.w3.org/2000/svg" xmlns:xlink="http://www.w3.org/1999/xlink" x="0px" y="0px"
	 viewBox="0 0 267 54" style="enable-background:new 0 0 267 54;" xml:space="preserve">
<style type="text/css">
	.st0{fill:#3A9CED;}
</style>
<path class="st0" d="M26.2,30.8c0-2.8,0.1-5.7,0.4-8.5s0.8-5.6,1.6-8.4c0.2-0.8,0.5-1.6,0.9-2.4s0.8-1.5,1.4-2.1s1.2-1.1,2-1.5
	s1.7-0.6,2.7-0.6l0.4,0c1.1,0.2,1.9,0.6,2.5,1.4s0.8,1.7,0.8,2.8c0,0.3,0,0.7-0.1,1.1s-0.2,0.9-0.3,1.3s-0.4,0.8-0.6,1.1
	s-0.6,0.4-1,0.4c-0.2,0-0.3-0.1-0.5-0.1s-0.3-0.1-0.4-0.3c0.2-0.5,0.4-0.9,0.6-1.4s0.2-1.1,0.2-1.7c0-0.2,0-0.5-0.1-0.9
	s-0.1-0.7-0.2-1.1S36.1,9.2,35.9,9s-0.4-0.4-0.8-0.4c-0.8,0-1.5,0.5-2.1,1.4s-1,2.1-1.4,3.5s-0.7,3-0.8,4.7s-0.3,3.4-0.4,5
	s-0.2,3.1-0.2,4.4s0,2.2,0,2.7c0,0.6,0,1.3,0,2.1v0.3c0,0.7,0.1,1.3,0.1,1.9c0.1,0.7,0.3,1.3,0.6,1.8s0.8,0.8,1.4,0.9
	c0.2,0,0.4,0,0.6,0c0.8,0,1.4-0.2,2.1-0.6c0.8-0.5,1.4-1.2,2-2.1s1.1-1.8,1.6-2.8s0.9-2,1.3-2.9s0.8-1.7,1.1-2.3s0.7-0.9,1.1-0.9
	c0.1,0,0.3,0,0.6,0.1S43,25.8,43,26c0,0.1,0,0.1,0,0.2s-0.1,0.2-0.1,0.2c-0.4,1.4-0.8,2.8-1.3,4.3s-1.2,2.8-2.1,4.1s-1.9,2.2-3.1,3
	s-2.7,1.2-4.4,1.2c-1.2,0-2.2-0.2-3-0.7s-1.3-1.1-1.8-1.9s-0.7-1.7-0.8-2.6S26.2,31.8,26.2,30.8z M47,31.8V30c0-0.7,0-1.6,0-2.8
	c0-1.2,0.1-2.6,0.1-4c0.1-1.5,0.1-3,0.2-4.5c0.1-1.6,0.2-3.1,0.3-4.5s0.3-2.7,0.4-3.8c0.2-1.1,0.3-1.9,0.6-2.5
	c0.1-0.3,0.3-0.5,0.6-0.6c0.3-0.1,0.6-0.1,0.9-0.1c0.5,0,0.9,0.1,1.2,0.3c0.3,0.2,0.5,0.6,0.5,1.1l-0.4,0.4c-0.5,3-0.7,6-0.9,9.1
	c-0.1,3-0.2,6.1-0.3,9.1c0.3-0.5,0.7-1,1.1-1.5s0.9-0.9,1.4-1.3c0.5-0.4,1-0.7,1.6-0.9c0.6-0.2,1.2-0.3,1.9-0.3
	c0.9,0,1.6,0.3,2.2,0.8c0.6,0.5,1.1,1.2,1.4,2.1c0.4,0.9,0.7,1.8,0.8,2.9c0.2,1.1,0.3,2.1,0.4,3.2s0.2,2.1,0.2,3s0.1,1.7,0.2,2.4
	c-0.2,0.3-0.6,0.5-1.1,0.5h-0.1c-0.2,0-0.4,0-0.7-0.1c-0.2-0.1-0.4-0.2-0.5-0.4l0,0c-0.2-0.4-0.3-1-0.4-1.7
	c-0.1-0.8-0.1-1.6-0.2-2.5s-0.1-1.9-0.2-2.8s-0.2-1.8-0.4-2.6s-0.5-1.4-0.9-1.9c-0.4-0.5-0.9-0.8-1.5-0.8h-0.1
	c-0.8,0-1.4,0.2-1.9,0.7c-0.5,0.5-1,1.1-1.3,2c-0.3,0.8-0.6,1.7-0.8,2.7c-0.2,1-0.3,1.9-0.4,2.9s-0.2,1.8-0.2,2.5
	c-0.1,0.7-0.1,1.3-0.2,1.7c-0.1,0.3-0.3,0.5-0.7,0.6c-0.4,0.1-0.7,0.1-1,0.1c-0.6,0-1.2-0.2-1.6-0.5c-0.3-0.7-0.5-1.6-0.5-2.7
	C47,33.9,47,32.9,47,31.8z M65.7,30.5c0-0.9,0.1-2,0.3-3.2c0.2-1.2,0.5-2.4,1-3.5c0.5-1.1,1.1-2,1.9-2.8c0.8-0.8,1.8-1.2,3-1.2
	c1.1,0,2,0.3,2.5,1c0.6,0.6,0.8,1.5,0.8,2.6c0,0.7-0.1,1.5-0.4,2.4c-0.3,0.9-0.6,1.7-1.1,2.4c-0.5,0.8-1.1,1.4-1.8,1.9
	c-0.7,0.5-1.4,0.8-2.3,0.8l-0.5,0c0,0.4,0.1,0.8,0.2,1.4c0.1,0.6,0.3,1.2,0.5,1.8c0.2,0.6,0.5,1.1,0.8,1.5c0.3,0.4,0.7,0.7,1.2,0.7
	c0.7,0,1.3-0.3,1.9-0.8c0.6-0.5,1.2-1.1,1.7-1.8c0.5-0.7,1.1-1.2,1.5-1.8c0.5-0.5,0.9-0.8,1.3-0.8c0.2,0,0.4,0,0.6,0.1
	c0.2,0.1,0.3,0.2,0.4,0.5c0,0.2,0,0.3-0.1,0.4c-0.1,0.1-0.2,0.2-0.3,0.4c-0.4,0.7-0.8,1.3-1.3,2c-0.5,0.6-1,1.2-1.6,1.7
	c-0.6,0.5-1.3,0.9-2,1.2c-0.7,0.3-1.5,0.4-2.4,0.4c-1.1,0-2.1-0.2-2.8-0.6c-0.7-0.4-1.3-0.9-1.8-1.6c-0.5-0.7-0.8-1.4-1-2.3
	C65.8,32.4,65.7,31.5,65.7,30.5z M69.2,29l0.5,0.5c0.3,0.2,0.5,0.3,0.8,0.2c0.3-0.1,0.5-0.4,0.7-0.7c0.2-0.3,0.4-0.8,0.6-1.3
	c0.2-0.5,0.3-1,0.5-1.6c0.1-0.5,0.2-1.1,0.3-1.6c0.1-0.5,0.1-0.9,0.1-1.3v-0.7c0,0,0-0.2-0.1-0.7c0-0.5-0.1-0.7-0.2-0.6
	c-0.1,0.1-0.3,0-0.5-0.3c-0.1,0-0.1,0-0.2,0c-0.4,0-0.8,0.3-1.1,0.8c-0.3,0.6-0.6,1.4-0.8,2.3c-0.2,0.9-0.4,1.8-0.4,2.7
	C69.3,27.9,69.2,28.6,69.2,29z M82,29.8v-0.6c0-0.5,0-0.9,0-1.3c0-0.6,0-1.1,0-1.4c0-0.2,0-0.4,0-0.7c0-0.3,0.1-0.5,0.2-0.6
	c0.1-0.1,0.3-0.3,0.5-0.4c0.2-0.1,0.4-0.2,0.6-0.2c0.7,0,1.2,0.1,1.6,0.2c0.4,0.1,0.6,0.5,0.6,0.9l0.1,0.6c0.2-0.6,0.5-1.3,0.9-2.1
	c0.4-0.8,0.8-1.6,1.4-2.4c0.5-0.7,1.1-1.4,1.7-1.9c0.6-0.5,1.3-0.8,2-0.8c0.7,0,1.2,0.3,1.6,0.9c0.4,0.6,0.8,1.4,1,2.4
	c0.3,1,0.4,2.1,0.5,3.2c0.1,1.2,0.2,2.4,0.2,3.5c0,1.1,0.1,2.2,0.1,3.1c0,0.9,0.1,1.7,0.1,2.1c0.1,0.4,0.1,0.8,0.3,1.3
	c0.1,0.4,0.2,0.9,0.2,1.2c0,0.1-0.1,0.2-0.2,0.3c-0.1,0.1-0.3,0.2-0.5,0.2c-0.2,0.1-0.3,0.1-0.5,0.2c-0.2,0-0.3,0.1-0.4,0.1
	c-0.5,0-0.9-0.4-1.1-1.1c-0.2-0.8-0.3-1.7-0.4-2.9c-0.1-1.1-0.1-2.4-0.1-3.7c0-1.3,0-2.6-0.1-3.7c-0.1-1.1-0.3-2.1-0.6-2.9
	c-0.3-0.8-0.7-1.2-1.3-1.2c-0.6,0-1.1,0.4-1.7,1.1c-0.6,0.7-1.1,1.7-1.5,2.9c-0.4,1.2-0.7,2.6-0.9,4.1c-0.1,0.5-0.1,1-0.1,1.4
	c0,1.1,0.1,2.1,0.3,3.2c0,0.2,0,0.3-0.2,0.4c-0.2,0.1-0.4,0.2-0.7,0.2c-0.3,0.1-0.5,0.1-0.8,0.1c-0.3,0-0.5,0-0.6,0
	c-0.5,0-0.9-0.2-1.2-0.5c-0.3-0.4-0.5-0.8-0.7-1.4c-0.2-0.6-0.3-1.2-0.3-1.9C82.1,31.2,82,30.5,82,29.8z M99.8,29
	c0-0.7,0.1-1.5,0.2-2.3s0.4-1.6,0.7-2.2s0.8-1.2,1.4-1.7s1.3-0.7,2.2-0.7c0.6,0,1.2,0.1,1.8,0.3s1.1,0.5,1.6,0.8
	c0.2-0.3,0.4-0.4,0.7-0.5s0.6-0.1,0.9-0.1c0.1,0,0.3,0,0.4,0s0.4,0.1,0.6,0.1s0.3,0.1,0.5,0.2s0.2,0.2,0.2,0.4
	c0.1,0.9,0.2,1.8,0.2,2.7s0.1,1.8,0.2,2.7c0.1,1.7,0.3,3.3,0.6,5s0.4,3.3,0.4,5c0,0.8,0,1.7-0.1,2.6s-0.3,1.8-0.6,2.6
	s-0.8,1.4-1.3,2s-1.4,0.8-2.4,0.8c-0.9,0-1.7-0.2-2.2-0.5s-1-0.9-1.4-1.7c0-0.3,0.2-0.4,0.5-0.5s0.6-0.1,0.8-0.1
	c0.2,0,0.4,0,0.6,0.1s0.4,0.1,0.5,0.2l0.5,0.3c0.5-1,0.8-2.1,0.9-3.2s0.2-2.3,0.2-3.4c0-0.9,0-1.8-0.1-2.7s-0.2-1.8-0.3-2.7
	c-0.9,1.7-2.3,2.5-4.2,2.5c-0.9,0-1.6-0.2-2.1-0.5s-1-0.8-1.3-1.4s-0.5-1.2-0.6-1.9S99.8,29.7,99.8,29z M102.2,29.2
	c0,0.3,0,0.7,0,1.3c0,0.5,0.1,1,0.2,1.5c0.1,0.5,0.3,0.9,0.5,1.3c0.2,0.4,0.5,0.5,0.9,0.5c0.7,0,1.3-0.3,1.7-0.8s0.7-1.2,1-2
	s0.4-1.6,0.6-2.4s0.3-1.5,0.5-2c0-0.2,0-0.4,0-0.5v-0.5c-0.3-0.6-0.7-1-1.3-1.5s-1.2-0.7-1.8-0.8c-0.1,0-0.1,0-0.2,0
	c-0.4,0-0.7,0.2-0.9,0.6c-0.3,0.5-0.5,1.1-0.7,1.9s-0.3,1.4-0.4,2.1S102.2,29,102.2,29.2z M116.5,10.2c0-0.6,0.1-1.1,0.2-1.3
	s0.4-0.5,0.6-0.6s0.6-0.2,1-0.1s0.9,0,1.4,0c1.4,0,2.7,0.2,4.1,0.6s2.6,1,3.7,1.8s2,1.8,2.7,3s1,2.5,1,4c0,1-0.1,2-0.4,2.9
	s-0.7,1.8-1.2,2.5s-1.2,1.5-1.9,2.2s-1.5,1.2-2.4,1.7c0.4,0.4,0.8,1,1.4,1.9s1.1,1.8,1.7,2.9s1,2,1.5,2.9s0.7,1.7,0.8,2.1l-0.2,0.4
	c-0.4,0.2-0.8,0.3-1.3,0.3c-0.2,0-0.5,0-0.9-0.1s-0.6-0.2-0.7-0.5c-0.5-1.5-1.1-3-1.7-4.6s-1.4-3-2.3-4.3v0c-0.3,0.1-0.6,0.3-1,0.4
	s-0.6,0.2-1,0.3c0.1,1.4,0.2,2.9,0.3,4.3s0.2,2.8,0.2,4.2c0,0.2-0.1,0.3-0.3,0.4s-0.4,0.2-0.6,0.3s-0.4,0.1-0.7,0.1s-0.4,0-0.6,0
	c-0.1,0-0.3,0-0.6,0s-0.5-0.1-0.7-0.1s-0.4-0.2-0.6-0.3s-0.2-0.3-0.2-0.5c0-1.4,0-2.9-0.1-4.3s-0.1-2.9-0.2-4.3
	c-0.4-0.3-0.6-0.6-0.6-1c0-0.3,0.2-0.5,0.5-0.7c-0.2-2.7-0.3-5.5-0.5-8.2S116.5,13,116.5,10.2z M120,9.6c0.2,2.8,0.4,5.6,0.6,8.4
	s0.4,5.6,0.7,8.4c0.9-0.3,1.8-0.7,2.5-1.4s1.5-1.4,2-2.2s1-1.7,1.3-2.6s0.5-1.9,0.5-2.8c0-1-0.2-2-0.6-3s-1-1.8-1.7-2.5
	c-0.7-0.7-1.5-1.3-2.4-1.7c-0.8-0.4-1.7-0.5-2.5-0.5L120,9.6L120,9.6z M135.3,30.5c0-0.9,0.1-2,0.3-3.2s0.5-2.4,1-3.5s1.1-2,1.9-2.8
	s1.8-1.2,3-1.2c1.1,0,2,0.3,2.5,1s0.8,1.5,0.8,2.6c0,0.7-0.1,1.5-0.4,2.4s-0.6,1.7-1.1,2.4s-1.1,1.4-1.8,1.9s-1.4,0.8-2.3,0.8
	l-0.5,0c0,0.4,0.1,0.8,0.2,1.4s0.3,1.2,0.5,1.8s0.5,1.1,0.8,1.5s0.7,0.7,1.2,0.7c0.7,0,1.3-0.3,1.9-0.8s1.2-1.1,1.7-1.8
	s1.1-1.2,1.5-1.8c0.5-0.5,0.9-0.8,1.3-0.8c0.2,0,0.4,0,0.6,0.1c0.2,0.1,0.3,0.2,0.4,0.5c0,0.2,0,0.3-0.1,0.4
	c-0.1,0.1-0.2,0.2-0.3,0.4c-0.4,0.7-0.8,1.3-1.3,2c-0.5,0.6-1,1.2-1.6,1.7c-0.6,0.5-1.3,0.9-2,1.2s-1.5,0.4-2.4,0.4
	c-1.1,0-2.1-0.2-2.8-0.6s-1.3-0.9-1.8-1.6s-0.8-1.4-1-2.3S135.3,31.5,135.3,30.5z M138.8,29l0.5,0.5c0.3,0.2,0.5,0.3,0.8,0.2
	s0.5-0.4,0.7-0.7s0.4-0.8,0.6-1.3s0.3-1,0.5-1.6s0.2-1.1,0.3-1.6s0.1-0.9,0.1-1.3v-0.7c0,0,0-0.2-0.1-0.7s-0.1-0.7-0.2-0.6
	s-0.3,0-0.5-0.3c-0.1,0-0.1,0-0.2,0c-0.4,0-0.8,0.3-1.1,0.8c-0.3,0.6-0.6,1.4-0.8,2.3s-0.4,1.8-0.4,2.7S138.8,28.6,138.8,29z
	 M151.6,24.7c0-0.5,0.2-1,0.5-1.4s0.7-0.7,1.1-0.9s0.9-0.4,1.5-0.5c0.5-0.1,1-0.2,1.5-0.2c0.4,0,0.8,0.1,1.4,0.2s1.2,0.3,1.7,0.5
	c0.6,0.2,1,0.5,1.5,0.8s0.6,0.7,0.6,1.2c0,0.2-0.1,0.4-0.2,0.6s-0.3,0.2-0.5,0.2c-0.4,0-0.7-0.1-1-0.3c-0.3-0.2-0.6-0.5-0.9-0.7
	c-0.3-0.3-0.6-0.5-1-0.7c-0.4-0.2-0.8-0.3-1.2-0.3c-0.5,0-0.9,0.1-1.2,0.4s-0.6,0.7-0.6,1.2c0,0.8,0.3,1.6,0.8,2.3
	c0.6,0.8,1.2,1.6,1.8,2.4c0.7,0.8,1.3,1.7,1.8,2.6c0.6,0.9,0.8,1.9,0.8,3.1c0,0.5-0.1,0.9-0.3,1.2c-0.2,0.3-0.5,0.6-0.8,0.8
	s-0.7,0.4-1.1,0.5c-0.4,0.1-0.8,0.2-1.2,0.2c-0.4,0-0.9-0.1-1.5-0.3c-0.6-0.2-1.1-0.5-1.6-0.8s-0.9-0.7-1.3-1.2
	c-0.3-0.4-0.5-0.9-0.5-1.4c0-0.2,0.2-0.4,0.5-0.4s0.6-0.1,0.7-0.1c0.1,0,0.2,0,0.4,0.1c0.2,0.1,0.3,0.1,0.5,0.2s0.3,0.1,0.4,0.2
	c0.1,0.1,0.2,0.2,0.1,0.3c0.1,0.2,0.3,0.4,0.6,0.7c0.3,0.3,0.5,0.6,0.8,0.7c0.3,0.2,0.5,0.3,0.7,0.2c0.2-0.1,0.3-0.3,0.3-0.9
	c0-1-0.3-1.9-0.8-2.8s-1.1-1.7-1.8-2.5s-1.2-1.6-1.8-2.4S151.6,25.6,151.6,24.7z M165.4,30.5c0-0.9,0.1-2,0.3-3.2
	c0.2-1.2,0.5-2.4,1-3.5c0.5-1.1,1.1-2,1.9-2.8c0.8-0.8,1.8-1.2,3-1.2c1.1,0,2,0.3,2.5,1c0.6,0.6,0.8,1.5,0.8,2.6
	c0,0.7-0.1,1.5-0.4,2.4c-0.3,0.9-0.6,1.7-1.1,2.4c-0.5,0.8-1.1,1.4-1.8,1.9c-0.7,0.5-1.4,0.8-2.3,0.8l-0.5,0c0,0.4,0.1,0.8,0.2,1.4
	c0.1,0.6,0.3,1.2,0.5,1.8c0.2,0.6,0.5,1.1,0.8,1.5c0.3,0.4,0.7,0.7,1.2,0.7c0.7,0,1.3-0.3,1.9-0.8c0.6-0.5,1.2-1.1,1.7-1.8
	s1.1-1.2,1.5-1.8s0.9-0.8,1.3-0.8c0.2,0,0.4,0,0.6,0.1c0.2,0.1,0.3,0.2,0.4,0.5c0,0.2,0,0.3-0.1,0.4s-0.2,0.2-0.3,0.4
	c-0.4,0.7-0.8,1.3-1.3,2c-0.5,0.6-1,1.2-1.6,1.7c-0.6,0.5-1.3,0.9-2,1.2c-0.7,0.3-1.5,0.4-2.4,0.4c-1.1,0-2.1-0.2-2.8-0.6
	s-1.3-0.9-1.8-1.6c-0.5-0.7-0.8-1.4-1-2.3C165.5,32.4,165.4,31.5,165.4,30.5z M168.9,29l0.5,0.5c0.3,0.2,0.5,0.3,0.8,0.2
	c0.3-0.1,0.5-0.4,0.7-0.7c0.2-0.3,0.4-0.8,0.6-1.3s0.3-1,0.5-1.6s0.2-1.1,0.3-1.6c0.1-0.5,0.1-0.9,0.1-1.3v-0.7c0,0,0-0.2-0.1-0.7
	s-0.1-0.7-0.2-0.6s-0.3,0-0.5-0.3c-0.1,0-0.1,0-0.2,0c-0.4,0-0.8,0.3-1.1,0.8c-0.3,0.6-0.6,1.4-0.8,2.3c-0.2,0.9-0.4,1.8-0.4,2.7
	C168.9,27.9,168.9,28.6,168.9,29z M181.7,29.7c0-0.9,0.1-1.7,0.4-2.6c0.2-0.8,0.6-1.6,1.1-2.2c0.5-0.6,1.1-1.2,1.8-1.5
	c0.7-0.4,1.6-0.6,2.5-0.6c0.6,0,1.2,0.1,1.9,0.3c0.7,0.2,1.4,0.4,2,0.8c0.6,0.3,1.1,0.8,1.6,1.3c0.4,0.5,0.6,1.1,0.6,1.8
	c0,0.3-0.1,0.6-0.2,0.7c-0.1,0.2-0.3,0.3-0.7,0.3l-0.2,0c0.4,1,0.7,2.1,1,3.1c0.3,1.1,0.5,2.1,0.8,3.2c0.1,0.2,0.2,0.4,0.2,0.6
	c0.1,0.2,0.1,0.3,0.1,0.5c0,0.2-0.1,0.4-0.2,0.5c-0.1,0.1-0.3,0.2-0.5,0.3c-0.2,0.1-0.4,0.1-0.6,0.1c-0.2,0-0.4,0-0.5,0
	c-0.6,0-1-0.1-1.3-0.3c-0.3-0.2-0.5-0.5-0.6-0.8c-0.1-0.3-0.2-0.7-0.2-1.1c0-0.4-0.1-0.8-0.2-1.3c-0.2,0.5-0.4,1-0.6,1.5
	c-0.3,0.5-0.6,0.9-0.9,1.3c-0.3,0.4-0.8,0.7-1.2,0.9c-0.5,0.2-1,0.3-1.6,0.3c-0.9,0-1.6-0.2-2.2-0.7c-0.6-0.5-1.1-1.1-1.4-1.8
	c-0.4-0.7-0.6-1.5-0.8-2.3C181.8,31.2,181.7,30.4,181.7,29.7z M184.5,29.4c0,0.5,0,1,0.1,1.5c0.1,0.5,0.2,1.1,0.3,1.6
	c0.1,0.5,0.3,1,0.6,1.5c0.2,0.5,0.5,0.9,0.9,1.2c0.6-0.7,1.1-1.5,1.4-2.5c0.3-1,0.6-1.9,0.8-2.9c0.2-0.9,0.5-1.7,0.8-2.4
	c0.3-0.7,0.8-1,1.4-1c0.4,0,0.7,0.1,1,0.2c-0.1-0.3-0.3-0.6-0.6-0.9c-0.3-0.3-0.6-0.6-1-0.8c-0.4-0.3-0.8-0.5-1.2-0.6
	c-0.4-0.2-0.8-0.2-1.1-0.2c-0.1,0-0.2,0-0.4,0c-0.1,0-0.2,0-0.3,0c-0.5,0.2-1,0.4-1.3,0.8c-0.3,0.4-0.6,0.8-0.8,1.4
	c-0.2,0.5-0.4,1.1-0.5,1.6C184.5,28.4,184.5,29,184.5,29.4z M198.6,24.2c0-0.5,0.1-1,0.3-1.3s0.6-0.5,1.2-0.5c0.2,0,0.5,0,0.9,0.1
	s0.6,0.3,0.6,0.5c0.1,0.8,0.2,1.6,0.2,2.5s0.1,1.7,0.1,2.5c0.3-0.6,0.7-1.2,1.2-1.9s1-1.3,1.6-1.9s1.3-1,2-1.4s1.4-0.6,2.1-0.6
	c0.1,0,0.1,0,0.3,0.1s0.3,0.1,0.4,0.2s0.2,0.2,0.2,0.2s0,0.2-0.2,0.3c-0.1,0.2-0.2,0.3-0.3,0.3s-0.3,0-0.4,0c-0.1,0-0.2,0-0.4-0.1
	c-1,0.5-1.8,1.2-2.5,2.1s-1.2,1.8-1.7,2.9s-0.7,2.2-0.9,3.4S203,33.9,203,35c0,0.6-0.1,0.9-0.4,1s-0.7,0.2-1.2,0.2
	c-0.3,0-0.6,0-0.9-0.1s-0.6-0.3-0.7-0.6c-0.2-0.7-0.4-1.6-0.6-2.6s-0.3-2-0.3-3s-0.1-2-0.2-3S198.6,25,198.6,24.2z M212.5,29.3
	c0-0.9,0.1-1.9,0.4-2.8c0.2-0.9,0.6-1.8,1.1-2.5c0.5-0.7,1.2-1.4,1.9-1.8c0.8-0.5,1.7-0.7,2.8-0.7c0.5,0,1,0.1,1.5,0.2
	c0.5,0.1,1.1,0.3,1.5,0.5c0.5,0.2,0.9,0.6,1.2,0.9c0.3,0.4,0.5,0.9,0.5,1.4c0,0.4-0.1,0.6-0.3,0.7c-0.2,0.1-0.4,0.2-0.7,0.2
	l-0.1-0.2c0,0-0.1-0.2-0.4-0.5c-0.3-0.3-0.4-0.5-0.5-0.6c-0.1-0.1-0.3-0.3-0.5-0.6c-0.5-0.5-1-0.8-1.5-0.9h-0.2
	c-0.4,0-0.8,0.1-1.1,0.4c-0.4,0.3-0.7,0.7-1,1.2c-0.3,0.5-0.5,1.1-0.7,1.7c-0.2,0.6-0.3,1.2-0.5,1.8c-0.1,0.6-0.2,1.1-0.2,1.5
	c0,0.5,0.1,1.1,0.2,1.8c0.1,0.7,0.3,1.3,0.6,1.9c0.3,0.6,0.7,1.1,1.1,1.5c0.4,0.4,1,0.6,1.7,0.6c0.6,0,1.2-0.2,1.7-0.5
	c0.5-0.3,1-0.7,1.5-1c0.5-0.4,0.9-0.7,1.4-1c0.5-0.3,0.9-0.5,1.4-0.5c0.2,0,0.4,0,0.6,0.1c0.2,0.1,0.3,0.2,0.3,0.4v0.1
	c-0.2,0.6-0.6,1.2-1.2,1.6c-0.6,0.5-1.2,0.9-1.9,1.2c-0.7,0.3-1.4,0.6-2.2,0.8c-0.7,0.2-1.4,0.3-2,0.3c-1.1,0-2.1-0.2-2.9-0.5
	c-0.8-0.4-1.5-0.8-2.1-1.5c-0.5-0.6-1-1.4-1.2-2.3C212.6,31.3,212.5,30.4,212.5,29.3z M229.5,31.8V30c0-0.7,0-1.6,0-2.8
	c0-1.2,0.1-2.6,0.1-4c0.1-1.5,0.1-3,0.2-4.5c0.1-1.6,0.2-3.1,0.3-4.5s0.3-2.7,0.4-3.8c0.2-1.1,0.3-1.9,0.6-2.5
	c0.1-0.3,0.3-0.5,0.6-0.6s0.6-0.1,0.9-0.1c0.5,0,0.9,0.1,1.2,0.3s0.5,0.6,0.5,1.1l-0.4,0.4c-0.5,3-0.7,6-0.9,9.1s-0.2,6.1-0.3,9.1
	c0.3-0.5,0.7-1,1.1-1.5s0.9-0.9,1.4-1.3s1-0.7,1.6-0.9s1.2-0.3,1.9-0.3c0.9,0,1.6,0.3,2.2,0.8s1.1,1.2,1.4,2.1s0.7,1.8,0.8,2.9
	s0.3,2.1,0.4,3.2s0.2,2.1,0.2,3s0.1,1.7,0.2,2.4c-0.2,0.3-0.6,0.5-1.1,0.5h-0.1c-0.2,0-0.4,0-0.7-0.1s-0.4-0.2-0.5-0.4l0,0
	c-0.2-0.4-0.3-1-0.4-1.7s-0.1-1.6-0.2-2.5s-0.1-1.9-0.2-2.8s-0.2-1.8-0.4-2.6s-0.5-1.4-0.9-1.9s-0.9-0.8-1.5-0.8h-0.1
	c-0.8,0-1.4,0.2-1.9,0.7c-0.5,0.5-1,1.1-1.3,2s-0.6,1.7-0.8,2.7s-0.3,1.9-0.4,2.9s-0.2,1.8-0.2,2.5s-0.1,1.3-0.2,1.7
	c-0.1,0.3-0.3,0.5-0.7,0.6s-0.7,0.1-1,0.1c-0.6,0-1.2-0.2-1.6-0.5c-0.3-0.7-0.5-1.6-0.5-2.7S229.5,32.9,229.5,31.8L229.5,31.8z
	 M-25-83"/>
</svg>
