<?xml version="1.0" encoding="utf-8"?>
<!-- Generator: Adobe Illustrator 24.2.0, SVG Export Plug-In . SVG Version: 6.00 Build 0)  -->
<svg version="1.1" id="Layer_1" xmlns="http://www.w3.org/2000/svg" xmlns:xlink="http://www.w3.org/1999/xlink" x="0px" y="0px"
	 viewBox="0 0 400 87" style="enable-background:new 0 0 400 87;" xml:space="preserve">
<style type="text/css">
	.st0{fill:#7F0020;}
</style>
<path class="st0" d="M12.3,54.9c0-4.9,0.2-9.9,0.7-14.9s1.4-9.8,2.8-14.6c0.4-1.4,0.9-2.9,1.6-4.3s1.5-2.6,2.4-3.7s2.1-2,3.4-2.7
	s2.9-1,4.7-1l0.7,0.1c2,0.3,3.4,1.1,4.3,2.4c0.9,1.3,1.4,2.9,1.4,4.9c0,0.5-0.1,1.2-0.2,2s-0.3,1.5-0.6,2.3s-0.6,1.4-1.1,1.9
	C32,27.7,31.4,28,30.7,28c-0.3,0-0.6-0.1-0.9-0.2s-0.5-0.2-0.7-0.4c0.4-0.8,0.7-1.6,1-2.5s0.4-1.9,0.4-3c0-0.4,0-0.9-0.1-1.6
	S30.2,19,30,18.4s-0.5-1.2-0.8-1.6s-0.8-0.7-1.3-0.7c-1.4,0-2.6,0.8-3.6,2.4s-1.8,3.7-2.5,6.2s-1.2,5.3-1.5,8.3
	c-0.3,3-0.6,5.9-0.7,8.8s-0.3,5.4-0.3,7.6s0,3.9,0,4.8c0,1.1,0,2.3,0,3.6v0.4c0,1.2,0.1,2.3,0.2,3.3c0.2,1.2,0.5,2.2,1.1,3.1
	c0.5,0.9,1.3,1.4,2.5,1.5c0.3,0,0.7,0.1,1,0.1c1.3,0,2.5-0.4,3.6-1.1c1.3-0.9,2.5-2.1,3.5-3.6s1.9-3.1,2.7-4.9s1.5-3.5,2.2-5.1
	c0.7-1.6,1.3-2.9,2-4s1.3-1.6,2-1.6c0.2,0,0.6,0,1,0.1s0.7,0.3,0.7,0.6c0,0.1,0,0.2-0.1,0.4s-0.1,0.3-0.2,0.4
	c-0.6,2.4-1.4,4.9-2.3,7.5s-2.2,5-3.6,7.1c-1.5,2.1-3.3,3.9-5.4,5.2s-4.7,2-7.7,2c-2.1,0-3.9-0.4-5.2-1.2s-2.4-1.9-3.1-3.2
	c-0.7-1.4-1.2-2.9-1.5-4.6S12.3,56.7,12.3,54.9z M48.7,56.8v-3.2c0-1.2,0-2.8,0.1-4.9c0.1-2.1,0.1-4.5,0.2-7
	c0.1-2.5,0.2-5.2,0.4-7.9c0.2-2.8,0.3-5.4,0.5-7.8s0.5-4.6,0.7-6.6c0.3-1.9,0.6-3.4,1-4.3c0.2-0.5,0.6-0.9,1.1-1
	c0.5-0.1,1-0.2,1.5-0.2c0.8,0,1.5,0.2,2.1,0.5c0.6,0.4,0.9,1,0.9,1.9L56.7,17c-0.8,5.3-1.3,10.6-1.5,15.9
	c-0.2,5.3-0.4,10.6-0.5,15.9c0.6-0.9,1.2-1.8,1.9-2.6s1.5-1.6,2.4-2.3c0.9-0.7,1.8-1.2,2.8-1.6c1-0.4,2.1-0.6,3.3-0.6
	c1.5,0,2.8,0.5,3.8,1.4c1,0.9,1.9,2.1,2.5,3.6s1.2,3.2,1.5,5s0.6,3.7,0.7,5.5s0.3,3.6,0.4,5.2c0.1,1.7,0.2,3,0.3,4.1
	c-0.4,0.6-1.1,0.9-1.9,0.9h-0.1c-0.4,0-0.8,0-1.2-0.1s-0.7-0.3-0.9-0.7l0.1,0.1c-0.3-0.7-0.5-1.7-0.6-3.1c-0.1-1.3-0.2-2.8-0.3-4.4
	s-0.2-3.3-0.4-4.9s-0.4-3.2-0.8-4.6s-0.8-2.5-1.5-3.4S65.3,45,64.2,45H64c-1.3,0-2.5,0.4-3.4,1.2c-1,0.9-1.7,2-2.3,3.4s-1,3-1.4,4.7
	s-0.6,3.4-0.7,5s-0.3,3.1-0.4,4.4c-0.1,1.3-0.2,2.3-0.3,2.9c-0.1,0.5-0.5,0.9-1.2,1s-1.2,0.3-1.7,0.3c-1.1,0-2-0.3-2.7-1
	c-0.5-1.3-0.8-2.8-0.9-4.7C48.7,60.4,48.7,58.6,48.7,56.8z M81.4,54.5c0-1.6,0.2-3.5,0.5-5.6c0.4-2.2,1-4.2,1.8-6.2
	c0.8-1.9,2-3.6,3.3-4.9c1.4-1.4,3.1-2,5.2-2c2,0,3.4,0.6,4.4,1.7c1,1.1,1.5,2.6,1.5,4.6c0,1.3-0.2,2.6-0.7,4.1
	c-0.5,1.5-1.1,2.9-2,4.2c-0.9,1.3-1.9,2.4-3.1,3.3c-1.2,0.9-2.5,1.3-4,1.3l-0.9-0.1c0,0.6,0.1,1.4,0.3,2.5c0.2,1,0.5,2.1,0.8,3.1
	c0.4,1,0.8,1.9,1.4,2.7c0.6,0.8,1.2,1.2,2,1.2c1.2,0,2.3-0.5,3.3-1.4c1.1-0.9,2.1-2,3-3.1c1-1.1,1.8-2.2,2.7-3.1s1.6-1.4,2.3-1.4
	c0.4,0,0.7,0.1,1.1,0.2c0.4,0.1,0.6,0.4,0.6,1c0,0.3-0.1,0.6-0.3,0.8s-0.3,0.4-0.5,0.7c-0.7,1.2-1.5,2.4-2.3,3.5
	c-0.8,1.1-1.8,2.1-2.8,3c-1,0.9-2.2,1.6-3.4,2.1c-1.2,0.5-2.6,0.8-4.1,0.8c-2,0-3.6-0.3-4.9-1s-2.3-1.6-3.1-2.8
	c-0.8-1.2-1.4-2.5-1.7-4.1C81.6,57.8,81.4,56.2,81.4,54.5z M87.5,51.9l1,0.9c0.5,0.4,0.9,0.5,1.4,0.3c0.5-0.2,0.9-0.6,1.2-1.2
	c0.4-0.6,0.7-1.4,1-2.2s0.6-1.8,0.8-2.7s0.4-1.8,0.5-2.7c0.1-0.9,0.2-1.6,0.2-2.2v-1.2c0,0,0-0.4-0.1-1.2s-0.2-1.1-0.4-1
	s-0.4,0-0.8-0.5c-0.1,0-0.2,0-0.3,0c-0.8,0-1.4,0.5-2,1.5c-0.6,1.1-1.1,2.4-1.4,4c-0.4,1.6-0.6,3.2-0.8,4.8
	C87.6,49.8,87.5,51.1,87.5,51.9z M110,53.3v-1c0-0.8,0-1.6,0.1-2.3c0-1,0.1-1.9,0.1-2.5c0-0.4,0-0.8,0.1-1.2c0-0.5,0.2-0.8,0.3-1.1
	c0.2-0.2,0.5-0.5,0.8-0.7s0.6-0.4,1-0.4c1.2,0,2.1,0.1,2.7,0.4c0.7,0.3,1,0.8,1.1,1.6l0.1,1.1c0.4-1,1-2.2,1.6-3.6s1.5-2.8,2.4-4.1
	c0.9-1.3,1.9-2.4,3-3.3s2.3-1.4,3.6-1.4c1.2,0,2.1,0.5,2.9,1.6s1.4,2.5,1.8,4.2s0.8,3.6,0.9,5.7s0.3,4.1,0.4,6.1s0.1,3.8,0.1,5.5
	c0,1.7,0.1,2.9,0.2,3.7c0.1,0.7,0.2,1.5,0.5,2.2c0.2,0.8,0.3,1.5,0.3,2.2c0,0.2-0.1,0.4-0.4,0.5s-0.5,0.3-0.8,0.4s-0.6,0.2-0.9,0.3
	s-0.5,0.1-0.7,0.1c-0.9,0-1.5-0.7-1.9-2c-0.4-1.3-0.6-3-0.7-5c-0.1-2-0.1-4.2-0.1-6.5s-0.1-4.5-0.2-6.5s-0.5-3.7-1-5s-1.3-2-2.3-2.1
	c-1,0-2,0.6-3,1.9s-1.9,2.9-2.7,5c-0.7,2.1-1.2,4.5-1.5,7.1c-0.1,0.8-0.1,1.7-0.1,2.5c0,1.8,0.2,3.7,0.6,5.5c0,0.3-0.1,0.6-0.4,0.7
	s-0.7,0.3-1.1,0.4s-0.9,0.1-1.4,0.2s-0.8,0-1.1,0c-0.9,0-1.6-0.3-2.1-0.9s-1-1.4-1.2-2.4s-0.5-2.1-0.6-3.3S110,54.5,110,53.3z
	 M141,51.9c0-1.3,0.1-2.6,0.4-4s0.6-2.7,1.2-3.9s1.4-2.2,2.4-2.9s2.3-1.2,3.9-1.2c1.1,0,2.1,0.2,3.1,0.5c1,0.4,1.9,0.8,2.8,1.5
	c0.3-0.5,0.7-0.7,1.3-0.8c0.6-0.1,1.1-0.2,1.6-0.2c0.2,0,0.4,0,0.8,0c0.3,0,0.7,0.1,1,0.2c0.3,0.1,0.6,0.3,0.8,0.4s0.4,0.4,0.4,0.7
	c0.2,1.6,0.3,3.2,0.4,4.8s0.2,3.2,0.3,4.7c0.2,2.9,0.6,5.8,1.1,8.7s0.7,5.8,0.7,8.7c0,1.4-0.1,2.9-0.2,4.5c-0.1,1.6-0.5,3.1-1,4.5
	c-0.5,1.4-1.3,2.5-2.3,3.4s-2.4,1.4-4.3,1.4c-1.6,0-2.9-0.3-3.8-0.9c-0.9-0.6-1.7-1.6-2.4-2.9c0-0.5,0.3-0.8,0.9-0.9
	c0.5-0.1,1-0.2,1.4-0.2c0.4,0,0.7,0,1.1,0.1s0.7,0.2,0.9,0.3l0.9,0.5c0.8-1.7,1.4-3.6,1.5-5.7c0.2-2.1,0.3-4,0.3-5.9
	c0-1.6-0.1-3.2-0.2-4.7c-0.2-1.6-0.3-3.1-0.5-4.7c-1.6,2.9-4,4.3-7.3,4.3c-1.5,0-2.7-0.3-3.7-1c-0.9-0.6-1.7-1.4-2.2-2.4
	c-0.5-1-0.9-2.1-1.1-3.3C141.1,54.4,141,53.1,141,51.9z M145.2,52.2c0,0.6,0,1.3,0.1,2.2c0,0.9,0.2,1.8,0.4,2.6
	c0.2,0.9,0.5,1.6,0.8,2.2c0.4,0.6,0.9,0.9,1.5,0.9c1.3,0,2.2-0.5,3-1.5c0.7-1,1.3-2.1,1.7-3.5c0.4-1.4,0.8-2.8,1-4.2
	c0.3-1.4,0.6-2.6,1-3.6c0-0.3-0.1-0.6-0.1-0.9v-0.9c-0.5-1-1.3-1.8-2.3-2.5c-1-0.7-2-1.2-3.1-1.5c-0.1,0-0.3,0-0.4,0
	c-0.6,0-1.2,0.4-1.6,1.1c-0.5,0.9-0.9,2-1.2,3.3c-0.3,1.3-0.5,2.5-0.6,3.7C145.3,50.9,145.2,51.8,145.2,52.2z M170.2,19
	c0-1.1,0.1-1.9,0.4-2.3s0.6-0.8,1.1-1s1.1-0.3,1.8-0.2s1.5,0.1,2.4,0.1c2.4,0,4.8,0.4,7.2,1.1c2.4,0.7,4.6,1.8,6.5,3.2
	s3.5,3.1,4.7,5.2s1.8,4.4,1.8,7.1c0,1.8-0.3,3.5-0.8,5s-1.2,3.1-2.2,4.4s-2,2.6-3.3,3.8s-2.6,2.1-4.1,3c0.6,0.6,1.4,1.7,2.4,3.3
	s1.9,3.2,2.9,5s1.8,3.5,2.5,5.1s1.2,2.9,1.3,3.8l-0.4,0.6c-0.6,0.4-1.4,0.6-2.2,0.6c-0.4,0-0.9-0.1-1.6-0.2s-1.1-0.4-1.3-0.9
	c-0.9-2.6-2-5.3-3.1-8.1c-1.1-2.8-2.5-5.3-4.1-7.5v-0.1c-0.6,0.2-1.1,0.5-1.7,0.7s-1.1,0.4-1.7,0.6c0.2,2.5,0.4,5,0.6,7.5
	c0.2,2.4,0.3,4.9,0.3,7.4c0,0.3-0.2,0.6-0.5,0.8s-0.7,0.3-1,0.5s-0.8,0.2-1.2,0.2s-0.7,0.1-1,0.1c-0.2,0-0.6,0-1-0.1
	s-0.8-0.1-1.2-0.2s-0.7-0.3-1-0.5s-0.4-0.5-0.4-0.9c0-2.5-0.1-5.1-0.2-7.6c-0.1-2.5-0.2-5-0.4-7.5c-0.7-0.5-1.1-1-1.1-1.8
	c0-0.6,0.3-1,0.8-1.2c-0.3-4.8-0.6-9.6-0.9-14.4S170.2,23.9,170.2,19z M176.4,18c0.3,4.9,0.7,9.8,1.1,14.7s0.8,9.7,1.1,14.7
	c1.6-0.5,3.1-1.2,4.5-2.4s2.6-2.4,3.6-3.8s1.8-3,2.3-4.6s0.8-3.3,0.8-5c0-1.8-0.4-3.6-1.1-5.2s-1.7-3.1-2.9-4.4
	c-1.2-1.3-2.6-2.2-4.2-2.9c-1.4-0.6-2.9-0.9-4.4-0.9h-0.6L176.4,18z M203.1,54.5c0-1.6,0.2-3.5,0.5-5.6c0.4-2.2,1-4.2,1.8-6.2
	c0.8-1.9,2-3.6,3.3-4.9c1.4-1.4,3.1-2,5.2-2c2,0,3.4,0.6,4.4,1.7c1,1.1,1.5,2.6,1.5,4.6c0,1.3-0.2,2.6-0.7,4.1
	c-0.5,1.5-1.1,2.9-2,4.2c-0.9,1.3-1.9,2.4-3.1,3.3c-1.2,0.9-2.5,1.3-4,1.3l-0.9-0.1c0,0.6,0.1,1.4,0.3,2.5c0.2,1,0.5,2.1,0.8,3.1
	c0.4,1,0.8,1.9,1.4,2.7c0.6,0.8,1.2,1.2,2,1.2c1.2,0,2.3-0.5,3.3-1.4c1.1-0.9,2.1-2,3-3.1c1-1.1,1.8-2.2,2.7-3.1s1.6-1.4,2.3-1.4
	c0.4,0,0.7,0.1,1.1,0.2c0.4,0.1,0.6,0.4,0.6,1c0,0.3-0.1,0.6-0.3,0.8s-0.3,0.4-0.5,0.7c-0.7,1.2-1.5,2.4-2.3,3.5
	c-0.8,1.1-1.8,2.1-2.8,3c-1,0.9-2.2,1.6-3.4,2.1c-1.2,0.5-2.6,0.8-4.1,0.8c-2,0-3.6-0.3-4.9-1s-2.3-1.6-3.1-2.8
	c-0.8-1.2-1.4-2.5-1.7-4.1C203.3,57.8,203.1,56.2,203.1,54.5z M209.3,51.9l1,0.9c0.5,0.4,0.9,0.5,1.4,0.3c0.5-0.2,0.9-0.6,1.2-1.2
	c0.4-0.6,0.7-1.4,1-2.2s0.6-1.8,0.8-2.7s0.4-1.8,0.5-2.7c0.1-0.9,0.2-1.6,0.2-2.2v-1.2c0,0,0-0.4-0.1-1.2s-0.2-1.1-0.4-1
	s-0.4,0-0.8-0.5c-0.1,0-0.2,0-0.3,0c-0.8,0-1.4,0.5-2,1.5c-0.6,1.1-1.1,2.4-1.4,4c-0.4,1.6-0.6,3.2-0.8,4.8
	C209.4,49.8,209.3,51.1,209.3,51.9z M231.7,44.3c0-0.9,0.3-1.7,0.8-2.4c0.5-0.7,1.2-1.2,2-1.6c0.8-0.4,1.6-0.7,2.6-0.9
	c0.9-0.2,1.8-0.3,2.6-0.3c0.6,0,1.4,0.1,2.5,0.3c1,0.2,2,0.5,3,0.8c1,0.4,1.8,0.8,2.5,1.4c0.7,0.6,1.1,1.3,1.1,2.1
	c0,0.4-0.1,0.7-0.4,1c-0.3,0.3-0.6,0.4-0.9,0.4c-0.6,0-1.2-0.2-1.7-0.6c-0.5-0.4-1-0.8-1.6-1.3c-0.5-0.4-1.1-0.9-1.8-1.3
	c-0.6-0.4-1.4-0.6-2.2-0.6c-0.8,0-1.5,0.3-2.2,0.8c-0.6,0.5-1,1.2-1,2c0,1.4,0.5,2.8,1.5,4.1c1,1.3,2.1,2.7,3.2,4.2
	c1.2,1.5,2.3,3,3.2,4.6c1,1.6,1.5,3.4,1.5,5.4c0,0.8-0.2,1.6-0.5,2.1c-0.4,0.6-0.8,1.1-1.4,1.4c-0.6,0.4-1.2,0.6-2,0.8
	c-0.7,0.2-1.4,0.3-2.1,0.3c-0.8,0-1.6-0.2-2.6-0.5c-1-0.4-1.9-0.8-2.8-1.4c-0.9-0.6-1.6-1.3-2.2-2c-0.6-0.8-0.9-1.6-0.9-2.4
	c0-0.4,0.3-0.7,0.9-0.8c0.6-0.1,1-0.2,1.3-0.2c0.1,0,0.3,0,0.6,0.1c0.3,0.1,0.6,0.2,0.8,0.3c0.3,0.1,0.5,0.2,0.7,0.4
	c0.2,0.1,0.3,0.3,0.3,0.4c0.2,0.3,0.6,0.7,1,1.2c0.5,0.5,0.9,1,1.4,1.3c0.5,0.3,0.9,0.5,1.2,0.4c0.4-0.1,0.5-0.6,0.5-1.5
	c0-1.8-0.5-3.4-1.4-4.9c-1-1.5-2-3-3.1-4.4c-1.1-1.4-2.2-2.8-3.1-4.2C232.2,47.4,231.7,45.9,231.7,44.3z M255.8,54.5
	c0-1.6,0.2-3.5,0.5-5.6c0.4-2.2,1-4.2,1.8-6.2s2-3.6,3.3-4.9s3.1-2,5.2-2c2,0,3.4,0.6,4.4,1.7c1,1.1,1.5,2.6,1.5,4.6
	c0,1.3-0.2,2.6-0.7,4.1c-0.5,1.5-1.1,2.9-2,4.2c-0.9,1.3-1.9,2.4-3.1,3.3c-1.2,0.9-2.5,1.3-4,1.3l-0.9-0.1c0,0.6,0.1,1.4,0.3,2.5
	c0.2,1,0.5,2.1,0.8,3.1c0.4,1,0.8,1.9,1.4,2.7c0.6,0.8,1.2,1.2,2,1.2c1.2,0,2.3-0.5,3.3-1.4c1.1-0.9,2.1-2,3-3.1
	c1-1.1,1.8-2.2,2.7-3.1s1.6-1.4,2.3-1.4c0.4,0,0.7,0.1,1.1,0.2c0.4,0.1,0.6,0.4,0.6,1c0,0.3-0.1,0.6-0.3,0.8s-0.3,0.4-0.5,0.7
	c-0.7,1.2-1.5,2.4-2.3,3.5c-0.8,1.1-1.8,2.1-2.8,3c-1,0.9-2.2,1.6-3.4,2.1c-1.2,0.5-2.6,0.8-4.1,0.8c-2,0-3.6-0.3-4.9-1
	c-1.3-0.7-2.3-1.6-3.1-2.8c-0.8-1.2-1.4-2.5-1.7-4.1C256,57.8,255.8,56.2,255.8,54.5z M261.9,51.9l1,0.9c0.5,0.4,0.9,0.5,1.4,0.3
	c0.5-0.2,0.9-0.6,1.2-1.2c0.4-0.6,0.7-1.4,1-2.2s0.6-1.8,0.8-2.7s0.4-1.8,0.5-2.7c0.1-0.9,0.2-1.6,0.2-2.2v-1.2c0,0,0-0.4-0.1-1.2
	s-0.2-1.1-0.4-1s-0.4,0-0.8-0.5c-0.1,0-0.2,0-0.3,0c-0.8,0-1.4,0.5-2,1.5c-0.6,1.1-1.1,2.4-1.4,4c-0.4,1.6-0.6,3.2-0.8,4.8
	C262.1,49.8,262,51.1,261.9,51.9z M284.4,53.1c0-1.5,0.2-3,0.6-4.5s1.1-2.7,1.9-3.8s1.9-2,3.2-2.7s2.7-1,4.4-1c1,0,2.2,0.2,3.4,0.5
	s2.4,0.8,3.5,1.4s2,1.4,2.7,2.3s1.1,2,1.1,3.2c0,0.6-0.1,1-0.3,1.3s-0.6,0.4-1.2,0.4l-0.4-0.1c0.7,1.8,1.2,3.6,1.7,5.5
	s0.9,3.7,1.4,5.6c0.2,0.4,0.3,0.7,0.4,1s0.1,0.6,0.1,0.8c0,0.4-0.1,0.7-0.3,0.9c-0.2,0.2-0.5,0.4-0.8,0.5s-0.7,0.2-1,0.2
	s-0.7,0.1-0.9,0.1c-1,0-1.7-0.2-2.2-0.5c-0.5-0.3-0.8-0.8-1.1-1.4s-0.3-1.3-0.4-2s-0.1-1.5-0.3-2.2c-0.3,0.9-0.6,1.8-1.1,2.6
	s-1,1.6-1.6,2.3c-0.6,0.7-1.3,1.2-2.1,1.6s-1.7,0.6-2.8,0.6c-1.5,0-2.8-0.4-3.8-1.3c-1-0.9-1.9-1.9-2.5-3.2s-1.1-2.6-1.4-4.1
	S284.4,54.3,284.4,53.1z M289.2,52.6c0,0.8,0.1,1.7,0.2,2.7s0.3,1.9,0.6,2.8c0.3,0.9,0.6,1.8,1,2.6s0.9,1.5,1.5,2.1
	c1.1-1.2,1.9-2.7,2.5-4.4c0.5-1.7,1-3.4,1.4-5s0.9-3,1.4-4.1s1.4-1.7,2.5-1.7c0.7,0,1.3,0.1,1.8,0.4c-0.2-0.6-0.6-1.1-1.1-1.7
	s-1.1-1-1.8-1.5s-1.3-0.8-2-1.1s-1.4-0.4-2-0.4c-0.2,0-0.4,0-0.6,0.1s-0.4,0.1-0.6,0c-0.9,0.3-1.7,0.7-2.3,1.4s-1.1,1.5-1.5,2.4
	s-0.6,1.8-0.8,2.8S289.2,51.8,289.2,52.6z M314,43.5c0-0.9,0.2-1.7,0.5-2.4s1-1,2.1-1c0.4,0,0.9,0.1,1.5,0.2s1,0.4,1.1,0.9
	c0.2,1.3,0.4,2.8,0.4,4.4s0.1,3.1,0.2,4.4c0.5-1,1.2-2.1,2-3.3s1.8-2.3,2.8-3.3s2.2-1.8,3.4-2.5s2.5-1,3.8-1c0.1,0,0.3,0,0.5,0.1
	s0.5,0.2,0.7,0.3s0.3,0.3,0.4,0.4s-0.1,0.3-0.4,0.4c-0.1,0.3-0.3,0.4-0.6,0.5s-0.6,0.1-0.8,0.1c-0.1,0-0.4-0.1-0.6-0.2
	c-1.7,0.9-3.1,2.1-4.3,3.6s-2.2,3.2-2.9,5.1s-1.3,3.8-1.6,5.9s-0.5,4.1-0.5,6c0,1-0.2,1.6-0.7,1.8c-0.4,0.2-1.2,0.3-2.1,0.3
	c-0.5,0-1.1-0.1-1.7-0.2s-1-0.5-1.2-1.1c-0.4-1.3-0.7-2.8-1-4.5c-0.3-1.7-0.5-3.4-0.6-5.2s-0.2-3.5-0.3-5.3S314,44.9,314,43.5z
	 M338.3,52.4c0-1.6,0.2-3.3,0.6-4.9s1.1-3.1,2-4.4s2-2.4,3.4-3.2s3-1.2,4.9-1.2c0.8,0,1.7,0.1,2.6,0.3c1,0.2,1.8,0.5,2.6,0.9
	c0.8,0.4,1.5,1,2.1,1.6c0.6,0.7,0.8,1.5,0.8,2.5c0,0.6-0.2,1-0.5,1.2c-0.3,0.2-0.7,0.3-1.3,0.3l-0.2-0.3c0,0-0.2-0.3-0.7-0.9
	c-0.4-0.6-0.7-1-0.9-1.1c-0.2-0.2-0.5-0.5-0.9-1c-0.9-0.9-1.8-1.4-2.6-1.5h-0.3c-0.7,0-1.3,0.2-1.9,0.6c-0.7,0.5-1.2,1.2-1.8,2.1
	c-0.5,0.9-0.9,1.9-1.3,2.9s-0.6,2.1-0.8,3.1s-0.3,1.9-0.3,2.6c0,0.9,0.1,2,0.3,3.2s0.6,2.3,1.1,3.4c0.5,1.1,1.2,2,1.9,2.7
	c0.8,0.7,1.8,1.1,3,1.1c1.1,0,2.1-0.3,3-0.8c0.9-0.5,1.8-1.2,2.6-1.8c0.8-0.7,1.6-1.3,2.4-1.8c0.8-0.5,1.6-0.8,2.5-0.8
	c0.4,0,0.7,0,1.1,0.1c0.4,0.1,0.6,0.3,0.6,0.7v0.2c-0.4,1.1-1.1,2-2.1,2.8c-1,0.8-2.1,1.5-3.3,2.1c-1.2,0.6-2.5,1.1-3.8,1.4
	c-1.3,0.3-2.5,0.4-3.5,0.4c-1.9,0-3.6-0.3-5-0.9c-1.4-0.6-2.6-1.5-3.6-2.6s-1.7-2.4-2.2-3.9S338.3,54.2,338.3,52.4z M368.1,56.8
	v-3.2c0-1.2,0-2.8,0.1-4.9c0.1-2.1,0.1-4.5,0.2-7c0.1-2.5,0.2-5.2,0.4-7.9c0.2-2.8,0.3-5.4,0.5-7.8s0.5-4.6,0.7-6.6
	c0.3-1.9,0.6-3.4,1-4.3c0.2-0.5,0.6-0.9,1.1-1c0.5-0.1,1-0.2,1.5-0.2c0.8,0,1.5,0.2,2.1,0.5c0.6,0.4,0.9,1,0.9,1.9l-0.6,0.7
	c-0.8,5.3-1.3,10.6-1.5,15.9c-0.2,5.3-0.4,10.6-0.5,15.9c0.6-0.9,1.2-1.8,1.9-2.6s1.5-1.6,2.4-2.3c0.9-0.7,1.8-1.2,2.8-1.6
	c1-0.4,2.1-0.6,3.3-0.6c1.5,0,2.8,0.5,3.8,1.4c1,0.9,1.9,2.1,2.5,3.6c0.7,1.5,1.2,3.2,1.5,5c0.3,1.8,0.6,3.7,0.7,5.5
	s0.3,3.6,0.4,5.2c0.1,1.7,0.2,3,0.3,4.1c-0.4,0.6-1.1,0.9-1.9,0.9h-0.1c-0.4,0-0.8,0-1.2-0.1c-0.4-0.1-0.7-0.3-0.9-0.7l0.1,0.1
	c-0.3-0.7-0.5-1.7-0.6-3.1c-0.1-1.3-0.2-2.8-0.3-4.4s-0.2-3.3-0.4-4.9s-0.4-3.2-0.8-4.6s-0.8-2.5-1.5-3.4c-0.7-0.9-1.5-1.4-2.7-1.4
	h-0.2c-1.3,0-2.5,0.4-3.4,1.2c-1,0.9-1.7,2-2.3,3.4c-0.6,1.4-1,3-1.4,4.7c-0.3,1.7-0.6,3.4-0.7,5s-0.3,3.1-0.4,4.4
	c-0.1,1.3-0.2,2.3-0.3,2.9c-0.1,0.5-0.5,0.9-1.2,1c-0.7,0.2-1.2,0.3-1.7,0.3c-1.1,0-2-0.3-2.7-1c-0.5-1.3-0.8-2.8-0.9-4.7
	C368.1,60.4,368.1,58.6,368.1,56.8z M4.2-69.2"/>
</svg>
