<svg width="366" height="78" xmlns="http://www.w3.org/2000/svg" xmlns:xlink="http://www.w3.org/1999/xlink" overflow="hidden"><defs><clipPath id="clip0"><rect x="317" y="230" width="365" height="77"/></clipPath><clipPath id="clip1"><rect x="317" y="230" width="359" height="77"/></clipPath><clipPath id="clip2"><rect x="275" y="159" width="401" height="201"/></clipPath></defs><g transform="translate(-316 -230)"><g clip-path="url(#clip0)"><g clip-path="url(#clip1)"><g clip-path="url(#clip2)"><path d="M51.933 122.094C51.933 117.571 52.1362 113.043 52.5427 108.509 52.9491 103.975 53.7985 99.5096 55.0909 95.1115 55.4661 93.7983 55.9559 92.5008 56.5604 91.2189 57.1649 89.937 57.9048 88.7957 58.7803 87.7952 59.6557 86.7947 60.6979 85.9818 61.9069 85.3565 63.1158 84.7311 64.5541 84.4185 66.2216 84.4185L66.8782 84.481C68.6708 84.7311 69.9944 85.4555 70.849 86.654 71.7036 87.8525 72.1309 89.3481 72.1309 91.1407 72.1309 91.6201 72.0736 92.2194 71.9589 92.9385 71.8443 93.6576 71.6619 94.3507 71.4118 95.0177 71.1617 95.6847 70.8229 96.2527 70.3956 96.7217 69.9683 97.1907 69.4316 97.4252 68.7854 97.4252 68.4936 97.3835 68.2279 97.3314 67.9881 97.2689 67.7484 97.2063 67.5244 97.0708 67.3159 96.8624 67.6494 96.1329 67.9465 95.372 68.207 94.58 68.4676 93.7879 68.5978 92.8812 68.5978 91.8598 68.5978 91.4846 68.5666 91.0052 68.504 90.4216 68.4415 89.8379 68.3217 89.2595 68.1445 88.6863 67.9673 88.1131 67.7328 87.6128 67.441 87.1855 67.1492 86.7582 66.7427 86.5446 66.2216 86.5446 64.9084 86.5446 63.8037 87.2793 62.9074 88.7488 62.0111 90.2183 61.2607 92.0943 60.6562 94.3767 60.0518 96.6592 59.6036 99.1813 59.3118 101.943 59.02 104.705 58.7959 107.373 58.6396 109.947 58.4832 112.521 58.3947 114.846 58.3738 116.92 58.353 118.994 58.3426 120.458 58.3426 121.312 58.3426 122.313 58.3321 123.418 58.3113 124.627L58.3113 125.033C58.3321 126.096 58.4051 127.107 58.5301 128.066 58.6969 129.15 59.02 130.088 59.4994 130.88 59.9788 131.672 60.7292 132.131 61.7506 132.256 62.0632 132.297 62.3655 132.318 62.6573 132.318 63.8662 132.318 64.9605 131.974 65.9402 131.286 67.1492 130.432 68.2226 129.322 69.1606 127.957 70.0986 126.591 70.9324 125.09 71.6619 123.454 72.3914 121.818 73.0637 120.27 73.6786 118.811 74.2935 117.352 74.8927 116.143 75.4764 115.184 76.06 114.226 76.6645 113.746 77.2898 113.746 77.4983 113.746 77.8109 113.788 78.2278 113.871 78.6447 113.955 78.8531 114.153 78.8531 114.465 78.8531 114.549 78.8323 114.663 78.7906 114.809 78.7489 114.955 78.6968 115.07 78.6343 115.153 78.0715 117.363 77.3576 119.655 76.4925 122.032 75.6275 124.408 74.5228 126.57 73.1783 128.519 71.8339 130.468 70.1872 132.058 68.2383 133.287 66.2894 134.517 63.9496 135.132 61.219 135.132 59.2597 135.132 57.6703 134.762 56.451 134.022 55.2316 133.282 54.2936 132.292 53.637 131.052 52.9804 129.812 52.5323 128.41 52.2926 126.847 52.0529 125.283 51.933 123.699 51.933 122.094ZM85.2523 123.814 85.2523 120.875C85.2523 119.812 85.2784 118.306 85.3305 116.357 85.3826 114.408 85.4504 112.271 85.5337 109.947 85.6171 107.623 85.7318 105.2 85.8777 102.678 86.0236 100.156 86.1903 97.7743 86.3779 95.5336 86.5655 93.2928 86.7896 91.2866 87.0501 89.5149 87.3107 87.7431 87.6077 86.4299 87.9412 85.5753 88.1497 85.0959 88.4936 84.7937 88.973 84.6686 89.4524 84.5435 89.9214 84.481 90.38 84.481 91.1095 84.481 91.7505 84.6426 92.3029 84.9656 92.8552 85.2887 93.1314 85.8776 93.1314 86.7322L92.5686 87.3575C91.8391 92.1725 91.3701 97.0083 91.1616 101.865 90.9532 106.722 90.8073 111.578 90.7239 116.435 91.245 115.622 91.8339 114.825 92.4904 114.043 93.147 113.261 93.8766 112.568 94.6791 111.964 95.4816 111.359 96.3466 110.875 97.2742 110.51 98.2017 110.145 99.2179 109.963 100.323 109.963 101.74 109.963 102.912 110.39 103.84 111.245 104.768 112.099 105.534 113.209 106.138 114.575 106.743 115.94 107.191 117.467 107.483 119.155 107.774 120.843 107.998 122.532 108.155 124.22 108.311 125.909 108.421 127.508 108.483 129.02 108.546 130.531 108.639 131.787 108.764 132.787 108.368 133.329 107.785 133.6 107.014 133.6L106.92 133.6C106.586 133.6 106.221 133.558 105.825 133.475 105.429 133.392 105.169 133.183 105.044 132.85L105.106 132.912C104.815 132.266 104.616 131.333 104.512 130.114 104.408 128.895 104.325 127.55 104.262 126.081 104.2 124.611 104.09 123.105 103.934 121.563 103.778 120.02 103.543 118.624 103.23 117.373 102.918 116.122 102.459 115.091 101.855 114.278 101.25 113.465 100.437 113.037 99.4159 112.996L99.2283 112.996C97.9985 112.996 96.9667 113.371 96.1329 114.121 95.2575 114.913 94.5488 115.956 94.0069 117.248 93.4649 118.54 93.048 119.978 92.7562 121.563 92.4644 123.147 92.2403 124.674 92.084 126.143 91.9277 127.613 91.8078 128.947 91.7244 130.145 91.6411 131.344 91.5368 132.224 91.4118 132.787 91.2867 133.267 90.9167 133.584 90.3018 133.741 89.6869 133.897 89.1606 133.975 88.7229 133.975 87.7015 133.975 86.8678 133.683 86.2216 133.1 85.7422 131.953 85.4608 130.526 85.3774 128.816 85.294 127.107 85.2523 125.44 85.2523 123.814ZM115.164 121.688C115.164 120.229 115.325 118.509 115.648 116.529 115.971 114.549 116.519 112.673 117.29 110.901 118.061 109.129 119.077 107.623 120.338 106.383 121.599 105.143 123.189 104.523 125.106 104.523 126.899 104.523 128.243 105.038 129.14 106.07 130.036 107.102 130.484 108.493 130.484 110.244 130.484 111.391 130.27 112.647 129.843 114.012 129.416 115.377 128.806 116.669 128.014 117.889 127.222 119.108 126.284 120.124 125.2 120.937 124.116 121.75 122.907 122.157 121.573 122.157L120.76 122.094C120.76 122.657 120.844 123.413 121.01 124.361 121.177 125.309 121.422 126.253 121.745 127.191 122.068 128.128 122.485 128.952 122.996 129.661 123.507 130.369 124.127 130.724 124.856 130.724 125.919 130.724 126.941 130.296 127.92 129.442 128.9 128.587 129.827 127.639 130.703 126.596 131.578 125.554 132.391 124.606 133.142 123.751 133.892 122.897 134.58 122.469 135.205 122.469 135.539 122.469 135.883 122.521 136.237 122.626 136.591 122.73 136.789 123.022 136.831 123.501 136.831 123.793 136.753 124.033 136.597 124.22 136.44 124.408 136.3 124.616 136.175 124.846 135.528 125.95 134.825 127.003 134.064 128.003 133.303 129.004 132.443 129.911 131.485 130.724 130.526 131.536 129.478 132.177 128.342 132.646 127.206 133.115 125.951 133.35 124.575 133.35 122.782 133.35 121.292 133.032 120.104 132.396 118.916 131.761 117.957 130.906 117.227 129.833 116.498 128.759 115.971 127.519 115.648 126.112 115.325 124.705 115.164 123.23 115.164 121.688ZM120.76 119.311 121.636 120.093C122.053 120.468 122.47 120.552 122.886 120.343 123.303 120.135 123.678 119.754 124.012 119.202 124.346 118.65 124.653 117.967 124.934 117.154 125.216 116.341 125.466 115.507 125.685 114.653 125.904 113.798 126.065 112.964 126.169 112.152 126.274 111.339 126.326 110.661 126.326 110.119L126.326 109.056C126.326 109.056 126.294 108.681 126.232 107.931 126.169 107.18 126.06 106.883 125.904 107.04 125.747 107.196 125.502 107.045 125.169 106.586 125.065 106.565 124.971 106.555 124.887 106.555 124.179 106.555 123.574 107.003 123.074 107.899 122.532 108.9 122.094 110.114 121.761 111.542 121.427 112.97 121.188 114.434 121.042 115.935 120.896 117.435 120.802 118.561 120.76 119.311ZM141.323 120.562 141.323 119.655C141.323 118.905 141.344 118.196 141.386 117.529 141.427 116.591 141.448 115.82 141.448 115.216 141.448 114.882 141.469 114.502 141.511 114.074 141.552 113.647 141.657 113.308 141.823 113.058 142.032 112.85 142.277 112.636 142.558 112.417 142.84 112.198 143.147 112.089 143.48 112.089 144.544 112.089 145.377 112.209 145.982 112.449 146.586 112.688 146.909 113.183 146.951 113.934L147.076 114.903C147.451 114.007 147.952 112.897 148.577 111.573 149.202 110.249 149.926 108.988 150.75 107.79 151.573 106.591 152.501 105.57 153.533 104.726 154.564 103.882 155.653 103.46 156.8 103.46 157.863 103.46 158.738 103.96 159.426 104.96 160.114 105.961 160.661 107.238 161.068 108.79 161.474 110.343 161.761 112.073 161.927 113.981 162.094 115.888 162.209 117.759 162.271 119.593 162.334 121.427 162.376 123.1 162.396 124.611 162.417 126.122 162.49 127.263 162.615 128.035 162.699 128.681 162.839 129.364 163.037 130.083 163.235 130.802 163.334 131.464 163.334 132.068 163.334 132.235 163.215 132.396 162.975 132.553 162.735 132.709 162.48 132.839 162.209 132.943 161.938 133.048 161.662 133.131 161.38 133.194 161.099 133.256 160.896 133.287 160.771 133.287 159.958 133.287 159.379 132.678 159.035 131.458 158.691 130.239 158.478 128.712 158.394 126.878 158.311 125.044 158.269 123.058 158.269 120.922 158.269 118.785 158.196 116.8 158.05 114.965 157.905 113.131 157.608 111.604 157.159 110.385 156.711 109.166 155.997 108.535 155.018 108.493 154.121 108.493 153.194 109.072 152.235 110.229 151.276 111.385 150.453 112.923 149.765 114.84 149.098 116.758 148.639 118.936 148.389 121.375 148.306 122.146 148.264 122.917 148.264 123.689 148.264 125.377 148.441 127.065 148.796 128.754 148.837 129.046 148.718 129.264 148.436 129.41 148.155 129.556 147.806 129.671 147.389 129.754 146.972 129.838 146.55 129.89 146.122 129.911 145.695 129.932 145.367 129.942 145.138 129.942 144.325 129.942 143.673 129.655 143.183 129.082 142.694 128.509 142.313 127.774 142.042 126.878 141.771 125.982 141.589 124.976 141.495 123.861 141.401 122.746 141.344 121.646 141.323 120.562ZM169.734 119.311C169.734 118.165 169.843 116.94 170.062 115.638 170.281 114.335 170.656 113.142 171.188 112.058 171.719 110.974 172.454 110.078 173.392 109.369 174.33 108.66 175.528 108.306 176.987 108.306 177.967 108.306 178.915 108.467 179.833 108.79 180.75 109.113 181.615 109.556 182.428 110.119 182.678 109.702 183.074 109.447 183.616 109.353 184.158 109.259 184.637 109.213 185.054 109.213 185.221 109.213 185.455 109.223 185.758 109.244 186.06 109.265 186.357 109.327 186.649 109.431 186.94 109.536 187.196 109.661 187.415 109.807 187.634 109.952 187.764 110.161 187.805 110.432 187.972 111.891 188.087 113.345 188.149 114.794 188.212 116.242 188.306 117.686 188.431 119.124 188.639 121.813 188.962 124.47 189.4 127.097 189.838 129.723 190.057 132.381 190.057 135.07 190.057 136.341 189.999 137.717 189.885 139.197 189.77 140.677 189.468 142.047 188.978 143.308 188.488 144.569 187.774 145.617 186.836 146.45 185.898 147.284 184.595 147.701 182.928 147.701 181.427 147.701 180.276 147.435 179.473 146.904 178.671 146.372 177.946 145.481 177.3 144.231 177.342 143.814 177.608 143.537 178.097 143.402 178.587 143.266 179.009 143.199 179.364 143.199 179.697 143.199 180.036 143.23 180.38 143.293 180.724 143.355 181 143.459 181.208 143.605L181.99 144.105C182.761 142.521 183.23 140.791 183.397 138.915 183.564 137.039 183.647 135.226 183.647 133.475 183.647 132.016 183.574 130.572 183.428 129.145 183.282 127.717 183.136 126.284 182.991 124.846 181.531 127.493 179.312 128.816 176.331 128.816 174.955 128.816 173.835 128.525 172.97 127.941 172.105 127.357 171.438 126.617 170.969 125.721 170.5 124.825 170.177 123.814 169.999 122.688 169.822 121.563 169.734 120.437 169.734 119.311ZM173.579 119.593C173.579 120.114 173.6 120.786 173.642 121.61 173.684 122.433 173.793 123.241 173.97 124.033 174.147 124.825 174.403 125.507 174.736 126.081 175.07 126.654 175.539 126.94 176.143 126.94 177.29 126.94 178.196 126.492 178.863 125.596 179.53 124.7 180.057 123.631 180.442 122.391 180.828 121.151 181.135 119.869 181.365 118.545 181.594 117.222 181.886 116.133 182.24 115.278 182.198 114.986 182.178 114.7 182.178 114.418L182.178 113.558C181.698 112.662 181 111.886 180.083 111.229 179.166 110.573 178.217 110.13 177.238 109.9 177.112 109.88 176.998 109.869 176.894 109.869 176.31 109.869 175.831 110.213 175.455 110.901 174.976 111.735 174.601 112.73 174.33 113.887 174.059 115.044 173.866 116.185 173.751 117.31 173.637 118.436 173.579 119.197 173.579 119.593ZM196.456 89.2335C196.456 88.2538 196.576 87.5399 196.815 87.0917 197.055 86.6436 197.399 86.3309 197.847 86.1537 198.295 85.9766 198.837 85.9088 199.473 85.9505 200.109 85.9922 200.854 86.0131 201.709 86.0131 203.876 86.0131 206.065 86.3466 208.274 87.0136 210.484 87.6806 212.475 88.655 214.246 89.937 216.018 91.2189 217.446 92.7978 218.53 94.6738 219.614 96.5497 220.156 98.7071 220.156 101.146 220.156 102.772 219.921 104.309 219.452 105.758 218.983 107.206 218.321 108.561 217.467 109.822 216.612 111.083 215.612 112.235 214.465 113.277 213.319 114.319 212.058 115.226 210.682 115.997 211.245 116.56 211.974 117.555 212.871 118.983 213.767 120.411 214.653 121.933 215.528 123.548 216.404 125.163 217.18 126.732 217.858 128.254 218.535 129.775 218.936 130.922 219.061 131.693L218.686 132.256C218.123 132.589 217.446 132.766 216.654 132.787 216.279 132.787 215.789 132.74 215.184 132.646 214.58 132.553 214.194 132.276 214.027 131.818 213.173 129.421 212.24 126.951 211.229 124.408 210.218 121.865 208.973 119.572 207.493 117.529L207.493 117.467C206.972 117.675 206.456 117.878 205.945 118.076 205.434 118.274 204.919 118.457 204.397 118.624 204.564 120.937 204.736 123.215 204.913 125.455 205.091 127.696 205.179 129.963 205.179 132.256 205.179 132.547 205.038 132.782 204.757 132.959 204.476 133.136 204.158 133.277 203.803 133.381 203.449 133.485 203.089 133.558 202.725 133.6 202.36 133.642 202.063 133.663 201.834 133.663 201.625 133.663 201.328 133.642 200.943 133.6 200.557 133.558 200.187 133.485 199.833 133.381 199.478 133.277 199.171 133.126 198.91 132.928 198.65 132.73 198.519 132.464 198.519 132.131 198.519 129.817 198.467 127.508 198.363 125.205 198.259 122.902 198.144 120.604 198.019 118.311 197.373 117.894 197.05 117.352 197.05 116.685 197.05 116.164 197.3 115.81 197.8 115.622 197.55 111.224 197.264 106.836 196.941 102.459 196.617 98.0818 196.456 93.6732 196.456 89.2335ZM202.115 88.2642C202.407 92.7874 202.735 97.2584 203.1 101.677 203.465 106.096 203.814 110.567 204.147 115.091 205.606 114.674 206.966 113.949 208.228 112.918 209.489 111.886 210.578 110.724 211.495 109.431 212.412 108.139 213.126 106.732 213.637 105.21 214.147 103.689 214.403 102.178 214.403 100.677 214.403 99.0093 214.069 97.4095 213.402 95.8775 212.735 94.3455 211.849 93.0062 210.744 91.8598 209.619 90.7134 208.327 89.8171 206.867 89.1709 205.575 88.6081 204.22 88.3267 202.803 88.3267L202.24 88.3267ZM226.555 121.688C226.555 120.229 226.716 118.509 227.039 116.529 227.363 114.549 227.91 112.673 228.681 110.901 229.452 109.129 230.468 107.623 231.729 106.383 232.99 105.143 234.58 104.523 236.497 104.523 238.29 104.523 239.634 105.038 240.531 106.07 241.427 107.102 241.875 108.493 241.875 110.244 241.875 111.391 241.662 112.647 241.234 114.012 240.807 115.377 240.197 116.669 239.405 117.889 238.613 119.108 237.675 120.124 236.591 120.937 235.507 121.75 234.298 122.157 232.964 122.157L232.151 122.094C232.151 122.657 232.235 123.413 232.402 124.361 232.568 125.309 232.813 126.253 233.136 127.191 233.459 128.128 233.876 128.952 234.387 129.661 234.898 130.369 235.518 130.724 236.247 130.724 237.31 130.724 238.332 130.296 239.311 129.442 240.291 128.587 241.219 127.639 242.094 126.596 242.97 125.554 243.782 124.606 244.533 123.751 245.283 122.897 245.971 122.469 246.596 122.469 246.93 122.469 247.274 122.521 247.628 122.626 247.983 122.73 248.181 123.022 248.222 123.501 248.222 123.793 248.144 124.033 247.988 124.22 247.831 124.408 247.691 124.616 247.566 124.846 246.919 125.95 246.216 127.003 245.455 128.003 244.694 129.004 243.835 129.911 242.876 130.724 241.917 131.536 240.869 132.177 239.733 132.646 238.597 133.115 237.342 133.35 235.966 133.35 234.173 133.35 232.683 133.032 231.495 132.396 230.307 131.761 229.348 130.906 228.618 129.833 227.889 128.759 227.363 127.519 227.039 126.112 226.716 124.705 226.555 123.23 226.555 121.688ZM232.151 119.311 233.027 120.093C233.444 120.468 233.861 120.552 234.278 120.343 234.694 120.135 235.07 119.754 235.403 119.202 235.737 118.65 236.044 117.967 236.325 117.154 236.607 116.341 236.857 115.507 237.076 114.653 237.295 113.798 237.456 112.964 237.56 112.152 237.665 111.339 237.717 110.661 237.717 110.119L237.717 109.056C237.717 109.056 237.686 108.681 237.623 107.931 237.56 107.18 237.451 106.883 237.295 107.04 237.138 107.196 236.893 107.045 236.56 106.586 236.456 106.565 236.362 106.555 236.279 106.555 235.57 106.555 234.965 107.003 234.465 107.899 233.923 108.9 233.485 110.114 233.152 111.542 232.818 112.97 232.579 114.434 232.433 115.935 232.287 117.435 232.193 118.561 232.151 119.311ZM252.683 112.339C252.683 111.485 252.933 110.75 253.433 110.135 253.934 109.52 254.543 109.02 255.262 108.634 255.982 108.248 256.768 107.962 257.623 107.774 258.478 107.587 259.27 107.493 259.999 107.493 260.562 107.493 261.312 107.576 262.25 107.743 263.188 107.91 264.106 108.16 265.002 108.493 265.898 108.827 266.675 109.265 267.331 109.807 267.988 110.349 268.316 110.984 268.316 111.714 268.316 112.047 268.191 112.344 267.941 112.605 267.691 112.865 267.43 112.996 267.159 112.996 266.596 112.996 266.086 112.813 265.627 112.449 265.169 112.084 264.694 111.698 264.205 111.292 263.715 110.885 263.178 110.5 262.594 110.135 262.011 109.77 261.354 109.588 260.625 109.588 259.895 109.588 259.233 109.822 258.639 110.291 258.045 110.76 257.748 111.38 257.748 112.152 257.748 113.423 258.196 114.668 259.093 115.888 259.989 117.107 260.974 118.389 262.047 119.734 263.121 121.078 264.106 122.49 265.002 123.97 265.898 125.45 266.346 127.086 266.346 128.879 266.346 129.65 266.185 130.301 265.862 130.833 265.539 131.365 265.111 131.797 264.58 132.131 264.048 132.464 263.449 132.719 262.782 132.897 262.115 133.074 261.469 133.162 260.843 133.162 260.156 133.162 259.353 133.001 258.436 132.678 257.519 132.355 256.654 131.927 255.841 131.396 255.028 130.864 254.345 130.244 253.793 129.535 253.241 128.827 252.964 128.087 252.964 127.316 252.964 126.94 253.23 126.701 253.762 126.596 254.293 126.492 254.684 126.44 254.934 126.44 255.059 126.44 255.252 126.482 255.513 126.565 255.773 126.649 256.028 126.742 256.279 126.847 256.529 126.951 256.753 127.065 256.951 127.191 257.149 127.316 257.227 127.451 257.185 127.597 257.394 127.847 257.712 128.217 258.139 128.707 258.566 129.197 258.993 129.593 259.421 129.895 259.848 130.197 260.223 130.307 260.546 130.223 260.869 130.14 261.031 129.671 261.031 128.816 261.031 127.191 260.593 125.695 259.718 124.33 258.842 122.964 257.889 121.63 256.857 120.328 255.825 119.025 254.872 117.733 253.996 116.451 253.121 115.169 252.683 113.798 252.683 112.339ZM274.715 121.688C274.715 120.229 274.877 118.509 275.2 116.529 275.523 114.549 276.07 112.673 276.841 110.901 277.613 109.129 278.629 107.623 279.89 106.383 281.151 105.143 282.74 104.523 284.658 104.523 286.45 104.523 287.795 105.038 288.691 106.07 289.587 107.102 290.036 108.493 290.036 110.244 290.036 111.391 289.822 112.647 289.395 114.012 288.967 115.377 288.358 116.669 287.566 117.889 286.774 119.108 285.836 120.124 284.752 120.937 283.668 121.75 282.459 122.157 281.125 122.157L280.312 122.094C280.312 122.657 280.395 123.413 280.562 124.361 280.729 125.309 280.974 126.253 281.297 127.191 281.62 128.128 282.037 128.952 282.547 129.661 283.058 130.369 283.678 130.724 284.408 130.724 285.471 130.724 286.492 130.296 287.472 129.442 288.451 128.587 289.379 127.639 290.255 126.596 291.13 125.554 291.943 124.606 292.693 123.751 293.444 122.897 294.132 122.469 294.757 122.469 295.09 122.469 295.434 122.521 295.789 122.626 296.143 122.73 296.341 123.022 296.383 123.501 296.383 123.793 296.305 124.033 296.148 124.22 295.992 124.408 295.851 124.616 295.726 124.846 295.08 125.95 294.376 127.003 293.616 128.003 292.855 129.004 291.995 129.911 291.036 130.724 290.077 131.536 289.03 132.177 287.894 132.646 286.758 133.115 285.502 133.35 284.126 133.35 282.334 133.35 280.843 133.032 279.655 132.396 278.467 131.761 277.508 130.906 276.779 129.833 276.049 128.759 275.523 127.519 275.2 126.112 274.877 124.705 274.715 123.23 274.715 121.688ZM280.312 119.311 281.187 120.093C281.604 120.468 282.021 120.552 282.438 120.343 282.855 120.135 283.23 119.754 283.564 119.202 283.897 118.65 284.205 117.967 284.486 117.154 284.767 116.341 285.017 115.507 285.236 114.653 285.455 113.798 285.617 112.964 285.721 112.152 285.825 111.339 285.877 110.661 285.877 110.119L285.877 109.056C285.877 109.056 285.846 108.681 285.783 107.931 285.721 107.18 285.612 106.883 285.455 107.04 285.299 107.196 285.054 107.045 284.72 106.586 284.616 106.565 284.522 106.555 284.439 106.555 283.73 106.555 283.126 107.003 282.626 107.899 282.084 108.9 281.646 110.114 281.312 111.542 280.979 112.97 280.739 114.434 280.593 115.935 280.447 117.435 280.354 118.561 280.312 119.311ZM300.843 120.406C300.843 118.988 301.036 117.623 301.422 116.31 301.807 114.997 302.386 113.824 303.157 112.792 303.928 111.761 304.892 110.937 306.049 110.322 307.206 109.708 308.545 109.4 310.067 109.4 311.005 109.4 312.042 109.541 313.178 109.822 314.314 110.104 315.382 110.52 316.383 111.073 317.383 111.625 318.217 112.329 318.884 113.183 319.551 114.038 319.884 115.018 319.884 116.122 319.884 116.643 319.796 117.039 319.619 117.31 319.442 117.581 319.082 117.717 318.54 117.717L318.196 117.654C318.801 119.28 319.322 120.948 319.759 122.657 320.197 124.366 320.624 126.075 321.041 127.785 321.208 128.118 321.333 128.415 321.417 128.676 321.5 128.936 321.542 129.192 321.542 129.442 321.542 129.775 321.448 130.051 321.26 130.27 321.073 130.489 320.828 130.651 320.525 130.755 320.223 130.859 319.91 130.932 319.587 130.974 319.264 131.015 318.978 131.036 318.728 131.036 317.831 131.036 317.159 130.88 316.711 130.567 316.263 130.255 315.94 129.827 315.742 129.285 315.544 128.743 315.424 128.134 315.382 127.456 315.34 126.779 315.257 126.096 315.132 125.408 314.882 126.221 314.554 127.013 314.147 127.785 313.741 128.556 313.261 129.249 312.709 129.864 312.157 130.479 311.505 130.969 310.755 131.333 310.004 131.698 309.16 131.88 308.222 131.88 306.846 131.88 305.69 131.484 304.752 130.692 303.814 129.9 303.058 128.926 302.485 127.769 301.912 126.612 301.495 125.377 301.234 124.064 300.974 122.751 300.843 121.531 300.843 120.406ZM305.283 119.968C305.283 120.739 305.335 121.552 305.44 122.407 305.544 123.261 305.716 124.106 305.955 124.939 306.195 125.773 306.503 126.56 306.878 127.3 307.253 128.04 307.722 128.691 308.285 129.254 309.306 128.149 310.062 126.805 310.552 125.221 311.041 123.637 311.479 122.11 311.865 120.64 312.25 119.171 312.688 117.91 313.178 116.857 313.668 115.804 314.423 115.278 315.445 115.278 316.091 115.278 316.633 115.393 317.071 115.622 316.862 115.101 316.518 114.595 316.039 114.106 315.559 113.616 315.023 113.168 314.429 112.761 313.834 112.355 313.22 112.021 312.584 111.761 311.948 111.5 311.349 111.37 310.786 111.37 310.619 111.37 310.426 111.396 310.208 111.448 309.989 111.5 309.817 111.505 309.692 111.464 308.837 111.714 308.134 112.146 307.581 112.761 307.029 113.376 306.581 114.1 306.237 114.934 305.893 115.768 305.648 116.623 305.502 117.498 305.356 118.373 305.283 119.197 305.283 119.968ZM327.941 111.651C327.941 110.797 328.092 110.078 328.394 109.494 328.696 108.91 329.337 108.618 330.317 108.618 330.692 108.618 331.161 108.676 331.724 108.79 332.287 108.905 332.61 109.192 332.693 109.65 332.902 110.88 333.016 112.214 333.037 113.652 333.058 115.091 333.131 116.445 333.256 117.717 333.735 116.779 334.35 115.768 335.101 114.684 335.851 113.6 336.706 112.6 337.665 111.683 338.623 110.765 339.666 110.005 340.791 109.4 341.917 108.796 343.063 108.493 344.23 108.493 344.314 108.493 344.47 108.525 344.699 108.587 344.929 108.65 345.142 108.738 345.34 108.853 345.538 108.968 345.658 109.098 345.7 109.244 345.742 109.39 345.627 109.525 345.356 109.65 345.273 109.9 345.095 110.051 344.824 110.104 344.553 110.156 344.314 110.182 344.105 110.182 343.98 110.182 343.782 110.13 343.511 110.025 341.969 110.838 340.656 111.943 339.572 113.34 338.488 114.736 337.602 116.284 336.914 117.983 336.226 119.681 335.726 121.474 335.413 123.36 335.101 125.247 334.944 127.086 334.944 128.879 334.944 129.775 334.741 130.317 334.335 130.505 333.928 130.692 333.277 130.786 332.381 130.786 331.901 130.786 331.396 130.734 330.864 130.63 330.333 130.526 329.963 130.192 329.754 129.629 329.379 128.441 329.072 127.076 328.832 125.533 328.592 123.991 328.41 122.402 328.285 120.765 328.16 119.129 328.071 117.519 328.019 115.935 327.967 114.351 327.941 112.923 327.941 111.651ZM350.161 119.78C350.161 118.28 350.353 116.774 350.739 115.262 351.125 113.751 351.724 112.396 352.537 111.198 353.35 109.999 354.387 109.025 355.648 108.275 356.909 107.524 358.394 107.149 360.103 107.149 360.833 107.149 361.635 107.238 362.511 107.415 363.386 107.592 364.194 107.873 364.934 108.259 365.674 108.645 366.299 109.145 366.81 109.76 367.321 110.375 367.576 111.13 367.576 112.026 367.576 112.589 367.43 112.964 367.138 113.152 366.846 113.34 366.461 113.433 365.981 113.433L365.762 113.121C365.762 113.121 365.559 112.855 365.153 112.323 364.746 111.792 364.47 111.448 364.324 111.292 364.178 111.135 363.897 110.828 363.48 110.369 362.625 109.515 361.823 109.056 361.073 108.994L360.822 108.994C360.197 108.994 359.613 109.181 359.072 109.556 358.467 110.015 357.93 110.661 357.461 111.495 356.992 112.329 356.602 113.215 356.289 114.153 355.976 115.091 355.731 116.039 355.554 116.998 355.377 117.957 355.288 118.749 355.288 119.374 355.288 120.229 355.387 121.203 355.585 122.297 355.783 123.392 356.117 124.429 356.586 125.408 357.055 126.388 357.649 127.211 358.368 127.878 359.087 128.545 360.009 128.879 361.135 128.879 362.156 128.879 363.084 128.629 363.918 128.128 364.752 127.628 365.549 127.071 366.31 126.456 367.07 125.841 367.816 125.288 368.545 124.799 369.275 124.309 370.025 124.064 370.796 124.064 371.13 124.064 371.469 124.106 371.812 124.189 372.156 124.272 372.328 124.491 372.328 124.846L372.328 125.033C371.953 126.013 371.317 126.878 370.421 127.628 369.525 128.379 368.519 129.03 367.404 129.582 366.289 130.135 365.132 130.546 363.933 130.817 362.735 131.088 361.667 131.224 360.729 131.224 358.978 131.224 357.44 130.937 356.117 130.364 354.793 129.791 353.694 129.004 352.818 128.003 351.943 127.003 351.281 125.799 350.833 124.392 350.385 122.985 350.161 121.448 350.161 119.78ZM377.446 123.814 377.446 120.875C377.446 119.812 377.472 118.306 377.524 116.357 377.576 114.408 377.644 112.271 377.727 109.947 377.81 107.623 377.925 105.2 378.071 102.678 378.217 100.156 378.384 97.7743 378.571 95.5336 378.759 93.2928 378.983 91.2866 379.243 89.5149 379.504 87.7431 379.801 86.4299 380.135 85.5753 380.343 85.0959 380.687 84.7937 381.166 84.6686 381.646 84.5435 382.115 84.481 382.573 84.481 383.303 84.481 383.944 84.6426 384.496 84.9656 385.049 85.2887 385.325 85.8776 385.325 86.7322L384.762 87.3575C384.032 92.1725 383.563 97.0083 383.355 101.865 383.147 106.722 383.001 111.578 382.917 116.435 383.438 115.622 384.027 114.825 384.684 114.043 385.34 113.261 386.07 112.568 386.872 111.964 387.675 111.359 388.54 110.875 389.467 110.51 390.395 110.145 391.411 109.963 392.516 109.963 393.933 109.963 395.106 110.39 396.033 111.245 396.961 112.099 397.727 113.209 398.331 114.575 398.936 115.94 399.384 117.467 399.676 119.155 399.968 120.843 400.192 122.532 400.348 124.22 400.504 125.909 400.614 127.508 400.676 129.02 400.739 130.531 400.833 131.787 400.958 132.787 400.562 133.329 399.978 133.6 399.207 133.6L399.113 133.6C398.78 133.6 398.415 133.558 398.019 133.475 397.623 133.392 397.362 133.183 397.237 132.85L397.3 132.912C397.008 132.266 396.81 131.333 396.706 130.114 396.601 128.895 396.518 127.55 396.455 126.081 396.393 124.611 396.283 123.105 396.127 121.563 395.971 120.02 395.736 118.624 395.424 117.373 395.111 116.122 394.652 115.091 394.048 114.278 393.444 113.465 392.631 113.037 391.609 112.996L391.422 112.996C390.192 112.996 389.16 113.371 388.326 114.121 387.451 114.913 386.742 115.956 386.2 117.248 385.658 118.54 385.241 119.978 384.95 121.563 384.658 123.147 384.434 124.674 384.277 126.143 384.121 127.613 384.001 128.947 383.918 130.145 383.834 131.344 383.73 132.224 383.605 132.787 383.48 133.267 383.11 133.584 382.495 133.741 381.88 133.897 381.354 133.975 380.916 133.975 379.895 133.975 379.061 133.683 378.415 133.1 377.936 131.953 377.654 130.526 377.571 128.816 377.487 127.107 377.446 125.44 377.446 123.814Z" fill="#3A9CED" transform="matrix(1 0 0 1.00204 275.218 159.422)"/></g></g></g></g></svg>